<svg id="energia-ecologica" xmlns="http://www.w3.org/2000/svg" width="108.512" height="108.465" viewBox="0 0 108.512 108.465">
  <g id="Grupo_1161947" data-name="Grupo 1161947" transform="translate(3.601 33.655)">
    <path id="Trazado_1018562" data-name="Trazado 1018562" d="M3.6,21.06H51.791V88.72H3.6Z" transform="translate(-3.6 -21.06)" fill="#f1f3f6"/>
  </g>
  <g id="Grupo_1161948" data-name="Grupo 1161948" transform="translate(3.601 27.349)">
    <path id="Trazado_1018563" data-name="Trazado 1018563" d="M3.6,23.706A6.309,6.309,0,0,1,9.906,17.4H45.485a6.309,6.309,0,0,1,6.306,6.306Z" transform="translate(-3.6 -17.4)" fill="#d5dce5"/>
  </g>
  <g id="Grupo_1161949" data-name="Grupo 1161949" transform="translate(3.601 101.315)">
    <path id="Trazado_1018564" data-name="Trazado 1018564" d="M51.791,60.33a6.309,6.309,0,0,1-6.306,6.306H9.906A6.309,6.309,0,0,1,3.6,60.33Z" transform="translate(-3.6 -60.33)" fill="#d5dce5"/>
  </g>
  <g id="Grupo_1161950" data-name="Grupo 1161950" transform="translate(2.774 32.845)">
    <path id="Trazado_1018565" data-name="Trazado 1018565" d="M52.138,89.9H3.947a.827.827,0,0,1-.827-.827V29.5a.827.827,0,0,1,.827-.827.839.839,0,0,1,.827.827V88.233h46.52V22.244H4.774v2.24a.827.827,0,0,1-.827.827.839.839,0,0,1-.827-.827V21.417a.827.827,0,0,1,.827-.827H52.138a.827.827,0,0,1,.827.827v67.66A.827.827,0,0,1,52.138,89.9Z" transform="translate(-3.12 -20.59)"/>
  </g>
  <g id="Grupo_1161951" data-name="Grupo 1161951" transform="translate(2.774 26.522)">
    <path id="Trazado_1018566" data-name="Trazado 1018566" d="M52.138,24.9H3.947a.827.827,0,0,1-.827-.827,7.155,7.155,0,0,1,7.15-7.15H45.849A7.155,7.155,0,0,1,53,24.07.881.881,0,0,1,52.138,24.9Zm-47.3-1.671h46.4a5.473,5.473,0,0,0-5.41-4.635H10.253a5.473,5.473,0,0,0-5.41,4.635Z" transform="translate(-3.12 -16.92)"/>
  </g>
  <g id="Grupo_1161952" data-name="Grupo 1161952" transform="translate(2.757 100.488)">
    <path id="Trazado_1018567" data-name="Trazado 1018567" d="M45.839,67.827H10.26a7.155,7.155,0,0,1-7.15-7.15.827.827,0,0,1,.827-.827H52.128a.827.827,0,0,1,.827.827A7.125,7.125,0,0,1,45.839,67.827ZM4.85,61.521a5.473,5.473,0,0,0,5.41,4.635H45.839a5.473,5.473,0,0,0,5.41-4.635Z" transform="translate(-3.11 -59.85)"/>
  </g>
  <g id="Grupo_1161953" data-name="Grupo 1161953" transform="translate(8.753 47.628)">
    <path id="Trazado_1018568" data-name="Trazado 1018568" d="M7.417,47.95a.827.827,0,0,1-.827-.827V30a.827.827,0,0,1,1.654,0V47.123A.816.816,0,0,1,7.417,47.95Z" transform="translate(-6.59 -29.17)" fill="#fff"/>
  </g>
  <g id="Grupo_1161954" data-name="Grupo 1161954" transform="translate(8.753 40.925)">
    <path id="Trazado_1018569" data-name="Trazado 1018569" d="M7.417,29.691a.827.827,0,0,1-.827-.827V26.107a.827.827,0,0,1,1.654,0v2.757A.806.806,0,0,1,7.417,29.691Z" transform="translate(-6.59 -25.28)" fill="#fff"/>
  </g>
  <g id="Grupo_1161955" data-name="Grupo 1161955" transform="translate(20.176 21.49)">
    <path id="Trazado_1018570" data-name="Trazado 1018570" d="M28.261,16.447v3.411H13.22V16.447A2.434,2.434,0,0,1,15.667,14H25.815A2.434,2.434,0,0,1,28.261,16.447Z" transform="translate(-13.22 -14)" fill="#f1f3f6"/>
  </g>
  <g id="Grupo_1161956" data-name="Grupo 1161956" transform="translate(19.349 20.664)">
    <path id="Trazado_1018571" data-name="Trazado 1018571" d="M28.608,21.049H13.567a.827.827,0,0,1-.827-.827V16.811a3.3,3.3,0,0,1,3.291-3.291H26.179a3.3,3.3,0,0,1,3.291,3.291v3.411A.881.881,0,0,1,28.608,21.049ZM14.394,19.378h13.37V16.794a1.618,1.618,0,0,0-1.62-1.62H16a1.618,1.618,0,0,0-1.62,1.62v2.584Z" transform="translate(-12.74 -13.52)"/>
  </g>
  <g id="Grupo_1161957" data-name="Grupo 1161957" transform="translate(56.72 33.655)">
    <path id="Trazado_1018572" data-name="Trazado 1018572" d="M34.43,21.06H82.621V88.72H34.43Z" transform="translate(-34.43 -21.06)" fill="#f1f3f6"/>
  </g>
  <g id="Grupo_1161958" data-name="Grupo 1161958" transform="translate(56.72 50.294)">
    <path id="Trazado_1018573" data-name="Trazado 1018573" d="M34.43,33.341V81.755H82.621V33.341c-25.345-10.424-27.171,14.576-48.191,0Z" transform="translate(-34.43 -30.717)" fill="#b9dd53"/>
  </g>
  <g id="Grupo_1161959" data-name="Grupo 1161959" transform="translate(56.72 50.284)">
    <path id="Trazado_1018574" data-name="Trazado 1018574" d="M82.621,33.328V81.742H34.43V33.328c21.02,14.593,22.846-10.407,48.191,0Z" transform="translate(-34.43 -30.712)" fill="#b9dd53"/>
  </g>
  <g id="Grupo_1161960" data-name="Grupo 1161960" transform="translate(56.72 61.652)">
    <path id="Trazado_1018575" data-name="Trazado 1018575" d="M82.621,37.31V76.972H34.43v-5s48.191,3.6,48.191-34.666Z" transform="translate(-34.43 -37.31)" fill="#a3c134"/>
  </g>
  <g id="Grupo_1161961" data-name="Grupo 1161961" transform="translate(56.72 27.349)">
    <path id="Trazado_1018576" data-name="Trazado 1018576" d="M34.43,23.706A6.309,6.309,0,0,1,40.736,17.4H76.315a6.309,6.309,0,0,1,6.306,6.306Z" transform="translate(-34.43 -17.4)" fill="#d5dce5"/>
  </g>
  <g id="Grupo_1161962" data-name="Grupo 1161962" transform="translate(56.72 101.315)">
    <path id="Trazado_1018577" data-name="Trazado 1018577" d="M82.621,60.33a6.309,6.309,0,0,1-6.306,6.306H40.736A6.309,6.309,0,0,1,34.43,60.33Z" transform="translate(-34.43 -60.33)" fill="#d5dce5"/>
  </g>
  <g id="Grupo_1161963" data-name="Grupo 1161963" transform="translate(55.893 32.828)">
    <path id="Trazado_1018578" data-name="Trazado 1018578" d="M34.777,69.753a.827.827,0,0,1-.827-.827V21.407a.827.827,0,0,1,.827-.827H82.968a.827.827,0,0,1,.827.827v5.238a.827.827,0,0,1-.827.827.839.839,0,0,1-.827-.827V22.234H35.621V68.891A.872.872,0,0,1,34.777,69.753Z" transform="translate(-33.95 -20.58)"/>
  </g>
  <g id="Grupo_1161964" data-name="Grupo 1161964" transform="translate(55.893 43.079)">
    <path id="Trazado_1018579" data-name="Trazado 1018579" d="M82.968,85.61H34.777a.827.827,0,0,1-.827-.827V69.638a.827.827,0,0,1,1.654,0V83.956h46.52v-56.6a.827.827,0,0,1,.827-.827.839.839,0,0,1,.827.827V84.765a.806.806,0,0,1-.81.844Z" transform="translate(-33.95 -26.53)"/>
  </g>
  <g id="Grupo_1161965" data-name="Grupo 1161965" transform="translate(55.882 49.459)">
    <path id="Trazado_1018580" data-name="Trazado 1018580" d="M82.972,82.933H34.781a.827.827,0,0,1-.827-.827.839.839,0,0,1,.827-.827H82.145V34.242c-11.733-4.652-18.022-1.5-24.121,1.551-6.461,3.239-12.578,6.289-23.725-1.43A.829.829,0,0,1,35.247,33c10.32,7.167,15.748,4.445,22.019,1.309,6.22-3.119,13.25-6.633,26.017-1.4a.829.829,0,0,1,.517.775V82.106a.827.827,0,0,1-.827.827Z" transform="translate(-33.944 -30.233)"/>
  </g>
  <g id="Grupo_1161966" data-name="Grupo 1161966" transform="translate(55.893 26.522)">
    <path id="Trazado_1018581" data-name="Trazado 1018581" d="M82.968,24.9H34.777a.827.827,0,0,1-.827-.827,7.155,7.155,0,0,1,7.15-7.15H76.679a7.155,7.155,0,0,1,7.15,7.15A.881.881,0,0,1,82.968,24.9Zm-47.3-1.671h46.4a5.473,5.473,0,0,0-5.41-4.635H41.083a5.473,5.473,0,0,0-5.41,4.635Z" transform="translate(-33.95 -16.92)"/>
  </g>
  <g id="Grupo_1161967" data-name="Grupo 1161967" transform="translate(55.875 100.488)">
    <path id="Trazado_1018582" data-name="Trazado 1018582" d="M76.669,67.827H41.09a7.155,7.155,0,0,1-7.15-7.15.827.827,0,0,1,.827-.827H82.975a.827.827,0,0,1,.827.827A7.151,7.151,0,0,1,76.669,67.827ZM35.68,61.521a5.473,5.473,0,0,0,5.41,4.635H76.669a5.473,5.473,0,0,0,5.41-4.635Z" transform="translate(-33.94 -59.85)"/>
  </g>
  <g id="Grupo_1161968" data-name="Grupo 1161968" transform="translate(61.871 71.008)">
    <path id="Trazado_1018583" data-name="Trazado 1018583" d="M38.247,61.52a.827.827,0,0,1-.827-.827V43.567a.827.827,0,0,1,.827-.827.839.839,0,0,1,.827.827V60.693A.816.816,0,0,1,38.247,61.52Z" transform="translate(-37.42 -42.74)" fill="#fff"/>
  </g>
  <g id="Grupo_1161969" data-name="Grupo 1161969" transform="translate(61.871 64.306)">
    <path id="Trazado_1018584" data-name="Trazado 1018584" d="M38.247,43.261a.827.827,0,0,1-.827-.827V39.677a.827.827,0,0,1,.827-.827.839.839,0,0,1,.827.827v2.757A.806.806,0,0,1,38.247,43.261Z" transform="translate(-37.42 -38.85)" fill="#fff"/>
  </g>
  <g id="Grupo_1161970" data-name="Grupo 1161970" transform="translate(73.294 21.49)">
    <path id="Trazado_1018585" data-name="Trazado 1018585" d="M59.091,16.447v3.411H44.05V16.447A2.434,2.434,0,0,1,46.5,14H56.645A2.434,2.434,0,0,1,59.091,16.447Z" transform="translate(-44.05 -14)" fill="#f1f3f6"/>
  </g>
  <g id="Grupo_1161971" data-name="Grupo 1161971" transform="translate(72.467 20.664)">
    <path id="Trazado_1018586" data-name="Trazado 1018586" d="M59.438,21.049H44.4a.827.827,0,0,1-.827-.827V16.811a3.3,3.3,0,0,1,3.291-3.291H57.009A3.3,3.3,0,0,1,60.3,16.811v3.411A.881.881,0,0,1,59.438,21.049ZM45.224,19.378h13.37V16.794a1.618,1.618,0,0,0-1.62-1.62H46.826a1.618,1.618,0,0,0-1.62,1.62v2.584Z" transform="translate(-43.57 -13.52)"/>
  </g>
  <g id="Grupo_1161972" data-name="Grupo 1161972" transform="translate(3.601 66.989)">
    <path id="Trazado_1018587" data-name="Trazado 1018587" d="M3.6,43.031v31.7H51.791v-31.7C26.446,32.607,24.62,57.607,3.6,43.031Z" transform="translate(-3.6 -40.407)" fill="#b9dd53"/>
  </g>
  <g id="Grupo_1161973" data-name="Grupo 1161973" transform="translate(3.601 66.989)">
    <path id="Trazado_1018588" data-name="Trazado 1018588" d="M51.791,43.031V74.75H3.6V43.031C24.62,57.607,26.446,32.607,51.791,43.031Z" transform="translate(-3.6 -40.407)" fill="#ff9a9a"/>
  </g>
  <g id="Grupo_1161974" data-name="Grupo 1161974" transform="translate(3.601 69.612)">
    <path id="Trazado_1018589" data-name="Trazado 1018589" d="M51.791,41.93v31.7H3.6v-5S50.792,72,51.791,41.93Z" transform="translate(-3.6 -41.93)" fill="#d86666"/>
  </g>
  <g id="Grupo_1161975" data-name="Grupo 1161975" transform="translate(2.774 66.265)">
    <path id="Trazado_1018590" data-name="Trazado 1018590" d="M52.138,75.881H3.947a.827.827,0,0,1-.827-.827v-31.7a.83.83,0,0,1,.448-.741.858.858,0,0,1,.861.052c5.5,3.825,9.924,5.152,14.369,4.307a.841.841,0,1,1,.31,1.654c-4.48.844-9.063-.327-14.318-3.687V74.244h46.52V43.9A31.1,31.1,0,0,0,42.3,41.646a.818.818,0,0,1-.758-.9.809.809,0,0,1,.9-.758,33.684,33.684,0,0,1,10.028,2.584.829.829,0,0,1,.517.775v31.7a.854.854,0,0,1-.844.827Z" transform="translate(-3.12 -39.987)"/>
  </g>
  <g id="Grupo_1161976" data-name="Grupo 1161976" transform="translate(106.237 106.811)">
    <path id="Trazado_1018591" data-name="Trazado 1018591" d="M64.617,65.174H64a.827.827,0,0,1,0-1.654h.62a.827.827,0,0,1,.827.827A.816.816,0,0,1,64.617,65.174Z" transform="translate(-63.17 -63.52)"/>
  </g>
  <g id="Grupo_1161977" data-name="Grupo 1161977" transform="translate(19.418 52.28)">
    <path id="Trazado_1018592" data-name="Trazado 1018592" d="M12.78,48l4.566,1.12L13.831,63.744l15.489-16.7-5.427-1.688L27.408,31.87Z" transform="translate(-12.78 -31.87)" fill="#6bbeeb"/>
  </g>
  <g id="Grupo_1161978" data-name="Grupo 1161978" transform="translate(18.606 51.433)">
    <path id="Trazado_1018593" data-name="Trazado 1018593" d="M14.172,64.944a.8.8,0,0,1-.4-.1.845.845,0,0,1-.414-.93l3.325-13.818-3.739-.913a.838.838,0,0,1-.6-.569.867.867,0,0,1,.172-.81L27.146,31.657a.815.815,0,0,1,1.017-.172.845.845,0,0,1,.414.948l-1.465,5.617a.836.836,0,0,1-1.62-.414l.6-2.326L14.689,47.887l3.187.793a.831.831,0,0,1,.62,1L15.722,61.205,28.145,47.818l-4.17-1.292a.848.848,0,0,1-.569-1.017l.689-2.671a.833.833,0,0,1,1.017-.6.846.846,0,0,1,.6,1.017l-.5,1.912,4.669,1.447a.879.879,0,0,1,.569.586.89.89,0,0,1-.19.793l-15.507,16.7a.806.806,0,0,1-.586.258Z" transform="translate(-12.309 -31.378)"/>
  </g>
  <g id="Grupo_1161979" data-name="Grupo 1161979" transform="translate(72.536 57)">
    <path id="Trazado_1018594" data-name="Trazado 1018594" d="M43.61,50.754l4.566,1.12L44.661,66.5l15.489-16.7-5.427-1.688L58.238,34.61Z" transform="translate(-43.61 -34.61)" fill="#f9b84e"/>
  </g>
  <g id="Grupo_1161980" data-name="Grupo 1161980" transform="translate(71.707 56.154)">
    <path id="Trazado_1018595" data-name="Trazado 1018595" d="M45.009,67.684a.8.8,0,0,1-.4-.1.845.845,0,0,1-.414-.93l3.325-13.818-3.756-.913a.838.838,0,0,1-.6-.569.867.867,0,0,1,.172-.81L57.966,34.4a.815.815,0,0,1,1.017-.172.845.845,0,0,1,.414.948l-1.465,5.634a.836.836,0,0,1-1.62-.414l.6-2.326L45.509,50.644l3.187.793a.831.831,0,0,1,.62,1L46.542,63.962,58.965,50.575,54.8,49.283a.848.848,0,0,1-.569-1.017l.689-2.671a.833.833,0,0,1,1.017-.6.846.846,0,0,1,.6,1.017l-.5,1.912,4.669,1.447a.879.879,0,0,1,.569.586.89.89,0,0,1-.19.793l-15.507,16.7a.728.728,0,0,1-.569.241Z" transform="translate(-43.129 -34.118)"/>
  </g>
  <g id="Grupo_1161981" data-name="Grupo 1161981" transform="translate(79.979 14.34)">
    <path id="Trazado_1018596" data-name="Trazado 1018596" d="M48.757,17.827A.827.827,0,0,1,47.93,17V10.677a.827.827,0,0,1,.827-.827.839.839,0,0,1,.827.827V17A.816.816,0,0,1,48.757,17.827Z" transform="translate(-47.93 -9.85)"/>
  </g>
  <g id="Grupo_1161982" data-name="Grupo 1161982" transform="translate(39.938 5.157)">
    <path id="Trazado_1018597" data-name="Trazado 1018597" d="M65.558,10.344a.827.827,0,0,1-.827-.827,3.346,3.346,0,0,0-3.343-3.343H25.517a.827.827,0,1,1,0-1.654H61.389A5.019,5.019,0,0,1,66.4,9.534.839.839,0,0,1,65.558,10.344Z" transform="translate(-24.69 -4.52)"/>
  </g>
  <g id="Grupo_1161983" data-name="Grupo 1161983" transform="translate(26.861 5.123)">
    <path id="Trazado_1018598" data-name="Trazado 1018598" d="M17.927,21.695a.827.827,0,0,1-.827-.827V9.514A5.019,5.019,0,0,1,22.114,4.5h3.894a.827.827,0,1,1,0,1.654H22.114A3.346,3.346,0,0,0,18.771,9.5V20.833A.849.849,0,0,1,17.927,21.695Z" transform="translate(-17.1 -4.5)"/>
  </g>
  <g id="Grupo_1161984" data-name="Grupo 1161984" transform="translate(50.534 2.245)">
    <ellipse id="Elipse_12800" data-name="Elipse 12800" cx="3.722" cy="3.722" rx="3.722" ry="3.722" fill="#726ad3"/>
  </g>
  <g id="Grupo_1161985" data-name="Grupo 1161985" transform="translate(50.844 2.538)">
    <path id="Trazado_1018599" data-name="Trazado 1018599" d="M38.153,6.429A3.716,3.716,0,0,1,31.02,7.893a3.935,3.935,0,0,0,1.447.276A3.722,3.722,0,0,0,35.879,3,3.723,3.723,0,0,1,38.153,6.429Z" transform="translate(-31.02 -3)" fill="#564dc6"/>
  </g>
  <g id="Grupo_1161986" data-name="Grupo 1161986" transform="translate(49.707 1.418)">
    <path id="Trazado_1018600" data-name="Trazado 1018600" d="M34.909,11.447A4.549,4.549,0,1,1,39.457,6.9,4.555,4.555,0,0,1,34.909,11.447Zm0-7.426A2.877,2.877,0,1,0,37.786,6.9,2.882,2.882,0,0,0,34.909,4.021Z" transform="translate(-30.36 -2.35)"/>
  </g>
  <g id="Grupo_1161987" data-name="Grupo 1161987" transform="translate(0 106.811)">
    <path id="Trazado_1018601" data-name="Trazado 1018601" d="M2.957,65.174h-.62a.827.827,0,1,1,0-1.654h.62a.827.827,0,0,1,.827.827A.839.839,0,0,1,2.957,65.174Z" transform="translate(-1.51 -63.52)"/>
  </g>
  <g id="Grupo_1161988" data-name="Grupo 1161988" transform="translate(3.119 106.811)">
    <path id="Trazado_1018602" data-name="Trazado 1018602" d="M104.767,65.174H4.147a.827.827,0,1,1,0-1.654h100.62a.827.827,0,0,1,.827.827A.816.816,0,0,1,104.767,65.174Z" transform="translate(-3.32 -63.52)"/>
  </g>
  <g id="Grupo_1161989" data-name="Grupo 1161989" transform="translate(87.474 0.751)">
    <path id="Trazado_1018603" data-name="Trazado 1018603" d="M72.473,9.573a3.57,3.57,0,0,1-3.567,3.36H52.28l.5-1.93a6.132,6.132,0,0,1,5.858-4.566,7.19,7.19,0,0,1,13.784,1.74,6.387,6.387,0,0,1,.052,1.4Z" transform="translate(-52.28 -1.963)" fill="#6bbeeb"/>
  </g>
  <g id="Grupo_1161990" data-name="Grupo 1161990" transform="translate(100.632 0)">
    <path id="Trazado_1018604" data-name="Trazado 1018604" d="M63.4,14.075a.827.827,0,0,1-.827-.827.839.839,0,0,1,.827-.827,2.722,2.722,0,0,0,2.722-2.567,7.346,7.346,0,0,0-.052-1.223,6.433,6.433,0,0,0-5.427-5.444.833.833,0,1,1,.207-1.654A8.1,8.1,0,0,1,67.71,8.407a7.656,7.656,0,0,1,.052,1.533A4.356,4.356,0,0,1,63.4,14.075Z" transform="translate(-59.917 -1.527)"/>
  </g>
  <g id="Grupo_1161991" data-name="Grupo 1161991" transform="translate(88.151 4.382)">
    <path id="Trazado_1018605" data-name="Trazado 1018605" d="M53.512,8.24a.8.8,0,0,1-.5-.172A.83.83,0,0,1,52.84,6.9,7.028,7.028,0,0,1,58.354,4.07h.017a.836.836,0,0,1,0,1.671,5.322,5.322,0,0,0-4.187,2.154A.817.817,0,0,1,53.512,8.24Z" transform="translate(-52.673 -4.07)"/>
  </g>
  <g id="Grupo_1161992" data-name="Grupo 1161992" transform="translate(92.798 4.382)">
    <path id="Trazado_1018606" data-name="Trazado 1018606" d="M59.695,6.9a.806.806,0,0,1-.482-.155,5.267,5.267,0,0,0-3.015-1A.831.831,0,0,1,55.37,4.9a.853.853,0,0,1,.844-.827,6.824,6.824,0,0,1,3.963,1.309.833.833,0,0,1,.19,1.172.817.817,0,0,1-.672.345Z" transform="translate(-55.37 -4.07)"/>
  </g>
  <g id="Grupo_1161993" data-name="Grupo 1161993" transform="translate(0.793 6.133)">
    <path id="Trazado_1018607" data-name="Trazado 1018607" d="M24.816,13.673a4.029,4.029,0,0,1-4.032,3.808H1.97l.569-2.171a6.939,6.939,0,0,1,6.616-5.169,8.136,8.136,0,0,1,15.593,1.981,6.73,6.73,0,0,1,.069,1.551Z" transform="translate(-1.97 -5.086)" fill="#6bbeeb"/>
  </g>
  <g id="Grupo_1161994" data-name="Grupo 1161994" transform="translate(15.794 5.358)">
    <path id="Trazado_1018608" data-name="Trazado 1018608" d="M14.507,18.633a.827.827,0,1,1,0-1.654,3.193,3.193,0,0,0,3.187-3.015,7.811,7.811,0,0,0-.052-1.413A7.383,7.383,0,0,0,11.406,6.3a.833.833,0,1,1,.207-1.654,9.064,9.064,0,0,1,7.667,7.684,9.614,9.614,0,0,1,.069,1.723A4.854,4.854,0,0,1,14.507,18.633Z" transform="translate(-10.677 -4.637)"/>
  </g>
  <g id="Grupo_1161995" data-name="Grupo 1161995" transform="translate(1.664 10.326)">
    <path id="Trazado_1018609" data-name="Trazado 1018609" d="M3.31,12.017a.8.8,0,0,1-.5-.172.845.845,0,0,1-.172-1.172A7.836,7.836,0,0,1,8.789,7.52h.017a.836.836,0,0,1,0,1.671,6.105,6.105,0,0,0-4.824,2.481.841.841,0,0,1-.672.345Z" transform="translate(-2.476 -7.52)"/>
  </g>
  <g id="Grupo_1161996" data-name="Grupo 1161996" transform="translate(6.926 10.343)">
    <path id="Trazado_1018610" data-name="Trazado 1018610" d="M10.3,10.494a.806.806,0,0,1-.482-.155A6.116,6.116,0,0,0,6.357,9.2a.831.831,0,0,1-.827-.844.81.81,0,0,1,.844-.827A7.617,7.617,0,0,1,10.8,8.995a.827.827,0,0,1-.5,1.5Z" transform="translate(-5.53 -7.53)"/>
  </g>
</svg>
