<svg id="bateria-ecologica" xmlns="http://www.w3.org/2000/svg" width="105.895" height="105.87" viewBox="0 0 105.895 105.87">
  <g id="Grupo_1161864" data-name="Grupo 1161864" transform="translate(73.238 0)">
    <g id="Grupo_1161860" data-name="Grupo 1161860">
      <path id="Trazado_1018480" data-name="Trazado 1018480" d="M49.066,32.362l-3.057-.154-.154-3.057C45.07,13.92,56.784,2.206,72.016,2.975l3.074.154L75.243,6.2C76.011,21.417,64.28,33.131,49.066,32.362Z" transform="translate(-44.213 -1.335)" fill="#a8cf39"/>
      <path id="Trazado_1018481" data-name="Trazado 1018481" d="M51.165,34.666c-.5,0-1.007-.017-1.52-.034l-3.057-.154a1.607,1.607,0,0,1-1.52-1.52L44.916,29.9A26.032,26.032,0,0,1,72.749,2.034l3.074.154a1.607,1.607,0,0,1,1.52,1.52L77.5,6.782A25.982,25.982,0,0,1,51.165,34.666Zm-2.971-3.33,1.605.085a23.244,23.244,0,0,0,17.878-6.608A23.2,23.2,0,0,0,74.3,6.952L74.218,5.33,72.6,5.245a22.842,22.842,0,0,0-24.487,24.5Z" transform="translate(-44.878 -2)" fill="#373d3d"/>
    </g>
    <g id="Grupo_1161861" data-name="Grupo 1161861" transform="translate(0.196 10.063)">
      <path id="Trazado_1018482" data-name="Trazado 1018482" d="M45.93,28.033,65.123,8.84" transform="translate(-44.329 -7.222)" fill="#a8cf39"/>
      <path id="Trazado_1018483" data-name="Trazado 1018483" d="M46.593,30.309a1.6,1.6,0,0,1-1.127-2.732L64.643,8.366a1.606,1.606,0,0,1,2.271,2.271L47.72,29.831a1.607,1.607,0,0,1-1.127.478Z" transform="translate(-44.993 -7.892)" fill="#373d3d"/>
    </g>
    <g id="Grupo_1161862" data-name="Grupo 1161862" transform="translate(14.399 15.044)">
      <path id="Trazado_1018484" data-name="Trazado 1018484" d="M61.216,14.02h-6.3a1.605,1.605,0,1,1,0-3.21h6.3a1.605,1.605,0,1,1,0,3.21Z" transform="translate(-53.31 -10.81)" fill="#373d3d"/>
    </g>
    <g id="Grupo_1161863" data-name="Grupo 1161863" transform="translate(8.524 15.54)">
      <path id="Trazado_1018485" data-name="Trazado 1018485" d="M51.475,19.689a1.6,1.6,0,0,1-1.605-1.605V12.705a1.605,1.605,0,0,1,3.21,0v5.379A1.6,1.6,0,0,1,51.475,19.689Z" transform="translate(-49.87 -11.1)" fill="#373d3d"/>
    </g>
  </g>
  <g id="Grupo_1161869" data-name="Grupo 1161869" transform="translate(0 47.212)">
    <g id="Grupo_1161865" data-name="Grupo 1161865">
      <path id="Trazado_1018486" data-name="Trazado 1018486" d="M32.362,56.792l-.154,3.057L29.152,60C13.92,60.771,2.206,49.057,2.975,33.842l.154-3.074L6.2,30.615C21.417,29.846,33.131,41.56,32.362,56.792Z" transform="translate(-1.315 -28.989)" fill="#a8cf39"/>
      <path id="Trazado_1018487" data-name="Trazado 1018487" d="M28.374,62.3A25.98,25.98,0,0,1,2.026,34.433l.154-3.074a1.607,1.607,0,0,1,1.52-1.52l3.074-.154A26.333,26.333,0,0,1,27.059,37.25a26.381,26.381,0,0,1,7.548,20.3l-.154,3.057a1.607,1.607,0,0,1-1.52,1.52l-3.057.154c-.5,0-.99.017-1.5.017ZM5.321,32.947l-.085,1.622a23.3,23.3,0,0,0,6.625,17.878A23.2,23.2,0,0,0,29.74,59.056l1.605-.085.085-1.605A23.194,23.194,0,0,0,24.8,39.487,23.134,23.134,0,0,0,6.943,32.862Z" transform="translate(-1.988 -29.648)" fill="#373d3d"/>
    </g>
    <g id="Grupo_1161866" data-name="Grupo 1161866" transform="translate(10.083 10.048)">
      <path id="Trazado_1018488" data-name="Trazado 1018488" d="M28.023,55.673,8.83,36.48" transform="translate(-7.229 -34.862)" fill="#a8cf39"/>
      <path id="Trazado_1018489" data-name="Trazado 1018489" d="M28.687,57.949a1.589,1.589,0,0,1-1.127-.461L8.366,38.277a1.606,1.606,0,0,1,2.271-2.271L29.831,55.2a1.6,1.6,0,0,1,0,2.271,1.678,1.678,0,0,1-1.144.478Z" transform="translate(-7.892 -35.532)" fill="#373d3d"/>
    </g>
    <g id="Grupo_1161867" data-name="Grupo 1161867" transform="translate(9.225 8.729)">
      <path id="Trazado_1018490" data-name="Trazado 1018490" d="M14.835,44.271H9a1.605,1.605,0,1,1,0-3.21H13.23v-4.7a1.605,1.605,0,0,1,3.21,0v6.3a1.6,1.6,0,0,1-1.605,1.605Z" transform="translate(-7.39 -34.76)" fill="#373d3d"/>
    </g>
    <g id="Grupo_1161868" data-name="Grupo 1161868" transform="translate(15.56 20.904)">
      <path id="Trazado_1018491" data-name="Trazado 1018491" d="M12.04,42.83h5.379" transform="translate(-10.435 -41.225)" fill="#a8cf39"/>
      <path id="Trazado_1018492" data-name="Trazado 1018492" d="M18.084,45.1H12.705a1.605,1.605,0,1,1,0-3.21h5.379a1.605,1.605,0,1,1,0,3.21Z" transform="translate(-11.1 -41.89)" fill="#373d3d"/>
    </g>
  </g>
  <g id="Grupo_1161870" data-name="Grupo 1161870" transform="translate(22.458 14.737)">
    <path id="Trazado_1018493" data-name="Trazado 1018493" d="M62.26,99.5H27.886A11.82,11.82,0,0,1,16.07,87.684V23.376A11.82,11.82,0,0,1,27.886,11.56H62.277A11.82,11.82,0,0,1,74.094,23.376V87.7A11.831,11.831,0,0,1,62.26,99.5Z" transform="translate(-14.482 -9.972)" fill="#fff"/>
    <path id="Trazado_1018494" data-name="Trazado 1018494" d="M63.516,101.763H27.947A12.822,12.822,0,0,1,15.14,88.956V23.437A12.822,12.822,0,0,1,27.947,10.63H63.533A12.822,12.822,0,0,1,76.34,23.437v65.52A12.837,12.837,0,0,1,63.516,101.763ZM27.947,13.823a9.623,9.623,0,0,0-9.614,9.614v65.52a9.623,9.623,0,0,0,9.614,9.614H63.533a9.623,9.623,0,0,0,9.614-9.614V23.437a9.623,9.623,0,0,0-9.614-9.614Z" transform="translate(-15.14 -10.63)" fill="#373d3d"/>
  </g>
  <g id="Grupo_1161875" data-name="Grupo 1161875" transform="translate(30.467 23.787)">
    <g id="Grupo_1161871" data-name="Grupo 1161871">
      <path id="Trazado_1018495" data-name="Trazado 1018495" d="M62.749,25.115V20.06a3.207,3.207,0,0,0-3.21-3.21H23.97a3.207,3.207,0,0,0-3.21,3.21v5.054a3.207,3.207,0,0,0,3.21,3.21H59.556a3.2,3.2,0,0,0,3.193-3.21Z" transform="translate(-19.172 -15.279)" fill="#a8cf39"/>
      <path id="Trazado_1018496" data-name="Trazado 1018496" d="M60.2,30.581H24.628a4.8,4.8,0,0,1-4.8-4.8V20.728a4.8,4.8,0,0,1,4.8-4.8H60.214a4.8,4.8,0,0,1,4.8,4.8v5.054A4.806,4.806,0,0,1,60.2,30.581ZM24.628,19.123a1.6,1.6,0,0,0-1.605,1.605v5.054a1.6,1.6,0,0,0,1.605,1.605H60.214a1.6,1.6,0,0,0,1.605-1.605V20.728a1.6,1.6,0,0,0-1.605-1.605Z" transform="translate(-19.83 -15.93)" fill="#373d3d"/>
    </g>
    <g id="Grupo_1161872" data-name="Grupo 1161872" transform="translate(0 19.466)">
      <path id="Trazado_1018497" data-name="Trazado 1018497" d="M62.749,36.515V31.46a3.207,3.207,0,0,0-3.21-3.21H23.97a3.207,3.207,0,0,0-3.21,3.21v5.054a3.207,3.207,0,0,0,3.21,3.21H59.556a3.2,3.2,0,0,0,3.193-3.21Z" transform="translate(-19.172 -26.679)" fill="#a8cf39"/>
      <path id="Trazado_1018498" data-name="Trazado 1018498" d="M60.2,41.981H24.628a4.8,4.8,0,0,1-4.8-4.8V32.128a4.8,4.8,0,0,1,4.8-4.8H60.214a4.8,4.8,0,0,1,4.8,4.8v5.054A4.817,4.817,0,0,1,60.2,41.981ZM24.628,30.523a1.6,1.6,0,0,0-1.605,1.605v5.054a1.6,1.6,0,0,0,1.605,1.605H60.214a1.6,1.6,0,0,0,1.605-1.605V32.128a1.6,1.6,0,0,0-1.605-1.605Z" transform="translate(-19.83 -27.33)" fill="#373d3d"/>
    </g>
    <g id="Grupo_1161873" data-name="Grupo 1161873" transform="translate(0 38.916)">
      <path id="Trazado_1018499" data-name="Trazado 1018499" d="M62.749,47.915V42.86a3.207,3.207,0,0,0-3.21-3.21H23.97a3.207,3.207,0,0,0-3.21,3.21v5.054a3.207,3.207,0,0,0,3.21,3.21H59.556a3.2,3.2,0,0,0,3.193-3.21Z" transform="translate(-19.172 -38.062)" fill="#a8cf39"/>
      <path id="Trazado_1018500" data-name="Trazado 1018500" d="M60.2,53.371H24.628a4.8,4.8,0,0,1-4.8-4.8V43.518a4.8,4.8,0,0,1,4.8-4.8H60.214a4.8,4.8,0,0,1,4.8,4.8v5.054A4.806,4.806,0,0,1,60.2,53.371ZM24.628,41.93a1.6,1.6,0,0,0-1.605,1.605V48.59a1.6,1.6,0,0,0,1.605,1.605H60.214a1.6,1.6,0,0,0,1.605-1.605V43.535a1.6,1.6,0,0,0-1.605-1.605Z" transform="translate(-19.83 -38.72)" fill="#373d3d"/>
    </g>
    <g id="Grupo_1161874" data-name="Grupo 1161874" transform="translate(0 58.382)">
      <path id="Trazado_1018501" data-name="Trazado 1018501" d="M62.749,59.315V54.26a3.207,3.207,0,0,0-3.21-3.21H23.97a3.207,3.207,0,0,0-3.21,3.21v5.054a3.207,3.207,0,0,0,3.21,3.21H59.556a3.225,3.225,0,0,0,3.193-3.21Z" transform="translate(-19.172 -49.462)" fill="#a8cf39"/>
      <path id="Trazado_1018502" data-name="Trazado 1018502" d="M60.2,64.771H24.628a4.8,4.8,0,0,1-4.8-4.8V54.918a4.8,4.8,0,0,1,4.8-4.8H60.214a4.8,4.8,0,0,1,4.8,4.8v5.054A4.806,4.806,0,0,1,60.2,64.771ZM24.628,53.313a1.6,1.6,0,0,0-1.605,1.605v5.054a1.6,1.6,0,0,0,1.605,1.605H60.214a1.6,1.6,0,0,0,1.605-1.605V54.918a1.6,1.6,0,0,0-1.605-1.605Z" transform="translate(-19.83 -50.12)" fill="#373d3d"/>
    </g>
  </g>
  <g id="Grupo_1161876" data-name="Grupo 1161876" transform="translate(35.282 0.172)">
    <path id="Trazado_1018503" data-name="Trazado 1018503" d="M55.915,17.589H23.59V11.954A8.92,8.92,0,0,1,32.5,3.04H47a8.92,8.92,0,0,1,8.914,8.914Z" transform="translate(-21.985 -1.435)" fill="#a8cf39"/>
    <path id="Trazado_1018504" data-name="Trazado 1018504" d="M56.58,19.859H24.255a1.6,1.6,0,0,1-1.605-1.605v-6.54A9.623,9.623,0,0,1,32.264,2.1H48.571a9.623,9.623,0,0,1,9.614,9.614v6.54A1.6,1.6,0,0,1,56.58,19.859ZM25.86,16.666H54.975V11.714a6.406,6.406,0,0,0-6.4-6.4H32.264a6.406,6.406,0,0,0-6.4,6.4Z" transform="translate(-22.65 -2.1)" fill="#373d3d"/>
  </g>
</svg>
