<svg id="amor-tierra" xmlns="http://www.w3.org/2000/svg" width="102.313" height="102.313" viewBox="0 0 102.313 102.313">
  <g id="Grupo_1160642" data-name="Grupo 1160642" transform="translate(0.001 0)">
    <g id="Grupo_1160623" data-name="Grupo 1160623">
      <g id="Grupo_1160621" data-name="Grupo 1160621">
        <g id="Grupo_1160619" data-name="Grupo 1160619" transform="translate(0 0.787)">
          <g id="Grupo_1160618" data-name="Grupo 1160618">
            <g id="Grupo_1160603" data-name="Grupo 1160603" transform="translate(0.786)">
              <path id="Trazado_1015373" data-name="Trazado 1015373" d="M88.262,88.262a50.364,50.364,0,1,1,0-71.226A50.351,50.351,0,0,1,88.262,88.262Z" transform="translate(-2.28 -2.28)" fill="#6bbeeb"/>
            </g>
            <g id="Grupo_1160604" data-name="Grupo 1160604" transform="translate(11.935 11.149)">
              <path id="Trazado_1015374" data-name="Trazado 1015374" d="M83.913,83.913a50.351,50.351,0,0,1-71.226,0,51.912,51.912,0,0,1-3.607-4A50.375,50.375,0,0,0,79.912,9.08a51.251,51.251,0,0,1,4,3.607A50.366,50.366,0,0,1,83.913,83.913Z" transform="translate(-9.08 -9.08)" fill="#2e87af"/>
            </g>
            <g id="Grupo_1160605" data-name="Grupo 1160605" transform="translate(33.474 8.972)">
              <path id="Trazado_1015375" data-name="Trazado 1015375" d="M37.93,18.177c-1.492,1.558-3.673,1.131-5.558.672-2.066-.508-4.1-1-6.149-1.492-.148-.049-.3-.082-.475-.131-3.591-1-4.8-5.69-1.935-8.067l.033-.033a6.924,6.924,0,0,1,4.935-1.344,13.757,13.757,0,0,1,4.968,1.574c2.2,1.1,4.394,2.607,5.034,5.132a3.837,3.837,0,0,1-.853,3.689Z" transform="translate(-22.217 -7.752)" fill="#b9dd53"/>
            </g>
            <g id="Grupo_1160606" data-name="Grupo 1160606" transform="translate(59.9 2.689)">
              <path id="Trazado_1015376" data-name="Trazado 1015376" d="M76.285,32.646a28.306,28.306,0,0,0-6.46-1.64c-3.328-.443-6.722-.328-10.018-.918-3.3-.607-6.657-2.082-8.461-4.919-1.672-2.623-1.869-6.181-4.132-8.313-1.59-1.476-3.82-1.951-5.722-2.935-1.935-1-3.706-3.1-3-5.132.492-1.377,1.9-2.164,3.2-2.8C43.066,5.3,44.427,4.609,45.8,3.92A50.668,50.668,0,0,1,76.285,32.646Z" transform="translate(-38.334 -3.92)" fill="#fff"/>
            </g>
            <g id="Grupo_1160607" data-name="Grupo 1160607" transform="translate(82.767 11.182)">
              <path id="Trazado_1015377" data-name="Trazado 1015377" d="M67.348,29.333a27.6,27.6,0,0,0-5.591-1.492A49.363,49.363,0,0,0,52.28,9.1a47.8,47.8,0,0,1,3.984,3.574A49.812,49.812,0,0,1,67.348,29.333Z" transform="translate(-52.28 -9.1)" fill="#c6d0e0"/>
            </g>
            <g id="Grupo_1160608" data-name="Grupo 1160608" transform="translate(48.974 81.312)">
              <path id="Trazado_1015378" data-name="Trazado 1015378" d="M63.315,61.789a50.217,50.217,0,0,1-27.644,9.477,19.937,19.937,0,0,0-2.394-6.313,15.329,15.329,0,0,1-1.344-2.509A3.359,3.359,0,0,1,32,59.69,3.51,3.51,0,0,1,35.392,58.2a22.589,22.589,0,0,1,3.8.935,5.116,5.116,0,0,0,3.82-.213c1.443-.82,1.968-2.574,2.64-4.1.672-1.508,1.935-3.115,3.574-2.935,1.181.131,2.05,1.131,2.82,2.017a30.509,30.509,0,0,0,11.264,7.887Z" transform="translate(-31.67 -51.872)" fill="#b9dd53"/>
            </g>
            <g id="Grupo_1160609" data-name="Grupo 1160609" transform="translate(49.647 85.015)">
              <path id="Trazado_1015379" data-name="Trazado 1015379" d="M63.053,60.344a50.217,50.217,0,0,1-27.644,9.477,19.937,19.937,0,0,0-2.394-6.313c-.312-.525-.656-1.066-.935-1.623A50.008,50.008,0,0,0,53.428,54.13,30.439,30.439,0,0,0,63.053,60.344Z" transform="translate(-32.08 -54.13)" fill="#83960f"/>
            </g>
            <g id="Grupo_1160610" data-name="Grupo 1160610" transform="translate(48.401 37.547)">
              <path id="Trazado_1015380" data-name="Trazado 1015380" d="M80.87,56.661q-5.534,1.918-11.051,3.82c-3.952,1.361-9,3.263-12.888,1.722-3.41-1.344-4.952-5.165-7.985-7.231-2.41-1.656-5.263-2.492-8.018-3.476s-5.542-2.2-7.493-4.361c-1.951-2.181-2.853-5.542-1.394-8.083,1.738-3.017,6.788-3.328,8.034-6.575.754-1.951-.41-5.2,1.2-6.542,1.049-.869,2.574-.8,3.919-.689,6.017.59,12.363,2.41,18.184,4.017,6.985,1.918,13.724,4,20.823,3.853A50.515,50.515,0,0,1,80.87,56.661Z" transform="translate(-31.32 -25.18)" fill="#b9dd53"/>
            </g>
            <g id="Grupo_1160611" data-name="Grupo 1160611" transform="translate(82.931 44.942)">
              <path id="Trazado_1015381" data-name="Trazado 1015381" d="M67.383,53.776q-5.534,1.918-11.051,3.82c-1.23.41-2.574.9-3.952,1.312A50.193,50.193,0,0,0,63.316,29.69a41.339,41.339,0,0,0,7.411.574,50.24,50.24,0,0,1-3.345,23.512Z" transform="translate(-52.38 -29.69)" fill="#83960f"/>
            </g>
            <g id="Grupo_1160612" data-name="Grupo 1160612" transform="translate(0.781 16.97)">
              <path id="Trazado_1015382" data-name="Trazado 1015382" d="M16.055,47.866c-2.591,1.64-5.64,2.377-8.608,3.214a31.654,31.654,0,0,0-4.722,1.672A50.293,50.293,0,0,1,14.956,12.63c.426.377.836.771,1.246,1.148,1.59,1.558,2.984,3.755,2.345,5.886-.574,1.9-2.591,3.017-3.492,4.8-1.328,2.591.016,5.739,1.672,8.149,1.656,2.394,3.722,4.788,3.87,7.706.164,3.066-1.935,5.886-4.542,7.542Z" transform="translate(-2.277 -12.63)" fill="#b9dd53"/>
            </g>
            <g id="Grupo_1160613" data-name="Grupo 1160613" transform="translate(0 16.181)">
              <path id="Trazado_1015383" data-name="Trazado 1015383" d="M3.046,53.847a.762.762,0,0,1-.377-.1.814.814,0,0,1-.41-.59A51.037,51.037,0,0,1,14.671,12.413a.747.747,0,0,1,.541-.262.818.818,0,0,1,.574.2c.426.394.853.771,1.263,1.181,1.312,1.3,3.394,3.87,2.541,6.673a7.777,7.777,0,0,1-2.05,3.017,8.733,8.733,0,0,0-1.492,1.9c-1.279,2.492.459,5.673,1.623,7.346.246.361.508.721.771,1.082,1.525,2.132,3.1,4.329,3.246,7.034.2,3.656-2.41,6.673-4.9,8.264A28.741,28.741,0,0,1,9,51.863l-1.033.3a30.857,30.857,0,0,0-4.591,1.623.734.734,0,0,1-.328.066ZM15.326,14.053A49.478,49.478,0,0,0,3.685,51.912a33.063,33.063,0,0,1,3.853-1.279l1.033-.3A27.215,27.215,0,0,0,15.933,47.5c2.115-1.361,4.329-3.87,4.181-6.854C20,38.4,18.557,36.4,17.163,34.45c-.262-.361-.525-.738-.787-1.1-1.656-2.394-3.3-5.9-1.722-8.952a10.053,10.053,0,0,1,1.754-2.263A6.755,6.755,0,0,0,18.1,19.742c.639-2.082-1.279-4.263-2.132-5.1l-.639-.59Z" transform="translate(-1.801 -12.149)"/>
            </g>
            <g id="Grupo_1160614" data-name="Grupo 1160614" transform="translate(5.229 71.078)">
              <path id="Trazado_1015384" data-name="Trazado 1015384" d="M42.341,74.553A50.459,50.459,0,0,1,4.99,45.63a32.285,32.285,0,0,1,5.493.508,15.49,15.49,0,0,1,9.28,5.083,42.5,42.5,0,0,1,3.378,5.739,25.355,25.355,0,0,0,8.854,9.018c2.509,1.508,5.329,2.607,7.477,4.607a13.3,13.3,0,0,1,2.869,3.968Z" transform="translate(-4.99 -45.63)" fill="#fff"/>
            </g>
            <g id="Grupo_1160615" data-name="Grupo 1160615" transform="translate(11.919 81.965)">
              <path id="Trazado_1015385" data-name="Trazado 1015385" d="M39.715,70.306A50.162,50.162,0,0,1,12.677,56.287,48.635,48.635,0,0,1,9.07,52.27,50.1,50.1,0,0,0,30.6,62.419a29.91,29.91,0,0,1,6.247,3.919,12.748,12.748,0,0,1,2.869,3.968Z" transform="translate(-9.07 -52.27)" fill="#c6d0e0"/>
            </g>
            <g id="Grupo_1160616" data-name="Grupo 1160616" transform="translate(59.119 5.595)">
              <path id="Trazado_1015386" data-name="Trazado 1015386" d="M76.59,32.3a.766.766,0,0,1-.279-.049,28,28,0,0,0-6.28-1.59c-1.443-.2-2.951-.279-4.394-.361a47.857,47.857,0,0,1-5.657-.557c-4.115-.754-7.313-2.623-8.985-5.263a17.858,17.858,0,0,1-1.64-3.722,10.732,10.732,0,0,0-2.377-4.443,10.687,10.687,0,0,0-3.492-1.9c-.689-.279-1.394-.557-2.066-.9-2.312-1.2-4.2-3.673-3.361-6.083a4.383,4.383,0,0,1,.935-1.492.788.788,0,1,1,1.131,1.1,2.576,2.576,0,0,0-.59.918c-.525,1.525.951,3.279,2.607,4.132.607.312,1.246.574,1.935.853a12.177,12.177,0,0,1,3.968,2.214,12.082,12.082,0,0,1,2.771,5.083,15.193,15.193,0,0,0,1.492,3.394c1.951,3.066,5.8,4.181,7.936,4.558a50.756,50.756,0,0,0,5.476.541c1.476.082,3,.18,4.509.377a29.262,29.262,0,0,1,4.919,1.1A49.557,49.557,0,0,0,64.932,15.411.788.788,0,0,1,66.047,14.3,51.2,51.2,0,0,1,77.3,31.218a.814.814,0,0,1-.164.853A.743.743,0,0,1,76.59,32.3Z" transform="translate(-37.857 -5.692)"/>
            </g>
            <g id="Grupo_1160617" data-name="Grupo 1160617" transform="translate(32.688 8.202)">
              <path id="Trazado_1015387" data-name="Trazado 1015387" d="M35.4,20.346a12.287,12.287,0,0,1-2.919-.443l-1.771-.426c-1.459-.361-2.919-.721-4.378-1.066a2.242,2.242,0,0,0-.312-.082l-.18-.049a5.615,5.615,0,0,1-3.984-4.263,5.173,5.173,0,0,1,1.771-5.148,7.719,7.719,0,0,1,5.542-1.558,14.854,14.854,0,0,1,5.263,1.656c2.148,1.066,4.706,2.689,5.444,5.64a4.685,4.685,0,0,1-1.066,4.443,4.575,4.575,0,0,1-3.41,1.3ZM24.693,10c-.016.016-.049.049-.066.049a3.622,3.622,0,0,0-1.23,3.624,4.043,4.043,0,0,0,2.869,3.083l.164.049.344.1c1.394.328,2.853.689,4.312,1.049l1.771.426c1.869.443,3.656.754,4.8-.443a3.079,3.079,0,0,0,.672-2.951c-.59-2.345-2.771-3.706-4.624-4.624a13.364,13.364,0,0,0-4.689-1.492A6.132,6.132,0,0,0,24.693,10Z" transform="translate(-21.737 -7.282)"/>
            </g>
          </g>
        </g>
        <g id="Grupo_1160620" data-name="Grupo 1160620" transform="translate(0.031)">
          <path id="Trazado_1015388" data-name="Trazado 1015388" d="M52.944,104.08a51.11,51.11,0,1,1,36.17-14.953l-.557-.557.557.557A50.994,50.994,0,0,1,52.944,104.08Zm0-100.706A49.6,49.6,0,1,0,88,17.9,49.25,49.25,0,0,0,52.944,3.374Z" transform="translate(-1.82 -1.8)"/>
        </g>
      </g>
      <g id="Grupo_1160622" data-name="Grupo 1160622" transform="translate(47.602 37.564)">
        <path id="Trazado_1015389" data-name="Trazado 1015389" d="M60.506,63.881a9.625,9.625,0,0,1-3.558-.623c-2.132-.836-3.574-2.541-4.952-4.165a16.5,16.5,0,0,0-3.181-3.148A27.006,27.006,0,0,0,42.24,53.01c-.426-.148-.853-.3-1.263-.443-2.82-1-5.722-2.246-7.821-4.575-1.951-2.181-3.246-5.919-1.508-9,.935-1.64,2.623-2.525,4.263-3.378,1.623-.853,3.164-1.656,3.722-3.1a7.189,7.189,0,0,0,.23-2.541c-.016-1.541-.033-3.3,1.2-4.329,1.3-1.066,3-1,4.509-.853,5.673.541,11.461,2.148,17.085,3.706l3.115.869c6.362,1.771,12.4,3.443,18.741,3.312a.767.767,0,0,1,.8.771.777.777,0,0,1-.771.8c-6.591.148-12.707-1.558-19.2-3.361l-3.115-.853c-5.542-1.525-11.281-3.115-16.806-3.656-1.181-.115-2.525-.18-3.345.508-.656.557-.656,1.787-.639,3.1a8.147,8.147,0,0,1-.344,3.115c-.771,1.984-2.64,2.968-4.46,3.919-1.508.787-2.919,1.525-3.624,2.771-1.312,2.3-.328,5.345,1.312,7.165,1.853,2.066,4.542,3.214,7.165,4.132.41.148.836.3,1.263.443a27.748,27.748,0,0,1,6.936,3.132,18.706,18.706,0,0,1,3.492,3.427c1.312,1.558,2.558,3.017,4.329,3.722,3.443,1.344,8.051-.246,11.773-1.541l1.312-.459c3.443-1.181,6.87-2.377,10.313-3.574a.788.788,0,0,1,.508,1.492c-3.443,1.2-6.886,2.377-10.33,3.574l-1.312.459c-2.8.951-6.132,2.115-9.264,2.115Z" transform="translate(-30.833 -24.71)"/>
      </g>
    </g>
    <g id="Grupo_1160635" data-name="Grupo 1160635" transform="translate(22.659 26.658)">
      <g id="Grupo_1160634" data-name="Grupo 1160634">
        <g id="Grupo_1160632" data-name="Grupo 1160632" transform="translate(0.765 0.801)">
          <g id="Grupo_1160631" data-name="Grupo 1160631">
            <g id="Grupo_1160630" data-name="Grupo 1160630">
              <g id="Grupo_1160629" data-name="Grupo 1160629">
                <g id="Grupo_1160624" data-name="Grupo 1160624" transform="translate(0.014)">
                  <path id="Trazado_1015390" data-name="Trazado 1015390" d="M59.52,53.525A90.216,90.216,0,0,0,43.813,65.954,89.606,89.606,0,0,0,28.105,53.525c-10.986-7-15.216-17.4-9.4-27.89,5.837-10.477,19.905-9.248,25.1,3.083,5.2-12.314,19.266-13.56,25.1-3.083,5.821,10.477,1.59,20.889-9.4,27.89Z" transform="translate(-16.095 -18.547)" fill="#ff9a9a"/>
                </g>
                <g id="Grupo_1160625" data-name="Grupo 1160625" transform="translate(0 0)">
                  <path id="Trazado_1015391" data-name="Trazado 1015391" d="M59.526,53.525A90.292,90.292,0,0,0,43.818,65.937,90.13,90.13,0,0,0,28.11,53.525a29.854,29.854,0,0,1-8.444-7.755c-4.247-5.985-4.9-13.035-.951-20.135,5.837-10.477,19.905-9.248,25.1,3.083,5.2-12.314,19.266-13.56,25.1-3.083a20.025,20.025,0,0,1,2.541,7.936c.689,7.624-3.738,14.74-11.937,19.954Z" transform="translate(-16.087 -18.547)" fill="#ff9a9a"/>
                </g>
                <g id="Grupo_1160626" data-name="Grupo 1160626" transform="translate(5.985 8.997)">
                  <path id="Trazado_1015392" data-name="Trazado 1015392" d="M20.512,27.028a.665.665,0,0,1-.312-.066.78.78,0,0,1-.394-1.033c.213-.492.475-1,.738-1.492a.785.785,0,0,1,1.377.754c-.246.443-.475.9-.689,1.361A.775.775,0,0,1,20.512,27.028Z" transform="translate(-19.737 -24.035)" fill="#fff"/>
                </g>
                <g id="Grupo_1160627" data-name="Grupo 1160627" transform="translate(4.769 15.384)">
                  <path id="Trazado_1015393" data-name="Trazado 1015393" d="M22.331,37.342a.778.778,0,0,1-.639-.328A13.455,13.455,0,0,1,19,28.684a.759.759,0,0,1,.82-.754.788.788,0,0,1,.754.82,11.954,11.954,0,0,0,2.41,7.378.8.8,0,0,1-.18,1.1,1.192,1.192,0,0,1-.475.115Z" transform="translate(-18.996 -27.93)" fill="#fff"/>
                </g>
                <g id="Grupo_1160628" data-name="Grupo 1160628" transform="translate(3.579 15.024)">
                  <path id="Trazado_1015394" data-name="Trazado 1015394" d="M58.129,47.664A90.292,90.292,0,0,0,42.422,60.076,90.13,90.13,0,0,0,26.714,47.664a29.854,29.854,0,0,1-8.444-7.755c15.445.541,38.384-.9,51.8-12.2C70.755,35.334,66.328,42.45,58.129,47.664Z" transform="translate(-18.27 -27.71)" fill="#d86666"/>
                </g>
              </g>
            </g>
          </g>
        </g>
        <g id="Grupo_1160633" data-name="Grupo 1160633">
          <path id="Trazado_1015395" data-name="Trazado 1015395" d="M44.117,67.037a.781.781,0,0,1-.557-.23A88.531,88.531,0,0,0,27.983,54.494a30.464,30.464,0,0,1-8.657-7.969c-4.575-6.46-4.919-13.9-1-20.971a13.726,13.726,0,0,1,12.806-7.477c5.411.3,10.166,3.656,12.986,9.084,2.82-5.427,7.559-8.788,12.969-9.084,5.263-.279,10.051,2.509,12.822,7.477a20.825,20.825,0,0,1,2.64,8.247c.705,7.837-3.656,15.183-12.3,20.692A89.14,89.14,0,0,0,44.674,66.807a.781.781,0,0,1-.557.23ZM30.409,19.651A12.236,12.236,0,0,0,19.7,26.341c-3.673,6.591-3.361,13.265.918,19.3a28.9,28.9,0,0,0,8.215,7.542A90.784,90.784,0,0,1,44.117,65.151,91.45,91.45,0,0,1,59.4,53.182c8.116-5.165,12.232-12,11.576-19.216a19.376,19.376,0,0,0-2.443-7.624,12.214,12.214,0,0,0-11.363-6.673c-5.3.3-9.9,3.9-12.33,9.657a.768.768,0,0,1-.721.475.794.794,0,0,1-.721-.475c-2.443-5.771-7.05-9.379-12.346-9.657-.213-.016-.426-.016-.639-.016Z" transform="translate(-15.62 -18.058)"/>
        </g>
      </g>
    </g>
    <g id="Grupo_1160641" data-name="Grupo 1160641" transform="translate(25.003 65.388)">
      <g id="Grupo_1160636" data-name="Grupo 1160636" transform="translate(4.407 3.374)">
        <path id="Trazado_1015396" data-name="Trazado 1015396" d="M20.529,50.169a.81.81,0,0,1-.557-.23.782.782,0,0,1,0-1.115l4.853-4.853a.788.788,0,1,1,1.115,1.115l-4.853,4.853a.719.719,0,0,1-.557.23Z" transform="translate(-19.737 -43.738)"/>
      </g>
      <g id="Grupo_1160639" data-name="Grupo 1160639">
        <g id="Grupo_1160637" data-name="Grupo 1160637">
          <path id="Trazado_1015397" data-name="Trazado 1015397" d="M23.707,43.254h-5.87a.787.787,0,1,1,0-1.574h5.87a.777.777,0,0,1,.787.787A.8.8,0,0,1,23.707,43.254Z" transform="translate(-17.05 -41.68)"/>
        </g>
        <g id="Grupo_1160638" data-name="Grupo 1160638" transform="translate(12.658 6.788)">
          <path id="Trazado_1015398" data-name="Trazado 1015398" d="M25.557,53.264a.777.777,0,0,1-.787-.787v-5.87a.787.787,0,1,1,1.574,0v5.87A.787.787,0,0,1,25.557,53.264Z" transform="translate(-24.77 -45.82)"/>
        </g>
      </g>
      <g id="Grupo_1160640" data-name="Grupo 1160640" transform="translate(1.308 10.457)">
        <path id="Trazado_1015399" data-name="Trazado 1015399" d="M18.639,50.521a.81.81,0,0,1-.557-.23.782.782,0,0,1,0-1.115l.885-.885a.788.788,0,0,1,1.115,1.115l-.885.885A.841.841,0,0,1,18.639,50.521Z" transform="translate(-17.847 -48.057)"/>
      </g>
    </g>
  </g>
  <g id="Grupo_1160643" data-name="Grupo 1160643" transform="translate(4.44 71.062)">
    <path id="Trazado_1015400" data-name="Trazado 1015400" d="M42.649,75.654a.361.361,0,0,1-.131-.016A50.881,50.881,0,0,1,15.054,61.389,51.118,51.118,0,0,1,4.577,46.255a.776.776,0,0,1,.066-.754.8.8,0,0,1,.672-.361,33.16,33.16,0,0,1,5.64.508,16.237,16.237,0,0,1,9.739,5.362,23.513,23.513,0,0,1,2.476,4.05c.312.607.623,1.2.967,1.787a24.467,24.467,0,0,0,8.575,8.739c.771.459,1.607.9,2.394,1.328a23.164,23.164,0,0,1,5.2,3.378,14,14,0,0,1,3.05,4.214.784.784,0,0,1-.082.82.749.749,0,0,1-.623.328Zm-36.1-28.89A49.722,49.722,0,0,0,16.153,60.29,49.222,49.222,0,0,0,41.141,73.784a11.622,11.622,0,0,0-1.918-2.328,22.378,22.378,0,0,0-4.87-3.148c-.82-.426-1.656-.885-2.476-1.377a26.111,26.111,0,0,1-9.133-9.3c-.344-.607-.672-1.23-1-1.853a22.875,22.875,0,0,0-2.312-3.788,14.711,14.711,0,0,0-8.8-4.8,34.8,34.8,0,0,0-4.083-.426Z" transform="translate(-4.508 -45.14)"/>
  </g>
  <g id="Grupo_1160644" data-name="Grupo 1160644" transform="translate(48.193 81.309)">
    <path id="Trazado_1015401" data-name="Trazado 1015401" d="M35.976,72.345a.775.775,0,0,1-.771-.639,19.169,19.169,0,0,0-2.3-6.067l-.3-.492A11.561,11.561,0,0,1,31.5,63a4.11,4.11,0,0,1,.115-3.394,4.286,4.286,0,0,1,4.148-1.9,11.991,11.991,0,0,1,2.82.639c.377.115.738.23,1.115.328a4.3,4.3,0,0,0,3.23-.131c.984-.557,1.476-1.738,2-3,.1-.246.2-.492.312-.721,1.017-2.312,2.656-3.591,4.378-3.41,1.476.164,2.492,1.328,3.3,2.246A29.384,29.384,0,0,0,63.9,61.375a.83.83,0,0,1,.492.639.792.792,0,0,1-.328.738,50.762,50.762,0,0,1-28.071,9.625c0-.033,0-.033-.016-.033Zm-.59-13.084a2.215,2.215,0,0,0-2.394,3.214,11.285,11.285,0,0,0,.967,1.869c.1.164.213.344.312.508a20.664,20.664,0,0,1,2.345,5.9,49.257,49.257,0,0,0,25.4-8.493,30.887,30.887,0,0,1-10.231-7.526c-.738-.836-1.459-1.656-2.328-1.771-1.181-.131-2.2,1.2-2.771,2.476-.1.23-.2.459-.3.705-.574,1.377-1.213,2.935-2.673,3.755a5.8,5.8,0,0,1-4.411.3c-.394-.1-.8-.23-1.2-.344a11.713,11.713,0,0,0-2.476-.574,1.086,1.086,0,0,0-.246-.016Z" transform="translate(-31.192 -51.39)"/>
  </g>
  <g id="Grupo_1160648" data-name="Grupo 1160648" transform="translate(0 100.739)">
    <g id="Grupo_1160645" data-name="Grupo 1160645">
      <path id="Trazado_1015402" data-name="Trazado 1015402" d="M3.374,64.814H2.587a.787.787,0,1,1,0-1.574h.787a.787.787,0,1,1,0,1.574Z" transform="translate(-1.8 -63.24)"/>
    </g>
    <g id="Grupo_1160646" data-name="Grupo 1160646" transform="translate(4.722)">
      <path id="Trazado_1015403" data-name="Trazado 1015403" d="M96.532,64.814H5.467a.787.787,0,1,1,0-1.574H96.532a.787.787,0,1,1,0,1.574Z" transform="translate(-4.68 -63.24)"/>
    </g>
    <g id="Grupo_1160647" data-name="Grupo 1160647" transform="translate(99.722)">
      <path id="Trazado_1015404" data-name="Trazado 1015404" d="M64.424,64.814H63.407a.787.787,0,1,1,0-1.574h1a.787.787,0,0,1,.016,1.574Z" transform="translate(-62.62 -63.24)"/>
    </g>
  </g>
  <g id="Grupo_1160656" data-name="Grupo 1160656" transform="translate(7.083 80.424)">
    <g id="Grupo_1160651" data-name="Grupo 1160651">
      <g id="Grupo_1160650" data-name="Grupo 1160650">
        <g id="Grupo_1160649" data-name="Grupo 1160649">
          <path id="Trazado_1015405" data-name="Trazado 1015405" d="M94.267,69.165a5.945,5.945,0,0,1-.689,2.787H6.809a5.979,5.979,0,0,1,9.182-7.329,7.469,7.469,0,0,1,14.019.492,5.99,5.99,0,0,1,7.723-.935c-.016-.279-.033-.541-.033-.836a12.5,12.5,0,0,1,25,0c0,.279-.016.557-.033.836a5.849,5.849,0,0,1,3.312-1,5.967,5.967,0,0,1,4.411,1.935,7.469,7.469,0,0,1,14.019-.492,5.964,5.964,0,0,1,9.854,4.542Z" transform="translate(-6.12 -50.85)" fill="#ab5b51"/>
        </g>
      </g>
    </g>
    <g id="Grupo_1160653" data-name="Grupo 1160653" transform="translate(0 12.838)">
      <g id="Grupo_1160652" data-name="Grupo 1160652">
        <path id="Trazado_1015406" data-name="Trazado 1015406" d="M94.267,64.156a5.945,5.945,0,0,1-.689,2.787H6.809a6.016,6.016,0,0,1-.689-2.705H88.512a2.839,2.839,0,0,0,2.869-2.755v-.033a5.831,5.831,0,0,0-.689-2.771,5.969,5.969,0,0,1,3.574,5.476Z" transform="translate(-6.12 -58.68)" fill="#9e463f"/>
      </g>
    </g>
    <g id="Grupo_1160654" data-name="Grupo 1160654" transform="translate(49.003 5.274)">
      <path id="Trazado_1015407" data-name="Trazado 1015407" d="M39.7,62.074a.777.777,0,0,1-.787-.787,7.8,7.8,0,0,0-2.64-5.837.79.79,0,0,1,1.049-1.181,9.382,9.382,0,0,1,3.164,7.018A.787.787,0,0,1,39.7,62.074Z" transform="translate(-36.007 -54.067)" fill="#fff"/>
    </g>
    <g id="Grupo_1160655" data-name="Grupo 1160655" transform="translate(43.286 3.099)">
      <path id="Trazado_1015408" data-name="Trazado 1015408" d="M35.373,54.56a.8.8,0,0,1-.2-.016,7.99,7.99,0,0,0-1.869-.23.787.787,0,1,1,0-1.574,9.366,9.366,0,0,1,2.246.279.781.781,0,0,1,.574.951.769.769,0,0,1-.754.59Z" transform="translate(-32.52 -52.74)" fill="#fff"/>
    </g>
  </g>
  <g id="Grupo_1160659" data-name="Grupo 1160659" transform="translate(6.296 79.637)">
    <g id="Grupo_1160658" data-name="Grupo 1160658">
      <g id="Grupo_1160657" data-name="Grupo 1160657">
        <path id="Trazado_1015409" data-name="Trazado 1015409" d="M93.885,73.046H7.116a.765.765,0,0,1-.689-.426,6.755,6.755,0,0,1,5.985-9.92A6.733,6.733,0,0,1,16,63.733a8.251,8.251,0,0,1,14.609.344,6.813,6.813,0,0,1,6.608-.9,13.29,13.29,0,0,1,26.562,0A6.823,6.823,0,0,1,66.29,62.7a6.746,6.746,0,0,1,4.1,1.377A8.251,8.251,0,0,1,85,63.733a6.769,6.769,0,0,1,10.362,5.739,6.591,6.591,0,0,1-.787,3.148.765.765,0,0,1-.689.426ZM7.608,71.472H93.393a5.211,5.211,0,0,0-4.8-7.2,5.176,5.176,0,0,0-3.378,1.246.79.79,0,0,1-1.246-.312,6.672,6.672,0,0,0-12.527.443.791.791,0,0,1-1.328.3,5.2,5.2,0,0,0-6.69-.836.807.807,0,0,1-.836.033.782.782,0,0,1-.394-.738c.016-.262.033-.508.033-.787a11.715,11.715,0,0,0-23.43,0c0,.262.016.525.033.787a.8.8,0,0,1-.394.738.808.808,0,0,1-.836-.033,5.169,5.169,0,0,0-2.869-.853,5.1,5.1,0,0,0-3.82,1.672.768.768,0,0,1-.754.23.777.777,0,0,1-.574-.525,6.683,6.683,0,0,0-12.543-.443.825.825,0,0,1-.541.475.788.788,0,0,1-.705-.164,5.2,5.2,0,0,0-8.575,3.952,5.262,5.262,0,0,0,.394,2.017Z" transform="translate(-5.64 -50.37)"/>
      </g>
    </g>
  </g>
</svg>
