<svg xmlns="http://www.w3.org/2000/svg" xmlns:xlink="http://www.w3.org/1999/xlink" width="121" height="125" viewBox="0 0 121 125">
  <defs>
    <filter id="Elipse_12783" x="0" y="0" width="121" height="125" filterUnits="userSpaceOnUse">
      <feOffset dy="3" input="SourceAlpha"/>
      <feGaussianBlur stdDeviation="3" result="blur"/>
      <feFlood flood-opacity="0.161"/>
      <feComposite operator="in" in2="blur"/>
      <feComposite in="SourceGraphic"/>
    </filter>
  </defs>
  <g id="Grupo_1163284" data-name="Grupo 1163284" transform="translate(-593.025 -6771.27)">
    <g transform="matrix(1, 0, 0, 1, 593.03, 6771.27)" filter="url(#Elipse_12783)">
      <ellipse id="Elipse_12783-2" data-name="Elipse 12783" cx="51.5" cy="53.5" rx="51.5" ry="53.5" transform="translate(9 6)" fill="#fff"/>
    </g>
    <g id="balance" transform="translate(620.481 6797.77)">
      <g id="Grupo_1160974" data-name="Grupo 1160974">
        <g id="Grupo_1160908" data-name="Grupo 1160908">
          <g id="Grupo_1160907" data-name="Grupo 1160907">
            <g id="Grupo_1160906" data-name="Grupo 1160906">
              <g id="Grupo_1160905" data-name="Grupo 1160905">
                <g id="Grupo_1160899" data-name="Grupo 1160899">
                  <path id="Trazado_1015573" data-name="Trazado 1015573" d="M58.75,64.01H29.3a5.366,5.366,0,0,1,9.79-3.04h.07a1.91,1.91,0,0,1,2.62-.49,5.022,5.022,0,0,1-.11-1.04,5.224,5.224,0,0,1,10.3-1.23c.59-.95,1.51-2.02,2.43-1.57.47.23.24,1.17-.15,2.11a1.938,1.938,0,0,1,1.93,1.93v.33A3.042,3.042,0,0,1,58.75,64.01Z" fill="#b9dd53"/>
                </g>
                <g id="Grupo_1160900" data-name="Grupo 1160900">
                  <path id="Trazado_1015574" data-name="Trazado 1015574" d="M58.75,64.01H29.3a5.37,5.37,0,0,1,9.79-3.06h.07a1.93,1.93,0,0,1,1.56-.81,1.9,1.9,0,0,1,1.07.32,5.022,5.022,0,0,1-.11-1.04,5.224,5.224,0,0,1,10.3-1.23c.59-.95,1.51-2.02,2.43-1.57.47.23.24,1.17-.15,2.11a1.933,1.933,0,0,1,1.93,1.94V61c.13.02.26.06.39.09a3.061,3.061,0,0,1,2.17,2.92Z" fill="#b9dd53"/>
                </g>
                <g id="Grupo_1160901" data-name="Grupo 1160901">
                  <path id="Trazado_1015575" data-name="Trazado 1015575" d="M58.75,64.01H29.3a5.35,5.35,0,0,1,.38-2l.16-.08s16.79.78,26.76-.83A3.046,3.046,0,0,1,58.75,64.01Z" fill="#a3c134"/>
                </g>
                <g id="Grupo_1160902" data-name="Grupo 1160902">
                  <path id="Trazado_1015576" data-name="Trazado 1015576" d="M51.63,59.31a.493.493,0,0,1-.23-.06.483.483,0,0,1-.2-.66c.1-.19.23-.42.37-.65a.487.487,0,0,1,.83.51c-.13.21-.24.41-.34.59a.5.5,0,0,1-.43.27Z" fill="#050505"/>
                </g>
                <g id="Grupo_1160903" data-name="Grupo 1160903">
                  <path id="Trazado_1015577" data-name="Trazado 1015577" d="M58.75,64.5H29.3a.48.48,0,0,1-.48-.48,5.857,5.857,0,0,1,10.35-3.76,2.433,2.433,0,0,1,2.04-.53c0-.09-.01-.19-.01-.28a5.712,5.712,0,0,1,10.94-2.3c1.04-1.26,1.91-1.23,2.49-.95,1.01.49.31,2.18.09,2.73a.482.482,0,1,1-.89-.37c.5-1.22.36-1.52.35-1.52-.62-.29-1.45.89-1.78,1.42a.483.483,0,0,1-.88-.15,4.693,4.693,0,0,0-4.6-3.61,4.75,4.75,0,0,0-4.74,4.74,3.844,3.844,0,0,0,.1.93.512.512,0,0,1-.2.51.483.483,0,0,1-.54,0,1.472,1.472,0,0,0-1.96.36.488.488,0,0,1-.4.21h-.07a.488.488,0,0,1-.4-.21,4.879,4.879,0,0,0-8.88,2.28H58.25a2.553,2.553,0,0,0-2.1-2.04.493.493,0,0,1-.41-.48v-.33a.48.48,0,0,1,.48-.48.486.486,0,0,1,.48.43,3.519,3.519,0,0,1,2.55,3.39.506.506,0,0,1-.5.49Z" fill="#050505"/>
                </g>
                <g id="Grupo_1160904" data-name="Grupo 1160904">
                  <path id="Trazado_1015578" data-name="Trazado 1015578" d="M53.81,60.1a.521.521,0,0,1-.29-.09.492.492,0,0,1-.11-.68,2.139,2.139,0,0,0,.39-.71.482.482,0,1,1,.93.25,2.853,2.853,0,0,1-.54,1.03.433.433,0,0,1-.38.2Z" fill="#050505"/>
                </g>
              </g>
            </g>
          </g>
        </g>
        <g id="Grupo_1160918" data-name="Grupo 1160918">
          <g id="Grupo_1160917" data-name="Grupo 1160917">
            <g id="Grupo_1160916" data-name="Grupo 1160916">
              <g id="Grupo_1160915" data-name="Grupo 1160915">
                <g id="Grupo_1160909" data-name="Grupo 1160909">
                  <path id="Trazado_1015579" data-name="Trazado 1015579" d="M6.69,64.01H36.15a5.366,5.366,0,0,0-9.79-3.04h-.07a1.91,1.91,0,0,0-2.62-.49,5.022,5.022,0,0,0,.11-1.04,5.224,5.224,0,0,0-10.3-1.23c-.59-.95-1.51-2.02-2.43-1.57-.47.23-.24,1.17.15,2.11a1.938,1.938,0,0,0-1.93,1.93v.33a3.042,3.042,0,0,0-2.58,3Z" fill="#b9dd53"/>
                </g>
                <g id="Grupo_1160910" data-name="Grupo 1160910">
                  <path id="Trazado_1015580" data-name="Trazado 1015580" d="M6.69,64.01H36.14a5.37,5.37,0,0,0-9.79-3.06h-.07a1.93,1.93,0,0,0-1.56-.81,1.9,1.9,0,0,0-1.07.32,5.022,5.022,0,0,0,.11-1.04,5.224,5.224,0,0,0-10.3-1.23c-.59-.95-1.51-2.02-2.43-1.57-.47.23-.24,1.17.15,2.11a1.933,1.933,0,0,0-1.93,1.94V61c-.13.02-.26.06-.39.09a3.073,3.073,0,0,0-2.17,2.92Z" fill="#b9dd53"/>
                </g>
                <g id="Grupo_1160911" data-name="Grupo 1160911">
                  <path id="Trazado_1015581" data-name="Trazado 1015581" d="M6.69,64.01H36.14a5.35,5.35,0,0,0-.38-2l-.16-.08s-16.79.78-26.76-.83a3.058,3.058,0,0,0-2.15,2.91Z" fill="#a3c134"/>
                </g>
                <g id="Grupo_1160912" data-name="Grupo 1160912">
                  <path id="Trazado_1015582" data-name="Trazado 1015582" d="M13.82,59.31a.485.485,0,0,1-.43-.26c-.09-.18-.21-.38-.34-.59a.487.487,0,0,1,.83-.51c.14.23.27.45.37.65a.483.483,0,0,1-.2.66.635.635,0,0,1-.23.05Z" fill="#050505"/>
                </g>
                <g id="Grupo_1160913" data-name="Grupo 1160913">
                  <path id="Trazado_1015583" data-name="Trazado 1015583" d="M36.15,64.5H6.69a.48.48,0,0,1-.48-.48,3.51,3.51,0,0,1,2.55-3.39.485.485,0,0,1,.48-.43.48.48,0,0,1,.48.48v.33a.484.484,0,0,1-.41.48,2.553,2.553,0,0,0-2.1,2.04H35.63a4.879,4.879,0,0,0-8.88-2.28.488.488,0,0,1-.4.21h-.07a.488.488,0,0,1-.4-.21,1.4,1.4,0,0,0-1.16-.6,1.364,1.364,0,0,0-.79.24.483.483,0,0,1-.54,0,.5.5,0,0,1-.2-.51,4.493,4.493,0,0,0,.1-.93,4.75,4.75,0,0,0-4.74-4.74,4.7,4.7,0,0,0-4.6,3.61.508.508,0,0,1-.39.37.5.5,0,0,1-.49-.22c-.33-.52-1.16-1.71-1.81-1.39a3.046,3.046,0,0,0,.38,1.49.482.482,0,0,1-.89.37c-.23-.55-.92-2.24.09-2.73.58-.29,1.45-.31,2.49.95a5.712,5.712,0,0,1,10.94,2.3,2.62,2.62,0,0,1-.01.28,2.458,2.458,0,0,1,2.04.53,5.857,5.857,0,0,1,10.35,3.76.5.5,0,0,1-.5.47Z" fill="#050505"/>
                </g>
                <g id="Grupo_1160914" data-name="Grupo 1160914">
                  <path id="Trazado_1015584" data-name="Trazado 1015584" d="M11.64,60.1a.474.474,0,0,1-.39-.2,2.854,2.854,0,0,1-.54-1.03.482.482,0,0,1,.93-.25,1.815,1.815,0,0,0,.39.71.483.483,0,0,1-.11.68.468.468,0,0,1-.28.09Z" fill="#050505"/>
                </g>
              </g>
            </g>
          </g>
        </g>
        <g id="Grupo_1160949" data-name="Grupo 1160949">
          <g id="Grupo_1160941" data-name="Grupo 1160941">
            <g id="Grupo_1160930" data-name="Grupo 1160930">
              <g id="Grupo_1160928" data-name="Grupo 1160928">
                <g id="Grupo_1160919" data-name="Grupo 1160919">
                  <path id="Trazado_1015585" data-name="Trazado 1015585" d="M53.18,21.03a1.94,1.94,0,0,1-1.77,1.15,1.889,1.889,0,0,1-.8-.17L14.4,5.7a1.947,1.947,0,0,1,.8-3.72,1.889,1.889,0,0,1,.8.17L52.22,18.46A1.945,1.945,0,0,1,53.18,21.03Z" fill="#ffca6b"/>
                </g>
                <g id="Grupo_1160923" data-name="Grupo 1160923">
                  <g id="Grupo_1160920" data-name="Grupo 1160920">
                    <path id="Trazado_1015586" data-name="Trazado 1015586" d="M39.19,42.27H64.01v4.09H39.19Z" fill="#ffca6b"/>
                  </g>
                  <g id="Grupo_1160921" data-name="Grupo 1160921">
                    <path id="Trazado_1015587" data-name="Trazado 1015587" d="M64.01,46.84H39.19a.48.48,0,0,1-.48-.48V42.27a.48.48,0,0,1,.48-.48H64.01a.48.48,0,0,1,.48.48v4.09A.468.468,0,0,1,64.01,46.84Zm-24.33-.96H63.53V42.76H39.68Z"/>
                  </g>
                  <g id="Grupo_1160922" data-name="Grupo 1160922">
                    <path id="Trazado_1015588" data-name="Trazado 1015588" d="M64.01,42.76H39.19a.486.486,0,0,1-.41-.74l12.41-20.1a.5.5,0,0,1,.82,0l12.41,20.1a.486.486,0,0,1-.41.74Zm-23.95-.97H63.14L51.6,23.1Z"/>
                  </g>
                </g>
                <g id="Grupo_1160927" data-name="Grupo 1160927">
                  <g id="Grupo_1160924" data-name="Grupo 1160924">
                    <path id="Trazado_1015589" data-name="Trazado 1015589" d="M1.99,25.8H26.81v4.09H1.99Z" fill="#ffca6b"/>
                  </g>
                  <g id="Grupo_1160925" data-name="Grupo 1160925">
                    <path id="Trazado_1015590" data-name="Trazado 1015590" d="M26.81,30.37H1.99a.48.48,0,0,1-.48-.48V25.8a.48.48,0,0,1,.48-.48H26.81a.48.48,0,0,1,.48.48v4.09A.487.487,0,0,1,26.81,30.37ZM2.47,29.4H26.32V26.28H2.47Z"/>
                  </g>
                  <g id="Grupo_1160926" data-name="Grupo 1160926">
                    <path id="Trazado_1015591" data-name="Trazado 1015591" d="M26.81,26.28H1.99a.486.486,0,0,1-.41-.74L13.99,5.44a.5.5,0,0,1,.82,0l12.41,20.1a.486.486,0,0,1-.41.74ZM2.85,25.31H25.93L14.4,6.62Z"/>
                  </g>
                </g>
              </g>
              <g id="Grupo_1160929" data-name="Grupo 1160929">
                <path id="Trazado_1015592" data-name="Trazado 1015592" d="M51.41,22.66a2.411,2.411,0,0,1-.99-.21L14.2,6.14a2.437,2.437,0,0,1-1.27-1.35,2.429,2.429,0,0,1,3.26-3.08L52.41,18.02a2.437,2.437,0,0,1,1.27,1.35,2.376,2.376,0,0,1-.06,1.85l-.44-.2.44.2a2.419,2.419,0,0,1-2.21,1.44ZM15.19,2.47a1.473,1.473,0,0,0-1.33.86,1.449,1.449,0,0,0-.03,1.12,1.472,1.472,0,0,0,.76.81l36.22,16.3a1.38,1.38,0,0,0,.6.13,1.473,1.473,0,0,0,1.33-.86,1.426,1.426,0,0,0,.03-1.11,1.472,1.472,0,0,0-.76-.81L15.79,2.6a1.38,1.38,0,0,0-.6-.13Z"/>
              </g>
            </g>
            <g id="Grupo_1160931" data-name="Grupo 1160931">
              <path id="Trazado_1015593" data-name="Trazado 1015593" d="M18.37,60.3H47.62v3.71H18.37Z" fill="#f9b84e"/>
            </g>
            <g id="Grupo_1160933" data-name="Grupo 1160933">
              <g id="Grupo_1160932" data-name="Grupo 1160932">
                <path id="Trazado_1015594" data-name="Trazado 1015594" d="M47.63,64.5H18.37a.48.48,0,0,1-.48-.48V60.3a.48.48,0,0,1,.48-.48H47.62a.48.48,0,0,1,.48.48v3.71a.474.474,0,0,1-.47.49Zm-28.77-.97H47.15V60.79H18.86Z"/>
              </g>
            </g>
            <g id="Grupo_1160934" data-name="Grupo 1160934">
              <path id="Trazado_1015595" data-name="Trazado 1015595" d="M42.89,60.3H23.11a7.439,7.439,0,0,0,7.44-7.44V9.65a2.45,2.45,0,0,1,4.9,0v43.2a7.441,7.441,0,0,0,7.44,7.45Z" fill="#ffca6b"/>
            </g>
            <g id="Grupo_1160935" data-name="Grupo 1160935">
              <path id="Trazado_1015596" data-name="Trazado 1015596" d="M42.89,60.78H23.11a.48.48,0,0,1-.48-.48.487.487,0,0,1,.48-.48,6.965,6.965,0,0,0,6.96-6.96V9.65a2.93,2.93,0,0,1,5.86,0v43.2a6.965,6.965,0,0,0,6.96,6.96.48.48,0,0,1,.48.48.489.489,0,0,1-.48.49ZM26.9,59.82H39.1a7.935,7.935,0,0,1-4.13-6.96V9.65a1.928,1.928,0,0,0-.58-1.39,1.966,1.966,0,0,0-3.35,1.39v43.2a7.96,7.96,0,0,1-4.14,6.97Z"/>
            </g>
            <g id="Grupo_1160936" data-name="Grupo 1160936">
              <path id="Trazado_1015597" data-name="Trazado 1015597" d="M37.25,11.22A4.25,4.25,0,1,1,33,6.97,4.246,4.246,0,0,1,37.25,11.22Z" fill="#f9b84e"/>
            </g>
            <g id="Grupo_1160937" data-name="Grupo 1160937">
              <path id="Trazado_1015598" data-name="Trazado 1015598" d="M37.25,11.22A4.248,4.248,0,0,1,29.1,12.9a4.262,4.262,0,0,0,5.59-5.59,4.278,4.278,0,0,1,2.56,3.91Z" fill="#ef8f06"/>
            </g>
            <g id="Grupo_1160938" data-name="Grupo 1160938">
              <path id="Trazado_1015599" data-name="Trazado 1015599" d="M34.33,11.22A1.33,1.33,0,1,1,33,9.89,1.336,1.336,0,0,1,34.33,11.22Z" fill="#f1f3f6"/>
            </g>
            <g id="Grupo_1160939" data-name="Grupo 1160939">
              <path id="Trazado_1015600" data-name="Trazado 1015600" d="M33,15.96a4.735,4.735,0,1,1,4.74-4.74A4.735,4.735,0,0,1,33,15.96Zm0-8.5a3.765,3.765,0,1,0,3.77,3.76A3.768,3.768,0,0,0,33,7.46Z"/>
            </g>
            <g id="Grupo_1160940" data-name="Grupo 1160940">
              <path id="Trazado_1015601" data-name="Trazado 1015601" d="M33,13.04a1.815,1.815,0,1,1,1.82-1.82A1.812,1.812,0,0,1,33,13.04Zm0-2.66a.839.839,0,0,0-.84.84.845.845,0,1,0,.84-.84Z"/>
            </g>
          </g>
          <g id="Grupo_1160948" data-name="Grupo 1160948">
            <g id="Grupo_1160942" data-name="Grupo 1160942">
              <path id="Trazado_1015602" data-name="Trazado 1015602" d="M3,64.5H1.99a.48.48,0,0,1,0-.96H3a.48.48,0,0,1,0,.96Z"/>
            </g>
            <g id="Grupo_1160943" data-name="Grupo 1160943">
              <path id="Trazado_1015603" data-name="Trazado 1015603" d="M61.32,64.5H4.68a.48.48,0,0,1,0-.96H61.31a.48.48,0,0,1,.48.48A.472.472,0,0,1,61.32,64.5Z"/>
            </g>
            <g id="Grupo_1160944" data-name="Grupo 1160944">
              <path id="Trazado_1015604" data-name="Trazado 1015604" d="M64.01,64.5H63a.48.48,0,0,1,0-.96h1.01a.48.48,0,0,1,.48.48A.474.474,0,0,1,64.01,64.5Z"/>
            </g>
            <g id="Grupo_1160945" data-name="Grupo 1160945">
              <path id="Trazado_1015605" data-name="Trazado 1015605" d="M61.32,64.5H4.68a.48.48,0,0,1,0-.96H61.31a.48.48,0,0,1,.48.48A.472.472,0,0,1,61.32,64.5Z"/>
            </g>
            <g id="Grupo_1160946" data-name="Grupo 1160946">
              <path id="Trazado_1015606" data-name="Trazado 1015606" d="M64.01,64.5H63a.48.48,0,0,1,0-.96h1.01a.48.48,0,0,1,.48.48A.474.474,0,0,1,64.01,64.5Z"/>
            </g>
            <g id="Grupo_1160947" data-name="Grupo 1160947">
              <path id="Trazado_1015607" data-name="Trazado 1015607" d="M3,64.5H1.99a.48.48,0,0,1,0-.96H3a.48.48,0,0,1,0,.96Z"/>
            </g>
          </g>
        </g>
        <g id="Grupo_1160960" data-name="Grupo 1160960">
          <g id="Grupo_1160959" data-name="Grupo 1160959">
            <g id="Grupo_1160950" data-name="Grupo 1160950">
              <path id="Trazado_1015608" data-name="Trazado 1015608" d="M52.68,42.24c1.7-3.93,1.78-7.12-.87-9.07a6.319,6.319,0,0,0-3.62-1.19,10.57,10.57,0,0,0-8.55,3.51c2.46-.78,4.19-.35,5.04,1.54,1.37,3.68,3.98,5.5,8,5.21Z" fill="#b9dd53"/>
            </g>
            <g id="Grupo_1160951" data-name="Grupo 1160951">
              <path id="Trazado_1015609" data-name="Trazado 1015609" d="M60.11,36.43a5.552,5.552,0,0,0-2.1,2.88,4.254,4.254,0,0,1-1.87,2.18,7.115,7.115,0,0,1-3.46.75c1.29-2.98,1.64-5.53.59-7.44,3.65-.41,5.59.1,6.84,1.63Z" fill="#b9dd53"/>
            </g>
            <g id="Grupo_1160952" data-name="Grupo 1160952">
              <path id="Trazado_1015610" data-name="Trazado 1015610" d="M56.23,34.69c-.01,5.32-3.41,7.47-3.54,7.55,1.28-2.98,1.64-5.53.59-7.44A16.192,16.192,0,0,1,56.23,34.69Z" fill="#a3c134"/>
            </g>
            <g id="Grupo_1160958" data-name="Grupo 1160958">
              <g id="Grupo_1160957" data-name="Grupo 1160957">
                <g id="Grupo_1160953" data-name="Grupo 1160953">
                  <path id="Trazado_1015611" data-name="Trazado 1015611" d="M51.87,42.76c-3.71,0-6.27-1.87-7.64-5.57-.44-.98-1.4-2.21-4.44-1.24a.493.493,0,0,1-.56-.2.481.481,0,0,1,.05-.59,11.142,11.142,0,0,1,8.92-3.67,6.717,6.717,0,0,1,3.89,1.29c2.65,1.96,2.99,5.12,1.02,9.66a.469.469,0,0,1-.41.29c-.27.01-.56.03-.83.03ZM41.72,34.63a3.506,3.506,0,0,1,3.41,2.19c1.29,3.5,3.65,5.12,7.22,4.95,1.63-3.92,1.36-6.61-.82-8.22a5.828,5.828,0,0,0-3.34-1.1,10.157,10.157,0,0,0-6.96,2.2c.17-.01.33-.02.49-.02Z"/>
                </g>
                <g id="Grupo_1160954" data-name="Grupo 1160954">
                  <path id="Trazado_1015612" data-name="Trazado 1015612" d="M52.68,42.72a.491.491,0,0,1-.41-.22.5.5,0,0,1-.04-.46c1.32-3.06,1.53-5.36.61-7.02a.483.483,0,0,1,.37-.72c3.77-.42,5.87.1,7.27,1.81a.46.46,0,0,1,.1.39.5.5,0,0,1-.23.33,5.051,5.051,0,0,0-1.89,2.64,4.748,4.748,0,0,1-2.08,2.43,7.37,7.37,0,0,1-3.7.82ZM54,35.21c.65,1.71.46,3.85-.58,6.52a6.032,6.032,0,0,0,2.49-.66,3.791,3.791,0,0,0,1.65-1.93,6.523,6.523,0,0,1,1.82-2.78C58.29,35.33,56.66,34.99,54,35.21Z"/>
                </g>
                <g id="Grupo_1160955" data-name="Grupo 1160955">
                  <path id="Trazado_1015613" data-name="Trazado 1015613" d="M46.7,35.64a.772.772,0,0,1-.15-.02c-.14-.04-.27-.09-.42-.12a.482.482,0,1,1,.25-.93c.16.04.31.09.47.14a.49.49,0,0,1,.31.61.5.5,0,0,1-.46.32Z"/>
                </g>
                <g id="Grupo_1160956" data-name="Grupo 1160956">
                  <path id="Trazado_1015614" data-name="Trazado 1015614" d="M52.68,42.72a.492.492,0,0,1-.48-.41,9.323,9.323,0,0,0-4.02-5.95.487.487,0,0,1,.51-.83,10.1,10.1,0,0,1,4.47,6.63.484.484,0,0,1-.4.55.249.249,0,0,1-.08.01Z"/>
                </g>
              </g>
            </g>
          </g>
        </g>
        <g id="Grupo_1160972" data-name="Grupo 1160972">
          <g id="Grupo_1160966" data-name="Grupo 1160966">
            <g id="Grupo_1160961" data-name="Grupo 1160961">
              <path id="Trazado_1015615" data-name="Trazado 1015615" d="M20.72,18.23V25.8H15.31V18.23l2.71-2.48Z" fill="#d5dce5"/>
            </g>
            <g id="Grupo_1160963" data-name="Grupo 1160963">
              <g id="Grupo_1160962" data-name="Grupo 1160962">
                <path id="Trazado_1015616" data-name="Trazado 1015616" d="M8.07,18.23l2.71-2.48h7.24l-2.71,2.48Z" fill="#ffb59c"/>
              </g>
            </g>
            <g id="Grupo_1160964" data-name="Grupo 1160964">
              <path id="Trazado_1015617" data-name="Trazado 1015617" d="M8.07,18.23h7.24v7.56H8.07Z" fill="#b6c4d3"/>
            </g>
            <g id="Grupo_1160965" data-name="Grupo 1160965">
              <path id="Trazado_1015618" data-name="Trazado 1015618" d="M10.14,20.77h3.11V25.8H10.14Z" fill="#ffb59c"/>
            </g>
          </g>
          <g id="Grupo_1160971" data-name="Grupo 1160971">
            <g id="Grupo_1160967" data-name="Grupo 1160967">
              <path id="Trazado_1015619" data-name="Trazado 1015619" d="M20.72,26.28h-5.4a.48.48,0,0,1-.48-.48V18.24a.5.5,0,0,1,.16-.36l2.7-2.49a.491.491,0,0,1,.66,0l2.7,2.49a.484.484,0,0,1,.16.36V25.8a.512.512,0,0,1-.5.48Zm-4.92-.97h4.43V18.45l-2.22-2.04-2.22,2.04v6.86Z"/>
            </g>
            <g id="Grupo_1160969" data-name="Grupo 1160969">
              <g id="Grupo_1160968" data-name="Grupo 1160968">
                <path id="Trazado_1015620" data-name="Trazado 1015620" d="M15.31,18.72H8.07a.476.476,0,0,1-.45-.31.492.492,0,0,1,.12-.53l2.7-2.49a.507.507,0,0,1,.33-.13h7.24a.476.476,0,0,1,.45.31.492.492,0,0,1-.12.53l-2.7,2.49A.487.487,0,0,1,15.31,18.72Zm-5.99-.97h5.81l1.65-1.52H10.97Z"/>
              </g>
            </g>
            <g id="Grupo_1160970" data-name="Grupo 1160970">
              <path id="Trazado_1015621" data-name="Trazado 1015621" d="M15.31,26.28H8.07a.48.48,0,0,1-.48-.48V18.24a.48.48,0,0,1,.48-.48h7.24a.48.48,0,0,1,.48.48V25.8A.474.474,0,0,1,15.31,26.28Zm-6.75-.97h6.27V18.72H8.56Z"/>
            </g>
          </g>
        </g>
        <g id="Grupo_1160973" data-name="Grupo 1160973">
          <path id="Trazado_1015622" data-name="Trazado 1015622" d="M13.25,26.28H10.14a.48.48,0,0,1-.48-.48V20.77a.48.48,0,0,1,.48-.48h3.11a.48.48,0,0,1,.48.48V25.8A.468.468,0,0,1,13.25,26.28Zm-2.63-.97h2.14V21.25H10.62Z"/>
        </g>
      </g>
      <g id="Grupo_1160980" data-name="Grupo 1160980">
        <g id="Grupo_1160975" data-name="Grupo 1160975">
          <path id="Trazado_1015623" data-name="Trazado 1015623" d="M54.87,16.7a.494.494,0,0,1-.34-.14.489.489,0,0,1,0-.69l2.21-2.21a.488.488,0,0,1,.69.69l-2.21,2.21A.518.518,0,0,1,54.87,16.7Z"/>
        </g>
        <g id="Grupo_1160978" data-name="Grupo 1160978">
          <g id="Grupo_1160976" data-name="Grupo 1160976">
            <path id="Trazado_1015624" data-name="Trazado 1015624" d="M60.23,18.93H57.1a.48.48,0,0,1,0-.96h3.13a.48.48,0,0,1,.48.48A.474.474,0,0,1,60.23,18.93Z"/>
          </g>
          <g id="Grupo_1160977" data-name="Grupo 1160977">
            <path id="Trazado_1015625" data-name="Trazado 1015625" d="M52.65,14.47a.48.48,0,0,1-.48-.48V10.86a.48.48,0,0,1,.96,0v3.13A.48.48,0,0,1,52.65,14.47Z"/>
          </g>
        </g>
        <g id="Grupo_1160979" data-name="Grupo 1160979">
          <path id="Trazado_1015626" data-name="Trazado 1015626" d="M58.61,12.97a.494.494,0,0,1-.34-.14.489.489,0,0,1,0-.69l.51-.51a.488.488,0,0,1,.69.69l-.51.51A.537.537,0,0,1,58.61,12.97Z"/>
        </g>
      </g>
    </g>
  </g>
</svg>
