<svg id="ecologico" xmlns="http://www.w3.org/2000/svg" width="102.313" height="96.049" viewBox="0 0 102.313 96.049">
  <g id="Grupo_1160664" data-name="Grupo 1160664" transform="translate(60.584 81.391)">
    <g id="Grupo_1160660" data-name="Grupo 1160660" transform="translate(0.787 0.787)">
      <path id="Trazado_1015410" data-name="Trazado 1015410" d="M78.516,66.914H39.23A7.167,7.167,0,0,1,52.3,62.848h.1a2.547,2.547,0,0,1,2.082-1.082,2.519,2.519,0,0,1,1.426.426,6.482,6.482,0,0,1-.148-1.394A6.97,6.97,0,0,1,69.5,59.142c.787-1.263,2.017-2.705,3.246-2.1.623.312.312,1.558-.2,2.82a2.568,2.568,0,0,1,2.574,2.574v.443a4.1,4.1,0,0,1,3.394,4.033Z" transform="translate(-39.23 -53.83)" fill="#b9dd53"/>
    </g>
    <g id="Grupo_1160661" data-name="Grupo 1160661" transform="translate(0.787 0.787)">
      <path id="Trazado_1015411" data-name="Trazado 1015411" d="M78.516,66.914H39.23A7.167,7.167,0,0,1,52.3,62.848h.1a2.591,2.591,0,0,1,2.082-1.082,2.519,2.519,0,0,1,1.426.426,6.482,6.482,0,0,1-.148-1.394A6.97,6.97,0,0,1,69.5,59.142c.787-1.263,2.017-2.689,3.246-2.082.623.312.312,1.558-.2,2.82a2.579,2.579,0,0,1,2.574,2.574V62.9a2.731,2.731,0,0,1,.525.131,4.044,4.044,0,0,1,2.869,3.886Z" transform="translate(-39.23 -53.83)" fill="#b9dd53"/>
    </g>
    <g id="Grupo_1160662" data-name="Grupo 1160662" transform="translate(0.787 10.002)">
      <path id="Trazado_1015412" data-name="Trazado 1015412" d="M78.516,63.32H39.23a7.157,7.157,0,0,1,.508-2.656c.148-.066.213-.1.213-.1s22.4,1.033,35.695-1.115A4.009,4.009,0,0,1,78.516,63.32Z" transform="translate(-39.23 -59.45)" fill="#a3c134"/>
    </g>
    <g id="Grupo_1160663" data-name="Grupo 1160663">
      <path id="Trazado_1015413" data-name="Trazado 1015413" d="M78.823,68.008H39.537a.777.777,0,0,1-.787-.787,7.961,7.961,0,0,1,13.97-5.214,3.4,3.4,0,0,1,2.558-.689v-.213a7.759,7.759,0,0,1,14.773-3.312c1.377-1.574,2.558-1.525,3.345-1.131,1.459.721.492,3.05.18,3.82a.784.784,0,0,1-1.033.426.8.8,0,0,1-.426-1.033,4.371,4.371,0,0,0,.492-1.853c-.771-.213-1.82,1.344-2.148,1.836a.8.8,0,0,1-.787.361.79.79,0,0,1-.639-.59,6.181,6.181,0,0,0-12.182,1.476,5.5,5.5,0,0,0,.131,1.213.8.8,0,0,1-.328.82.792.792,0,0,1-.885,0,1.8,1.8,0,0,0-2.41.443.794.794,0,0,1-.639.344H52.6a.8.8,0,0,1-.656-.344,6.376,6.376,0,0,0-11.576,2.837h37.58A3.269,3.269,0,0,0,75.3,63.975a.79.79,0,0,1-.656-.771v-.443a.777.777,0,0,1,.787-.787.807.807,0,0,1,.771.607,4.846,4.846,0,0,1,3.427,4.64.812.812,0,0,1-.8.787Z" transform="translate(-38.75 -53.35)" fill="#050505"/>
    </g>
  </g>
  <g id="Grupo_1160732" data-name="Grupo 1160732" transform="translate(0 0)">
    <g id="Grupo_1160685" data-name="Grupo 1160685" transform="translate(0 42.007)">
      <g id="Grupo_1160665" data-name="Grupo 1160665" transform="translate(32.17 0.787)">
        <path id="Trazado_1015414" data-name="Trazado 1015414" d="M88.137,30.925,70.265,73.949H21.42l17.315-41.7a3.987,3.987,0,0,1,3.689-2.443H87.382A.8.8,0,0,1,88.137,30.925Z" transform="translate(-21.42 -29.81)" fill="#f1f3f6"/>
      </g>
      <g id="Grupo_1160666" data-name="Grupo 1160666" transform="translate(39.253 5.509)">
        <path id="Trazado_1015415" data-name="Trazado 1015415" d="M25.74,67.385l14.4-34.695h38.63L64.353,67.385Z" transform="translate(-25.74 -32.69)" fill="#6bbeeb"/>
      </g>
      <g id="Grupo_1160667" data-name="Grupo 1160667" transform="translate(39.253 5.509)">
        <path id="Trazado_1015416" data-name="Trazado 1015416" d="M78.766,32.69l-2.722,6.526L64.353,67.368H25.74L40.152,32.69Z" transform="translate(-25.74 -32.69)" fill="#6bbeeb"/>
      </g>
      <g id="Grupo_1160668" data-name="Grupo 1160668" transform="translate(39.253 12.035)">
        <path id="Trazado_1015417" data-name="Trazado 1015417" d="M76.044,36.67,64.337,64.839H25.74C25.74,64.822,62.5,62.855,76.044,36.67Z" transform="translate(-25.74 -36.67)" fill="#56a7d2"/>
      </g>
      <g id="Grupo_1160669" data-name="Grupo 1160669" transform="translate(81.014 1.033)">
        <path id="Trazado_1015418" data-name="Trazado 1015418" d="M71.525,34.764l-16.3,39.072H51.21L69.082,30.829a.791.791,0,0,0-.164-.869l2.115,2.181A2.394,2.394,0,0,1,71.525,34.764Z" transform="translate(-51.21 -29.96)" fill="#93a8ba"/>
      </g>
      <g id="Grupo_1160670" data-name="Grupo 1160670" transform="translate(37.007 44.909)">
        <path id="Trazado_1015419" data-name="Trazado 1015419" d="M72.395,56.72a8.341,8.341,0,0,1-8.329,8.329H32.7A8.331,8.331,0,0,1,24.37,56.72Z" transform="translate(-24.37 -56.72)" fill="#b6c4d3"/>
      </g>
      <g id="Grupo_1160671" data-name="Grupo 1160671" transform="translate(0.787 44.926)">
        <path id="Trazado_1015420" data-name="Trazado 1015420" d="M46.829,65.059H10.609A8.331,8.331,0,0,1,2.28,56.73H38.5a8.331,8.331,0,0,0,8.329,8.329Z" transform="translate(-2.28 -56.73)" fill="#d5dce5"/>
      </g>
      <g id="Grupo_1160672" data-name="Grupo 1160672" transform="translate(13.035 44.909)">
        <path id="Trazado_1015421" data-name="Trazado 1015421" d="M18.916,56.72a3.275,3.275,0,0,1-3.279,3.263H13.029A3.275,3.275,0,0,1,9.75,56.72Z" transform="translate(-9.75 -56.72)" fill="#f1f3f6"/>
      </g>
      <g id="Grupo_1160684" data-name="Grupo 1160684">
        <g id="Grupo_1160673" data-name="Grupo 1160673" transform="translate(36.219 44.139)">
          <path id="Trazado_1015422" data-name="Trazado 1015422" d="M64.373,66.153H33.006a9.128,9.128,0,0,1-9.116-9.116.777.777,0,0,1,.787-.787H72.7a.784.784,0,0,1,.787.787,9.125,9.125,0,0,1-9.116,9.116ZM25.5,57.808a7.555,7.555,0,0,0,7.51,6.755h31.35a7.54,7.54,0,0,0,7.493-6.772H25.5Z" transform="translate(-23.89 -56.25)"/>
        </g>
        <g id="Grupo_1160674" data-name="Grupo 1160674" transform="translate(0 44.139)">
          <path id="Trazado_1015423" data-name="Trazado 1015423" d="M47.136,66.153H10.916A9.128,9.128,0,0,1,1.8,57.037a.777.777,0,0,1,.787-.787H38.807a.777.777,0,0,1,.787.787,7.554,7.554,0,0,0,7.542,7.542.777.777,0,0,1,.787.787A.787.787,0,0,1,47.136,66.153ZM3.423,57.808a7.555,7.555,0,0,0,7.51,6.755h31.1a9.137,9.137,0,0,1-3.968-6.755Z" transform="translate(-1.8 -56.25)"/>
        </g>
        <g id="Grupo_1160675" data-name="Grupo 1160675" transform="translate(59.109 48.304)">
          <path id="Trazado_1015424" data-name="Trazado 1015424" d="M44.327,60.364h-5.69a.787.787,0,1,1,0-1.574h5.69a.787.787,0,1,1,0,1.574Z" transform="translate(-37.85 -58.79)"/>
        </g>
        <g id="Grupo_1160676" data-name="Grupo 1160676" transform="translate(69.029 48.304)">
          <path id="Trazado_1015425" data-name="Trazado 1015425" d="M50.377,60.364h-5.69a.787.787,0,1,1,0-1.574h5.69a.787.787,0,1,1,0,1.574Z" transform="translate(-43.9 -58.79)"/>
        </g>
        <g id="Grupo_1160677" data-name="Grupo 1160677" transform="translate(12.264 44.139)">
          <path id="Trazado_1015426" data-name="Trazado 1015426" d="M15.953,61.087H13.346a4.062,4.062,0,0,1-4.066-4.05.777.777,0,0,1,.787-.787h9.149a.777.777,0,0,1,.787.787,4.059,4.059,0,0,1-4.05,4.05Zm-4.968-3.279A2.484,2.484,0,0,0,13.346,59.5h2.607a2.525,2.525,0,0,0,1.754-.721,2.61,2.61,0,0,0,.607-.967Z" transform="translate(-9.28 -56.25)"/>
        </g>
        <g id="Grupo_1160678" data-name="Grupo 1160678" transform="translate(31.379)">
          <path id="Trazado_1015427" data-name="Trazado 1015427" d="M70.573,75.043H21.728a.8.8,0,0,1-.656-.344.742.742,0,0,1-.066-.738l17.315-41.7a4.792,4.792,0,0,1,4.427-2.935H87.707a1.583,1.583,0,0,1,1.328.705,1.56,1.56,0,0,1,.131,1.492L71.294,74.551a.783.783,0,0,1-.721.492ZM22.909,73.469H70.048L87.724,30.92V30.9H42.748a3.219,3.219,0,0,0-2.968,1.968Z" transform="translate(-20.938 -29.33)"/>
        </g>
        <g id="Grupo_1160679" data-name="Grupo 1160679" transform="translate(38.462 4.722)">
          <path id="Trazado_1015428" data-name="Trazado 1015428" d="M64.662,68.479H26.048a.8.8,0,0,1-.656-.344.742.742,0,0,1-.066-.738L39.739,32.7a.783.783,0,0,1,.721-.492H79.074a.8.8,0,0,1,.656.344.742.742,0,0,1,.066.738L65.383,67.987A.783.783,0,0,1,64.662,68.479ZM27.229,66.9H64.137L77.894,33.784H40.985Z" transform="translate(-25.258 -32.21)"/>
        </g>
        <g id="Grupo_1160680" data-name="Grupo 1160680" transform="translate(80.224 0.248)">
          <path id="Trazado_1015429" data-name="Trazado 1015429" d="M55.535,74.93H51.518a.8.8,0,0,1-.656-.344.742.742,0,0,1-.066-.738L68.669,30.84a.817.817,0,0,1,.016-1.131.8.8,0,0,1,1.115,0l2.115,2.181a3.177,3.177,0,0,1,.639,3.476l-16.3,39.089a.768.768,0,0,1-.721.475ZM52.7,73.356h2.312l16.1-38.6v-.016a1.612,1.612,0,0,0-.328-1.771l-.918-.951Z" transform="translate(-50.728 -29.481)"/>
        </g>
        <g id="Grupo_1160681" data-name="Grupo 1160681" transform="translate(55.65 20.299)">
          <path id="Trazado_1015430" data-name="Trazado 1015430" d="M36.527,50.875a.768.768,0,0,1-.689-.41.778.778,0,0,1,.328-1.066l14.1-7.591A.788.788,0,0,1,51,43.2L36.9,50.793a.747.747,0,0,1-.377.082Z" transform="translate(-35.74 -41.71)" fill="#fff"/>
        </g>
        <g id="Grupo_1160682" data-name="Grupo 1160682" transform="translate(70.816 12.97)">
          <path id="Trazado_1015431" data-name="Trazado 1015431" d="M45.777,40.732a.768.768,0,0,1-.689-.41.778.778,0,0,1,.328-1.066l3.558-1.918a.788.788,0,1,1,.738,1.394L46.154,40.65a.973.973,0,0,1-.377.082Z" transform="translate(-44.99 -37.24)" fill="#fff"/>
        </g>
        <g id="Grupo_1160683" data-name="Grupo 1160683" transform="translate(60.274 16.381)">
          <path id="Trazado_1015432" data-name="Trazado 1015432" d="M39.347,45.075a.768.768,0,0,1-.689-.41.778.778,0,0,1,.328-1.066l7.755-4.181a.788.788,0,1,1,.738,1.394l-7.755,4.181a.973.973,0,0,1-.377.082Z" transform="translate(-38.56 -39.32)" fill="#fff"/>
        </g>
      </g>
    </g>
    <g id="Grupo_1160695" data-name="Grupo 1160695" transform="translate(57.584)">
      <g id="Grupo_1160694" data-name="Grupo 1160694">
        <g id="Grupo_1160689" data-name="Grupo 1160689" transform="translate(6.034)">
          <g id="Grupo_1160688" data-name="Grupo 1160688">
            <g id="Grupo_1160686" data-name="Grupo 1160686" transform="translate(0.787 0.787)">
              <path id="Trazado_1015433" data-name="Trazado 1015433" d="M78.2,6.928V33.064A2.743,2.743,0,0,1,75.463,35.8H48.1l-.607.607V35.8H43.818a2.733,2.733,0,0,1-2.738-2.738V6.928A2.733,2.733,0,0,1,43.818,4.19H75.463A2.743,2.743,0,0,1,78.2,6.928Z" transform="translate(-41.08 -4.19)" fill="#564dc6"/>
            </g>
            <g id="Grupo_1160687" data-name="Grupo 1160687">
              <path id="Trazado_1015434" data-name="Trazado 1015434" d="M75.77,36.88H66.457a.787.787,0,1,1,0-1.574H75.77a1.956,1.956,0,0,0,1.951-1.951V7.235A1.956,1.956,0,0,0,75.77,5.284H44.125a1.956,1.956,0,0,0-1.951,1.951V33.371a1.956,1.956,0,0,0,1.951,1.951.787.787,0,1,1,0,1.574A3.53,3.53,0,0,1,40.6,33.371V7.235A3.53,3.53,0,0,1,44.125,3.71H75.77A3.53,3.53,0,0,1,79.3,7.235V33.371A3.516,3.516,0,0,1,75.77,36.88Z" transform="translate(-40.6 -3.71)"/>
            </g>
          </g>
        </g>
        <g id="Grupo_1160693" data-name="Grupo 1160693" transform="translate(0 0)">
          <g id="Grupo_1160692" data-name="Grupo 1160692">
            <g id="Grupo_1160690" data-name="Grupo 1160690" transform="translate(0.771 0.787)">
              <path id="Trazado_1015435" data-name="Trazado 1015435" d="M74.511,6.928V33.064A2.743,2.743,0,0,1,71.773,35.8H50.458l-3.542,3.542a1.827,1.827,0,0,1-3.115-1.3V35.786H40.128a2.743,2.743,0,0,1-2.738-2.738V6.928A2.743,2.743,0,0,1,40.128,4.19H71.773a2.743,2.743,0,0,1,2.738,2.738Z" transform="translate(-37.39 -4.19)" fill="#726ad3"/>
            </g>
            <g id="Grupo_1160691" data-name="Grupo 1160691">
              <path id="Trazado_1015436" data-name="Trazado 1015436" d="M45.954,40.979a2.461,2.461,0,0,1-1.017-.213,2.547,2.547,0,0,1-1.607-2.41V36.88H40.445a3.53,3.53,0,0,1-3.525-3.525V7.235A3.53,3.53,0,0,1,40.445,3.71H72.09a3.53,3.53,0,0,1,3.525,3.525V33.371A3.53,3.53,0,0,1,72.09,36.9H51.1l-3.312,3.312a2.684,2.684,0,0,1-1.836.771ZM40.429,5.284a1.956,1.956,0,0,0-1.951,1.951V33.371a1.956,1.956,0,0,0,1.951,1.951H44.1a.777.777,0,0,1,.787.787v2.263a1,1,0,0,0,.639.951,1.009,1.009,0,0,0,1.131-.23L50.2,35.552a.781.781,0,0,1,.557-.23H72.074a1.956,1.956,0,0,0,1.951-1.951V7.235a1.956,1.956,0,0,0-1.951-1.951Z" transform="translate(-36.92 -3.71)"/>
            </g>
          </g>
        </g>
      </g>
    </g>
    <g id="Grupo_1160707" data-name="Grupo 1160707" transform="translate(14.412 26.628)">
      <g id="Grupo_1160706" data-name="Grupo 1160706">
        <g id="Grupo_1160699" data-name="Grupo 1160699">
          <g id="Grupo_1160698" data-name="Grupo 1160698">
            <g id="Grupo_1160696" data-name="Grupo 1160696" transform="translate(0.787 0.787)">
              <path id="Trazado_1015437" data-name="Trazado 1015437" d="M11.07,23.168V49.3a2.743,2.743,0,0,0,2.738,2.738H41.174l.607.607v-.607h3.673A2.733,2.733,0,0,0,48.191,49.3V23.168a2.733,2.733,0,0,0-2.738-2.738H13.808a2.754,2.754,0,0,0-2.738,2.738Z" transform="translate(-11.07 -20.43)" fill="#f9b84e"/>
            </g>
            <g id="Grupo_1160697" data-name="Grupo 1160697">
              <path id="Trazado_1015438" data-name="Trazado 1015438" d="M45.76,53.136a.787.787,0,1,1,0-1.574,1.956,1.956,0,0,0,1.951-1.951V23.475a1.956,1.956,0,0,0-1.951-1.951H14.115a1.956,1.956,0,0,0-1.951,1.951V49.611a1.956,1.956,0,0,0,1.951,1.951h9.313a.787.787,0,1,1,0,1.574H14.115a3.53,3.53,0,0,1-3.525-3.525V23.475a3.53,3.53,0,0,1,3.525-3.525H45.76a3.53,3.53,0,0,1,3.525,3.525V49.611A3.53,3.53,0,0,1,45.76,53.136Z" transform="translate(-10.59 -19.95)"/>
            </g>
          </g>
        </g>
        <g id="Grupo_1160705" data-name="Grupo 1160705" transform="translate(6.05)">
          <g id="Grupo_1160704" data-name="Grupo 1160704">
            <g id="Grupo_1160700" data-name="Grupo 1160700" transform="translate(0.787 0.787)">
              <path id="Trazado_1015439" data-name="Trazado 1015439" d="M14.76,23.168V49.3A2.743,2.743,0,0,0,17.5,52.042H38.813l3.542,3.542a1.827,1.827,0,0,0,3.115-1.3V52.026h3.673a2.743,2.743,0,0,0,2.738-2.738V23.168a2.743,2.743,0,0,0-2.738-2.738H17.5a2.754,2.754,0,0,0-2.738,2.738Z" transform="translate(-14.76 -20.43)" fill="#ffca6b"/>
            </g>
            <g id="Grupo_1160701" data-name="Grupo 1160701" transform="translate(0.771 0.787)">
              <path id="Trazado_1015440" data-name="Trazado 1015440" d="M51.888,23.168V49.3a2.733,2.733,0,0,1-2.738,2.738H45.46V54.3a1.823,1.823,0,0,1-3.115,1.279L38.8,52.042H17.488A2.743,2.743,0,0,1,14.75,49.3V23.168a2.733,2.733,0,0,1,2.738-2.738H49.133a2.757,2.757,0,0,1,2.755,2.738Z" transform="translate(-14.75 -20.43)" fill="#ffca6b"/>
            </g>
            <g id="Grupo_1160702" data-name="Grupo 1160702" transform="translate(3.509 7.542)">
              <path id="Trazado_1015441" data-name="Trazado 1015441" d="M50.819,24.55V46.669a2.733,2.733,0,0,1-2.738,2.738H44.392v2.263a1.823,1.823,0,0,1-3.115,1.279l-3.542-3.542H16.42C16.436,49.407,50.819,42.815,50.819,24.55Z" transform="translate(-16.42 -24.55)" fill="#f9b84e"/>
            </g>
            <g id="Grupo_1160703" data-name="Grupo 1160703">
              <path id="Trazado_1015442" data-name="Trazado 1015442" d="M43.941,57.219a2.584,2.584,0,0,1-1.836-.771l-3.312-3.312H17.805a3.53,3.53,0,0,1-3.525-3.525V23.475a3.53,3.53,0,0,1,3.525-3.525H49.45a3.53,3.53,0,0,1,3.525,3.525V49.611a3.53,3.53,0,0,1-3.525,3.525h-2.9v1.476a2.571,2.571,0,0,1-1.607,2.41,2.714,2.714,0,0,1-1,.2ZM17.805,21.54a1.956,1.956,0,0,0-1.951,1.951V49.627a1.956,1.956,0,0,0,1.951,1.951H39.12a.781.781,0,0,1,.557.23L43.22,55.35a1.034,1.034,0,0,0,1.771-.721V52.365a.777.777,0,0,1,.787-.787h3.689a1.956,1.956,0,0,0,1.951-1.951V23.475a1.956,1.956,0,0,0-1.951-1.951H17.805Z" transform="translate(-14.28 -19.95)"/>
            </g>
          </g>
        </g>
      </g>
    </g>
    <g id="Grupo_1160708" data-name="Grupo 1160708" transform="translate(89.999 13.691)">
      <path id="Trazado_1015443" data-name="Trazado 1015443" d="M57.477,21.98a.777.777,0,0,1-.787-.787V12.847a.787.787,0,1,1,1.574,0v8.346A.8.8,0,0,1,57.477,21.98Z" transform="translate(-56.69 -12.06)" fill="#fff"/>
    </g>
    <g id="Grupo_1160709" data-name="Grupo 1160709" transform="translate(89.999 8.165)">
      <path id="Trazado_1015444" data-name="Trazado 1015444" d="M57.477,12.887a.777.777,0,0,1-.787-.787V9.477a.787.787,0,1,1,1.574,0v2.607A.8.8,0,0,1,57.477,12.887Z" transform="translate(-56.69 -8.69)" fill="#fff"/>
    </g>
    <g id="Grupo_1160713" data-name="Grupo 1160713" transform="translate(64.684 13.019)">
      <g id="Grupo_1160710" data-name="Grupo 1160710" transform="translate(17.101)">
        <path id="Trazado_1015445" data-name="Trazado 1015445" d="M54.746,13.224H52.467a.787.787,0,1,1,0-1.574h2.279a.777.777,0,0,1,.787.787A.8.8,0,0,1,54.746,13.224Z" transform="translate(-51.68 -11.65)"/>
      </g>
      <g id="Grupo_1160711" data-name="Grupo 1160711">
        <path id="Trazado_1015446" data-name="Trazado 1015446" d="M55.6,13.224H42.037a.787.787,0,1,1,0-1.574H55.6a.777.777,0,0,1,.787.787A.8.8,0,0,1,55.6,13.224Z" transform="translate(-41.25 -11.65)"/>
      </g>
      <g id="Grupo_1160712" data-name="Grupo 1160712" transform="translate(0 5.575)">
        <path id="Trazado_1015447" data-name="Trazado 1015447" d="M61.417,16.624H42.037a.787.787,0,1,1,0-1.574h19.38a.777.777,0,0,1,.787.787A.8.8,0,0,1,61.417,16.624Z" transform="translate(-41.25 -15.05)"/>
      </g>
    </g>
    <g id="Grupo_1160725" data-name="Grupo 1160725" transform="translate(25.534 33.393)">
      <g id="Grupo_1160723" data-name="Grupo 1160723" transform="translate(0.799 0.787)">
        <g id="Grupo_1160722" data-name="Grupo 1160722">
          <g id="Grupo_1160714" data-name="Grupo 1160714">
            <path id="Trazado_1015448" data-name="Trazado 1015448" d="M17.86,25.054c.967,1.476,1.328,3.263,2.164,5.116a8.968,8.968,0,0,0,3.41,3.952,4.553,4.553,0,0,0,7.149-2.509C32.108,26.137,23.73,23.349,17.86,25.054Z" transform="translate(-17.86 -24.556)" fill="#b9dd53"/>
          </g>
          <g id="Grupo_1160715" data-name="Grupo 1160715" transform="translate(2 4.466)">
            <path id="Trazado_1015449" data-name="Trazado 1015449" d="M29.8,29.871a4.553,4.553,0,0,1-7.149,2.509,8.8,8.8,0,0,1-3.41-3.952c-.049-.131-.115-.262-.164-.394,0,0,6.788,2.23,10.69-.754A4.217,4.217,0,0,1,29.8,29.871Z" transform="translate(-19.08 -27.28)" fill="#a3c134"/>
          </g>
          <g id="Grupo_1160716" data-name="Grupo 1160716" transform="translate(17.305 3.121)">
            <path id="Trazado_1015450" data-name="Trazado 1015450" d="M38.2,27.575a24.213,24.213,0,0,0-2.23,3.2,6.211,6.211,0,0,1-2.935,2.2,3.316,3.316,0,0,1-3.312-.361,3.414,3.414,0,0,1-1.3-2.41c-.279-3.984,5.935-4.657,9.772-2.623Z" transform="translate(-28.414 -26.46)" fill="#b9dd53"/>
          </g>
          <g id="Grupo_1160721" data-name="Grupo 1160721" transform="translate(4.534 2.353)">
            <g id="Grupo_1160717" data-name="Grupo 1160717" transform="translate(11.983)">
              <path id="Trazado_1015451" data-name="Trazado 1015451" d="M31.879,34.335a3.847,3.847,0,0,1-2.345-.787,4.088,4.088,0,0,1-1.59-2.984,3.769,3.769,0,0,1,1.8-3.542c2.23-1.443,6.231-1.361,9.116.18a.785.785,0,0,1,.41.574.8.8,0,0,1-.23.672A8.9,8.9,0,0,0,37.8,30.187c-.279.443-.557.9-.9,1.377a7.024,7.024,0,0,1-3.312,2.476,5.41,5.41,0,0,1-1.705.3Zm1.951-6.788a6.123,6.123,0,0,0-3.23.787,2.181,2.181,0,0,0-1.082,2.115,2.517,2.517,0,0,0,.984,1.836,2.6,2.6,0,0,0,2.574.246,5.529,5.529,0,0,0,2.558-1.918,13.739,13.739,0,0,0,.82-1.263c.246-.41.492-.8.771-1.181a9.778,9.778,0,0,0-3.394-.623Z" transform="translate(-27.934 -25.991)"/>
            </g>
            <g id="Grupo_1160718" data-name="Grupo 1160718" transform="translate(10.255 2.954)">
              <path id="Trazado_1015452" data-name="Trazado 1015452" d="M27.667,36.97a.781.781,0,0,1-.787-.754,8.935,8.935,0,0,1,6.345-8.379.788.788,0,0,1,.508,1.492,7.249,7.249,0,0,0-5.28,6.837.8.8,0,0,1-.754.82c-.016-.016-.016-.016-.033-.016Z" transform="translate(-26.88 -27.793)"/>
            </g>
            <g id="Grupo_1160719" data-name="Grupo 1160719" transform="translate(0 0.319)">
              <path id="Trazado_1015453" data-name="Trazado 1015453" d="M31.668,44.868a.777.777,0,0,1-.787-.787V43.016a16.879,16.879,0,0,0-9.657-15.265l-.148-.066a.788.788,0,0,1,.672-1.426l.131.066A18.466,18.466,0,0,1,32.455,43.016v1.066A.777.777,0,0,1,31.668,44.868Z" transform="translate(-20.625 -26.185)"/>
            </g>
            <g id="Grupo_1160720" data-name="Grupo 1160720" transform="translate(10.255 10.557)">
              <path id="Trazado_1015454" data-name="Trazado 1015454" d="M27.667,39.808a.777.777,0,0,1-.787-.787v-5.8a.787.787,0,0,1,1.574,0v5.8A.787.787,0,0,1,27.667,39.808Z" transform="translate(-26.88 -32.43)"/>
            </g>
          </g>
        </g>
      </g>
      <g id="Grupo_1160724" data-name="Grupo 1160724">
        <path id="Trazado_1015455" data-name="Trazado 1015455" d="M26.6,36.117A6.353,6.353,0,0,1,23.337,35.1a9.639,9.639,0,0,1-3.722-4.3c-.328-.738-.59-1.459-.836-2.148A13.116,13.116,0,0,0,17.5,25.788a.826.826,0,0,1-.082-.705.765.765,0,0,1,.525-.475c4.3-1.246,9.69-.23,12.281,2.328a5.028,5.028,0,0,1,1.426,5.181,5.461,5.461,0,0,1-2.886,3.492A4.82,4.82,0,0,1,26.6,36.117ZM19.369,25.886c.344.721.623,1.476.9,2.246.23.656.475,1.344.787,2.033a8.146,8.146,0,0,0,3.115,3.591,3.955,3.955,0,0,0,3.935.443,4.015,4.015,0,0,0,2.05-2.492,3.521,3.521,0,0,0-1.017-3.64c-2.017-1.984-6.214-2.886-9.772-2.181Z" transform="translate(-17.373 -24.076)"/>
      </g>
    </g>
    <g id="Grupo_1160731" data-name="Grupo 1160731" transform="translate(0.787 12.707)">
      <g id="Grupo_1160726" data-name="Grupo 1160726" transform="translate(5.423 5.423)">
        <path id="Trazado_1015456" data-name="Trazado 1015456" d="M10.183,20.15a.81.81,0,0,1-.557-.23l-3.8-3.8A.788.788,0,0,1,6.936,15l3.8,3.8a.782.782,0,0,1,0,1.115A.841.841,0,0,1,10.183,20.15Z" transform="translate(-5.588 -14.767)"/>
      </g>
      <g id="Grupo_1160729" data-name="Grupo 1160729">
        <g id="Grupo_1160727" data-name="Grupo 1160727" transform="translate(13.068)">
          <path id="Trazado_1015457" data-name="Trazado 1015457" d="M11.037,18.428a.777.777,0,0,1-.787-.787V12.247a.787.787,0,0,1,1.574,0v5.394A.809.809,0,0,1,11.037,18.428Z" transform="translate(-10.25 -11.46)"/>
        </g>
        <g id="Grupo_1160728" data-name="Grupo 1160728" transform="translate(0 13.068)">
          <path id="Trazado_1015458" data-name="Trazado 1015458" d="M3.067,21a.787.787,0,0,1-.787-.787.777.777,0,0,1,.787-.787H8.461a.787.787,0,0,1,.787.787A.777.777,0,0,1,8.461,21Z" transform="translate(-2.28 -19.43)"/>
        </g>
      </g>
      <g id="Grupo_1160730" data-name="Grupo 1160730" transform="translate(1.914 1.914)">
        <path id="Trazado_1015459" data-name="Trazado 1015459" d="M5.124,15.091a.81.81,0,0,1-.557-.23l-.885-.885A.788.788,0,0,1,4.8,12.861l.885.885a.782.782,0,0,1,0,1.115.841.841,0,0,1-.557.23Z" transform="translate(-3.447 -12.627)"/>
      </g>
    </g>
  </g>
  <g id="Grupo_1160733" data-name="Grupo 1160733" transform="translate(0 94.476)">
    <path id="Trazado_1015460" data-name="Trazado 1015460" d="M103.326,62.9H2.587a.787.787,0,1,1,0-1.574H103.326a.777.777,0,0,1,.787.787.8.8,0,0,1-.787.787Z" transform="translate(-1.8 -61.33)"/>
  </g>
</svg>
