<svg xmlns="http://www.w3.org/2000/svg" width="103.226" height="103.241" viewBox="0 0 103.226 103.241">
  <g id="cumplimiento" transform="translate(-1.5 -1.5)">
    <g id="Grupo_1160162" data-name="Grupo 1160162" transform="translate(4.679 87.256)">
      <g id="Grupo_1160160" data-name="Grupo 1160160" transform="translate(0.787 0.803)">
        <g id="Grupo_1160159" data-name="Grupo 1160159">
          <g id="Grupo_1160158" data-name="Grupo 1160158">
            <g id="Grupo_1160157" data-name="Grupo 1160157">
              <g id="Grupo_1160154" data-name="Grupo 1160154">
                <path id="Trazado_1013898" data-name="Trazado 1013898" d="M3.92,70.216H51.706a8.718,8.718,0,0,0-15.9-4.949H35.7a3.088,3.088,0,0,0-2.524-1.311,2.967,2.967,0,0,0-1.721.524,8.193,8.193,0,0,0,.18-1.688,8.469,8.469,0,0,0-16.7-2c-.967-1.54-2.458-3.277-3.949-2.54-.77.377-.393,1.9.246,3.425a3.14,3.14,0,0,0-3.13,3.13v.541A4.92,4.92,0,0,0,3.92,70.216Z" transform="translate(-3.92 -54.32)" fill="#b9dd53"/>
              </g>
              <g id="Grupo_1160155" data-name="Grupo 1160155">
                <path id="Trazado_1013899" data-name="Trazado 1013899" d="M3.92,70.216H51.706a8.6,8.6,0,0,0-.623-3.245,8.708,8.708,0,0,0-15.257-1.7h-.115a3.118,3.118,0,0,0-2.54-1.311,3.056,3.056,0,0,0-1.737.524,8.193,8.193,0,0,0,.18-1.688,8.478,8.478,0,0,0-16.715-2c-.967-1.54-2.458-3.277-3.949-2.54-.754.377-.393,1.9.246,3.425a3.133,3.133,0,0,0-3.13,3.146v.541a4.5,4.5,0,0,0-.639.147,4.887,4.887,0,0,0-3.507,4.7Z" transform="translate(-3.92 -54.32)" fill="#b9dd53"/>
              </g>
              <g id="Grupo_1160156" data-name="Grupo 1160156" transform="translate(0 11.176)">
                <path id="Trazado_1013900" data-name="Trazado 1013900" d="M3.92,65.86H51.706a8.6,8.6,0,0,0-.623-3.245l-.262-.131S23.585,63.746,7.411,61.14A4.927,4.927,0,0,0,3.92,65.86Z" transform="translate(-3.92 -61.14)" fill="#a3c134"/>
              </g>
            </g>
          </g>
        </g>
      </g>
      <g id="Grupo_1160161" data-name="Grupo 1160161">
        <path id="Trazado_1013901" data-name="Trazado 1013901" d="M52.013,71.315H4.227a.787.787,0,0,1-.787-.787A5.693,5.693,0,0,1,7.5,65.055a.71.71,0,0,1,.082-.016,3.959,3.959,0,0,1,2.835-3.687c-.41-1.2-.754-2.9.492-3.507.95-.459,2.36-.508,4.031,1.524a9.275,9.275,0,0,1,17.764,3.72,3.993,3.993,0,0,1-.016.442A3.972,3.972,0,0,1,36,64.4a9.507,9.507,0,0,1,16.109,2.589,9.636,9.636,0,0,1,.672,3.54.753.753,0,0,1-.77.787ZM5.1,69.726H51.177a7.487,7.487,0,0,0-.524-2.147,7.91,7.91,0,0,0-13.864-1.557.8.8,0,0,1-.655.344h-.115a.8.8,0,0,1-.655-.344,2.368,2.368,0,0,0-3.163-.59.8.8,0,0,1-1.229-.836,7.2,7.2,0,0,0,.164-1.508,7.691,7.691,0,0,0-15.158-1.835.791.791,0,0,1-1.442.246c-.524-.836-1.868-2.737-2.917-2.229a5.633,5.633,0,0,0,.623,2.409.784.784,0,0,1-.066.737.816.816,0,0,1-.655.361,2.343,2.343,0,0,0-2.343,2.343v.541a.808.808,0,0,1-.672.787c-.18.033-.344.082-.524.131A4.09,4.09,0,0,0,5.1,69.726Z" transform="translate(-3.44 -53.83)"/>
      </g>
    </g>
    <g id="Grupo_1160182" data-name="Grupo 1160182" transform="translate(16.619 8.186)">
      <g id="Grupo_1160179" data-name="Grupo 1160179">
        <g id="Grupo_1160174" data-name="Grupo 1160174">
          <g id="Grupo_1160163" data-name="Grupo 1160163" transform="translate(0.794 0.803)">
            <path id="Trazado_1013902" data-name="Trazado 1013902" d="M74.3,9.692V81.157H57.669V76.766a4.99,4.99,0,0,1,1.016-3.015l5.473-7.21a4.99,4.99,0,0,0,1.016-3.015V27.669a4.956,4.956,0,0,0-3.392-4.72L11.21,6.07H70.68A3.623,3.623,0,0,1,74.3,9.692Z" transform="translate(-11.21 -6.07)" fill="#f9b84e"/>
          </g>
          <g id="Grupo_1160164" data-name="Grupo 1160164">
            <path id="Trazado_1013903" data-name="Trazado 1013903" d="M74.611,82.257H57.978a.787.787,0,0,1-.787-.787V77.079a5.715,5.715,0,0,1,1.18-3.491l5.473-7.21a4.161,4.161,0,0,0,.852-2.54V27.982a4.179,4.179,0,0,0-2.851-3.966L11.274,7.137a.8.8,0,0,1,.246-1.557H70.99A4.41,4.41,0,0,1,75.4,9.988V81.454A.79.79,0,0,1,74.611,82.257ZM58.764,80.684H73.808V10A2.818,2.818,0,0,0,70.99,7.186H16.419L62.337,22.525A5.763,5.763,0,0,1,66.286,28V63.87a5.784,5.784,0,0,1-1.18,3.491l-5.473,7.211a4.161,4.161,0,0,0-.852,2.54v3.572Z" transform="translate(-10.726 -5.58)"/>
          </g>
          <g id="Grupo_1160165" data-name="Grupo 1160165" transform="translate(15.936 10.554)">
            <path id="Trazado_1013904" data-name="Trazado 1013904" d="M76.725,16.1V79.766a4.077,4.077,0,0,1-4.08,4.064H20.45V12.02H72.644A4.081,4.081,0,0,1,76.725,16.1Z" transform="translate(-20.45 -12.02)" fill="#f1f3f6"/>
          </g>
          <g id="Grupo_1160166" data-name="Grupo 1160166" transform="translate(15.149 9.767)">
            <path id="Trazado_1013905" data-name="Trazado 1013905" d="M72.951,84.923H20.757a.787.787,0,0,1-.787-.787V12.327a.787.787,0,0,1,.787-.787H72.951a4.868,4.868,0,0,1,4.867,4.867V80.072A4.864,4.864,0,0,1,72.951,84.923ZM21.56,83.334H72.951a3.277,3.277,0,0,0,3.277-3.277V16.407a3.287,3.287,0,0,0-3.277-3.277H21.56Z" transform="translate(-19.97 -11.54)"/>
          </g>
          <g id="Grupo_1160167" data-name="Grupo 1160167" transform="translate(0.81 0.803)">
            <path id="Trazado_1013906" data-name="Trazado 1013906" d="M65.168,27.669V63.541a4.99,4.99,0,0,1-1.016,3.015l-5.473,7.211a4.99,4.99,0,0,0-1.016,3.015V99.02a2,2,0,0,1-2.737,1.868L12.859,84.451a2.583,2.583,0,0,1-1.639-2.409V6.07L61.775,22.949A5.008,5.008,0,0,1,65.168,27.669Z" transform="translate(-11.22 -6.07)" fill="#ffca6b"/>
          </g>
          <g id="Grupo_1160168" data-name="Grupo 1160168" transform="translate(2.449 41.772)">
            <path id="Trazado_1013907" data-name="Trazado 1013907" d="M64.529,31.07V47.556a4.99,4.99,0,0,1-1.016,3.015l-5.473,7.21A4.99,4.99,0,0,0,57.023,60.8V83.051a2.011,2.011,0,0,1-2.737,1.868L12.22,68.5S64.529,71.2,64.529,31.07Z" transform="translate(-12.22 -31.07)" fill="#f9b84e"/>
          </g>
          <g id="Grupo_1160169" data-name="Grupo 1160169" transform="translate(0.007 0.01)">
            <path id="Trazado_1013908" data-name="Trazado 1013908" d="M55.959,102.131a2.733,2.733,0,0,1-1.016-.2L12.877,85.5a3.386,3.386,0,0,1-2.147-3.146V6.379a.756.756,0,0,1,.328-.639.81.81,0,0,1,.721-.115l50.555,16.9a5.763,5.763,0,0,1,3.949,5.473V63.867a5.784,5.784,0,0,1-1.18,3.491L59.63,74.568a4.161,4.161,0,0,0-.852,2.54V99.345a2.781,2.781,0,0,1-1.229,2.311,2.912,2.912,0,0,1-1.59.475ZM12.32,7.477V82.368a1.782,1.782,0,0,0,1.131,1.655L55.517,100.46a1.213,1.213,0,0,0,1.131-.131,1.166,1.166,0,0,0,.524-1V77.075a5.715,5.715,0,0,1,1.18-3.491l5.473-7.21a4.161,4.161,0,0,0,.852-2.54V27.978a4.179,4.179,0,0,0-2.851-3.966Z" transform="translate(-10.73 -5.586)"/>
          </g>
          <g id="Grupo_1160170" data-name="Grupo 1160170" transform="translate(31.787 34.664)">
            <path id="Trazado_1013909" data-name="Trazado 1013909" d="M37.886,30.743a.742.742,0,0,1-.262-.049l-6.965-2.409a.8.8,0,1,1,.524-1.508l6.965,2.409a.8.8,0,0,1-.262,1.557Z" transform="translate(-30.123 -26.733)"/>
          </g>
          <g id="Grupo_1160171" data-name="Grupo 1160171" transform="translate(11.63 27.683)">
            <path id="Trazado_1013910" data-name="Trazado 1013910" d="M34.943,29.728a.742.742,0,0,1-.262-.049L18.359,24.025a.8.8,0,0,1,.524-1.508l16.322,5.654a.8.8,0,0,1,.492,1.016.808.808,0,0,1-.754.541Z" transform="translate(-17.823 -22.473)"/>
          </g>
          <g id="Grupo_1160172" data-name="Grupo 1160172" transform="translate(17.71 36.712)">
            <path id="Trazado_1013911" data-name="Trazado 1013911" d="M43.373,36.877a.742.742,0,0,1-.262-.049L22.069,29.535a.8.8,0,0,1,.524-1.508L43.635,35.32a.8.8,0,0,1,.492,1.016.824.824,0,0,1-.754.541Z" transform="translate(-21.533 -27.983)"/>
          </g>
          <g id="Grupo_1160173" data-name="Grupo 1160173" transform="translate(11.63 34.598)">
            <path id="Trazado_1013912" data-name="Trazado 1013912" d="M21.784,29.392a.742.742,0,0,1-.262-.049l-3.163-1.1a.8.8,0,0,1,.524-1.508l3.163,1.1a.8.8,0,0,1,.492,1.016.808.808,0,0,1-.754.541Z" transform="translate(-17.823 -26.693)"/>
          </g>
        </g>
        <g id="Grupo_1160175" data-name="Grupo 1160175" transform="translate(53.971 30.53)">
          <path id="Trazado_1013913" data-name="Trazado 1013913" d="M52.673,25.783H44.447a.787.787,0,1,1,0-1.573h8.227A.787.787,0,0,1,53.46,25,.767.767,0,0,1,52.673,25.783Z" transform="translate(-43.66 -24.21)"/>
        </g>
        <g id="Grupo_1160176" data-name="Grupo 1160176" transform="translate(53.971 39.084)">
          <path id="Trazado_1013914" data-name="Trazado 1013914" d="M52.673,31H44.447a.787.787,0,0,1-.787-.787.8.8,0,0,1,.787-.787h8.227a.787.787,0,0,1,0,1.573Z" transform="translate(-43.66 -29.43)"/>
        </g>
        <g id="Grupo_1160177" data-name="Grupo 1160177" transform="translate(53.971 47.638)">
          <path id="Trazado_1013915" data-name="Trazado 1013915" d="M52.673,36.223H44.447a.787.787,0,0,1-.787-.787.8.8,0,0,1,.787-.787h8.227a.787.787,0,1,1,0,1.573Z" transform="translate(-43.66 -34.65)"/>
        </g>
        <g id="Grupo_1160178" data-name="Grupo 1160178" transform="translate(53.971 56.193)">
          <path id="Trazado_1013916" data-name="Trazado 1013916" d="M52.673,41.443H44.447a.787.787,0,1,1,0-1.573h8.227a.787.787,0,0,1,.787.787A.767.767,0,0,1,52.673,41.443Z" transform="translate(-43.66 -39.87)"/>
        </g>
      </g>
      <g id="Grupo_1160180" data-name="Grupo 1160180" transform="translate(5.562 55.931)">
        <path id="Trazado_1013917" data-name="Trazado 1013917" d="M14.907,53.459a.787.787,0,0,1-.787-.787V40.5a.787.787,0,0,1,1.573,0V52.673A.776.776,0,0,1,14.907,53.459Z" transform="translate(-14.12 -39.71)" fill="#fff"/>
      </g>
      <g id="Grupo_1160181" data-name="Grupo 1160181" transform="translate(5.562 49.851)">
        <path id="Trazado_1013918" data-name="Trazado 1013918" d="M14.907,39.884a.787.787,0,0,1-.787-.787V36.787a.787.787,0,0,1,1.573,0V39.1A.776.776,0,0,1,14.907,39.884Z" transform="translate(-14.12 -36)" fill="#fff"/>
      </g>
    </g>
    <g id="Grupo_1160191" data-name="Grupo 1160191" transform="translate(52.99 87.272)">
      <g id="Grupo_1160189" data-name="Grupo 1160189" transform="translate(0.787 0.787)">
        <g id="Grupo_1160188" data-name="Grupo 1160188">
          <g id="Grupo_1160187" data-name="Grupo 1160187">
            <g id="Grupo_1160186" data-name="Grupo 1160186">
              <g id="Grupo_1160183" data-name="Grupo 1160183">
                <path id="Trazado_1013919" data-name="Trazado 1013919" d="M81.186,70.216H33.4a8.718,8.718,0,0,1,15.9-4.949h.115a3.088,3.088,0,0,1,2.524-1.311,2.967,2.967,0,0,1,1.721.524,8.193,8.193,0,0,1-.18-1.688,8.469,8.469,0,0,1,16.7-2c.967-1.54,2.458-3.277,3.949-2.54.77.377.393,1.9-.246,3.425a3.14,3.14,0,0,1,3.13,3.13v.541a4.92,4.92,0,0,1,4.179,4.867Z" transform="translate(-33.4 -54.32)" fill="#b9dd53"/>
              </g>
              <g id="Grupo_1160184" data-name="Grupo 1160184">
                <path id="Trazado_1013920" data-name="Trazado 1013920" d="M81.186,70.216H33.4a8.6,8.6,0,0,1,.623-3.245,8.708,8.708,0,0,1,15.257-1.7h.115a3.118,3.118,0,0,1,2.54-1.311,3.056,3.056,0,0,1,1.737.524,8.193,8.193,0,0,1-.18-1.688,8.478,8.478,0,0,1,16.715-2c.967-1.54,2.458-3.277,3.949-2.54.754.377.393,1.9-.246,3.425a3.133,3.133,0,0,1,3.13,3.146v.541a4.5,4.5,0,0,1,.639.147,4.867,4.867,0,0,1,3.507,4.7Z" transform="translate(-33.4 -54.32)" fill="#b9dd53"/>
              </g>
              <g id="Grupo_1160185" data-name="Grupo 1160185" transform="translate(0 11.176)">
                <path id="Trazado_1013921" data-name="Trazado 1013921" d="M81.186,65.86H33.4a8.6,8.6,0,0,1,.623-3.245l.262-.131S61.521,63.746,77.7,61.14A4.907,4.907,0,0,1,81.186,65.86Z" transform="translate(-33.4 -61.14)" fill="#a3c134"/>
              </g>
            </g>
          </g>
        </g>
      </g>
      <g id="Grupo_1160190" data-name="Grupo 1160190">
        <path id="Trazado_1013922" data-name="Trazado 1013922" d="M81.493,71.309H33.707a.787.787,0,0,1-.787-.787A9.5,9.5,0,0,1,49.7,64.41a3.972,3.972,0,0,1,3.31-.869c0-.147-.016-.295-.016-.442a9.275,9.275,0,0,1,17.764-3.72c1.672-2.032,3.1-1.983,4.031-1.524,1.245.606.9,2.311.508,3.491a3.959,3.959,0,0,1,2.835,3.687.148.148,0,0,0,.082.016,5.693,5.693,0,0,1,4.064,5.473.776.776,0,0,1-.787.787Zm-46.95-1.59H80.624a4.088,4.088,0,0,0-2.868-3.163c-.18-.049-.344-.1-.524-.131a.793.793,0,0,1-.672-.787V65.1a2.343,2.343,0,0,0-2.343-2.343.776.776,0,0,1-.656-.361.745.745,0,0,1-.066-.737c.672-1.639.639-2.327.574-2.458-.983-.459-2.343,1.442-2.868,2.294a.791.791,0,0,1-1.442-.246A7.691,7.691,0,0,0,54.6,63.083a6.254,6.254,0,0,0,.164,1.508.8.8,0,0,1-.328.836.819.819,0,0,1-.9,0,2.351,2.351,0,0,0-3.163.59.8.8,0,0,1-.656.344H49.6a.8.8,0,0,1-.656-.344,7.91,7.91,0,0,0-13.864,1.557,7.515,7.515,0,0,0-.541,2.147Z" transform="translate(-32.92 -53.84)"/>
      </g>
    </g>
    <g id="Grupo_1160192" data-name="Grupo 1160192" transform="translate(1.5 103.168)">
      <path id="Trazado_1013923" data-name="Trazado 1013923" d="M103.955,65.113H2.287a.787.787,0,0,1,0-1.573H103.938a.787.787,0,0,1,.787.787A.773.773,0,0,1,103.955,65.113Z" transform="translate(-1.5 -63.54)"/>
    </g>
    <g id="Grupo_1160198" data-name="Grupo 1160198" transform="translate(74.768 1.5)">
      <g id="Grupo_1160196" data-name="Grupo 1160196">
        <g id="Grupo_1160193" data-name="Grupo 1160193" transform="translate(0.787 0.787)">
          <path id="Trazado_1013924" data-name="Trazado 1013924" d="M73.221,15.254A13.266,13.266,0,1,1,59.964,1.98,13.264,13.264,0,0,1,73.221,15.254Z" transform="translate(-46.69 -1.98)" fill="#726ad3"/>
        </g>
        <g id="Grupo_1160194" data-name="Grupo 1160194" transform="translate(0.787 2.458)">
          <path id="Trazado_1013925" data-name="Trazado 1013925" d="M71.566,21.026A13.265,13.265,0,1,1,53.54,3,13.265,13.265,0,0,0,71.566,21.026Z" transform="translate(-46.69 -3)" fill="#564dc6"/>
        </g>
        <g id="Grupo_1160195" data-name="Grupo 1160195">
          <path id="Trazado_1013926" data-name="Trazado 1013926" d="M60.27,29.621a14.06,14.06,0,1,1,14.06-14.06A14.079,14.079,0,0,1,60.27,29.621Zm0-26.531A12.471,12.471,0,1,0,72.741,15.56,12.487,12.487,0,0,0,60.27,3.09Z" transform="translate(-46.21 -1.5)"/>
        </g>
      </g>
      <g id="Grupo_1160197" data-name="Grupo 1160197" transform="translate(7.846 9.861)">
        <path id="Trazado_1013927" data-name="Trazado 1013927" d="M55.1,16.633a.78.78,0,0,1-.557-.229l-3.31-3.31a.8.8,0,0,1,1.131-1.131l2.753,2.753L62.08,7.751A.8.8,0,0,1,63.21,8.882L55.688,16.4a.922.922,0,0,1-.59.229Z" transform="translate(-50.997 -7.517)"/>
      </g>
    </g>
  </g>
</svg>
