<svg id="reciclaje-de-papel" xmlns="http://www.w3.org/2000/svg" width="110.083" height="92.352" viewBox="0 0 110.083 92.352">
  <g id="Grupo_1162068" data-name="Grupo 1162068" transform="translate(0 90.646)">
    <g id="Grupo_1162065" data-name="Grupo 1162065" transform="translate(52.323)">
      <g id="Grupo_1162064" data-name="Grupo 1162064">
        <path id="Trazado_1018685" data-name="Trazado 1018685" d="M53.11,59.736H32.323a.853.853,0,0,1,0-1.706H53.11a.853.853,0,0,1,0,1.706Z" transform="translate(-31.47 -58.03)"/>
      </g>
    </g>
    <g id="Grupo_1162066" data-name="Grupo 1162066">
      <path id="Trazado_1018686" data-name="Trazado 1018686" d="M3.139,59.736H2.873a.853.853,0,0,1,0-1.706h.249a.853.853,0,0,1,.853.853A.838.838,0,0,1,3.139,59.736Z" transform="translate(-2.02 -58.03)"/>
    </g>
    <g id="Grupo_1162067" data-name="Grupo 1162067" transform="translate(2.647)">
      <path id="Trazado_1018687" data-name="Trazado 1018687" d="M110.092,59.736H4.363a.853.853,0,0,1,0-1.706h105.73a.853.853,0,0,1,.853.853A.865.865,0,0,1,110.092,59.736Z" transform="translate(-3.51 -58.03)"/>
    </g>
  </g>
  <g id="Grupo_1162126" data-name="Grupo 1162126" transform="translate(2.647 0)">
    <g id="Grupo_1162083" data-name="Grupo 1162083">
      <g id="Grupo_1162069" data-name="Grupo 1162069" transform="translate(79.435 0.835)">
        <path id="Trazado_1018688" data-name="Trazado 1018688" d="M62.984,14.871V24.8H48.22V14.871a7.382,7.382,0,0,1,14.764,0Z" transform="translate(-48.22 -7.48)" fill="#f1f3f6"/>
      </g>
      <g id="Grupo_1162070" data-name="Grupo 1162070" transform="translate(79.453 0.853)">
        <path id="Trazado_1018689" data-name="Trazado 1018689" d="M58.215,7.952a7.387,7.387,0,0,0-4.761,6.911v9.932H48.23V14.863A7.37,7.37,0,0,1,55.621,7.49a7.527,7.527,0,0,1,2.594.462Z" transform="translate(-48.23 -7.49)" fill="#d5dce5"/>
      </g>
      <g id="Grupo_1162071" data-name="Grupo 1162071" transform="translate(9.008 0.835)">
        <path id="Trazado_1018690" data-name="Trazado 1018690" d="M86.4,7.5a7.385,7.385,0,0,0-7.391,7.391v75.9a7.385,7.385,0,0,1-7.391,7.391H8.58V14.871A7.385,7.385,0,0,1,15.971,7.48H86.4Z" transform="translate(-8.58 -7.48)" fill="#f1f3f6"/>
      </g>
      <g id="Grupo_1162072" data-name="Grupo 1162072" transform="translate(9.008 0.853)">
        <path id="Trazado_1018691" data-name="Trazado 1018691" d="M86.4,7.49a7.381,7.381,0,0,0-7.391,7.373v75.9a7.382,7.382,0,0,1-7.391,7.373H8.58V14.863A7.366,7.366,0,0,1,15.953,7.49Z" transform="translate(-8.58 -7.49)" fill="#f1f3f6"/>
      </g>
      <g id="Grupo_1162073" data-name="Grupo 1162073" transform="translate(9.008 58.755)">
        <path id="Trazado_1018692" data-name="Trazado 1018692" d="M79.007,40.08V65.451a7.382,7.382,0,0,1-7.391,7.373H8.58V58.06S79.007,58.54,79.007,40.08Z" transform="translate(-8.58 -40.08)" fill="#d5dce5"/>
      </g>
      <g id="Grupo_1162074" data-name="Grupo 1162074" transform="translate(59.359 60.123)">
        <path id="Trazado_1018693" data-name="Trazado 1018693" d="M46.923,42.556h-9.15a.853.853,0,1,1,0-1.706h9.15a.853.853,0,0,1,.853.853A.865.865,0,0,1,46.923,42.556Z" transform="translate(-36.92 -40.85)"/>
      </g>
      <g id="Grupo_1162075" data-name="Grupo 1162075" transform="translate(18.211 60.123)">
        <path id="Trazado_1018694" data-name="Trazado 1018694" d="M50.679,42.556H14.613a.853.853,0,0,1,0-1.706H50.679a.853.853,0,1,1,0,1.706Z" transform="translate(-13.76 -40.85)"/>
      </g>
      <g id="Grupo_1162076" data-name="Grupo 1162076" transform="translate(18.229 67.567)">
        <path id="Trazado_1018695" data-name="Trazado 1018695" d="M23.453,46.746h-8.83a.853.853,0,1,1,0-1.706h8.83a.853.853,0,0,1,.853.853A.865.865,0,0,1,23.453,46.746Z" transform="translate(-13.77 -45.04)"/>
      </g>
      <g id="Grupo_1162077" data-name="Grupo 1162077" transform="translate(78.582)">
        <path id="Trazado_1018696" data-name="Trazado 1018696" d="M63.357,26.02H48.593a.853.853,0,0,1-.853-.853V15.236A8.242,8.242,0,0,1,55.966,7.01a8.25,8.25,0,0,1,8.226,8.244v9.932a.823.823,0,0,1-.835.835ZM49.446,24.333H62.522v-9.1A6.448,6.448,0,0,0,60.6,10.617a6.533,6.533,0,0,0-11.157,4.619Z" transform="translate(-47.74 -7.01)"/>
      </g>
      <g id="Grupo_1162078" data-name="Grupo 1162078" transform="translate(8.155 0)">
        <path id="Trazado_1018697" data-name="Trazado 1018697" d="M71.989,99.361H8.953a.853.853,0,0,1-.853-.853V15.236A8.242,8.242,0,0,1,16.326,7.01H86.771a.853.853,0,0,1,0,1.706,6.544,6.544,0,0,0-6.538,6.538v75.9a8.242,8.242,0,0,1-8.244,8.208Zm-62.2-1.688h62.2a6.544,6.544,0,0,0,6.538-6.538v-75.9A8.2,8.2,0,0,1,81.761,8.7H16.326a6.544,6.544,0,0,0-6.538,6.538Z" transform="translate(-8.1 -7.01)"/>
      </g>
      <g id="Grupo_1162079" data-name="Grupo 1162079" transform="translate(0.853 76.734)">
        <path id="Trazado_1018698" data-name="Trazado 1018698" d="M72.907,64.964H11.363a7.382,7.382,0,0,1,0-14.764H72.907a7.4,7.4,0,0,0-7.391,7.373A7.408,7.408,0,0,0,72.907,64.964Z" transform="translate(-3.99 -50.2)" fill="#f1f3f6"/>
      </g>
      <g id="Grupo_1162080" data-name="Grupo 1162080" transform="translate(33.632 80.856)">
        <path id="Trazado_1018699" data-name="Trazado 1018699" d="M25,54.226H23.293a.853.853,0,1,1,0-1.706H25a.853.853,0,0,1,.853.853A.842.842,0,0,1,25,54.226Z" transform="translate(-22.44 -52.52)" fill="#fff"/>
      </g>
      <g id="Grupo_1162081" data-name="Grupo 1162081" transform="translate(39.282 80.856)">
        <path id="Trazado_1018700" data-name="Trazado 1018700" d="M39.638,54.226H26.473a.853.853,0,1,1,0-1.706H39.638a.853.853,0,0,1,.853.853A.865.865,0,0,1,39.638,54.226Z" transform="translate(-25.62 -52.52)" fill="#fff"/>
      </g>
      <g id="Grupo_1162082" data-name="Grupo 1162082" transform="translate(0 75.899)">
        <path id="Trazado_1018701" data-name="Trazado 1018701" d="M73.28,66.182H11.736a8.226,8.226,0,1,1,0-16.452H73.28a.853.853,0,1,1,0,1.706,6.448,6.448,0,0,0-4.619,1.919A6.533,6.533,0,0,0,73.28,64.512a.853.853,0,0,1,.853.853.835.835,0,0,1-.853.817ZM11.736,51.418a6.448,6.448,0,0,0-4.619,1.919,6.545,6.545,0,0,0,4.637,11.158H68.305a8.211,8.211,0,0,1-.817-12.348,7.546,7.546,0,0,1,.817-.711H11.736Z" transform="translate(-3.51 -49.73)"/>
      </g>
    </g>
    <g id="Grupo_1162099" data-name="Grupo 1162099" transform="translate(72.755 61.26)">
      <g id="Grupo_1162084" data-name="Grupo 1162084" transform="translate(0.853 0.853)">
        <path id="Trazado_1018702" data-name="Trazado 1018702" d="M44.94,41.97H75.481V71.356H44.94Z" transform="translate(-44.94 -41.97)" fill="#b9dd53"/>
      </g>
      <g id="Grupo_1162085" data-name="Grupo 1162085" transform="translate(0.853 0.853)">
        <path id="Trazado_1018703" data-name="Trazado 1018703" d="M44.94,41.97H75.481V71.356H44.94Z" transform="translate(-44.94 -41.97)" fill="#ff9a9a"/>
      </g>
      <g id="Grupo_1162086" data-name="Grupo 1162086" transform="translate(1.99 0.853)">
        <path id="Trazado_1018704" data-name="Trazado 1018704" d="M74.984,41.97V71.356H45.58C51.141,71.214,74.984,68.993,74.984,41.97Z" transform="translate(-45.58 -41.97)" fill="#d86666"/>
      </g>
      <g id="Grupo_1162097" data-name="Grupo 1162097" transform="translate(6.041 6.856)">
        <g id="Grupo_1162096" data-name="Grupo 1162096">
          <g id="Grupo_1162095" data-name="Grupo 1162095">
            <g id="Grupo_1162089" data-name="Grupo 1162089" transform="translate(13.627 6.843)">
              <g id="Grupo_1162087" data-name="Grupo 1162087">
                <path id="Trazado_1018705" data-name="Trazado 1018705" d="M58.906,58.278H56.383a.853.853,0,0,1,0-1.706h2.523a1.476,1.476,0,0,0,1.332-.817,1.436,1.436,0,0,0-.124-1.546l-2.647-3.66a.853.853,0,0,1,1.386-.995l2.647,3.66a3.132,3.132,0,0,1,.249,3.3,3.184,3.184,0,0,1-2.843,1.759Z" transform="translate(-55.53 -49.201)"/>
              </g>
              <g id="Grupo_1162088" data-name="Grupo 1162088" transform="translate(1.429 0.025)">
                <path id="Trazado_1018706" data-name="Trazado 1018706" d="M57.179,53.044a.3.3,0,0,1-.124-.018.843.843,0,0,1-.711-.959l.338-2.132a.819.819,0,0,1,.338-.551.893.893,0,0,1,.64-.16l2.132.338a.853.853,0,0,1-.249,1.688l-1.3-.2-.2,1.3a.9.9,0,0,1-.871.693Z" transform="translate(-56.334 -49.215)"/>
              </g>
            </g>
            <g id="Grupo_1162090" data-name="Grupo 1162090" transform="translate(4.27)">
              <path id="Trazado_1018707" data-name="Trazado 1018707" d="M51.11,52.493a.871.871,0,0,1-.5-.16.848.848,0,0,1-.2-1.173l3.216-4.477A3.29,3.29,0,0,1,59,46.79l1.688,2.487a.845.845,0,1,1-1.4.942L57.6,47.732a1.546,1.546,0,0,0-1.279-.693,1.582,1.582,0,0,0-1.315.64l-3.2,4.477A.9.9,0,0,1,51.11,52.493Z" transform="translate(-50.263 -45.349)"/>
            </g>
            <g id="Grupo_1162091" data-name="Grupo 1162091" transform="translate(0 8.157)">
              <path id="Trazado_1018708" data-name="Trazado 1018708" d="M58.093,57.7H51.147a3.282,3.282,0,0,1-2.629-5.241l1.635-2.185A.851.851,0,0,1,51.52,51.29l-1.635,2.185a1.591,1.591,0,0,0,1.279,2.541h6.947a.853.853,0,0,1,.853.853.89.89,0,0,1-.871.835Z" transform="translate(-47.86 -49.94)"/>
            </g>
            <g id="Grupo_1162093" data-name="Grupo 1162093" transform="translate(7.801 12.689)">
              <g id="Grupo_1162092" data-name="Grupo 1162092">
                <path id="Trazado_1018709" data-name="Trazado 1018709" d="M53.1,57.2a.862.862,0,0,1-.622-.266.842.842,0,0,1,.036-1.19l.959-.888-.906-.942a.842.842,0,0,1,1.226-1.155l1.475,1.563a.831.831,0,0,1,.231.6.792.792,0,0,1-.267.586l-1.563,1.475a.807.807,0,0,1-.569.213Z" transform="translate(-52.251 -52.491)"/>
              </g>
            </g>
            <g id="Grupo_1162094" data-name="Grupo 1162094" transform="translate(3.743 3.354)">
              <path id="Trazado_1018710" data-name="Trazado 1018710" d="M51.34,51.027A.8.8,0,0,1,50.9,50.9a.866.866,0,0,1-.391-.515l-.515-2.1a.851.851,0,0,1,1.652-.409l.32,1.261,1.261-.32a.851.851,0,0,1,.409,1.652l-2.1.533c-.053,0-.124.018-.2.018Z" transform="translate(-49.967 -47.237)"/>
            </g>
          </g>
        </g>
      </g>
      <g id="Grupo_1162098" data-name="Grupo 1162098">
        <path id="Trazado_1018711" data-name="Trazado 1018711" d="M75.854,72.582H45.313a.853.853,0,0,1-.853-.853V42.343a.853.853,0,0,1,.853-.853H75.854a.853.853,0,0,1,.853.853V71.729a.842.842,0,0,1-.853.853ZM46.166,70.894H75.019V43.2H46.166Z" transform="translate(-44.46 -41.49)"/>
      </g>
    </g>
    <g id="Grupo_1162119" data-name="Grupo 1162119" transform="translate(23.199 11.739)">
      <g id="Grupo_1162104" data-name="Grupo 1162104" transform="translate(6.841 0.835)">
        <g id="Grupo_1162100" data-name="Grupo 1162100" transform="translate(8.23)">
          <path id="Trazado_1018712" data-name="Trazado 1018712" d="M43.669,22.212c-2.239.551-4.14,1.937-6.591,2.967a11.668,11.668,0,0,1-6.734.746,5.92,5.92,0,0,1-4.6-8.706C29.154,10.663,39.583,15.407,43.669,22.212Z" transform="translate(-25.05 -14.087)" fill="#b9dd53"/>
        </g>
        <g id="Grupo_1162101" data-name="Grupo 1162101" transform="translate(8.248 0.012)">
          <path id="Trazado_1018713" data-name="Trazado 1018713" d="M25.753,17.231a5.92,5.92,0,0,0,4.6,8.706,11.382,11.382,0,0,0,6.734-.746,4.253,4.253,0,0,0,.5-.231c2.2-1.013,4.015-2.221,6.094-2.736C40.3,16.592,32.557,12.363,28.062,14.8A5.5,5.5,0,0,0,25.753,17.231Z" transform="translate(-25.06 -14.094)" fill="#b9dd53"/>
        </g>
        <g id="Grupo_1162102" data-name="Grupo 1162102" transform="translate(8.248 0.715)">
          <path id="Trazado_1018714" data-name="Trazado 1018714" d="M25.753,16.924a6.134,6.134,0,0,0-.284,5.028,6.118,6.118,0,0,0,4.886,3.678,11.382,11.382,0,0,0,6.734-.746,4.254,4.254,0,0,0,.5-.231S29.146,20.8,28.062,14.49A5.5,5.5,0,0,0,25.753,16.924Z" transform="translate(-25.06 -14.49)" fill="#a3c134"/>
        </g>
        <g id="Grupo_1162103" data-name="Grupo 1162103" transform="translate(0 4.279)">
          <path id="Trazado_1018715" data-name="Trazado 1018715" d="M21.275,21.123a.872.872,0,0,1-.746-.426.846.846,0,0,1,.32-1.155,23.743,23.743,0,0,1,18.8-1.937l.2.053a.848.848,0,1,1-.515,1.617l-.2-.071A22.033,22.033,0,0,0,21.683,21,.691.691,0,0,1,21.275,21.123Z" transform="translate(-20.418 -16.495)"/>
        </g>
      </g>
      <g id="Grupo_1162115" data-name="Grupo 1162115" transform="translate(0.829 17.576)">
        <g id="Grupo_1162109" data-name="Grupo 1162109">
          <g id="Grupo_1162105" data-name="Grupo 1162105">
            <path id="Trazado_1018716" data-name="Trazado 1018716" d="M18.839,23.51c1.67,1.581,3.855,2.452,6.041,3.944a11.347,11.347,0,0,1,4.246,5.277,6.078,6.078,0,0,1-.48,6.094,6.2,6.2,0,0,1-4.388,2.47c-7.338.675-8.972-10.678-5.419-17.784Z" transform="translate(-17.034 -23.51)" fill="#b9dd53"/>
          </g>
          <g id="Grupo_1162106" data-name="Grupo 1162106" transform="translate(0.006 0)">
            <path id="Trazado_1018717" data-name="Trazado 1018717" d="M24.273,41.294a6.149,6.149,0,0,0,4.388-2.452,6.079,6.079,0,0,0,.462-6.094,11.569,11.569,0,0,0-4.246-5.277c-.16-.107-.3-.2-.462-.3-2.025-1.315-4.033-2.185-5.579-3.66-2.932,5.881-2.327,14.675,2.15,17.145a5.653,5.653,0,0,0,3.287.64Z" transform="translate(-17.037 -23.51)" fill="#b9dd53"/>
          </g>
          <g id="Grupo_1162107" data-name="Grupo 1162107" transform="translate(3.937 3.66)">
            <path id="Trazado_1018718" data-name="Trazado 1018718" d="M22.555,39.695a6.149,6.149,0,0,0,4.388-2.452,6.079,6.079,0,0,0,.462-6.094,11.569,11.569,0,0,0-4.246-5.277c-.16-.107-.3-.2-.462-.3,0,0,1.279,9.185-3.447,13.5a5.885,5.885,0,0,0,3.3.622Z" transform="translate(-19.25 -25.57)" fill="#a3c134"/>
          </g>
          <g id="Grupo_1162108" data-name="Grupo 1162108" transform="translate(3.498 6.632)">
            <path id="Trazado_1018719" data-name="Trazado 1018719" d="M31.221,43.406a.761.761,0,0,1-.391-.107A23.74,23.74,0,0,1,19.087,28.5l-.053-.2a.845.845,0,1,1,1.635-.426l.053.2A21.958,21.958,0,0,0,31.63,41.807a.848.848,0,0,1,.355,1.137.862.862,0,0,1-.764.462Z" transform="translate(-19.003 -27.243)"/>
          </g>
        </g>
        <g id="Grupo_1162114" data-name="Grupo 1162114" transform="translate(23.169)">
          <g id="Grupo_1162110" data-name="Grupo 1162110" transform="translate(3.887)">
            <path id="Trazado_1018720" data-name="Trazado 1018720" d="M43.131,23.51c-1.67,1.581-3.855,2.452-6.041,3.944a11.347,11.347,0,0,0-4.246,5.277,6.078,6.078,0,0,0,.48,6.094,6.2,6.2,0,0,0,4.388,2.47c7.355.675,8.972-10.678,5.419-17.784Z" transform="translate(-32.263 -23.51)" fill="#b9dd53"/>
          </g>
          <g id="Grupo_1162111" data-name="Grupo 1162111" transform="translate(3.878 0)">
            <path id="Trazado_1018721" data-name="Trazado 1018721" d="M37.7,41.294a6.149,6.149,0,0,1-4.388-2.452,6.079,6.079,0,0,1-.462-6.094,11.569,11.569,0,0,1,4.246-5.277c.16-.107.3-.2.462-.3,2.025-1.315,4.033-2.185,5.579-3.66,2.932,5.881,2.327,14.675-2.15,17.145A5.653,5.653,0,0,1,37.7,41.294Z" transform="translate(-32.258 -23.51)" fill="#b9dd53"/>
          </g>
          <g id="Grupo_1162112" data-name="Grupo 1162112" transform="translate(3.878 3.66)">
            <path id="Trazado_1018722" data-name="Trazado 1018722" d="M37.7,39.695a6.149,6.149,0,0,1-4.388-2.452,6.079,6.079,0,0,1-.462-6.094,11.569,11.569,0,0,1,4.246-5.277c.16-.107.3-.2.462-.3,0,0-1.279,9.185,3.447,13.5a5.885,5.885,0,0,1-3.3.622Z" transform="translate(-32.258 -25.57)" fill="#a3c134"/>
          </g>
          <g id="Grupo_1162113" data-name="Grupo 1162113" transform="translate(0 6.651)">
            <path id="Trazado_1018723" data-name="Trazado 1018723" d="M30.919,43.4a.837.837,0,0,1-.391-1.581A22.049,22.049,0,0,0,41.437,28.082l.053-.2a.845.845,0,0,1,1.635.426l-.053.2a23.74,23.74,0,0,1-11.744,14.8.9.9,0,0,1-.409.089Z" transform="translate(-30.075 -27.253)"/>
          </g>
        </g>
      </g>
      <g id="Grupo_1162116" data-name="Grupo 1162116" transform="translate(27.034 16.708)">
        <path id="Trazado_1018724" data-name="Trazado 1018724" d="M38.688,42.545c-.231,0-.462-.018-.693-.036a6.757,6.757,0,0,1-5.561-9.718A12.486,12.486,0,0,1,37,27.123l.124-.071c.124-.089.249-.16.373-.249.675-.444,1.368-.835,2.043-1.226a17.978,17.978,0,0,0,3.411-2.327.84.84,0,0,1,.728-.213.811.811,0,0,1,.6.462C47.27,29.5,46.826,38.991,41.8,41.763a6.267,6.267,0,0,1-3.109.782Zm-.533-1.706a4.9,4.9,0,0,0,2.807-.533c3.589-1.99,4.6-9.31,2.256-15.031a28.677,28.677,0,0,1-2.843,1.812c-.64.373-1.315.764-1.972,1.19a2.262,2.262,0,0,0-.338.231l-.107.071a10.7,10.7,0,0,0-3.926,4.886,5.038,5.038,0,0,0,4.122,7.373Z" transform="translate(-31.784 -23.021)"/>
      </g>
      <g id="Grupo_1162117" data-name="Grupo 1162117" transform="translate(0 16.726)">
        <path id="Trazado_1018725" data-name="Trazado 1018725" d="M24.016,42.537a6.477,6.477,0,0,1-3.091-.764C15.9,38.983,15.435,29.5,18.438,23.509a.841.841,0,0,1,1.333-.249,17.979,17.979,0,0,0,3.411,2.327c.657.391,1.35.782,2.043,1.226.107.071.231.142.355.231l.107.071A12.417,12.417,0,0,1,30.252,32.8a6.747,6.747,0,0,1-5.579,9.7,3.864,3.864,0,0,1-.657.036ZM19.5,25.25c-2.345,5.721-1.333,13.059,2.256,15.031a4.763,4.763,0,0,0,2.807.533A5.078,5.078,0,0,0,28.724,33.4a10.717,10.717,0,0,0-3.944-4.886l-.107-.071-.32-.213c-.675-.444-1.35-.817-1.99-1.19A24.329,24.329,0,0,1,19.5,25.25Z" transform="translate(-16.567 -23.031)"/>
      </g>
      <g id="Grupo_1162118" data-name="Grupo 1162118" transform="translate(14.227)">
        <path id="Trazado_1018726" data-name="Trazado 1018726" d="M32.828,27.356a10.857,10.857,0,0,1-2.274-.231,6.969,6.969,0,0,1-5.508-4.193,6.931,6.931,0,0,1,.32-5.721,6.434,6.434,0,0,1,2.665-2.789c5.064-2.754,13.289,1.99,16.736,7.729a.831.831,0,0,1,.053.764.87.87,0,0,1-.586.5,17.919,17.919,0,0,0-3.8,1.635c-.675.355-1.386.728-2.15,1.066-.124.053-.267.124-.409.178l-.107.053a12.859,12.859,0,0,1-4.939,1.013Zm-5.952-9.363a5.322,5.322,0,0,0-.249,4.317,5.285,5.285,0,0,0,4.264,3.162,10.7,10.7,0,0,0,6.236-.693l.089-.036.373-.16c.728-.338,1.421-.693,2.079-1.03a24.857,24.857,0,0,1,3.056-1.421c-3.571-5.064-10.287-8.155-13.894-6.2a4.592,4.592,0,0,0-1.954,2.061Z" transform="translate(-24.575 -13.617)"/>
      </g>
    </g>
    <g id="Grupo_1162125" data-name="Grupo 1162125" transform="translate(60.336 7.871)">
      <g id="Grupo_1162120" data-name="Grupo 1162120" transform="translate(3.034 4.331)">
        <path id="Trazado_1018727" data-name="Trazado 1018727" d="M40.035,18.59a.911.911,0,0,1-.6-.249.826.826,0,0,1,0-1.19l3.02-3.02a.842.842,0,0,1,1.19,1.19l-3.02,3.02a.836.836,0,0,1-.586.249Z" transform="translate(-39.178 -13.878)"/>
      </g>
      <g id="Grupo_1162123" data-name="Grupo 1162123">
        <g id="Grupo_1162121" data-name="Grupo 1162121" transform="translate(6.094 10.394)">
          <path id="Trazado_1018728" data-name="Trazado 1018728" d="M46.035,19H41.753a.853.853,0,0,1-.853-.853.842.842,0,0,1,.853-.853h4.282a.853.853,0,0,1,0,1.706Z" transform="translate(-40.9 -17.29)"/>
        </g>
        <g id="Grupo_1162122" data-name="Grupo 1162122">
          <path id="Trazado_1018729" data-name="Trazado 1018729" d="M38.323,17.427a.853.853,0,0,1-.853-.853V12.293a.853.853,0,1,1,1.706,0v4.282A.865.865,0,0,1,38.323,17.427Z" transform="translate(-37.47 -11.44)"/>
        </g>
      </g>
      <g id="Grupo_1162124" data-name="Grupo 1162124" transform="translate(8.133 1.559)">
        <path id="Trazado_1018730" data-name="Trazado 1018730" d="M42.9,14.7a.911.911,0,0,1-.6-.249.826.826,0,0,1,0-1.19l.693-.693a.842.842,0,0,1,1.19,1.19l-.693.693a.777.777,0,0,1-.586.249Z" transform="translate(-42.048 -12.317)"/>
      </g>
    </g>
  </g>
</svg>
