<svg id="etiqueta-ecologia" xmlns="http://www.w3.org/2000/svg" width="121.491" height="117.6" viewBox="0 0 121.491 117.6">
  <g id="Grupo_1161997" data-name="Grupo 1161997" transform="translate(3.8 103.423)">
    <path id="Trazado_1018611" data-name="Trazado 1018611" d="M43.279,69.39H3.47a7.267,7.267,0,0,1,13.25-4.127h.1a2.584,2.584,0,0,1,2.1-1.1,2.515,2.515,0,0,1,1.447.444,6.7,6.7,0,0,1-.154-1.408,7.064,7.064,0,0,1,13.925-1.678c.81-1.292,2.044-2.739,3.3-2.122.636.309.328,1.582-.193,2.854a2.605,2.605,0,0,1,2.6,2.6V65.3a4.162,4.162,0,0,1,3.433,4.089Z" transform="translate(-3.47 -56.14)" fill="#b9dd53"/>
  </g>
  <g id="Grupo_1161998" data-name="Grupo 1161998" transform="translate(3.8 103.423)">
    <path id="Trazado_1018612" data-name="Trazado 1018612" d="M43.279,69.39H3.47a7.085,7.085,0,0,1,.521-2.7,7.265,7.265,0,0,1,12.73-1.427h.1a2.584,2.584,0,0,1,2.1-1.1,2.515,2.515,0,0,1,1.447.444,6.7,6.7,0,0,1-.154-1.408,7.064,7.064,0,0,1,13.925-1.678c.81-1.273,2.044-2.739,3.3-2.122.636.309.328,1.582-.193,2.854a2.609,2.609,0,0,1,2.6,2.623v.444a2.766,2.766,0,0,1,.54.135,4.116,4.116,0,0,1,2.893,3.935Z" transform="translate(-3.47 -56.14)" fill="#b9dd53"/>
  </g>
  <g id="Grupo_1161999" data-name="Grupo 1161999" transform="translate(3.8 112.739)">
    <path id="Trazado_1018613" data-name="Trazado 1018613" d="M43.279,64.9H3.47a7.086,7.086,0,0,1,.521-2.7,1.119,1.119,0,0,0,.212-.116s22.682,1.061,36.163-1.119A4.109,4.109,0,0,1,43.279,64.9Z" transform="translate(-3.47 -60.97)" fill="#a3c134"/>
  </g>
  <g id="Grupo_1162000" data-name="Grupo 1162000" transform="translate(26.674 102.498)">
    <path id="Trazado_1018614" data-name="Trazado 1018614" d="M26.208,63.645a.756.756,0,0,1-.347-.077.913.913,0,0,1-.5-1.215,5.085,5.085,0,0,0,.482-1.7h-.019c-.463,0-1.2.675-1.909,1.813a.931.931,0,0,1-1.7-.289,6.077,6.077,0,0,0-5.96-4.667.926.926,0,1,1,0-1.852,7.976,7.976,0,0,1,7.156,4.4c1.389-1.5,2.584-1.427,3.414-1.022,1.6.791.579,3.24.251,4.05A.95.95,0,0,1,26.208,63.645Z" transform="translate(-15.33 -55.66)" fill="#050505"/>
  </g>
  <g id="Grupo_1162001" data-name="Grupo 1162001" transform="translate(2.874 108.477)">
    <path id="Trazado_1018615" data-name="Trazado 1018615" d="M43.725,67.883H3.916a.926.926,0,0,1-.926-.926,8.21,8.21,0,0,1,13.675-6.114.929.929,0,0,1-1.234,1.389,6.331,6.331,0,0,0-10.492,3.78H42.683a3.156,3.156,0,0,0-2.527-2.2.951.951,0,0,1-.791-.926v-.444a.926.926,0,0,1,.926-.926.958.958,0,0,1,.887.636,5.026,5.026,0,0,1,3.491,4.8.943.943,0,0,1-.945.926Z" transform="translate(-2.99 -58.76)" fill="#050505"/>
  </g>
  <g id="Grupo_1162002" data-name="Grupo 1162002" transform="translate(35.972 108.617)">
    <path id="Trazado_1018616" data-name="Trazado 1018616" d="M21.095,61.875a1,1,0,0,1-.559-.174.949.949,0,0,1-.212-1.312,2.357,2.357,0,0,0,.482-.868A.929.929,0,0,1,22.6,60a4.071,4.071,0,0,1-.771,1.485A.856.856,0,0,1,21.095,61.875Z" transform="translate(-20.151 -58.833)" fill="#050505"/>
  </g>
  <g id="Grupo_1162003" data-name="Grupo 1162003" transform="translate(0 115.748)">
    <path id="Trazado_1018617" data-name="Trazado 1018617" d="M122.083,64.382H2.426a.926.926,0,1,1,0-1.852H122.064a.926.926,0,0,1,.926.926A.9.9,0,0,1,122.083,64.382Z" transform="translate(-1.5 -62.53)"/>
  </g>
  <g id="Grupo_1162004" data-name="Grupo 1162004" transform="translate(3.798 2.571)">
    <path id="Trazado_1018618" data-name="Trazado 1018618" d="M65.209,111.105a40.166,40.166,0,0,1-44.862,0C6.133,101.5.4,83.332,5.053,66.8,13.307,37.6,33.192,24.989,42.778,3.85,52.364,24.989,72.23,37.6,80.5,66.8c4.648,16.529-1.08,34.7-15.295,44.3Z" transform="translate(-3.469 -3.85)" fill="#6bbeeb"/>
  </g>
  <g id="Grupo_1162005" data-name="Grupo 1162005" transform="translate(3.805 2.571)">
    <path id="Trazado_1018619" data-name="Trazado 1018619" d="M65.206,111.105a40.166,40.166,0,0,1-44.862,0A38.788,38.788,0,0,1,3.718,82.638,41.292,41.292,0,0,1,5.068,66.8C13.3,37.6,33.189,24.989,42.775,3.85c4.9,10.781,12.46,19.345,19.789,29.027V32.9C69.6,42.193,76.431,52.511,80.5,66.8,85.149,83.332,79.42,101.5,65.206,111.105Z" transform="translate(-3.473 -3.85)" fill="#6bbeeb"/>
  </g>
  <g id="Grupo_1162006" data-name="Grupo 1162006" transform="translate(4.05 31.618)">
    <path id="Trazado_1018620" data-name="Trazado 1018620" d="M65.088,97.119a40.166,40.166,0,0,1-44.862,0A38.788,38.788,0,0,1,3.6,68.651c1.061.212,58.845,12.556,58.864-49.741,7.04,9.3,13.867,19.615,17.937,33.907C85.03,69.346,79.3,87.514,65.088,97.119Z" transform="translate(-3.6 -18.91)" fill="#56a7d2"/>
  </g>
  <g id="Grupo_1162007" data-name="Grupo 1162007" transform="translate(25.621 1.626)">
    <path id="Trazado_1018621" data-name="Trazado 1018621" d="M69.976,68.184a.949.949,0,0,1-.906-.675C64.229,50.4,55.414,39.118,46.889,28.2c-5.516-7.078-10.762-13.79-14.658-21.717-3.9,7.966-9.161,14.7-14.716,21.775l-1.061,1.35a.934.934,0,0,1-1.466-1.157l1.061-1.35c5.883-7.541,11.457-14.639,15.333-23.2a.937.937,0,0,1,1.7,0c3.877,8.525,9.412,15.622,15.275,23.144C57,38.1,65.907,49.533,70.844,66.988a.945.945,0,0,1-.636,1.157.418.418,0,0,1-.231.039Z" transform="translate(-14.784 -3.36)"/>
  </g>
  <g id="Grupo_1162008" data-name="Grupo 1162008" transform="translate(2.832 48.315)">
    <path id="Trazado_1018622" data-name="Trazado 1018622" d="M43.243,96.852a40.979,40.979,0,0,1-22.952-7C6,80.188-.307,61.981,4.63,44.526a86.529,86.529,0,0,1,6.538-16.452.932.932,0,0,1,1.659.849,84.175,84.175,0,0,0-6.4,16.1C1.718,61.711,7.716,79.088,21.333,88.308a39.305,39.305,0,0,0,43.82,0A36.34,36.34,0,0,0,76.167,76.542a.929.929,0,0,1,1.6.945A38.235,38.235,0,0,1,66.176,89.851a40.768,40.768,0,0,1-22.932,7Z" transform="translate(-2.968 -27.567)"/>
  </g>
  <g id="Grupo_1162009" data-name="Grupo 1162009" transform="translate(37.279 19.196)">
    <path id="Trazado_1018623" data-name="Trazado 1018623" d="M52.038,13.975l47.851,42.3A4.059,4.059,0,0,1,100.256,62L76.475,89.059a4.059,4.059,0,0,1-5.728.366L22.9,47.129A6.081,6.081,0,0,1,20.831,42.4l.617-22.469a4.062,4.062,0,0,1,3.414-3.9l22.219-3.491a6.013,6.013,0,0,1,4.957,1.427Z" transform="translate(-20.828 -12.469)" fill="#f9b84e"/>
  </g>
  <g id="Grupo_1162010" data-name="Grupo 1162010" transform="translate(37.279 42.457)">
    <path id="Trazado_1018624" data-name="Trazado 1018624" d="M100.256,50.8,76.475,77.859a4.06,4.06,0,0,1-5.728.366L22.9,35.929A6.026,6.026,0,0,1,20.831,31.2l.174-6.673a5.857,5.857,0,0,0,1.254,1.5L46.927,47.771A35,35,0,0,0,96.264,44.7l1.427-1.6,2.218,1.967a4.076,4.076,0,0,1,.347,5.728Z" transform="translate(-20.828 -24.53)" fill="#ef8f06"/>
  </g>
  <g id="Grupo_1162011" data-name="Grupo 1162011" transform="translate(49.613 32.856)">
    <ellipse id="Elipse_12801" data-name="Elipse 12801" cx="3.645" cy="3.645" rx="3.645" ry="3.645" transform="matrix(0.804, -0.595, 0.595, 0.804, 0, 4.338)" fill="#fff"/>
  </g>
  <g id="Grupo_1162012" data-name="Grupo 1162012" transform="translate(36.354 18.262)">
    <path id="Trazado_1018625" data-name="Trazado 1018625" d="M49.2,71.379a.946.946,0,0,1-.617-.231L22.724,48.273a7,7,0,0,1-2.372-5.458l.617-22.469a4.957,4.957,0,0,1,4.2-4.783l22.219-3.491A7.05,7.05,0,0,1,53.12,13.73l5.343,4.725a.929.929,0,0,1-1.234,1.389l-5.343-4.725A5.178,5.178,0,0,0,47.7,13.9L25.462,17.395a3.133,3.133,0,0,0-2.642,2.989l-.6,22.489a5.173,5.173,0,0,0,1.755,4.012L49.841,69.759a.922.922,0,0,1,.077,1.312.936.936,0,0,1-.714.309Z" transform="translate(-20.349 -11.985)"/>
  </g>
  <g id="Grupo_1162013" data-name="Grupo 1162013" transform="translate(69.369 28.757)">
    <path id="Trazado_1018626" data-name="Trazado 1018626" d="M57.975,86.77A4.979,4.979,0,0,1,54.7,85.536L37.782,70.588A.929.929,0,1,1,39.016,69.2L55.931,84.147a3.107,3.107,0,0,0,2.257.771,3.063,3.063,0,0,0,2.141-1.061l23.8-27.06a3.027,3.027,0,0,0,.771-2.257A3.063,3.063,0,0,0,83.84,52.4L46.114,19.053a.929.929,0,0,1,1.234-1.389L85.055,50.993a4.993,4.993,0,0,1,.444,7.04L61.717,85.073a4.934,4.934,0,0,1-3.433,1.678,1.659,1.659,0,0,1-.309.019Z" transform="translate(-37.467 -17.427)"/>
  </g>
  <g id="Grupo_1162014" data-name="Grupo 1162014" transform="translate(24.846 9.837)">
    <path id="Trazado_1018627" data-name="Trazado 1018627" d="M47.88,37.171h-.1a47.291,47.291,0,0,1-15.468-4.687C19.836,26.408,12.2,17.228,14.938,11.615c1.62-3.317,6.442-4.667,13.231-3.684a.923.923,0,0,1,.791,1.061.934.934,0,0,1-1.061.791c-5.844-.849-10.049.135-11.283,2.642-2.2,4.532,5.362,12.942,16.529,18.381a45.485,45.485,0,0,0,14.832,4.513.947.947,0,0,1,.849,1.022.957.957,0,0,1-.945.829Z" transform="translate(-14.382 -7.617)"/>
  </g>
  <g id="Grupo_1162015" data-name="Grupo 1162015" transform="translate(49.004 13.521)">
    <path id="Trazado_1018628" data-name="Trazado 1018628" d="M37.5,16.823a.9.9,0,0,1-.54-.174,52.872,52.872,0,0,0-7.31-4.32c-.733-.366-1.447-.694-2.179-1a.937.937,0,1,1,.752-1.717c.752.328,1.485.675,2.237,1.041a54.83,54.83,0,0,1,7.58,4.475.932.932,0,0,1,.212,1.312A.915.915,0,0,1,37.5,16.823Z" transform="translate(-26.907 -9.527)"/>
  </g>
  <g id="Grupo_1162016" data-name="Grupo 1162016" transform="translate(50.118 33.402)">
    <path id="Trazado_1018629" data-name="Trazado 1018629" d="M32.066,28.987a4.612,4.612,0,0,1-3.028-1.138,4.578,4.578,0,1,1,6.056-6.866,4.6,4.6,0,0,1,.424,6.48,4.524,4.524,0,0,1-3.144,1.543,1.765,1.765,0,0,0-.309-.019Zm0-7.31h-.174a2.621,2.621,0,0,0-1.871.926,2.73,2.73,0,0,0-.675,1.967,2.621,2.621,0,0,0,.926,1.871,2.725,2.725,0,0,0,4.513-2.218,2.621,2.621,0,0,0-.926-1.871A2.7,2.7,0,0,0,32.066,21.677Z" transform="translate(-27.485 -19.835)"/>
  </g>
  <g id="Grupo_1162017" data-name="Grupo 1162017" transform="translate(11.142 79.617)">
    <path id="Trazado_1018630" data-name="Trazado 1018630" d="M11.275,56.513a.962.962,0,0,1-.849-.521A33.465,33.465,0,0,1,7.283,44.825.932.932,0,0,1,8.112,43.8a.943.943,0,0,1,1.022.829,31.734,31.734,0,0,0,2.97,10.55.927.927,0,0,1-.444,1.254,1.141,1.141,0,0,1-.386.077Z" transform="translate(-7.277 -43.797)" fill="#fff"/>
  </g>
  <g id="Grupo_1162018" data-name="Grupo 1162018" transform="translate(18.525 97.068)">
    <path id="Trazado_1018631" data-name="Trazado 1018631" d="M35.686,65.275a32.99,32.99,0,0,1-18.439-5.613,29.657,29.657,0,0,1-5.921-5.285.93.93,0,0,1,1.408-1.215,28.191,28.191,0,0,0,5.555,4.957,30.994,30.994,0,0,0,17.378,5.3.926.926,0,0,1,.019,1.852Z" transform="translate(-11.105 -52.845)" fill="#fff"/>
  </g>
  <g id="Grupo_1162019" data-name="Grupo 1162019" transform="translate(66.581 40.2)">
    <path id="Trazado_1018632" data-name="Trazado 1018632" d="M40.494,23.36c-.6,2.874-2.276,5.4-3.472,8.563a14.715,14.715,0,0,0-.617,8.641c.791,3.259,2.488,5.188,4.938,6.056a7.84,7.84,0,0,0,6.4-.617C55.982,41.355,49.4,28.24,40.494,23.36Z" transform="translate(-36.021 -23.36)" fill="#b9dd53"/>
  </g>
  <g id="Grupo_1162020" data-name="Grupo 1162020" transform="translate(66.6 40.2)">
    <path id="Trazado_1018633" data-name="Trazado 1018633" d="M47.756,46.022a7.847,7.847,0,0,1-6.4.617c-2.449-.887-4.166-2.816-4.938-6.075a14.7,14.7,0,0,1,.617-8.641c.1-.212.174-.444.27-.656,1.177-2.874,2.642-5.227,3.2-7.908,7.368,4.05,13.154,13.732,10.241,19.6a7.232,7.232,0,0,1-2.99,3.067Z" transform="translate(-36.031 -23.36)" fill="#b9dd53"/>
  </g>
  <g id="Grupo_1162021" data-name="Grupo 1162021" transform="translate(66.6 48.108)">
    <path id="Trazado_1018634" data-name="Trazado 1018634" d="M47.756,42.215a7.847,7.847,0,0,1-6.4.617c-2.449-.887-4.166-2.816-4.938-6.075a14.7,14.7,0,0,1,.617-8.641c.1-.212.174-.444.27-.656,0,0,5.343,10.589,13.462,11.688a7.4,7.4,0,0,1-3.009,3.067Z" transform="translate(-36.031 -27.46)" fill="#a3c134"/>
  </g>
  <g id="Grupo_1162022" data-name="Grupo 1162022" transform="translate(65.648 39.269)">
    <path id="Trazado_1018635" data-name="Trazado 1018635" d="M44.3,48.438a8.314,8.314,0,0,1-2.816-.482c-2.855-1.022-4.706-3.279-5.535-6.731a15.125,15.125,0,0,1-.135-6.384.942.942,0,0,1,1.852.347A13.09,13.09,0,0,0,37.78,40.8c.675,2.835,2.1,4.61,4.34,5.4a6.965,6.965,0,0,0,5.632-.54,6.2,6.2,0,0,0,3.279-5.805c-.039-4.918-4.2-11.225-9.489-14.6a29.412,29.412,0,0,1-1.659,3.992.94.94,0,0,1-1.7-.81,22.218,22.218,0,0,0,1.852-4.822.9.9,0,0,1,.521-.656.942.942,0,0,1,.849.039c6.4,3.51,11.457,10.916,11.5,16.838a8.061,8.061,0,0,1-4.224,7.445A8.9,8.9,0,0,1,44.3,48.438Z" transform="translate(-35.537 -22.877)"/>
  </g>
  <g id="Grupo_1162023" data-name="Grupo 1162023" transform="translate(72.889 48.998)">
    <path id="Trazado_1018636" data-name="Trazado 1018636" d="M40.388,49.674a.874.874,0,0,1-.309-.058.964.964,0,0,1-.579-1.2A28.237,28.237,0,0,0,39.443,29.4l-.1-.231a.933.933,0,0,1,1.755-.636l.1.251a30.22,30.22,0,0,1,.058,20.271A.891.891,0,0,1,40.388,49.674Z" transform="translate(-39.291 -27.921)"/>
  </g>
  <g id="Grupo_1162024" data-name="Grupo 1162024" transform="translate(81.483 57.728)">
    <path id="Trazado_1018637" data-name="Trazado 1018637" d="M44.678,52.376a.952.952,0,0,1-.656-.27.943.943,0,0,1,0-1.331L62.075,32.722a.941.941,0,1,1,1.331,1.331L45.353,52.106A1.036,1.036,0,0,1,44.678,52.376Z" transform="translate(-43.747 -32.447)"/>
  </g>
  <g id="Grupo_1162025" data-name="Grupo 1162025" transform="translate(97.357 66.754)">
    <path id="Trazado_1018638" data-name="Trazado 1018638" d="M52.908,40.643a.952.952,0,0,1-.656-.27.943.943,0,0,1,0-1.331L53.892,37.4a.941.941,0,0,1,1.331,1.331l-1.639,1.639A1,1,0,0,1,52.908,40.643Z" transform="translate(-51.977 -37.128)"/>
  </g>
  <g id="Grupo_1162026" data-name="Grupo 1162026" transform="translate(85.727 73.659)">
    <path id="Trazado_1018639" data-name="Trazado 1018639" d="M46.878,48.948a.952.952,0,0,1-.656-.27.943.943,0,0,1,0-1.331l6.365-6.365a.941.941,0,0,1,1.331,1.331l-6.365,6.365A.946.946,0,0,1,46.878,48.948Z" transform="translate(-45.947 -40.708)"/>
  </g>
  <g id="Grupo_1162027" data-name="Grupo 1162027" transform="translate(70.282 100.877)">
    <path id="Trazado_1018640" data-name="Trazado 1018640" d="M85.386,70.616H37.94a8.659,8.659,0,0,1,8.66-8.66A8.571,8.571,0,0,1,53.717,65.7h.116a3.034,3.034,0,0,1,2.507-1.312,3.1,3.1,0,0,1,1.717.521,7.987,7.987,0,0,1-.174-1.678A8.413,8.413,0,0,1,74.47,61.243c.964-1.524,2.43-3.26,3.915-2.527.752.366.386,1.89-.231,3.395a3.1,3.1,0,0,1,3.105,3.105v.54a4.948,4.948,0,0,1,4.127,4.86Z" transform="translate(-37.94 -54.82)" fill="#b9dd53"/>
  </g>
  <g id="Grupo_1162028" data-name="Grupo 1162028" transform="translate(70.282 100.897)">
    <path id="Trazado_1018641" data-name="Trazado 1018641" d="M85.386,70.607H37.94a8.549,8.549,0,0,1,.617-3.221,8.654,8.654,0,0,1,15.16-1.7h.116a3.083,3.083,0,0,1,4.224-.771,7.854,7.854,0,0,1-.174-1.678A8.413,8.413,0,0,1,74.47,61.253c.964-1.524,2.43-3.26,3.915-2.527.752.366.386,1.89-.231,3.395a3.107,3.107,0,0,1,3.105,3.124v.521c.212.039.424.1.636.154a4.9,4.9,0,0,1,3.491,4.687Z" transform="translate(-37.94 -54.83)" fill="#b9dd53"/>
  </g>
  <g id="Grupo_1162029" data-name="Grupo 1162029" transform="translate(70.282 111.967)">
    <path id="Trazado_1018642" data-name="Trazado 1018642" d="M85.386,65.276H37.94a8.549,8.549,0,0,1,.617-3.221,1.418,1.418,0,0,0,.251-.135S65.849,63.174,81.9,60.57a4.937,4.937,0,0,1,3.491,4.706Z" transform="translate(-37.94 -60.57)" fill="#a3c134"/>
  </g>
  <g id="Grupo_1162030" data-name="Grupo 1162030" transform="translate(69.357 99.952)">
    <path id="Trazado_1018643" data-name="Trazado 1018643" d="M85.832,71.988H38.386a.926.926,0,0,1-.926-.926A9.586,9.586,0,0,1,54.3,64.794a4.161,4.161,0,0,1,3.105-.829v-.27A9.359,9.359,0,0,1,75.224,59.7c1.659-1.909,3.086-1.852,4.031-1.369,1.755.868.6,3.665.212,4.59a.929.929,0,0,1-1.717-.714,5.169,5.169,0,0,0,.579-2.257c-.945-.289-2.237,1.62-2.6,2.218a.931.931,0,0,1-1.7-.289,7.484,7.484,0,0,0-14.755,1.774,6.838,6.838,0,0,0,.154,1.466.988.988,0,0,1-.386.984.932.932,0,0,1-1.042,0,2.2,2.2,0,0,0-2.932.54.942.942,0,0,1-.771.405h-.116a.942.942,0,0,1-.771-.405,7.709,7.709,0,0,0-14,3.452h45.4a3.965,3.965,0,0,0-3.221-2.989.951.951,0,0,1-.791-.926v-.54a.929.929,0,0,1,1.832-.212,5.81,5.81,0,0,1,4.127,5.593.935.935,0,0,1-.926.964Z" transform="translate(-37.46 -54.34)" fill="#050505"/>
  </g>
  <g id="Grupo_1162031" data-name="Grupo 1162031" transform="translate(108.819 107.248)">
    <path id="Trazado_1018644" data-name="Trazado 1018644" d="M58.865,61.4a1,1,0,0,1-.559-.174.949.949,0,0,1-.212-1.312,2.979,2.979,0,0,0,.6-1.1.929.929,0,0,1,1.794.482A4.874,4.874,0,0,1,59.6,61.01.881.881,0,0,1,58.865,61.4Z" transform="translate(-57.921 -58.123)" fill="#050505"/>
  </g>
  <g id="Grupo_1162032" data-name="Grupo 1162032" transform="translate(82.067 0.796)">
    <path id="Trazado_1018645" data-name="Trazado 1018645" d="M74.2,14.29a5.31,5.31,0,0,1-5.3,5.015H44.05l.752-2.874A9.191,9.191,0,0,1,53.539,9.6a10.725,10.725,0,0,1,20.56,2.6,9.645,9.645,0,0,1,.1,2.083Z" transform="translate(-44.05 -2.93)" fill="#f1f3f6"/>
  </g>
  <g id="Grupo_1162033" data-name="Grupo 1162033" transform="translate(102.023 0)">
    <path id="Trazado_1018646" data-name="Trazado 1018646" d="M59.283,20.634a.926.926,0,0,1-.926-.926.939.939,0,0,1,.926-.926,4.379,4.379,0,0,0,4.378-4.127,8.918,8.918,0,0,0-.077-1.89,9.9,9.9,0,0,0-8.371-8.39.933.933,0,1,1,.231-1.852,11.763,11.763,0,0,1,9.971,9.991,10.814,10.814,0,0,1,.077,2.237,6.208,6.208,0,0,1-6.21,5.883Z" transform="translate(-54.397 -2.517)"/>
  </g>
  <g id="Grupo_1162034" data-name="Grupo 1162034" transform="translate(83.384 6.545)">
    <path id="Trazado_1018647" data-name="Trazado 1018647" d="M45.673,11.5a.9.9,0,0,1-.559-.193A.929.929,0,0,1,44.92,10,10.114,10.114,0,0,1,52.886,5.91a.943.943,0,0,1,.945.926.93.93,0,0,1-.926.945,8.269,8.269,0,0,0-6.5,3.337.856.856,0,0,1-.733.386Z" transform="translate(-44.733 -5.91)"/>
  </g>
  <g id="Grupo_1162035" data-name="Grupo 1162035" transform="translate(90.341 6.545)">
    <path id="Trazado_1018648" data-name="Trazado 1018648" d="M54.473,9.5a.9.9,0,0,1-.54-.174,8.146,8.146,0,0,0-4.667-1.543.935.935,0,0,1,0-1.871h.019A9.993,9.993,0,0,1,55.033,7.8a.932.932,0,0,1,.212,1.312.977.977,0,0,1-.771.386Z" transform="translate(-48.34 -5.91)"/>
  </g>
  <g id="Grupo_1162036" data-name="Grupo 1162036" transform="translate(0.926 29.639)">
    <path id="Trazado_1018649" data-name="Trazado 1018649" d="M29.5,28.253a4.844,4.844,0,0,1-4.841,4.571H1.98L2.674,30.2a8.386,8.386,0,0,1,7.966-6.23,9.8,9.8,0,0,1,18.786,2.392A8.919,8.919,0,0,1,29.5,28.253Z" transform="translate(-1.98 -17.884)" fill="#f1f3f6"/>
  </g>
  <g id="Grupo_1162037" data-name="Grupo 1162037" transform="translate(19.088 28.853)">
    <path id="Trazado_1018650" data-name="Trazado 1018650" d="M15.916,34.147a.926.926,0,1,1,0-1.852,3.913,3.913,0,0,0,3.915-3.684,9.993,9.993,0,0,0-.058-1.7,8.96,8.96,0,0,0-7.561-7.58.933.933,0,1,1,.231-1.852,10.842,10.842,0,0,1,9.161,9.2,10.507,10.507,0,0,1,.077,2.064A5.769,5.769,0,0,1,15.916,34.147Z" transform="translate(-11.397 -17.477)"/>
  </g>
  <g id="Grupo_1162038" data-name="Grupo 1162038" transform="translate(2.05 34.8)">
    <path id="Trazado_1018651" data-name="Trazado 1018651" d="M3.5,25.825a.9.9,0,0,1-.559-.193.929.929,0,0,1-.193-1.312A9.375,9.375,0,0,1,10.1,20.56a.935.935,0,1,1,.019,1.871A7.493,7.493,0,0,0,4.255,25.44a.941.941,0,0,1-.752.386Z" transform="translate(-2.563 -20.56)"/>
  </g>
  <g id="Grupo_1162039" data-name="Grupo 1162039" transform="translate(8.39 34.8)">
    <path id="Trazado_1018652" data-name="Trazado 1018652" d="M11.54,23.993A.9.9,0,0,1,11,23.82a7.375,7.375,0,0,0-4.224-1.389.93.93,0,0,1-.926-.945A.955.955,0,0,1,6.8,20.56,9.257,9.257,0,0,1,12.08,22.3a.932.932,0,0,1,.212,1.312.915.915,0,0,1-.752.386Z" transform="translate(-5.85 -20.56)"/>
  </g>
</svg>
