<svg id="idea" xmlns="http://www.w3.org/2000/svg" width="94.97" height="119.387" viewBox="0 0 94.97 119.387">
  <g id="Grupo_1162040" data-name="Grupo 1162040" transform="translate(45.672 0)">
    <path id="Trazado_1018653" data-name="Trazado 1018653" d="M33.873,7.836A1.811,1.811,0,0,1,32.06,6.023V3.863a1.813,1.813,0,0,1,3.626,0V6.042A1.807,1.807,0,0,1,33.873,7.836Z" transform="translate(-32.06 -2.05)" fill="#373d3d"/>
  </g>
  <g id="Grupo_1162041" data-name="Grupo 1162041" transform="translate(13.39 13.371)">
    <path id="Trazado_1018654" data-name="Trazado 1018654" d="M18.674,14.147a1.8,1.8,0,0,1-1.273-.521l-1.543-1.543a1.814,1.814,0,0,1,2.565-2.565l1.543,1.543a1.8,1.8,0,0,1,0,2.565A1.873,1.873,0,0,1,18.674,14.147Z" transform="translate(-15.322 -8.983)" fill="#373d3d"/>
  </g>
  <g id="Grupo_1162042" data-name="Grupo 1162042" transform="translate(0 45.652)">
    <path id="Trazado_1018655" data-name="Trazado 1018655" d="M12.372,29.346H10.193a1.813,1.813,0,1,1,0-3.626h2.179a1.813,1.813,0,1,1,0,3.626Z" transform="translate(-8.38 -25.72)" fill="#373d3d"/>
  </g>
  <g id="Grupo_1162043" data-name="Grupo 1162043" transform="translate(13.39 76.401)">
    <path id="Trazado_1018656" data-name="Trazado 1018656" d="M17.131,46.827a1.8,1.8,0,0,1-1.273-3.086L17.4,42.2a1.814,1.814,0,1,1,2.565,2.565l-1.543,1.543A1.873,1.873,0,0,1,17.131,46.827Z" transform="translate(-15.322 -41.662)" fill="#373d3d"/>
  </g>
  <g id="Grupo_1162044" data-name="Grupo 1162044" transform="translate(76.421 76.401)">
    <path id="Trazado_1018657" data-name="Trazado 1018657" d="M51.354,46.827a1.8,1.8,0,0,1-1.273-.521l-1.543-1.543A1.814,1.814,0,0,1,51.1,42.2l1.543,1.543a1.8,1.8,0,0,1,0,2.565,1.873,1.873,0,0,1-1.292.521Z" transform="translate(-48.002 -41.662)" fill="#373d3d"/>
  </g>
  <g id="Grupo_1162045" data-name="Grupo 1162045" transform="translate(89.165 45.652)">
    <path id="Trazado_1018658" data-name="Trazado 1018658" d="M58.6,29.346H56.423a1.813,1.813,0,1,1,0-3.626H58.6a1.811,1.811,0,0,1,1.813,1.813A1.836,1.836,0,0,1,58.6,29.346Z" transform="translate(-54.61 -25.72)" fill="#373d3d"/>
  </g>
  <g id="Grupo_1162046" data-name="Grupo 1162046" transform="translate(76.44 13.39)">
    <path id="Trazado_1018659" data-name="Trazado 1018659" d="M49.821,14.137a1.8,1.8,0,0,1-1.273-3.086l1.524-1.524a1.814,1.814,0,0,1,2.565,2.565l-1.524,1.524a1.873,1.873,0,0,1-1.292.521Z" transform="translate(-48.012 -8.992)" fill="#373d3d"/>
  </g>
  <g id="Grupo_1162047" data-name="Grupo 1162047" transform="translate(10.145 10.158)">
    <path id="Trazado_1018660" data-name="Trazado 1018660" d="M39.027,90.065a23.236,23.236,0,0,0-9.779-17.551,35.515,35.515,0,1,1,41.66.058,23.1,23.1,0,0,0-9.7,17.493Z" transform="translate(-12.758 -6.45)" fill="#faa434"/>
    <path id="Trazado_1018661" data-name="Trazado 1018661" d="M62.051,92.745H39.909A1.818,1.818,0,0,1,38.1,91.029,21.373,21.373,0,0,0,29.05,74.847a37.459,37.459,0,0,1-15.41-30.2A37.341,37.341,0,0,1,53.121,7.381,37.324,37.324,0,0,1,72.813,74.9a21.145,21.145,0,0,0-8.949,16.124A1.819,1.819,0,0,1,62.051,92.745Zm-20.5-3.626H60.392a24.861,24.861,0,0,1,10.3-17.146A33.7,33.7,0,1,0,27.816,20.149a33.406,33.406,0,0,0-10.55,24.475A33.885,33.885,0,0,0,31.172,71.915a25.1,25.1,0,0,1,10.377,17.2Z" transform="translate(-13.64 -7.317)" fill="#373d3d"/>
  </g>
  <g id="Grupo_1162048" data-name="Grupo 1162048" transform="translate(29.066 91.941)">
    <path id="Trazado_1018662" data-name="Trazado 1018662" d="M54.054,57.729H27.92a3.53,3.53,0,1,1,0-7.059H54.054a3.53,3.53,0,1,1,0,7.059Z" transform="translate(-22.577 -48.838)" fill="#626974"/>
    <path id="Trazado_1018663" data-name="Trazado 1018663" d="M54.927,60.405H28.793a5.343,5.343,0,1,1,0-10.685H54.927a5.343,5.343,0,1,1,0,10.685Zm-26.134-7.04a1.717,1.717,0,1,0,0,3.433H54.927a1.717,1.717,0,1,0,0-3.433Z" transform="translate(-23.45 -49.72)" fill="#373d3d"/>
  </g>
  <g id="Grupo_1162049" data-name="Grupo 1162049" transform="translate(29.066 99)">
    <path id="Trazado_1018664" data-name="Trazado 1018664" d="M54.054,61.379H27.92a3.53,3.53,0,1,1,0-7.059H54.054a3.53,3.53,0,1,1,0,7.059Z" transform="translate(-22.577 -52.507)" fill="#626974"/>
    <path id="Trazado_1018665" data-name="Trazado 1018665" d="M54.927,64.065H28.793a5.343,5.343,0,1,1,0-10.685H54.927a5.343,5.343,0,1,1,0,10.685ZM28.793,57.006a1.717,1.717,0,1,0,0,3.433H54.927a1.717,1.717,0,1,0,0-3.433Z" transform="translate(-23.45 -53.38)" fill="#373d3d"/>
  </g>
  <g id="Grupo_1162050" data-name="Grupo 1162050" transform="translate(36.993 106.059)">
    <path id="Trazado_1018666" data-name="Trazado 1018666" d="M37.179,67.681A8.68,8.68,0,0,1,28.5,59V57.98H45.858V59A8.692,8.692,0,0,1,37.179,67.681Z" transform="translate(-26.687 -56.167)" fill="#dbeaf2"/>
    <path id="Trazado_1018667" data-name="Trazado 1018667" d="M38.052,70.367A10.5,10.5,0,0,1,27.56,59.875V58.853a1.811,1.811,0,0,1,1.813-1.813H46.731a1.811,1.811,0,0,1,1.813,1.813v1.022A10.528,10.528,0,0,1,38.052,70.367Zm-6.828-9.7a6.874,6.874,0,0,0,13.655,0Z" transform="translate(-27.56 -57.04)" fill="#373d3d"/>
  </g>
  <g id="Grupo_1162051" data-name="Grupo 1162051" transform="translate(45.672 64.168)">
    <path id="Trazado_1018668" data-name="Trazado 1018668" d="M33.873,66.739a1.811,1.811,0,0,1-1.813-1.813V37.133a1.813,1.813,0,0,1,3.626,0V64.926A1.836,1.836,0,0,1,33.873,66.739Z" transform="translate(-32.06 -35.32)" fill="#373d3d"/>
  </g>
  <g id="Grupo_1162054" data-name="Grupo 1162054" transform="translate(36.395 28.873)">
    <g id="Grupo_1162053" data-name="Grupo 1162053">
      <g id="Grupo_1162052" data-name="Grupo 1162052">
        <path id="Trazado_1018669" data-name="Trazado 1018669" d="M39.42,51.635,37.472,53.41,35.5,51.635c-9.759-8.814-9.759-23.087,0-31.9l1.967-1.774,1.967,1.774c9.74,8.814,9.74,23.087-.019,31.9Z" transform="translate(-26.382 -16.147)" fill="#a8cf39"/>
        <path id="Trazado_1018670" data-name="Trazado 1018670" d="M38.34,56.1a1.807,1.807,0,0,1-1.215-.463l-1.967-1.774a22.879,22.879,0,0,1,0-34.6l1.967-1.774a1.826,1.826,0,0,1,2.43,0l1.967,1.774a22.879,22.879,0,0,1,0,34.6l-1.967,1.774a1.843,1.843,0,0,1-1.215.463Zm0-34.832-.752.675a19.257,19.257,0,0,0,0,29.22l.752.694.752-.675a19.257,19.257,0,0,0,0-29.22Z" transform="translate(-27.25 -17.02)" fill="#373d3d"/>
      </g>
    </g>
  </g>
  <g id="Grupo_1162055" data-name="Grupo 1162055" transform="translate(45.484 38.929)">
    <path id="Trazado_1018671" data-name="Trazado 1018671" d="M35.7,48.538,33.08,48.4l-.135-2.642c-.675-13.115,9.431-23.222,22.566-22.566l2.642.135.135,2.642C58.944,39.106,48.838,49.213,35.7,48.538Z" transform="translate(-31.08 -21.37)" fill="#a8cf39"/>
    <path id="Trazado_1018672" data-name="Trazado 1018672" d="M37.821,51.253c-.444,0-.887-.019-1.331-.039l-2.642-.135a1.8,1.8,0,0,1-1.717-1.717L32,46.721A22.858,22.858,0,0,1,56.452,22.265l2.642.135a1.815,1.815,0,0,1,1.717,1.717l.154,2.642A22.828,22.828,0,0,1,37.821,51.253Zm-2.141-3.7,1,.058A19.255,19.255,0,0,0,57.359,26.951l-.058-1-1.022-.058A19.255,19.255,0,0,0,35.622,46.566Z" transform="translate(-31.963 -22.234)" fill="#373d3d"/>
  </g>
  <g id="Grupo_1162056" data-name="Grupo 1162056" transform="translate(45.677 47.605)">
    <path id="Trazado_1018673" data-name="Trazado 1018673" d="M33,44.218,49.529,27.67" transform="translate(-31.192 -25.862)" fill="#a8cf39"/>
    <path id="Trazado_1018674" data-name="Trazado 1018674" d="M33.871,46.9A1.8,1.8,0,0,1,32.6,43.816L49.146,27.268a1.814,1.814,0,1,1,2.565,2.565L35.163,46.381A1.873,1.873,0,0,1,33.871,46.9Z" transform="translate(-32.062 -26.732)" fill="#373d3d"/>
  </g>
  <g id="Grupo_1162057" data-name="Grupo 1162057" transform="translate(57.919 51.901)">
    <path id="Trazado_1018675" data-name="Trazado 1018675" d="M45.662,32.586H40.223a1.813,1.813,0,1,1,0-3.626h5.439a1.813,1.813,0,1,1,0,3.626Z" transform="translate(-38.41 -28.96)" fill="#373d3d"/>
  </g>
  <g id="Grupo_1162058" data-name="Grupo 1162058" transform="translate(52.847 52.326)">
    <path id="Trazado_1018676" data-name="Trazado 1018676" d="M37.593,37.435a1.811,1.811,0,0,1-1.813-1.813V30.993a1.813,1.813,0,0,1,3.626,0v4.629A1.811,1.811,0,0,1,37.593,37.435Z" transform="translate(-35.78 -29.18)" fill="#373d3d"/>
  </g>
  <g id="Grupo_1162063" data-name="Grupo 1162063" transform="translate(20.449 38.929)">
    <g id="Grupo_1162059" data-name="Grupo 1162059">
      <path id="Trazado_1018677" data-name="Trazado 1018677" d="M42.511,48.538l2.642-.135.135-2.642c.675-13.115-9.431-23.222-22.566-22.566l-2.642.154-.135,2.642C19.289,39.106,29.376,49.213,42.511,48.538Z" transform="translate(-18.117 -21.37)" fill="#a8cf39"/>
      <path id="Trazado_1018678" data-name="Trazado 1018678" d="M42.141,51.253A22.828,22.828,0,0,1,19.016,26.759l.135-2.642A1.8,1.8,0,0,1,20.868,22.4l2.642-.135A22.858,22.858,0,0,1,47.966,46.721l-.135,2.642a1.815,1.815,0,0,1-1.717,1.717l-2.642.135c-.444.019-.887.039-1.331.039ZM22.661,25.929l-.058,1A19.227,19.227,0,0,0,43.26,47.588l1-.058.058-1A19.255,19.255,0,0,0,23.664,25.852Z" transform="translate(-18.983 -22.234)" fill="#373d3d"/>
    </g>
    <g id="Grupo_1162060" data-name="Grupo 1162060" transform="translate(8.679 8.676)">
      <path id="Trazado_1018679" data-name="Trazado 1018679" d="M40.968,44.218,24.42,27.67" transform="translate(-22.612 -25.862)" fill="#a8cf39"/>
      <path id="Trazado_1018680" data-name="Trazado 1018680" d="M41.839,46.9a1.8,1.8,0,0,1-1.273-.521L24.018,29.833a1.814,1.814,0,1,1,2.565-2.565L43.131,43.816a1.8,1.8,0,0,1,0,2.565A1.873,1.873,0,0,1,41.839,46.9Z" transform="translate(-23.482 -26.732)" fill="#373d3d"/>
    </g>
    <g id="Grupo_1162061" data-name="Grupo 1162061" transform="translate(7.517 12.972)">
      <path id="Trazado_1018681" data-name="Trazado 1018681" d="M29.259,29.9H23.82" transform="translate(-22.007 -28.087)" fill="#a8cf39"/>
      <path id="Trazado_1018682" data-name="Trazado 1018682" d="M30.132,32.586H24.693a1.813,1.813,0,1,1,0-3.626h5.439a1.813,1.813,0,1,1,0,3.626Z" transform="translate(-22.88 -28.96)" fill="#373d3d"/>
    </g>
    <g id="Grupo_1162062" data-name="Grupo 1162062" transform="translate(18.029 13.396)">
      <path id="Trazado_1018683" data-name="Trazado 1018683" d="M29.27,30.12v4.648" transform="translate(-27.457 -28.307)" fill="#a8cf39"/>
      <path id="Trazado_1018684" data-name="Trazado 1018684" d="M30.143,37.435a1.811,1.811,0,0,1-1.813-1.813V30.993a1.813,1.813,0,0,1,3.626,0v4.629A1.811,1.811,0,0,1,30.143,37.435Z" transform="translate(-28.33 -29.18)" fill="#373d3d"/>
    </g>
  </g>
</svg>
