<svg id="dia-de-la-tierra" xmlns="http://www.w3.org/2000/svg" width="121.509" height="121.508" viewBox="0 0 121.509 121.508">
  <g id="Grupo_1161945" data-name="Grupo 1161945" transform="translate(0 0)">
    <g id="Grupo_1161882" data-name="Grupo 1161882" transform="translate(13.366 53.309)">
      <g id="Grupo_1161877" data-name="Grupo 1161877" transform="translate(0.926 0.926)">
        <path id="Trazado_1018505" data-name="Trazado 1018505" d="M8.91,45.686H57.244a8.808,8.808,0,0,0-16.066-5h-.116a3.167,3.167,0,0,0-4.32-.81,8.171,8.171,0,0,0,.174-1.7,8.57,8.57,0,0,0-16.9-2.025c-.984-1.562-2.469-3.317-3.992-2.565-.771.386-.386,1.929.251,3.472a3.165,3.165,0,0,0-3.163,3.163v.54a5,5,0,0,0-4.2,4.918Z" transform="translate(-8.91 -29.62)" fill="#b9dd53"/>
      </g>
      <g id="Grupo_1161878" data-name="Grupo 1161878" transform="translate(0.926 0.926)">
        <path id="Trazado_1018506" data-name="Trazado 1018506" d="M8.91,45.686H57.244a8.767,8.767,0,0,0-8.814-8.814,8.76,8.76,0,0,0-7.252,3.819h-.116A3.158,3.158,0,0,0,38.5,39.36a3.1,3.1,0,0,0-1.755.54,8.222,8.222,0,0,0,.174-1.717,8.57,8.57,0,0,0-16.9-2.025c-.964-1.562-2.488-3.317-3.992-2.565-.771.386-.386,1.929.251,3.452a3.169,3.169,0,0,0-3.163,3.182v.54c-.212.039-.424.1-.656.154A4.976,4.976,0,0,0,8.91,45.686Z" transform="translate(-8.91 -29.62)" fill="#b9dd53"/>
      </g>
      <g id="Grupo_1161879" data-name="Grupo 1161879" transform="translate(0.926 12.209)">
        <path id="Trazado_1018507" data-name="Trazado 1018507" d="M8.91,40.253H57.244a8.849,8.849,0,0,0-.617-3.279,2.741,2.741,0,0,1-.27-.135s-27.542,1.273-43.9-1.369A5.018,5.018,0,0,0,8.91,40.253Z" transform="translate(-8.91 -35.47)" fill="#a3c134"/>
      </g>
      <g id="Grupo_1161880" data-name="Grupo 1161880">
        <path id="Trazado_1018508" data-name="Trazado 1018508" d="M57.689,47.077H9.356a.926.926,0,0,1-.926-.926,5.891,5.891,0,0,1,4.2-5.67.926.926,0,0,1,1.832.193v.54a.933.933,0,0,1-.791.926,4.044,4.044,0,0,0-3.3,3.067H56.667a7.886,7.886,0,0,0-7.831-6.943,7.805,7.805,0,0,0-6.48,3.414.942.942,0,0,1-.771.405h-.116a.942.942,0,0,1-.771-.405,2.247,2.247,0,0,0-3.009-.559.932.932,0,0,1-1.042,0,.96.96,0,0,1-.386-.984,7.214,7.214,0,0,0,.154-1.5,7.641,7.641,0,0,0-15.063-1.813.98.98,0,0,1-.752.714.958.958,0,0,1-.945-.424c-.386-.617-1.7-2.584-2.7-2.276a5.361,5.361,0,0,0,.6,2.314.929.929,0,0,1-1.717.714c-.386-.945-1.562-3.8.212-4.667.964-.482,2.411-.54,4.108,1.427a9.514,9.514,0,0,1,18.13,4.031v.289a4.16,4.16,0,0,1,3.2.849,9.738,9.738,0,0,1,17.127,6.345.93.93,0,0,1-.926.945Z" transform="translate(-8.43 -29.14)" fill="#050505"/>
      </g>
      <g id="Grupo_1161881" data-name="Grupo 1161881" transform="translate(7.354 7.431)">
        <path id="Trazado_1018509" data-name="Trazado 1018509" d="M13.935,36.285a.915.915,0,0,1-.752-.386,4.713,4.713,0,0,1-.906-1.736.929.929,0,0,1,1.794-.482,2.86,2.86,0,0,0,.617,1.119.932.932,0,0,1-.212,1.312A.9.9,0,0,1,13.935,36.285Z" transform="translate(-12.243 -32.993)" fill="#050505"/>
      </g>
    </g>
    <g id="Grupo_1161911" data-name="Grupo 1161911" transform="translate(0 69.375)">
      <g id="Grupo_1161895" data-name="Grupo 1161895" transform="translate(0 25.131)">
        <g id="Grupo_1161883" data-name="Grupo 1161883" transform="translate(58.517 0.964)">
          <path id="Trazado_1018510" data-name="Trazado 1018510" d="M92.035,76.112H39.806a7.968,7.968,0,0,1-7.966-7.966V58.966A7.968,7.968,0,0,1,39.806,51h52.23a1.86,1.86,0,0,1,1.871,1.871v3.742a1.86,1.86,0,0,1-1.871,1.871H41.175A1.86,1.86,0,0,0,39.3,60.354V66.8a1.86,1.86,0,0,0,1.871,1.871H92.016a1.86,1.86,0,0,1,1.871,1.871v3.742a1.848,1.848,0,0,1-1.852,1.832Z" transform="translate(-31.84 -51)" fill="#d86666"/>
        </g>
        <g id="Grupo_1161884" data-name="Grupo 1161884" transform="translate(0.945 0.964)">
          <path id="Trazado_1018511" data-name="Trazado 1018511" d="M67.528,76.112H9.956A7.98,7.98,0,0,1,1.99,68.146V58.966A7.98,7.98,0,0,1,9.956,51H67.528a7.98,7.98,0,0,0-7.966,7.966v9.181A7.98,7.98,0,0,0,67.528,76.112Z" transform="translate(-1.99 -51)" fill="#ff9a9a"/>
        </g>
        <g id="Grupo_1161885" data-name="Grupo 1161885" transform="translate(65.981 8.409)">
          <path id="Trazado_1018512" data-name="Trazado 1018512" d="M88.441,54.86H37.581a1.86,1.86,0,0,0-1.871,1.871v6.442a1.86,1.86,0,0,0,1.871,1.871H88.422V54.86Z" transform="translate(-35.71 -54.86)" fill="#d5dce5"/>
        </g>
        <g id="Grupo_1161886" data-name="Grupo 1161886" transform="translate(31.65 0.926)">
          <path id="Trazado_1018513" data-name="Trazado 1018513" d="M36.561,50.98A7.98,7.98,0,0,0,28.6,58.946v9.181a7.98,7.98,0,0,0,7.966,7.966H25.876a7.98,7.98,0,0,1-7.966-7.966V58.946a7.98,7.98,0,0,1,7.966-7.966Z" transform="translate(-17.91 -50.98)" fill="#ffca6b"/>
        </g>
        <g id="Grupo_1161887" data-name="Grupo 1161887" transform="translate(57.572)">
          <path id="Trazado_1018514" data-name="Trazado 1018514" d="M92.49,77.5H40.261a8.914,8.914,0,0,1-8.911-8.911V59.411A8.914,8.914,0,0,1,40.261,50.5H92.49a2.8,2.8,0,0,1,2.8,2.8v3.742a2.8,2.8,0,0,1-2.8,2.8H41.63a.926.926,0,0,0-.926.926V67.2a.926.926,0,0,0,.926.926H92.471a2.8,2.8,0,0,1,2.8,2.8v3.742A2.779,2.779,0,0,1,92.49,77.5ZM40.261,52.371a7.054,7.054,0,0,0-7.04,7.04v9.181a7.054,7.054,0,0,0,7.04,7.04H92.49a.926.926,0,0,0,.926-.926V70.964a.926.926,0,0,0-.926-.926H41.63a2.8,2.8,0,0,1-2.8-2.8V60.8a2.8,2.8,0,0,1,2.8-2.8H92.471a.926.926,0,0,0,.926-.926V53.335a.926.926,0,0,0-.926-.926H40.261Z" transform="translate(-31.35 -50.5)"/>
        </g>
        <g id="Grupo_1161888" data-name="Grupo 1161888">
          <path id="Trazado_1018515" data-name="Trazado 1018515" d="M67.983,77.5H10.411A8.914,8.914,0,0,1,1.5,68.591V59.411A8.914,8.914,0,0,1,10.411,50.5H67.983a.926.926,0,1,1,0,1.852,7.054,7.054,0,0,0-7.04,7.04v9.181a7.054,7.054,0,0,0,7.04,7.04.945.945,0,0,1,0,1.89ZM10.411,52.371a7.054,7.054,0,0,0-7.04,7.04v9.181a7.054,7.054,0,0,0,7.04,7.04H62.525a8.911,8.911,0,0,1-3.452-7.04V59.411a8.911,8.911,0,0,1,3.452-7.04Z" transform="translate(-1.5 -50.5)"/>
        </g>
        <g id="Grupo_1161889" data-name="Grupo 1161889" transform="translate(65.056 7.483)">
          <path id="Trazado_1018516" data-name="Trazado 1018516" d="M88.887,66.415H38.027a2.8,2.8,0,0,1-2.8-2.8V57.177a2.8,2.8,0,0,1,2.8-2.8H88.868a.926.926,0,0,1,.926.926V65.489a.9.9,0,0,1-.907.926ZM38.027,56.251a.926.926,0,0,0-.926.926v6.442a.926.926,0,0,0,.926.926H87.942V56.232H38.027Z" transform="translate(-35.23 -54.38)"/>
        </g>
        <g id="Grupo_1161890" data-name="Grupo 1161890" transform="translate(30.705)">
          <path id="Trazado_1018517" data-name="Trazado 1018517" d="M37.016,77.5H26.331a8.914,8.914,0,0,1-8.911-8.911V59.411A8.914,8.914,0,0,1,26.331,50.5H37.016a.926.926,0,1,1,0,1.852,7.054,7.054,0,0,0-7.04,7.04v9.181a7.054,7.054,0,0,0,7.04,7.04.926.926,0,0,1,.926.926.947.947,0,0,1-.926.964ZM26.331,52.371a7.054,7.054,0,0,0-7.04,7.04v9.181a7.054,7.054,0,0,0,7.04,7.04h5.227a8.911,8.911,0,0,1-3.452-7.04V59.411a8.911,8.911,0,0,1,3.452-7.04Z" transform="translate(-17.42 -50.5)"/>
        </g>
        <g id="Grupo_1161894" data-name="Grupo 1161894" transform="translate(8.12 10.029)">
          <g id="Grupo_1161891" data-name="Grupo 1161891">
            <path id="Trazado_1018518" data-name="Trazado 1018518" d="M21.043,57.552H6.636a.926.926,0,0,1-.926-.926.939.939,0,0,1,.926-.926H21.043a.926.926,0,1,1,0,1.852Z" transform="translate(-5.71 -55.7)"/>
          </g>
          <g id="Grupo_1161892" data-name="Grupo 1161892" transform="translate(12.209 5.092)">
            <path id="Trazado_1018519" data-name="Trazado 1018519" d="M15.165,60.192h-2.2a.926.926,0,1,1,0-1.852h2.2a.926.926,0,0,1,.926.926A.914.914,0,0,1,15.165,60.192Z" transform="translate(-12.04 -58.34)"/>
          </g>
          <g id="Grupo_1161893" data-name="Grupo 1161893" transform="translate(0 5.092)">
            <path id="Trazado_1018520" data-name="Trazado 1018520" d="M13.83,60.192H6.636a.926.926,0,1,1,0-1.852H13.83a.926.926,0,0,1,.926.926A.9.9,0,0,1,13.83,60.192Z" transform="translate(-5.71 -58.34)"/>
          </g>
        </g>
      </g>
      <g id="Grupo_1161902" data-name="Grupo 1161902" transform="translate(5.13)">
        <g id="Grupo_1161896" data-name="Grupo 1161896" transform="translate(54.795 0.945)">
          <path id="Trazado_1018521" data-name="Trazado 1018521" d="M86.208,63.072H40.536a7.968,7.968,0,0,1-7.966-7.966V45.926a7.968,7.968,0,0,1,7.966-7.966H86.208a1.86,1.86,0,0,1,1.871,1.871v3.742a1.86,1.86,0,0,1-1.871,1.871H41.9a1.86,1.86,0,0,0-1.871,1.871v6.442A1.86,1.86,0,0,0,41.9,55.627h44.3A1.86,1.86,0,0,1,88.078,57.5v3.742a1.852,1.852,0,0,1-1.871,1.832Z" transform="translate(-32.57 -37.96)" fill="#564dc6"/>
        </g>
        <g id="Grupo_1161897" data-name="Grupo 1161897" transform="translate(0.945 0.945)">
          <path id="Trazado_1018522" data-name="Trazado 1018522" d="M66.465,63.072H12.616A7.98,7.98,0,0,1,4.65,55.106V45.926a7.98,7.98,0,0,1,7.966-7.966h53.85A7.98,7.98,0,0,0,58.5,45.926v9.181A7.956,7.956,0,0,0,66.465,63.072Z" transform="translate(-4.65 -37.96)" fill="#726ad3"/>
        </g>
        <g id="Grupo_1161898" data-name="Grupo 1161898" transform="translate(62.259 8.409)">
          <path id="Trazado_1018523" data-name="Trazado 1018523" d="M82.613,41.83h-44.3A1.86,1.86,0,0,0,36.44,43.7v6.442a1.86,1.86,0,0,0,1.871,1.871h44.3Z" transform="translate(-36.44 -41.83)" fill="#d5dce5"/>
        </g>
        <g id="Grupo_1161899" data-name="Grupo 1161899" transform="translate(53.85)">
          <path id="Trazado_1018524" data-name="Trazado 1018524" d="M86.663,64.472H40.991a8.914,8.914,0,0,1-8.911-8.911V46.381a8.914,8.914,0,0,1,8.911-8.911H86.663a2.8,2.8,0,0,1,2.8,2.8v3.742a2.8,2.8,0,0,1-2.8,2.8H42.36a.926.926,0,0,0-.926.926v6.442a.926.926,0,0,0,.926.926h44.3a2.8,2.8,0,0,1,2.8,2.8v3.742a2.807,2.807,0,0,1-2.8,2.835ZM40.991,39.341a7.054,7.054,0,0,0-7.04,7.04v9.181a7.054,7.054,0,0,0,7.04,7.04H86.663a.926.926,0,0,0,.926-.926V57.934a.926.926,0,0,0-.926-.926H42.36a2.8,2.8,0,0,1-2.8-2.8V47.75a2.8,2.8,0,0,1,2.8-2.8h44.3a.926.926,0,0,0,.926-.926V40.286a.926.926,0,0,0-.926-.926H40.991Z" transform="translate(-32.08 -37.47)"/>
        </g>
        <g id="Grupo_1161900" data-name="Grupo 1161900">
          <path id="Trazado_1018525" data-name="Trazado 1018525" d="M66.92,64.472H13.071A8.914,8.914,0,0,1,4.16,55.561V46.381a8.914,8.914,0,0,1,8.911-8.911H66.92a.926.926,0,0,1,.926.926.939.939,0,0,1-.926.926,7.054,7.054,0,0,0-7.04,7.04v9.181a7.054,7.054,0,0,0,7.04,7.04.945.945,0,0,1,0,1.89ZM13.071,39.341a7.054,7.054,0,0,0-7.04,7.04v9.181a7.054,7.054,0,0,0,7.04,7.04H61.462a8.911,8.911,0,0,1-3.452-7.04V46.381a8.911,8.911,0,0,1,3.452-7.04Z" transform="translate(-4.16 -37.47)"/>
        </g>
        <g id="Grupo_1161901" data-name="Grupo 1161901" transform="translate(61.333 7.483)">
          <path id="Trazado_1018526" data-name="Trazado 1018526" d="M83.059,53.385h-44.3a2.8,2.8,0,0,1-2.8-2.8V44.147a2.8,2.8,0,0,1,2.8-2.8h44.3a.926.926,0,0,1,.926.926V52.459a.914.914,0,0,1-.926.926ZM38.757,43.2a.926.926,0,0,0-.926.926v6.442a.926.926,0,0,0,.926.926H82.133V43.182H38.757Z" transform="translate(-35.96 -41.35)"/>
        </g>
      </g>
      <g id="Grupo_1161905" data-name="Grupo 1161905" transform="translate(36.491)">
        <g id="Grupo_1161903" data-name="Grupo 1161903" transform="translate(0.945 0.926)">
          <path id="Trazado_1018527" data-name="Trazado 1018527" d="M39.561,37.95A7.98,7.98,0,0,0,31.6,45.916V55.1a7.98,7.98,0,0,0,7.966,7.966H28.876A7.98,7.98,0,0,1,20.91,55.1V45.916a7.98,7.98,0,0,1,7.966-7.966Z" transform="translate(-20.91 -37.95)" fill="#d5dce5"/>
        </g>
        <g id="Grupo_1161904" data-name="Grupo 1161904">
          <path id="Trazado_1018528" data-name="Trazado 1018528" d="M40.016,64.472H29.331a8.914,8.914,0,0,1-8.911-8.911V46.381a8.914,8.914,0,0,1,8.911-8.911H40.016a.926.926,0,0,1,.926.926.939.939,0,0,1-.926.926,7.054,7.054,0,0,0-7.04,7.04v9.181a7.054,7.054,0,0,0,7.04,7.04.945.945,0,0,1,0,1.89ZM29.331,39.341a7.054,7.054,0,0,0-7.04,7.04v9.181a7.054,7.054,0,0,0,7.04,7.04h5.227a8.911,8.911,0,0,1-3.452-7.04V46.381a8.911,8.911,0,0,1,3.452-7.04Z" transform="translate(-20.42 -37.47)"/>
        </g>
      </g>
      <g id="Grupo_1161908" data-name="Grupo 1161908" transform="translate(16.548)">
        <g id="Grupo_1161906" data-name="Grupo 1161906" transform="translate(0.945 0.926)">
          <path id="Trazado_1018529" data-name="Trazado 1018529" d="M29.2,37.95a7.98,7.98,0,0,0-7.966,7.966V55.1A7.98,7.98,0,0,0,29.2,63.062H18.536A7.98,7.98,0,0,1,10.57,55.1V45.916a7.98,7.98,0,0,1,7.966-7.966Z" transform="translate(-10.57 -37.95)" fill="#d5dce5"/>
        </g>
        <g id="Grupo_1161907" data-name="Grupo 1161907">
          <path id="Trazado_1018530" data-name="Trazado 1018530" d="M29.656,64.472H18.991a8.914,8.914,0,0,1-8.911-8.911V46.381a8.914,8.914,0,0,1,8.911-8.911H29.676a.926.926,0,0,1,.926.926.939.939,0,0,1-.926.926,7.054,7.054,0,0,0-7.04,7.04v9.181a7.054,7.054,0,0,0,7.04,7.04.926.926,0,0,1,.926.926.951.951,0,0,1-.945.964ZM18.991,39.341a7.054,7.054,0,0,0-7.04,7.04v9.181a7.054,7.054,0,0,0,7.04,7.04h5.227a8.911,8.911,0,0,1-3.452-7.04V46.381a8.911,8.911,0,0,1,3.452-7.04Z" transform="translate(-10.08 -37.47)"/>
        </g>
      </g>
      <g id="Grupo_1161909" data-name="Grupo 1161909" transform="translate(71.44 37.706)">
        <path id="Trazado_1018531" data-name="Trazado 1018531" d="M52.407,58.872H39.466a.926.926,0,0,1-.926-.926.939.939,0,0,1,.926-.926H52.407a.926.926,0,1,1,0,1.852Z" transform="translate(-38.54 -57.02)"/>
      </g>
      <g id="Grupo_1161910" data-name="Grupo 1161910" transform="translate(89.454 37.706)">
        <path id="Trazado_1018532" data-name="Trazado 1018532" d="M77.139,58.872H48.806a.926.926,0,0,1-.926-.926.939.939,0,0,1,.926-.926H77.119a.926.926,0,0,1,.019,1.852Z" transform="translate(-47.88 -57.02)"/>
      </g>
    </g>
    <g id="Grupo_1161912" data-name="Grupo 1161912" transform="translate(2.334 119.657)">
      <path id="Trazado_1018533" data-name="Trazado 1018533" d="M120.188,65.392H3.636a.926.926,0,1,1,0-1.852H120.188a.926.926,0,1,1,0,1.852Z" transform="translate(-2.71 -63.54)"/>
    </g>
    <g id="Grupo_1161913" data-name="Grupo 1161913" transform="translate(0 119.657)">
      <path id="Trazado_1018534" data-name="Trazado 1018534" d="M2.58,65.392H2.426a.926.926,0,1,1,0-1.852h.135a.926.926,0,0,1,.926.926A.9.9,0,0,1,2.58,65.392Z" transform="translate(-1.5 -63.54)"/>
    </g>
    <g id="Grupo_1161933" data-name="Grupo 1161933" transform="translate(25.131)">
      <g id="Grupo_1161914" data-name="Grupo 1161914" transform="translate(0.945 0.945)">
        <ellipse id="Elipse_12799" data-name="Elipse 12799" cx="34.678" cy="34.678" rx="34.678" ry="34.678" fill="#6bbeeb"/>
      </g>
      <g id="Grupo_1161915" data-name="Grupo 1161915" transform="translate(31.92 0.945)">
        <path id="Trazado_1018535" data-name="Trazado 1018535" d="M69.461,36.668A34.678,34.678,0,0,1,34.783,71.346a33.523,33.523,0,0,1-3.7-.193,34.684,34.684,0,0,0,0-68.97,33.521,33.521,0,0,1,3.7-.193A34.678,34.678,0,0,1,69.461,36.668Z" transform="translate(-31.08 -1.99)" fill="#2e87af"/>
      </g>
      <g id="Grupo_1161916" data-name="Grupo 1161916" transform="translate(13.35 24.581)">
        <path id="Trazado_1018536" data-name="Trazado 1018536" d="M33.715,17.322c.039,1.62-1.35,2.546-2.584,3.3-1.369.829-2.7,1.639-4.05,2.469-.1.058-.212.116-.309.174a3.53,3.53,0,0,1-5.3-3.26v-.039a5.242,5.242,0,0,1,1.909-3.337,10.851,10.851,0,0,1,3.472-1.813c1.755-.579,3.7-.945,5.381.058A3,3,0,0,1,33.715,17.322Z" transform="translate(-21.452 -14.245)" fill="#b9dd53"/>
      </g>
      <g id="Grupo_1161917" data-name="Grupo 1161917" transform="translate(18.893 0.945)">
        <path id="Trazado_1018537" data-name="Trazado 1018537" d="M54.557,4.71a19.324,19.324,0,0,0-3.935,2.353C48.79,8.471,47.189,10.168,45.3,11.5c-1.909,1.312-4.262,2.237-6.519,1.736-2.1-.463-3.915-2.1-6.056-2.044-1.485.058-2.816.906-4.224,1.35s-3.3.289-3.954-1.041a3.892,3.892,0,0,1,.193-2.932c.328-1,.656-2.006,1-3.009A34.752,34.752,0,0,1,54.557,4.71Z" transform="translate(-24.325 -1.99)" fill="#fff"/>
      </g>
      <g id="Grupo_1161918" data-name="Grupo 1161918" transform="translate(31.94 0.945)">
        <path id="Trazado_1018538" data-name="Trazado 1018538" d="M48.275,4.709A19.788,19.788,0,0,0,44.822,6.7,34.183,34.183,0,0,0,31.09,2.183a33.172,33.172,0,0,1,3.684-.193A34.583,34.583,0,0,1,48.275,4.709Z" transform="translate(-31.09 -1.99)" fill="#c6d0e0"/>
      </g>
      <g id="Grupo_1161919" data-name="Grupo 1161919" transform="translate(53.514 41.159)">
        <path id="Trazado_1018539" data-name="Trazado 1018539" d="M58.62,22.84a34.493,34.493,0,0,1-8.853,18.072A13.8,13.8,0,0,0,45.524,39a10,10,0,0,1-1.871-.559,2.3,2.3,0,0,1-1.312-1.369,2.461,2.461,0,0,1,.926-2.392,12.693,12.693,0,0,1,2.314-1.389,3.57,3.57,0,0,0,1.755-1.967c.309-1.1-.289-2.218-.714-3.279-.405-1.061-.579-2.449.309-3.163a3.374,3.374,0,0,1,2.353-.386A20.9,20.9,0,0,0,58.62,22.84Z" transform="translate(-42.276 -22.84)" fill="#fff"/>
      </g>
      <g id="Grupo_1161920" data-name="Grupo 1161920" transform="translate(55.508 41.178)">
        <path id="Trazado_1018540" data-name="Trazado 1018540" d="M57.66,22.85a34.493,34.493,0,0,1-8.853,18.072,13.8,13.8,0,0,0-4.243-1.909c-.405-.1-.829-.193-1.254-.328a34.438,34.438,0,0,0,6.616-14.157A21.737,21.737,0,0,0,57.66,22.85Z" transform="translate(-43.31 -22.85)" fill="#c6d0e0"/>
      </g>
      <g id="Grupo_1161921" data-name="Grupo 1161921" transform="translate(33.264 8.872)">
        <path id="Trazado_1018541" data-name="Trazado 1018541" d="M66,19.157c-1.177,2.411-2.353,4.841-3.51,7.252-1.254,2.584-2.8,5.96-5.439,7.117-2.314,1-4.918-.1-7.406.366a22.863,22.863,0,0,0-5.593,2.218,12.043,12.043,0,0,1-5.767,1.524c-2.006-.116-4.089-1.312-4.61-3.26-.636-2.314,1.678-4.918.714-7.117-.579-1.312-2.739-2.334-2.6-3.761a3.608,3.608,0,0,1,1.582-2.237,77.957,77.957,0,0,1,10.82-6.9C48.524,11.886,52.825,9.63,56.2,6.1A34.406,34.406,0,0,1,66,19.157Z" transform="translate(-31.777 -6.1)" fill="#b9dd53"/>
      </g>
      <g id="Grupo_1161922" data-name="Grupo 1161922" transform="translate(53.773 8.853)">
        <path id="Trazado_1018542" data-name="Trazado 1018542" d="M56.123,19.167c-1.177,2.411-2.353,4.841-3.51,7.252-.405.81-.81,1.7-1.292,2.565A34.665,34.665,0,0,0,42.41,9.427a27.823,27.823,0,0,0,3.9-3.337,34.469,34.469,0,0,1,9.817,13.077Z" transform="translate(-42.41 -6.09)" fill="#83960f"/>
      </g>
      <g id="Grupo_1161923" data-name="Grupo 1161923" transform="translate(1.022 37.648)">
        <path id="Trazado_1018543" data-name="Trazado 1018543" d="M32.746,37.7a22.4,22.4,0,0,1-2.623,5.748,21.785,21.785,0,0,0-1.485,3.105,34.582,34.582,0,0,1-13.578-25.5c.386-.019.791-.039,1.157-.039,1.524-.019,3.279.386,4.012,1.736.656,1.215.212,2.739.636,4.031.617,1.909,2.8,2.8,4.783,3.144,1.987.366,4.147.521,5.632,1.871a6.262,6.262,0,0,1,1.466,5.9Z" transform="translate(-15.06 -21.02)" fill="#b9dd53"/>
      </g>
      <g id="Grupo_1161924" data-name="Grupo 1161924" transform="translate(23.337 63.439)">
        <path id="Trazado_1018544" data-name="Trazado 1018544" d="M58.917,34.928a34.56,34.56,0,0,1-20,6.345A34.635,34.635,0,0,1,26.63,39.036a21.862,21.862,0,0,1,2.912-2.43,10.663,10.663,0,0,1,6.982-2.044,27.81,27.81,0,0,1,4.436,1.157,17.483,17.483,0,0,0,8.7.077c1.967-.482,3.857-1.312,5.883-1.389A8.373,8.373,0,0,1,58.917,34.928Z" transform="translate(-26.63 -34.392)" fill="#fff"/>
      </g>
      <g id="Grupo_1161925" data-name="Grupo 1161925" transform="translate(31.882 63.439)">
        <path id="Trazado_1018545" data-name="Trazado 1018545" d="M54.783,34.928a34.56,34.56,0,0,1-20,6.345,34.122,34.122,0,0,1-3.722-.193,34.561,34.561,0,0,0,15.43-5.535,21.222,21.222,0,0,1,4.957-1.138,8.24,8.24,0,0,1,3.337.521Z" transform="translate(-31.06 -34.392)" fill="#c6d0e0"/>
      </g>
      <g id="Grupo_1161926" data-name="Grupo 1161926" transform="translate(0 0)">
        <path id="Trazado_1018546" data-name="Trazado 1018546" d="M50.153,72.727a35.614,35.614,0,1,1,35.623-35.6A35.662,35.662,0,0,1,50.153,72.727Zm0-69.356A33.752,33.752,0,1,0,83.906,37.123,33.789,33.789,0,0,0,50.153,3.371Z" transform="translate(-14.53 -1.5)"/>
      </g>
      <g id="Grupo_1161927" data-name="Grupo 1161927" transform="translate(0.094 36.778)">
        <path id="Trazado_1018547" data-name="Trazado 1018547" d="M29.085,47.92a.824.824,0,0,1-.559-.193A35.534,35.534,0,0,1,14.581,21.555a.919.919,0,0,1,.887-.984.931.931,0,0,1,.984.887A33.687,33.687,0,0,0,28.7,45.49c.328-.733.714-1.447,1.061-2.064l.366-.656a17.477,17.477,0,0,0,2.16-4.86c.347-1.582.231-3.722-1.177-5-1.061-.964-2.6-1.215-4.262-1.485-.309-.058-.617-.1-.926-.154-2.99-.54-4.88-1.852-5.5-3.78a6.984,6.984,0,0,1-.27-2.064,4.022,4.022,0,0,0-.309-1.813,1.444,1.444,0,0,0-.251-.347A.928.928,0,1,1,20.946,22a4.771,4.771,0,0,1,.54.733,5.725,5.725,0,0,1,.521,2.642,6.29,6.29,0,0,0,.174,1.543c.521,1.639,2.777,2.276,4.05,2.527.289.058.6.1.887.154,1.755.289,3.742.617,5.208,1.948,2.006,1.813,2.218,4.687,1.755,6.789A19.747,19.747,0,0,1,31.708,43.7l-.366.636a21.175,21.175,0,0,0-1.427,2.97.886.886,0,0,1-.617.579c-.039.039-.135.039-.212.039Z" transform="translate(-14.579 -20.569)"/>
      </g>
      <g id="Grupo_1161928" data-name="Grupo 1161928" transform="translate(25.942 62.609)">
        <path id="Trazado_1018548" data-name="Trazado 1018548" d="M44.239,37.623a18.993,18.993,0,0,1-4.764-.617c-.463-.135-.945-.27-1.408-.424a16.652,16.652,0,0,0-2.893-.714,9.444,9.444,0,0,0-5.767,1.5.939.939,0,1,1-.984-1.6,11.1,11.1,0,0,1,6.924-1.755,17.283,17.283,0,0,1,3.24.771l1.331.405a16.541,16.541,0,0,0,8.236.077.936.936,0,1,1,.463,1.813A17.453,17.453,0,0,1,44.239,37.623Z" transform="translate(-27.98 -33.962)"/>
      </g>
      <g id="Grupo_1161929" data-name="Grupo 1161929" transform="translate(17.956)">
        <path id="Trazado_1018549" data-name="Trazado 1018549" d="M40.543,14.75a6.969,6.969,0,0,1-1.524-.174,12.64,12.64,0,0,1-2.7-1.042,7.181,7.181,0,0,0-3.144-.984,7.127,7.127,0,0,0-2.488.733c-.482.193-.964.405-1.485.579-1.832.6-4.185.27-5.053-1.524a3.463,3.463,0,0,1-.309-1.35.918.918,0,0,1,.926-.945.93.93,0,0,1,.945.926,1.409,1.409,0,0,0,.116.579c.386.791,1.736.906,2.816.559.424-.135.868-.328,1.312-.521A8.578,8.578,0,0,1,33.1,10.7a8.659,8.659,0,0,1,4.012,1.157,10.7,10.7,0,0,0,2.3.906c2.3.5,4.61-.771,5.786-1.582A32.474,32.474,0,0,0,48.084,8.81c.771-.675,1.562-1.389,2.411-2.025A21.165,21.165,0,0,1,52.713,5.3,32.913,32.913,0,0,0,41.507,3.371a.926.926,0,0,1-.926-.926.943.943,0,0,1,.926-.945A35.556,35.556,0,0,1,55.375,4.3a.932.932,0,0,1,.019,1.717A19.552,19.552,0,0,0,51.633,8.25c-.791.6-1.562,1.292-2.3,1.948a29.912,29.912,0,0,1-3.067,2.507,10.427,10.427,0,0,1-5.728,2.044Z" transform="translate(-23.84 -1.5)"/>
      </g>
      <g id="Grupo_1161930" data-name="Grupo 1161930" transform="translate(53.582 41.567)">
        <path id="Trazado_1018550" data-name="Trazado 1018550" d="M43.254,35.431a.956.956,0,0,1-.714-.328.922.922,0,0,1,.1-1.312,9.234,9.234,0,0,1,1.755-1.119c.231-.116.463-.251.694-.386a2.6,2.6,0,0,0,1.331-1.408,3.7,3.7,0,0,0-.463-2.179c-.077-.174-.135-.347-.212-.521-.694-1.794-.482-3.375.6-4.243a4.1,4.1,0,0,1,2.97-.6,19.174,19.174,0,0,0,4.571-.27.931.931,0,1,1,.328,1.832,21.64,21.64,0,0,1-4.976.289,2.75,2.75,0,0,0-1.717.193c-.444.347-.328,1.312-.019,2.1.058.154.135.309.193.482a5.061,5.061,0,0,1,.54,3.395,4.492,4.492,0,0,1-2.179,2.527c-.251.154-.5.289-.771.424a7.6,7.6,0,0,0-1.408.868A.909.909,0,0,1,43.254,35.431Z" transform="translate(-42.311 -23.052)"/>
      </g>
      <g id="Grupo_1161931" data-name="Grupo 1161931" transform="translate(32.315 11.358)">
        <path id="Trazado_1018551" data-name="Trazado 1018551" d="M39.106,37.363a3.125,3.125,0,0,1-.424-.019A5.909,5.909,0,0,1,33.2,33.409a6.956,6.956,0,0,1,.444-3.935c.347-1.138.694-2.2.328-3.028a5.2,5.2,0,0,0-1.042-1.234C32.1,24.4,31.179,23.5,31.295,22.2A4.517,4.517,0,0,1,33.2,19.33a72.052,72.052,0,0,1,10.164-6.558l1.948-1.1a73.07,73.07,0,0,0,6.712-4.108.949.949,0,0,1,1.312.212.968.968,0,0,1-.212,1.312c-2.179,1.543-4.571,2.893-6.886,4.2l-1.929,1.1A70.165,70.165,0,0,0,34.4,20.757c-.579.482-1.2,1.022-1.234,1.6-.039.405.54.964,1.08,1.5a6.255,6.255,0,0,1,1.447,1.813c.656,1.466.174,3.009-.251,4.359a5.751,5.751,0,0,0-.424,2.893c.424,1.562,2.218,2.488,3.761,2.565A11.373,11.373,0,0,0,44.1,34.046l.829-.405a19.5,19.5,0,0,1,5-1.89,12.339,12.339,0,0,1,3.472-.039,7.757,7.757,0,0,0,3.742-.27c2.2-.964,3.626-3.915,4.783-6.288L63.562,21.8a.936.936,0,0,1,1.678.829L63.6,25.984c-1.292,2.662-2.893,5.96-5.728,7.194a9.312,9.312,0,0,1-4.629.424,11.766,11.766,0,0,0-2.97,0,18.234,18.234,0,0,0-4.532,1.736l-.829.405a13.7,13.7,0,0,1-5.805,1.62Z" transform="translate(-31.285 -7.389)"/>
      </g>
      <g id="Grupo_1161932" data-name="Grupo 1161932" transform="translate(12.401 23.648)">
        <path id="Trazado_1018552" data-name="Trazado 1018552" d="M25.435,25.1a4.59,4.59,0,0,1-2.507-.752,4.225,4.225,0,0,1-1.948-3.992,6.037,6.037,0,0,1,2.237-3.992A11.559,11.559,0,0,1,27,14.376c1.639-.54,4.05-1.119,6.172.135a3.877,3.877,0,0,1,1.948,3.221c.058,2.237-1.89,3.414-3.047,4.127l-1.119.694c-.984.6-1.948,1.177-2.932,1.774a1.865,1.865,0,0,0-.231.135l-.116.077a4.866,4.866,0,0,1-2.237.559Zm-2.6-4.629v.058a2.334,2.334,0,0,0,1.119,2.257,2.659,2.659,0,0,0,2.8.1l.1-.058c.1-.058.174-.1.251-.135.906-.559,1.89-1.157,2.854-1.755l1.119-.675c1.408-.868,2.16-1.5,2.141-2.488v-.019a2.038,2.038,0,0,0-1.042-1.639c-1.119-.675-2.546-.656-4.61.039a9.294,9.294,0,0,0-3.163,1.639A4.385,4.385,0,0,0,22.831,20.471Z" transform="translate(-20.959 -13.761)"/>
      </g>
    </g>
    <g id="Grupo_1161939" data-name="Grupo 1161939" transform="translate(90.843 0)">
      <g id="Grupo_1161934" data-name="Grupo 1161934" transform="translate(3.718 5.608)">
        <path id="Trazado_1018553" data-name="Trazado 1018553" d="M51.458,10.854a.952.952,0,0,1-.656-.27.943.943,0,0,1,0-1.331l4.571-4.571A.941.941,0,0,1,56.7,6.013l-4.571,4.571A1,1,0,0,1,51.458,10.854Z" transform="translate(-50.527 -4.407)"/>
      </g>
      <g id="Grupo_1161937" data-name="Grupo 1161937">
        <g id="Grupo_1161935" data-name="Grupo 1161935" transform="translate(7.445 13.945)">
          <path id="Trazado_1018554" data-name="Trazado 1018554" d="M59.847,10.582H53.386a.926.926,0,0,1-.926-.926.939.939,0,0,1,.926-.926h6.461a.926.926,0,1,1,0,1.852Z" transform="translate(-52.46 -8.73)"/>
        </g>
        <g id="Grupo_1161936" data-name="Grupo 1161936">
          <path id="Trazado_1018555" data-name="Trazado 1018555" d="M49.526,9.813a.926.926,0,0,1-.926-.926V2.426a.926.926,0,0,1,1.852,0V8.887A.926.926,0,0,1,49.526,9.813Z" transform="translate(-48.6 -1.5)"/>
        </g>
      </g>
      <g id="Grupo_1161938" data-name="Grupo 1161938" transform="translate(11.413 1.422)">
        <path id="Trazado_1018556" data-name="Trazado 1018556" d="M55.448,5.174a.952.952,0,0,1-.656-.27.943.943,0,0,1,0-1.331l1.061-1.061a.941.941,0,0,1,1.331,1.331L56.123,4.9A1,1,0,0,1,55.448,5.174Z" transform="translate(-54.517 -2.237)"/>
      </g>
    </g>
    <g id="Grupo_1161944" data-name="Grupo 1161944" transform="translate(57.032 52.499)">
      <g id="Grupo_1161940" data-name="Grupo 1161940">
        <path id="Trazado_1018557" data-name="Trazado 1018557" d="M84.553,46.522H31.07a9.763,9.763,0,0,1,17.8-5.535h.135a3.444,3.444,0,0,1,2.835-1.466,3.492,3.492,0,0,1,1.929.579,8.607,8.607,0,0,1-.193-1.89,9.491,9.491,0,0,1,18.709-2.257c1.08-1.717,2.739-3.665,4.417-2.854.849.424.444,2.122-.27,3.838a3.523,3.523,0,0,1,3.51,3.51v.6a5.571,5.571,0,0,1,4.61,5.478Z" transform="translate(-31.07 -28.72)" fill="#b9dd53"/>
      </g>
      <g id="Grupo_1161941" data-name="Grupo 1161941" transform="translate(0 0.019)">
        <path id="Trazado_1018558" data-name="Trazado 1018558" d="M84.553,46.513H31.07a9.862,9.862,0,0,1,.694-3.626,9.751,9.751,0,0,1,17.088-1.909h.135a3.474,3.474,0,0,1,4.783-.868,8.607,8.607,0,0,1-.193-1.89,9.491,9.491,0,0,1,18.709-2.257c1.08-1.717,2.739-3.665,4.417-2.835.849.424.444,2.122-.27,3.838a3.511,3.511,0,0,1,3.51,3.51v.6a4.284,4.284,0,0,1,.714.174,5.486,5.486,0,0,1,3.9,5.265Z" transform="translate(-31.07 -28.73)" fill="#b9dd53"/>
      </g>
      <g id="Grupo_1161942" data-name="Grupo 1161942" transform="translate(0 12.537)">
        <path id="Trazado_1018559" data-name="Trazado 1018559" d="M84.553,40.485H31.07a9.862,9.862,0,0,1,.694-3.626c.193-.1.289-.135.289-.135s30.474,1.408,48.584-1.5A5.48,5.48,0,0,1,84.553,40.485Z" transform="translate(-31.07 -35.22)" fill="#a3c134"/>
      </g>
      <g id="Grupo_1161943" data-name="Grupo 1161943" transform="translate(43.571 7.315)">
        <path id="Trazado_1018560" data-name="Trazado 1018560" d="M54.6,35.96a1,1,0,0,1-.559-.174.949.949,0,0,1-.212-1.312,3.675,3.675,0,0,0,.694-1.273.929.929,0,0,1,1.794.482,5.4,5.4,0,0,1-.984,1.89A.881.881,0,0,1,54.6,35.96Z" transform="translate(-53.661 -32.513)" fill="#050505"/>
      </g>
    </g>
  </g>
  <g id="Grupo_1161946" data-name="Grupo 1161946" transform="translate(33.077 50.918)">
    <path id="Trazado_1018561" data-name="Trazado 1018561" d="M73.078,47.573h-53.5a.926.926,0,0,1-.926-.926,10.769,10.769,0,0,1,.752-3.973,10.694,10.694,0,0,1,18.091-2.951,4.517,4.517,0,0,1,3.645-.964v-.444a10.43,10.43,0,0,1,19.943-4.262c1.871-2.237,3.472-2.179,4.532-1.659,1.408.694,1.042,2.584.6,3.935a4.5,4.5,0,0,1,3.163,4.127c.019,0,.039.019.058.019a6.411,6.411,0,0,1,4.59,6.172.969.969,0,0,1-.945.926ZM20.559,45.7H72.037a4.565,4.565,0,0,0-3.163-3.452,3.139,3.139,0,0,0-.579-.135.933.933,0,0,1-.791-.926v-.6a2.581,2.581,0,0,0-2.565-2.584.913.913,0,0,1-.771-.424.877.877,0,0,1-.077-.868,5.363,5.363,0,0,0,.656-2.662c-1.138-.444-2.584,1.6-3.144,2.527a.931.931,0,0,1-1.7-.289,8.551,8.551,0,0,0-16.857,2.025,7.6,7.6,0,0,0,.174,1.678.94.94,0,0,1-.386.984.963.963,0,0,1-1.061,0,2.627,2.627,0,0,0-3.491.636.942.942,0,0,1-.771.405h-.135a.942.942,0,0,1-.771-.405,8.812,8.812,0,0,0-15.449,1.736,8.977,8.977,0,0,0-.6,2.353Z" transform="translate(-18.65 -27.9)"/>
  </g>
</svg>
