<svg id="tarjeta-electronica" xmlns="http://www.w3.org/2000/svg" width="133.733" height="134.045" viewBox="0 0 133.733 134.045">
  <g id="Grupo_1161637" data-name="Grupo 1161637" transform="translate(1.028 1.036)">
    <path id="Trazado_1018009" data-name="Trazado 1018009" d="M86.15,82.973l17.318-42.189A7.273,7.273,0,0,0,99.511,31.3L29.387,2.531A7.273,7.273,0,0,0,19.9,6.488L2.6,48.7a7.273,7.273,0,0,0,3.957,9.489l70.1,28.764A7.283,7.283,0,0,0,86.15,82.973Z" transform="translate(-2.052 -1.982)" fill="#726ad3"/>
  </g>
  <g id="Grupo_1161638" data-name="Grupo 1161638" transform="translate(12.938 9.285)">
    <path id="Trazado_1018010" data-name="Trazado 1018010" d="M0,0H11.744V90.314H0Z" transform="translate(0 10.863) rotate(-67.667)" fill="#1d2121"/>
  </g>
  <g id="Grupo_1161639" data-name="Grupo 1161639" transform="translate(75.637 30.349)">
    <path id="Trazado_1018011" data-name="Trazado 1018011" d="M53.757,70.374,71.076,28.185A7.273,7.273,0,0,0,67.118,18.7L59.97,15.76a7.256,7.256,0,0,1,3.957,9.489L46.609,67.438A7.256,7.256,0,0,1,37.12,71.4l7.149,2.936A7.273,7.273,0,0,0,53.757,70.374Z" transform="translate(-37.12 -15.76)" fill="#564dc6"/>
  </g>
  <g id="Grupo_1161640" data-name="Grupo 1161640" transform="translate(0 0)">
    <path id="Trazado_1018012" data-name="Trazado 1018012" d="M18.188,64.311a.834.834,0,0,1-.383-.085L6.72,59.673a8.192,8.192,0,0,1-4.51-4.489,8.287,8.287,0,0,1-.021-6.34L19.507,6.654A8.289,8.289,0,0,1,30.336,2.123l70.1,28.764a8.215,8.215,0,0,1,4.915,9.531,1.027,1.027,0,0,1-2-.468,6.191,6.191,0,0,0-3.7-7.17L29.549,4.037a6.219,6.219,0,0,0-8.127,3.4L4.1,49.631A6.077,6.077,0,0,0,4.124,54.4a6.168,6.168,0,0,0,3.383,3.362l11.085,4.553a1,1,0,0,1,.553,1.34.983.983,0,0,1-.957.66Z" transform="translate(-1.569 -1.495)"/>
  </g>
  <g id="Grupo_1161641" data-name="Grupo 1161641" transform="translate(97.442 29.326)">
    <path id="Trazado_1018013" data-name="Trazado 1018013" d="M52.711,25.685a.873.873,0,0,1-.234-.021,1.026,1.026,0,0,1-.766-1.234,6.191,6.191,0,0,0-3.7-7.17,1.025,1.025,0,1,1,.787-1.894h.021L55.945,18.3a8.21,8.21,0,0,1,4.4,4.255,1.028,1.028,0,0,1-1.872.851,6.277,6.277,0,0,0-3.3-3.191l-2.064-.851a8.126,8.126,0,0,1,.617,5.553,1.072,1.072,0,0,1-1.021.766Z" transform="translate(-47.369 -15.279)"/>
  </g>
  <g id="Grupo_1161642" data-name="Grupo 1161642" transform="translate(11.88 8.264)">
    <path id="Trazado_1018014" data-name="Trazado 1018014" d="M71.037,44.081A.834.834,0,0,1,70.654,44L7.785,18.21a1.025,1.025,0,0,1-.553-1.34l4.447-10.85a1,1,0,0,1,1.34-.553L90.143,37.1A1.025,1.025,0,1,1,89.355,39L13.189,7.764,9.509,16.7,71.42,42.1a1,1,0,0,1,.553,1.34.985.985,0,0,1-.936.638Z" transform="translate(-7.153 -5.379)"/>
  </g>
  <g id="Grupo_1161643" data-name="Grupo 1161643" transform="translate(15.962 31.731)">
    <path id="Trazado_1018015" data-name="Trazado 1018015" d="M0,0H6.872V27.488H0Z" transform="translate(0 6.357) rotate(-67.667)" fill="#d5dce5"/>
  </g>
  <g id="Grupo_1161644" data-name="Grupo 1161644" transform="translate(14.936 30.688)">
    <path id="Trazado_1018016" data-name="Trazado 1018016" d="M35.036,34.771a.834.834,0,0,1-.383-.085L9.229,24.261a1,1,0,0,1-.553-1.34l2.617-6.361a1,1,0,0,1,1.34-.553L38.058,26.431a1,1,0,0,1,.553,1.34l-2.617,6.361a1.068,1.068,0,0,1-.957.638ZM10.953,22.729l23.509,9.638,1.83-4.447L12.782,18.283Z" transform="translate(-8.589 -15.919)"/>
  </g>
  <g id="Grupo_1161645" data-name="Grupo 1161645" transform="translate(50.024 45.723)">
    <path id="Trazado_1018017" data-name="Trazado 1018017" d="M0,0H6.872V11.3H0Z" transform="translate(0 6.357) rotate(-67.667)" fill="#c6d0e0"/>
  </g>
  <g id="Grupo_1161646" data-name="Grupo 1161646" transform="translate(48.964 44.666)">
    <path id="Trazado_1018018" data-name="Trazado 1018018" d="M26.789,31.384a.987.987,0,0,1-.4-.085l-1.17-.489a1.017,1.017,0,0,1-.553-1.34l2.617-6.34a1.007,1.007,0,0,1,1.34-.553L38.15,26.47a1.031,1.031,0,1,1-.766,1.915l-8.574-3.51L26.98,29.32l.234.085a1.024,1.024,0,0,1,.553,1.34A1.123,1.123,0,0,1,26.789,31.384Z" transform="translate(-24.583 -22.489)"/>
  </g>
  <g id="Grupo_1161647" data-name="Grupo 1161647" transform="translate(35.616 52.985)">
    <path id="Trazado_1018019" data-name="Trazado 1018019" d="M22.268,29.677a.834.834,0,0,1-.383-.085L18.949,28.38a1.025,1.025,0,1,1,.787-1.894L22.673,27.7a1,1,0,0,1,.553,1.34,1.034,1.034,0,0,1-.957.638Z" transform="translate(-18.309 -26.399)"/>
  </g>
  <g id="Grupo_1161648" data-name="Grupo 1161648" transform="translate(12.298 43.432)">
    <path id="Trazado_1018020" data-name="Trazado 1018020" d="M28.031,32.038a.834.834,0,0,1-.383-.085L7.989,23.89A1.025,1.025,0,1,1,8.777,22L28.435,30.06a1,1,0,0,1,.553,1.34,1.068,1.068,0,0,1-.957.638Z" transform="translate(-7.349 -21.909)"/>
  </g>
  <g id="Grupo_1161649" data-name="Grupo 1161649" transform="translate(9.979 49.091)">
    <path id="Trazado_1018021" data-name="Trazado 1018021" d="M19.728,31.741a.834.834,0,0,1-.383-.085L6.9,26.55a1.025,1.025,0,1,1,.787-1.894l12.446,5.106a1,1,0,0,1,.553,1.34,1.034,1.034,0,0,1-.957.638Z" transform="translate(-6.259 -24.569)"/>
  </g>
  <g id="Grupo_1161650" data-name="Grupo 1161650" transform="translate(11.615 44.282)">
    <path id="Trazado_1018022" data-name="Trazado 1018022" d="M106.282,28.439l13.382,49.976a8.258,8.258,0,0,1-5.829,10.106L30.8,110.753a8.258,8.258,0,0,1-10.106-5.829L7.309,54.948a8.258,8.258,0,0,1,5.829-10.106L96.155,22.588a8.284,8.284,0,0,1,10.127,5.851Z" transform="translate(-7.028 -22.309)" fill="#b9dd53"/>
  </g>
  <g id="Grupo_1161651" data-name="Grupo 1161651" transform="translate(100.742 42.026)">
    <path id="Trazado_1018023" data-name="Trazado 1018023" d="M67.493,27.358,80.876,77.334A8.258,8.258,0,0,1,75.046,87.44l-8.468,2.276a8.232,8.232,0,0,0,5.829-10.106L59.026,29.635A8.232,8.232,0,0,0,48.92,23.805l8.468-2.276A8.239,8.239,0,0,1,67.493,27.358Z" transform="translate(-48.92 -21.248)" fill="#83960f"/>
  </g>
  <g id="Grupo_1161652" data-name="Grupo 1161652" transform="translate(99.748 41.029)">
    <path id="Trazado_1018024" data-name="Trazado 1018024" d="M67.127,91.266a1.041,1.041,0,0,1-1-.766,1.016,1.016,0,0,1,.723-1.255,7.125,7.125,0,0,0,4.383-3.362,7.222,7.222,0,0,0,.723-5.468L58.574,30.439a7.125,7.125,0,0,0-3.362-4.383,7.222,7.222,0,0,0-5.468-.723,1.024,1.024,0,0,1-.532-1.979L57.659,21.1A9.286,9.286,0,0,1,69.02,27.674L82.4,77.65a1.024,1.024,0,1,1-1.979.532L67.042,28.206a7.125,7.125,0,0,0-3.362-4.383,7.222,7.222,0,0,0-5.468-.723l-2.83.766a6.739,6.739,0,0,1,.872.447,9.158,9.158,0,0,1,4.319,5.638L73.956,79.926a9.286,9.286,0,0,1-6.574,11.361.524.524,0,0,0-.255-.021Z" transform="translate(-48.453 -20.78)"/>
  </g>
  <g id="Grupo_1161653" data-name="Grupo 1161653" transform="translate(34.922 117.563)">
    <path id="Trazado_1018025" data-name="Trazado 1018025" d="M19.019,60.13a1.041,1.041,0,0,1-1-.766,1.015,1.015,0,0,1,.723-1.255l4.915-1.319a1.024,1.024,0,1,1,.532,1.979l-4.915,1.319A1.068,1.068,0,0,1,19.019,60.13Z" transform="translate(-17.983 -56.753)"/>
  </g>
  <g id="Grupo_1161654" data-name="Grupo 1161654" transform="translate(49.049 113.776)">
    <path id="Trazado_1018026" data-name="Trazado 1018026" d="M25.659,58.35a1.041,1.041,0,0,1-1-.766,1.016,1.016,0,0,1,.723-1.255L30.3,55.009a1.024,1.024,0,1,1,.532,1.979l-4.915,1.319A1.068,1.068,0,0,1,25.659,58.35Z" transform="translate(-24.623 -54.973)"/>
  </g>
  <g id="Grupo_1161655" data-name="Grupo 1161655" transform="translate(63.175 109.989)">
    <path id="Trazado_1018027" data-name="Trazado 1018027" d="M32.3,56.57a1.041,1.041,0,0,1-1-.766,1.015,1.015,0,0,1,.723-1.255l4.915-1.319a1.024,1.024,0,0,1,.532,1.979l-4.915,1.319A1.068,1.068,0,0,1,32.3,56.57Z" transform="translate(-31.263 -53.193)"/>
  </g>
  <g id="Grupo_1161656" data-name="Grupo 1161656" transform="translate(77.302 106.202)">
    <path id="Trazado_1018028" data-name="Trazado 1018028" d="M38.939,54.79a1.041,1.041,0,0,1-1-.766,1.016,1.016,0,0,1,.723-1.255l4.915-1.319a1.024,1.024,0,0,1,.532,1.979l-4.915,1.319A.794.794,0,0,1,38.939,54.79Z" transform="translate(-37.903 -51.413)"/>
  </g>
  <g id="Grupo_1161657" data-name="Grupo 1161657" transform="translate(91.451 102.415)">
    <path id="Trazado_1018029" data-name="Trazado 1018029" d="M45.589,53.01a1.041,1.041,0,0,1-1-.766,1.015,1.015,0,0,1,.723-1.255l4.915-1.319a1.024,1.024,0,0,1,.532,1.979l-4.915,1.319A1.068,1.068,0,0,1,45.589,53.01Z" transform="translate(-44.553 -49.633)"/>
  </g>
  <g id="Grupo_1161658" data-name="Grupo 1161658" transform="translate(105.577 98.628)">
    <path id="Trazado_1018030" data-name="Trazado 1018030" d="M52.229,51.23a1.041,1.041,0,0,1-1-.766,1.015,1.015,0,0,1,.723-1.255l4.915-1.319a1.024,1.024,0,0,1,.532,1.979l-4.915,1.319A1.068,1.068,0,0,1,52.229,51.23Z" transform="translate(-51.193 -47.853)"/>
  </g>
  <g id="Grupo_1161659" data-name="Grupo 1161659" transform="translate(77.494 94.565)">
    <path id="Trazado_1018031" data-name="Trazado 1018031" d="M39.029,51.788a1.041,1.041,0,0,1-1-.766,1.015,1.015,0,0,1,.723-1.255L52.88,45.979a1.024,1.024,0,0,1,.532,1.979L39.285,51.745A1.068,1.068,0,0,1,39.029,51.788Z" transform="translate(-37.993 -45.943)"/>
  </g>
  <g id="Grupo_1161660" data-name="Grupo 1161660" transform="translate(32.624 100.054)">
    <path id="Trazado_1018032" data-name="Trazado 1018032" d="M17.939,60.9a1.041,1.041,0,0,1-1-.766,1.016,1.016,0,0,1,.723-1.255L56.214,48.559a1.024,1.024,0,0,1,.532,1.979L18.195,60.857A.794.794,0,0,1,17.939,60.9Z" transform="translate(-16.903 -48.523)"/>
  </g>
  <g id="Grupo_1161661" data-name="Grupo 1161661" transform="translate(30.645 94.033)">
    <path id="Trazado_1018033" data-name="Trazado 1018033" d="M17.009,56.644a1.041,1.041,0,0,1-1-.766,1.016,1.016,0,0,1,.723-1.255L49.9,45.729a1.024,1.024,0,0,1,.532,1.979L17.265,56.6a1.068,1.068,0,0,1-.255.043Z" transform="translate(-15.973 -45.693)"/>
  </g>
  <g id="Grupo_1161662" data-name="Grupo 1161662" transform="translate(24.549 72.748)">
    <path id="Trazado_1018034" data-name="Trazado 1018034" d="M0,0H17.616V17.616H0Z" transform="translate(0 4.563) rotate(-15.009)" fill="#ffca6b"/>
  </g>
  <g id="Grupo_1161663" data-name="Grupo 1161663" transform="translate(27.98 72.751)">
    <path id="Trazado_1018035" data-name="Trazado 1018035" d="M28.294,35.69l4.553,17.02-17.02,4.553L14.72,53.136l.638-.17a12.688,12.688,0,0,0,8.978-15.531l-.17-.638Z" transform="translate(-14.72 -35.69)" fill="#ef8f06"/>
  </g>
  <g id="Grupo_1161664" data-name="Grupo 1161664" transform="translate(23.499 71.715)">
    <path id="Trazado_1018036" data-name="Trazado 1018036" d="M18.2,58.855a1.041,1.041,0,0,1-1-.766l-4.553-17.02a1.024,1.024,0,0,1,.106-.787,1.091,1.091,0,0,1,.617-.489l17.02-4.553a1.016,1.016,0,0,1,1.255.723L36.2,52.983a1.024,1.024,0,0,1-.106.787,1.091,1.091,0,0,1-.617.489l-17.02,4.553A.794.794,0,0,1,18.2,58.855ZM14.9,41.516l4.021,15.02,15.02-4.021-4.021-15.02Z" transform="translate(-12.614 -35.203)"/>
  </g>
  <g id="Grupo_1161665" data-name="Grupo 1161665" transform="translate(32.007 73.991)">
    <path id="Trazado_1018037" data-name="Trazado 1018037" d="M22.2,55.351a1.041,1.041,0,0,1-1-.766l-4.553-17.02a1.024,1.024,0,1,1,1.979-.532l4.553,17.02a1.015,1.015,0,0,1-.723,1.255A.461.461,0,0,1,22.2,55.351Z" transform="translate(-16.613 -36.273)"/>
  </g>
  <g id="Grupo_1161666" data-name="Grupo 1161666" transform="translate(34.283 80.225)">
    <path id="Trazado_1018038" data-name="Trazado 1018038" d="M18.719,43.537a1.041,1.041,0,0,1-1-.766,1.016,1.016,0,0,1,.723-1.255l8.51-2.276a1.024,1.024,0,1,1,.532,1.979l-8.51,2.276A.5.5,0,0,1,18.719,43.537Z" transform="translate(-17.683 -39.203)"/>
  </g>
  <g id="Grupo_1161667" data-name="Grupo 1161667" transform="translate(82.451 59.835)">
    <path id="Trazado_1018039" data-name="Trazado 1018039" d="M60.656,43.344a1.041,1.041,0,0,1-1-.766,14.733,14.733,0,0,0-18.042-10.4,1.024,1.024,0,0,1-.532-1.979A16.793,16.793,0,0,1,61.635,42.067a1.016,1.016,0,0,1-.723,1.255C60.826,43.322,60.741,43.344,60.656,43.344Z" transform="translate(-40.323 -29.619)" fill="#fff"/>
  </g>
  <g id="Grupo_1161668" data-name="Grupo 1161668" transform="translate(83.791 64.971)">
    <path id="Trazado_1018040" data-name="Trazado 1018040" d="M54.967,41.941a1.041,1.041,0,0,1-1-.766A9.572,9.572,0,0,0,42.245,34.41a1.024,1.024,0,1,1-.532-1.979,11.629,11.629,0,0,1,14.233,8.212,1.015,1.015,0,0,1-.723,1.255.54.54,0,0,1-.255.043Z" transform="translate(-40.953 -32.033)" fill="#fff"/>
  </g>
  <g id="Grupo_1161669" data-name="Grupo 1161669" transform="translate(85.132 70.129)">
    <path id="Trazado_1018041" data-name="Trazado 1018041" d="M49.279,40.548a1.041,1.041,0,0,1-1-.766,4.438,4.438,0,0,0-5.4-3.127,1.024,1.024,0,1,1-.532-1.979,6.5,6.5,0,0,1,7.936,4.574,1.016,1.016,0,0,1-.723,1.255.676.676,0,0,1-.277.043Z" transform="translate(-41.583 -34.457)" fill="#fff"/>
  </g>
  <g id="Grupo_1161670" data-name="Grupo 1161670" transform="translate(20.214 56.774)" opacity="0.25">
    <path id="Trazado_1018042" data-name="Trazado 1018042" d="M93.874,86.007,58.9,95.389,11.07,37.562,46.047,28.18Z" transform="translate(-11.07 -28.18)" fill="#fff"/>
  </g>
  <g id="Grupo_1161671" data-name="Grupo 1161671" transform="translate(61.084 53.327)" opacity="0.25">
    <path id="Trazado_1018043" data-name="Trazado 1018043" d="M85.128,84.387l-7.021,1.872L30.28,28.432,37.3,26.56Z" transform="translate(-30.28 -26.56)" fill="#fff"/>
  </g>
  <g id="Grupo_1161672" data-name="Grupo 1161672" transform="translate(10.601 43.263)">
    <path id="Trazado_1018044" data-name="Trazado 1018044" d="M29.185,112.613a9.3,9.3,0,0,1-8.936-6.893L16.335,91.146a1.024,1.024,0,0,1,1.979-.532l3.915,14.574a7.125,7.125,0,0,0,3.362,4.383,7.222,7.222,0,0,0,5.468.723L114.1,88.061a7.125,7.125,0,0,0,4.383-3.362,7.222,7.222,0,0,0,.723-5.468L105.819,29.256a7.125,7.125,0,0,0-3.362-4.383,7.222,7.222,0,0,0-5.468-.723L13.952,46.382a7.221,7.221,0,0,0-5.106,8.829l7.234,27.02a1.024,1.024,0,0,1-1.979.532L6.867,55.743A9.29,9.29,0,0,1,13.42,44.382L96.437,22.15A9.286,9.286,0,0,1,107.8,28.724L121.18,78.7a9.286,9.286,0,0,1-6.574,11.361l-83,22.233a9.5,9.5,0,0,1-2.425.319Z" transform="translate(-6.552 -21.83)"/>
  </g>
  <g id="Grupo_1161673" data-name="Grupo 1161673" transform="translate(114.077 21.537)">
    <path id="Trazado_1018045" data-name="Trazado 1018045" d="M56.214,17.324a.893.893,0,0,1-.511-.149,1.037,1.037,0,0,1-.383-1.4l2.085-3.638a1.029,1.029,0,0,1,1.787,1.021l-2.085,3.638A1.046,1.046,0,0,1,56.214,17.324Z" transform="translate(-55.188 -11.618)"/>
  </g>
  <g id="Grupo_1161674" data-name="Grupo 1161674" transform="translate(119.449 25.76)">
    <path id="Trazado_1018046" data-name="Trazado 1018046" d="M58.749,17.192a1.041,1.041,0,0,1-1-.766,1.016,1.016,0,0,1,.723-1.255L64.2,13.639a1.024,1.024,0,0,1,.532,1.979L59,17.15a.5.5,0,0,1-.255.043Z" transform="translate(-57.713 -13.603)"/>
  </g>
  <g id="Grupo_1161675" data-name="Grupo 1161675" transform="translate(108.003 15.846)">
    <path id="Trazado_1018047" data-name="Trazado 1018047" d="M54.9,16.724a1.041,1.041,0,0,1-1-.766l-1.532-5.723A1.024,1.024,0,0,1,54.348,9.7l1.532,5.723a1.015,1.015,0,0,1-.723,1.255.54.54,0,0,1-.255.043Z" transform="translate(-52.333 -8.943)"/>
  </g>
  <g id="Grupo_1161676" data-name="Grupo 1161676" transform="translate(118.311 16.367)">
    <path id="Trazado_1018048" data-name="Trazado 1018048" d="M58.2,12.724a1.069,1.069,0,0,1-.511-.128,1.037,1.037,0,0,1-.383-1.4L58.183,9.7a1.029,1.029,0,0,1,1.787,1.021L59.1,12.214a1.044,1.044,0,0,1-.894.511Z" transform="translate(-57.178 -9.188)"/>
  </g>
</svg>
