<svg xmlns="http://www.w3.org/2000/svg" xmlns:xlink="http://www.w3.org/1999/xlink" width="121" height="125" viewBox="0 0 121 125">
  <defs>
    <filter id="Elipse_12786" x="0" y="0" width="121" height="125" filterUnits="userSpaceOnUse">
      <feOffset dy="3" input="SourceAlpha"/>
      <feGaussianBlur stdDeviation="3" result="blur"/>
      <feFlood flood-opacity="0.161"/>
      <feComposite operator="in" in2="blur"/>
      <feComposite in="SourceGraphic"/>
    </filter>
  </defs>
  <g id="Grupo_1163287" data-name="Grupo 1163287" transform="translate(-591.025 -7176.27)">
    <g transform="matrix(1, 0, 0, 1, 591.03, 7176.27)" filter="url(#Elipse_12786)">
      <ellipse id="Elipse_12786-2" data-name="Elipse 12786" cx="51.5" cy="53.5" rx="51.5" ry="53.5" transform="translate(9 6)" fill="#fff"/>
    </g>
    <g id="reciclaje-de-agua" transform="translate(620.774 7202.771)">
      <g id="Grupo_1161210" data-name="Grupo 1161210">
        <g id="Grupo_1161194" data-name="Grupo 1161194">
          <path id="Trazado_1015783" data-name="Trazado 1015783" d="M17.31,26.03a1.559,1.559,0,0,1-1.27-2.47L26.18,9.42a9.24,9.24,0,0,1,15.08.32l5.33,7.87A1.563,1.563,0,1,1,44,19.36l-5.33-7.87a6.124,6.124,0,0,0-9.98-.23L18.58,25.38a1.56,1.56,0,0,1-1.27.65Z" fill="#ffca6b"/>
        </g>
        <g id="Grupo_1161195" data-name="Grupo 1161195">
          <path id="Trazado_1015784" data-name="Trazado 1015784" d="M33.45,55.66H11.54A9.244,9.244,0,0,1,4.13,40.88l5.15-6.9a1.558,1.558,0,1,1,2.5,1.86l-5.15,6.9a6.124,6.124,0,0,0,4.91,9.79H33.45a1.565,1.565,0,0,1,0,3.13Z" fill="#b9dd53"/>
        </g>
        <g id="Grupo_1161200" data-name="Grupo 1161200">
          <g id="Grupo_1161197" data-name="Grupo 1161197">
            <g id="Grupo_1161196" data-name="Grupo 1161196">
              <path id="Trazado_1015785" data-name="Trazado 1015785" d="M54.79,55.66H46.84a1.56,1.56,0,0,1,0-3.12h7.95a5.8,5.8,0,0,0,4.71-9.2L51.14,31.8a1.561,1.561,0,1,1,2.53-1.83l8.36,11.54a8.925,8.925,0,0,1-7.24,14.15Z" fill="#ff9a9a"/>
            </g>
          </g>
          <g id="Grupo_1161198" data-name="Grupo 1161198">
            <path id="Trazado_1015786" data-name="Trazado 1015786" d="M17.31,26.51a2.031,2.031,0,0,1-1.19-.38,2.008,2.008,0,0,1-.82-1.33,2.044,2.044,0,0,1,.35-1.52L25.79,9.14a9.723,9.723,0,0,1,15.87.33l5.33,7.87a2.041,2.041,0,0,1-.55,2.83,2.04,2.04,0,0,1-2.83-.54l-5.33-7.87a5.644,5.644,0,0,0-9.2-.21L18.97,25.66a2.047,2.047,0,0,1-1.66.85ZM33.59,6.16a8.67,8.67,0,0,0-7.03,3.55L16.44,23.84a1.1,1.1,0,0,0-.19.81,1.08,1.08,0,0,0,.44.7,1.106,1.106,0,0,0,1.51-.25L28.32,10.98a6.607,6.607,0,0,1,10.77.24l5.33,7.87a1.088,1.088,0,0,0,1.5.29,1.1,1.1,0,0,0,.46-.69,1.063,1.063,0,0,0-.17-.81l-5.33-7.87a8.671,8.671,0,0,0-7.06-3.85h-.23Z"/>
          </g>
          <g id="Grupo_1161199" data-name="Grupo 1161199">
            <path id="Trazado_1015787" data-name="Trazado 1015787" d="M33.45,56.14H11.54a9.731,9.731,0,0,1-7.8-15.55l5.15-6.9a2.036,2.036,0,1,1,3.26,2.44L7,43.03a5.653,5.653,0,0,0,4.53,9.03H33.44a2.049,2.049,0,0,1,2.04,2.04,2.021,2.021,0,0,1-2.03,2.04ZM10.53,33.83a.915.915,0,0,0-.16.01,1.052,1.052,0,0,0-.71.42l-5.15,6.9a8.768,8.768,0,0,0,7.03,14.01H33.45a1.08,1.08,0,0,0,0-2.16H11.54a6.61,6.61,0,0,1-5.3-10.56l5.15-6.9a1.073,1.073,0,0,0-.22-1.51,1.113,1.113,0,0,0-.64-.21Z"/>
          </g>
        </g>
        <g id="Grupo_1161201" data-name="Grupo 1161201">
          <path id="Trazado_1015788" data-name="Trazado 1015788" d="M54.79,56.14H46.84a2.04,2.04,0,1,1,0-4.08h7.95a5.319,5.319,0,0,0,4.31-8.44L50.74,32.08a2.006,2.006,0,0,1-.36-1.52,2.041,2.041,0,0,1,3.67-.87l8.36,11.54a9.4,9.4,0,0,1-7.62,14.91Zm-7.95-3.12a1.08,1.08,0,0,0,0,2.16h7.95a8.44,8.44,0,0,0,6.84-13.39L53.27,30.25a1.085,1.085,0,0,0-1.51-.24,1.066,1.066,0,0,0-.43.7,1.041,1.041,0,0,0,.19.8l8.36,11.54a6.282,6.282,0,0,1-5.1,9.96H46.84Z"/>
        </g>
        <g id="Grupo_1161202" data-name="Grupo 1161202">
          <path id="Trazado_1015789" data-name="Trazado 1015789" d="M51.36,39.15a1.942,1.942,0,0,1-.24-.02,1.56,1.56,0,0,1-1.3-1.78l1.04-6.71a1.549,1.549,0,0,1,.62-1.02,1.6,1.6,0,0,1,1.16-.28l6.71,1.06a1.559,1.559,0,0,1-.48,3.08l-5.17-.82-.8,5.17a1.557,1.557,0,0,1-1.54,1.32Z" fill="#ff9a9a"/>
        </g>
        <g id="Grupo_1161203" data-name="Grupo 1161203">
          <path id="Trazado_1015790" data-name="Trazado 1015790" d="M51.36,39.63c-.1,0-.21-.01-.31-.02a2,2,0,0,1-1.33-.81,2.056,2.056,0,0,1-.37-1.52l1.04-6.71a2.079,2.079,0,0,1,.81-1.34,2.056,2.056,0,0,1,1.52-.37l6.71,1.06a2.008,2.008,0,0,1,1.33.82,2.039,2.039,0,0,1-1.96,3.22l-4.69-.74-.73,4.69a2.034,2.034,0,0,1-2.02,1.72ZM52.4,29.8a1.067,1.067,0,0,0-.64.21,1.087,1.087,0,0,0-.43.71l-1.04,6.71a1.079,1.079,0,0,0,.2.8,1.064,1.064,0,0,0,.71.43,1.09,1.09,0,0,0,1.23-.9l.8-5.17a.485.485,0,0,1,.55-.4l5.17.82a1.091,1.091,0,0,0,1.24-.9,1.07,1.07,0,0,0-.9-1.23l-6.71-1.06a.584.584,0,0,0-.18-.02Z"/>
        </g>
        <g id="Grupo_1161205" data-name="Grupo 1161205">
          <g id="Grupo_1161204" data-name="Grupo 1161204">
            <path id="Trazado_1015791" data-name="Trazado 1015791" d="M28.5,60.32a1.56,1.56,0,0,1-1.07-2.7l3.81-3.59-3.59-3.8a1.563,1.563,0,1,1,2.27-2.15l4.67,4.93a1.588,1.588,0,0,1,.43,1.12,1.558,1.558,0,0,1-.49,1.09l-4.95,4.66a1.529,1.529,0,0,1-1.08.44Z" fill="#b9dd53"/>
          </g>
        </g>
        <g id="Grupo_1161207" data-name="Grupo 1161207">
          <g id="Grupo_1161206" data-name="Grupo 1161206">
            <path id="Trazado_1015792" data-name="Trazado 1015792" d="M28.5,60.8a2.035,2.035,0,0,1-1.4-3.52l3.46-3.26L27.3,50.57a2.038,2.038,0,0,1,.08-2.88,2.089,2.089,0,0,1,1.46-.56,2.021,2.021,0,0,1,1.43.64l4.67,4.93a2.041,2.041,0,0,1-.08,2.89l-4.95,4.66a2.1,2.1,0,0,1-1.41.55Zm.28-12.71a1.027,1.027,0,0,0-.74.3A1.087,1.087,0,0,0,28,49.92l3.59,3.8a.483.483,0,0,1-.02.68l-3.81,3.59a1.1,1.1,0,0,0-.05,1.53,1.116,1.116,0,0,0,1.53.05l4.95-4.66a1.1,1.1,0,0,0,.34-.76,1.055,1.055,0,0,0-.3-.77l-4.67-4.93a1.091,1.091,0,0,0-.75-.34c-.01-.02-.02-.02-.03-.02Z"/>
          </g>
        </g>
        <g id="Grupo_1161208" data-name="Grupo 1161208">
          <path id="Trazado_1015793" data-name="Trazado 1015793" d="M17.32,26.03a1.6,1.6,0,0,1-.8-.22,1.536,1.536,0,0,1-.71-.96l-1.64-6.59a1.561,1.561,0,0,1,3.03-.75l1.26,5.08,5.07-1.27a1.557,1.557,0,1,1,.76,3.02L17.7,25.99a2.585,2.585,0,0,1-.38.04Z" fill="#ffca6b"/>
        </g>
        <g id="Grupo_1161209" data-name="Grupo 1161209">
          <path id="Trazado_1015794" data-name="Trazado 1015794" d="M17.32,26.51a2.05,2.05,0,0,1-1.05-.29,2.016,2.016,0,0,1-.93-1.26L13.7,18.37a2.04,2.04,0,1,1,3.96-.98L18.81,22l4.6-1.16a2.036,2.036,0,0,1,.99,3.95l-6.59,1.65a1.659,1.659,0,0,1-.49.07Zm-1.64-9.72a1.09,1.09,0,0,0-.26.03,1.072,1.072,0,0,0-.79,1.31l1.64,6.59a1.072,1.072,0,0,0,1.31.79l6.59-1.65a1.078,1.078,0,1,0-.53-2.09l-5.07,1.27a.5.5,0,0,1-.36-.05.48.48,0,0,1-.22-.3l-1.26-5.08a1.076,1.076,0,0,0-.49-.67,1.268,1.268,0,0,0-.56-.15Z"/>
        </g>
      </g>
      <g id="Grupo_1161213" data-name="Grupo 1161213">
        <g id="Grupo_1161212" data-name="Grupo 1161212">
          <g id="Grupo_1161211" data-name="Grupo 1161211">
            <path id="Trazado_1015795" data-name="Trazado 1015795" d="M41.68,36.05a5.124,5.124,0,0,1-7.8-5.75c1.07-3.79,3.65-5.42,4.89-8.17,1.24,2.74,3.82,4.38,4.89,8.17A5.219,5.219,0,0,1,41.68,36.05Z" fill="#6bbeeb"/>
          </g>
        </g>
      </g>
      <g id="Grupo_1161215" data-name="Grupo 1161215">
        <g id="Grupo_1161214" data-name="Grupo 1161214">
          <path id="Trazado_1015796" data-name="Trazado 1015796" d="M38.77,37.41a5.577,5.577,0,0,1-5.36-7.24,14.825,14.825,0,0,1,2.98-5.3,14.882,14.882,0,0,0,1.94-2.93.486.486,0,0,1,.88,0,14.451,14.451,0,0,0,1.94,2.93,14.825,14.825,0,0,1,2.98,5.3,5.577,5.577,0,0,1-5.36,7.24Zm0-14.23a19.693,19.693,0,0,1-1.62,2.28,13.977,13.977,0,0,0-2.81,4.97,4.706,4.706,0,0,0,1.79,5.22,4.819,4.819,0,0,0,5.28,0,4.7,4.7,0,0,0,1.79-5.22,13.89,13.89,0,0,0-2.81-4.97,20.59,20.59,0,0,1-1.62-2.28Z"/>
        </g>
      </g>
      <g id="Grupo_1161222" data-name="Grupo 1161222">
        <g id="Grupo_1161216" data-name="Grupo 1161216">
          <path id="Trazado_1015797" data-name="Trazado 1015797" d="M34.86,43.32a7.273,7.273,0,0,1-11.07-8.16c1.52-5.38,5.18-7.7,6.95-11.59,1.77,3.89,5.42,6.22,6.95,11.59A7.438,7.438,0,0,1,34.86,43.32Z" fill="#6bbeeb"/>
        </g>
        <g id="Grupo_1161217" data-name="Grupo 1161217">
          <path id="Trazado_1015798" data-name="Trazado 1015798" d="M34.86,43.32a7.4,7.4,0,0,1-8.26,0,7.145,7.145,0,0,1-3.06-5.24,7.765,7.765,0,0,1,.25-2.91c1.52-5.38,5.18-7.7,6.95-11.59a28.823,28.823,0,0,0,3.64,5.34,18.236,18.236,0,0,1,3.3,6.24,7.418,7.418,0,0,1-2.82,8.16Z" fill="#6bbeeb"/>
        </g>
        <g id="Grupo_1161218" data-name="Grupo 1161218">
          <path id="Trazado_1015799" data-name="Trazado 1015799" d="M34.86,43.32a7.4,7.4,0,0,1-8.26,0,7.145,7.145,0,0,1-3.06-5.24c.2.04,10.83,2.31,10.84-9.16a18.236,18.236,0,0,1,3.3,6.24,7.418,7.418,0,0,1-2.82,8.16Z" fill="#56a7d2"/>
        </g>
        <g id="Grupo_1161219" data-name="Grupo 1161219">
          <path id="Trazado_1015800" data-name="Trazado 1015800" d="M30.73,45.06a7.711,7.711,0,0,1-7.41-10.03,20.876,20.876,0,0,1,4.19-7.46,21.09,21.09,0,0,0,2.78-4.2.486.486,0,0,1,.88,0,21.09,21.09,0,0,0,2.78,4.2,20.58,20.58,0,0,1,4.19,7.46,7.858,7.858,0,0,1-3.01,8.69,7.937,7.937,0,0,1-4.4,1.34Zm0-20.42a25.307,25.307,0,0,1-2.46,3.52,20.03,20.03,0,0,0-4.03,7.13,6.793,6.793,0,1,0,12.96,0,19.88,19.88,0,0,0-4.03-7.13,27.666,27.666,0,0,1-2.44-3.52Z"/>
        </g>
        <g id="Grupo_1161220" data-name="Grupo 1161220">
          <path id="Trazado_1015801" data-name="Trazado 1015801" d="M29.83,30.52a.445.445,0,0,1-.29-.1.468.468,0,0,1-.08-.67l.32-.41a.477.477,0,0,1,.75.59l-.32.41A.527.527,0,0,1,29.83,30.52Z" fill="#fff"/>
        </g>
        <g id="Grupo_1161221" data-name="Grupo 1161221">
          <path id="Trazado_1015802" data-name="Trazado 1015802" d="M26.54,36.42a.585.585,0,0,1-.13-.02.484.484,0,0,1-.33-.59,14.072,14.072,0,0,1,2-4.19.483.483,0,0,1,.8.54,13.431,13.431,0,0,0-1.87,3.91.5.5,0,0,1-.47.35Z" fill="#fff"/>
        </g>
      </g>
      <g id="Grupo_1161228" data-name="Grupo 1161228">
        <g id="Grupo_1161223" data-name="Grupo 1161223">
          <path id="Trazado_1015803" data-name="Trazado 1015803" d="M18,45.85a.494.494,0,0,1-.34-.14.477.477,0,0,1,0-.68l2.24-2.24a.481.481,0,0,1,.68.68l-2.24,2.24A.468.468,0,0,1,18,45.85Z"/>
        </g>
        <g id="Grupo_1161226" data-name="Grupo 1161226">
          <g id="Grupo_1161224" data-name="Grupo 1161224">
            <path id="Trazado_1015804" data-name="Trazado 1015804" d="M17.98,41.36H14.82a.48.48,0,0,1,0-.96h3.16a.48.48,0,1,1,0,.96Z"/>
          </g>
          <g id="Grupo_1161225" data-name="Grupo 1161225">
            <path id="Trazado_1015805" data-name="Trazado 1015805" d="M22.48,49.03a.474.474,0,0,1-.48-.48V45.39a.48.48,0,1,1,.96,0v3.16A.48.48,0,0,1,22.48,49.03Z"/>
          </g>
        </g>
        <g id="Grupo_1161227" data-name="Grupo 1161227">
          <path id="Trazado_1015806" data-name="Trazado 1015806" d="M15.94,47.9a.494.494,0,0,1-.34-.14.477.477,0,0,1,0-.68l.52-.52a.481.481,0,1,1,.68.68l-.52.52a.439.439,0,0,1-.34.14Z"/>
        </g>
      </g>
    </g>
  </g>
</svg>
