<svg xmlns="http://www.w3.org/2000/svg" width="115" height="115.011" viewBox="0 0 115 115.011">
  <g id="presentacion-de-negocios" transform="translate(-1.51 -1.5)">
    <g id="Grupo_1160305" data-name="Grupo 1160305" transform="translate(1.51 1.5)">
      <g id="Grupo_1160240" data-name="Grupo 1160240" transform="translate(0 96.481)">
        <g id="Grupo_1160233" data-name="Grupo 1160233" transform="translate(0 3.688)">
          <path id="Trazado_1013953" data-name="Trazado 1013953" d="M9.451,62.832H2.386a.876.876,0,1,1,0-1.753H8.575V57.246a.876.876,0,0,1,.876-.876.888.888,0,0,1,.876.876v4.728a.861.861,0,0,1-.876.858Z" transform="translate(-1.51 -56.37)" fill="#d5dce5"/>
        </g>
        <g id="Grupo_1160234" data-name="Grupo 1160234" transform="translate(7.065 0.018)">
          <path id="Trazado_1013954" data-name="Trazado 1013954" d="M30.062,64.492H6.256a.876.876,0,0,1-.876-.876V55.236a.876.876,0,0,1,.876-.876.888.888,0,0,1,.876.876v7.5H29.149v-5.7a.876.876,0,1,1,1.753,0v6.59a.819.819,0,0,1-.84.858Z" transform="translate(-5.38 -54.36)" fill="#d5dce5"/>
        </g>
        <g id="Grupo_1160235" data-name="Grupo 1160235">
          <path id="Trazado_1013955" data-name="Trazado 1013955" d="M43.881,56.1H2.386a.876.876,0,1,1,0-1.753h41.5a.876.876,0,1,1,0,1.753Z" transform="translate(-1.51 -54.35)" fill="#d5dce5"/>
        </g>
        <g id="Grupo_1160236" data-name="Grupo 1160236" transform="translate(30.87 0.018)">
          <path id="Trazado_1013956" data-name="Trazado 1013956" d="M29.921,64.492H19.3a.876.876,0,0,1-.876-.876V55.236a.876.876,0,1,1,1.753,0v7.5H29.9a.876.876,0,0,1,.876.876A.861.861,0,0,1,29.921,64.492Z" transform="translate(-18.42 -54.36)" fill="#d5dce5"/>
        </g>
        <g id="Grupo_1160239" data-name="Grupo 1160239" transform="translate(1.771 8.398)">
          <g id="Grupo_1160237" data-name="Grupo 1160237" transform="translate(0 0.018)">
            <path id="Trazado_1013957" data-name="Trazado 1013957" d="M20.553,69.074H6.88a.876.876,0,0,1,0-1.753H19.659V60.713H3.356a.876.876,0,1,1,0-1.753H20.571a.876.876,0,0,1,.876.876v8.379A.889.889,0,0,1,20.553,69.074Z" transform="translate(-2.48 -58.96)" fill="#d5dce5"/>
          </g>
          <g id="Grupo_1160238" data-name="Grupo 1160238" transform="translate(17.215)">
            <path id="Trazado_1013958" data-name="Trazado 1013958" d="M29.983,69.082h-17.2a.876.876,0,0,1-.876-.876V59.826a.876.876,0,0,1,.876-.876h17.2a.876.876,0,1,1,0,1.753H13.663v6.609H29.983a.876.876,0,0,1,.876.876.892.892,0,0,1-.876.895Z" transform="translate(-11.91 -58.95)" fill="#d5dce5"/>
          </g>
        </g>
      </g>
      <g id="Grupo_1160248" data-name="Grupo 1160248" transform="translate(71.726 25.357)">
        <g id="Grupo_1160241" data-name="Grupo 1160241" transform="translate(0 3.669)">
          <path id="Trazado_1013959" data-name="Trazado 1013959" d="M48.759,23.862H41.676a.876.876,0,0,1-.876-.876.888.888,0,0,1,.876-.876h6.189V18.276a.876.876,0,1,1,1.753,0V23a.824.824,0,0,1-.858.858Z" transform="translate(-40.8 -17.4)" fill="#d5dce5"/>
        </g>
        <g id="Grupo_1160242" data-name="Grupo 1160242" transform="translate(7.083)">
          <path id="Trazado_1013960" data-name="Trazado 1013960" d="M69.362,25.522H45.556a.876.876,0,0,1-.876-.876V16.266a.876.876,0,1,1,1.753,0v7.5H68.449v-5.7a.876.876,0,1,1,1.753,0v6.59A.82.82,0,0,1,69.362,25.522Z" transform="translate(-44.68 -15.39)" fill="#d5dce5"/>
        </g>
        <g id="Grupo_1160243" data-name="Grupo 1160243" transform="translate(0)">
          <path id="Trazado_1013961" data-name="Trazado 1013961" d="M83.171,17.143h-41.5a.876.876,0,0,1-.876-.876.888.888,0,0,1,.876-.876h41.5a.876.876,0,1,1,0,1.753Z" transform="translate(-40.8 -15.39)" fill="#d5dce5"/>
        </g>
        <g id="Grupo_1160244" data-name="Grupo 1160244" transform="translate(30.889)">
          <path id="Trazado_1013962" data-name="Trazado 1013962" d="M69.2,25.522H58.6a.876.876,0,0,1-.876-.876V16.266a.876.876,0,1,1,1.753,0v7.5H69.2a.876.876,0,1,1,0,1.753Z" transform="translate(-57.72 -15.39)" fill="#d5dce5"/>
        </g>
        <g id="Grupo_1160247" data-name="Grupo 1160247" transform="translate(1.789 8.398)">
          <g id="Grupo_1160245" data-name="Grupo 1160245" transform="translate(0 0.018)">
            <path id="Trazado_1013963" data-name="Trazado 1013963" d="M59.543,30.114H46.18a.876.876,0,0,1-.876-.876.888.888,0,0,1,.876-.876H58.666V21.753H42.656a.876.876,0,0,1-.876-.876A.888.888,0,0,1,42.656,20h16.9a.876.876,0,0,1,.876.876v8.379a.889.889,0,0,1-.895.858Z" transform="translate(-41.78 -20)" fill="#d5dce5"/>
          </g>
          <g id="Grupo_1160246" data-name="Grupo 1160246" transform="translate(16.905)">
            <path id="Trazado_1013964" data-name="Trazado 1013964" d="M69.423,30.122H51.916a.876.876,0,0,1-.876-.876V20.866a.876.876,0,0,1,.876-.876H69.423a.876.876,0,0,1,.876.876.888.888,0,0,1-.876.876H52.793v6.609H69.423a.876.876,0,0,1,.876.876.9.9,0,0,1-.876.895Z" transform="translate(-51.04 -19.99)" fill="#d5dce5"/>
          </g>
        </g>
      </g>
      <g id="Grupo_1160304" data-name="Grupo 1160304" transform="translate(11.045)">
        <g id="Grupo_1160263" data-name="Grupo 1160263">
          <g id="Grupo_1160249" data-name="Grupo 1160249" transform="translate(0.895 16.978)">
            <path id="Trazado_1013965" data-name="Trazado 1013965" d="M87.389,10.8V73.49H29.245A10.878,10.878,0,0,1,8.05,70.04V10.8Z" transform="translate(-8.05 -10.8)" fill="#f1f3f6"/>
          </g>
          <g id="Grupo_1160251" data-name="Grupo 1160251" transform="translate(11.775 79.668)">
            <g id="Grupo_1160250" data-name="Grupo 1160250">
              <path id="Trazado_1013966" data-name="Trazado 1013966" d="M24.324,45.14A10.865,10.865,0,0,1,14.01,52.57H94.974a10.889,10.889,0,0,0,10.314-7.43Z" transform="translate(-14.01 -45.14)" fill="#ffca6b"/>
            </g>
          </g>
          <g id="Grupo_1160252" data-name="Grupo 1160252" transform="translate(0.895 76.217)">
            <path id="Trazado_1013967" data-name="Trazado 1013967" d="M106.1,71.455H26.379A18.344,18.344,0,0,1,8.05,53.108V43.25A10.884,10.884,0,0,0,18.93,54.13H88.795A17.323,17.323,0,0,0,106.1,71.455Z" transform="translate(-8.05 -43.25)" fill="#d5dce5"/>
          </g>
          <g id="Grupo_1160253" data-name="Grupo 1160253" transform="translate(0.895 86.075)">
            <path id="Trazado_1013968" data-name="Trazado 1013968" d="M87.389,67v9.712H8.05V48.65A18.344,18.344,0,0,0,26.379,67Z" transform="translate(-8.05 -48.65)" fill="#f1f3f6"/>
          </g>
          <g id="Grupo_1160262" data-name="Grupo 1160262">
            <g id="Grupo_1160254" data-name="Grupo 1160254" transform="translate(37.114 0.895)">
              <path id="Trazado_1013969" data-name="Trazado 1013969" d="M32.892,4.491a2.5,2.5,0,1,1-2.5-2.5A2.493,2.493,0,0,1,32.892,4.491Z" transform="translate(-27.89 -1.99)" fill="#1d2121"/>
            </g>
            <g id="Grupo_1160255" data-name="Grupo 1160255" transform="translate(0 16.101)">
              <path id="Trazado_1013970" data-name="Trazado 1013970" d="M19.335,82.211A11.792,11.792,0,0,1,7.56,70.436V11.2a.876.876,0,0,1,.876-.876H87.794a.876.876,0,0,1,.876.876v62.69a.876.876,0,0,1-.876.876H30.27a11.74,11.74,0,0,1-10.935,7.448Zm-10-70.138V70.436a10.008,10.008,0,0,0,19.5,3.176.882.882,0,0,1,.84-.6H86.936V12.073Z" transform="translate(-7.56 -10.32)"/>
            </g>
            <g id="Grupo_1160257" data-name="Grupo 1160257" transform="translate(10.899 78.81)">
              <g id="Grupo_1160256" data-name="Grupo 1160256">
                <path id="Trazado_1013971" data-name="Trazado 1013971" d="M95.37,53.853H14.406a.876.876,0,1,1,0-1.753A9.995,9.995,0,0,0,23.9,45.272a.882.882,0,0,1,.84-.6H105.7a.89.89,0,0,1,.712.365.9.9,0,0,1,.128.8A11.791,11.791,0,0,1,95.37,53.853ZM20.613,52.082H95.37a10,10,0,0,0,9.018-5.659H25.341A11.817,11.817,0,0,1,20.613,52.082Z" transform="translate(-13.53 -44.67)"/>
              </g>
            </g>
            <g id="Grupo_1160258" data-name="Grupo 1160258" transform="translate(0 75.341)">
              <path id="Trazado_1013972" data-name="Trazado 1013972" d="M106.506,72.728H26.783A19.248,19.248,0,0,1,7.56,53.5V43.646a.876.876,0,0,1,1.753,0,10.019,10.019,0,0,0,10,10H89.181a.876.876,0,0,1,.876.876,16.455,16.455,0,0,0,16.43,16.43.876.876,0,0,1,.876.876A.844.844,0,0,1,106.506,72.728ZM9.331,49.853V53.5A17.475,17.475,0,0,0,26.783,70.957H98.692A18.228,18.228,0,0,1,88.341,55.421H19.335a11.78,11.78,0,0,1-10-5.568Z" transform="translate(-7.56 -42.77)"/>
            </g>
            <g id="Grupo_1160259" data-name="Grupo 1160259" transform="translate(0.018 85.199)">
              <path id="Trazado_1013973" data-name="Trazado 1013973" d="M87.785,77.981H8.446a.876.876,0,0,1-.876-.876V49.046a.876.876,0,1,1,1.753,0A17.475,17.475,0,0,0,26.775,66.5h61.01a.876.876,0,0,1,.876.876v9.712A.869.869,0,0,1,87.785,77.981ZM9.323,76.211H86.909V68.269H26.775A19.247,19.247,0,0,1,9.323,57.1Z" transform="translate(-7.57 -48.17)"/>
            </g>
            <g id="Grupo_1160260" data-name="Grupo 1160260" transform="translate(26.23)">
              <path id="Trazado_1013974" data-name="Trazado 1013974" d="M47.8,21.4a.871.871,0,0,1-.748-.42L36.7,4.056a1.57,1.57,0,0,0-1.387-.767,1.591,1.591,0,0,0-1.387.767L23.575,21a.889.889,0,1,1-1.515-.931L32.41,3.125a3.373,3.373,0,0,1,5.769,0L48.53,20.066a.889.889,0,0,1-.292,1.223A.821.821,0,0,1,47.8,21.4Z" transform="translate(-21.928 -1.5)"/>
            </g>
            <g id="Grupo_1160261" data-name="Grupo 1160261" transform="translate(36.219 0)">
              <path id="Trazado_1013975" data-name="Trazado 1013975" d="M30.8,8.273a3.386,3.386,0,1,1,3.4-3.377A3.4,3.4,0,0,1,30.8,8.273Zm0-5A1.625,1.625,0,1,0,32.42,4.9,1.628,1.628,0,0,0,30.8,3.271Z" transform="translate(-27.4 -1.5)"/>
            </g>
          </g>
        </g>
        <g id="Grupo_1160300" data-name="Grupo 1160300" transform="translate(14.659 25.868)">
          <g id="Grupo_1160280" data-name="Grupo 1160280" transform="translate(1.406 16.886)">
            <g id="Grupo_1160279" data-name="Grupo 1160279">
              <g id="Grupo_1160278" data-name="Grupo 1160278">
                <g id="Grupo_1160277" data-name="Grupo 1160277">
                  <g id="Grupo_1160276" data-name="Grupo 1160276">
                    <g id="Grupo_1160275" data-name="Grupo 1160275">
                      <g id="Grupo_1160274" data-name="Grupo 1160274">
                        <g id="Grupo_1160273" data-name="Grupo 1160273">
                          <g id="Grupo_1160272" data-name="Grupo 1160272">
                            <g id="Grupo_1160271" data-name="Grupo 1160271">
                              <g id="Grupo_1160264" data-name="Grupo 1160264" transform="translate(0.018 6.426)">
                                <path id="Trazado_1013976" data-name="Trazado 1013976" d="M26.575,29.754V52.172a1.309,1.309,0,0,1-1.314,1.314H17.684a1.309,1.309,0,0,1-1.314-1.314V29.754a1.309,1.309,0,0,1,1.314-1.314H25.26A1.321,1.321,0,0,1,26.575,29.754Z" transform="translate(-16.37 -28.44)" fill="#b9dd53"/>
                              </g>
                              <g id="Grupo_1160265" data-name="Grupo 1160265" transform="translate(19.625 13.911)">
                                <path id="Trazado_1013977" data-name="Trazado 1013977" d="M37.315,33.854V48.769A1.309,1.309,0,0,1,36,50.084H28.424a1.309,1.309,0,0,1-1.314-1.314V33.854a1.309,1.309,0,0,1,1.314-1.314H36a1.309,1.309,0,0,1,1.314,1.314Z" transform="translate(-27.11 -32.54)" fill="#ff9a9a"/>
                              </g>
                              <g id="Grupo_1160266" data-name="Grupo 1160266" transform="translate(38.793)">
                                <path id="Trazado_1013978" data-name="Trazado 1013978" d="M47.815,26.234V55.06A1.309,1.309,0,0,1,46.5,56.374H38.924A1.309,1.309,0,0,1,37.61,55.06V26.234a1.309,1.309,0,0,1,1.314-1.314H46.5A1.309,1.309,0,0,1,47.815,26.234Z" transform="translate(-37.61 -24.92)" fill="#726ad3"/>
                              </g>
                              <g id="Grupo_1160267" data-name="Grupo 1160267" transform="translate(38.793)">
                                <path id="Trazado_1013979" data-name="Trazado 1013979" d="M47.815,26.234V55.06A1.309,1.309,0,0,1,46.5,56.374H38.924A1.309,1.309,0,0,1,37.61,55.06V26.234a1.309,1.309,0,0,1,1.314-1.314H46.5A1.309,1.309,0,0,1,47.815,26.234Z" transform="translate(-37.61 -24.92)" fill="#726ad3"/>
                              </g>
                              <g id="Grupo_1160268" data-name="Grupo 1160268" transform="translate(38.793 10.168)">
                                <path id="Trazado_1013980" data-name="Trazado 1013980" d="M47.815,30.49V50.462A1.309,1.309,0,0,1,46.5,51.776H38.924a1.309,1.309,0,0,1-1.314-1.314s10.2-2.355,10.2-19.972Z" transform="translate(-37.61 -30.49)" fill="#564dc6"/>
                              </g>
                              <g id="Grupo_1160269" data-name="Grupo 1160269" transform="translate(0 10.168)">
                                <path id="Trazado_1013981" data-name="Trazado 1013981" d="M26.565,30.49V50.462a1.309,1.309,0,0,1-1.314,1.314H17.674a1.309,1.309,0,0,1-1.314-1.314s10.2-2.355,10.2-19.972Z" transform="translate(-16.36 -30.49)" fill="#a3c134"/>
                              </g>
                              <g id="Grupo_1160270" data-name="Grupo 1160270" transform="translate(19.625 17.617)">
                                <path id="Trazado_1013982" data-name="Trazado 1013982" d="M37.315,34.57V47.093A1.309,1.309,0,0,1,36,48.408H28.424a1.309,1.309,0,0,1-1.314-1.314s10.2-.347,10.2-12.523Z" transform="translate(-27.11 -34.57)" fill="#d86666"/>
                              </g>
                            </g>
                          </g>
                        </g>
                      </g>
                    </g>
                  </g>
                </g>
              </g>
            </g>
          </g>
          <g id="Grupo_1160285" data-name="Grupo 1160285" transform="translate(0.529 5.633)">
            <g id="Grupo_1160281" data-name="Grupo 1160281" transform="translate(38.793 10.359)">
              <path id="Trazado_1013983" data-name="Trazado 1013983" d="M46.9,57.674H39.321a2.2,2.2,0,0,1-2.191-2.209V26.639a2.213,2.213,0,0,1,2.191-2.209H46.9a2.2,2.2,0,0,1,2.191,2.209V55.465A2.2,2.2,0,0,1,46.9,57.674ZM39.321,26.2a.418.418,0,0,0-.42.438V55.465a.429.429,0,0,0,.42.438H46.9a.429.429,0,0,0,.42-.438V26.639a.429.429,0,0,0-.42-.438Z" transform="translate(-37.13 -24.43)"/>
            </g>
            <g id="Grupo_1160282" data-name="Grupo 1160282" transform="translate(19.643 24.288)">
              <path id="Trazado_1013984" data-name="Trazado 1013984" d="M36.407,51.374H28.831a2.2,2.2,0,0,1-2.191-2.209V34.251a2.2,2.2,0,0,1,2.191-2.191h7.576A2.2,2.2,0,0,1,38.6,34.251V49.166A2.2,2.2,0,0,1,36.407,51.374ZM28.812,33.813a.425.425,0,0,0-.42.42V49.147a.441.441,0,0,0,.42.438h7.576a.418.418,0,0,0,.42-.438V34.232a.425.425,0,0,0-.42-.42Z" transform="translate(-26.64 -32.06)"/>
            </g>
            <g id="Grupo_1160283" data-name="Grupo 1160283" transform="translate(0 16.785)">
              <path id="Trazado_1013985" data-name="Trazado 1013985" d="M25.647,54.768H18.071a2.2,2.2,0,0,1-2.191-2.209v-22.4a2.2,2.2,0,0,1,2.191-2.209h7.576a2.2,2.2,0,0,1,2.209,2.209V52.577A2.2,2.2,0,0,1,25.647,54.768ZM18.071,29.721a.429.429,0,0,0-.42.438V52.577a.441.441,0,0,0,.42.438h7.576a.444.444,0,0,0,.438-.438V30.159a.444.444,0,0,0-.438-.438Z" transform="translate(-15.88 -27.95)"/>
            </g>
            <g id="Grupo_1160284" data-name="Grupo 1160284" transform="translate(5.337)">
              <path id="Trazado_1013986" data-name="Trazado 1013986" d="M39.079,34.7a.791.791,0,0,1-.347-.073L19.345,26.394a.892.892,0,0,1,.694-1.643L38.952,32.8,57.7,18.928a.887.887,0,0,1,1.059,1.424L39.609,34.537a.951.951,0,0,1-.529.164Z" transform="translate(-18.803 -18.756)"/>
            </g>
          </g>
          <g id="Grupo_1160286" data-name="Grupo 1160286" transform="translate(20.501 15.061)">
            <path id="Trazado_1013987" data-name="Trazado 1013987" d="M38.1,29.561a5.641,5.641,0,1,1-5.641-5.641A5.633,5.633,0,0,1,38.1,29.561Z" transform="translate(-26.82 -23.92)" fill="#6bbeeb"/>
          </g>
          <g id="Grupo_1160287" data-name="Grupo 1160287" transform="translate(23.915 18.475)">
            <path id="Trazado_1013988" data-name="Trazado 1013988" d="M30.917,30.244a2.227,2.227,0,1,1,2.227-2.227A2.236,2.236,0,0,1,30.917,30.244Z" transform="translate(-28.69 -25.79)" fill="#56a7d2"/>
          </g>
          <g id="Grupo_1160288" data-name="Grupo 1160288" transform="translate(19.625 14.185)">
            <path id="Trazado_1013989" data-name="Trazado 1013989" d="M32.857,36.475a6.517,6.517,0,1,1,6.517-6.517A6.521,6.521,0,0,1,32.857,36.475Zm0-11.282A4.746,4.746,0,1,0,37.6,29.939a4.749,4.749,0,0,0-4.746-4.746Z" transform="translate(-26.34 -23.44)"/>
          </g>
          <g id="Grupo_1160289" data-name="Grupo 1160289" transform="translate(23.02 17.562)">
            <path id="Trazado_1013990" data-name="Trazado 1013990" d="M31.322,31.533a3.122,3.122,0,1,1,3.122-3.122A3.132,3.132,0,0,1,31.322,31.533Zm0-4.454a1.351,1.351,0,1,0,1.351,1.351A1.348,1.348,0,0,0,31.322,27.079Z" transform="translate(-28.2 -25.29)"/>
          </g>
          <g id="Grupo_1160290" data-name="Grupo 1160290" transform="translate(39.651 0.876)">
            <path id="Trazado_1013991" data-name="Trazado 1013991" d="M48.592,21.791a5.641,5.641,0,1,1-5.641-5.641A5.633,5.633,0,0,1,48.592,21.791Z" transform="translate(-37.31 -16.15)" fill="#ffca6b"/>
          </g>
          <g id="Grupo_1160291" data-name="Grupo 1160291" transform="translate(43.083 4.29)">
            <path id="Trazado_1013992" data-name="Trazado 1013992" d="M41.417,22.474a2.227,2.227,0,1,1,2.227-2.227A2.236,2.236,0,0,1,41.417,22.474Z" transform="translate(-39.19 -18.02)" fill="#f9b84e"/>
          </g>
          <g id="Grupo_1160292" data-name="Grupo 1160292" transform="translate(38.793)">
            <path id="Trazado_1013993" data-name="Trazado 1013993" d="M43.357,28.7a6.517,6.517,0,1,1,6.517-6.517A6.521,6.521,0,0,1,43.357,28.7Zm0-11.264A4.746,4.746,0,1,0,48.1,22.187,4.749,4.749,0,0,0,43.357,17.441Z" transform="translate(-36.84 -15.67)"/>
          </g>
          <g id="Grupo_1160293" data-name="Grupo 1160293" transform="translate(42.189 3.377)">
            <path id="Trazado_1013994" data-name="Trazado 1013994" d="M41.822,23.763a3.122,3.122,0,1,1,3.122-3.122,3.132,3.132,0,0,1-3.122,3.122Zm0-4.454a1.351,1.351,0,1,0,1.351,1.351A1.372,1.372,0,0,0,41.822,19.309Z" transform="translate(-38.7 -17.52)"/>
          </g>
          <g id="Grupo_1160294" data-name="Grupo 1160294" transform="translate(0.876 7.047)">
            <path id="Trazado_1013995" data-name="Trazado 1013995" d="M27.352,25.171a5.641,5.641,0,1,1-5.641-5.641A5.633,5.633,0,0,1,27.352,25.171Z" transform="translate(-16.07 -19.53)" fill="#ff9a9a"/>
          </g>
          <g id="Grupo_1160295" data-name="Grupo 1160295" transform="translate(4.29 10.46)">
            <path id="Trazado_1013996" data-name="Trazado 1013996" d="M20.167,25.854a2.227,2.227,0,1,1,2.227-2.227A2.236,2.236,0,0,1,20.167,25.854Z" transform="translate(-17.94 -21.4)" fill="#d86666"/>
          </g>
          <g id="Grupo_1160296" data-name="Grupo 1160296" transform="translate(0 6.17)">
            <path id="Trazado_1013997" data-name="Trazado 1013997" d="M22.107,32.085a6.517,6.517,0,1,1,6.517-6.517A6.521,6.521,0,0,1,22.107,32.085Zm0-11.264a4.746,4.746,0,1,0,4.746,4.746A4.749,4.749,0,0,0,22.107,20.821Z" transform="translate(-15.59 -19.05)"/>
          </g>
          <g id="Grupo_1160297" data-name="Grupo 1160297" transform="translate(3.396 9.566)">
            <path id="Trazado_1013998" data-name="Trazado 1013998" d="M20.572,27.153a3.122,3.122,0,1,1,3.122-3.122,3.132,3.132,0,0,1-3.122,3.122Zm0-4.473a1.351,1.351,0,1,0,1.351,1.351A1.348,1.348,0,0,0,20.572,22.681Z" transform="translate(-17.45 -20.91)"/>
          </g>
          <g id="Grupo_1160298" data-name="Grupo 1160298" transform="translate(42.755 29.793)">
            <path id="Trazado_1013999" data-name="Trazado 1013999" d="M39.886,35.148a.876.876,0,0,1-.876-.876V32.866a.876.876,0,0,1,.876-.876.888.888,0,0,1,.876.876v1.406A.865.865,0,0,1,39.886,35.148Z" transform="translate(-39.01 -31.99)" fill="#fff"/>
          </g>
          <g id="Grupo_1160299" data-name="Grupo 1160299" transform="translate(42.755 21.012)">
            <path id="Trazado_1014000" data-name="Trazado 1014000" d="M39.886,34.61a.876.876,0,0,1-.876-.876V28.056a.876.876,0,0,1,.876-.876.888.888,0,0,1,.876.876v5.678A.865.865,0,0,1,39.886,34.61Z" transform="translate(-39.01 -27.18)" fill="#fff"/>
          </g>
        </g>
        <g id="Grupo_1160301" data-name="Grupo 1160301" transform="translate(6.554 22.71)">
          <path id="Trazado_1014001" data-name="Trazado 1014001" d="M20.862,15.693H12.026a.876.876,0,0,1,0-1.753h8.836a.876.876,0,0,1,0,1.753Z" transform="translate(-11.15 -13.94)"/>
        </g>
        <g id="Grupo_1160302" data-name="Grupo 1160302" transform="translate(28.643 27.566)">
          <path id="Trazado_1014002" data-name="Trazado 1014002" d="M27.431,18.353h-3.3a.876.876,0,0,1-.876-.876.888.888,0,0,1,.876-.876h3.3a.876.876,0,0,1,.876.876A.888.888,0,0,1,27.431,18.353Z" transform="translate(-23.25 -16.6)"/>
        </g>
        <g id="Grupo_1160303" data-name="Grupo 1160303" transform="translate(6.554 27.566)">
          <path id="Trazado_1014003" data-name="Trazado 1014003" d="M30.264,18.353H12.026a.876.876,0,0,1-.876-.876.888.888,0,0,1,.876-.876H30.264a.876.876,0,0,1,0,1.753Z" transform="translate(-11.15 -16.6)"/>
        </g>
      </g>
    </g>
    <g id="Grupo_1160311" data-name="Grupo 1160311" transform="translate(1.51 4.275)">
      <g id="Grupo_1160306" data-name="Grupo 1160306" transform="translate(4.669 4.669)">
        <path id="Trazado_1014004" data-name="Trazado 1014004" d="M10.1,12.483a.9.9,0,0,1-.621-.256L4.328,7.1a.891.891,0,0,1,1.26-1.26l5.13,5.13a.892.892,0,0,1,0,1.26.827.827,0,0,1-.621.256Z" transform="translate(-4.068 -5.577)"/>
      </g>
      <g id="Grupo_1160309" data-name="Grupo 1160309">
        <g id="Grupo_1160307" data-name="Grupo 1160307" transform="translate(0 13.436)">
          <path id="Trazado_1014005" data-name="Trazado 1014005" d="M2.386,12.133a.876.876,0,0,1-.876-.876.888.888,0,0,1,.876-.876H8.611a.876.876,0,1,1,0,1.753Z" transform="translate(-1.51 -10.38)"/>
        </g>
        <g id="Grupo_1160308" data-name="Grupo 1160308" transform="translate(13.418)">
          <path id="Trazado_1014006" data-name="Trazado 1014006" d="M9.736,11a.876.876,0,0,1-.876-.876V3.9a.876.876,0,1,1,1.753,0v6.225A.876.876,0,0,1,9.736,11Z" transform="translate(-8.86 -3.02)"/>
        </g>
      </g>
      <g id="Grupo_1160310" data-name="Grupo 1160310" transform="translate(1.365 1.365)">
        <path id="Trazado_1014007" data-name="Trazado 1014007" d="M4.088,6.492a.9.9,0,0,1-.621-.256l-.949-.949a.891.891,0,1,1,1.26-1.26l.931.949a.892.892,0,0,1,0,1.26A.869.869,0,0,1,4.088,6.492Z" transform="translate(-2.258 -3.768)"/>
      </g>
    </g>
  </g>
</svg>
