<svg xmlns="http://www.w3.org/2000/svg" xmlns:xlink="http://www.w3.org/1999/xlink" width="121" height="125" viewBox="0 0 121 125">
  <defs>
    <filter id="Elipse_12785" x="0" y="0" width="121" height="125" filterUnits="userSpaceOnUse">
      <feOffset dy="3" input="SourceAlpha"/>
      <feGaussianBlur stdDeviation="3" result="blur"/>
      <feFlood flood-opacity="0.161"/>
      <feComposite operator="in" in2="blur"/>
      <feComposite in="SourceGraphic"/>
    </filter>
  </defs>
  <g id="Grupo_1163286" data-name="Grupo 1163286" transform="translate(-593.025 -7040.27)">
    <g transform="matrix(1, 0, 0, 1, 593.03, 7040.27)" filter="url(#Elipse_12785)">
      <ellipse id="Elipse_12785-2" data-name="Elipse 12785" cx="51.5" cy="53.5" rx="51.5" ry="53.5" transform="translate(9 6)" fill="#fff"/>
    </g>
    <g id="idea-ecologica" transform="translate(620.385 7060.339)">
      <g id="Grupo_1161164" data-name="Grupo 1161164">
        <g id="Grupo_1161152" data-name="Grupo 1161152">
          <g id="Grupo_1161122" data-name="Grupo 1161122">
            <path id="Trazado_1015734" data-name="Trazado 1015734" d="M38.12,60.51H28.19a3.436,3.436,0,0,0,3.43,3.43h3.07A3.429,3.429,0,0,0,38.12,60.51Z" fill="#252b2b"/>
          </g>
          <g id="Grupo_1161123" data-name="Grupo 1161123">
            <path id="Trazado_1015735" data-name="Trazado 1015735" d="M42.08,56.22v2.81a1.477,1.477,0,0,1-1.48,1.48H25.71a1.477,1.477,0,0,1-1.48-1.48V56.22Z" fill="#323535"/>
          </g>
          <g id="Grupo_1161124" data-name="Grupo 1161124">
            <path id="Trazado_1015736" data-name="Trazado 1015736" d="M24.23,56.22H42.08v1.62H24.23Z" fill="#252b2b"/>
          </g>
          <g id="Grupo_1161125" data-name="Grupo 1161125">
            <path id="Trazado_1015737" data-name="Trazado 1015737" d="M43.68,51.86v3.38a.992.992,0,0,1-.99.99H23.62a.992.992,0,0,1-.99-.99V51.86a.992.992,0,0,1,.99-.99H42.7a1,1,0,0,1,.98.99Z" fill="#323535"/>
          </g>
          <g id="Grupo_1161126" data-name="Grupo 1161126">
            <path id="Trazado_1015738" data-name="Trazado 1015738" d="M47.53,40.02c-.27.46-.59.9-.91,1.34a21.18,21.18,0,0,0-3.12,6.23l-.84,3.29H23.65l-.84-3.29a20.966,20.966,0,0,0-2.12-4.72c-.31-.51-.64-1.02-1-1.51a13.712,13.712,0,0,1-.91-1.34c-8.7-14.68,1.84-27.54,14.38-27.54a17.952,17.952,0,0,1,13.91,6.51C51.24,24.14,52.41,31.79,47.53,40.02Z" fill="#ffca6b"/>
          </g>
          <g id="Grupo_1161127" data-name="Grupo 1161127">
            <path id="Trazado_1015739" data-name="Trazado 1015739" d="M35.13,51.36H31.19a.48.48,0,0,1-.48-.48V36.06a.48.48,0,0,1,.48-.48h3.94a.48.48,0,0,1,.48.48V50.88A.487.487,0,0,1,35.13,51.36Zm-3.46-.97h2.98V36.54H31.67Z"/>
          </g>
          <g id="Grupo_1161147" data-name="Grupo 1161147">
            <g id="Grupo_1161130" data-name="Grupo 1161130">
              <g id="Grupo_1161128" data-name="Grupo 1161128">
                <path id="Trazado_1015740" data-name="Trazado 1015740" d="M28.84,17.13a.471.471,0,0,1-.46-.34.476.476,0,0,1,.32-.6c.34-.1.68-.19,1.03-.27a.483.483,0,0,1,.22.94c-.32.07-.64.16-.96.25a.389.389,0,0,1-.15.02Z" fill="#fff"/>
              </g>
              <g id="Grupo_1161129" data-name="Grupo 1161129">
                <path id="Trazado_1015741" data-name="Trazado 1015741" d="M22.7,20.89a.46.46,0,0,1-.33-.13.486.486,0,0,1-.02-.68,14.2,14.2,0,0,1,3.96-2.93.483.483,0,0,1,.44.86,13.305,13.305,0,0,0-3.69,2.73.544.544,0,0,1-.36.15Z" fill="#fff"/>
              </g>
            </g>
            <g id="Grupo_1161146" data-name="Grupo 1161146">
              <g id="Grupo_1161141" data-name="Grupo 1161141">
                <g id="Grupo_1161132" data-name="Grupo 1161132">
                  <g id="Grupo_1161131" data-name="Grupo 1161131">
                    <path id="Trazado_1015742" data-name="Trazado 1015742" d="M22.94,12.12a.5.5,0,0,1-.44-.27L20.69,8.08a.488.488,0,1,1,.88-.42l1.81,3.77a.489.489,0,0,1-.23.65A.779.779,0,0,1,22.94,12.12Z"/>
                  </g>
                </g>
                <g id="Grupo_1161134" data-name="Grupo 1161134">
                  <g id="Grupo_1161133" data-name="Grupo 1161133">
                    <path id="Trazado_1015743" data-name="Trazado 1015743" d="M10.2,28.09a.41.41,0,0,1-.11-.01l-4.08-.93a.483.483,0,0,1,.22-.94l4.08.93a.481.481,0,0,1-.11.95Z"/>
                  </g>
                </g>
                <g id="Grupo_1161136" data-name="Grupo 1161136">
                  <g id="Grupo_1161135" data-name="Grupo 1161135">
                    <path id="Trazado_1015744" data-name="Trazado 1015744" d="M33.15,9.78a.48.48,0,0,1-.48-.48V2.06a.48.48,0,1,1,.96,0V9.3A.468.468,0,0,1,33.15,9.78Z"/>
                  </g>
                </g>
                <g id="Grupo_1161138" data-name="Grupo 1161138">
                  <g id="Grupo_1161137" data-name="Grupo 1161137">
                    <path id="Trazado_1015745" data-name="Trazado 1015745" d="M14.75,18.65a.43.43,0,0,1-.3-.11L8.78,14.02a.484.484,0,0,1,.6-.76l5.67,4.52a.49.49,0,0,1,.08.68A.473.473,0,0,1,14.75,18.65Z"/>
                  </g>
                </g>
                <g id="Grupo_1161140" data-name="Grupo 1161140">
                  <g id="Grupo_1161139" data-name="Grupo 1161139">
                    <path id="Trazado_1015746" data-name="Trazado 1015746" d="M43.37,12.12a.537.537,0,0,1-.21-.05.494.494,0,0,1-.23-.65l1.81-3.77a.488.488,0,0,1,.88.42l-1.81,3.77a.49.49,0,0,1-.44.28Z"/>
                  </g>
                </g>
              </g>
              <g id="Grupo_1161143" data-name="Grupo 1161143">
                <g id="Grupo_1161142" data-name="Grupo 1161142">
                  <path id="Trazado_1015747" data-name="Trazado 1015747" d="M51.56,18.65a.493.493,0,0,1-.38-.18.481.481,0,0,1,.08-.68l5.67-4.52a.484.484,0,1,1,.6.76l-5.67,4.52A.453.453,0,0,1,51.56,18.65Z"/>
                </g>
              </g>
              <g id="Grupo_1161145" data-name="Grupo 1161145">
                <g id="Grupo_1161144" data-name="Grupo 1161144">
                  <path id="Trazado_1015748" data-name="Trazado 1015748" d="M56.11,28.09a.487.487,0,0,1-.11-.96l4.08-.93a.483.483,0,1,1,.22.94l-4.08.93a.215.215,0,0,1-.11.02Z"/>
                </g>
              </g>
            </g>
          </g>
          <g id="Grupo_1161148" data-name="Grupo 1161148">
            <path id="Trazado_1015749" data-name="Trazado 1015749" d="M42.67,51.36H23.65a.492.492,0,0,1-.47-.36l-.84-3.29a20.861,20.861,0,0,0-2.06-4.59c-.32-.53-.64-1.01-.98-1.47s-.65-.9-.94-1.37C14.4,33.59,14.02,26.74,17.29,21a18.182,18.182,0,0,1,15.87-9,18.545,18.545,0,0,1,14.29,6.69c4.81,5.93,5,14,.5,21.58a16.19,16.19,0,0,1-.92,1.36,20.858,20.858,0,0,0-3.06,6.11L43.13,51a.472.472,0,0,1-.46.36ZM24.02,50.4H42.29l.74-2.93a21.535,21.535,0,0,1,3.2-6.39,12.931,12.931,0,0,0,.88-1.3c4.28-7.22,4.12-14.88-.42-20.48a17.535,17.535,0,0,0-13.53-6.34,17.22,17.22,0,0,0-15.02,8.51C15.05,26.9,15.42,33.4,19.2,39.78c.26.43.57.86.87,1.27.37.51.71,1.01,1.04,1.57a21.953,21.953,0,0,1,2.17,4.83Z"/>
          </g>
          <g id="Grupo_1161149" data-name="Grupo 1161149">
            <path id="Trazado_1015750" data-name="Trazado 1015750" d="M42.7,56.71H23.62a1.472,1.472,0,0,1-1.47-1.47V51.86a1.472,1.472,0,0,1,1.47-1.47H42.7a1.472,1.472,0,0,1,1.47,1.47v3.38A1.479,1.479,0,0,1,42.7,56.71ZM23.62,51.36a.5.5,0,0,0-.5.5v3.38a.5.5,0,0,0,.5.5H42.7a.5.5,0,0,0,.5-.5V51.86a.5.5,0,0,0-.5-.5Z"/>
          </g>
          <g id="Grupo_1161150" data-name="Grupo 1161150">
            <path id="Trazado_1015751" data-name="Trazado 1015751" d="M40.6,61H25.71a1.963,1.963,0,0,1-1.96-1.96V56.23a.48.48,0,0,1,.48-.48H42.07a.48.48,0,0,1,.48.48v2.81A1.948,1.948,0,0,1,40.6,61ZM24.72,56.71v2.33a.992.992,0,0,0,.99.99H40.6a.992.992,0,0,0,.99-.99V56.71Z"/>
          </g>
          <g id="Grupo_1161151" data-name="Grupo 1161151">
            <path id="Trazado_1015752" data-name="Trazado 1015752" d="M34.69,64.43H31.62a3.916,3.916,0,0,1-3.91-3.91.48.48,0,0,1,.48-.48h9.93a.48.48,0,0,1,.48.48A3.916,3.916,0,0,1,34.69,64.43ZM28.72,61a2.947,2.947,0,0,0,2.91,2.46H34.7A2.956,2.956,0,0,0,37.61,61Z"/>
          </g>
        </g>
        <g id="Grupo_1161163" data-name="Grupo 1161163">
          <g id="Grupo_1161162" data-name="Grupo 1161162">
            <g id="Grupo_1161153" data-name="Grupo 1161153">
              <path id="Trazado_1015753" data-name="Trazado 1015753" d="M36.06,39.62c2.36-5.46,2.47-9.89-1.2-12.6a8.77,8.77,0,0,0-5.02-1.66,14.694,14.694,0,0,0-11.87,4.88c3.42-1.09,5.81-.49,7,2.14,1.87,5.12,5.5,7.64,11.09,7.24Z" fill="#b9dd53"/>
            </g>
            <g id="Grupo_1161154" data-name="Grupo 1161154">
              <path id="Trazado_1015754" data-name="Trazado 1015754" d="M46.38,31.55a7.675,7.675,0,0,0-2.92,4,5.924,5.924,0,0,1-2.59,3.03,9.886,9.886,0,0,1-4.81,1.04c1.79-4.14,2.28-7.68.82-10.34,5.06-.57,7.76.14,9.5,2.27Z" fill="#b9dd53"/>
            </g>
            <g id="Grupo_1161155" data-name="Grupo 1161155">
              <path id="Trazado_1015755" data-name="Trazado 1015755" d="M40.99,29.13c-.01,7.39-4.74,10.37-4.92,10.49,1.78-4.14,2.28-7.68.82-10.34a22.829,22.829,0,0,1,4.1-.15Z" fill="#a3c134"/>
            </g>
            <g id="Grupo_1161161" data-name="Grupo 1161161">
              <g id="Grupo_1161160" data-name="Grupo 1161160">
                <g id="Grupo_1161156" data-name="Grupo 1161156">
                  <path id="Trazado_1015756" data-name="Trazado 1015756" d="M34.94,40.14c-5.07,0-8.57-2.55-10.43-7.61-1.02-2.28-3.12-2.89-6.4-1.84a.475.475,0,0,1-.55-.2.482.482,0,0,1,.05-.59,15.26,15.26,0,0,1,12.24-5.03,9.189,9.189,0,0,1,5.3,1.75c3.6,2.66,4.05,6.97,1.36,13.18a.469.469,0,0,1-.41.29c-.4.04-.79.05-1.16.05ZM20.88,29.23a4.614,4.614,0,0,1,4.52,2.94c1.84,4.98,5.21,7.26,10.33,6.98,2.35-5.59,1.97-9.44-1.16-11.75a8.253,8.253,0,0,0-4.75-1.56,14.421,14.421,0,0,0-10.26,3.5,8.81,8.81,0,0,1,1.32-.11Z"/>
                </g>
                <g id="Grupo_1161157" data-name="Grupo 1161157">
                  <path id="Trazado_1015757" data-name="Trazado 1015757" d="M36.06,40.1a.473.473,0,0,1-.4-.22.5.5,0,0,1-.04-.46c1.86-4.31,2.14-7.55.84-9.91a.5.5,0,0,1-.01-.46.483.483,0,0,1,.38-.26c5.16-.58,8.03.13,9.92,2.44a.46.46,0,0,1,.1.39.5.5,0,0,1-.23.33,7.261,7.261,0,0,0-2.71,3.76,6.342,6.342,0,0,1-2.81,3.27,10.029,10.029,0,0,1-5.04,1.12Zm1.56-10.41c1.03,2.42.75,5.51-.83,9.43a8.651,8.651,0,0,0,3.84-.96,5.407,5.407,0,0,0,2.38-2.78,8.8,8.8,0,0,1,2.64-3.92c-1.59-1.62-3.99-2.14-8.03-1.77Z"/>
                </g>
                <g id="Grupo_1161158" data-name="Grupo 1161158">
                  <path id="Trazado_1015758" data-name="Trazado 1015758" d="M27.75,30.26a.772.772,0,0,1-.15-.02c-.19-.06-.39-.12-.59-.18a.482.482,0,0,1,.25-.93c.22.06.43.12.64.19a.482.482,0,0,1-.15.94Z"/>
                </g>
                <g id="Grupo_1161159" data-name="Grupo 1161159">
                  <path id="Trazado_1015759" data-name="Trazado 1015759" d="M36.06,40.1a.492.492,0,0,1-.48-.41c-.01-.06-.97-5.87-6.13-8.66a.5.5,0,0,1-.2-.66.488.488,0,0,1,.66-.19,13.786,13.786,0,0,1,6.63,9.36.484.484,0,0,1-.4.55.249.249,0,0,1-.08.01Z"/>
                </g>
              </g>
            </g>
          </g>
        </g>
      </g>
      <g id="Grupo_1161170" data-name="Grupo 1161170">
        <g id="Grupo_1161165" data-name="Grupo 1161165">
          <path id="Trazado_1015760" data-name="Trazado 1015760" d="M64.1,46.59a26.953,26.953,0,0,1-4.51,14.08,26.953,26.953,0,0,1-4.51-14.08,26.953,26.953,0,0,1,4.51-14.08A26.953,26.953,0,0,1,64.1,46.59Z" fill="#b9dd53"/>
        </g>
        <g id="Grupo_1161166" data-name="Grupo 1161166">
          <path id="Trazado_1015761" data-name="Trazado 1015761" d="M59.59,64.43a.48.48,0,0,1-.48-.48V54.71a.48.48,0,0,1,.48-.48.487.487,0,0,1,.48.48v9.24A.487.487,0,0,1,59.59,64.43Z"/>
        </g>
        <g id="Grupo_1161167" data-name="Grupo 1161167">
          <path id="Trazado_1015762" data-name="Trazado 1015762" d="M59.59,61.15a.488.488,0,0,1-.39-.2,27.142,27.142,0,0,1-4.6-14.36,27.142,27.142,0,0,1,4.6-14.36.51.51,0,0,1,.79,0,27.142,27.142,0,0,1,4.6,14.36,27.142,27.142,0,0,1-4.6,14.36.507.507,0,0,1-.4.2Zm0-27.76a26.529,26.529,0,0,0-4.03,13.2,26.529,26.529,0,0,0,4.03,13.2,26.529,26.529,0,0,0,4.03-13.2A26.529,26.529,0,0,0,59.59,33.39Z"/>
        </g>
        <g id="Grupo_1161168" data-name="Grupo 1161168">
          <path id="Trazado_1015763" data-name="Trazado 1015763" d="M57.81,41.15a.675.675,0,0,1-.14-.02.486.486,0,0,1-.33-.6c.09-.3.18-.6.28-.88a.484.484,0,1,1,.92.3c-.09.28-.18.56-.27.85a.46.46,0,0,1-.46.35Z" fill="#fff"/>
        </g>
        <g id="Grupo_1161169" data-name="Grupo 1161169">
          <path id="Trazado_1015764" data-name="Trazado 1015764" d="M56.92,47.07a.48.48,0,0,1-.48-.48,20.8,20.8,0,0,1,.44-4.16.484.484,0,1,1,.95.19,19.546,19.546,0,0,0-.42,3.96A.5.5,0,0,1,56.92,47.07Z" fill="#fff"/>
        </g>
      </g>
      <g id="Grupo_1161176" data-name="Grupo 1161176">
        <g id="Grupo_1161171" data-name="Grupo 1161171">
          <path id="Trazado_1015765" data-name="Trazado 1015765" d="M2.21,46.59A26.953,26.953,0,0,0,6.72,60.67a26.953,26.953,0,0,0,4.51-14.08A26.953,26.953,0,0,0,6.72,32.51,26.953,26.953,0,0,0,2.21,46.59Z" fill="#b9dd53"/>
        </g>
        <g id="Grupo_1161172" data-name="Grupo 1161172">
          <path id="Trazado_1015766" data-name="Trazado 1015766" d="M6.72,64.43a.48.48,0,0,1-.48-.48V54.71a.48.48,0,0,1,.96,0v9.24A.474.474,0,0,1,6.72,64.43Z"/>
        </g>
        <g id="Grupo_1161173" data-name="Grupo 1161173">
          <path id="Trazado_1015767" data-name="Trazado 1015767" d="M6.72,61.15a.488.488,0,0,1-.39-.2,27.142,27.142,0,0,1-4.6-14.36,27.142,27.142,0,0,1,4.6-14.36.51.51,0,0,1,.79,0,27.142,27.142,0,0,1,4.6,14.36,27.142,27.142,0,0,1-4.6,14.36.493.493,0,0,1-.4.2Zm0-27.76a26.529,26.529,0,0,0-4.03,13.2,26.529,26.529,0,0,0,4.03,13.2,26.529,26.529,0,0,0,4.03-13.2A26.426,26.426,0,0,0,6.72,33.39Z"/>
        </g>
        <g id="Grupo_1161174" data-name="Grupo 1161174">
          <path id="Trazado_1015768" data-name="Trazado 1015768" d="M8.5,41.15a.48.48,0,0,1-.46-.35c-.08-.29-.17-.57-.27-.85a.484.484,0,1,1,.92-.3c.1.29.19.58.28.88a.478.478,0,0,1-.33.6.364.364,0,0,1-.14.02Z" fill="#fff"/>
        </g>
        <g id="Grupo_1161175" data-name="Grupo 1161175">
          <path id="Trazado_1015769" data-name="Trazado 1015769" d="M9.39,47.07a.48.48,0,0,1-.48-.48,19.546,19.546,0,0,0-.42-3.96.484.484,0,1,1,.95-.19,20.726,20.726,0,0,1,.44,4.16.494.494,0,0,1-.49.47Z" fill="#fff"/>
        </g>
      </g>
      <g id="Grupo_1161177" data-name="Grupo 1161177">
        <path id="Trazado_1015770" data-name="Trazado 1015770" d="M2.87,64.43H1.9a.48.48,0,1,1,0-.96h.97a.48.48,0,0,1,.48.48A.487.487,0,0,1,2.87,64.43Z"/>
      </g>
      <g id="Grupo_1161178" data-name="Grupo 1161178">
        <path id="Trazado_1015771" data-name="Trazado 1015771" d="M60.83,64.43H5.17a.48.48,0,1,1,0-.96H60.82a.48.48,0,0,1,.48.48A.472.472,0,0,1,60.83,64.43Z"/>
      </g>
      <g id="Grupo_1161179" data-name="Grupo 1161179">
        <path id="Trazado_1015772" data-name="Trazado 1015772" d="M64.1,64.43h-.97a.48.48,0,1,1,0-.96h.97a.48.48,0,1,1,0,.96Z"/>
      </g>
      <g id="Grupo_1161186" data-name="Grupo 1161186">
        <g id="Grupo_1161184" data-name="Grupo 1161184">
          <g id="Grupo_1161180" data-name="Grupo 1161180">
            <path id="Trazado_1015773" data-name="Trazado 1015773" d="M7.11,63.94H31.3a4.408,4.408,0,0,0-8.04-2.5H23.2a1.558,1.558,0,0,0-1.28-.66,1.513,1.513,0,0,0-.87.26,3.954,3.954,0,0,0,.09-.85,4.292,4.292,0,0,0-8.46-1.02c-.49-.78-1.24-1.66-2-1.29-.39.19-.2.96.12,1.73A1.594,1.594,0,0,0,9.21,61.2v.27a2.5,2.5,0,0,0-2.1,2.47Z" fill="#b9dd53"/>
          </g>
          <g id="Grupo_1161181" data-name="Grupo 1161181">
            <path id="Trazado_1015774" data-name="Trazado 1015774" d="M7.1,63.94H31.28a4.47,4.47,0,0,0-.31-1.64,4.413,4.413,0,0,0-7.73-.86h-.06a1.558,1.558,0,0,0-1.28-.66,1.525,1.525,0,0,0-.88.27,3.979,3.979,0,0,0,.09-.86,4.292,4.292,0,0,0-8.46-1.02c-.49-.78-1.24-1.66-2-1.29-.38.19-.2.96.12,1.73A1.588,1.588,0,0,0,9.18,61.2v.27a2.992,2.992,0,0,0-.32.08A2.522,2.522,0,0,0,7.1,63.94Z" fill="#b9dd53"/>
          </g>
          <g id="Grupo_1161182" data-name="Grupo 1161182">
            <path id="Trazado_1015775" data-name="Trazado 1015775" d="M7.1,63.94H31.28a4.47,4.47,0,0,0-.31-1.64.735.735,0,0,1-.13-.07s-13.78.64-21.97-.68A2.518,2.518,0,0,0,7.1,63.94Z" fill="#a3c134"/>
          </g>
          <g id="Grupo_1161183" data-name="Grupo 1161183">
            <path id="Trazado_1015776" data-name="Trazado 1015776" d="M11.17,60.82a.474.474,0,0,1-.39-.2,2.461,2.461,0,0,1-.46-.87.482.482,0,0,1,.93-.25,1.712,1.712,0,0,0,.3.56.49.49,0,0,1-.1.68.566.566,0,0,1-.28.08Z" fill="#050505"/>
          </g>
        </g>
        <g id="Grupo_1161185" data-name="Grupo 1161185">
          <path id="Trazado_1015777" data-name="Trazado 1015777" d="M31.29,64.43H7.1a.48.48,0,0,1-.48-.48,2.961,2.961,0,0,1,2.1-2.85,2.085,2.085,0,0,1,1.41-1.86c-.2-.62-.34-1.47.32-1.79.49-.24,1.21-.27,2.06.69a4.775,4.775,0,0,1,9.09,2.04v.13a2.122,2.122,0,0,1,1.58.42,4.9,4.9,0,0,1,8.6,3.21A.5.5,0,0,1,31.29,64.43ZM7.65,63.46H30.78a3.819,3.819,0,0,0-.25-.98,3.926,3.926,0,0,0-6.88-.77.488.488,0,0,1-.4.21h-.06a.488.488,0,0,1-.4-.21,1.113,1.113,0,0,0-1.49-.27.483.483,0,0,1-.54,0,.5.5,0,0,1-.2-.51,3.52,3.52,0,0,0,.08-.75,3.8,3.8,0,0,0-7.5-.9.483.483,0,0,1-.88.15c-.19-.31-.84-1.27-1.32-1.13a2.693,2.693,0,0,0,.3,1.14.478.478,0,0,1-.04.45.488.488,0,0,1-.4.21,1.105,1.105,0,0,0-1.1,1.11v.27a.493.493,0,0,1-.41.48,1.828,1.828,0,0,0-.25.06,1.967,1.967,0,0,0-1.39,1.44Z"/>
        </g>
      </g>
      <g id="Grupo_1161193" data-name="Grupo 1161193">
        <g id="Grupo_1161191" data-name="Grupo 1161191">
          <g id="Grupo_1161187" data-name="Grupo 1161187">
            <path id="Trazado_1015778" data-name="Trazado 1015778" d="M59.59,63.94H35.4a4.408,4.408,0,0,1,8.04-2.5h.06a1.558,1.558,0,0,1,1.28-.66,1.513,1.513,0,0,1,.87.26,3.953,3.953,0,0,1-.09-.85,4.292,4.292,0,0,1,8.46-1.02c.49-.78,1.24-1.66,2-1.29.39.19.2.96-.12,1.73a1.594,1.594,0,0,1,1.59,1.59v.27a2.513,2.513,0,0,1,2.1,2.47Z" fill="#b9dd53"/>
          </g>
          <g id="Grupo_1161188" data-name="Grupo 1161188">
            <path id="Trazado_1015779" data-name="Trazado 1015779" d="M59.59,63.94H35.4a4.47,4.47,0,0,1,.31-1.64,4.413,4.413,0,0,1,7.73-.86h.06a1.558,1.558,0,0,1,1.28-.66,1.525,1.525,0,0,1,.88.27,3.979,3.979,0,0,1-.09-.86,4.292,4.292,0,0,1,8.46-1.02c.49-.78,1.24-1.66,2-1.29.38.19.2.96-.12,1.73A1.588,1.588,0,0,1,57.5,61.2v.27a2.991,2.991,0,0,1,.32.08,2.506,2.506,0,0,1,1.77,2.39Z" fill="#b9dd53"/>
          </g>
          <g id="Grupo_1161189" data-name="Grupo 1161189">
            <path id="Trazado_1015780" data-name="Trazado 1015780" d="M59.59,63.94H35.4a4.47,4.47,0,0,1,.31-1.64.735.735,0,0,0,.13-.07s13.78.64,21.97-.68a2.5,2.5,0,0,1,1.78,2.39Z" fill="#a3c134"/>
          </g>
          <g id="Grupo_1161190" data-name="Grupo 1161190">
            <path id="Trazado_1015781" data-name="Trazado 1015781" d="M55.53,60.82a.468.468,0,0,1-.28-.09.492.492,0,0,1-.11-.68,1.393,1.393,0,0,0,.3-.56.482.482,0,1,1,.93.25,2.461,2.461,0,0,1-.46.87.443.443,0,0,1-.38.21Z" fill="#050505"/>
          </g>
        </g>
        <g id="Grupo_1161192" data-name="Grupo 1161192">
          <path id="Trazado_1015782" data-name="Trazado 1015782" d="M59.59,64.43H35.4a.48.48,0,0,1-.48-.48,5.111,5.111,0,0,1,.34-1.82,4.9,4.9,0,0,1,8.25-1.39,2.08,2.08,0,0,1,1.58-.42v-.13a4.775,4.775,0,0,1,9.09-2.04c.85-.97,1.57-.94,2.06-.69.66.32.52,1.17.32,1.79a2.075,2.075,0,0,1,1.41,1.86,2.961,2.961,0,0,1,2.1,2.85.485.485,0,0,1-.48.47Zm-23.67-.97H59.05a2.011,2.011,0,0,0-1.37-1.44,1.289,1.289,0,0,0-.25-.06.484.484,0,0,1-.41-.48v-.27a1.105,1.105,0,0,0-1.1-1.11.488.488,0,0,1-.4-.21.452.452,0,0,1-.04-.45,2.663,2.663,0,0,0,.3-1.14c-.48-.14-1.13.82-1.32,1.13a.483.483,0,0,1-.88-.15,3.8,3.8,0,0,0-7.5.9,3.52,3.52,0,0,0,.08.75.494.494,0,0,1-.2.51.483.483,0,0,1-.54,0,1.123,1.123,0,0,0-1.49.27.488.488,0,0,1-.4.21h-.06a.488.488,0,0,1-.4-.21,3.926,3.926,0,0,0-6.88.77,3.188,3.188,0,0,0-.27.98Z"/>
        </g>
      </g>
    </g>
  </g>
</svg>
