<svg id="datos-en-la-nube" xmlns="http://www.w3.org/2000/svg" width="106.759" height="96.456" viewBox="0 0 106.759 96.456">
  <g id="Grupo_1162471" data-name="Grupo 1162471" transform="translate(13.76 71.935)">
    <path id="Trazado_1019332" data-name="Trazado 1019332" d="M86.436,50.227V67.444A3.236,3.236,0,0,1,83.2,70.68H12.857A3.236,3.236,0,0,1,9.62,67.444V50.227a3.236,3.236,0,0,1,3.237-3.237H83.2A3.236,3.236,0,0,1,86.436,50.227Z" transform="translate(-9.62 -46.99)" fill="#c6d0e0"/>
  </g>
  <g id="Grupo_1162472" data-name="Grupo 1162472" transform="translate(2.254 71.935)">
    <path id="Trazado_1019333" data-name="Trazado 1019333" d="M79.646,50.227V67.444a3.236,3.236,0,0,1-3.237,3.237H6.067A3.236,3.236,0,0,1,2.83,67.444V50.227A3.236,3.236,0,0,1,6.067,46.99H76.409A3.236,3.236,0,0,1,79.646,50.227Z" transform="translate(-2.83 -46.99)" fill="#f1f3f6"/>
  </g>
  <g id="Grupo_1162473" data-name="Grupo 1162473" transform="translate(0 94.829)">
    <path id="Trazado_1019334" data-name="Trazado 1019334" d="M2.432,62.127H2.313a.813.813,0,1,1,0-1.627h.119a.814.814,0,0,1,.813.813A.8.8,0,0,1,2.432,62.127Z" transform="translate(-1.5 -60.5)"/>
  </g>
  <g id="Grupo_1162474" data-name="Grupo 1162474" transform="translate(2.186 94.829)">
    <path id="Trazado_1019335" data-name="Trazado 1019335" d="M94.942,62.127H3.6a.813.813,0,1,1,0-1.627H94.942a.814.814,0,0,1,.813.813A.8.8,0,0,1,94.942,62.127Z" transform="translate(-2.79 -60.5)"/>
  </g>
  <g id="Grupo_1162475" data-name="Grupo 1162475" transform="translate(97.066 94.829)">
    <path id="Trazado_1019336" data-name="Trazado 1019336" d="M63.813,62.127h-4.22a.813.813,0,1,1,0-1.627h4.22a.814.814,0,0,1,.813.813A.8.8,0,0,1,63.813,62.127Z" transform="translate(-58.78 -60.5)"/>
  </g>
  <g id="Grupo_1162476" data-name="Grupo 1162476" transform="translate(104.692 94.829)">
    <path id="Trazado_1019337" data-name="Trazado 1019337" d="M64.534,62.127h-.441a.813.813,0,0,1,0-1.627h.441a.814.814,0,0,1,.813.813A.825.825,0,0,1,64.534,62.127Z" transform="translate(-63.28 -60.5)"/>
  </g>
  <g id="Grupo_1162477" data-name="Grupo 1162477" transform="translate(53.21 89.762)">
    <path id="Trazado_1019338" data-name="Trazado 1019338" d="M67.029,64.2H33.713a.813.813,0,1,1,0-1.627H67.029a2.423,2.423,0,0,0,2.423-2.423v-1.83a.813.813,0,0,1,1.627,0v1.83A4.05,4.05,0,0,1,67.029,64.2Z" transform="translate(-32.9 -57.51)"/>
  </g>
  <g id="Grupo_1162478" data-name="Grupo 1162478" transform="translate(89.762 75.223)">
    <path id="Trazado_1019339" data-name="Trazado 1019339" d="M55.283,60.979a.814.814,0,0,1-.813-.813V49.743a.813.813,0,0,1,1.627,0V60.165A.793.793,0,0,1,55.283,60.979Z" transform="translate(-54.47 -48.93)"/>
  </g>
  <g id="Grupo_1162479" data-name="Grupo 1162479" transform="translate(1.423 71.105)">
    <path id="Trazado_1019340" data-name="Trazado 1019340" d="M76.749,71.851H6.407A4.079,4.079,0,0,1,2.34,67.784V50.567A4.079,4.079,0,0,1,6.407,46.5h38.7a.814.814,0,0,1,.813.813.825.825,0,0,1-.813.813H6.407A2.423,2.423,0,0,0,3.984,50.55V67.767A2.423,2.423,0,0,0,6.407,70.19H76.749a2.423,2.423,0,0,0,2.423-2.423V51.414a.814.814,0,0,1,.813-.813.825.825,0,0,1,.813.813V67.767a4.057,4.057,0,0,1-4.05,4.084Z" transform="translate(-2.34 -46.5)"/>
  </g>
  <g id="Grupo_1162480" data-name="Grupo 1162480" transform="translate(24.978 81.103)">
    <path id="Trazado_1019341" data-name="Trazado 1019341" d="M26.95,55.077a2.662,2.662,0,0,1-2.677,2.677H18.917a2.683,2.683,0,0,1-2.677-2.677A2.662,2.662,0,0,1,18.917,52.4h5.355A2.683,2.683,0,0,1,26.95,55.077Z" transform="translate(-16.24 -52.4)" fill="#726ad3"/>
  </g>
  <g id="Grupo_1162481" data-name="Grupo 1162481" transform="translate(28.91 81.103)">
    <path id="Trazado_1019342" data-name="Trazado 1019342" d="M25.355,55.077a2.662,2.662,0,0,1-2.694,2.677h-4.1a2.662,2.662,0,0,0,2.677-2.677A2.683,2.683,0,0,0,18.56,52.4h4.1a2.7,2.7,0,0,1,2.694,2.677Z" transform="translate(-18.56 -52.4)" fill="#564dc6"/>
  </g>
  <g id="Grupo_1162482" data-name="Grupo 1162482" transform="translate(24.165 80.289)">
    <path id="Trazado_1019343" data-name="Trazado 1019343" d="M24.606,58.9H19.251a3.491,3.491,0,1,1,0-6.982h5.355a3.5,3.5,0,0,1,2.474,5.965A3.416,3.416,0,0,1,24.606,58.9Zm-5.338-5.338a1.792,1.792,0,0,0-1.3.542,1.83,1.83,0,0,0-.542,1.322,1.851,1.851,0,0,0,1.847,1.847h5.355a1.859,1.859,0,0,0,1.322-.542,1.82,1.82,0,0,0,.542-1.3,1.851,1.851,0,0,0-1.847-1.847H19.268Z" transform="translate(-15.76 -51.92)"/>
  </g>
  <g id="Grupo_1162483" data-name="Grupo 1162483" transform="translate(9.541 81.103)">
    <path id="Trazado_1019344" data-name="Trazado 1019344" d="M17.823,55.077a2.662,2.662,0,0,1-2.677,2.677H9.807A2.683,2.683,0,0,1,7.13,55.077,2.662,2.662,0,0,1,9.807,52.4h5.355a2.68,2.68,0,0,1,2.661,2.677Z" transform="translate(-7.13 -52.4)" fill="#ff9a9a"/>
  </g>
  <g id="Grupo_1162484" data-name="Grupo 1162484" transform="translate(13.455 81.103)">
    <path id="Trazado_1019345" data-name="Trazado 1019345" d="M16.218,55.077a2.662,2.662,0,0,1-2.694,2.677H9.44a2.662,2.662,0,0,0,2.677-2.677A2.683,2.683,0,0,0,9.44,52.4h4.1A2.683,2.683,0,0,1,16.218,55.077Z" transform="translate(-9.44 -52.4)" fill="#d86666"/>
  </g>
  <g id="Grupo_1162485" data-name="Grupo 1162485" transform="translate(8.727 80.289)">
    <path id="Trazado_1019346" data-name="Trazado 1019346" d="M15.479,58.9H10.141a3.491,3.491,0,1,1,0-6.982H15.5a3.5,3.5,0,0,1,2.474,5.965A3.541,3.541,0,0,1,15.479,58.9Zm-5.338-5.338a1.792,1.792,0,0,0-1.3.542,1.83,1.83,0,0,0-.542,1.322,1.851,1.851,0,0,0,1.847,1.847H15.5a1.859,1.859,0,0,0,1.322-.542,1.82,1.82,0,0,0,.542-1.3,1.851,1.851,0,0,0-1.847-1.847H10.141Z" transform="translate(-6.65 -51.92)"/>
  </g>
  <g id="Grupo_1162486" data-name="Grupo 1162486" transform="translate(40.395 81.251)">
    <path id="Trazado_1019347" data-name="Trazado 1019347" d="M26.155,57.559a.837.837,0,0,1-.576-.237.828.828,0,0,1,0-1.169L29,52.729A.827.827,0,1,1,30.171,53.9l-3.423,3.423A.878.878,0,0,1,26.155,57.559Z" transform="translate(-25.337 -52.487)"/>
  </g>
  <g id="Grupo_1162487" data-name="Grupo 1162487" transform="translate(68.152 81.251)">
    <path id="Trazado_1019348" data-name="Trazado 1019348" d="M42.535,57.559a.837.837,0,0,1-.576-.237.828.828,0,0,1,0-1.169l3.423-3.423A.827.827,0,1,1,46.551,53.9l-3.423,3.423A.945.945,0,0,1,42.535,57.559Z" transform="translate(-41.717 -52.487)"/>
  </g>
  <g id="Grupo_1162488" data-name="Grupo 1162488" transform="translate(44.326 79.624)">
    <path id="Trazado_1019349" data-name="Trazado 1019349" d="M28.475,59.835A.837.837,0,0,1,27.9,59.6a.828.828,0,0,1,0-1.169l6.66-6.66a.827.827,0,0,1,1.169,1.169l-6.66,6.66a.8.8,0,0,1-.593.237Z" transform="translate(-27.658 -51.528)"/>
  </g>
  <g id="Grupo_1162489" data-name="Grupo 1162489" transform="translate(49.884 79.624)">
    <path id="Trazado_1019350" data-name="Trazado 1019350" d="M31.755,59.835a.837.837,0,0,1-.576-.237.828.828,0,0,1,0-1.169l6.66-6.66a.827.827,0,0,1,1.169,1.169l-6.66,6.66a.86.86,0,0,1-.593.237Z" transform="translate(-30.938 -51.528)"/>
  </g>
  <g id="Grupo_1162490" data-name="Grupo 1162490" transform="translate(55.426 79.624)">
    <path id="Trazado_1019351" data-name="Trazado 1019351" d="M35.025,59.835a.837.837,0,0,1-.576-.237.828.828,0,0,1,0-1.169l6.66-6.66a.827.827,0,0,1,1.169,1.169l-6.66,6.66A.831.831,0,0,1,35.025,59.835Z" transform="translate(-34.207 -51.528)"/>
  </g>
  <g id="Grupo_1162491" data-name="Grupo 1162491" transform="translate(60.967 79.624)">
    <path id="Trazado_1019352" data-name="Trazado 1019352" d="M38.3,59.835a.837.837,0,0,1-.576-.237.828.828,0,0,1,0-1.169l6.66-6.66a.827.827,0,0,1,1.169,1.169l-6.66,6.66A.8.8,0,0,1,38.3,59.835Z" transform="translate(-37.478 -51.528)"/>
  </g>
  <g id="Grupo_1162492" data-name="Grupo 1162492" transform="translate(13.76 48.228)">
    <path id="Trazado_1019353" data-name="Trazado 1019353" d="M86.436,36.237V53.454A3.236,3.236,0,0,1,83.2,56.69H12.857A3.236,3.236,0,0,1,9.62,53.454V36.237A3.236,3.236,0,0,1,12.857,33H83.2A3.247,3.247,0,0,1,86.436,36.237Z" transform="translate(-9.62 -33)" fill="#c6d0e0"/>
  </g>
  <g id="Grupo_1162493" data-name="Grupo 1162493" transform="translate(12.93 47.398)">
    <path id="Trazado_1019354" data-name="Trazado 1019354" d="M83.539,57.861a.814.814,0,0,1-.813-.813.825.825,0,0,1,.813-.813,2.423,2.423,0,0,0,2.423-2.423V36.577a2.423,2.423,0,0,0-2.423-2.423H13.2a2.423,2.423,0,0,0-2.423,2.423V53.794A2.423,2.423,0,0,0,13.2,56.217a.814.814,0,0,1,.813.813.825.825,0,0,1-.813.813A4.079,4.079,0,0,1,9.13,53.777v-17.2A4.079,4.079,0,0,1,13.2,32.51H83.539a4.079,4.079,0,0,1,4.067,4.067V53.794a4.068,4.068,0,0,1-4.067,4.067Z" transform="translate(-9.13 -32.51)"/>
  </g>
  <g id="Grupo_1162494" data-name="Grupo 1162494" transform="translate(2.254 48.228)">
    <path id="Trazado_1019355" data-name="Trazado 1019355" d="M79.646,36.237V53.454a3.236,3.236,0,0,1-3.237,3.237H6.067A3.236,3.236,0,0,1,2.83,53.454V36.237A3.236,3.236,0,0,1,6.067,33H76.409A3.247,3.247,0,0,1,79.646,36.237Z" transform="translate(-2.83 -33)" fill="#f1f3f6"/>
  </g>
  <g id="Grupo_1162495" data-name="Grupo 1162495" transform="translate(1.423 47.398)">
    <path id="Trazado_1019356" data-name="Trazado 1019356" d="M45.128,57.861H6.407A4.079,4.079,0,0,1,2.34,53.794V36.577A4.079,4.079,0,0,1,6.407,32.51H48.7a.814.814,0,0,1,.813.813.825.825,0,0,1-.813.813H6.407A2.423,2.423,0,0,0,3.984,36.56V53.777A2.423,2.423,0,0,0,6.407,56.2h38.7a.814.814,0,0,1,.813.813A.84.84,0,0,1,45.128,57.861Z" transform="translate(-2.34 -32.51)"/>
  </g>
  <g id="Grupo_1162496" data-name="Grupo 1162496" transform="translate(24.978 57.396)">
    <path id="Trazado_1019357" data-name="Trazado 1019357" d="M26.95,41.087a2.662,2.662,0,0,1-2.677,2.677H18.917a2.683,2.683,0,0,1-2.677-2.677,2.662,2.662,0,0,1,2.677-2.677h5.355A2.694,2.694,0,0,1,26.95,41.087Z" transform="translate(-16.24 -38.41)" fill="#ffca6b"/>
  </g>
  <g id="Grupo_1162497" data-name="Grupo 1162497" transform="translate(28.91 57.396)">
    <path id="Trazado_1019358" data-name="Trazado 1019358" d="M25.355,41.087a2.662,2.662,0,0,1-2.694,2.677h-4.1a2.662,2.662,0,0,0,2.677-2.677A2.683,2.683,0,0,0,18.56,38.41h4.1a2.709,2.709,0,0,1,2.694,2.677Z" transform="translate(-18.56 -38.41)" fill="#f9b84e"/>
  </g>
  <g id="Grupo_1162498" data-name="Grupo 1162498" transform="translate(24.165 56.599)">
    <path id="Trazado_1019359" data-name="Trazado 1019359" d="M24.606,44.922H19.251a3.491,3.491,0,1,1,0-6.982h5.355a3.491,3.491,0,1,1,0,6.982Zm-5.338-5.355a1.792,1.792,0,0,0-1.3.542,1.83,1.83,0,0,0-.542,1.322,1.851,1.851,0,0,0,1.847,1.847h5.355a1.859,1.859,0,0,0,1.322-.542,1.82,1.82,0,0,0,.542-1.3,1.851,1.851,0,0,0-1.847-1.847H19.268Z" transform="translate(-15.76 -37.94)"/>
  </g>
  <g id="Grupo_1162499" data-name="Grupo 1162499" transform="translate(9.541 57.396)">
    <path id="Trazado_1019360" data-name="Trazado 1019360" d="M17.823,41.087a2.662,2.662,0,0,1-2.677,2.677H9.807A2.683,2.683,0,0,1,7.13,41.087,2.662,2.662,0,0,1,9.807,38.41h5.355a2.691,2.691,0,0,1,2.661,2.677Z" transform="translate(-7.13 -38.41)" fill="#6bbeeb"/>
  </g>
  <g id="Grupo_1162500" data-name="Grupo 1162500" transform="translate(13.455 57.396)">
    <path id="Trazado_1019361" data-name="Trazado 1019361" d="M16.218,41.087a2.662,2.662,0,0,1-2.694,2.677H9.44a2.662,2.662,0,0,0,2.677-2.677A2.683,2.683,0,0,0,9.44,38.41h4.1A2.694,2.694,0,0,1,16.218,41.087Z" transform="translate(-9.44 -38.41)" fill="#56a7d2"/>
  </g>
  <g id="Grupo_1162501" data-name="Grupo 1162501" transform="translate(8.727 56.599)">
    <path id="Trazado_1019362" data-name="Trazado 1019362" d="M15.479,44.922H10.141a3.491,3.491,0,1,1,0-6.982H15.5A3.5,3.5,0,0,1,17.97,43.9a3.616,3.616,0,0,1-2.491,1.017Zm-5.338-5.355a1.792,1.792,0,0,0-1.3.542,1.83,1.83,0,0,0-.542,1.322,1.851,1.851,0,0,0,1.847,1.847H15.5a1.859,1.859,0,0,0,1.322-.542,1.82,1.82,0,0,0,.542-1.3,1.851,1.851,0,0,0-1.847-1.847H10.141Z" transform="translate(-6.65 -37.94)"/>
  </g>
  <g id="Grupo_1162502" data-name="Grupo 1162502" transform="translate(68.152 57.544)">
    <path id="Trazado_1019363" data-name="Trazado 1019363" d="M42.535,43.569a.837.837,0,0,1-.576-.237.828.828,0,0,1,0-1.169l3.423-3.423a.827.827,0,1,1,1.169,1.169l-3.423,3.423A.945.945,0,0,1,42.535,43.569Z" transform="translate(-41.717 -38.498)"/>
  </g>
  <g id="Grupo_1162503" data-name="Grupo 1162503" transform="translate(44.326 55.934)">
    <path id="Trazado_1019364" data-name="Trazado 1019364" d="M28.475,45.855a.837.837,0,0,1-.576-.237.828.828,0,0,1,0-1.169l6.66-6.66a.827.827,0,0,1,1.169,1.169l-6.66,6.66a.878.878,0,0,1-.593.237Z" transform="translate(-27.658 -37.548)"/>
  </g>
  <g id="Grupo_1162504" data-name="Grupo 1162504" transform="translate(49.884 55.934)">
    <path id="Trazado_1019365" data-name="Trazado 1019365" d="M31.755,45.855a.837.837,0,0,1-.576-.237.828.828,0,0,1,0-1.169l6.66-6.66a.827.827,0,0,1,1.169,1.169l-6.66,6.66a.945.945,0,0,1-.593.237Z" transform="translate(-30.938 -37.548)"/>
  </g>
  <g id="Grupo_1162505" data-name="Grupo 1162505" transform="translate(55.426 55.934)">
    <path id="Trazado_1019366" data-name="Trazado 1019366" d="M35.025,45.855a.837.837,0,0,1-.576-.237.828.828,0,0,1,0-1.169l6.66-6.66a.827.827,0,0,1,1.169,1.169l-6.66,6.66A.91.91,0,0,1,35.025,45.855Z" transform="translate(-34.207 -37.548)"/>
  </g>
  <g id="Grupo_1162506" data-name="Grupo 1162506" transform="translate(60.967 55.934)">
    <path id="Trazado_1019367" data-name="Trazado 1019367" d="M38.3,45.855a.837.837,0,0,1-.576-.237.828.828,0,0,1,0-1.169l6.66-6.66a.827.827,0,0,1,1.169,1.169l-6.66,6.66A.878.878,0,0,1,38.3,45.855Z" transform="translate(-37.478 -37.548)"/>
  </g>
  <g id="Grupo_1162507" data-name="Grupo 1162507" transform="translate(13.76 24.537)">
    <path id="Trazado_1019368" data-name="Trazado 1019368" d="M86.436,22.257V39.474A3.236,3.236,0,0,1,83.2,42.71H12.857A3.236,3.236,0,0,1,9.62,39.474V22.257a3.236,3.236,0,0,1,3.237-3.237H83.2A3.226,3.226,0,0,1,86.436,22.257Z" transform="translate(-9.62 -19.02)" fill="#c6d0e0"/>
  </g>
  <g id="Grupo_1162508" data-name="Grupo 1162508" transform="translate(12.93 23.707)">
    <path id="Trazado_1019369" data-name="Trazado 1019369" d="M43.988,43.864H13.2A4.079,4.079,0,0,1,9.13,39.8V22.6A4.079,4.079,0,0,1,13.2,18.53H83.539A4.079,4.079,0,0,1,87.606,22.6V35.052a.813.813,0,0,1-1.627,0V22.6a2.423,2.423,0,0,0-2.423-2.423H13.2A2.423,2.423,0,0,0,10.774,22.6V39.814A2.423,2.423,0,0,0,13.2,42.237H43.988a.813.813,0,1,1,0,1.627Z" transform="translate(-9.13 -18.53)"/>
  </g>
  <g id="Grupo_1162509" data-name="Grupo 1162509" transform="translate(2.254 24.537)">
    <path id="Trazado_1019370" data-name="Trazado 1019370" d="M79.646,22.257V39.474a3.236,3.236,0,0,1-3.237,3.237H6.067A3.236,3.236,0,0,1,2.83,39.474V22.257A3.236,3.236,0,0,1,6.067,19.02H76.409A3.226,3.226,0,0,1,79.646,22.257Z" transform="translate(-2.83 -19.02)" fill="#f1f3f6"/>
  </g>
  <g id="Grupo_1162510" data-name="Grupo 1162510" transform="translate(1.44 23.707)">
    <path id="Trazado_1019371" data-name="Trazado 1019371" d="M79.979,35.256a.814.814,0,0,1-.813-.813V22.6a2.423,2.423,0,0,0-2.423-2.423H6.4A2.423,2.423,0,0,0,3.977,22.6v5.27a.814.814,0,0,1-.813.813.825.825,0,0,1-.813-.813V22.6A4.079,4.079,0,0,1,6.417,18.53H76.759A4.079,4.079,0,0,1,80.826,22.6V34.442A.855.855,0,0,1,79.979,35.256Z" transform="translate(-2.35 -18.53)"/>
  </g>
  <g id="Grupo_1162511" data-name="Grupo 1162511" transform="translate(1.423 38.891)">
    <path id="Trazado_1019372" data-name="Trazado 1019372" d="M48.7,37.641H6.407A4.079,4.079,0,0,1,2.34,33.574V28.3a.814.814,0,0,1,.813-.813.825.825,0,0,1,.813.813v5.27A2.423,2.423,0,0,0,6.39,36H48.7a.814.814,0,0,1,.813.813A.828.828,0,0,1,48.7,37.641Z" transform="translate(-2.34 -27.49)"/>
  </g>
  <g id="Grupo_1162512" data-name="Grupo 1162512" transform="translate(24.978 33.705)">
    <path id="Trazado_1019373" data-name="Trazado 1019373" d="M26.95,27.107a2.662,2.662,0,0,1-2.677,2.677H18.917a2.683,2.683,0,0,1-2.677-2.677,2.662,2.662,0,0,1,2.677-2.677h5.355A2.683,2.683,0,0,1,26.95,27.107Z" transform="translate(-16.24 -24.43)" fill="#b9dd53"/>
  </g>
  <g id="Grupo_1162513" data-name="Grupo 1162513" transform="translate(28.91 33.705)">
    <path id="Trazado_1019374" data-name="Trazado 1019374" d="M25.355,27.107a2.662,2.662,0,0,1-2.694,2.677h-4.1a2.662,2.662,0,0,0,2.677-2.677A2.683,2.683,0,0,0,18.56,24.43h4.1a2.687,2.687,0,0,1,2.694,2.677Z" transform="translate(-18.56 -24.43)" fill="#83960f"/>
  </g>
  <g id="Grupo_1162514" data-name="Grupo 1162514" transform="translate(24.165 32.892)">
    <path id="Trazado_1019375" data-name="Trazado 1019375" d="M24.606,30.932H19.251a3.491,3.491,0,1,1,0-6.982h5.355a.813.813,0,1,1,0,1.627H19.251a1.792,1.792,0,0,0-1.3.542,1.83,1.83,0,0,0-.542,1.322,1.851,1.851,0,0,0,1.847,1.847h5.355a1.859,1.859,0,0,0,1.322-.542,1.82,1.82,0,0,0,.542-1.3.813.813,0,1,1,1.627,0,3.472,3.472,0,0,1-3.491,3.491Z" transform="translate(-15.76 -23.95)"/>
  </g>
  <g id="Grupo_1162515" data-name="Grupo 1162515" transform="translate(9.541 33.705)">
    <path id="Trazado_1019376" data-name="Trazado 1019376" d="M17.823,27.107a2.662,2.662,0,0,1-2.677,2.677H9.807A2.683,2.683,0,0,1,7.13,27.107,2.662,2.662,0,0,1,9.807,24.43h5.355a2.68,2.68,0,0,1,2.661,2.677Z" transform="translate(-7.13 -24.43)" fill="#ff9a9a"/>
  </g>
  <g id="Grupo_1162516" data-name="Grupo 1162516" transform="translate(13.455 33.705)">
    <path id="Trazado_1019377" data-name="Trazado 1019377" d="M16.218,27.107a2.662,2.662,0,0,1-2.694,2.677H9.44a2.662,2.662,0,0,0,2.677-2.677A2.683,2.683,0,0,0,9.44,24.43h4.1A2.672,2.672,0,0,1,16.218,27.107Z" transform="translate(-9.44 -24.43)" fill="#d86666"/>
  </g>
  <g id="Grupo_1162517" data-name="Grupo 1162517" transform="translate(8.727 32.892)">
    <path id="Trazado_1019378" data-name="Trazado 1019378" d="M15.479,30.932H10.141a3.491,3.491,0,1,1,0-6.982H15.5a3.5,3.5,0,0,1,2.474,5.965,3.541,3.541,0,0,1-2.491,1.017Zm-5.338-5.355a1.792,1.792,0,0,0-1.3.542,1.83,1.83,0,0,0-.542,1.322,1.851,1.851,0,0,0,1.847,1.847H15.5a1.859,1.859,0,0,0,1.322-.542,1.82,1.82,0,0,0,.542-1.3,1.851,1.851,0,0,0-1.847-1.847H10.141Z" transform="translate(-6.65 -23.95)"/>
  </g>
  <g id="Grupo_1162518" data-name="Grupo 1162518" transform="translate(40.395 33.837)">
    <path id="Trazado_1019379" data-name="Trazado 1019379" d="M26.155,29.579a.837.837,0,0,1-.576-.237.828.828,0,0,1,0-1.169L29,24.749a.827.827,0,0,1,1.169,1.169l-3.423,3.423A.878.878,0,0,1,26.155,29.579Z" transform="translate(-25.337 -24.507)"/>
  </g>
  <g id="Grupo_1162519" data-name="Grupo 1162519" transform="translate(70.931 33.837)">
    <path id="Trazado_1019380" data-name="Trazado 1019380" d="M44.175,26.8a.837.837,0,0,1-.576-.237.828.828,0,0,1,0-1.169l.644-.644a.827.827,0,1,1,1.169,1.169l-.644.644A.945.945,0,0,1,44.175,26.8Z" transform="translate(-43.358 -24.507)"/>
  </g>
  <g id="Grupo_1162520" data-name="Grupo 1162520" transform="translate(44.326 32.227)">
    <path id="Trazado_1019381" data-name="Trazado 1019381" d="M28.475,31.865a.837.837,0,0,1-.576-.237.828.828,0,0,1,0-1.169l6.66-6.66a.827.827,0,0,1,1.169,1.169l-6.66,6.66a.878.878,0,0,1-.593.237Z" transform="translate(-27.658 -23.558)"/>
  </g>
  <g id="Grupo_1162521" data-name="Grupo 1162521" transform="translate(49.884 32.227)">
    <path id="Trazado_1019382" data-name="Trazado 1019382" d="M31.755,31.865a.837.837,0,0,1-.576-.237.828.828,0,0,1,0-1.169l6.66-6.66a.827.827,0,0,1,1.169,1.169l-6.66,6.66a.945.945,0,0,1-.593.237Z" transform="translate(-30.938 -23.558)"/>
  </g>
  <g id="Grupo_1162522" data-name="Grupo 1162522" transform="translate(60.527 32.21)">
    <path id="Trazado_1019383" data-name="Trazado 1019383" d="M38.035,26.771a.837.837,0,0,1-.576-.237.828.828,0,0,1,0-1.169l1.576-1.576A.827.827,0,0,1,40.2,24.958l-1.576,1.576A.86.86,0,0,1,38.035,26.771Z" transform="translate(-37.218 -23.547)"/>
  </g>
  <g id="Grupo_1162523" data-name="Grupo 1162523" transform="translate(66.411 32.227)">
    <path id="Trazado_1019384" data-name="Trazado 1019384" d="M41.52,26.409a.828.828,0,0,1-.83-.813A.838.838,0,0,1,41,24.951L42.147,23.8a.827.827,0,1,1,1.169,1.169l-1.2,1.22A.913.913,0,0,1,41.52,26.409Z" transform="translate(-40.69 -23.557)"/>
  </g>
  <g id="Grupo_1162524" data-name="Grupo 1162524" transform="translate(13.76 0.83)">
    <path id="Trazado_1019385" data-name="Trazado 1019385" d="M86.436,8.267V25.484A3.236,3.236,0,0,1,83.2,28.72H12.857A3.236,3.236,0,0,1,9.62,25.484V8.267A3.236,3.236,0,0,1,12.857,5.03H83.2a3.236,3.236,0,0,1,3.237,3.237Z" transform="translate(-9.62 -5.03)" fill="#c6d0e0"/>
  </g>
  <g id="Grupo_1162525" data-name="Grupo 1162525" transform="translate(66.191 0.017)">
    <path id="Trazado_1019386" data-name="Trazado 1019386" d="M61.708,29.884H41.373a.814.814,0,0,1-.813-.813V5.363a.814.814,0,0,1,.813-.813H61.708a4.079,4.079,0,0,1,4.067,4.067v17.2A4.079,4.079,0,0,1,61.708,29.884ZM42.187,28.24H61.708a2.423,2.423,0,0,0,2.423-2.423V8.6a2.423,2.423,0,0,0-2.423-2.423H42.187Z" transform="translate(-40.56 -4.55)"/>
  </g>
  <g id="Grupo_1162526" data-name="Grupo 1162526" transform="translate(2.254 0.83)">
    <path id="Trazado_1019387" data-name="Trazado 1019387" d="M79.646,8.267V25.484a3.236,3.236,0,0,1-3.237,3.237H6.067A3.236,3.236,0,0,1,2.83,25.484V8.267A3.236,3.236,0,0,1,6.067,5.03H76.409a3.236,3.236,0,0,1,3.237,3.237Z" transform="translate(-2.83 -5.03)" fill="#f1f3f6"/>
  </g>
  <g id="Grupo_1162527" data-name="Grupo 1162527" transform="translate(1.423 0)">
    <path id="Trazado_1019388" data-name="Trazado 1019388" d="M76.749,29.891H6.407A4.079,4.079,0,0,1,2.34,25.824V8.607A4.079,4.079,0,0,1,6.407,4.54H21.15a.814.814,0,0,1,.813.813.825.825,0,0,1-.813.813H6.407A2.423,2.423,0,0,0,3.984,8.59V25.824a2.423,2.423,0,0,0,2.423,2.423H76.749a2.423,2.423,0,0,0,2.423-2.423V8.607a2.423,2.423,0,0,0-2.423-2.423H27.725a.814.814,0,0,1-.813-.813.825.825,0,0,1,.813-.813H76.749a4.079,4.079,0,0,1,4.067,4.067v17.2A4.079,4.079,0,0,1,76.749,29.891Z" transform="translate(-2.34 -4.54)"/>
  </g>
  <g id="Grupo_1162528" data-name="Grupo 1162528" transform="translate(24.978 9.998)">
    <path id="Trazado_1019389" data-name="Trazado 1019389" d="M26.95,13.117a2.662,2.662,0,0,1-2.677,2.677H18.917a2.683,2.683,0,0,1-2.677-2.677,2.662,2.662,0,0,1,2.677-2.677h5.355A2.683,2.683,0,0,1,26.95,13.117Z" transform="translate(-16.24 -10.44)" fill="#b9dd53"/>
  </g>
  <g id="Grupo_1162529" data-name="Grupo 1162529" transform="translate(28.91 9.998)">
    <path id="Trazado_1019390" data-name="Trazado 1019390" d="M25.355,13.117a2.662,2.662,0,0,1-2.694,2.677h-4.1a2.662,2.662,0,0,0,2.677-2.677A2.683,2.683,0,0,0,18.56,10.44h4.1a2.7,2.7,0,0,1,2.694,2.677Z" transform="translate(-18.56 -10.44)" fill="#83960f"/>
  </g>
  <g id="Grupo_1162530" data-name="Grupo 1162530" transform="translate(24.165 9.185)">
    <path id="Trazado_1019391" data-name="Trazado 1019391" d="M24.606,16.942H19.251a3.491,3.491,0,1,1,0-6.982h5.355a3.5,3.5,0,0,1,2.474,5.965,3.444,3.444,0,0,1-2.474,1.017ZM19.268,11.6a1.792,1.792,0,0,0-1.3.542,1.83,1.83,0,0,0-.542,1.322,1.851,1.851,0,0,0,1.847,1.847h5.355a1.859,1.859,0,0,0,1.322-.542,1.82,1.82,0,0,0,.542-1.3,1.851,1.851,0,0,0-1.847-1.847H19.268Z" transform="translate(-15.76 -9.96)"/>
  </g>
  <g id="Grupo_1162531" data-name="Grupo 1162531" transform="translate(9.541 9.998)">
    <path id="Trazado_1019392" data-name="Trazado 1019392" d="M17.823,13.117a2.662,2.662,0,0,1-2.677,2.677H9.807A2.683,2.683,0,0,1,7.13,13.117,2.662,2.662,0,0,1,9.807,10.44h5.355a2.68,2.68,0,0,1,2.661,2.677Z" transform="translate(-7.13 -10.44)" fill="#ab5b51"/>
  </g>
  <g id="Grupo_1162532" data-name="Grupo 1162532" transform="translate(13.455 9.998)">
    <path id="Trazado_1019393" data-name="Trazado 1019393" d="M16.218,13.117a2.662,2.662,0,0,1-2.694,2.677H9.44a2.662,2.662,0,0,0,2.677-2.677A2.683,2.683,0,0,0,9.44,10.44h4.1A2.683,2.683,0,0,1,16.218,13.117Z" transform="translate(-9.44 -10.44)" fill="#893f36"/>
  </g>
  <g id="Grupo_1162533" data-name="Grupo 1162533" transform="translate(8.727 9.185)">
    <path id="Trazado_1019394" data-name="Trazado 1019394" d="M15.479,16.942H10.141a3.491,3.491,0,1,1,0-6.982H15.5a3.5,3.5,0,0,1,2.474,5.965,3.541,3.541,0,0,1-2.491,1.017ZM10.141,11.6a1.792,1.792,0,0,0-1.3.542,1.83,1.83,0,0,0-.542,1.322,1.851,1.851,0,0,0,1.847,1.847H15.5a1.859,1.859,0,0,0,1.322-.542,1.82,1.82,0,0,0,.542-1.3,1.851,1.851,0,0,0-1.847-1.847H10.141Z" transform="translate(-6.65 -9.96)"/>
  </g>
  <g id="Grupo_1162534" data-name="Grupo 1162534" transform="translate(40.395 10.129)">
    <path id="Trazado_1019395" data-name="Trazado 1019395" d="M26.155,15.589a.837.837,0,0,1-.576-.237.828.828,0,0,1,0-1.169L29,10.759a.827.827,0,0,1,1.169,1.169l-3.423,3.423A.8.8,0,0,1,26.155,15.589Z" transform="translate(-25.337 -10.517)"/>
  </g>
  <g id="Grupo_1162535" data-name="Grupo 1162535" transform="translate(68.152 10.129)">
    <path id="Trazado_1019396" data-name="Trazado 1019396" d="M42.535,15.589a.837.837,0,0,1-.576-.237.828.828,0,0,1,0-1.169l3.423-3.423a.827.827,0,0,1,1.169,1.169l-3.423,3.423A.86.86,0,0,1,42.535,15.589Z" transform="translate(-41.717 -10.517)"/>
  </g>
  <g id="Grupo_1162536" data-name="Grupo 1162536" transform="translate(44.326 8.52)">
    <path id="Trazado_1019397" data-name="Trazado 1019397" d="M28.475,17.875a.837.837,0,0,1-.576-.237.828.828,0,0,1,0-1.169l6.66-6.66a.827.827,0,0,1,1.169,1.169l-6.66,6.66a.878.878,0,0,1-.593.237Z" transform="translate(-27.658 -9.568)"/>
  </g>
  <g id="Grupo_1162537" data-name="Grupo 1162537" transform="translate(49.884 8.52)">
    <path id="Trazado_1019398" data-name="Trazado 1019398" d="M31.755,17.875a.837.837,0,0,1-.576-.237.828.828,0,0,1,0-1.169l6.66-6.66a.827.827,0,0,1,1.169,1.169l-6.66,6.66a.945.945,0,0,1-.593.237Z" transform="translate(-30.938 -9.568)"/>
  </g>
  <g id="Grupo_1162538" data-name="Grupo 1162538" transform="translate(55.426 8.52)">
    <path id="Trazado_1019399" data-name="Trazado 1019399" d="M35.025,17.875a.837.837,0,0,1-.576-.237.828.828,0,0,1,0-1.169l6.66-6.66a.827.827,0,0,1,1.169,1.169l-6.66,6.66A.91.91,0,0,1,35.025,17.875Z" transform="translate(-34.207 -9.568)"/>
  </g>
  <g id="Grupo_1162539" data-name="Grupo 1162539" transform="translate(60.967 8.52)">
    <path id="Trazado_1019400" data-name="Trazado 1019400" d="M38.3,17.875a.837.837,0,0,1-.576-.237.828.828,0,0,1,0-1.169l6.66-6.66a.827.827,0,0,1,1.169,1.169l-6.66,6.66A.878.878,0,0,1,38.3,17.875Z" transform="translate(-37.478 -9.568)"/>
  </g>
  <g id="Grupo_1162540" data-name="Grupo 1162540" transform="translate(74.642 41.784)">
    <path id="Trazado_1019401" data-name="Trazado 1019401" d="M49.737,36.861a.829.829,0,0,1-.8-.61,12.963,12.963,0,0,0-3.169-5.66.827.827,0,0,1,1.2-1.135,14.653,14.653,0,0,1,3.559,6.389.819.819,0,0,1-.593,1c-.068,0-.136.017-.2.017Z" transform="translate(-45.547 -29.197)"/>
  </g>
  <g id="Grupo_1162541" data-name="Grupo 1162541" transform="translate(44.33 38.281)">
    <path id="Trazado_1019402" data-name="Trazado 1019402" d="M89.275,51.058a9.724,9.724,0,0,1-9.71,9.727H37.37a9.72,9.72,0,0,1-9.71-9.71v-.017a9.715,9.715,0,0,1,7.168-9.371c-.017-.22-.017-.441-.017-.661A13.91,13.91,0,0,1,60.6,33.807a12.467,12.467,0,0,1,18.861,7.541h.1a9.709,9.709,0,0,1,9.71,9.71Z" transform="translate(-27.66 -27.13)" fill="#6bbeeb"/>
  </g>
  <g id="Grupo_1162542" data-name="Grupo 1162542" transform="translate(44.33 38.281)">
    <path id="Trazado_1019403" data-name="Trazado 1019403" d="M89.275,51.058a9.724,9.724,0,0,1-9.71,9.727H37.37A9.71,9.71,0,0,1,34.828,41.7v-.678A13.91,13.91,0,0,1,60.62,33.807a12.5,12.5,0,0,1,18.861,7.541h.1a9.705,9.705,0,0,1,9.693,9.71Z" transform="translate(-27.66 -27.13)" fill="#6bbeeb"/>
  </g>
  <g id="Grupo_1162543" data-name="Grupo 1162543" transform="translate(46.347 52.481)">
    <path id="Trazado_1019404" data-name="Trazado 1019404" d="M88.449,45.237a9.724,9.724,0,0,1-9.71,9.727h-42.2a9.7,9.7,0,0,1-7.693-3.8c51.617,4.9,49.889-15.658,49.889-15.658a9.734,9.734,0,0,1,9.71,9.727Z" transform="translate(-28.85 -35.51)" fill="#56a7d2"/>
  </g>
  <g id="Grupo_1162544" data-name="Grupo 1162544" transform="translate(93.52 47.664)">
    <path id="Trazado_1019405" data-name="Trazado 1019405" d="M58.234,46.974a.992.992,0,0,1-.373-.085.815.815,0,0,1-.356-1.1,11.626,11.626,0,0,0-.678-11.845.818.818,0,0,1,1.356-.915,13.181,13.181,0,0,1,2.271,7.439,13.44,13.44,0,0,1-1.474,6.1.867.867,0,0,1-.746.407Z" transform="translate(-56.687 -32.667)"/>
  </g>
  <g id="Grupo_1162545" data-name="Grupo 1162545" transform="translate(90.833 44.791)">
    <path id="Trazado_1019406" data-name="Trazado 1019406" d="M60.487,58.929a.814.814,0,0,1-.813-.813.825.825,0,0,1,.813-.813,8.905,8.905,0,0,0,0-17.81h-.1a.815.815,0,0,1-.8-.627,11.712,11.712,0,0,0-4.169-6.422.822.822,0,0,1,1-1.3,13.308,13.308,0,0,1,4.592,6.711,10.547,10.547,0,0,1-.525,21.081Z" transform="translate(-55.102 -30.972)"/>
  </g>
  <g id="Grupo_1162546" data-name="Grupo 1162546" transform="translate(43.483 61.378)">
    <path id="Trazado_1019407" data-name="Trazado 1019407" d="M75.557,52.131H37.7A10.552,10.552,0,0,1,27.16,41.59a.828.828,0,0,1,.813-.83.8.8,0,0,1,.813.813,8.9,8.9,0,0,0,8.9,8.9H75.541a.814.814,0,0,1,.813.813A.829.829,0,0,1,75.557,52.131Z" transform="translate(-27.16 -40.76)"/>
  </g>
  <g id="Grupo_1162547" data-name="Grupo 1162547" transform="translate(45.156 37.467)">
    <path id="Trazado_1019408" data-name="Trazado 1019408" d="M28.965,46.748a.9.9,0,0,1-.458-.136.818.818,0,0,1-.22-1.135,10.5,10.5,0,0,1,5.338-4.05v-.068A14.734,14.734,0,0,1,60.5,33.039,13.3,13.3,0,0,1,63.976,31.7a.818.818,0,1,1,.373,1.593,11.484,11.484,0,0,0-3.643,1.525.811.811,0,0,1-.627.1.848.848,0,0,1-.525-.373,13.086,13.086,0,0,0-24.267,6.8v.644a.821.821,0,0,1-.61.83,8.95,8.95,0,0,0-5.016,3.576.837.837,0,0,1-.695.356Z" transform="translate(-28.147 -26.65)"/>
  </g>
  <g id="Grupo_1162548" data-name="Grupo 1162548" transform="translate(78.235 35.988)">
    <path id="Trazado_1019409" data-name="Trazado 1019409" d="M50.57,55.03a.854.854,0,0,1-.695-.373.822.822,0,0,1,.237-1.135,14.954,14.954,0,0,0-1.966-26.181.819.819,0,1,1,.678-1.491A16.6,16.6,0,0,1,51.01,54.912.948.948,0,0,1,50.57,55.03Z" transform="translate(-47.667 -25.777)"/>
  </g>
  <g id="Grupo_1162549" data-name="Grupo 1162549" transform="translate(80.287 61.579)">
    <path id="Trazado_1019410" data-name="Trazado 1019410" d="M51.728,44.694H51.66l-2.017-.153a.819.819,0,0,1-.763-.881l.153-2.017a.81.81,0,0,1,.881-.763.819.819,0,0,1,.763.881l-.085,1.186,1.186.085a.819.819,0,0,1,.763.881.83.83,0,0,1-.813.78Z" transform="translate(-48.879 -40.879)"/>
  </g>
  <g id="Grupo_1162550" data-name="Grupo 1162550" transform="translate(61.55 42.365)">
    <path id="Trazado_1019411" data-name="Trazado 1019411" d="M38.649,31.692a.818.818,0,0,1-.271-1.593,9.756,9.756,0,0,1,3.271-.559.814.814,0,0,1,.813.813.825.825,0,0,1-.813.813,8.307,8.307,0,0,0-2.728.458A.408.408,0,0,1,38.649,31.692Z" transform="translate(-37.822 -29.54)" fill="#fff"/>
  </g>
  <g id="Grupo_1162551" data-name="Grupo 1162551" transform="translate(55.566 44.493)">
    <path id="Trazado_1019412" data-name="Trazado 1019412" d="M35.1,39.276a.814.814,0,0,1-.813-.813,9.746,9.746,0,0,1,3.491-7.473.818.818,0,1,1,1.051,1.254,8.129,8.129,0,0,0-2.9,6.219A.817.817,0,0,1,35.1,39.276Z" transform="translate(-34.29 -30.796)" fill="#fff"/>
  </g>
</svg>
