<svg id="energia-eolica" xmlns="http://www.w3.org/2000/svg" width="106.743" height="106.759" viewBox="0 0 106.743 106.759">
  <g id="Grupo_1162613" data-name="Grupo 1162613" transform="translate(75.036 36.772)">
    <path id="Trazado_1019470" data-name="Trazado 1019470" d="M46.593,40.6a.814.814,0,0,1-.813-.813V24.013a.814.814,0,0,1,.813-.813.825.825,0,0,1,.813.813V39.79A.793.793,0,0,1,46.593,40.6Z" transform="translate(-45.78 -23.2)"/>
  </g>
  <g id="Grupo_1162614" data-name="Grupo 1162614" transform="translate(72.512 33.163)">
    <ellipse id="Elipse_12811" data-name="Elipse 12811" cx="3.338" cy="3.338" rx="3.338" ry="3.338" fill="#726ad3"/>
  </g>
  <g id="Grupo_1162615" data-name="Grupo 1162615" transform="translate(72.766 33.417)">
    <path id="Trazado_1019471" data-name="Trazado 1019471" d="M50.879,24.321a3.351,3.351,0,0,1-6.439,1.288,3.411,3.411,0,0,0,1.322.271A3.348,3.348,0,0,0,49.1,22.525a3.106,3.106,0,0,0-.271-1.3,3.363,3.363,0,0,1,2.05,3.1Z" transform="translate(-44.44 -21.22)" fill="#564dc6"/>
  </g>
  <g id="Grupo_1162616" data-name="Grupo 1162616" transform="translate(71.681 32.333)">
    <path id="Trazado_1019472" data-name="Trazado 1019472" d="M47.969,28.917a4.169,4.169,0,1,1,4.169-4.169A4.166,4.166,0,0,1,47.969,28.917Zm0-6.694a2.525,2.525,0,1,0,2.525,2.525A2.531,2.531,0,0,0,47.969,22.224Z" transform="translate(-43.8 -20.58)"/>
  </g>
  <g id="Grupo_1162617" data-name="Grupo 1162617" transform="translate(88.763 96.676)">
    <path id="Trazado_1019473" data-name="Trazado 1019473" d="M69.1,67.819H63.726A24.635,24.635,0,0,0,53.88,58.55C60.1,60.058,65.691,63.108,69.1,67.819Z" transform="translate(-53.88 -58.55)" fill="#a3c134"/>
  </g>
  <g id="Grupo_1162618" data-name="Grupo 1162618" transform="translate(50.092 93.152)">
    <path id="Trazado_1019474" data-name="Trazado 1019474" d="M31.06,69.264c8.592-16.675,38.281-17.437,48.533,0Z" transform="translate(-31.06 -56.47)" fill="#b9dd53"/>
  </g>
  <g id="Grupo_1162619" data-name="Grupo 1162619" transform="translate(84.554 94.331)">
    <path id="Trazado_1019475" data-name="Trazado 1019475" d="M65.451,69.594a.832.832,0,0,1-.712-.407A24.575,24.575,0,0,0,51.928,58.749a.815.815,0,1,1,.576-1.525A26.134,26.134,0,0,1,66.163,68.357a.806.806,0,0,1-.288,1.118.765.765,0,0,1-.424.119Z" transform="translate(-51.396 -57.166)"/>
  </g>
  <g id="Grupo_1162620" data-name="Grupo 1162620" transform="translate(71.323 92.318)">
    <path id="Trazado_1019476" data-name="Trazado 1019476" d="M52.488,58.2a.469.469,0,0,1-.153-.017,32.245,32.245,0,0,0-7.88-.508.829.829,0,0,1-.864-.78.808.808,0,0,1,.78-.864,34.6,34.6,0,0,1,8.27.525.829.829,0,0,1-.153,1.644Z" transform="translate(-43.589 -55.978)"/>
  </g>
  <g id="Grupo_1162621" data-name="Grupo 1162621" transform="translate(98.191 100.309)">
    <path id="Trazado_1019477" data-name="Trazado 1019477" d="M65.233,67.144a.8.8,0,0,1-.661-.339,20.063,20.063,0,0,0-4.779-4.626.816.816,0,1,1,.932-1.339,21.441,21.441,0,0,1,5.168,5.016.819.819,0,0,1-.186,1.152.911.911,0,0,1-.474.136Z" transform="translate(-59.444 -60.694)"/>
  </g>
  <g id="Grupo_1162622" data-name="Grupo 1162622" transform="translate(2.779 93.152)">
    <path id="Trazado_1019478" data-name="Trazado 1019478" d="M3.14,69.264c14.794-16.675,65.886-17.437,83.526,0Z" transform="translate(-3.14 -56.47)" fill="#b9dd53"/>
  </g>
  <g id="Grupo_1162623" data-name="Grupo 1162623" transform="translate(2.779 94.1)">
    <path id="Trazado_1019479" data-name="Trazado 1019479" d="M86.666,68.875H3.14c27.5-3.186,44.449-7.626,54.888-11.845C69.737,58.708,80.346,62.622,86.666,68.875Z" transform="translate(-3.14 -57.03)" fill="#a3c134"/>
  </g>
  <g id="Grupo_1162624" data-name="Grupo 1162624" transform="translate(1.959 92.321)">
    <path id="Trazado_1019480" data-name="Trazado 1019480" d="M87,70.418H3.476a.826.826,0,0,1-.61-1.373c7.1-8,23-13,41.5-13.065a.814.814,0,0,1,.813.813.828.828,0,0,1-.813.83c-16.946.068-31.6,4.3-38.942,11.15H84.884c-4.948-4.169-12.218-7.338-21.216-9.235a.814.814,0,1,1,.339-1.593c10.286,2.169,18.437,6,23.572,11.083a.842.842,0,0,1,.186.9A.826.826,0,0,1,87,70.418Z" transform="translate(-2.656 -55.98)"/>
  </g>
  <g id="Grupo_1162625" data-name="Grupo 1162625" transform="translate(0 105.132)">
    <path id="Trazado_1019481" data-name="Trazado 1019481" d="M107.446,65.167H2.313a.813.813,0,0,1,0-1.627H107.429a.814.814,0,0,1,.813.813A.8.8,0,0,1,107.446,65.167Z" transform="translate(-1.5 -63.54)"/>
  </g>
  <g id="Grupo_1162626" data-name="Grupo 1162626" transform="translate(45.835 41.486)">
    <path id="Trazado_1019482" data-name="Trazado 1019482" d="M0,0H4.677V4.1H0Z" transform="matrix(0.866, -0.5, 0.5, 0.866, 0, 2.339)" fill="#ffca6b"/>
  </g>
  <g id="Grupo_1162627" data-name="Grupo 1162627" transform="translate(54.816 41.491)">
    <path id="Trazado_1019483" data-name="Trazado 1019483" d="M0,0H4.1V4.677H0Z" transform="matrix(0.5, -0.866, 0.866, 0.5, 0, 3.551)" fill="#ffca6b"/>
  </g>
  <g id="Grupo_1162628" data-name="Grupo 1162628" transform="translate(17.623 43.263)">
    <path id="Trazado_1019484" data-name="Trazado 1019484" d="M12.137,46.128a1.759,1.759,0,0,1,.441-2.271L34.269,27.03l5.846.559,1.034,1.779Z" transform="translate(-11.9 -27.03)" fill="#6bbeeb"/>
  </g>
  <g id="Grupo_1162629" data-name="Grupo 1162629" transform="translate(17.861 45.601)">
    <path id="Trazado_1019485" data-name="Trazado 1019485" d="M12.04,45.169a1.747,1.747,0,0,0,2.186.746l25.4-10.371,2.44-5.355L41.034,28.41Z" transform="translate(-12.04 -28.41)" fill="#56a7d2"/>
  </g>
  <g id="Grupo_1162630" data-name="Grupo 1162630" transform="translate(58.87 45.601)">
    <path id="Trazado_1019486" data-name="Trazado 1019486" d="M66.268,45.169a1.747,1.747,0,0,1-2.186.746L38.68,35.544l-2.44-5.355,1.034-1.779Z" transform="translate(-36.24 -28.41)" fill="#56a7d2"/>
  </g>
  <g id="Grupo_1162631" data-name="Grupo 1162631" transform="translate(59.887 43.263)">
    <path id="Trazado_1019487" data-name="Trazado 1019487" d="M65.851,46.128a1.759,1.759,0,0,0-.441-2.271L43.72,27.03l-5.846.559L36.84,29.369Z" transform="translate(-36.84 -27.03)" fill="#6bbeeb"/>
  </g>
  <g id="Grupo_1162632" data-name="Grupo 1162632" transform="translate(53.38 0.813)">
    <path id="Trazado_1019488" data-name="Trazado 1019488" d="M33,1.98a1.755,1.755,0,0,1,1.745,1.525l3.728,27.2L35.05,35.482H33Z" transform="translate(-33 -1.98)" fill="#56a7d2"/>
  </g>
  <g id="Grupo_1162633" data-name="Grupo 1162633" transform="translate(47.906 0.813)">
    <path id="Trazado_1019489" data-name="Trazado 1019489" d="M35.244,1.98A1.755,1.755,0,0,0,33.5,3.505L29.77,30.7l3.423,4.779h2.05Z" transform="translate(-29.77 -1.98)" fill="#6bbeeb"/>
  </g>
  <g id="Grupo_1162634" data-name="Grupo 1162634" transform="translate(51.329 34.315)">
    <path id="Trazado_1019490" data-name="Trazado 1019490" d="M31.79,21.75h4.1v4.677h-4.1Z" transform="translate(-31.79 -21.75)" fill="#ffca6b"/>
  </g>
  <g id="Grupo_1162635" data-name="Grupo 1162635" transform="translate(47.279 79.696)">
    <path id="Trazado_1019491" data-name="Trazado 1019491" d="M41.6,74.779,40.55,48.53h-10.1L29.4,74.779Z" transform="translate(-29.4 -48.53)" fill="#6bbeeb"/>
  </g>
  <g id="Grupo_1162636" data-name="Grupo 1162636" transform="translate(47.262 79.696)">
    <path id="Trazado_1019492" data-name="Trazado 1019492" d="M41.625,74.779H29.39l.2-4.643.864-21.606h10.1l.458,11.557Z" transform="translate(-29.39 -48.53)" fill="#6bbeeb"/>
  </g>
  <g id="Grupo_1162637" data-name="Grupo 1162637" transform="translate(47.279 91.27)">
    <path id="Trazado_1019493" data-name="Trazado 1019493" d="M41.618,70.035H29.4l.186-4.626c10.981,0,11.438-10.049,11.438-10.049Z" transform="translate(-29.4 -55.36)" fill="#56a7d2"/>
  </g>
  <g id="Grupo_1162638" data-name="Grupo 1162638" transform="translate(49.431 75.833)">
    <path id="Trazado_1019494" data-name="Trazado 1019494" d="M38.567,50.114h-7.9l.153-3.864h7.592Z" transform="translate(-30.67 -46.25)" fill="#ffca6b"/>
  </g>
  <g id="Grupo_1162639" data-name="Grupo 1162639" transform="translate(50.736 41.839)">
    <path id="Trazado_1019495" data-name="Trazado 1019495" d="M36.727,60.183H31.44l1-33.993h3.288Z" transform="translate(-31.44 -26.19)" fill="#6bbeeb"/>
  </g>
  <g id="Grupo_1162640" data-name="Grupo 1162640" transform="translate(46.464 78.883)">
    <path id="Trazado_1019496" data-name="Trazado 1019496" d="M41.935,75.926h-12.2a.8.8,0,0,1-.593-.254.8.8,0,0,1-.22-.61L29.988,48.83a.807.807,0,0,1,.813-.78H40.885a.819.819,0,0,1,.813.78l1.068,26.249a.827.827,0,0,1-.22.61.888.888,0,0,1-.61.237ZM30.582,74.282H41.088l-1-24.588H31.581Z" transform="translate(-28.919 -48.05)"/>
  </g>
  <g id="Grupo_1162641" data-name="Grupo 1162641" transform="translate(48.616 75.002)">
    <path id="Trazado_1019497" data-name="Trazado 1019497" d="M38.9,51.284H31a.8.8,0,0,1-.593-.254.766.766,0,0,1-.22-.593l.153-3.881a.821.821,0,0,1,.813-.8h7.592a.821.821,0,0,1,.813.8l.153,3.881a.766.766,0,0,1-.22.593A.863.863,0,0,1,38.9,51.284Zm-7.049-1.644h6.185L37.952,47.4H31.936Z" transform="translate(-30.189 -45.76)"/>
  </g>
  <g id="Grupo_1162642" data-name="Grupo 1162642" transform="translate(49.889 41.026)">
    <path id="Trazado_1019498" data-name="Trazado 1019498" d="M37.074,61.33h-5.3a.8.8,0,0,1-.593-.254.847.847,0,0,1-.237-.593l.271-8.88a.8.8,0,0,1,.847-.8.818.818,0,0,1,.8.847l-.237,8.032h3.609l-.949-32.333H33.584l-.559,18.623a.788.788,0,0,1-.847.8.818.818,0,0,1-.8-.847l.576-19.42a.821.821,0,0,1,.813-.8h3.287a.81.81,0,0,1,.813.8l1,33.993a.847.847,0,0,1-.237.593.716.716,0,0,1-.559.237Z" transform="translate(-30.94 -25.71)"/>
  </g>
  <g id="Grupo_1162643" data-name="Grupo 1162643" transform="translate(16.807 42.412)">
    <path id="Trazado_1019499" data-name="Trazado 1019499" d="M12.472,47.29a1.166,1.166,0,0,1-.22-.034.752.752,0,0,1-.491-.39,2.6,2.6,0,0,1,.661-3.338L34.112,26.7a.8.8,0,0,1,.576-.169l5.846.576a.768.768,0,0,1,.627.407L42.2,29.293a.886.886,0,0,1,.085.627.752.752,0,0,1-.39.491L12.879,47.154a.651.651,0,0,1-.407.136ZM34.841,28.226,13.421,44.85a.914.914,0,0,0-.237.271L40.365,29.429l-.407-.695Z" transform="translate(-11.418 -26.528)"/>
  </g>
  <g id="Grupo_1162644" data-name="Grupo 1162644" transform="translate(17.024 44.798)">
    <path id="Trazado_1019500" data-name="Trazado 1019500" d="M13.908,47.193a2.623,2.623,0,0,1-2.254-1.288.886.886,0,0,1-.085-.627.752.752,0,0,1,.39-.491L40.971,28.044a.886.886,0,0,1,.627-.085.752.752,0,0,1,.491.39l1.034,1.779a.779.779,0,0,1,.034.746l-2.44,5.355a.83.83,0,0,1-.441.424l-25.4,10.371a3.129,3.129,0,0,1-.966.169ZM41.089,29.858,13.908,45.549a.759.759,0,0,0,.339-.068L39.361,35.229l2.118-4.677Z" transform="translate(-11.546 -27.936)"/>
  </g>
  <g id="Grupo_1162645" data-name="Grupo 1162645" transform="translate(45.021 40.647)">
    <path id="Trazado_1019501" data-name="Trazado 1019501" d="M30.935,33.034a1.166,1.166,0,0,1-.22-.034.752.752,0,0,1-.491-.39l-2.05-3.559a.826.826,0,0,1,.305-1.118l4.05-2.339a.886.886,0,0,1,.627-.085.752.752,0,0,1,.491.39l2.05,3.559a.826.826,0,0,1-.305,1.118l-4.05,2.355a.805.805,0,0,1-.407.1ZM30,28.967,31.24,31.1l2.627-1.508L32.63,27.458Z" transform="translate(-28.068 -25.486)"/>
  </g>
  <g id="Grupo_1162646" data-name="Grupo 1162646" transform="translate(58.052 44.784)">
    <path id="Trazado_1019502" data-name="Trazado 1019502" d="M65.078,47.2a2.718,2.718,0,0,1-.966-.186l-25.4-10.371a.893.893,0,0,1-.441-.424l-2.44-5.355a.826.826,0,0,1,.034-.746L36.9,28.338a.826.826,0,0,1,1.118-.305L67.027,44.776a.826.826,0,0,1,.305,1.118,2.6,2.6,0,0,1-2.254,1.3ZM39.626,35.235,64.739,45.487a.862.862,0,0,0,.339.068L37.9,29.863l-.407.695Z" transform="translate(-35.757 -27.928)"/>
  </g>
  <g id="Grupo_1162647" data-name="Grupo 1162647" transform="translate(59.07 42.446)">
    <path id="Trazado_1019503" data-name="Trazado 1019503" d="M66.186,47.276a.852.852,0,0,1-.407-.1L36.768,30.415a.826.826,0,0,1-.305-1.118L37.5,27.517a.793.793,0,0,1,.627-.407l5.846-.559a.778.778,0,0,1,.576.169l6,4.643a.822.822,0,1,1-1,1.3L43.8,28.212l-5.1.491-.407.695L65.475,45.09a.883.883,0,0,0-.237-.271l-9.371-7.27a.822.822,0,1,1,1-1.3l9.388,7.287a2.6,2.6,0,0,1,.661,3.338.882.882,0,0,1-.729.407Z" transform="translate(-36.358 -26.548)"/>
  </g>
  <g id="Grupo_1162648" data-name="Grupo 1162648" transform="translate(54.003 40.66)">
    <path id="Trazado_1019504" data-name="Trazado 1019504" d="M38.235,33.028a.852.852,0,0,1-.407-.1l-4.05-2.339a.826.826,0,0,1-.305-1.118l2.05-3.559a.869.869,0,0,1,.491-.39.816.816,0,0,1,.627.085l4.05,2.339A.826.826,0,0,1,41,29.063l-2.05,3.559a.869.869,0,0,1-.491.39,1.042,1.042,0,0,1-.22.017ZM35.3,29.571l2.627,1.508,1.237-2.135L36.54,27.436Z" transform="translate(-33.368 -25.494)"/>
  </g>
  <g id="Grupo_1162649" data-name="Grupo 1162649" transform="translate(52.566 0)">
    <path id="Trazado_1019505" data-name="Trazado 1019505" d="M35.384,36.646h-2.05a.814.814,0,0,1-.813-.813V2.313a.814.814,0,0,1,.813-.813,2.592,2.592,0,0,1,2.559,2.237l3.728,27.2a.757.757,0,0,1-.153.593l-3.423,4.779A.826.826,0,0,1,35.384,36.646ZM34.147,35h.813l2.982-4.169L34.265,3.957a.812.812,0,0,0-.119-.339Z" transform="translate(-32.52 -1.5)"/>
  </g>
  <g id="Grupo_1162650" data-name="Grupo 1162650" transform="translate(47.089 0)">
    <path id="Trazado_1019506" data-name="Trazado 1019506" d="M35.578,36.646h-2.05a.826.826,0,0,1-.661-.339l-3.423-4.779a.9.9,0,0,1-.153-.593l3.728-27.2A2.592,2.592,0,0,1,35.578,1.5a.814.814,0,0,1,.813.813v33.5A.817.817,0,0,1,35.578,36.646ZM33.951,35h.813V3.618a1.15,1.15,0,0,0-.119.339L30.969,30.816Z" transform="translate(-29.288 -1.5)"/>
  </g>
  <g id="Grupo_1162651" data-name="Grupo 1162651" transform="translate(50.516 33.519)">
    <path id="Trazado_1019507" data-name="Trazado 1019507" d="M36.224,27.584h-4.1a.814.814,0,0,1-.813-.813V22.093a.814.814,0,0,1,.813-.813h4.1a.814.814,0,0,1,.813.813V26.77A.814.814,0,0,1,36.224,27.584ZM32.937,25.94h2.457V22.907H32.937Z" transform="translate(-31.31 -21.28)"/>
  </g>
  <g id="Grupo_1162652" data-name="Grupo 1162652" transform="translate(48.533 36.993)">
    <path id="Trazado_1019508" data-name="Trazado 1019508" d="M39.833,28.177a4.847,4.847,0,1,1-4.847-4.847A4.846,4.846,0,0,1,39.833,28.177Z" transform="translate(-30.14 -23.33)" fill="#ff9a9a"/>
  </g>
  <g id="Grupo_1162653" data-name="Grupo 1162653" transform="translate(48.906 37.366)">
    <path id="Trazado_1019509" data-name="Trazado 1019509" d="M39.68,28.024a4.847,4.847,0,0,1-9.32,1.864A4.847,4.847,0,0,0,36.7,23.55a4.853,4.853,0,0,1,2.982,4.474Z" transform="translate(-30.36 -23.55)" fill="#d86666"/>
  </g>
  <g id="Grupo_1162654" data-name="Grupo 1162654" transform="translate(51.736 40.196)">
    <path id="Trazado_1019510" data-name="Trazado 1019510" d="M35.318,26.864a1.644,1.644,0,1,1-1.644-1.644A1.635,1.635,0,0,1,35.318,26.864Z" transform="translate(-32.03 -25.22)" fill="#f1f3f6"/>
  </g>
  <g id="Grupo_1162655" data-name="Grupo 1162655" transform="translate(50.922 39.399)">
    <path id="Trazado_1019511" data-name="Trazado 1019511" d="M34.007,29.664a2.457,2.457,0,1,1,0-4.914.813.813,0,1,1,0,1.627.843.843,0,0,0-.83.83.83.83,0,0,0,1.661,0,.814.814,0,0,1,.813-.813.825.825,0,0,1,.813.813,2.47,2.47,0,0,1-2.457,2.457Z" transform="translate(-31.55 -24.75)"/>
  </g>
  <g id="Grupo_1162656" data-name="Grupo 1162656" transform="translate(47.72 36.179)">
    <path id="Trazado_1019512" data-name="Trazado 1019512" d="M35.32,34.17a5.66,5.66,0,1,1,5.66-5.66A5.67,5.67,0,0,1,35.32,34.17Zm0-9.676a4.016,4.016,0,1,0,4.016,4.016A4.014,4.014,0,0,0,35.32,24.494Z" transform="translate(-29.66 -22.85)"/>
  </g>
  <g id="Grupo_1162657" data-name="Grupo 1162657" transform="translate(9.863 5.762)">
    <path id="Trazado_1019513" data-name="Trazado 1019513" d="M11.15,6.544H8.133A.814.814,0,0,1,7.32,5.73a.828.828,0,0,1,.813-.83H11.15a.814.814,0,0,1,.813.813A.828.828,0,0,1,11.15,6.544Z" transform="translate(-7.32 -4.9)"/>
  </g>
  <g id="Grupo_1162658" data-name="Grupo 1162658" transform="translate(16.082 0)">
    <path id="Trazado_1019514" data-name="Trazado 1019514" d="M23.869,8.905H11.8a.814.814,0,0,1-.813-.813.828.828,0,0,1,.813-.83H23.869a2.067,2.067,0,1,0-1.915-2.847.821.821,0,0,1-1.525-.61,3.711,3.711,0,1,1,3.44,5.1Z" transform="translate(-10.99 -1.5)"/>
  </g>
  <g id="Grupo_1162659" data-name="Grupo 1162659" transform="translate(1.644 12.861)">
    <path id="Trazado_1019515" data-name="Trazado 1019515" d="M6.3,10.717H3.283a.813.813,0,1,1,0-1.627H6.3a.8.8,0,0,1,.83.8.832.832,0,0,1-.83.83Z" transform="translate(-2.47 -9.09)"/>
  </g>
  <g id="Grupo_1162660" data-name="Grupo 1162660" transform="translate(7.863 12.862)">
    <path id="Trazado_1019516" data-name="Trazado 1019516" d="M19.036,16.478a3.729,3.729,0,0,1-3.44-2.3.821.821,0,0,1,1.525-.61,2.067,2.067,0,1,0,1.915-2.847H6.953a.813.813,0,1,1,0-1.627H19.019a3.694,3.694,0,1,1,.017,7.388Z" transform="translate(-6.14 -9.09)"/>
  </g>
  <g id="Grupo_1162661" data-name="Grupo 1162661" transform="translate(34.332 9.625)">
    <path id="Trazado_1019517" data-name="Trazado 1019517" d="M23.861,8.807H22.573a.813.813,0,0,1,0-1.627h1.288a.813.813,0,1,1,0,1.627Z" transform="translate(-21.76 -7.18)"/>
  </g>
  <g id="Grupo_1162662" data-name="Grupo 1162662" transform="translate(23.233 9.625)">
    <path id="Trazado_1019518" data-name="Trazado 1019518" d="M24.293,8.807h-8.27a.813.813,0,1,1,0-1.627h8.27a.814.814,0,0,1,.813.813A.8.8,0,0,1,24.293,8.807Z" transform="translate(-15.21 -7.18)"/>
  </g>
  <g id="Grupo_1162663" data-name="Grupo 1162663" transform="translate(15.675 0.559)">
    <path id="Trazado_1019519" data-name="Trazado 1019519" d="M12.851,3.457H11.563a.814.814,0,0,1-.813-.813.825.825,0,0,1,.813-.813h1.288a.813.813,0,1,1,0,1.627Z" transform="translate(-10.75 -1.83)"/>
  </g>
  <g id="Grupo_1162664" data-name="Grupo 1162664" transform="translate(4.575 0.559)">
    <path id="Trazado_1019520" data-name="Trazado 1019520" d="M13.283,3.457H5.013A.814.814,0,0,1,4.2,2.643a.825.825,0,0,1,.813-.813h8.27a.813.813,0,1,1,0,1.627Z" transform="translate(-4.2 -1.83)"/>
  </g>
  <g id="Grupo_1162665" data-name="Grupo 1162665" transform="translate(5.084 17.014)">
    <path id="Trazado_1019521" data-name="Trazado 1019521" d="M11.448,13.167H5.313a.814.814,0,0,1-.813-.813.825.825,0,0,1,.813-.813h6.134a.813.813,0,1,1,0,1.627Z" transform="translate(-4.5 -11.54)"/>
  </g>
  <g id="Grupo_1162666" data-name="Grupo 1162666" transform="translate(77.731 24.724)">
    <path id="Trazado_1019522" data-name="Trazado 1019522" d="M51.2,17.717H48.183a.813.813,0,0,1,0-1.627H51.2a.814.814,0,0,1,.813.813A.825.825,0,0,1,51.2,17.717Z" transform="translate(-47.37 -16.09)"/>
  </g>
  <g id="Grupo_1162667" data-name="Grupo 1162667" transform="translate(83.95 18.962)">
    <path id="Trazado_1019523" data-name="Trazado 1019523" d="M63.919,20.078H51.853a.813.813,0,1,1,0-1.627H63.919A2.067,2.067,0,1,0,62,15.6a.821.821,0,0,1-1.525-.61,3.708,3.708,0,1,1,3.44,5.084Z" transform="translate(-51.04 -12.69)"/>
  </g>
  <g id="Grupo_1162668" data-name="Grupo 1162668" transform="translate(102.201 28.571)">
    <path id="Trazado_1019524" data-name="Trazado 1019524" d="M63.911,19.987H62.623a.813.813,0,1,1,0-1.627h1.288a.814.814,0,0,1,.813.813A.825.825,0,0,1,63.911,19.987Z" transform="translate(-61.81 -18.36)"/>
  </g>
  <g id="Grupo_1162669" data-name="Grupo 1162669" transform="translate(91.101 28.571)">
    <path id="Trazado_1019525" data-name="Trazado 1019525" d="M64.343,19.987h-8.27a.813.813,0,1,1,0-1.627h8.27a.813.813,0,1,1,0,1.627Z" transform="translate(-55.26 -18.36)"/>
  </g>
  <g id="Grupo_1162670" data-name="Grupo 1162670" transform="translate(83.543 19.488)">
    <path id="Trazado_1019526" data-name="Trazado 1019526" d="M52.9,14.627H51.613a.813.813,0,1,1,0-1.627H52.9a.813.813,0,0,1,0,1.627Z" transform="translate(-50.8 -13)"/>
  </g>
  <g id="Grupo_1162671" data-name="Grupo 1162671" transform="translate(72.444 19.488)">
    <path id="Trazado_1019527" data-name="Trazado 1019527" d="M53.333,14.627h-8.27a.813.813,0,1,1,0-1.627h8.27a.814.814,0,0,1,.813.813A.8.8,0,0,1,53.333,14.627Z" transform="translate(-44.25 -13)"/>
  </g>
  <g id="Grupo_1162672" data-name="Grupo 1162672" transform="translate(23.792 31.435)">
    <path id="Trazado_1019528" data-name="Trazado 1019528" d="M16.353,37.453a.814.814,0,0,1-.813-.813V20.863a.813.813,0,0,1,1.627,0V36.64A.8.8,0,0,1,16.353,37.453Z" transform="translate(-15.54 -20.05)"/>
  </g>
  <g id="Grupo_1162673" data-name="Grupo 1162673" transform="translate(21.267 27.825)">
    <ellipse id="Elipse_12812" data-name="Elipse 12812" cx="3.338" cy="3.338" rx="3.338" ry="3.338" fill="#ffca6b"/>
  </g>
  <g id="Grupo_1162674" data-name="Grupo 1162674" transform="translate(21.521 28.062)">
    <path id="Trazado_1019529" data-name="Trazado 1019529" d="M20.639,21.161A3.351,3.351,0,0,1,14.2,22.449a3.411,3.411,0,0,0,1.322.271,3.348,3.348,0,0,0,3.338-3.355,3.106,3.106,0,0,0-.271-1.3A3.4,3.4,0,0,1,20.639,21.161Z" transform="translate(-14.2 -18.06)" fill="#f9b84e"/>
  </g>
  <g id="Grupo_1162675" data-name="Grupo 1162675" transform="translate(20.437 26.995)">
    <path id="Trazado_1019530" data-name="Trazado 1019530" d="M17.729,25.767A4.169,4.169,0,1,1,21.9,21.6,4.166,4.166,0,0,1,17.729,25.767Zm0-6.694A2.525,2.525,0,1,0,20.254,21.6,2.531,2.531,0,0,0,17.729,19.074Z" transform="translate(-13.56 -17.43)"/>
  </g>
</svg>
