<svg id="desarrollo-web" xmlns="http://www.w3.org/2000/svg" width="106.759" height="106.759" viewBox="0 0 106.759 106.759">
  <g id="Grupo_1162552" data-name="Grupo 1162552" transform="translate(36.535 16.726)">
    <path id="Trazado_1019413" data-name="Trazado 1019413" d="M51.546,32.468a9.018,9.018,0,0,1-.356.847l2.372,4.965L50.038,41.8l-4.965-2.389a9.3,9.3,0,0,1-.864.356L42.4,44.957H37.413l-1.83-5.185a6.351,6.351,0,0,1-.847-.356L29.771,41.8,26.246,38.28l2.372-4.965c-.136-.271-.237-.559-.356-.83l-5.2-1.83V25.672l5.2-1.83a8.737,8.737,0,0,1,.356-.83l-2.372-4.965,3.525-3.525,4.965,2.389a7.453,7.453,0,0,1,.847-.356l1.83-5.185H42.4l1.813,5.185a9.3,9.3,0,0,1,.864.356l4.965-2.389,3.525,3.525L51.19,23.012a7.452,7.452,0,0,1,.356.847l5.185,1.813v4.982Z" transform="translate(-23.06 -11.37)" fill="#ff9a9a"/>
  </g>
  <g id="Grupo_1162553" data-name="Grupo 1162553" transform="translate(47.432 27.554)">
    <ellipse id="Elipse_12807" data-name="Elipse 12807" cx="5.948" cy="5.948" rx="5.948" ry="5.948" fill="#fff"/>
  </g>
  <g id="Grupo_1162554" data-name="Grupo 1162554" transform="translate(35.773 15.878)">
    <path id="Trazado_1019414" data-name="Trazado 1019414" d="M57.027,29.51a.814.814,0,0,1-.813-.813V26.579l-4.626-1.627a.787.787,0,0,1-.491-.491c-.1-.271-.22-.525-.339-.78a.868.868,0,0,1,0-.712l2.135-4.44L50.2,15.818l-4.44,2.135a.868.868,0,0,1-.712,0c-.288-.136-.525-.237-.763-.322a.839.839,0,0,1-.508-.508L42.149,12.5H38.336l-1.627,4.626a.857.857,0,0,1-.491.508,6.371,6.371,0,0,0-.78.339.868.868,0,0,1-.712,0l-4.44-2.135-2.694,2.711,2.118,4.44a.868.868,0,0,1,0,.712c-.085.2-.169.39-.254.593l-.085.2a.775.775,0,0,1-.491.458L24.237,26.6v2.1a.813.813,0,0,1-1.627,0V26a.827.827,0,0,1,.542-.78L28,23.512c.017-.051.051-.119.068-.169l-2.2-4.626a.826.826,0,0,1,.153-.932l3.508-3.525a.8.8,0,0,1,.932-.153l4.609,2.22a1.987,1.987,0,0,0,.186-.085l1.695-4.83a.827.827,0,0,1,.78-.542h4.982a.827.827,0,0,1,.78.542l1.695,4.813c.068.034.136.051.2.085l4.609-2.22a.821.821,0,0,1,.932.153l3.525,3.525a.8.8,0,0,1,.153.932l-2.22,4.626c.034.068.051.119.085.186l4.83,1.695a.827.827,0,0,1,.542.78V28.68A.8.8,0,0,1,57.027,29.51Z" transform="translate(-22.61 -10.87)"/>
  </g>
  <g id="Grupo_1162555" data-name="Grupo 1162555" transform="translate(46.601 26.724)">
    <path id="Trazado_1019415" data-name="Trazado 1019415" d="M41.726,25.065h-.1a.819.819,0,0,1-.712-.915v-.085a5.135,5.135,0,0,0-10.269,0v.1a.822.822,0,0,1-.712.915.832.832,0,0,1-.915-.712A2.161,2.161,0,0,1,29,24.048a6.778,6.778,0,0,1,13.557,0,1.842,1.842,0,0,1-.017.305.822.822,0,0,1-.813.712Z" transform="translate(-29 -17.27)"/>
  </g>
  <g id="Grupo_1162556" data-name="Grupo 1162556" transform="translate(0 105.132)">
    <path id="Trazado_1019416" data-name="Trazado 1019416" d="M3.6,65.167H2.313a.813.813,0,0,1,0-1.627H3.6a.814.814,0,0,1,.813.813A.8.8,0,0,1,3.6,65.167Z" transform="translate(-1.5 -63.54)"/>
  </g>
  <g id="Grupo_1162557" data-name="Grupo 1162557" transform="translate(4.575 105.132)">
    <path id="Trazado_1019417" data-name="Trazado 1019417" d="M101.944,65.167H5.013a.813.813,0,1,1,0-1.627h96.931a.814.814,0,0,1,.813.813A.8.8,0,0,1,101.944,65.167Z" transform="translate(-4.2 -63.54)"/>
  </g>
  <g id="Grupo_1162558" data-name="Grupo 1162558" transform="translate(103.878 105.132)">
    <path id="Trazado_1019418" data-name="Trazado 1019418" d="M64.867,65.167H63.613a.813.813,0,1,1,0-1.627h1.254a.814.814,0,0,1,.813.813A.825.825,0,0,1,64.867,65.167Z" transform="translate(-62.8 -63.54)"/>
  </g>
  <g id="Grupo_1162559" data-name="Grupo 1162559" transform="translate(6.406 97.54)">
    <path id="Trazado_1019419" data-name="Trazado 1019419" d="M99.228,59.06v3.931a4.462,4.462,0,0,1-4.457,4.457H9.737A4.462,4.462,0,0,1,5.28,62.991V59.06Z" transform="translate(-5.28 -59.06)" fill="#c6d0e0"/>
  </g>
  <g id="Grupo_1162560" data-name="Grupo 1162560" transform="translate(10.795 37.806)">
    <path id="Trazado_1019420" data-name="Trazado 1019420" d="M93.04,29.165V83.544H7.87V29.165a5.355,5.355,0,0,1,5.355-5.355h74.46a5.366,5.366,0,0,1,5.355,5.355Z" transform="translate(-7.87 -23.81)" fill="#d5dce5"/>
  </g>
  <g id="Grupo_1162561" data-name="Grupo 1162561" transform="translate(10.795 37.823)">
    <path id="Trazado_1019421" data-name="Trazado 1019421" d="M93.04,29.158V83.537H7.87V29.158a5.352,5.352,0,0,1,5.355-5.338h74.46a5.33,5.33,0,0,1,5.355,5.338Z" transform="translate(-7.87 -23.82)" fill="#d5dce5"/>
  </g>
  <g id="Grupo_1162562" data-name="Grupo 1162562" transform="translate(10.795 64.174)">
    <path id="Trazado_1019422" data-name="Trazado 1019422" d="M93.04,39.37V72.736H7.87V64.162C87.126,66.178,92.718,43.708,93.04,39.37Z" transform="translate(-7.87 -39.37)" fill="#93a8ba"/>
  </g>
  <g id="Grupo_1162563" data-name="Grupo 1162563" transform="translate(17.048 44.059)">
    <path id="Trazado_1019423" data-name="Trazado 1019423" d="M11.56,27.5H84.224V80.981H11.56Z" transform="translate(-11.56 -27.5)" fill="#6bbeeb"/>
  </g>
  <g id="Grupo_1162564" data-name="Grupo 1162564" transform="translate(36.569 67.021)">
    <path id="Trazado_1019424" data-name="Trazado 1019424" d="M56.7,44.829a3.761,3.761,0,0,1-3.762,3.762h-26.1a3.775,3.775,0,0,1-2.661-6.439,3.669,3.669,0,0,1,2.661-1.1h26.1A3.768,3.768,0,0,1,56.7,44.829Z" transform="translate(-23.08 -41.05)" fill="#f1f3f6"/>
  </g>
  <g id="Grupo_1162565" data-name="Grupo 1162565" transform="translate(36.569 67.021)">
    <path id="Trazado_1019425" data-name="Trazado 1019425" d="M43.6,41.05H26.842a3.761,3.761,0,0,0-3.762,3.762,3.779,3.779,0,0,0,3.762,3.779H43.6Z" transform="translate(-23.08 -41.05)" fill="#b9dd53"/>
  </g>
  <g id="Grupo_1162566" data-name="Grupo 1162566" transform="translate(5.592 96.727)">
    <path id="Trazado_1019426" data-name="Trazado 1019426" d="M95.088,68.612h-85A5.294,5.294,0,0,1,4.8,63.325V59.393a.814.814,0,0,1,.813-.813H99.561a.814.814,0,0,1,.813.813v3.931A5.294,5.294,0,0,1,95.088,68.612ZM6.427,60.224v3.118a3.66,3.66,0,0,0,3.643,3.643H95.088a3.638,3.638,0,0,0,3.643-3.643V60.224Z" transform="translate(-4.8 -58.58)"/>
  </g>
  <g id="Grupo_1162567" data-name="Grupo 1162567" transform="translate(9.981 36.993)">
    <path id="Trazado_1019427" data-name="Trazado 1019427" d="M8.2,39.649a.814.814,0,0,1-.813-.813V29.5a6.169,6.169,0,0,1,6.168-6.168h74.46A6.169,6.169,0,0,1,94.187,29.5v4.694a.814.814,0,0,1-.813.813.825.825,0,0,1-.813-.813V29.5a4.538,4.538,0,0,0-4.542-4.525H13.558A4.538,4.538,0,0,0,9.017,29.5v9.337a.8.8,0,0,1-.813.813Z" transform="translate(-7.39 -23.33)"/>
  </g>
  <g id="Grupo_1162568" data-name="Grupo 1162568" transform="translate(55.684 72.765)">
    <path id="Trazado_1019428" data-name="Trazado 1019428" d="M74.64,70.028H35.173a.813.813,0,1,1,0-1.627H73.827V45.253a.814.814,0,0,1,.813-.813.825.825,0,0,1,.813.813V69.215A.814.814,0,0,1,74.64,70.028Z" transform="translate(-34.36 -44.44)"/>
  </g>
  <g id="Grupo_1162569" data-name="Grupo 1162569" transform="translate(9.981 92.185)">
    <path id="Trazado_1019429" data-name="Trazado 1019429" d="M18.286,62.068H8.2a.814.814,0,0,1-.813-.813V56.713a.813.813,0,1,1,1.627,0v3.728h9.269a.814.814,0,0,1,.813.813A.793.793,0,0,1,18.286,62.068Z" transform="translate(-7.39 -55.9)"/>
  </g>
  <g id="Grupo_1162570" data-name="Grupo 1162570" transform="translate(55.684 72.765)">
    <path id="Trazado_1019430" data-name="Trazado 1019430" d="M68.387,70.028H35.173a.813.813,0,0,1,0-1.627h32.4V45.253a.813.813,0,0,1,1.627,0V69.215A.8.8,0,0,1,68.387,70.028Z" transform="translate(-34.36 -44.44)"/>
  </g>
  <g id="Grupo_1162571" data-name="Grupo 1162571" transform="translate(16.234 43.246)">
    <path id="Trazado_1019431" data-name="Trazado 1019431" d="M11.893,37.086a.814.814,0,0,1-.813-.813V27.833a.814.814,0,0,1,.813-.813H84.557a.814.814,0,0,1,.813.813v3.8a.813.813,0,0,1-1.627,0V28.647H12.724v7.609a.832.832,0,0,1-.83.83Z" transform="translate(-11.08 -27.02)"/>
  </g>
  <g id="Grupo_1162572" data-name="Grupo 1162572" transform="translate(16.234 92.185)">
    <path id="Trazado_1019432" data-name="Trazado 1019432" d="M15.723,62.068h-3.83a.814.814,0,0,1-.813-.813V56.713a.814.814,0,0,1,.813-.813.825.825,0,0,1,.813.813v3.728h3.016a.814.814,0,0,1,.813.813A.793.793,0,0,1,15.723,62.068Z" transform="translate(-11.08 -55.9)"/>
  </g>
  <g id="Grupo_1162573" data-name="Grupo 1162573" transform="translate(46.076 100.929)">
    <path id="Trazado_1019433" data-name="Trazado 1019433" d="M42.467,62.687H29.5a.814.814,0,0,1-.813-.813.825.825,0,0,1,.813-.813H42.467a.813.813,0,1,1,0,1.627Z" transform="translate(-28.69 -61.06)"/>
  </g>
  <g id="Grupo_1162574" data-name="Grupo 1162574" transform="translate(0.813 56.582)">
    <path id="Trazado_1019434" data-name="Trazado 1019434" d="M37.719,38.6V63.495a3.71,3.71,0,0,1-3.711,3.711H5.691A3.71,3.71,0,0,1,1.98,63.495V38.6A3.71,3.71,0,0,1,5.691,34.89H34.025A3.7,3.7,0,0,1,37.719,38.6Z" transform="translate(-1.98 -34.89)" fill="#f1f3f6"/>
  </g>
  <g id="Grupo_1162575" data-name="Grupo 1162575" transform="translate(0.813 56.582)">
    <path id="Trazado_1019435" data-name="Trazado 1019435" d="M37.736,38.6V63.478a3.71,3.71,0,0,1-3.711,3.711H5.691A3.7,3.7,0,0,1,1.98,63.478V38.6A3.71,3.71,0,0,1,5.691,34.89H34.025A3.71,3.71,0,0,1,37.736,38.6Z" transform="translate(-1.98 -34.89)" fill="#f1f3f6"/>
  </g>
  <g id="Grupo_1162576" data-name="Grupo 1162576" transform="translate(0.813 56.582)">
    <path id="Trazado_1019436" data-name="Trazado 1019436" d="M37.719,43.193V38.6a3.71,3.71,0,0,0-3.711-3.711H5.691A3.71,3.71,0,0,0,1.98,38.6v4.592Z" transform="translate(-1.98 -34.89)" fill="#323535"/>
  </g>
  <g id="Grupo_1162577" data-name="Grupo 1162577" transform="translate(0 55.769)">
    <path id="Trazado_1019437" data-name="Trazado 1019437" d="M34.358,68.353H6.025A4.535,4.535,0,0,1,1.5,63.828V38.935A4.535,4.535,0,0,1,6.025,34.41H34.358a4.535,4.535,0,0,1,4.525,4.525V63.828a4.535,4.535,0,0,1-4.525,4.525ZM6.025,36.054a2.878,2.878,0,0,0-2.881,2.881V63.828a2.878,2.878,0,0,0,2.881,2.881H34.358a2.878,2.878,0,0,0,2.881-2.881V38.935a2.878,2.878,0,0,0-2.881-2.881Z" transform="translate(-1.5 -34.41)"/>
  </g>
  <g id="Grupo_1162578" data-name="Grupo 1162578" transform="translate(0 55.786)">
    <path id="Trazado_1019438" data-name="Trazado 1019438" d="M38.069,44.35H2.313a.814.814,0,0,1-.813-.813V38.945A4.535,4.535,0,0,1,6.025,34.42H34.358a4.535,4.535,0,0,1,4.525,4.525v4.592a.825.825,0,0,1-.813.813ZM3.144,42.707h34.1V38.928a2.878,2.878,0,0,0-2.881-2.881H6.025a2.878,2.878,0,0,0-2.881,2.881Z" transform="translate(-1.5 -34.42)"/>
  </g>
  <g id="Grupo_1162579" data-name="Grupo 1162579" transform="translate(5.287 59.937)">
    <path id="Trazado_1019439" data-name="Trazado 1019439" d="M14.635,38.5h-9.2a.813.813,0,1,1,0-1.627h9.185a.814.814,0,0,1,.813.813A.8.8,0,0,1,14.635,38.5Z" transform="translate(-4.62 -36.87)" fill="#fff"/>
  </g>
  <g id="Grupo_1162580" data-name="Grupo 1162580" transform="translate(29.571 59.937)">
    <path id="Trazado_1019440" data-name="Trazado 1019440" d="M20.662,38.5h-.9a.813.813,0,0,1,0-1.627h.9a.813.813,0,0,1,0,1.627Z" transform="translate(-18.95 -36.87)" fill="#fff"/>
  </g>
  <g id="Grupo_1162581" data-name="Grupo 1162581" transform="translate(25.707 59.937)">
    <path id="Trazado_1019441" data-name="Trazado 1019441" d="M18.382,38.5h-.9a.813.813,0,1,1,0-1.627h.9a.813.813,0,1,1,0,1.627Z" transform="translate(-16.67 -36.87)" fill="#fff"/>
  </g>
  <g id="Grupo_1162582" data-name="Grupo 1162582" transform="translate(21.843 59.937)">
    <path id="Trazado_1019442" data-name="Trazado 1019442" d="M16.1,38.5h-.9a.813.813,0,1,1,0-1.627h.9a.813.813,0,1,1,0,1.627Z" transform="translate(-14.39 -36.87)" fill="#fff"/>
  </g>
  <g id="Grupo_1162583" data-name="Grupo 1162583" transform="translate(15.76 70.969)">
    <path id="Trazado_1019443" data-name="Trazado 1019443" d="M17.155,45.007H11.613a.813.813,0,1,1,0-1.627h5.541a.814.814,0,0,1,.813.813.8.8,0,0,1-.813.813Z" transform="translate(-10.8 -43.38)" fill="#358f6e"/>
  </g>
  <g id="Grupo_1162584" data-name="Grupo 1162584" transform="translate(13.743 81.764)">
    <path id="Trazado_1019444" data-name="Trazado 1019444" d="M12.728,51.377h-2.3a.813.813,0,1,1,0-1.627h2.3a.814.814,0,0,1,.813.813A.793.793,0,0,1,12.728,51.377Z" transform="translate(-9.61 -49.75)" fill="#564dc6"/>
  </g>
  <g id="Grupo_1162585" data-name="Grupo 1162585" transform="translate(7.134 70.969)">
    <path id="Trazado_1019445" data-name="Trazado 1019445" d="M8.794,45.007H6.523a.813.813,0,1,1,0-1.627H8.794a.814.814,0,0,1,.813.813A.825.825,0,0,1,8.794,45.007Z" transform="translate(-5.71 -43.38)" fill="#c6d0e0"/>
  </g>
  <g id="Grupo_1162586" data-name="Grupo 1162586" transform="translate(7.134 76.375)">
    <path id="Trazado_1019446" data-name="Trazado 1019446" d="M8.794,48.2H6.523a.814.814,0,0,1-.813-.813.825.825,0,0,1,.813-.813H8.794a.814.814,0,0,1,.813.813A.825.825,0,0,1,8.794,48.2Z" transform="translate(-5.71 -46.57)" fill="#ff9a9a"/>
  </g>
  <g id="Grupo_1162587" data-name="Grupo 1162587" transform="translate(21.589 76.375)">
    <path id="Trazado_1019447" data-name="Trazado 1019447" d="M22.086,48.2H15.053a.814.814,0,0,1-.813-.813.825.825,0,0,1,.813-.813h7.033a.813.813,0,1,1,0,1.627Z" transform="translate(-14.24 -46.57)" fill="#c6d0e0"/>
  </g>
  <g id="Grupo_1162588" data-name="Grupo 1162588" transform="translate(21.589 81.764)">
    <path id="Trazado_1019448" data-name="Trazado 1019448" d="M22.086,51.377H15.053a.814.814,0,0,1-.813-.813.825.825,0,0,1,.813-.813h7.033a.813.813,0,1,1,0,1.627Z" transform="translate(-14.24 -49.75)" fill="#c6d0e0"/>
  </g>
  <g id="Grupo_1162589" data-name="Grupo 1162589" transform="translate(14.201 76.375)">
    <path id="Trazado_1019449" data-name="Trazado 1019449" d="M14.879,48.2H10.693a.814.814,0,0,1-.813-.813.825.825,0,0,1,.813-.813h4.186a.814.814,0,0,1,.813.813A.825.825,0,0,1,14.879,48.2Z" transform="translate(-9.88 -46.57)" fill="#564dc6"/>
  </g>
  <g id="Grupo_1162590" data-name="Grupo 1162590" transform="translate(80.662 51.973)">
    <path id="Trazado_1019450" data-name="Trazado 1019450" d="M74.383,34.627V47.2a2.459,2.459,0,0,1-2.457,2.457H51.557A2.459,2.459,0,0,1,49.1,47.2V34.627a2.459,2.459,0,0,1,2.457-2.457H71.909a2.452,2.452,0,0,1,2.474,2.457Z" transform="translate(-49.1 -32.17)" fill="#ffca6b"/>
  </g>
  <g id="Grupo_1162591" data-name="Grupo 1162591" transform="translate(80.662 51.973)">
    <path id="Trazado_1019451" data-name="Trazado 1019451" d="M74.383,34.627V47.218a2.459,2.459,0,0,1-2.457,2.457H51.557A2.459,2.459,0,0,1,49.1,47.218V34.627a2.459,2.459,0,0,1,2.457-2.457H71.909A2.452,2.452,0,0,1,74.383,34.627Z" transform="translate(-49.1 -32.17)" fill="#ffca6b"/>
  </g>
  <g id="Grupo_1162592" data-name="Grupo 1162592" transform="translate(80.662 54.43)">
    <path id="Trazado_1019452" data-name="Trazado 1019452" d="M74.383,33.62V46.211a2.459,2.459,0,0,1-2.457,2.457H51.557A2.459,2.459,0,0,1,49.1,46.211V43.364C70.52,43.364,74.383,33.62,74.383,33.62Z" transform="translate(-49.1 -33.62)" fill="#f9b84e"/>
  </g>
  <g id="Grupo_1162593" data-name="Grupo 1162593" transform="translate(79.832 51.143)">
    <path id="Trazado_1019453" data-name="Trazado 1019453" d="M72.25,50.829H51.9a3.291,3.291,0,0,1-3.288-3.287V34.967A3.291,3.291,0,0,1,51.9,31.68H72.25a3.291,3.291,0,0,1,3.288,3.287v7.524a.813.813,0,0,1-1.627,0V34.967a1.645,1.645,0,0,0-1.644-1.644H51.9a1.645,1.645,0,0,0-1.644,1.644V47.541A1.645,1.645,0,0,0,51.9,49.185H72.25a1.645,1.645,0,0,0,1.644-1.644v-.136a.813.813,0,0,1,1.627,0v.136a3.265,3.265,0,0,1-3.271,3.287Z" transform="translate(-48.61 -31.68)"/>
  </g>
  <g id="Grupo_1162594" data-name="Grupo 1162594" transform="translate(89.843 55.307)">
    <path id="Trazado_1019454" data-name="Trazado 1019454" d="M55.335,45.021a.9.9,0,0,1-.407-.1.826.826,0,0,1-.305-1.118l5.253-9.252a.82.82,0,0,1,1.423.813l-5.253,9.252A.811.811,0,0,1,55.335,45.021Z" transform="translate(-54.518 -34.138)"/>
  </g>
  <g id="Grupo_1162595" data-name="Grupo 1162595" transform="translate(95.283 60.289)">
    <path id="Trazado_1019455" data-name="Trazado 1019455" d="M58.545,42.572a.837.837,0,0,1-.576-.237.828.828,0,0,1,0-1.169l1.339-1.339-1.339-1.339a.827.827,0,0,1,1.169-1.169l1.915,1.915a.828.828,0,0,1,0,1.169l-1.915,1.915a.761.761,0,0,1-.593.254Z" transform="translate(-57.728 -37.078)"/>
  </g>
  <g id="Grupo_1162596" data-name="Grupo 1162596" transform="translate(87.759 55.68)">
    <path id="Trazado_1019456" data-name="Trazado 1019456" d="M56.02,39.835a.837.837,0,0,1-.576-.237l-1.915-1.915a.828.828,0,0,1,0-1.169L55.444,34.6a.827.827,0,1,1,1.169,1.169l-1.339,1.339,1.339,1.339a.828.828,0,0,1,0,1.169A.891.891,0,0,1,56.02,39.835Z" transform="translate(-53.288 -34.357)"/>
  </g>
  <g id="Grupo_1162597" data-name="Grupo 1162597" transform="translate(83.272 83.577)">
    <path id="Trazado_1019457" data-name="Trazado 1019457" d="M51.453,60.242a.814.814,0,0,1-.813-.813v-7.8a.814.814,0,0,1,.813-.813.825.825,0,0,1,.813.813v7.778A.807.807,0,0,1,51.453,60.242Z" transform="translate(-50.64 -50.82)" fill="#fff"/>
  </g>
  <g id="Grupo_1162598" data-name="Grupo 1162598" transform="translate(83.272 77.866)">
    <path id="Trazado_1019458" data-name="Trazado 1019458" d="M51.453,50.687a.814.814,0,0,1-.813-.813v-1.61a.814.814,0,0,1,.813-.813.825.825,0,0,1,.813.813v1.61A.8.8,0,0,1,51.453,50.687Z" transform="translate(-50.64 -47.45)" fill="#fff"/>
  </g>
  <g id="Grupo_1162599" data-name="Grupo 1162599" transform="translate(39.857 66.241)">
    <path id="Trazado_1019459" data-name="Trazado 1019459" d="M51.591,49.741H25.833a.813.813,0,1,1,0-1.627H51.591a2.949,2.949,0,1,0,0-5.9H25.833a.813.813,0,1,1,0-1.627H51.591a4.589,4.589,0,0,1,3.237,7.846,4.664,4.664,0,0,1-3.237,1.3Z" transform="translate(-25.02 -40.59)"/>
  </g>
  <g id="Grupo_1162600" data-name="Grupo 1162600" transform="translate(39.857 66.241)">
    <path id="Trazado_1019460" data-name="Trazado 1019460" d="M42.254,49.741H25.833a.813.813,0,1,1,0-1.627H41.441v-5.9H25.833a.813.813,0,1,1,0-1.627H42.254a.814.814,0,0,1,.813.813v7.541a.789.789,0,0,1-.813.8Z" transform="translate(-25.02 -40.59)"/>
  </g>
  <g id="Grupo_1162601" data-name="Grupo 1162601" transform="translate(19.725 10.998)">
    <path id="Trazado_1019461" data-name="Trazado 1019461" d="M13.953,35.629a.814.814,0,0,1-.813-.813V8.8a.813.813,0,0,1,1.627,0V34.8A.828.828,0,0,1,13.953,35.629Z" transform="translate(-13.14 -7.99)"/>
  </g>
  <g id="Grupo_1162602" data-name="Grupo 1162602" transform="translate(52.566 4.626)">
    <path id="Trazado_1019462" data-name="Trazado 1019462" d="M33.333,12.449a.814.814,0,0,1-.813-.813V5.043a.814.814,0,0,1,.813-.813.825.825,0,0,1,.813.813v6.592A.8.8,0,0,1,33.333,12.449Z" transform="translate(-32.52 -4.23)"/>
  </g>
  <g id="Grupo_1162603" data-name="Grupo 1162603" transform="translate(50.024 0.813)">
    <ellipse id="Elipse_12808" data-name="Elipse 12808" cx="3.355" cy="3.355" rx="3.355" ry="3.355" fill="#726ad3"/>
  </g>
  <g id="Grupo_1162604" data-name="Grupo 1162604" transform="translate(50.312 1.101)">
    <path id="Trazado_1019463" data-name="Trazado 1019463" d="M37.612,5.217a3.363,3.363,0,0,1-3.355,3.355A3.327,3.327,0,0,1,31.19,6.539a3.264,3.264,0,0,0,1.3.271,3.348,3.348,0,0,0,3.338-3.355,3.106,3.106,0,0,0-.271-1.3,3.307,3.307,0,0,1,2.05,3.067Z" transform="translate(-31.19 -2.15)" fill="#564dc6"/>
  </g>
  <g id="Grupo_1162605" data-name="Grupo 1162605" transform="translate(49.211 0)">
    <path id="Trazado_1019464" data-name="Trazado 1019464" d="M34.709,9.837a4.169,4.169,0,1,1,4.169-4.169A4.166,4.166,0,0,1,34.709,9.837Zm0-6.694a2.525,2.525,0,1,0,2.525,2.525,2.531,2.531,0,0,0-2.525-2.525Z" transform="translate(-30.54 -1.5)"/>
  </g>
  <g id="Grupo_1162606" data-name="Grupo 1162606" transform="translate(17.183 7.185)">
    <ellipse id="Elipse_12809" data-name="Elipse 12809" cx="3.355" cy="3.355" rx="3.355" ry="3.355" fill="#b9dd53"/>
  </g>
  <g id="Grupo_1162607" data-name="Grupo 1162607" transform="translate(17.454 7.456)">
    <path id="Trazado_1019465" data-name="Trazado 1019465" d="M18.222,8.967a3.363,3.363,0,0,1-3.355,3.355A3.327,3.327,0,0,1,11.8,10.289a3.264,3.264,0,0,0,1.3.271A3.348,3.348,0,0,0,16.443,7.2a3.106,3.106,0,0,0-.271-1.3,3.316,3.316,0,0,1,2.05,3.067Z" transform="translate(-11.8 -5.9)" fill="#83960f"/>
  </g>
  <g id="Grupo_1162608" data-name="Grupo 1162608" transform="translate(16.37 6.372)">
    <path id="Trazado_1019466" data-name="Trazado 1019466" d="M15.329,13.6A4.169,4.169,0,1,1,19.5,9.429,4.166,4.166,0,0,1,15.329,13.6Zm0-6.711a2.525,2.525,0,1,0,2.525,2.525A2.531,2.531,0,0,0,15.329,6.887Z" transform="translate(-11.16 -5.26)"/>
  </g>
  <g id="Grupo_1162609" data-name="Grupo 1162609" transform="translate(99.845 12.642)">
    <path id="Trazado_1019467" data-name="Trazado 1019467" d="M61.521,41.9h-.288a.813.813,0,1,1,0-1.627h.288a.814.814,0,0,0,.813-.813V9.773a.814.814,0,0,1,.813-.813.825.825,0,0,1,.813.813V39.429A2.427,2.427,0,0,1,61.521,41.9Z" transform="translate(-60.42 -8.96)"/>
  </g>
  <g id="Grupo_1162610" data-name="Grupo 1162610" transform="translate(99.252 9.049)">
    <ellipse id="Elipse_12810" data-name="Elipse 12810" cx="3.338" cy="3.338" rx="3.338" ry="3.338" fill="#ffca6b"/>
  </g>
  <g id="Grupo_1162611" data-name="Grupo 1162611" transform="translate(99.506 9.286)">
    <path id="Trazado_1019468" data-name="Trazado 1019468" d="M66.659,10.081a3.351,3.351,0,0,1-6.439,1.288,3.411,3.411,0,0,0,1.322.271A3.348,3.348,0,0,0,64.88,8.285a3.106,3.106,0,0,0-.271-1.3A3.389,3.389,0,0,1,66.659,10.081Z" transform="translate(-60.22 -6.98)" fill="#ef8f06"/>
  </g>
  <g id="Grupo_1162612" data-name="Grupo 1162612" transform="translate(98.422 8.219)">
    <path id="Trazado_1019469" data-name="Trazado 1019469" d="M63.749,14.687a4.169,4.169,0,1,1,4.169-4.169A4.166,4.166,0,0,1,63.749,14.687Zm0-6.694a2.525,2.525,0,1,0,2.525,2.525A2.531,2.531,0,0,0,63.749,7.994Z" transform="translate(-59.58 -6.35)"/>
  </g>
</svg>
