<svg id="navegar" xmlns="http://www.w3.org/2000/svg" width="134.035" height="134.035" viewBox="0 0 134.035 134.035">
  <g id="Grupo_1161474" data-name="Grupo 1161474" transform="translate(4.213 13.978)">
    <path id="Trazado_1017854" data-name="Trazado 1017854" d="M14.65,68.726H6.565A3.087,3.087,0,0,1,3.48,65.641V9.091A1.021,1.021,0,0,1,4.5,8.07,1.035,1.035,0,0,1,5.522,9.091v56.55a1.021,1.021,0,0,0,1.021,1.021H14.65a1.032,1.032,0,0,1,0,2.064Z" transform="translate(-3.48 -8.07)"/>
  </g>
  <g id="Grupo_1161475" data-name="Grupo 1161475" transform="translate(1.042 9.446)">
    <ellipse id="Elipse_12793" data-name="Elipse 12793" cx="4.191" cy="4.191" rx="4.191" ry="4.191" fill="#b9dd53"/>
  </g>
  <g id="Grupo_1161476" data-name="Grupo 1161476" transform="translate(1.362 9.744)">
    <path id="Trazado_1017855" data-name="Trazado 1017855" d="M10.225,9.973A4.207,4.207,0,0,1,2.14,11.59a4.283,4.283,0,0,0,1.659.34A4.2,4.2,0,0,0,7.991,7.718,3.9,3.9,0,0,0,7.65,6.08,4.278,4.278,0,0,1,10.225,9.973Z" transform="translate(-2.14 -6.08)" fill="#83960f"/>
  </g>
  <g id="Grupo_1161477" data-name="Grupo 1161477" transform="translate(0 8.404)">
    <path id="Trazado_1017856" data-name="Trazado 1017856" d="M6.734,15.918a5.234,5.234,0,1,1,5.234-5.234A5.23,5.23,0,0,1,6.734,15.918Zm0-8.4a3.17,3.17,0,1,0,3.17,3.17A3.178,3.178,0,0,0,6.734,7.514Z" transform="translate(-1.5 -5.45)"/>
  </g>
  <g id="Grupo_1161478" data-name="Grupo 1161478" transform="translate(0 131.993)">
    <path id="Trazado_1017857" data-name="Trazado 1017857" d="M6.649,65.582H2.521a1.021,1.021,0,1,1,0-2.042H6.627a1.021,1.021,0,0,1,1.021,1.021.99.99,0,0,1-1,1.021Z" transform="translate(-1.5 -63.54)"/>
  </g>
  <g id="Grupo_1161479" data-name="Grupo 1161479" transform="translate(9.042 131.993)">
    <path id="Trazado_1017858" data-name="Trazado 1017858" d="M129.722,65.582H6.771a1.021,1.021,0,1,1,0-2.042H129.722a1.021,1.021,0,0,1,1.021,1.021A1.035,1.035,0,0,1,129.722,65.582Z" transform="translate(-5.75 -63.54)"/>
  </g>
  <g id="Grupo_1161480" data-name="Grupo 1161480" transform="translate(23.169 42.593)">
    <path id="Trazado_1017859" data-name="Trazado 1017859" d="M121.49,21.52v84.591a5.825,5.825,0,0,1-5.829,5.829H18.219a5.825,5.825,0,0,1-5.829-5.829V21.52Z" transform="translate(-12.39 -21.52)" fill="#d5dce5"/>
  </g>
  <g id="Grupo_1161481" data-name="Grupo 1161481" transform="translate(22.148 41.572)">
    <path id="Trazado_1017860" data-name="Trazado 1017860" d="M116.2,113.5H18.761a6.846,6.846,0,0,1-6.851-6.851V22.061a1.021,1.021,0,0,1,1.021-1.021h109.1a1.021,1.021,0,0,1,1.021,1.021V79.016a1.021,1.021,0,0,1-2.042,0V23.082H13.974v83.57a4.794,4.794,0,0,0,4.787,4.787H116.2a4.794,4.794,0,0,0,4.787-4.787V86.207a1.021,1.021,0,1,1,2.042,0v20.446A6.815,6.815,0,0,1,116.2,113.5Z" transform="translate(-11.91 -21.04)"/>
  </g>
  <g id="Grupo_1161482" data-name="Grupo 1161482" transform="translate(23.169 23.424)">
    <path id="Trazado_1017861" data-name="Trazado 1017861" d="M12.39,31.679V18.339a5.825,5.825,0,0,1,5.829-5.829h97.442a5.825,5.825,0,0,1,5.829,5.829v13.34Z" transform="translate(-12.39 -12.51)" fill="#1d2121"/>
  </g>
  <g id="Grupo_1161483" data-name="Grupo 1161483" transform="translate(63.401 22.403)">
    <path id="Trazado_1017862" data-name="Trazado 1017862" d="M100.169,33.242H32.321A1.021,1.021,0,0,1,31.3,32.22V18.881a6.846,6.846,0,0,1,6.851-6.851H94.36a6.846,6.846,0,0,1,6.851,6.851V32.22A1.069,1.069,0,0,1,100.169,33.242ZM33.342,31.178H99.126v-12.3a4.794,4.794,0,0,0-4.787-4.787H38.129a4.794,4.794,0,0,0-4.787,4.787Z" transform="translate(-31.3 -12.03)"/>
  </g>
  <g id="Grupo_1161484" data-name="Grupo 1161484" transform="translate(13.382 42.593)">
    <path id="Trazado_1017863" data-name="Trazado 1017863" d="M116.89,21.52v84.591a5.825,5.825,0,0,1-5.829,5.829H13.619a5.825,5.825,0,0,1-5.829-5.829V21.52Z" transform="translate(-7.79 -21.52)" fill="#f1f3f6"/>
  </g>
  <g id="Grupo_1161485" data-name="Grupo 1161485" transform="translate(13.404 74.783)">
    <path id="Trazado_1017864" data-name="Trazado 1017864" d="M116.879,36.65v52.4a5.807,5.807,0,0,1-5.829,5.808H13.608A5.8,5.8,0,0,1,7.8,89.051V81.818C113.837,95.881,116.879,40.99,116.879,36.65Z" transform="translate(-7.8 -36.65)" fill="#d5dce5"/>
  </g>
  <g id="Grupo_1161486" data-name="Grupo 1161486" transform="translate(12.361 41.551)">
    <path id="Trazado_1017865" data-name="Trazado 1017865" d="M111.6,113.514H14.161a6.874,6.874,0,0,1-6.851-6.851V58.219a1.021,1.021,0,0,1,2.042,0v48.423a4.794,4.794,0,0,0,4.787,4.787H111.6a4.794,4.794,0,0,0,4.787-4.787V23.094H9.374V47.922a1.021,1.021,0,0,1-2.042,0V22.051A1.021,1.021,0,0,1,8.352,21.03h109.1a1.021,1.021,0,0,1,1.021,1.021v84.591A6.883,6.883,0,0,1,111.6,113.514Z" transform="translate(-7.31 -21.03)"/>
  </g>
  <g id="Grupo_1161487" data-name="Grupo 1161487" transform="translate(13.382 23.424)">
    <path id="Trazado_1017866" data-name="Trazado 1017866" d="M7.79,31.679V18.339a5.825,5.825,0,0,1,5.829-5.829h97.442a5.825,5.825,0,0,1,5.829,5.829v13.34Z" transform="translate(-7.79 -12.51)" fill="#323535"/>
  </g>
  <g id="Grupo_1161488" data-name="Grupo 1161488" transform="translate(12.361 22.403)">
    <path id="Trazado_1017867" data-name="Trazado 1017867" d="M117.432,33.242H8.331A1.021,1.021,0,0,1,7.31,32.22V18.881a6.846,6.846,0,0,1,6.851-6.851H33.819a1.021,1.021,0,0,1,0,2.042H14.161a4.794,4.794,0,0,0-4.787,4.787v12.3H116.41v-12.3a4.794,4.794,0,0,0-4.787-4.787H40.01a1.021,1.021,0,1,1,0-2.042h71.613a6.846,6.846,0,0,1,6.851,6.851V32.22a1.054,1.054,0,0,1-1.043,1.021Z" transform="translate(-7.31 -12.03)"/>
  </g>
  <g id="Grupo_1161489" data-name="Grupo 1161489" transform="translate(89.719 30.466)">
    <path id="Trazado_1017868" data-name="Trazado 1017868" d="M53.882,18.373a2.542,2.542,0,0,1-2.553,2.553H46.223a2.553,2.553,0,1,1,0-5.106h5.106A2.547,2.547,0,0,1,53.882,18.373Z" transform="translate(-43.67 -15.82)" fill="#b9dd53"/>
  </g>
  <g id="Grupo_1161490" data-name="Grupo 1161490" transform="translate(93.442 30.466)">
    <path id="Trazado_1017869" data-name="Trazado 1017869" d="M51.909,18.373a2.632,2.632,0,0,1-.745,1.808,2.553,2.553,0,0,1-1.83.745H45.42a2.553,2.553,0,0,0,0-5.106h3.915a2.552,2.552,0,0,1,2.574,2.553Z" transform="translate(-45.42 -15.82)" fill="#83960f"/>
  </g>
  <g id="Grupo_1161491" data-name="Grupo 1161491" transform="translate(88.697 29.445)">
    <path id="Trazado_1017870" data-name="Trazado 1017870" d="M51.87,22.489H46.764a3.574,3.574,0,1,1,0-7.149H51.87a3.582,3.582,0,0,1,3.574,3.574A3.538,3.538,0,0,1,54.4,21.446,3.628,3.628,0,0,1,51.87,22.489Zm-5.106-5.106a1.521,1.521,0,1,0-.021,3.042h5.106a1.521,1.521,0,0,0,.021-3.042Z" transform="translate(-43.19 -15.34)"/>
  </g>
  <g id="Grupo_1161492" data-name="Grupo 1161492" transform="translate(74.975 30.466)">
    <path id="Trazado_1017871" data-name="Trazado 1017871" d="M46.952,18.373A2.542,2.542,0,0,1,44.4,20.926H39.293a2.553,2.553,0,1,1,0-5.106H44.4A2.547,2.547,0,0,1,46.952,18.373Z" transform="translate(-36.74 -15.82)" fill="#ff9a9a"/>
  </g>
  <g id="Grupo_1161493" data-name="Grupo 1161493" transform="translate(78.719 30.466)">
    <path id="Trazado_1017872" data-name="Trazado 1017872" d="M44.968,18.373a2.632,2.632,0,0,1-.745,1.808,2.553,2.553,0,0,1-1.83.745H38.5a2.553,2.553,0,0,0,0-5.106h3.915a2.547,2.547,0,0,1,2.553,2.553Z" transform="translate(-38.5 -15.82)" fill="#d86666"/>
  </g>
  <g id="Grupo_1161494" data-name="Grupo 1161494" transform="translate(73.953 29.445)">
    <path id="Trazado_1017873" data-name="Trazado 1017873" d="M44.94,22.489H39.834a3.574,3.574,0,1,1,0-7.149H44.94a3.582,3.582,0,0,1,3.574,3.574,3.538,3.538,0,0,1-1.043,2.532A3.59,3.59,0,0,1,44.94,22.489Zm-5.085-5.106a1.521,1.521,0,1,0-.021,3.042H44.94a1.521,1.521,0,0,0,.021-3.042Z" transform="translate(-36.26 -15.34)"/>
  </g>
  <g id="Grupo_1161495" data-name="Grupo 1161495" transform="translate(104.462 30.466)">
    <path id="Trazado_1017874" data-name="Trazado 1017874" d="M50.6,18.373a2.542,2.542,0,0,0,2.553,2.553h5.106a2.553,2.553,0,1,0,0-5.106H53.153A2.547,2.547,0,0,0,50.6,18.373Z" transform="translate(-50.6 -15.82)" fill="#564dc6"/>
  </g>
  <g id="Grupo_1161496" data-name="Grupo 1161496" transform="translate(108.207 30.466)">
    <path id="Trazado_1017875" data-name="Trazado 1017875" d="M58.828,18.373a2.561,2.561,0,0,1-2.553,2.553H52.36a2.553,2.553,0,1,0,0-5.106h3.915a2.54,2.54,0,0,1,1.808.745A2.5,2.5,0,0,1,58.828,18.373Z" transform="translate(-52.36 -15.82)" fill="#2e2780"/>
  </g>
  <g id="Grupo_1161497" data-name="Grupo 1161497" transform="translate(103.441 29.445)">
    <path id="Trazado_1017876" data-name="Trazado 1017876" d="M58.8,22.489H53.694a3.574,3.574,0,0,1,0-7.149H58.8a3.559,3.559,0,0,1,3.574,3.574A3.582,3.582,0,0,1,58.8,22.489Zm-5.106-5.106a1.521,1.521,0,0,0,.021,3.042h5.106a1.521,1.521,0,0,0-.021-3.042Z" transform="translate(-50.12 -15.34)"/>
  </g>
  <g id="Grupo_1161498" data-name="Grupo 1161498" transform="translate(20.169 31.998)">
    <path id="Trazado_1017877" data-name="Trazado 1017877" d="M40.212,18.582H12a1.021,1.021,0,1,1,0-2.042H40.212a1.021,1.021,0,0,1,1.021,1.021A1.008,1.008,0,0,1,40.212,18.582Z" transform="translate(-10.98 -16.54)" fill="#f1f3f6"/>
  </g>
  <g id="Grupo_1161499" data-name="Grupo 1161499" transform="translate(54.21 31.998)">
    <path id="Trazado_1017878" data-name="Trazado 1017878" d="M34.022,18.582H28a1.021,1.021,0,0,1,0-2.042h6.021a1.021,1.021,0,1,1,0,2.042Z" transform="translate(-26.98 -16.54)" fill="#f1f3f6"/>
  </g>
  <g id="Grupo_1161500" data-name="Grupo 1161500" transform="translate(33.168 53.274)">
    <ellipse id="Elipse_12794" data-name="Elipse 12794" cx="35.147" cy="35.147" rx="35.147" ry="35.147" fill="#6bbeeb"/>
  </g>
  <g id="Grupo_1161501" data-name="Grupo 1161501" transform="translate(64.571 53.274)">
    <path id="Trazado_1017879" data-name="Trazado 1017879" d="M70.742,61.687A35.144,35.144,0,0,1,35.594,96.834a36.469,36.469,0,0,1-3.744-.191,35.157,35.157,0,0,0,0-69.911,36.47,36.47,0,0,1,3.744-.191A35.13,35.13,0,0,1,70.742,61.687Z" transform="translate(-31.85 -26.54)" fill="#2e87af"/>
  </g>
  <g id="Grupo_1161502" data-name="Grupo 1161502" transform="translate(51.287 68.256)">
    <path id="Trazado_1017880" data-name="Trazado 1017880" d="M32.848,35.386c.021.957-.787,1.489-1.532,1.936-.808.489-1.6.957-2.383,1.447a.862.862,0,0,0-.191.106,2.086,2.086,0,0,1-3.127-1.915v-.021a3.039,3.039,0,0,1,1.128-1.957,6.682,6.682,0,0,1,2.042-1.064,3.831,3.831,0,0,1,3.17.021A1.724,1.724,0,0,1,32.848,35.386Z" transform="translate(-25.606 -33.582)" fill="#b9dd53"/>
  </g>
  <g id="Grupo_1161503" data-name="Grupo 1161503" transform="translate(51.351 53.252)">
    <path id="Trazado_1017881" data-name="Trazado 1017881" d="M56.281,29.3a19.484,19.484,0,0,0-4,2.383c-1.872,1.425-3.468,3.149-5.4,4.489a8.618,8.618,0,0,1-6.6,1.745c-2.128-.468-3.979-2.128-6.149-2.064-1.511.043-2.851.915-4.276,1.383-1.425.447-3.34.3-4-1.064a4.046,4.046,0,0,1,.191-2.979c.34-1.021.681-2.042,1-3.042A34.893,34.893,0,0,1,42.579,26.53,35.327,35.327,0,0,1,56.281,29.3Z" transform="translate(-25.636 -26.53)" fill="#fff"/>
  </g>
  <g id="Grupo_1161504" data-name="Grupo 1161504" transform="translate(64.55 53.273)">
    <path id="Trazado_1017882" data-name="Trazado 1017882" d="M49.286,29.285a20.572,20.572,0,0,0-3.51,2.021A34.675,34.675,0,0,0,31.84,26.732a36.057,36.057,0,0,1,3.723-.191,35.036,35.036,0,0,1,13.723,2.745Z" transform="translate(-31.84 -26.54)" fill="#c6d0e0"/>
  </g>
  <g id="Grupo_1161505" data-name="Grupo 1161505" transform="translate(86.46 94.037)">
    <path id="Trazado_1017883" data-name="Trazado 1017883" d="M58.694,45.7a35.128,35.128,0,0,1-8.957,18.318,14.5,14.5,0,0,0-4.3-1.936,11.456,11.456,0,0,1-1.894-.574,2.383,2.383,0,0,1-1.34-1.383,2.513,2.513,0,0,1,.936-2.425,13.644,13.644,0,0,1,2.34-1.4,3.653,3.653,0,0,0,1.787-2c.3-1.106-.3-2.234-.723-3.319s-.574-2.489.319-3.213a3.52,3.52,0,0,1,2.383-.4A21.2,21.2,0,0,0,58.694,45.7Z" transform="translate(-42.139 -45.7)" fill="#b9dd53"/>
  </g>
  <g id="Grupo_1161506" data-name="Grupo 1161506" transform="translate(88.506 94.037)">
    <path id="Trazado_1017884" data-name="Trazado 1017884" d="M57.61,45.7a35.128,35.128,0,0,1-8.957,18.318,14.5,14.5,0,0,0-4.3-1.936,12.1,12.1,0,0,1-1.255-.34,34.613,34.613,0,0,0,6.7-14.361A21.173,21.173,0,0,0,57.61,45.7Z" transform="translate(-43.1 -45.7)" fill="#83960f"/>
  </g>
  <g id="Grupo_1161507" data-name="Grupo 1161507" transform="translate(65.906 61.231)">
    <path id="Trazado_1017885" data-name="Trazado 1017885" d="M67.183,43.577l-3.574,7.34c-1.277,2.617-2.83,6.042-5.51,7.212-2.34,1.021-4.978-.106-7.51.362a23.934,23.934,0,0,0-5.659,2.234,12.4,12.4,0,0,1-5.851,1.553,5.03,5.03,0,0,1-4.681-3.3c-.638-2.34,1.7-4.978.723-7.212-.6-1.34-2.766-2.362-2.638-3.83a3.721,3.721,0,0,1,1.6-2.276,78.437,78.437,0,0,1,10.957-7c4.4-2.489,8.744-4.787,12.191-8.383A35.7,35.7,0,0,1,67.183,43.577Z" transform="translate(-32.477 -30.28)" fill="#b9dd53"/>
  </g>
  <g id="Grupo_1161508" data-name="Grupo 1161508" transform="translate(86.719 61.252)">
    <path id="Trazado_1017886" data-name="Trazado 1017886" d="M56.153,43.566l-3.574,7.34c-.4.808-.83,1.7-1.3,2.6A35.212,35.212,0,0,0,42.26,33.673,26.9,26.9,0,0,0,46.2,30.29,35.682,35.682,0,0,1,56.153,43.566Z" transform="translate(-42.26 -30.29)" fill="#83960f"/>
  </g>
  <g id="Grupo_1161509" data-name="Grupo 1161509" transform="translate(33.211 90.484)">
    <path id="Trazado_1017887" data-name="Trazado 1017887" d="M35.045,60.923a22.514,22.514,0,0,1-2.659,5.829A22.487,22.487,0,0,0,30.875,69.9,35.128,35.128,0,0,1,17.11,44.073c.4-.021.787-.043,1.191-.043,1.553-.021,3.319.383,4.064,1.745.66,1.234.213,2.766.638,4.085.617,1.936,2.851,2.83,4.851,3.191s4.213.532,5.723,1.894a6.248,6.248,0,0,1,1.468,5.978Z" transform="translate(-17.11 -44.03)" fill="#b9dd53"/>
  </g>
  <g id="Grupo_1161510" data-name="Grupo 1161510" transform="translate(55.848 116.599)">
    <path id="Trazado_1017888" data-name="Trazado 1017888" d="M60.472,56.848A35.188,35.188,0,0,1,27.75,61a23.317,23.317,0,0,1,2.957-2.468,10.8,10.8,0,0,1,7.085-2.064,30.289,30.289,0,0,1,4.489,1.17,17.728,17.728,0,0,0,8.829.085c2-.489,3.915-1.34,5.957-1.4A8.79,8.79,0,0,1,60.472,56.848Z" transform="translate(-27.75 -56.305)" fill="#fff"/>
  </g>
  <g id="Grupo_1161511" data-name="Grupo 1161511" transform="translate(64.528 116.605)">
    <path id="Trazado_1017889" data-name="Trazado 1017889" d="M55.871,56.845A35.038,35.038,0,0,1,35.6,63.27a36.576,36.576,0,0,1-3.766-.191,34.858,34.858,0,0,0,15.637-5.617,21.736,21.736,0,0,1,5.021-1.149A9.165,9.165,0,0,1,55.871,56.845Z" transform="translate(-31.83 -56.307)" fill="#c6d0e0"/>
  </g>
  <g id="Grupo_1161512" data-name="Grupo 1161512" transform="translate(32.126 52.21)">
    <path id="Trazado_1017890" data-name="Trazado 1017890" d="M52.79,98.419a36.189,36.189,0,1,1,36.19-36.189A36.229,36.229,0,0,1,52.79,98.419Zm0-70.294A34.126,34.126,0,1,0,86.915,62.251,34.163,34.163,0,0,0,52.79,28.125Z" transform="translate(-16.6 -26.04)"/>
  </g>
  <g id="Grupo_1161513" data-name="Grupo 1161513" transform="translate(32.208 89.503)">
    <path id="Trazado_1017891" data-name="Trazado 1017891" d="M31.428,71.464a.909.909,0,0,1-.617-.213A36.141,36.141,0,0,1,16.641,44.657a1.014,1.014,0,0,1,.979-1.085,1.027,1.027,0,0,1,1.085.979A33.982,33.982,0,0,0,31.024,68.783c.34-.723.7-1.4,1.042-2l.362-.66a18.138,18.138,0,0,0,2.191-4.893c.34-1.574.234-3.723-1.17-4.978-1.064-.957-2.617-1.213-4.276-1.489-.319-.043-.638-.106-.936-.17-3.064-.553-5-1.915-5.638-3.893a7.552,7.552,0,0,1-.277-2.106,4.131,4.131,0,0,0-.3-1.808,1.928,1.928,0,0,0-.234-.34,1.023,1.023,0,0,1,1.489-1.4,3.9,3.9,0,0,1,.553.766,5.765,5.765,0,0,1,.532,2.723,6.8,6.8,0,0,0,.17,1.553c.511,1.617,2.766,2.255,4.042,2.489.3.064.6.106.894.149,1.787.3,3.808.638,5.319,1.979,2.064,1.851,2.276,4.808,1.808,6.957a20.357,20.357,0,0,1-2.4,5.468l-.362.638a19.547,19.547,0,0,0-1.425,3,.977.977,0,0,1-.681.638.835.835,0,0,1-.3.064Z" transform="translate(-16.639 -43.569)"/>
  </g>
  <g id="Grupo_1161514" data-name="Grupo 1161514" transform="translate(58.423 115.682)">
    <path id="Trazado_1017892" data-name="Trazado 1017892" d="M45.512,59.759a18.748,18.748,0,0,1-4.851-.638c-.468-.128-.957-.277-1.425-.426a15.348,15.348,0,0,0-2.915-.723,9.456,9.456,0,0,0-5.787,1.511,1.036,1.036,0,1,1-1.085-1.766,11.243,11.243,0,0,1,7.063-1.787,18.43,18.43,0,0,1,3.319.787c.447.149.894.277,1.34.4a16.857,16.857,0,0,0,8.3.085,1.032,1.032,0,1,1,.511,2,18.488,18.488,0,0,1-4.468.553Z" transform="translate(-28.96 -55.874)"/>
  </g>
  <g id="Grupo_1161515" data-name="Grupo 1161515" transform="translate(50.338 52.252)">
    <path id="Trazado_1017893" data-name="Trazado 1017893" d="M42.159,39.612a6.553,6.553,0,0,1-1.553-.17,11.5,11.5,0,0,1-2.745-1.064,7.193,7.193,0,0,0-3.149-.979,7.352,7.352,0,0,0-2.489.745,15.932,15.932,0,0,1-1.511.6c-1.915.617-4.34.255-5.234-1.6a3.1,3.1,0,0,1-.319-1.4A1.026,1.026,0,0,1,26.181,34.7a1,1,0,0,1,1.042,1.021,1.507,1.507,0,0,0,.106.553c.362.745,1.723.851,2.766.532a12.867,12.867,0,0,0,1.319-.511,8.9,8.9,0,0,1,3.234-.915,9.089,9.089,0,0,1,4.106,1.17,11.227,11.227,0,0,0,2.3.915c2.3.511,4.617-.787,5.787-1.6a30.068,30.068,0,0,0,2.915-2.4c.787-.7,1.574-1.4,2.447-2.064.681-.511,1.383-.979,2.106-1.425A34.285,34.285,0,0,0,43.138,28.1a1.021,1.021,0,0,1,0-2.042,35.915,35.915,0,0,1,14.084,2.851,1.028,1.028,0,0,1,.021,1.894,18.944,18.944,0,0,0-3.787,2.255c-.787.617-1.532,1.277-2.319,1.957a33.042,33.042,0,0,1-3.106,2.553,10.957,10.957,0,0,1-5.872,2.042Z" transform="translate(-25.16 -26.06)"/>
  </g>
  <g id="Grupo_1161516" data-name="Grupo 1161516" transform="translate(85.421 94.403)">
    <path id="Trazado_1017894" data-name="Trazado 1017894" d="M50.267,64.846a1.128,1.128,0,0,1-.574-.17,12.429,12.429,0,0,0-3.979-1.787l-.383-.085a7.924,7.924,0,0,1-1.7-.553,3.351,3.351,0,0,1-1.872-2.021,3.457,3.457,0,0,1,1.255-3.489,9.219,9.219,0,0,1,1.808-1.149l.7-.383a2.51,2.51,0,0,0,1.3-1.362,3.733,3.733,0,0,0-.468-2.149c-.064-.17-.149-.34-.213-.532-.723-1.851-.489-3.489.617-4.383a4.168,4.168,0,0,1,3.064-.617,19.748,19.748,0,0,0,4.617-.277,1.01,1.01,0,0,1,1.191.83,1.02,1.02,0,0,1-.83,1.191,21.328,21.328,0,0,1-5.064.3,2.862,2.862,0,0,0-1.681.17c-.4.319-.277,1.277,0,2.042.064.17.128.319.191.489A5.217,5.217,0,0,1,48.8,54.4,4.434,4.434,0,0,1,46.544,57c-.255.149-.511.3-.787.426a6.872,6.872,0,0,0-1.4.872c-.383.34-.745.915-.617,1.34a1.377,1.377,0,0,0,.766.745,5.983,5.983,0,0,0,1.319.4l.4.106a15.053,15.053,0,0,1,4.617,2.085,1.027,1.027,0,0,1,.277,1.425.987.987,0,0,1-.851.447Z" transform="translate(-41.65 -45.872)"/>
  </g>
  <g id="Grupo_1161517" data-name="Grupo 1161517" transform="translate(64.879 63.739)">
    <path id="Trazado_1017895" data-name="Trazado 1017895" d="M40.005,62.013a2.852,2.852,0,0,1-.426-.021,6.008,6.008,0,0,1-5.617-4.064,7.213,7.213,0,0,1,.447-4.042c.362-1.191.681-2.213.319-3.021a4.672,4.672,0,0,0-1.042-1.213c-.808-.787-1.808-1.766-1.681-3.127a4.573,4.573,0,0,1,1.979-2.979A71.111,71.111,0,0,1,44.3,36.908L46.26,35.8a78.188,78.188,0,0,0,6.808-4.149,1.047,1.047,0,0,1,1.447.234,1.068,1.068,0,0,1-.234,1.447,75.946,75.946,0,0,1-7,4.276l-1.957,1.106A70.761,70.761,0,0,0,35.3,45.162c-.574.468-1.17,1.021-1.234,1.574-.043.362.553.936,1.064,1.447A6.141,6.141,0,0,1,36.6,50.035c.681,1.511.191,3.085-.255,4.468a5.617,5.617,0,0,0-.426,2.893c.426,1.553,2.213,2.447,3.744,2.532a11.624,11.624,0,0,0,5.34-1.447l.83-.4a19.75,19.75,0,0,1,5.085-1.915,13.277,13.277,0,0,1,3.553-.043,8.048,8.048,0,0,0,3.744-.255c2.191-.957,3.638-3.936,4.808-6.34l1.659-3.4a1.032,1.032,0,0,1,1.851.915l-1.659,3.4c-1.319,2.7-2.936,6.063-5.851,7.319a9.564,9.564,0,0,1-4.744.426,11.788,11.788,0,0,0-3,0,19.2,19.2,0,0,0-4.574,1.745l-.851.4a13.141,13.141,0,0,1-5.851,1.681Z" transform="translate(-31.995 -31.459)"/>
  </g>
  <g id="Grupo_1161518" data-name="Grupo 1161518" transform="translate(50.281 67.239)">
    <path id="Trazado_1017896" data-name="Trazado 1017896" d="M28.232,40.733a3.19,3.19,0,0,1-1.723-.511,2.973,2.973,0,0,1-1.362-2.808,3.993,3.993,0,0,1,1.489-2.659A7.372,7.372,0,0,1,29.019,33.5a4.7,4.7,0,0,1,4.021.128,2.8,2.8,0,0,1,1.383,2.3c.043,1.6-1.3,2.4-2.021,2.851l-2.383,1.447s-.128.064-.128.085a3.7,3.7,0,0,1-1.659.426Zm-1.021-3.17v.043a.91.91,0,0,0,.447.872,1.146,1.146,0,0,0,1.149.043c.128-.064.17-.106.234-.128l2.319-1.4c.66-.4,1.042-.7,1.021-1.042v-.021A.7.7,0,0,0,32,35.372a2.741,2.741,0,0,0-2.319.064,5.266,5.266,0,0,0-1.7.872A1.965,1.965,0,0,0,27.211,37.563Z" transform="translate(-25.133 -33.104)"/>
  </g>
  <g id="Grupo_1161519" data-name="Grupo 1161519" transform="translate(68.852 103.552)">
    <path id="Trazado_1017897" data-name="Trazado 1017897" d="M67.92,73.613c-7.106,0-21.892-10.978-33.722-21.658a1.024,1.024,0,0,1,1.383-1.511C53.495,66.656,66.856,73.7,69.409,71.145c1.3-1.3.234-6.51-7.063-16.957a1.024,1.024,0,0,1,1.681-1.17c4.957,7.106,10.148,16.254,6.829,19.595a4.16,4.16,0,0,1-2.936,1Z" transform="translate(-33.862 -50.172)"/>
  </g>
  <g id="Grupo_1161520" data-name="Grupo 1161520" transform="translate(29.725 49.812)">
    <path id="Trazado_1017898" data-name="Trazado 1017898" d="M46.552,72.053a1.051,1.051,0,0,1-.723-.3C35.957,61.883,27.447,51.8,21.872,43.374c-6-9.085-7.787-14.935-5.34-17.4,2.17-2.17,7.063-1,14.51,3.51a1.036,1.036,0,1,1-1.085,1.766c-7.276-4.4-10.957-4.851-12-3.83-1.17,1.17-.383,5.744,5.6,14.808,5.489,8.319,13.914,18.3,23.7,28.062a1.04,1.04,0,0,1,0,1.468.931.931,0,0,1-.7.3Z" transform="translate(-15.471 -24.913)"/>
  </g>
  <g id="Grupo_1161521" data-name="Grupo 1161521" transform="translate(65.635 100.335)">
    <path id="Trazado_1017899" data-name="Trazado 1017899" d="M36.584,57.128a4.234,4.234,0,1,1,4.234-4.234A4.231,4.231,0,0,1,36.584,57.128Zm0-6.425a2.17,2.17,0,1,0,2.17,2.17A2.152,2.152,0,0,0,36.584,50.7Z" transform="translate(-32.35 -48.66)"/>
  </g>
  <g id="Grupo_1161522" data-name="Grupo 1161522" transform="translate(100.612 113.377)">
    <path id="Trazado_1017900" data-name="Trazado 1017900" d="M55.215,58A3.213,3.213,0,1,1,52,54.79,3.21,3.21,0,0,1,55.215,58Z" transform="translate(-48.79 -54.79)" fill="#ff9a9a"/>
  </g>
  <g id="Grupo_1161523" data-name="Grupo 1161523" transform="translate(100.76 113.547)">
    <path id="Trazado_1017901" data-name="Trazado 1017901" d="M55.115,57.912a3.211,3.211,0,0,1-6.255,1.021,3.2,3.2,0,0,0,4.064-4.064,3.188,3.188,0,0,1,2.191,3.042Z" transform="translate(-48.86 -54.87)" fill="#d86666"/>
  </g>
  <g id="Grupo_1161524" data-name="Grupo 1161524" transform="translate(99.59 112.377)">
    <path id="Trazado_1017902" data-name="Trazado 1017902" d="M52.544,62.788a4.234,4.234,0,1,1,4.234-4.234A4.231,4.231,0,0,1,52.544,62.788Zm0-6.425a2.17,2.17,0,1,0,2.17,2.17A2.179,2.179,0,0,0,52.544,56.362Z" transform="translate(-48.31 -54.32)"/>
  </g>
  <g id="Grupo_1161525" data-name="Grupo 1161525" transform="translate(66.656 101.335)">
    <path id="Trazado_1017903" data-name="Trazado 1017903" d="M39.255,52.343a3.213,3.213,0,1,1-3.213-3.213A3.21,3.21,0,0,1,39.255,52.343Z" transform="translate(-32.83 -49.13)" fill="#ff9a9a"/>
  </g>
  <g id="Grupo_1161526" data-name="Grupo 1161526" transform="translate(66.826 101.505)">
    <path id="Trazado_1017904" data-name="Trazado 1017904" d="M39.165,52.252a3.211,3.211,0,0,1-6.255,1.021,3.2,3.2,0,0,0,4.064-4.064,3.216,3.216,0,0,1,2.191,3.042Z" transform="translate(-32.91 -49.21)" fill="#d86666"/>
  </g>
  <g id="Grupo_1161527" data-name="Grupo 1161527" transform="translate(65.635 100.335)">
    <path id="Trazado_1017905" data-name="Trazado 1017905" d="M36.584,57.128a4.234,4.234,0,1,1,4.234-4.234A4.231,4.231,0,0,1,36.584,57.128Zm0-6.425a2.17,2.17,0,1,0,2.17,2.17A2.152,2.152,0,0,0,36.584,50.7Z" transform="translate(-32.35 -48.66)"/>
  </g>
  <g id="Grupo_1161528" data-name="Grupo 1161528" transform="translate(28.977 56.018)">
    <path id="Trazado_1017906" data-name="Trazado 1017906" d="M21.545,31.043a3.213,3.213,0,1,1-3.213-3.213A3.21,3.21,0,0,1,21.545,31.043Z" transform="translate(-15.12 -27.83)" fill="#ff9a9a"/>
  </g>
  <g id="Grupo_1161529" data-name="Grupo 1161529" transform="translate(29.126 56.188)">
    <path id="Trazado_1017907" data-name="Trazado 1017907" d="M21.445,30.952a3.211,3.211,0,0,1-6.255,1.021,3.2,3.2,0,0,0,4.064-4.064A3.169,3.169,0,0,1,21.445,30.952Z" transform="translate(-15.19 -27.91)" fill="#d86666"/>
  </g>
  <g id="Grupo_1161530" data-name="Grupo 1161530" transform="translate(27.956 54.997)">
    <path id="Trazado_1017908" data-name="Trazado 1017908" d="M18.874,35.818a4.234,4.234,0,1,1,4.234-4.234A4.231,4.231,0,0,1,18.874,35.818Zm0-6.425a2.17,2.17,0,1,0,2.17,2.17A2.179,2.179,0,0,0,18.874,29.392Z" transform="translate(-14.64 -27.35)"/>
  </g>
  <g id="Grupo_1161531" data-name="Grupo 1161531" transform="translate(103.244 90.968)">
    <path id="Trazado_1017909" data-name="Trazado 1017909" d="M56.969,52.241a1.051,1.051,0,0,1-.723-.3l-5.915-5.915A1.038,1.038,0,1,1,51.8,44.561l5.915,5.915a1.04,1.04,0,0,1,0,1.468A1.1,1.1,0,0,1,56.969,52.241Z" transform="translate(-50.028 -44.257)"/>
  </g>
  <g id="Grupo_1161532" data-name="Grupo 1161532" transform="translate(102.847 90.546)">
    <path id="Trazado_1017910" data-name="Trazado 1017910" d="M52.5,51.614a1.021,1.021,0,0,1-.979-.745L49.882,45.38a1.064,1.064,0,0,1,.255-1.021,1.015,1.015,0,0,1,1.021-.255l5.468,1.617a1.03,1.03,0,1,1-.574,1.979l-3.638-1.085L53.5,50.273a1.009,1.009,0,0,1-.7,1.277A.835.835,0,0,1,52.5,51.614Z" transform="translate(-49.841 -44.059)"/>
  </g>
  <g id="Grupo_1161533" data-name="Grupo 1161533" transform="translate(20.169 112.738)">
    <path id="Trazado_1017911" data-name="Trazado 1017911" d="M12,60.4a1.021,1.021,0,0,1-1.021-1.021V55.511a1.021,1.021,0,0,1,2.042,0v3.872A1.008,1.008,0,0,1,12,60.4Z" transform="translate(-10.98 -54.49)" fill="#fff"/>
  </g>
  <g id="Grupo_1161534" data-name="Grupo 1161534" transform="translate(20.169 90.293)">
    <path id="Trazado_1017912" data-name="Trazado 1017912" d="M12,62.45a1.021,1.021,0,0,1-1.021-1.021V44.961a1.021,1.021,0,1,1,2.042,0V61.428A1.008,1.008,0,0,1,12,62.45Z" transform="translate(-10.98 -43.94)" fill="#fff"/>
  </g>
  <g id="Grupo_1161535" data-name="Grupo 1161535" transform="translate(99.441 48.231)">
    <path id="Trazado_1017913" data-name="Trazado 1017913" d="M58.622,26.212H49.261a1.021,1.021,0,0,1,0-2.042h9.361a1.021,1.021,0,0,1,1.021,1.021A1.008,1.008,0,0,1,58.622,26.212Z" transform="translate(-48.24 -24.17)"/>
  </g>
  <g id="Grupo_1161536" data-name="Grupo 1161536" transform="translate(113.036 53.465)">
    <path id="Trazado_1017914" data-name="Trazado 1017914" d="M58.119,28.672H55.651a1.021,1.021,0,0,1-1.021-1.021,1.035,1.035,0,0,1,1.021-1.021h2.468a1.021,1.021,0,0,1,0,2.042Z" transform="translate(-54.63 -26.63)"/>
  </g>
  <g id="Grupo_1161537" data-name="Grupo 1161537" transform="translate(99.463 53.465)">
    <path id="Trazado_1017915" data-name="Trazado 1017915" d="M58.845,28.672H49.271a1.021,1.021,0,0,1-1.021-1.021,1.035,1.035,0,0,1,1.021-1.021h9.574a1.021,1.021,0,0,1,1.021,1.021A1.035,1.035,0,0,1,58.845,28.672Z" transform="translate(-48.25 -26.63)"/>
  </g>
  <g id="Grupo_1161538" data-name="Grupo 1161538" transform="translate(101.697 5.574)">
    <path id="Trazado_1017916" data-name="Trazado 1017916" d="M50.321,16.821A1.021,1.021,0,0,1,49.3,15.8V5.141a1.021,1.021,0,0,1,2.042,0V15.779A1.026,1.026,0,0,1,50.321,16.821Z" transform="translate(-49.3 -4.12)"/>
  </g>
  <g id="Grupo_1161539" data-name="Grupo 1161539" transform="translate(98.527 1.042)">
    <ellipse id="Elipse_12795" data-name="Elipse 12795" cx="4.191" cy="4.191" rx="4.191" ry="4.191" fill="#ffca6b"/>
  </g>
  <g id="Grupo_1161540" data-name="Grupo 1161540" transform="translate(98.846 1.362)">
    <path id="Trazado_1017917" data-name="Trazado 1017917" d="M56.023,6.012a4.222,4.222,0,0,1-4.213,4.213A4.177,4.177,0,0,1,47.96,7.672a4.091,4.091,0,0,0,1.638.319,4.2,4.2,0,0,0,4.191-4.213,3.9,3.9,0,0,0-.34-1.638A4.17,4.17,0,0,1,56.023,6.012Z" transform="translate(-47.96 -2.14)" fill="#ef8f06"/>
  </g>
  <g id="Grupo_1161541" data-name="Grupo 1161541" transform="translate(97.484 0)">
    <path id="Trazado_1017918" data-name="Trazado 1017918" d="M52.554,11.968a5.234,5.234,0,1,1,5.234-5.234A5.23,5.23,0,0,1,52.554,11.968Zm0-8.4a3.17,3.17,0,1,0,3.17,3.17,3.178,3.178,0,0,0-3.17-3.17Z" transform="translate(-47.32 -1.5)"/>
  </g>
  <g id="Grupo_1161542" data-name="Grupo 1161542" transform="translate(59.784 9.68)">
    <path id="Trazado_1017919" data-name="Trazado 1017919" d="M30.621,20.836A1.021,1.021,0,0,1,29.6,19.815V7.071a1.021,1.021,0,1,1,2.042,0V19.794A1.013,1.013,0,0,1,30.621,20.836Z" transform="translate(-29.6 -6.05)"/>
  </g>
  <g id="Grupo_1161543" data-name="Grupo 1161543" transform="translate(56.614 5.17)">
    <ellipse id="Elipse_12796" data-name="Elipse 12796" cx="4.191" cy="4.191" rx="4.191" ry="4.191" fill="#564dc6"/>
  </g>
  <g id="Grupo_1161544" data-name="Grupo 1161544" transform="translate(56.954 5.489)">
    <path id="Trazado_1017920" data-name="Trazado 1017920" d="M36.333,7.952a4.222,4.222,0,0,1-4.213,4.213A4.177,4.177,0,0,1,28.27,9.612a4.091,4.091,0,0,0,1.638.319A4.2,4.2,0,0,0,34.1,5.718a3.9,3.9,0,0,0-.34-1.638,4.2,4.2,0,0,1,2.574,3.872Z" transform="translate(-28.27 -4.08)" fill="#2e2780"/>
  </g>
  <g id="Grupo_1161545" data-name="Grupo 1161545" transform="translate(55.571 4.127)">
    <path id="Trazado_1017921" data-name="Trazado 1017921" d="M32.854,13.908a5.234,5.234,0,1,1,5.234-5.234A5.23,5.23,0,0,1,32.854,13.908Zm0-8.4a3.17,3.17,0,1,0,3.17,3.17A3.178,3.178,0,0,0,32.854,5.5Z" transform="translate(-27.62 -3.44)"/>
  </g>
</svg>
