<svg id="pos" xmlns="http://www.w3.org/2000/svg" width="134.034" height="134.035" viewBox="0 0 134.034 134.035">
  <g id="Grupo_1161546" data-name="Grupo 1161546" transform="translate(89.804 24.679)">
    <path id="Trazado_1017922" data-name="Trazado 1017922" d="M55.837,16.121v91.293a3.019,3.019,0,0,1-3.021,3.021H43.71V13.1h9.127a3,3,0,0,1,3,3.021Z" transform="translate(-43.71 -13.1)" fill="#6bbeeb"/>
  </g>
  <g id="Grupo_1161547" data-name="Grupo 1161547" transform="translate(88.804 23.658)">
    <path id="Trazado_1017923" data-name="Trazado 1017923" d="M53.367,112H44.261a1.021,1.021,0,0,1-1.021-1.021V13.641a1.021,1.021,0,0,1,1.021-1.021h9.106a4.041,4.041,0,0,1,4.042,4.042v3.064a1.021,1.021,0,0,1-1.021,1.021,1.035,1.035,0,0,1-1.021-1.021V16.662a1.989,1.989,0,0,0-1.979-1.979H45.282v95.25h8.085a1.989,1.989,0,0,0,1.979-1.979v-3.064a1.021,1.021,0,0,1,1.021-1.021,1.035,1.035,0,0,1,1.021,1.021v3.064A4.022,4.022,0,0,1,53.367,112Z" transform="translate(-43.24 -12.62)"/>
  </g>
  <g id="Grupo_1161548" data-name="Grupo 1161548" transform="translate(77.911 35.913)">
    <path id="Trazado_1017924" data-name="Trazado 1017924" d="M44.141,18.38H81.947A6.015,6.015,0,0,1,87.968,24.4V87.206a6.015,6.015,0,0,1-6.021,6.021H44.141a6.015,6.015,0,0,1-6.021-6.021V24.4a6.015,6.015,0,0,1,6.021-6.021Z" transform="translate(-38.12 -18.38)" fill="#b9dd53"/>
  </g>
  <g id="Grupo_1161549" data-name="Grupo 1161549" transform="translate(87.357 35.913)">
    <path id="Trazado_1017925" data-name="Trazado 1017925" d="M42.56,18.38H53.9V93.248H42.56Z" transform="translate(-42.56 -18.38)" fill="#323535"/>
  </g>
  <g id="Grupo_1161550" data-name="Grupo 1161550" transform="translate(117.802 97.186)">
    <path id="Trazado_1017926" data-name="Trazado 1017926" d="M57.891,52.946a1.021,1.021,0,0,1-1.021-1.021V48.2a1.021,1.021,0,0,1,2.042,0v3.723A1.021,1.021,0,0,1,57.891,52.946Z" transform="translate(-56.87 -47.18)"/>
  </g>
  <g id="Grupo_1161551" data-name="Grupo 1161551" transform="translate(117.802 86.506)">
    <path id="Trazado_1017927" data-name="Trazado 1017927" d="M57.891,47.926A1.021,1.021,0,0,1,56.87,46.9V43.181a1.021,1.021,0,0,1,2.042,0V46.9A1.035,1.035,0,0,1,57.891,47.926Z" transform="translate(-56.87 -42.16)"/>
  </g>
  <g id="Grupo_1161552" data-name="Grupo 1161552" transform="translate(117.802 75.804)">
    <path id="Trazado_1017928" data-name="Trazado 1017928" d="M57.891,42.9a1.021,1.021,0,0,1-1.021-1.021V38.151a1.021,1.021,0,0,1,2.042,0v3.723A1.021,1.021,0,0,1,57.891,42.9Z" transform="translate(-56.87 -37.13)"/>
  </g>
  <g id="Grupo_1161553" data-name="Grupo 1161553" transform="translate(117.802 65.124)">
    <path id="Trazado_1017929" data-name="Trazado 1017929" d="M57.891,37.876a1.021,1.021,0,0,1-1.021-1.021V33.131a1.021,1.021,0,0,1,2.042,0v3.723A1.035,1.035,0,0,1,57.891,37.876Z" transform="translate(-56.87 -32.11)"/>
  </g>
  <g id="Grupo_1161554" data-name="Grupo 1161554" transform="translate(117.802 54.423)">
    <path id="Trazado_1017930" data-name="Trazado 1017930" d="M57.891,32.846a1.021,1.021,0,0,1-1.021-1.021V28.1a1.021,1.021,0,0,1,2.042,0v3.723A1.035,1.035,0,0,1,57.891,32.846Z" transform="translate(-56.87 -27.08)"/>
  </g>
  <g id="Grupo_1161555" data-name="Grupo 1161555" transform="translate(117.802 43.742)">
    <path id="Trazado_1017931" data-name="Trazado 1017931" d="M57.891,27.826A1.021,1.021,0,0,1,56.87,26.8V23.081a1.021,1.021,0,0,1,2.042,0V26.8A1.035,1.035,0,0,1,57.891,27.826Z" transform="translate(-56.87 -22.06)"/>
  </g>
  <g id="Grupo_1161556" data-name="Grupo 1161556" transform="translate(111.356 56.273)">
    <path id="Trazado_1017932" data-name="Trazado 1017932" d="M54.861,40.694a1.021,1.021,0,0,1-1.021-1.021v-10.7a1.021,1.021,0,0,1,1.021-1.021,1.035,1.035,0,0,1,1.021,1.021v10.7A1,1,0,0,1,54.861,40.694Z" transform="translate(-53.84 -27.95)"/>
  </g>
  <g id="Grupo_1161557" data-name="Grupo 1161557" transform="translate(111.356 71.741)">
    <path id="Trazado_1017933" data-name="Trazado 1017933" d="M54.861,66.431A1.021,1.021,0,0,1,53.84,65.41V36.241a1.021,1.021,0,0,1,1.021-1.021,1.035,1.035,0,0,1,1.021,1.021V65.41A1,1,0,0,1,54.861,66.431Z" transform="translate(-53.84 -35.22)"/>
  </g>
  <g id="Grupo_1161558" data-name="Grupo 1161558" transform="translate(105.718 75.804)">
    <path id="Trazado_1017934" data-name="Trazado 1017934" d="M52.211,64.277a1.021,1.021,0,0,1-1.021-1.021v-25.1a1.021,1.021,0,0,1,2.042,0v25.1A1,1,0,0,1,52.211,64.277Z" transform="translate(-51.19 -37.13)"/>
  </g>
  <g id="Grupo_1161559" data-name="Grupo 1161559" transform="translate(86.314 34.892)">
    <path id="Trazado_1017935" data-name="Trazado 1017935" d="M54.431,94.811H43.091a1.021,1.021,0,0,1-1.021-1.021V18.921A1.017,1.017,0,0,1,43.091,17.9h11.34a1.021,1.021,0,0,1,1.021,1.021V81.173a1.021,1.021,0,0,1-1.021,1.021,1.035,1.035,0,0,1-1.021-1.021V19.942H44.134v72.8H53.41V88.385a1.021,1.021,0,0,1,1.021-1.021,1.035,1.035,0,0,1,1.021,1.021v5.4a1.013,1.013,0,0,1-.3.723.978.978,0,0,1-.723.3Z" transform="translate(-42.07 -17.9)"/>
  </g>
  <g id="Grupo_1161560" data-name="Grupo 1161560" transform="translate(76.868 34.87)">
    <path id="Trazado_1017936" data-name="Trazado 1017936" d="M82.5,94.822H44.693a7.073,7.073,0,0,1-7.063-7.063V24.953a7.073,7.073,0,0,1,7.063-7.063H82.5a7.073,7.073,0,0,1,7.063,7.063V31.7a1.021,1.021,0,1,1-2.042,0V24.953a5.008,5.008,0,0,0-5-5H44.715a5.008,5.008,0,0,0-5,5V87.758a5.008,5.008,0,0,0,5,5H82.521a5.008,5.008,0,0,0,5-5V38.931a1.021,1.021,0,1,1,2.042,0V87.78A7.069,7.069,0,0,1,82.5,94.822Z" transform="translate(-37.63 -17.89)"/>
  </g>
  <g id="Grupo_1161561" data-name="Grupo 1161561" transform="translate(6.276 13.68)">
    <path id="Trazado_1017937" data-name="Trazado 1017937" d="M88,15.972v103.25a8.036,8.036,0,0,1-8.042,8.042H12.492a8.036,8.036,0,0,1-8.042-8.042V15.972A8.036,8.036,0,0,1,12.492,7.93H79.957A8.049,8.049,0,0,1,88,15.972Z" transform="translate(-4.45 -7.93)" fill="#6bbeeb"/>
  </g>
  <g id="Grupo_1161562" data-name="Grupo 1161562" transform="translate(6.276 13.68)">
    <path id="Trazado_1017938" data-name="Trazado 1017938" d="M88,15.972v103.25a8.049,8.049,0,0,1-8.042,8.042H12.492a8.045,8.045,0,0,1-8.042-8.021V15.972A8.049,8.049,0,0,1,12.492,7.93H79.957A8.049,8.049,0,0,1,88,15.972Z" transform="translate(-4.45 -7.93)" fill="#6bbeeb"/>
  </g>
  <g id="Grupo_1161563" data-name="Grupo 1161563" transform="translate(6.276 36.551)">
    <path id="Trazado_1017939" data-name="Trazado 1017939" d="M88,18.68V107.1a8.049,8.049,0,0,1-8.042,8.042H12.492a8.045,8.045,0,0,1-8.042-8.021V94.995C73.68,104.1,88,18.68,88,18.68Z" transform="translate(-4.45 -18.68)" fill="#2e87af"/>
  </g>
  <g id="Grupo_1161564" data-name="Grupo 1161564" transform="translate(19.382 112.845)">
    <path id="Trazado_1017940" data-name="Trazado 1017940" d="M67.926,56.88v6.532a2.334,2.334,0,0,1-2.34,2.34H12.95a2.334,2.334,0,0,1-2.34-2.34V56.88a2.334,2.334,0,0,1,2.34-2.34H65.586A2.361,2.361,0,0,1,67.926,56.88Z" transform="translate(-10.61 -54.54)" fill="#ffca6b"/>
  </g>
  <g id="Grupo_1161565" data-name="Grupo 1161565" transform="translate(19.382 112.866)">
    <path id="Trazado_1017941" data-name="Trazado 1017941" d="M67.926,56.869V63.4a2.334,2.334,0,0,1-2.34,2.34H12.95a2.334,2.334,0,0,1-2.34-2.34v-.638H58.161A6.755,6.755,0,0,0,64.926,56V54.55h.638A2.347,2.347,0,0,1,67.926,56.869Z" transform="translate(-10.61 -54.55)" fill="#f9b84e"/>
  </g>
  <g id="Grupo_1161566" data-name="Grupo 1161566" transform="translate(19.382 93.867)">
    <path id="Trazado_1017942" data-name="Trazado 1017942" d="M23.716,47.96v6.532a2.334,2.334,0,0,1-2.34,2.34H12.95a2.334,2.334,0,0,1-2.34-2.34V47.96a2.334,2.334,0,0,1,2.34-2.34h8.425A2.361,2.361,0,0,1,23.716,47.96Z" transform="translate(-10.61 -45.62)" fill="#f1f3f6"/>
  </g>
  <g id="Grupo_1161567" data-name="Grupo 1161567" transform="translate(40.891 93.867)">
    <path id="Trazado_1017943" data-name="Trazado 1017943" d="M33.826,47.96v6.532a2.334,2.334,0,0,1-2.34,2.34H23.06a2.334,2.334,0,0,1-2.34-2.34V47.96a2.334,2.334,0,0,1,2.34-2.34h8.425A2.361,2.361,0,0,1,33.826,47.96Z" transform="translate(-20.72 -45.62)" fill="#f1f3f6"/>
  </g>
  <g id="Grupo_1161568" data-name="Grupo 1161568" transform="translate(19.382 75.783)">
    <path id="Trazado_1017944" data-name="Trazado 1017944" d="M23.716,39.46v6.532a2.334,2.334,0,0,1-2.34,2.34H12.95a2.334,2.334,0,0,1-2.34-2.34V39.46a2.334,2.334,0,0,1,2.34-2.34h8.425A2.334,2.334,0,0,1,23.716,39.46Z" transform="translate(-10.61 -37.12)" fill="#f1f3f6"/>
  </g>
  <g id="Grupo_1161569" data-name="Grupo 1161569" transform="translate(40.891 75.783)">
    <path id="Trazado_1017945" data-name="Trazado 1017945" d="M33.826,39.46v6.532a2.334,2.334,0,0,1-2.34,2.34H23.06a2.334,2.334,0,0,1-2.34-2.34V39.46a2.334,2.334,0,0,1,2.34-2.34h8.425A2.334,2.334,0,0,1,33.826,39.46Z" transform="translate(-20.72 -37.12)" fill="#f1f3f6"/>
  </g>
  <g id="Grupo_1161570" data-name="Grupo 1161570" transform="translate(19.382 57.678)">
    <path id="Trazado_1017946" data-name="Trazado 1017946" d="M23.716,30.95v6.532a2.334,2.334,0,0,1-2.34,2.34H12.95a2.334,2.334,0,0,1-2.34-2.34V30.95a2.334,2.334,0,0,1,2.34-2.34h8.425A2.347,2.347,0,0,1,23.716,30.95Z" transform="translate(-10.61 -28.61)" fill="#f1f3f6"/>
  </g>
  <g id="Grupo_1161571" data-name="Grupo 1161571" transform="translate(40.891 57.678)">
    <path id="Trazado_1017947" data-name="Trazado 1017947" d="M33.826,30.95v6.532a2.334,2.334,0,0,1-2.34,2.34H23.06a2.334,2.334,0,0,1-2.34-2.34V30.95a2.334,2.334,0,0,1,2.34-2.34h8.425A2.347,2.347,0,0,1,33.826,30.95Z" transform="translate(-20.72 -28.61)" fill="#f1f3f6"/>
  </g>
  <g id="Grupo_1161572" data-name="Grupo 1161572" transform="translate(62.422 93.867)">
    <path id="Trazado_1017948" data-name="Trazado 1017948" d="M43.946,47.96v6.532a2.334,2.334,0,0,1-2.34,2.34H33.18a2.334,2.334,0,0,1-2.34-2.34V47.96a2.334,2.334,0,0,1,2.34-2.34h8.425A2.361,2.361,0,0,1,43.946,47.96Z" transform="translate(-30.84 -45.62)" fill="#f1f3f6"/>
  </g>
  <g id="Grupo_1161573" data-name="Grupo 1161573" transform="translate(62.422 93.888)">
    <path id="Trazado_1017949" data-name="Trazado 1017949" d="M43.946,47.949v6.532a2.334,2.334,0,0,1-2.34,2.34H33.18a2.334,2.334,0,0,1-2.34-2.34v-.638h3.34a6.755,6.755,0,0,0,6.766-6.766V45.63h.638a2.334,2.334,0,0,1,2.362,2.319Z" transform="translate(-30.84 -45.63)" fill="#c6d0e0"/>
  </g>
  <g id="Grupo_1161574" data-name="Grupo 1161574" transform="translate(40.891 93.888)">
    <path id="Trazado_1017950" data-name="Trazado 1017950" d="M33.826,47.949v6.532a2.334,2.334,0,0,1-2.34,2.34H23.06a2.334,2.334,0,0,1-2.34-2.34v-.638h3.34a6.755,6.755,0,0,0,6.766-6.766V45.63h.638A2.334,2.334,0,0,1,33.826,47.949Z" transform="translate(-20.72 -45.63)" fill="#c6d0e0"/>
  </g>
  <g id="Grupo_1161575" data-name="Grupo 1161575" transform="translate(19.382 93.888)">
    <path id="Trazado_1017951" data-name="Trazado 1017951" d="M23.716,47.949v6.532a2.334,2.334,0,0,1-2.34,2.34H12.95a2.334,2.334,0,0,1-2.34-2.34v-.638h3.34a6.755,6.755,0,0,0,6.766-6.766V45.63h.638A2.347,2.347,0,0,1,23.716,47.949Z" transform="translate(-10.61 -45.63)" fill="#c6d0e0"/>
  </g>
  <g id="Grupo_1161576" data-name="Grupo 1161576" transform="translate(62.422 75.783)">
    <path id="Trazado_1017952" data-name="Trazado 1017952" d="M43.946,39.46v6.532a2.334,2.334,0,0,1-2.34,2.34H33.18a2.334,2.334,0,0,1-2.34-2.34V39.46a2.334,2.334,0,0,1,2.34-2.34h8.425A2.334,2.334,0,0,1,43.946,39.46Z" transform="translate(-30.84 -37.12)" fill="#f1f3f6"/>
  </g>
  <g id="Grupo_1161577" data-name="Grupo 1161577" transform="translate(62.422 75.804)">
    <path id="Trazado_1017953" data-name="Trazado 1017953" d="M43.946,39.449v6.532a2.334,2.334,0,0,1-2.34,2.34H33.18a2.334,2.334,0,0,1-2.34-2.34v-.638h3.34a6.755,6.755,0,0,0,6.766-6.766V37.13h.638a2.307,2.307,0,0,1,2.362,2.319Z" transform="translate(-30.84 -37.13)" fill="#c6d0e0"/>
  </g>
  <g id="Grupo_1161578" data-name="Grupo 1161578" transform="translate(40.891 75.804)">
    <path id="Trazado_1017954" data-name="Trazado 1017954" d="M33.826,39.449v6.532a2.334,2.334,0,0,1-2.34,2.34H23.06a2.334,2.334,0,0,1-2.34-2.34v-.638h3.34a6.755,6.755,0,0,0,6.766-6.766V37.13h.638A2.307,2.307,0,0,1,33.826,39.449Z" transform="translate(-20.72 -37.13)" fill="#c6d0e0"/>
  </g>
  <g id="Grupo_1161579" data-name="Grupo 1161579" transform="translate(62.422 57.678)">
    <path id="Trazado_1017955" data-name="Trazado 1017955" d="M43.946,30.95v6.532a2.334,2.334,0,0,1-2.34,2.34H33.18a2.334,2.334,0,0,1-2.34-2.34V30.95a2.334,2.334,0,0,1,2.34-2.34h8.425A2.347,2.347,0,0,1,43.946,30.95Z" transform="translate(-30.84 -28.61)" fill="#f1f3f6"/>
  </g>
  <g id="Grupo_1161580" data-name="Grupo 1161580" transform="translate(62.422 57.699)">
    <path id="Trazado_1017956" data-name="Trazado 1017956" d="M43.946,30.939v6.532a2.334,2.334,0,0,1-2.34,2.34H33.18a2.334,2.334,0,0,1-2.34-2.34v-.638h3.34a6.755,6.755,0,0,0,6.766-6.766V28.62h.638a2.307,2.307,0,0,1,2.362,2.319Z" transform="translate(-30.84 -28.62)" fill="#c6d0e0"/>
  </g>
  <g id="Grupo_1161581" data-name="Grupo 1161581" transform="translate(40.891 57.699)">
    <path id="Trazado_1017957" data-name="Trazado 1017957" d="M33.826,30.939v6.532a2.334,2.334,0,0,1-2.34,2.34H23.06a2.334,2.334,0,0,1-2.34-2.34v-.638h3.34a6.755,6.755,0,0,0,6.766-6.766V28.62h.638A2.307,2.307,0,0,1,33.826,30.939Z" transform="translate(-20.72 -28.62)" fill="#c6d0e0"/>
  </g>
  <g id="Grupo_1161582" data-name="Grupo 1161582" transform="translate(19.382 75.804)">
    <path id="Trazado_1017958" data-name="Trazado 1017958" d="M23.716,39.449v6.532a2.334,2.334,0,0,1-2.34,2.34H12.95a2.334,2.334,0,0,1-2.34-2.34v-.638h3.34a6.755,6.755,0,0,0,6.766-6.766V37.13h.638A2.32,2.32,0,0,1,23.716,39.449Z" transform="translate(-10.61 -37.13)" fill="#c6d0e0"/>
  </g>
  <g id="Grupo_1161583" data-name="Grupo 1161583" transform="translate(19.382 57.699)">
    <path id="Trazado_1017959" data-name="Trazado 1017959" d="M23.716,30.939v6.532a2.334,2.334,0,0,1-2.34,2.34H12.95a2.334,2.334,0,0,1-2.34-2.34v-.638h3.34a6.755,6.755,0,0,0,6.766-6.766V28.62h.638A2.32,2.32,0,0,1,23.716,30.939Z" transform="translate(-10.61 -28.62)" fill="#c6d0e0"/>
  </g>
  <g id="Grupo_1161584" data-name="Grupo 1161584" transform="translate(5.255 12.659)">
    <path id="Trazado_1017960" data-name="Trazado 1017960" d="M80.5,128.826H13.033a9.071,9.071,0,0,1-9.063-9.063V16.513A9.071,9.071,0,0,1,13.033,7.45h9.574a1.021,1.021,0,1,1,0,2.042H13.033a7.023,7.023,0,0,0-7.021,7v103.25a7.028,7.028,0,0,0,7.021,7.021H80.5a7.028,7.028,0,0,0,7.021-7.021V16.513a7.023,7.023,0,0,0-7.021-7H70.924a1.021,1.021,0,0,1,0-2.042H80.5a9.071,9.071,0,0,1,9.063,9.063v103.25a9.066,9.066,0,0,1-9.063,9.042Z" transform="translate(-3.97 -7.45)"/>
  </g>
  <g id="Grupo_1161585" data-name="Grupo 1161585" transform="translate(20.573 29.849)">
    <path id="Trazado_1017961" data-name="Trazado 1017961" d="M66.124,32.359V17.53a2,2,0,0,0-2-2H13.17a2,2,0,0,0-2,2V32.359a2,2,0,0,0,2,2H64.125A2,2,0,0,0,66.124,32.359Z" transform="translate(-11.17 -15.53)" fill="#fff"/>
  </g>
  <g id="Grupo_1161586" data-name="Grupo 1161586" transform="translate(20.552 35.19)">
    <path id="Trazado_1017962" data-name="Trazado 1017962" d="M66.136,18.04V29.529a2.034,2.034,0,0,1-2.021,2.021H13.181a2.034,2.034,0,0,1-2.021-2.021v-2.34C53.264,27.188,66.136,18.04,66.136,18.04Z" transform="translate(-11.16 -18.04)" fill="#f1f3f6"/>
  </g>
  <g id="Grupo_1161587" data-name="Grupo 1161587" transform="translate(19.531 28.807)">
    <path id="Trazado_1017963" data-name="Trazado 1017963" d="M64.656,35.954H13.722a3.042,3.042,0,0,1-3.042-3.042V18.082a3.042,3.042,0,0,1,3.042-3.042H64.656A3.042,3.042,0,0,1,67.7,18.082V32.911A3.042,3.042,0,0,1,64.656,35.954ZM13.722,17.1a.99.99,0,0,0-.979.979V32.911a.99.99,0,0,0,.979.979H64.656a.99.99,0,0,0,.979-.979V18.082a.99.99,0,0,0-.979-.979Z" transform="translate(-10.68 -15.04)"/>
  </g>
  <g id="Grupo_1161610" data-name="Grupo 1161610" transform="translate(18.361 56.656)">
    <g id="Grupo_1161608" data-name="Grupo 1161608">
      <g id="Grupo_1161588" data-name="Grupo 1161588" transform="translate(0 55.188)">
        <path id="Trazado_1017964" data-name="Trazado 1017964" d="M66.127,67.325H13.492a3.369,3.369,0,0,1-3.362-3.362V57.432a3.369,3.369,0,0,1,3.362-3.362H66.127a3.369,3.369,0,0,1,3.362,3.362v6.532A3.369,3.369,0,0,1,66.127,67.325ZM13.492,56.112a1.289,1.289,0,0,0-1.3,1.3v6.532a1.289,1.289,0,0,0,1.3,1.3H66.127a1.289,1.289,0,0,0,1.3-1.3V57.41a1.289,1.289,0,0,0-1.3-1.3Z" transform="translate(-10.13 -54.07)"/>
      </g>
      <g id="Grupo_1161589" data-name="Grupo 1161589" transform="translate(0 36.211)">
        <path id="Trazado_1017965" data-name="Trazado 1017965" d="M21.917,58.4H13.492a3.369,3.369,0,0,1-3.362-3.362V48.512a3.369,3.369,0,0,1,3.362-3.362h8.425a3.369,3.369,0,0,1,3.362,3.362v6.532A3.369,3.369,0,0,1,21.917,58.4ZM13.492,47.192a1.289,1.289,0,0,0-1.3,1.3v6.532a1.289,1.289,0,0,0,1.3,1.3h8.425a1.289,1.289,0,0,0,1.3-1.3V48.49a1.289,1.289,0,0,0-1.3-1.3Z" transform="translate(-10.13 -45.15)"/>
      </g>
      <g id="Grupo_1161590" data-name="Grupo 1161590" transform="translate(21.531 36.211)">
        <path id="Trazado_1017966" data-name="Trazado 1017966" d="M32.037,58.4H23.612a3.369,3.369,0,0,1-3.362-3.362V48.512a3.369,3.369,0,0,1,3.362-3.362h8.425A3.369,3.369,0,0,1,35.4,48.512v6.532A3.369,3.369,0,0,1,32.037,58.4ZM23.612,47.192a1.289,1.289,0,0,0-1.3,1.3v6.532a1.289,1.289,0,0,0,1.3,1.3h8.425a1.289,1.289,0,0,0,1.3-1.3V48.49a1.289,1.289,0,0,0-1.3-1.3Z" transform="translate(-20.25 -45.15)"/>
      </g>
      <g id="Grupo_1161591" data-name="Grupo 1161591" transform="translate(5.191 41.806)">
        <path id="Trazado_1017967" data-name="Trazado 1017967" d="M16.336,49.822H13.591a1.021,1.021,0,1,1,0-2.042h2.745A1.021,1.021,0,0,1,17.357,48.8,1.008,1.008,0,0,1,16.336,49.822Z" transform="translate(-12.57 -47.78)"/>
      </g>
      <g id="Grupo_1161592" data-name="Grupo 1161592" transform="translate(26.701 41.806)">
        <path id="Trazado_1017968" data-name="Trazado 1017968" d="M26.446,49.822H23.7a1.021,1.021,0,1,1,0-2.042h2.745A1.021,1.021,0,0,1,27.467,48.8,1,1,0,0,1,26.446,49.822Z" transform="translate(-22.68 -47.78)"/>
      </g>
      <g id="Grupo_1161593" data-name="Grupo 1161593" transform="translate(0 18.105)">
        <path id="Trazado_1017969" data-name="Trazado 1017969" d="M21.917,49.895H13.492a3.369,3.369,0,0,1-3.362-3.362V40a3.369,3.369,0,0,1,3.362-3.362h8.425A3.369,3.369,0,0,1,25.278,40v6.532A3.369,3.369,0,0,1,21.917,49.895ZM13.492,38.7a1.289,1.289,0,0,0-1.3,1.3v6.532a1.289,1.289,0,0,0,1.3,1.3h8.425a1.289,1.289,0,0,0,1.3-1.3V40a1.289,1.289,0,0,0-1.3-1.3Z" transform="translate(-10.13 -36.64)"/>
      </g>
      <g id="Grupo_1161594" data-name="Grupo 1161594" transform="translate(21.531 18.105)">
        <path id="Trazado_1017970" data-name="Trazado 1017970" d="M32.037,49.895H23.612a3.369,3.369,0,0,1-3.362-3.362V40a3.369,3.369,0,0,1,3.362-3.362h8.425A3.369,3.369,0,0,1,35.4,40v6.532A3.369,3.369,0,0,1,32.037,49.895ZM23.612,38.7a1.289,1.289,0,0,0-1.3,1.3v6.532a1.289,1.289,0,0,0,1.3,1.3h8.425a1.289,1.289,0,0,0,1.3-1.3V40a1.289,1.289,0,0,0-1.3-1.3Z" transform="translate(-20.25 -36.64)"/>
      </g>
      <g id="Grupo_1161595" data-name="Grupo 1161595" transform="translate(5.191 23.722)">
        <path id="Trazado_1017971" data-name="Trazado 1017971" d="M16.336,41.322H13.591a1.021,1.021,0,1,1,0-2.042h2.745a1.021,1.021,0,1,1,0,2.042Z" transform="translate(-12.57 -39.28)"/>
      </g>
      <g id="Grupo_1161596" data-name="Grupo 1161596" transform="translate(26.701 23.722)">
        <path id="Trazado_1017972" data-name="Trazado 1017972" d="M26.446,41.322H23.7a1.021,1.021,0,1,1,0-2.042h2.745A1.021,1.021,0,0,1,27.467,40.3,1.008,1.008,0,0,1,26.446,41.322Z" transform="translate(-22.68 -39.28)"/>
      </g>
      <g id="Grupo_1161597" data-name="Grupo 1161597">
        <path id="Trazado_1017973" data-name="Trazado 1017973" d="M21.917,41.385H13.492a3.369,3.369,0,0,1-3.362-3.362V31.492a3.369,3.369,0,0,1,3.362-3.362h8.425a3.369,3.369,0,0,1,3.362,3.362v6.532A3.369,3.369,0,0,1,21.917,41.385ZM13.492,30.194a1.289,1.289,0,0,0-1.3,1.3v6.532a1.289,1.289,0,0,0,1.3,1.3h8.425a1.289,1.289,0,0,0,1.3-1.3V31.492a1.289,1.289,0,0,0-1.3-1.3Z" transform="translate(-10.13 -28.13)"/>
      </g>
      <g id="Grupo_1161598" data-name="Grupo 1161598" transform="translate(21.531)">
        <path id="Trazado_1017974" data-name="Trazado 1017974" d="M32.037,41.385H23.612a3.369,3.369,0,0,1-3.362-3.362V31.492a3.369,3.369,0,0,1,3.362-3.362h8.425A3.369,3.369,0,0,1,35.4,31.492v6.532A3.369,3.369,0,0,1,32.037,41.385ZM23.612,30.194a1.289,1.289,0,0,0-1.3,1.3v6.532a1.289,1.289,0,0,0,1.3,1.3h8.425a1.289,1.289,0,0,0,1.3-1.3V31.492a1.289,1.289,0,0,0-1.3-1.3Z" transform="translate(-20.25 -28.13)"/>
      </g>
      <g id="Grupo_1161599" data-name="Grupo 1161599" transform="translate(5.191 5.617)">
        <path id="Trazado_1017975" data-name="Trazado 1017975" d="M16.336,32.812H13.591a1.021,1.021,0,1,1,0-2.042h2.745a1.021,1.021,0,1,1,0,2.042Z" transform="translate(-12.57 -30.77)"/>
      </g>
      <g id="Grupo_1161600" data-name="Grupo 1161600" transform="translate(26.701 5.617)">
        <path id="Trazado_1017976" data-name="Trazado 1017976" d="M26.446,32.812H23.7a1.021,1.021,0,1,1,0-2.042h2.745a1.021,1.021,0,0,1,1.021,1.021A1.008,1.008,0,0,1,26.446,32.812Z" transform="translate(-22.68 -30.77)"/>
      </g>
      <g id="Grupo_1161607" data-name="Grupo 1161607" transform="translate(43.04)">
        <g id="Grupo_1161601" data-name="Grupo 1161601" transform="translate(0 36.211)">
          <path id="Trazado_1017977" data-name="Trazado 1017977" d="M42.147,58.4H33.722a3.369,3.369,0,0,1-3.362-3.362V48.512a3.369,3.369,0,0,1,3.362-3.362h8.425a3.369,3.369,0,0,1,3.362,3.362v6.532A3.369,3.369,0,0,1,42.147,58.4ZM33.722,47.192a1.289,1.289,0,0,0-1.3,1.3v6.532a1.289,1.289,0,0,0,1.3,1.3h8.425a1.289,1.289,0,0,0,1.3-1.3V48.49a1.289,1.289,0,0,0-1.3-1.3Z" transform="translate(-30.36 -45.15)"/>
        </g>
        <g id="Grupo_1161602" data-name="Grupo 1161602" transform="translate(5.191 41.806)">
          <path id="Trazado_1017978" data-name="Trazado 1017978" d="M36.566,49.822H33.821a1.021,1.021,0,0,1,0-2.042h2.745A1.021,1.021,0,0,1,37.587,48.8,1.008,1.008,0,0,1,36.566,49.822Z" transform="translate(-32.8 -47.78)"/>
        </g>
        <g id="Grupo_1161603" data-name="Grupo 1161603" transform="translate(0 18.105)">
          <path id="Trazado_1017979" data-name="Trazado 1017979" d="M42.147,49.895H33.722a3.369,3.369,0,0,1-3.362-3.362V40a3.369,3.369,0,0,1,3.362-3.362h8.425A3.369,3.369,0,0,1,45.508,40v6.532A3.369,3.369,0,0,1,42.147,49.895ZM33.722,38.7a1.289,1.289,0,0,0-1.3,1.3v6.532a1.289,1.289,0,0,0,1.3,1.3h8.425a1.289,1.289,0,0,0,1.3-1.3V40a1.289,1.289,0,0,0-1.3-1.3Z" transform="translate(-30.36 -36.64)"/>
        </g>
        <g id="Grupo_1161604" data-name="Grupo 1161604" transform="translate(5.191 23.722)">
          <path id="Trazado_1017980" data-name="Trazado 1017980" d="M36.566,41.322H33.821a1.021,1.021,0,1,1,0-2.042h2.745a1.021,1.021,0,0,1,0,2.042Z" transform="translate(-32.8 -39.28)"/>
        </g>
        <g id="Grupo_1161605" data-name="Grupo 1161605">
          <path id="Trazado_1017981" data-name="Trazado 1017981" d="M42.147,41.385H33.722a3.369,3.369,0,0,1-3.362-3.362V31.492a3.369,3.369,0,0,1,3.362-3.362h8.425a3.369,3.369,0,0,1,3.362,3.362v6.532A3.369,3.369,0,0,1,42.147,41.385ZM33.722,30.194a1.289,1.289,0,0,0-1.3,1.3v6.532a1.289,1.289,0,0,0,1.3,1.3h8.425a1.289,1.289,0,0,0,1.3-1.3V31.492a1.289,1.289,0,0,0-1.3-1.3Z" transform="translate(-30.36 -28.13)"/>
        </g>
        <g id="Grupo_1161606" data-name="Grupo 1161606" transform="translate(5.191 5.617)">
          <path id="Trazado_1017982" data-name="Trazado 1017982" d="M36.566,32.812H33.821a1.021,1.021,0,1,1,0-2.042h2.745a1.021,1.021,0,0,1,0,2.042Z" transform="translate(-32.8 -30.77)"/>
        </g>
      </g>
    </g>
    <g id="Grupo_1161609" data-name="Grupo 1161609" transform="translate(24.424 60.784)">
      <path id="Trazado_1017983" data-name="Trazado 1017983" d="M31.1,58.742H22.631a1.021,1.021,0,0,1-1.021-1.021A1.035,1.035,0,0,1,22.631,56.7H31.1a1.021,1.021,0,1,1,0,2.042Z" transform="translate(-21.61 -56.7)"/>
    </g>
  </g>
  <g id="Grupo_1161611" data-name="Grupo 1161611" transform="translate(22.829 20.744)">
    <path id="Trazado_1017984" data-name="Trazado 1017984" d="M61.632,13.292H13.251a1.021,1.021,0,1,1,0-2.042H61.61a1.021,1.021,0,0,1,1.021,1.021A.99.99,0,0,1,61.632,13.292Z" transform="translate(-12.23 -11.25)"/>
  </g>
  <g id="Grupo_1161612" data-name="Grupo 1161612" transform="translate(29.062 1.021)">
    <path id="Trazado_1017985" data-name="Trazado 1017985" d="M53.137,1.98V22.7H15.16V1.98c1.574,0,1.574,1,3.149,1,1.6,0,1.6-1,3.149-1,1.6,0,1.6,1,3.17,1,1.6,0,1.6-1,3.17-1a2.471,2.471,0,0,1,1.425.4,2.749,2.749,0,0,0,1.723.6c1.6,0,1.6-1,3.17-1,1.6,0,1.6,1,3.149,1,1.6,0,1.6-1,3.17-1,1.6,0,1.6,1,3.17,1s1.574-1,3.149-1a.468.468,0,0,1,.17.021c1.425.064,1.489.979,3.021.979,1.6.021,1.6-1,3.191-1Z" transform="translate(-15.16 -1.98)" fill="#f1f3f6"/>
  </g>
  <g id="Grupo_1161613" data-name="Grupo 1161613" transform="translate(28.041 0.021)">
    <path id="Trazado_1017986" data-name="Trazado 1017986" d="M53.678,24.275H15.7a1.021,1.021,0,0,1-1.021-1.021V2.531A1.017,1.017,0,0,1,15.7,1.51a3.569,3.569,0,0,1,2.128.66,1.594,1.594,0,0,0,1.021.34,1.7,1.7,0,0,0,1.042-.34,3.625,3.625,0,0,1,2.128-.66,3.7,3.7,0,0,1,2.149.66,1.613,1.613,0,0,0,1.042.34,1.7,1.7,0,0,0,1.042-.34,3.625,3.625,0,0,1,2.128-.66,3.69,3.69,0,0,1,1.957.553l.17.106a1.594,1.594,0,0,0,1.021.34,1.613,1.613,0,0,0,1.042-.34,3.8,3.8,0,0,1,4.276,0,1.594,1.594,0,0,0,1.021.34,1.7,1.7,0,0,0,1.042-.34,3.646,3.646,0,0,1,2.149-.66,3.7,3.7,0,0,1,2.149.66,1.7,1.7,0,0,0,2.042,0,3.625,3.625,0,0,1,2.128-.66,1.964,1.964,0,0,1,.319.021,3.856,3.856,0,0,1,1.83.638,1.7,1.7,0,0,0,1.042.34,1.594,1.594,0,0,0,1.021-.34,3.646,3.646,0,0,1,2.149-.66,1.021,1.021,0,0,1,1.021,1.021V23.253A1.108,1.108,0,0,1,53.678,24.275ZM16.722,22.211H52.635V3.893a3.761,3.761,0,0,1-4.255,0,1.569,1.569,0,0,0-.936-.34.315.315,0,0,1-.149-.021,1.577,1.577,0,0,0-1,.34,3.761,3.761,0,0,1-4.255,0A1.613,1.613,0,0,0,41,3.531a1.7,1.7,0,0,0-1.042.34,3.646,3.646,0,0,1-2.149.66,3.625,3.625,0,0,1-2.128-.66,1.613,1.613,0,0,0-1.042-.34,1.594,1.594,0,0,0-1.021.34,3.83,3.83,0,0,1-4.3,0l-.128-.085a1.451,1.451,0,0,0-.851-.234,1.594,1.594,0,0,0-1.021.34,3.646,3.646,0,0,1-2.149.66,3.7,3.7,0,0,1-2.149-.66,1.613,1.613,0,0,0-1.042-.34,1.638,1.638,0,0,0-1.021.34,3.646,3.646,0,0,1-2.149.66,3.625,3.625,0,0,1-2.128-.66Z" transform="translate(-14.68 -1.51)"/>
  </g>
  <g id="Grupo_1161614" data-name="Grupo 1161614" transform="translate(33.849 8.936)">
    <path id="Trazado_1017987" data-name="Trazado 1017987" d="M21.027,7.742h-2.6a1.021,1.021,0,1,1,0-2.042h2.6a1.021,1.021,0,0,1,0,2.042Z" transform="translate(-17.41 -5.7)"/>
  </g>
  <g id="Grupo_1161615" data-name="Grupo 1161615" transform="translate(45.466 8.936)">
    <path id="Trazado_1017988" data-name="Trazado 1017988" d="M38.614,7.742H23.891a1.021,1.021,0,1,1,0-2.042H38.614a1.021,1.021,0,0,1,1.021,1.021A1.008,1.008,0,0,1,38.614,7.742Z" transform="translate(-22.87 -5.7)"/>
  </g>
  <g id="Grupo_1161616" data-name="Grupo 1161616" transform="translate(33.828 14.488)">
    <path id="Trazado_1017989" data-name="Trazado 1017989" d="M24.017,10.353h-5.6a1.021,1.021,0,1,1,0-2.042h5.6a1.013,1.013,0,0,1,1.042,1.021,1.026,1.026,0,0,1-1.042,1.021Z" transform="translate(-17.4 -8.31)"/>
  </g>
  <g id="Grupo_1161617" data-name="Grupo 1161617" transform="translate(58.252 14.489)">
    <path id="Trazado_1017990" data-name="Trazado 1017990" d="M31.837,10.352H29.9a1.021,1.021,0,1,1,0-2.042h1.936a1.021,1.021,0,0,1,1.021,1.021A1,1,0,0,1,31.837,10.352Z" transform="translate(-28.88 -8.31)"/>
  </g>
  <g id="Grupo_1161618" data-name="Grupo 1161618" transform="translate(47.231 14.489)">
    <path id="Trazado_1017991" data-name="Trazado 1017991" d="M30.593,10.352H24.721a1.021,1.021,0,1,1,0-2.042h5.872a1.021,1.021,0,0,1,1.021,1.021A1.008,1.008,0,0,1,30.593,10.352Z" transform="translate(-23.7 -8.31)"/>
  </g>
  <g id="Grupo_1161619" data-name="Grupo 1161619" transform="translate(50.423 36.572)">
    <path id="Trazado_1017992" data-name="Trazado 1017992" d="M35.923,21.371a2.688,2.688,0,0,1-2.681,2.681H27.881a2.681,2.681,0,0,1,0-5.361h5.361A2.7,2.7,0,0,1,35.923,21.371Z" transform="translate(-25.2 -18.69)" fill="#b9dd53"/>
  </g>
  <g id="Grupo_1161620" data-name="Grupo 1161620" transform="translate(54.337 36.572)">
    <path id="Trazado_1017993" data-name="Trazado 1017993" d="M33.848,21.371a2.652,2.652,0,0,1-.787,1.894,2.739,2.739,0,0,1-1.915.787H27.04a2.681,2.681,0,1,0,0-5.361h4.106A2.7,2.7,0,0,1,33.848,21.371Z" transform="translate(-27.04 -18.69)" fill="#83960f"/>
  </g>
  <g id="Grupo_1161621" data-name="Grupo 1161621" transform="translate(49.402 35.572)">
    <path id="Trazado_1017994" data-name="Trazado 1017994" d="M33.783,25.624H28.422a3.7,3.7,0,0,1-3.7-3.7,3.615,3.615,0,0,1,1.085-2.617,3.687,3.687,0,0,1,2.617-1.085h5.361a3.7,3.7,0,0,1,3.7,3.7,3.7,3.7,0,0,1-3.7,3.7Zm-5.361-5.361a1.649,1.649,0,1,0-.021,3.3h5.361a1.649,1.649,0,1,0,.021-3.3Z" transform="translate(-24.72 -18.22)"/>
  </g>
  <g id="Grupo_1161622" data-name="Grupo 1161622" transform="translate(34.934 36.572)">
    <path id="Trazado_1017995" data-name="Trazado 1017995" d="M28.643,21.371a2.688,2.688,0,0,1-2.681,2.681H20.6a2.681,2.681,0,0,1,0-5.361h5.361A2.7,2.7,0,0,1,28.643,21.371Z" transform="translate(-17.92 -18.69)" fill="#ff9a9a"/>
  </g>
  <g id="Grupo_1161623" data-name="Grupo 1161623" transform="translate(38.849 36.572)">
    <path id="Trazado_1017996" data-name="Trazado 1017996" d="M26.568,21.371a2.652,2.652,0,0,1-.787,1.894,2.739,2.739,0,0,1-1.915.787H19.76a2.681,2.681,0,1,0,0-5.361h4.106A2.7,2.7,0,0,1,26.568,21.371Z" transform="translate(-19.76 -18.69)" fill="#d86666"/>
  </g>
  <g id="Grupo_1161624" data-name="Grupo 1161624" transform="translate(33.913 35.572)">
    <path id="Trazado_1017997" data-name="Trazado 1017997" d="M26.5,25.624H21.142a3.7,3.7,0,0,1-3.7-3.7,3.615,3.615,0,0,1,1.085-2.617,3.687,3.687,0,0,1,2.617-1.085H26.5a3.7,3.7,0,0,1,3.7,3.7,3.7,3.7,0,0,1-3.7,3.7Zm-5.361-5.361a1.649,1.649,0,1,0-.021,3.3h5.361a1.649,1.649,0,1,0,.021-3.3Z" transform="translate(-17.44 -18.22)"/>
  </g>
  <g id="Grupo_1161625" data-name="Grupo 1161625" transform="translate(0 131.993)">
    <path id="Trazado_1017998" data-name="Trazado 1017998" d="M3.117,65.582h-.6a1.021,1.021,0,1,1,0-2.042H3.1a1.021,1.021,0,0,1,1.021,1.021A1,1,0,0,1,3.117,65.582Z" transform="translate(-1.5 -63.54)"/>
  </g>
  <g id="Grupo_1161626" data-name="Grupo 1161626" transform="translate(3.681 131.993)">
    <path id="Trazado_1017999" data-name="Trazado 1017999" d="M102.565,65.582H4.251a1.021,1.021,0,1,1,0-2.042h98.314a1.021,1.021,0,0,1,1.021,1.021A1.008,1.008,0,0,1,102.565,65.582Z" transform="translate(-3.23 -63.54)"/>
  </g>
  <g id="Grupo_1161627" data-name="Grupo 1161627" transform="translate(107.164 131.993)">
    <path id="Trazado_1018000" data-name="Trazado 1018000" d="M66.125,65.582H52.891a1.021,1.021,0,1,1,0-2.042H66.125a1.021,1.021,0,1,1,0,2.042Z" transform="translate(-51.87 -63.54)"/>
  </g>
  <g id="Grupo_1161628" data-name="Grupo 1161628" transform="translate(125.844 131.993)">
    <path id="Trazado_1018001" data-name="Trazado 1018001" d="M67.82,65.582H61.671a1.021,1.021,0,0,1,0-2.042H67.82a1.021,1.021,0,0,1,1.021,1.021A1.035,1.035,0,0,1,67.82,65.582Z" transform="translate(-60.65 -63.54)"/>
  </g>
  <g id="Grupo_1161629" data-name="Grupo 1161629" transform="translate(90.99 5.867)">
    <path id="Trazado_1018002" data-name="Trazado 1018002" d="M45.294,11.114a1.051,1.051,0,0,1-.723-.3,1.04,1.04,0,0,1,0-1.468l4.787-4.787a1.038,1.038,0,1,1,1.468,1.468l-4.787,4.787A1.187,1.187,0,0,1,45.294,11.114Z" transform="translate(-44.267 -4.258)"/>
  </g>
  <g id="Grupo_1161630" data-name="Grupo 1161630" transform="translate(87.08 0)">
    <path id="Trazado_1018003" data-name="Trazado 1018003" d="M43.451,10.308A1.021,1.021,0,0,1,42.43,9.287V2.521a1.021,1.021,0,0,1,2.042,0V9.287A1.008,1.008,0,0,1,43.451,10.308Z" transform="translate(-42.43 -1.5)"/>
  </g>
  <g id="Grupo_1161631" data-name="Grupo 1161631" transform="translate(94.888 14.595)">
    <path id="Trazado_1018004" data-name="Trazado 1018004" d="M53.887,10.4H47.121a1.021,1.021,0,1,1,0-2.042h6.766a1.021,1.021,0,1,1,0,2.042Z" transform="translate(-46.1 -8.36)"/>
  </g>
  <g id="Grupo_1161632" data-name="Grupo 1161632" transform="translate(97.947 1.484)">
    <path id="Trazado_1018005" data-name="Trazado 1018005" d="M48.564,6.479a1.051,1.051,0,0,1-.723-.3,1.04,1.04,0,0,1,0-1.468L50.053,2.5a1.038,1.038,0,0,1,1.468,1.468L49.309,6.181A1.187,1.187,0,0,1,48.564,6.479Z" transform="translate(-47.538 -2.197)"/>
  </g>
  <g id="Grupo_1161633" data-name="Grupo 1161633" transform="translate(118.313 5.638)">
    <path id="Trazado_1018006" data-name="Trazado 1018006" d="M58.131,27.915a1.021,1.021,0,0,1-1.021-1.021V5.171a1.021,1.021,0,1,1,2.042,0V26.893A1.021,1.021,0,0,1,58.131,27.915Z" transform="translate(-57.11 -4.15)"/>
  </g>
  <g id="Grupo_1161634" data-name="Grupo 1161634" transform="translate(114.887 1.042)">
    <ellipse id="Elipse_12797" data-name="Elipse 12797" cx="4.447" cy="4.447" rx="4.447" ry="4.447" fill="#ffca6b"/>
  </g>
  <g id="Grupo_1161635" data-name="Grupo 1161635" transform="translate(115.228 1.404)">
    <path id="Trazado_1018007" data-name="Trazado 1018007" d="M64.213,6.245A4.456,4.456,0,0,1,55.66,8.011a4.608,4.608,0,0,0,1.723.34A4.449,4.449,0,0,0,61.83,3.883a4.525,4.525,0,0,0-.34-1.723,4.38,4.38,0,0,1,2.723,4.085Z" transform="translate(-55.66 -2.16)" fill="#ef8f06"/>
  </g>
  <g id="Grupo_1161636" data-name="Grupo 1161636" transform="translate(113.845 0)">
    <path id="Trazado_1018008" data-name="Trazado 1018008" d="M60.5,12.478a5.489,5.489,0,1,1,5.489-5.489A5.5,5.5,0,0,1,60.5,12.478Zm0-8.914a3.425,3.425,0,1,0,3.425,3.425A3.423,3.423,0,0,0,60.5,3.564Z" transform="translate(-55.01 -1.5)"/>
  </g>
</svg>
