<svg id="bombilla-inteligente" xmlns="http://www.w3.org/2000/svg" width="134.026" height="126.834" viewBox="0 0 134.026 126.834">
  <g id="Grupo_1161430" data-name="Grupo 1161430" transform="translate(28.08 3.224)">
    <path id="Trazado_1017810" data-name="Trazado 1017810" d="M110.141,32.027l-36.615,88.4a5.025,5.025,0,0,1-6.553,2.723L17.806,102.789a5.025,5.025,0,0,1-2.723-6.553L51.719,7.816a5.025,5.025,0,0,1,6.553-2.723l49.168,20.361a5.031,5.031,0,0,1,2.7,6.574Z" transform="translate(-14.7 -4.71)" fill="#d5dce5"/>
  </g>
  <g id="Grupo_1161431" data-name="Grupo 1161431" transform="translate(28.08 21.818)">
    <path id="Trazado_1017811" data-name="Trazado 1017811" d="M110.141,22.173l-36.615,88.4a5.025,5.025,0,0,1-6.553,2.723L17.806,92.935a5.025,5.025,0,0,1-2.723-6.553L17.1,81.489l5,2.064A47.145,47.145,0,0,0,83.717,58.043L102.184,13.45l5.234,2.17a4.992,4.992,0,0,1,2.723,6.553Z" transform="translate(-14.7 -13.45)" fill="#b6c4d3"/>
  </g>
  <g id="Grupo_1161432" data-name="Grupo 1161432" transform="translate(37.164 12.309)">
    <path id="Trazado_1017812" data-name="Trazado 1017812" d="M96.455,28.957,63.67,108.1a2.512,2.512,0,0,1-3.276,1.362L20.523,92.933a2.512,2.512,0,0,1-1.362-3.276L51.926,10.533A2.512,2.512,0,0,1,55.2,9.171l8.446,3.51A2.535,2.535,0,0,1,65.18,14.66l.277,2.106a2.535,2.535,0,0,0,1.532,1.979l12.978,5.383a2.554,2.554,0,0,0,2.489-.319l1.681-1.277a2.547,2.547,0,0,1,2.489-.319l8.446,3.51a2.444,2.444,0,0,1,1.383,3.234Z" transform="translate(-18.97 -8.98)" fill="#fff"/>
  </g>
  <g id="Grupo_1161433" data-name="Grupo 1161433" transform="translate(80.353 23.989)">
    <path id="Trazado_1017813" data-name="Trazado 1017813" d="M91.522,24.789l-36.615,88.4a5.025,5.025,0,0,1-6.553,2.723l-9.085-3.766a5.007,5.007,0,0,0,6.553-2.723l36.615-88.4a5.007,5.007,0,0,0-2.723-6.553L88.8,18.236a4.992,4.992,0,0,1,2.723,6.553Z" transform="translate(-39.27 -14.47)" fill="#93a8ba"/>
  </g>
  <g id="Grupo_1161434" data-name="Grupo 1161434" transform="translate(27.042 2.187)">
    <path id="Trazado_1017814" data-name="Trazado 1017814" d="M69.438,125.1a5.868,5.868,0,0,1-2.319-.468L17.952,104.275a6.057,6.057,0,0,1-3.276-7.914l11.893-28.7a1,1,0,0,1,1.34-.553,1.024,1.024,0,0,1,.553,1.34l-11.893,28.7a3.973,3.973,0,0,0,2.149,5.191L67.885,122.7a3.968,3.968,0,0,0,3.042,0,4.048,4.048,0,0,0,2.17-2.149l36.615-88.4a3.968,3.968,0,0,0,0-3.042,4.048,4.048,0,0,0-2.149-2.17L58.418,6.6a3.973,3.973,0,0,0-5.191,2.149L47.673,22.174a1.025,1.025,0,1,1-1.894-.787L51.333,7.962a6.057,6.057,0,0,1,7.914-3.276l49.168,20.361a6.057,6.057,0,0,1,3.276,7.914L75.034,121.381a6.033,6.033,0,0,1-3.276,3.276A6.242,6.242,0,0,1,69.438,125.1Z" transform="translate(-14.212 -4.223)"/>
  </g>
  <g id="Grupo_1161435" data-name="Grupo 1161435" transform="translate(36.127 71.771)">
    <path id="Trazado_1017815" data-name="Trazado 1017815" d="M44.986,72.355a.987.987,0,0,1-.4-.085L20.669,62.355a3.534,3.534,0,0,1-1.915-4.617l8.361-20.169a1.007,1.007,0,0,1,1.34-.553,1.024,1.024,0,0,1,.553,1.34L20.647,58.526a1.479,1.479,0,0,0,0,1.128,1.5,1.5,0,0,0,.808.808l23.914,9.914a1.024,1.024,0,0,1,.553,1.34.985.985,0,0,1-.936.638Z" transform="translate(-18.483 -36.929)"/>
  </g>
  <g id="Grupo_1161436" data-name="Grupo 1161436" transform="translate(63.404 11.297)">
    <path id="Trazado_1017816" data-name="Trazado 1017816" d="M47.444,111.212a3.389,3.389,0,0,1-1.362-.277l-9.148-3.787a1.025,1.025,0,0,1,.787-1.894l9.148,3.787a1.479,1.479,0,0,0,1.128,0,1.5,1.5,0,0,0,.808-.808L81.57,29.111a1.479,1.479,0,0,0,0-1.128,1.43,1.43,0,0,0-.787-.787l-8.446-3.51a1.516,1.516,0,0,0-1.468.191l-1.681,1.277a3.546,3.546,0,0,1-3.51.447L52.7,20.217a3.545,3.545,0,0,1-2.149-2.787l-.3-2.085a1.533,1.533,0,0,0-.894-1.17l-8.446-3.51a1.5,1.5,0,0,0-1.936.808l-5.7,13.765a1,1,0,0,1-1.34.553,1.024,1.024,0,0,1-.553-1.34l5.7-13.765A3.555,3.555,0,0,1,41.7,8.771l8.468,3.51a3.545,3.545,0,0,1,2.149,2.787l.3,2.085a1.533,1.533,0,0,0,.894,1.17l12.978,5.383a1.464,1.464,0,0,0,1.468-.191l1.681-1.277a3.546,3.546,0,0,1,3.51-.447l8.446,3.51A3.483,3.483,0,0,1,83.506,27.2a3.553,3.553,0,0,1,0,2.723L50.742,109.042a3.52,3.52,0,0,1-1.915,1.915,3.969,3.969,0,0,1-1.383.255Z" transform="translate(-31.303 -8.505)"/>
  </g>
  <g id="Grupo_1161437" data-name="Grupo 1161437" transform="translate(88.402 26.752)">
    <path id="Trazado_1017817" data-name="Trazado 1017817" d="M46,115.851a5.867,5.867,0,0,1-2.319-.468,1.024,1.024,0,0,1-.553-1.34,1.007,1.007,0,0,1,1.34-.553,4,4,0,0,0,5.212-2.149L86.3,22.941A3.973,3.973,0,0,0,84.15,17.75a1.024,1.024,0,0,1-.553-1.34,1,1,0,0,1,1.34-.553,6.057,6.057,0,0,1,3.276,7.914L51.6,112.127a6.033,6.033,0,0,1-3.276,3.276,6.243,6.243,0,0,1-2.319.447Z" transform="translate(-43.053 -15.769)"/>
  </g>
  <g id="Grupo_1161438" data-name="Grupo 1161438" transform="translate(79.318 22.987)">
    <path id="Trazado_1017818" data-name="Trazado 1017818" d="M41.734,114.081a5.867,5.867,0,0,1-2.319-.468,1.024,1.024,0,0,1-.553-1.34,1,1,0,0,1,1.34-.553,4,4,0,0,0,5.212-2.149l36.615-88.4A3.973,3.973,0,0,0,79.88,15.98a1.024,1.024,0,0,1-.553-1.34,1,1,0,0,1,1.34-.553A6.057,6.057,0,0,1,83.944,22L47.329,110.357a6.033,6.033,0,0,1-3.276,3.276,6.242,6.242,0,0,1-2.319.447Z" transform="translate(-38.783 -13.999)"/>
  </g>
  <g id="Grupo_1161439" data-name="Grupo 1161439" transform="translate(53.634 60.527)">
    <path id="Trazado_1017819" data-name="Trazado 1017819" d="M27.262,36.06a7.163,7.163,0,0,0,3.872,9.361l22.041,9.127a7.163,7.163,0,0,0,9.361-9.361,7.055,7.055,0,0,0-3.872-3.872L36.623,32.188A7.178,7.178,0,0,0,27.262,36.06Z" transform="translate(-26.711 -31.644)" fill="#ffb59c"/>
  </g>
  <g id="Grupo_1161440" data-name="Grupo 1161440" transform="translate(79.847 73.847)">
    <path id="Trazado_1017820" data-name="Trazado 1017820" d="M39.261,39.745a2.989,2.989,0,0,0,1.617,3.893,2.957,2.957,0,0,0,3.893-1.617,3.011,3.011,0,0,0,0-2.276,2.877,2.877,0,0,0-1.617-1.617,3.011,3.011,0,0,0-2.276,0,2.877,2.877,0,0,0-1.617,1.617Z" transform="translate(-39.032 -37.905)" fill="#f59878"/>
  </g>
  <g id="Grupo_1161441" data-name="Grupo 1161441" transform="translate(79.857 74.56)">
    <path id="Trazado_1017821" data-name="Trazado 1017821" d="M44.767,41.644a2.977,2.977,0,0,1-5.723-1.34,2.723,2.723,0,0,0,.83.511A2.975,2.975,0,0,0,43.767,39.2a2.42,2.42,0,0,0,.213-.957,3.182,3.182,0,0,1,.787,1.106,2.877,2.877,0,0,1,0,2.3Z" transform="translate(-39.037 -38.24)" fill="#dd785e"/>
  </g>
  <g id="Grupo_1161442" data-name="Grupo 1161442" transform="translate(61.598 41.288)">
    <path id="Trazado_1017822" data-name="Trazado 1017822" d="M66.294,41.64a7.189,7.189,0,0,1-3.872,3.872,7.115,7.115,0,0,1-5.489,0L34.892,36.385a7.159,7.159,0,1,1,5.468-13.233L62.4,32.279A7.17,7.17,0,0,1,66.294,41.64Z" transform="translate(-30.454 -22.601)" fill="#89d595"/>
  </g>
  <g id="Grupo_1161443" data-name="Grupo 1161443" transform="translate(65.781 45.471)">
    <path id="Trazado_1017823" data-name="Trazado 1017823" d="M38.163,28.7a3.008,3.008,0,0,1-3.893,1.617,2.972,2.972,0,0,1-1.617-3.893,2.877,2.877,0,0,1,1.617-1.617,2.826,2.826,0,0,1,2.276,0,2.877,2.877,0,0,1,1.617,1.617,2.826,2.826,0,0,1,0,2.276Z" transform="translate(-32.421 -24.568)" fill="#358f6e"/>
  </g>
  <g id="Grupo_1161444" data-name="Grupo 1161444" transform="translate(65.794 46.2)">
    <path id="Trazado_1017824" data-name="Trazado 1017824" d="M38.157,28.314a2.977,2.977,0,0,1-5.723-1.34,2.723,2.723,0,0,0,.83.511,2.957,2.957,0,0,0,3.893-1.617,2.42,2.42,0,0,0,.213-.957,3.182,3.182,0,0,1,.787,1.106,2.877,2.877,0,0,1,0,2.3Z" transform="translate(-32.427 -24.91)" fill="#206d4d"/>
  </g>
  <g id="Grupo_1161445" data-name="Grupo 1161445" transform="translate(62.742 40.216)">
    <path id="Trazado_1017825" data-name="Trazado 1017825" d="M59.05,47.676a8.165,8.165,0,0,1-3.149-.638L33.881,37.91a8.18,8.18,0,0,1-2.447-1.574,1.04,1.04,0,0,1-.043-1.468,1.015,1.015,0,0,1,1.447-.043A6.008,6.008,0,0,0,34.647,36l22.02,9.127A6.138,6.138,0,0,0,64.688,37.1a6.115,6.115,0,0,0-3.319-3.319l-22-9.127a6.2,6.2,0,0,0-4.7,0,6.352,6.352,0,0,0-1.915,1.255,1.038,1.038,0,0,1-1.447-1.489,8.349,8.349,0,0,1,2.574-1.7,8.224,8.224,0,0,1,6.276,0l22.02,9.127a8.18,8.18,0,0,1-.021,15.127,6.907,6.907,0,0,1-3.106.7Z" transform="translate(-30.992 -22.098)"/>
  </g>
  <g id="Grupo_1161446" data-name="Grupo 1161446" transform="translate(66.616 44.455)">
    <path id="Trazado_1017826" data-name="Trazado 1017826" d="M34.976,32.111a4.263,4.263,0,0,1-1.532-.3,1.024,1.024,0,0,1-.553-1.34,1,1,0,0,1,1.34-.553,1.966,1.966,0,0,0,2.553-1.042,2,2,0,0,0,0-1.489,1.87,1.87,0,0,0-1.064-1.064,2,2,0,0,0-1.489,0,1.017,1.017,0,0,1-1.34-.553,1.048,1.048,0,0,1,.553-1.362A4.026,4.026,0,0,1,38.7,29.664a4.08,4.08,0,0,1-3.723,2.447Z" transform="translate(-32.813 -24.09)"/>
  </g>
  <g id="Grupo_1161447" data-name="Grupo 1161447" transform="translate(75.084 50.453)">
    <path id="Trazado_1017827" data-name="Trazado 1017827" d="M53.424,35.443a.987.987,0,0,1-.4-.085L37.425,28.89a1.024,1.024,0,0,1-.553-1.34A1,1,0,0,1,38.212,27l15.595,6.468a1.024,1.024,0,0,1,.553,1.34.985.985,0,0,1-.936.638Z" transform="translate(-36.793 -26.909)"/>
  </g>
  <g id="Grupo_1161448" data-name="Grupo 1161448" transform="translate(61.595 61.504)">
    <path id="Trazado_1017828" data-name="Trazado 1017828" d="M51.7,55.627a8.166,8.166,0,0,1-3.149-.638L31.085,47.755a1.025,1.025,0,1,1,.787-1.894L49.339,53.1a6.138,6.138,0,0,0,8.021-3.319,6.2,6.2,0,0,0,0-4.7,6.115,6.115,0,0,0-3.319-3.319L35.51,34.075a1.025,1.025,0,0,1,.787-1.894l18.531,7.68a8.175,8.175,0,0,1,0,15.127A7.984,7.984,0,0,1,51.7,55.627Z" transform="translate(-30.453 -32.103)"/>
  </g>
  <g id="Grupo_1161449" data-name="Grupo 1161449" transform="translate(78.837 72.832)">
    <path id="Trazado_1017829" data-name="Trazado 1017829" d="M42.563,45.432a4.263,4.263,0,0,1-1.532-.3,3.949,3.949,0,0,1-2.17-2.17,4.021,4.021,0,0,1,0-3.064,3.921,3.921,0,0,1,2.191-2.17,4.021,4.021,0,0,1,3.064,0,1.025,1.025,0,0,1-.787,1.894,2,2,0,0,0-1.489,0,1.87,1.87,0,0,0-1.064,1.064,2,2,0,0,0,0,1.489,1.933,1.933,0,0,0,1.064,1.064A1.966,1.966,0,0,0,44.392,42.2a1,1,0,0,1,1.34-.553,1.024,1.024,0,0,1,.553,1.34,4.08,4.08,0,0,1-3.723,2.447Z" transform="translate(-38.558 -37.427)"/>
  </g>
  <g id="Grupo_1161450" data-name="Grupo 1161450" transform="translate(65.723 69.121)">
    <path id="Trazado_1017830" data-name="Trazado 1017830" d="M42.152,41.357a.987.987,0,0,1-.4-.085l-8.723-3.617a1.025,1.025,0,1,1,.787-1.894l8.723,3.617a1.024,1.024,0,0,1,.553,1.34.985.985,0,0,1-.936.638Z" transform="translate(-32.393 -35.683)"/>
  </g>
  <g id="Grupo_1161451" data-name="Grupo 1161451" transform="translate(15.915 13.101)">
    <path id="Trazado_1017831" data-name="Trazado 1017831" d="M50.549,20.581a22.157,22.157,0,0,1-.106,22.105,5.28,5.28,0,0,0,0,5.234l2.745,4.808A3.2,3.2,0,0,1,52,57.089l-9.425,5.361a3.2,3.2,0,0,1-4.361-1.191l-2.745-4.808a5.246,5.246,0,0,0-4.489-2.681c-.468,0-.957-.021-1.425-.064A22.2,22.2,0,1,1,40.656,11.5a21.81,21.81,0,0,1,9.893,9.085Z" transform="translate(-8.983 -9.352)" fill="#ffca6b"/>
  </g>
  <g id="Grupo_1161452" data-name="Grupo 1161452" transform="translate(36.483 15.223)">
    <path id="Trazado_1017832" data-name="Trazado 1017832" d="M39.649,19.456a22.157,22.157,0,0,1-.106,22.105,5.28,5.28,0,0,0,0,5.234L42.287,51.6A3.2,3.2,0,0,1,41.1,55.964l-9.425,5.361a3.2,3.2,0,0,1-4.361-1.191l-2.745-4.808a5.246,5.246,0,0,0-4.489-2.681c-.468,0-.957-.021-1.425-.064,17.488-16,14.255-33.658,11.106-42.232a21.974,21.974,0,0,1,9.893,9.106Z" transform="translate(-18.65 -10.35)" fill="#ef8f06"/>
  </g>
  <g id="Grupo_1161453" data-name="Grupo 1161453" transform="translate(47.908 59.71)">
    <path id="Trazado_1017833" data-name="Trazado 1017833" d="M36.211,31.26l2.723,4.808a3.154,3.154,0,0,1,0,3.127l-2.17,3.872a3.285,3.285,0,0,1-2.872,1.638l-4.447-.128a3.244,3.244,0,0,1-2.7-1.617L24.02,38.153a3.078,3.078,0,0,0,1.574-.426l9.425-5.361a2.863,2.863,0,0,0,1.191-1.106Z" transform="translate(-24.02 -31.26)" fill="#d5dce5"/>
  </g>
  <g id="Grupo_1161454" data-name="Grupo 1161454" transform="translate(50.653 64.497)">
    <path id="Trazado_1017834" data-name="Trazado 1017834" d="M37.48,33.51a3.2,3.2,0,0,1,.021,3.149l-2.17,3.872a3.285,3.285,0,0,1-2.872,1.638l-4.447-.128a3.243,3.243,0,0,1-2.7-1.617V40.4Z" transform="translate(-25.31 -33.51)" fill="#93a8ba"/>
  </g>
  <g id="Grupo_1161455" data-name="Grupo 1161455" transform="translate(14.87 12.088)">
    <path id="Trazado_1017835" data-name="Trazado 1017835" d="M41.551,64.455a4.108,4.108,0,0,1-1.128-.149,4.187,4.187,0,0,1-2.553-1.979L35.126,57.52a4.237,4.237,0,0,0-3.6-2.17A23.272,23.272,0,0,1,21.4,11.246,23.538,23.538,0,0,1,52,20.607a23.407,23.407,0,0,1-.106,23.126,4.2,4.2,0,0,0,.021,4.213l2.745,4.83a4.236,4.236,0,0,1,.4,3.213,4.187,4.187,0,0,1-1.979,2.553L43.615,63.9a4.167,4.167,0,0,1-2.064.553ZM31.573,10.927A21.143,21.143,0,0,0,13.318,42.542,21.262,21.262,0,0,0,31.53,53.265a6.285,6.285,0,0,1,5.361,3.213l2.745,4.808a2.131,2.131,0,0,0,2.936.808l9.446-5.361a2.163,2.163,0,0,0,.808-2.957l-2.745-4.83a6.309,6.309,0,0,1,0-6.255,21.131,21.131,0,0,0-18.51-31.764Z" transform="translate(-8.491 -8.876)"/>
  </g>
  <g id="Grupo_1161456" data-name="Grupo 1161456" transform="translate(46.908 58.685)">
    <path id="Trazado_1017836" data-name="Trazado 1017836" d="M34.507,46.292H34.4l-4.447-.128A4.237,4.237,0,0,1,26.4,44.037l-2.723-4.808a1.085,1.085,0,0,1,0-1.021.994.994,0,0,1,.894-.511,2.113,2.113,0,0,0,1.064-.3l9.446-5.361a2.1,2.1,0,0,0,.787-.766,1.036,1.036,0,1,1,1.766,1.085A4.118,4.118,0,0,1,36.1,33.846l-9.468,5.361a3.461,3.461,0,0,1-.489.234l2.042,3.574A2.159,2.159,0,0,0,30,44.1l4.447.128a2.223,2.223,0,0,0,1.936-1.106l2.17-3.872a2.221,2.221,0,0,0,0-2.128A1.029,1.029,0,0,1,40.336,36.1a4.237,4.237,0,0,1,0,4.149l-2.17,3.872a4.148,4.148,0,0,1-3.659,2.17Z" transform="translate(-23.55 -30.778)"/>
  </g>
  <g id="Grupo_1161457" data-name="Grupo 1161457" transform="translate(49.648 63.492)">
    <path id="Trazado_1017837" data-name="Trazado 1017837" d="M25.864,42.021a1.02,1.02,0,0,1-.894-.532,1.037,1.037,0,0,1,.383-1.4l12.17-6.915a1.029,1.029,0,1,1,1.021,1.787l-12.17,6.915A.941.941,0,0,1,25.864,42.021Z" transform="translate(-24.838 -33.038)"/>
  </g>
  <g id="Grupo_1161458" data-name="Grupo 1161458" transform="translate(21.311 20.473)">
    <path id="Trazado_1017838" data-name="Trazado 1017838" d="M12.564,27.46h-.085a1.029,1.029,0,0,1-.957-1.106,16.853,16.853,0,0,1,8.468-13.4,1.029,1.029,0,1,1,1.021,1.787A14.851,14.851,0,0,0,13.564,26.5a.99.99,0,0,1-1,.957Z" transform="translate(-11.519 -12.818)" fill="#fff"/>
  </g>
  <g id="Grupo_1161459" data-name="Grupo 1161459" transform="translate(21.551 37.161)">
    <path id="Trazado_1017839" data-name="Trazado 1017839" d="M14.458,27.637a1.02,1.02,0,0,1-.894-.532,16.558,16.558,0,0,1-1.915-5.212,1.039,1.039,0,0,1,2.042-.383,14.815,14.815,0,0,0,1.681,4.574,1.037,1.037,0,0,1-.383,1.4,1.065,1.065,0,0,1-.532.149Z" transform="translate(-11.631 -20.661)" fill="#fff"/>
  </g>
  <g id="Grupo_1161460" data-name="Grupo 1161460" transform="translate(9.441 15.882)">
    <path id="Trazado_1017840" data-name="Trazado 1017840" d="M11.238,15.681a.979.979,0,0,1-.574-.191L6.387,12.533a1.024,1.024,0,0,1,1.17-1.681l4.276,2.957a1,1,0,0,1,.255,1.425A1.041,1.041,0,0,1,11.238,15.681Z" transform="translate(-5.94 -10.66)"/>
  </g>
  <g id="Grupo_1161461" data-name="Grupo 1161461" transform="translate(4.801 43.899)">
    <path id="Trazado_1017841" data-name="Trazado 1017841" d="M4.783,27.364A1.028,1.028,0,0,1,3.8,26.64a1.013,1.013,0,0,1,.681-1.277l4.957-1.489a1.023,1.023,0,1,1,.6,1.957L5.081,27.321A.676.676,0,0,1,4.783,27.364Z" transform="translate(-3.758 -23.828)"/>
  </g>
  <g id="Grupo_1161462" data-name="Grupo 1161462" transform="translate(18.841 2.24)">
    <path id="Trazado_1017842" data-name="Trazado 1017842" d="M15.83,14.124a1.02,1.02,0,0,1-.894-.532L10.49,5.784a1.029,1.029,0,0,1,1.787-1.021l4.447,7.808a1.037,1.037,0,0,1-.383,1.4.893.893,0,0,1-.511.149Z" transform="translate(-10.358 -4.248)"/>
  </g>
  <g id="Grupo_1161463" data-name="Grupo 1161463" transform="translate(0 29.508)">
    <path id="Trazado_1017843" data-name="Trazado 1017843" d="M11.412,20.523a.468.468,0,0,1-.17-.021L2.37,19.1a1.015,1.015,0,0,1-.851-1.17,1.03,1.03,0,0,1,1.17-.851l8.872,1.4a1.028,1.028,0,0,1-.149,2.042Z" transform="translate(-1.502 -17.064)"/>
  </g>
  <g id="Grupo_1161464" data-name="Grupo 1161464" transform="translate(35.374 1.136)">
    <path id="Trazado_1017844" data-name="Trazado 1017844" d="M19.514,10.965a1.024,1.024,0,0,1-1.021-.957l-.362-5.17A1.035,1.035,0,0,1,20.2,4.689l.362,5.17a1.029,1.029,0,0,1-.957,1.106h-.085Z" transform="translate(-18.129 -3.729)"/>
  </g>
  <g id="Grupo_1161465" data-name="Grupo 1161465" transform="translate(48.578 0)">
    <path id="Trazado_1017845" data-name="Trazado 1017845" d="M25.367,13.588a1.2,1.2,0,0,1-.383-.064,1.027,1.027,0,0,1-.574-1.34l3.34-8.34a1.031,1.031,0,0,1,1.915.766l-3.34,8.34a1.068,1.068,0,0,1-.957.638Z" transform="translate(-24.335 -3.195)"/>
  </g>
  <g id="Grupo_1161466" data-name="Grupo 1161466" transform="translate(30.17 31.895)">
    <path id="Trazado_1017846" data-name="Trazado 1017846" d="M16.719,30.64a1.245,1.245,0,0,1-.277-.043,1.038,1.038,0,0,1-.723-1.277A15.276,15.276,0,0,1,34.506,18.747a1.037,1.037,0,1,1-.553,2A13.21,13.21,0,0,0,17.7,29.9a.985.985,0,0,1-.979.745Z" transform="translate(-15.683 -18.186)"/>
  </g>
  <g id="Grupo_1161467" data-name="Grupo 1161467" transform="translate(34.659 36.53)">
    <path id="Trazado_1017847" data-name="Trazado 1017847" d="M18.829,29.439a1.245,1.245,0,0,1-.277-.043,1.038,1.038,0,0,1-.723-1.277,10.592,10.592,0,0,1,13.042-7.361,1.037,1.037,0,1,1-.553,2,8.445,8.445,0,0,0-6.489.787,8.548,8.548,0,0,0-4.042,5.127.958.958,0,0,1-.957.766Z" transform="translate(-17.793 -20.365)"/>
  </g>
  <g id="Grupo_1161468" data-name="Grupo 1161468" transform="translate(39.127 41.197)">
    <path id="Trazado_1017848" data-name="Trazado 1017848" d="M20.929,28.221a1.245,1.245,0,0,1-.277-.043,1.038,1.038,0,0,1-.723-1.277,5.969,5.969,0,0,1,7.319-4.127,1.037,1.037,0,1,1-.553,2,3.893,3.893,0,0,0-4.787,2.7.985.985,0,0,1-.979.745Z" transform="translate(-19.893 -22.559)"/>
  </g>
  <g id="Grupo_1161469" data-name="Grupo 1161469" transform="translate(43.354 45.774)">
    <path id="Trazado_1017849" data-name="Trazado 1017849" d="M23.646,28.242a1.772,1.772,0,0,1-.468-.064,1.8,1.8,0,0,1-1.064-.83,1.778,1.778,0,0,1,2.021-2.574,1.8,1.8,0,0,1,1.064.83,1.739,1.739,0,0,1,.17,1.34,1.8,1.8,0,0,1-.83,1.064A1.756,1.756,0,0,1,23.646,28.242Zm-.255-1.617a.331.331,0,0,0,.17.128.293.293,0,0,0,.234-.021.309.309,0,0,0,.106-.4.331.331,0,0,0-.17-.128.293.293,0,0,0-.234.021.331.331,0,0,0-.128.17A.293.293,0,0,0,23.391,26.625Z" transform="translate(-21.88 -24.71)"/>
  </g>
  <g id="Grupo_1161470" data-name="Grupo 1161470" transform="translate(117.72 46.602)">
    <path id="Trazado_1017850" data-name="Trazado 1017850" d="M57.869,34.1a.987.987,0,0,1-.4-.085,1.024,1.024,0,0,1-.553-1.34l2.872-6.936a1,1,0,0,1,1.34-.553,1.024,1.024,0,0,1,.553,1.34L58.8,33.462a1.016,1.016,0,0,1-.936.638Z" transform="translate(-56.833 -25.099)"/>
  </g>
  <g id="Grupo_1161471" data-name="Grupo 1161471" transform="translate(112.614 58.963)">
    <path id="Trazado_1017851" data-name="Trazado 1017851" d="M55.469,39.911a.987.987,0,0,1-.4-.085,1.024,1.024,0,0,1-.553-1.34l2.872-6.936A1.007,1.007,0,0,1,58.724,31a1.024,1.024,0,0,1,.553,1.34L56.4,39.272a.985.985,0,0,1-.936.638Z" transform="translate(-54.433 -30.909)"/>
  </g>
  <g id="Grupo_1161472" data-name="Grupo 1161472" transform="translate(57.152 85.209)">
    <path id="Trazado_1017852" data-name="Trazado 1017852" d="M34.652,55.851a6,6,0,0,1-2.4-.489,6.214,6.214,0,0,1-3.4-3.4,6.33,6.33,0,0,1,0-4.83,6.214,6.214,0,0,1,3.4-3.4,6.33,6.33,0,0,1,4.83,0,6.214,6.214,0,0,1,3.4,3.4,6.308,6.308,0,0,1-5.829,8.723Zm.021-10.531a4.264,4.264,0,0,0-3.936,2.617,4.31,4.31,0,0,0,0,3.255,4.132,4.132,0,0,0,2.3,2.3,4.249,4.249,0,0,0,3.255-7.851,3.985,3.985,0,0,0-1.617-.319Z" transform="translate(-28.365 -43.245)"/>
  </g>
  <g id="Grupo_1161473" data-name="Grupo 1161473" transform="translate(60.808 88.822)">
    <path id="Trazado_1017853" data-name="Trazado 1017853" d="M32.119,49.808a1.034,1.034,0,0,1-.957-.638l-1-2.425a1.017,1.017,0,0,1,.553-1.34,1.035,1.035,0,0,1,1.34.553l.617,1.489,5.851-2.425a1.025,1.025,0,0,1,.787,1.894L32.5,49.723a.779.779,0,0,1-.383.085Z" transform="translate(-30.083 -44.943)"/>
  </g>
</svg>
