<svg xmlns="http://www.w3.org/2000/svg" xmlns:xlink="http://www.w3.org/1999/xlink" width="159.082" height="108.926" viewBox="0 0 159.082 108.926">
  <defs>
    <clipPath id="clip-path">
      <rect id="Rectángulo_411283" data-name="Rectángulo 411283" width="159.083" height="108.925" fill="none"/>
    </clipPath>
  </defs>
  <g id="Grupo_1113799" data-name="Grupo 1113799" clip-path="url(#clip-path)">
    <path id="Trazado_918246" data-name="Trazado 918246" d="M159.083,94.22c0,7.911-35.612,14.324-79.541,14.324S0,102.131,0,94.22,35.612,79.9,79.541,79.9s79.541,6.413,79.541,14.324" transform="translate(0 -0.182)" fill="#e8e8e8" style="mix-blend-mode: multiply;isolation: isolate"/>
    <path id="Trazado_918247" data-name="Trazado 918247" d="M122.3,35.544q2.781-.045,5.56-.12a21.394,21.394,0,0,0,4.552-.222,17.853,17.853,0,0,0,2.745-1.254c.589-.273,1.178-.549,1.744-.867.038-.022.072-.047.109-.069-11.935-.151-23.87-.131-35.8-.508a15.282,15.282,0,0,1,.592,3.151q10.25.046,20.5-.112" transform="translate(-0.231 -0.074)" fill="#d19364"/>
    <path id="Trazado_918248" data-name="Trazado 918248" d="M101.393,52.773c1.391-.073,2.812-.007,4.191-.021l5.059-.05,5.059-.051c1.435-.014,3.647.393,4.744-.694a30.179,30.179,0,0,0,2.971-4.081l2.86-4.033q2.219-3.128,4.468-6.235-1.857.07-3.714.116c-3.068.075-6.136.116-9.2.143q-7.98.067-15.96-.04a5.414,5.414,0,0,1-1.414,3.919,7.236,7.236,0,0,1,1.011,4.276c0,2.25-.037,4.5-.074,6.751" transform="translate(-0.229 -0.086)" fill="#e3b485"/>
    <path id="Trazado_918249" data-name="Trazado 918249" d="M33.158,56.877a12.167,12.167,0,0,1-2.526-.906c.218,2.947.067,5.978.072,8.912q.01,4.913.019,9.826c.013,6.7.289,13.468-.144,20.153a1.2,1.2,0,0,1-.11.435c.013,0,.025,0,.038,0,.815.195,1.617.421,2.417.653-.51-12.87.147-26.278.233-39.073" transform="translate(-0.069 -0.127)" fill="#fff"/>
    <path id="Trazado_918250" data-name="Trazado 918250" d="M42.922,58.065a40.816,40.816,0,0,1-7.733-.741c-.636-.123-1.329-.266-2.026-.445-.087,12.8-.743,26.2-.233,39.073a46.473,46.473,0,0,0,5.1,1.292,40.592,40.592,0,0,0,5.341.539c.871-13.2.96-26.672.967-39.716H42.922" transform="translate(-0.075 -0.13)" fill="#12433f"/>
    <path id="Trazado_918251" data-name="Trazado 918251" d="M55.6,57.046a30.394,30.394,0,0,1-3.583.686,61.084,61.084,0,0,1-7.657.334c-.007,13.045-.1,26.515-.967,39.717.773.029,1.546.043,2.32.03a40.536,40.536,0,0,0,7.848-.89c.694-.15,1.373-.339,2.046-.544-1.3-13.232.6-25.963-.008-39.334" transform="translate(-0.099 -0.13)" fill="#2a5647"/>
    <path id="Trazado_918252" data-name="Trazado 918252" d="M60.64,84.6q0-5.135.007-10.269,0-5.259.008-10.519c0-2.561-.173-5.243-.038-7.848-.011-.029-.032-.055-.042-.084a.958.958,0,0,1-.021-.327c-.384.125-.755.229-1.053.331-1.282.439-2.571.833-3.877,1.158.61,13.372-1.292,26.1.008,39.335,1.693-.514,3.343-1.138,5.055-1.593-.165-3.381-.05-6.8-.048-10.185" transform="translate(-0.126 -0.127)" fill="#4d7e56"/>
    <path id="Trazado_918253" data-name="Trazado 918253" d="M36.411,50.554a21.784,21.784,0,0,1-3.022-.4,5.057,5.057,0,0,1-1.865,3.766A11.773,11.773,0,0,0,33.8,54.7c.073.019.148.028.219.046a4.66,4.66,0,0,0,2.395-4.189" transform="translate(-0.072 -0.114)" fill="#fff"/>
    <path id="Trazado_918254" data-name="Trazado 918254" d="M40.356,50.66c-.666-.007-2.227.018-3.94-.1a4.659,4.659,0,0,1-2.394,4.189,31.8,31.8,0,0,0,4.436.758,54.433,54.433,0,0,0,5.917.24,33.128,33.128,0,0,0,.9-5.08c-1.642.019-3.284.014-4.924,0" transform="translate(-0.077 -0.115)" fill="#12433f"/>
    <path id="Trazado_918255" data-name="Trazado 918255" d="M53.629,55.047a8.382,8.382,0,0,1-1.4-4.726c-2.3.231-4.615.314-6.929.341a33.128,33.128,0,0,1-.9,5.08q2-.012,3.985-.09a34.1,34.1,0,0,0,5.244-.606" transform="translate(-0.101 -0.115)" fill="#2a5647"/>
    <path id="Trazado_918256" data-name="Trazado 918256" d="M59.383,53.421c.106-.037.228-.092.355-.149a5.81,5.81,0,0,1-2.188-3.778c-.69.187-1.411.291-2.005.392-1.093.185-2.192.322-3.292.433a8.376,8.376,0,0,0,1.395,4.727,30.568,30.568,0,0,0,3.178-.776c.859-.263,1.71-.552,2.558-.849" transform="translate(-0.119 -0.113)" fill="#4d7e56"/>
    <path id="Trazado_918257" data-name="Trazado 918257" d="M63.567,53.5c-.041-2.537-.1-5.077-.086-7.615a7.055,7.055,0,0,1,1.012-4.125,3.091,3.091,0,0,1-.467-.5c-.675.764-1.348,1.53-2.025,2.294l-1.712,1.928-.422.476a2.189,2.189,0,0,1-.215,2.28,1.306,1.306,0,0,1,.081.3,3.906,3.906,0,0,0,1.418,2.9c.637.487,1.374.809,1.611,1.651a1.534,1.534,0,0,1,.018.854c.021.161.041.322.058.485a6.925,6.925,0,0,1,.732.108c0-.344,0-.69,0-1.033" transform="translate(-0.136 -0.094)" fill="#e3b485"/>
    <path id="Trazado_918258" data-name="Trazado 918258" d="M59.651,2.271c-1.073.036-2.161-.016-3.211-.039-.619-.01-1.237-.02-1.855-.04-.173,0-.345-.01-.518-.01-.487-.021-.984-.031-1.481-.061a.989.989,0,0,1-.344.152c-.619.132.365,2.15.436,2.545a4.015,4.015,0,0,1-.355,2.14c-.72,1.9.629,3.792.9,5.678a34.244,34.244,0,0,1,.071,5.942c-.061,2.1-.153,4.2-.264,6.3-.193,3.722-.527,7.351-2.819,10.434-1.764,2.384-4.309,4.442-4.877,7.484a40.092,40.092,0,0,1,5.739-.051,23.981,23.981,0,0,1,5.6,1.024,11.635,11.635,0,0,1,1.512.619c.313-.334.618-.679.932-1.014q1.651-1.838,3.326-3.66c-7.4-9.355-2.549-25.451-2.793-37.441" transform="translate(-0.103 -0.005)" fill="#12433f"/>
    <path id="Trazado_918259" data-name="Trazado 918259" d="M63.092,36.132c.01-.193.041-.375.061-.558a1.245,1.245,0,0,1-.193-.2,15.133,15.133,0,0,1-2.708-7.991c-.263-3-.334-6.033-.426-9.045-.04-1.551-.142-3.123-.03-4.664a16.8,16.8,0,0,1,.933-3.995,3.853,3.853,0,0,0,.193-2.383,10.091,10.091,0,0,1-.476-1.512,3.612,3.612,0,0,1,.213-1.734c.081-.233.841-1.652.233-1.774-.061-.021-.092-.051-.143-.071-.353.035-.709.057-1.069.069.243,11.99-4.61,28.086,2.793,37.441.242-.263.477-.531.72-.792a13.8,13.8,0,0,1-.1-2.789" transform="translate(-0.133 -0.005)" fill="#2a5647"/>
    <path id="Trazado_918260" data-name="Trazado 918260" d="M55.985,32.571C55,35.7,52.8,37.925,51.6,40.887a9.125,9.125,0,0,0-.527,1.856,40.093,40.093,0,0,0-5.739.051c.568-3.042,3.113-5.1,4.877-7.484,2.292-3.083,2.626-6.713,2.819-10.434.112-2.1.2-4.2.264-6.3a34.244,34.244,0,0,0-.071-5.942c-.274-1.887-1.623-3.782-.9-5.679a4.01,4.01,0,0,0,.355-2.139c-.071-.4-1.055-2.413-.436-2.545a.989.989,0,0,0,.344-.153c.5.031.994.041,1.481.061.173,0,.345.011.518.011A20.662,20.662,0,0,0,55.792,7c1.055,2.616.517,5.587.821,8.366.619,5.577,1.076,11.793-.629,17.208" transform="translate(-0.103 -0.005)" fill="#fff"/>
    <path id="Trazado_918261" data-name="Trazado 918261" d="M40.343,40.072l-.008.014c.018-.022.08-.117.008-.014" transform="translate(-0.092 -0.091)" fill="#a4e519"/>
    <path id="Trazado_918262" data-name="Trazado 918262" d="M39.872,45.564a17.092,17.092,0,0,0-4.686.786,16.566,16.566,0,0,0-2.672,1.1,3.326,3.326,0,0,1,1.079.235c.536.131,1.078.238,1.623.316.735.106,1.477.164,2.219.206a15.858,15.858,0,0,1,2.954-1.768c-.172-.293-.35-.582-.517-.878" transform="translate(-0.074 -0.104)" fill="#aeaeae"/>
    <path id="Trazado_918263" data-name="Trazado 918263" d="M43.506,45.112c-.347.024-.693.048-1.04.074a1.07,1.07,0,0,1-.228.17c.058.113.114.225.173.338.376-.112.755-.206,1.135-.287-.012-.1-.023-.195-.04-.294" transform="translate(-0.096 -0.103)" fill="#aeaeae"/>
    <path id="Trazado_918264" data-name="Trazado 918264" d="M45.8,45.087a5.543,5.543,0,0,1,.07,1.767,1.1,1.1,0,0,1-1.059.806,1.115,1.115,0,0,1-1.059-.806,10.382,10.382,0,0,1-.215-1.447c-.38.082-.759.176-1.135.287.1.186.2.371.286.562A1.032,1.032,0,0,1,40.9,47.3c-.178-.279-.336-.57-.5-.855a15.828,15.828,0,0,0-2.954,1.768c1.537.087,3.086.079,4.619.093,2.362.022,4.724.028,7.085-.085.088,0,.177-.012.265-.016-.78-.014-1.559-.027-2.339-.047a1.147,1.147,0,0,1,0-2.294l2.252-.178a1.735,1.735,0,0,1,.493-.039L51,45.552c.222-.018.445-.041.667-.055a22.156,22.156,0,0,0-5.867-.41" transform="translate(-0.085 -0.103)" fill="#fff"/>
    <path id="Trazado_918265" data-name="Trazado 918265" d="M53.08,45.8a.985.985,0,0,1,.314.6,1.045,1.045,0,0,1-.749,1.147,7.524,7.524,0,0,1-1.25.183,1.176,1.176,0,0,1-.466.38,41.5,41.5,0,0,0,5.436-.727c.093-.019.245-.039.405-.063a1.366,1.366,0,0,1-.106-.47c-1.19-.4-2.387-.764-3.584-1.054" transform="translate(-0.116 -0.104)" fill="#fff"/>
    <path id="Trazado_918266" data-name="Trazado 918266" d="M56.725,46.286a15.751,15.751,0,0,0-2.812-.8,32.19,32.19,0,0,0-8.114-.51c.007.035.01.071.016.106a22.2,22.2,0,0,1,5.867.409,4.741,4.741,0,0,1,.673,0,1.177,1.177,0,0,1,.712.3c1.2.289,2.394.65,3.584,1.054a1.411,1.411,0,0,1,.074-.565" transform="translate(-0.104 -0.102)" fill="#aeaeae"/>
    <path id="Trazado_918267" data-name="Trazado 918267" d="M20.174,33.462a3.469,3.469,0,0,0-2.448.9c.177,1.968.247,3.952.324,5.928.513.108,1.03.19,1.548.251-.1-2.367.533-4.636.576-7.079" transform="translate(-0.04 -0.076)" fill="#fff"/>
    <path id="Trazado_918268" data-name="Trazado 918268" d="M23.115,33.975a10.2,10.2,0,0,0-2.936-.512c-.043,2.442-.68,4.712-.576,7.078.4.048.807.087,1.215.1a16.236,16.236,0,0,0,1.763-.059c.028,0,.054-.008.081-.011a.972.972,0,0,1,.408-.278c-.017-.927.04-3.08.041-3.335q0-1.489,0-2.978" transform="translate(-0.045 -0.076)" fill="#d2d2d2"/>
    <path id="Trazado_918269" data-name="Trazado 918269" d="M20.985,42.877a16.665,16.665,0,0,1-1.713-.116,22.1,22.1,0,0,0-3.93,6.361,49.175,49.175,0,0,0,6.241-.106c.45-.023.886-.061,1.325-.1A38.728,38.728,0,0,0,21.6,42.865c-.206,0-.412.014-.618.012" transform="translate(-0.035 -0.097)" fill="#d2d2d2"/>
    <path id="Trazado_918270" data-name="Trazado 918270" d="M23.753,42.643a5.168,5.168,0,0,1-.642.121c-.5.06-.995.087-1.495.1a38.867,38.867,0,0,1,1.305,6.056,23.516,23.516,0,0,0,6.351-1.276,10.364,10.364,0,0,0-5.519-5" transform="translate(-0.049 -0.097)" fill="#ebebeb"/>
    <path id="Trazado_918271" data-name="Trazado 918271" d="M17.1,42.38A14.136,14.136,0,0,0,11.95,48.5a15.194,15.194,0,0,0,3.384.621,22.117,22.117,0,0,1,3.93-6.361A18.5,18.5,0,0,1,17.1,42.38" transform="translate(-0.027 -0.097)" fill="#fff"/>
    <path id="Trazado_918272" data-name="Trazado 918272" d="M13.695,51.219a16.283,16.283,0,0,1-2.361-.55c.319,3.28.082,6.687.078,9.968L11.4,70.747c-.006,6.829.233,13.714-.07,20.536a26.331,26.331,0,0,0,3.363,1.2c-.433-13.683-1.44-27.706-1-41.26" transform="translate(-0.026 -0.115)" fill="#fff"/>
    <path id="Trazado_918273" data-name="Trazado 918273" d="M22.544,51.308l-.842.041a38.573,38.573,0,0,1-8-.129c-.439,13.554.569,27.577,1,41.26.231.058.462.12.7.162a20.338,20.338,0,0,0,4.93-.089c1.049-.076,2.1-.144,3.152-.232-1.1-13.6.575-27.537-.937-41.012" transform="translate(-0.031 -0.117)" fill="#8cc43d"/>
    <path id="Trazado_918274" data-name="Trazado 918274" d="M31.125,49.34A21.581,21.581,0,0,1,25.905,51a31,31,0,0,1-3.34.3c1.511,13.474-.16,27.409.937,41.012.508-.043,1.018-.079,1.522-.145a12.935,12.935,0,0,0,2.219-.472,8.5,8.5,0,0,0,1.063-.44c-.173-5.512.009-11.064.02-16.566q.009-5.037.019-10.076a87.02,87.02,0,0,1,.206-10.077,1.184,1.184,0,0,1,.081-.275,1.055,1.055,0,0,1,.662-1.462,3.128,3.128,0,0,0,2.143-3.072.982.982,0,0,1,.039-.2c-.123-.059-.238-.122-.349-.188" transform="translate(-0.051 -0.112)" fill="#a2e247"/>
    <path id="Trazado_918275" data-name="Trazado 918275" d="M32.3,98.3a4.469,4.469,0,0,0,2.336,2.131,20.074,20.074,0,0,0,3.153.724,18.784,18.784,0,0,1-.768-1.725A36.355,36.355,0,0,1,32.3,98.3" transform="translate(-0.074 -0.224)" fill="#d2d2d2"/>
    <path id="Trazado_918276" data-name="Trazado 918276" d="M53.752,99.31c-.145.03-.292.051-.437.079-.476.61-.961,1.2-1.45,1.789.538-.087,1.077-.168,1.609-.282,1.328-.283,3.134-.493,4.2-1.4a8.274,8.274,0,0,0,1.347-1.548,39.264,39.264,0,0,1-5.273,1.36" transform="translate(-0.118 -0.223)" fill="#d2d2d2"/>
    <path id="Trazado_918277" data-name="Trazado 918277" d="M65.216,63.545a4.762,4.762,0,0,1-1.466-3.083,30.99,30.99,0,0,1-.176-3.651A4.809,4.809,0,0,0,63,56.675c.081,2.463-.068,4.98-.066,7.389v1.183a14.267,14.267,0,0,1,1.539.1,8.426,8.426,0,0,1,.745-1.8" transform="translate(-0.143 -0.129)" fill="#b07556"/>
    <path id="Trazado_918278" data-name="Trazado 918278" d="M62.931,65.267l.006,9.085q0,5.259.008,10.519c0,1.583.027,3.177.038,4.771l.491-.094.367-.069A13.685,13.685,0,0,1,64.962,84.6a12.027,12.027,0,0,1,.854-11.321,9.185,9.185,0,0,1-1.347-7.916,14.246,14.246,0,0,0-1.538-.1" transform="translate(-0.143 -0.149)" fill="#d19364"/>
    <path id="Trazado_918279" data-name="Trazado 918279" d="M98.3,42.405c1.115,1.075.984,2.718.943,4.148-.04,1.876-.091,3.761-.122,5.638s-.061,3.761-.1,5.637a19.086,19.086,0,0,1-.082,2.4,4.586,4.586,0,0,1-.193.821,2.847,2.847,0,0,1-.213.386H98.5a.684.684,0,0,0-.375.071,1.007,1.007,0,0,0-.314-.071c-4.979-.1-9.978.02-14.957.04-1.642.01-3.276.01-4.918.01-3.346.011-6.693.021-10.039.133a.984.984,0,0,0-.658.273.993.993,0,0,0-.852-.456h-.041a2.012,2.012,0,0,1-.2-.386,3.831,3.831,0,0,1-.2-.821,18.9,18.9,0,0,1-.082-2.4c-.03-1.876-.071-3.761-.1-5.637s-.082-3.762-.122-5.638c-.041-1.43-.173-3.073.943-4.148a.874.874,0,0,0,.112-1.217,1.178,1.178,0,0,0-.76-1.165c-.173-.071-.284-.314-.376-.619a1.017,1.017,0,0,0-.162-1.166c-.041-.6-.031-1.166-.031-1.4a12.159,12.159,0,0,1,.446-3.356,12.805,12.805,0,0,1,3.276-5.7c2.728-2.728,8.579-4.32,8.6-8.822.477-.021.953-.061,1.409-.072q1.811-.03,3.621-.03,1.11,0,2.22.03c.761.021,1.522.051,2.272.082.031,4.492,5.872,6.084,8.6,8.812a12.794,12.794,0,0,1,3.275,5.7,12.307,12.307,0,0,1,.426,2.708,1.2,1.2,0,0,0,.02,1.035c0,.861-.04,2.585-.568,2.8a1.178,1.178,0,0,0-.76,1.165.874.874,0,0,0,.112,1.217" transform="translate(-0.149 -0.043)" fill="#fff"/>
    <path id="Trazado_918280" data-name="Trazado 918280" d="M98.235,86.409a13.842,13.842,0,0,1-.627-1.506c-.161-.791.488-1.6.714-2.341a9.814,9.814,0,0,0-1.576-8.787,1.13,1.13,0,0,1,.174-1.346A7.179,7.179,0,0,0,97.43,63.8c-4.854.117-9.723.027-14.579.035-4.984.009-9.974.072-14.956-.06a1.1,1.1,0,0,1-.382-.085,7.2,7.2,0,0,0,.451,8.738,1.122,1.122,0,0,1,.175,1.346A9.824,9.824,0,0,0,66.46,82.2c.216.808.9,1.723.837,2.551a5.182,5.182,0,0,1-.51,1.272,11.374,11.374,0,0,0-.465,1.562,11.174,11.174,0,0,0-.231,3.145,10.878,10.878,0,0,0,.651,3.083c.372,1.015.866,1.506.448,2.552a11.931,11.931,0,0,0-.4,6.348,3.23,3.23,0,0,0,1.143,2.5,8.206,8.206,0,0,0,3.137.831,40.008,40.008,0,0,0,11.023.511,1.193,1.193,0,0,1,.28,0,69.844,69.844,0,0,0,10.6-.381c1.971-.3,4.477-.336,4.994-2.658a12.911,12.911,0,0,0,.078-6.332c-.349-1.089-.768-1.42-.255-2.522a11.073,11.073,0,0,0,.959-3.325,11.076,11.076,0,0,0-.509-4.934" transform="translate(-0.15 -0.145)" fill="#fff"/>
    <path id="Trazado_918281" data-name="Trazado 918281" d="M88.623,94.3c2.672,0,6.367.181,7.057-2.965,1.938-8.843-8.158-3.066-11.985-5.238-2.7-1.533.262-2.78,1.854-3.014,2.194-.323,6.847.814,8.577-.614,1.4-1.156.881-4.328-.494-5.381-1.426-1.092-4.6-.472-6.4-.47-1.357,0-6.375.5-5.832-1.944.392-1.763,3.8-1.291,5.1-1.289,4.156,0,7.368.752,6.844-4.4-.224-2.2-.492-2.185-2.429-2.24a68.55,68.55,0,0,1-7.635-.419c.1-1.727,1.336-1.986,2.84-2.252-3.258-.368-6.535-.9-9.806-1.107-5.125-.329-6.924,2.664-6.027,7.535.271,1.471,1.155,2.647,1.194,3.847.073,2.2-1.078,4.281-.91,6.645.116,1.62,1.206,2.351,1.274,3.708.094,1.862-1.389,3.057-.9,5.21.328,1.444.908,2.363.635,3.823-.235,1.253-.928,2.136-.63,3.57a12.072,12.072,0,0,0,5.979,7.593c3.141,1.712,6.519.64,9.921.425,3.355-.211,8.247-.968,8-5.061-.2-3.379-1.623-3.294-4.652-3.294-1.181,0-7.883.838-7.472-1.1.342-1.617,4.791-1.562,5.889-1.563" transform="translate(-0.16 -0.143)" fill="#ebebeb"/>
    <path id="Trazado_918282" data-name="Trazado 918282" d="M97.326,103.616c-2.865-1.294-8.414.578-11.463.57-1.631,0-6.8.651-8.132-.515-1.251-1.092-.3-4.263-.775-5.727-1.312-.4-4.728-.057-5.679-1.026C69.2,94.8,75.827,94.093,76.954,94.08a68.524,68.524,0,0,0-.189-7.357c-1.369-.076-5.45.073-5.678-1.926-.364-3.171,4.781-1.909,6.253-2.125a39.972,39.972,0,0,0-.195-7.167c-1.536.037-5.362.23-6.064-1.263-1.634-3.482,5.053-2.367,6.411-2.745a15.449,15.449,0,0,0,.062-3.636c-.239-1.632.179-1.268-1.321-1.7-1.584-.458-3.419.093-5-.62-.989-.444-2.625-1.88-.708-2.613l-3.613.38c-3.14,3.464.68,5.981-.433,9.665-.586,1.938-1.449,3.6-1.468,5.7-.018,1.983,1.345,3.694,1.343,5.534,0,1.33-.9,2.429-1.162,3.725a10.394,10.394,0,0,0,.246,4.451c.62,3.232-.178,6.284.138,9.528.79,8.1,17.217,5.712,22.215,5.552a18.91,18.91,0,0,0,8.343-1.749c1.413-.688,2.962-1.3,1.2-2.1" transform="translate(-0.148 -0.143)" fill="#d2d2d2"/>
    <path id="Trazado_918283" data-name="Trazado 918283" d="M72.778,101.916c-.733-1.762-2.414-2.282-2.256-4.579A4.734,4.734,0,0,1,71.876,94.3c-2-2.993-1.215-6.475-.705-9.617.325-2-1.52-3.11-1.5-5.309.014-1.946.947-4.146,1.378-5.987.282-1.208.642-.658.042-1.9-.318-.661-1.087-1.073-1.372-1.664-1.239-2.564.193-5.327,2.518-6.7L69,61.213c-1.546,1.673-3.1,3.221-3.237,5.662C65.64,69.12,66.84,70.381,67.3,72.24c.681,2.737-1.983,5.641-1.536,8.653.306,2.067,1.309,2.781.809,5.041a16.8,16.8,0,0,0-.791,4.694c.094,1.883,1.421,3.493,1.513,5.251.1,1.983-1.847,3.5-1.339,5.6.706,2.911,8.21,3.777,6.819.434" transform="translate(-0.15 -0.139)" fill="#fff"/>
    <path id="Trazado_918284" data-name="Trazado 918284" d="M84.93,18.89c-1.551,1.785-3.346,3.1-4.584,5.2-2.535,4.329-2.94,9.491-2.981,14.409-.03,3.975-.426,8-.324,11.966.081,3.052-.294,6.328.345,9.319.122.588.375,1.135.547,1.7-2.383.01-4.765.01-7.149.061-.963.02-1.927.041-2.889.071a.983.983,0,0,0-.659.274.991.991,0,0,0-.852-.457h-.04a1.982,1.982,0,0,1-.2-.385,3.953,3.953,0,0,1-.2-.821,18.909,18.909,0,0,1-.081-2.4c-.031-1.876-.071-3.761-.1-5.638s-.081-3.761-.122-5.637c-.04-1.431-.172-3.073.943-4.148a.874.874,0,0,0,.112-1.217,1.179,1.179,0,0,0-.76-1.166c-.173-.071-.284-.314-.375-.619a1.016,1.016,0,0,0-.163-1.165c-.04-.6-.03-1.166-.03-1.4a12.122,12.122,0,0,1,.446-3.356,12.8,12.8,0,0,1,3.276-5.7c2.728-2.728,8.578-4.319,8.6-8.822.314-.01.629-.04.933-.051.163-.01.325-.02.477-.02q1.809-.03,3.62-.031,1.11,0,2.221.031" transform="translate(-0.149 -0.043)" fill="#d2d2d2"/>
    <path id="Trazado_918285" data-name="Trazado 918285" d="M78.511,21.76a5.67,5.67,0,0,1-1.622,3.519c-1.572,1.6-5.07,2.94-6,4.969-.517,1.115-.558,3.468-.7,4.684a9.158,9.158,0,0,0-.01,3.366c.314,1.025,1.581,1.7,1.845,2.677.447,1.663-1.175,2.769-1.5,4.391-.527,2.565.082,5.75.2,8.315.05,1.217-.477,5.395.06,7.869-.963.02-1.927.04-2.889.071a.987.987,0,0,0-.659.273.99.99,0,0,0-.851-.456h-.041a1.978,1.978,0,0,1-.2-.385,3.893,3.893,0,0,1-.2-.821,19.1,19.1,0,0,1-.081-2.4c-.03-1.876-.071-3.762-.1-5.638s-.082-3.762-.123-5.638c-.04-1.43-.172-3.072.944-4.148a.873.873,0,0,0,.111-1.216,1.177,1.177,0,0,0-.76-1.166c-.172-.071-.283-.314-.375-.619a1.017,1.017,0,0,0-.162-1.166c-.041-.6-.031-1.165-.031-1.4a12.117,12.117,0,0,1,.446-3.356,12.8,12.8,0,0,1,3.276-5.7c2.728-2.728,8.578-4.32,8.6-8.822.314-.01.629-.041.933-.051.375.831.193,1.389-.1,2.849" transform="translate(-0.149 -0.043)" fill="#fff"/>
    <path id="Trazado_918286" data-name="Trazado 918286" d="M94.824,39.349c.312-2.5.176-5.506-2.021-7.156a24.6,24.6,0,0,1-5.049-5.008c-1.762-2.319-4.91-8.491-3.9-11.327-.432,1.21-1.527,1.988-1.775,3.312-.2,1.068.185,1.912-.233,3.1a15.392,15.392,0,0,1-1.79,3.277C75.7,32.112,76.5,41.017,76.622,48.536c.034,2.169.223,4.316.394,6.476.1,1.288-.162,3.721.376,4.962.529,1.22,1.544,1.46,2.838,1.711,2.936.57,10.735,3.569,12.475.071.694-1.394.411-4.036.614-5.59.289-2.214.362-4.448.624-6.669.235-2,.879-4.819.759-6.744-.064-1.04-2.115-3.666.123-3.4" transform="translate(-0.174 -0.036)" fill="#ebebeb"/>
    <path id="Trazado_918287" data-name="Trazado 918287" d="M132.432,90.961c-5.273-.334-10.658-.071-15.941-.061-2.667,0-5.334.01-7.99.01-2.454.01-4.959-.071-7.423.112a13.684,13.684,0,0,0-1.085-6.479,12.031,12.031,0,0,0-.862-11.317,9.126,9.126,0,0,0,.953-9,6.677,6.677,0,0,0-.355-.719,4.543,4.543,0,0,0,1.451-2.941,39.918,39.918,0,0,0,.193-5.516c1.481.051,2.991-.05,4.462-.06,1.856-.021,3.711-.031,5.566-.051s3.712-.031,5.567-.051c1.551-.02,3.215.152,4.523-.852a15.412,15.412,0,0,0,2.84-3.62q1.565-2.221,3.123-4.452c1.318-1.866,2.616-3.741,3.914-5.617.345-.5.679-.994,1.024-1.491-.314,8.5-.061,17.055-.061,25.553,0,8.853-.091,17.7.1,26.557" transform="translate(-0.226 -0.089)" fill="#d19364"/>
    <path id="Trazado_918288" data-name="Trazado 918288" d="M139.287,86.421c-.488.355-.944.74-1.411,1.105-.537.415-1.075.821-1.632,1.247-.548.4-1.095.791-1.642,1.176.172-8.518.1-17.036.1-25.544,0-5.069.092-10.15.092-15.23,0-3.042-.031-6.074-.122-9.105q2.312,3.1,4.623,6.185c-.354,5.9-.183,11.884-.142,17.806.02.8.02,1.592.02,2.383,0,6.663-.091,13.325.113,19.976" transform="translate(-0.307 -0.091)" fill="#d19364"/>
    <path id="Trazado_918289" data-name="Trazado 918289" d="M147.335,45.072c-.848-1.306-1.6-2.674-2.455-3.974-1.6-2.43-3.877-4.537-5.3-7.092a23.187,23.187,0,0,1-4.248,2.4c-.209.095-.422.2-.639.313q5.19,6.763,10.325,13.566l1.626-1.107c.3-.206.615-.4.907-.617.275-.2.473-.467.729-.67a1.536,1.536,0,0,1,.662-.3c-.528-.843-1.067-1.679-1.608-2.513" transform="translate(-0.307 -0.077)" fill="#e3b485"/>
    <path id="Trazado_918290" data-name="Trazado 918290" d="M68.923,42.826a135.756,135.756,0,0,0,27.643-.588c1.4-.16,1.417-2.379,0-2.217a185.318,185.318,0,0,1-27.643.812c-1.3-.045-1.257,1.878,0,1.992" transform="translate(-0.155 -0.091)" fill="#003023"/>
    <path id="Trazado_918291" data-name="Trazado 918291" d="M71.444,73.622a89.434,89.434,0,0,1,16.739-.062c1.376.111,1.333-1.973,0-2.123a73.835,73.835,0,0,0-16.739.165c-1.273.147-1.3,2.158,0,2.02" transform="translate(-0.161 -0.162)" fill="#003023"/>
    <path id="Trazado_918292" data-name="Trazado 918292" d="M94.339,73.97l.247-.1a.776.776,0,0,0,.291-.267.986.986,0,0,0,.223-.629,1.237,1.237,0,0,0-.142-.525,1.052,1.052,0,0,0-.621-.477,3.072,3.072,0,0,0-.753-.042l-.517,0-1.034.009a1.069,1.069,0,0,0-.727.3A1.029,1.029,0,0,0,92.036,74l1.034.01.517,0a3.073,3.073,0,0,0,.753-.042" transform="translate(-0.207 -0.164)" fill="#003023"/>
    <path id="Trazado_918293" data-name="Trazado 918293" d="M70.186,84.189c2.859.146,5.756-.029,8.618-.076s5.745-.107,8.617-.174a1.109,1.109,0,0,0,0-2.217q-4.309.084-8.617.193c-2.863.075-5.766.024-8.618.29a.992.992,0,0,0,0,1.983" transform="translate(-0.158 -0.186)" fill="#003023"/>
    <path id="Trazado_918294" data-name="Trazado 918294" d="M97.294,82.9c-.438-.454-1.028-.294-1.556-.176l-.678.153a.986.986,0,0,0-.73.847.775.775,0,0,0,.019.407,1.034,1.034,0,0,0,.468.61l.243.1a1.043,1.043,0,0,0,.543,0l.684-.131.342-.065.166-.054a3.091,3.091,0,0,0,.286-.121,1,1,0,0,0,.361-.362l.106-.251a1,1,0,0,0,0-.525.981.981,0,0,0-.253-.435" transform="translate(-0.215 -0.188)" fill="#003023"/>
    <path id="Trazado_918295" data-name="Trazado 918295" d="M88.187,93a93.163,93.163,0,0,0-18.5.877c-1.3.175-1.36,2.23,0,2.1,3.07-.3,6.152-.536,9.235-.654s6.175-.032,9.265-.055a1.133,1.133,0,0,0,0-2.264" transform="translate(-0.156 -0.211)" fill="#003023"/>
    <path id="Trazado_918296" data-name="Trazado 918296" d="M96.989,94.013a.826.826,0,0,0-.28-.305.549.549,0,0,0-.239-.14l-.153-.06a2.316,2.316,0,0,0-.371-.048l-.223,0a2.9,2.9,0,0,0-.715.117,2.822,2.822,0,0,0-1.2.728,1.135,1.135,0,0,0-.319.77,1.214,1.214,0,0,0,.319.771,1.1,1.1,0,0,0,.77.318,1.113,1.113,0,0,0,.771-.318l.06-.056a1.866,1.866,0,0,1,.168-.1,1.9,1.9,0,0,1,.193-.052c.028,0,.056-.006.085,0l.129.008.07.007.288-.039a.7.7,0,0,0,.275-.12.817.817,0,0,0,.3-.276.8.8,0,0,0,.192-.364l.039-.284A1.071,1.071,0,0,0,97,94.025Z" transform="translate(-0.213 -0.213)" fill="#003023"/>
    <path id="Trazado_918297" data-name="Trazado 918297" d="M87.66,28.389a10.777,10.777,0,0,1,4.858,2.585,10.462,10.462,0,0,1,1.762,2.1c.553.872.859,1.9,1.481,2.721a1.14,1.14,0,0,0,1.511.4,1.113,1.113,0,0,0,.4-1.51c-.636-.9-.976-1.97-1.589-2.886a13.019,13.019,0,0,0-7.848-5.47,1.071,1.071,0,1,0-.57,2.065" transform="translate(-0.198 -0.06)" fill="#003023"/>
    <path id="Trazado_918298" data-name="Trazado 918298" d="M151.435,47.895c-.783-1.366-1.657-2.675-2.515-3.994s-1.6-2.672-2.46-3.971c-.883-1.34-1.907-2.585-2.908-3.836-.933-1.166-1.767-2.381-2.615-3.6a1.138,1.138,0,0,0-.9-1.784c-13.337-.23-26.676-.171-40.009-.611-.152-.307-.29-.621-.463-.917a14.926,14.926,0,0,0-5.18-5.2c-2.059-1.261-4.709-2.493-5.142-5,.192.006.383.015.576.02a1.118,1.118,0,0,0,.568-2.078q-.015-1.338-.029-2.677c-.009-.8-.011-1.6-.044-2.393a1.012,1.012,0,0,0-.191-1.619,18.145,18.145,0,0,0-7.87-1.689,19.548,19.548,0,0,0-7.879,1.575.785.785,0,0,0-.484.754.839.839,0,0,0-.171.331,10.088,10.088,0,0,0-.086,3.269c.051.577.126,1.152.221,1.724a5.639,5.639,0,0,0,.448,1.655.87.87,0,0,0,.416.4.831.831,0,0,0,.648.56c.014,0,.029,0,.043,0-.343,2.616-3.062,3.877-5.166,5.163a14.943,14.943,0,0,0-5.18,5.2,15.165,15.165,0,0,0-1.388,3.179,19.058,19.058,0,0,1-1.443-7.249c-.186-3.432-.373-6.887-.35-10.325a15.823,15.823,0,0,1,.868-4.571,5.838,5.838,0,0,0-.053-4c-.537-1.387.5-2.464.322-3.868A2.242,2.242,0,0,0,61.607.423a1.2,1.2,0,0,0-.781-.377A20.912,20.912,0,0,0,58.547.033c-.73,0-1.461.008-2.191.008S54.9.036,54.165.028a16.215,16.215,0,0,0-2.278.026,1.1,1.1,0,0,0-.853.5,2.659,2.659,0,0,0-1.068,2.892c.235,1.088.691,1.667.275,2.767a5.13,5.13,0,0,0-.377,2.52A20.05,20.05,0,0,0,50.7,11.8a11.77,11.77,0,0,1,.361,3.208c0,2.317-.1,4.639-.2,6.953-.174,4.1.009,8.559-2.514,12.025-1.476,2.027-3.42,3.792-4.524,6.022a7.687,7.687,0,0,0-1.072-1.372,2.783,2.783,0,0,0-4.024-.246,3.731,3.731,0,0,0-.437,4.211c.084.191.188.373.282.559a18.527,18.527,0,0,0-3.232.581c-1.3.352-3.437.907-4.569,2.011a12.234,12.234,0,0,0-5.5-5.022c.027-.323.016-.656.017-.977q0-1.113.008-2.227.007-2.227.015-4.455A1.129,1.129,0,0,0,24.5,32.01c-2.776-.874-6.086-1.538-8.412.722a.991.991,0,0,0-.3.976,1,1,0,0,0-.106.42c-.026,2.167.081,4.341.17,6.507A14.075,14.075,0,0,0,9.45,48.784a1.077,1.077,0,0,0,.024.623,1.143,1.143,0,0,0-.189.5,86.059,86.059,0,0,0-.139,10.361l.009,10.362c.006,6.892-.237,13.839.074,20.724a1.014,1.014,0,0,0,.293.688.863.863,0,0,0,.452.719A17.179,17.179,0,0,0,15.15,94.7a23.045,23.045,0,0,0,5.354-.027c1.7-.109,3.419-.173,5.112-.416a14.088,14.088,0,0,0,2.781-.639c.02.371.034.744.058,1.115a1.058,1.058,0,0,0,.208.564.915.915,0,0,0-.082,1.335c1.838,2.124,2.7,4.857,5.616,5.742a40.573,40.573,0,0,0,10.513,1.344,39.213,39.213,0,0,0,10.64-1.109,7.763,7.763,0,0,0,4.027-1.908,43.446,43.446,0,0,0,2.994-4.128.925.925,0,0,0,.175-.781,1.08,1.08,0,0,0,.191-.552c.068-1.16.091-2.327.1-3.5l.971-.2a13.643,13.643,0,0,0,1.123,3.9,12.458,12.458,0,0,0-.61,6.722c.3,2.447.9,4.48,3.425,5.381a31.516,31.516,0,0,0,7.59,1.245,33.65,33.65,0,0,0,6.626-.069c4.7,0,9.4.153,14.018-.918,2.621-.608,3.871-2.264,4.223-4.866.344-2.537.548-5.125-.512-7.49a13.722,13.722,0,0,0,.884-2.591c2.229,0,4.466-.194,6.693-.264,2.716-.086,5.432-.136,8.149-.126,2.787.01,5.572.07,8.356.162,2.879.094,5.772.349,8.653.34a1.02,1.02,0,0,0,1.047.029c1.258-.747,2.445-1.626,3.626-2.491q.861-.63,1.706-1.28a18.245,18.245,0,0,0,1.871-1.518c.009-.009.011-.02.019-.029a.961.961,0,0,0,.346-.74c.22-6.856.122-13.725.122-20.584,0-5.75.2-11.561.012-17.322.8,1.064,1.589,2.133,2.388,3.2a1.1,1.1,0,0,0,1.477.387q1.211-.822,2.417-1.646c.4-.274.808-.546,1.208-.823a6.2,6.2,0,0,0,.521-.375c.053-.045.15-.112.233-.174l.051,0c.225-.01.452-.011.676-.027a1.515,1.515,0,0,0,1.288-.591,1.056,1.056,0,0,0,0-1.087M136.746,32.92a21.914,21.914,0,0,1-2.216,1.167c-.7.321-1.4.683-2.112.963a4.991,4.991,0,0,1-1.674.215q-1.9.076-3.792.123c-6.015.158-12.031.179-18.047.21q-3.667.018-7.332,0a15.3,15.3,0,0,0-.6-3.187c11.923.378,23.85.358,35.775.509m-36.52,8.739a5.4,5.4,0,0,0,1.418-3.935q7.881.106,15.762.042c3.128-.027,6.256-.068,9.383-.144q1.892-.046,3.784-.117-2.324,3.225-4.629,6.463L123.083,48a21.894,21.894,0,0,1-2.966,4.024c-1.122.964-3.4.546-4.792.56l-4.923.049-5.169.052c-1.337.013-2.717-.051-4.066.019.037-2.256.076-4.513.075-6.769a7.2,7.2,0,0,0-1.016-4.278M88.317,11.823c-.035.806-.037,1.615-.046,2.422q-.012,1.175-.025,2.351c-1.885-.108-3.782-.116-5.663-.112-1.206,0-2.412.035-3.618.085a23.459,23.459,0,0,0-2.831.15c-.062-.327-.137-.653-.2-.98-.049-.256-.091-.513-.131-.771l-.013-.086c0-.02,0-.04-.009-.075q-.024-.195-.045-.389c-.049-.482-.081-.967-.093-1.451-.007-.242-.006-.485,0-.727,0-.112,0-.222,0-.335,0-.015,0-.055-.009-.1a20.6,20.6,0,0,1,6.626-1.079,21.192,21.192,0,0,1,6.065,1.1M65.211,36.794a12.517,12.517,0,0,1,.448-3.357,12.832,12.832,0,0,1,3.282-5.708C71.672,25,77.526,23.408,77.534,18.9c.483-.026.964-.06,1.432-.071,1.205-.028,2.412-.035,3.618-.035,1.506,0,3.007.052,4.509.109.011,4.5,5.863,6.1,8.593,8.824a12.847,12.847,0,0,1,3.282,5.708,12.6,12.6,0,0,1,.428,2.709,1.155,1.155,0,0,0,.02,1.035c0,.868-.048,2.6-.588,2.812a1.173,1.173,0,0,0-.745,1.159.847.847,0,0,0,.107,1.2c1.123,1.075.986,2.726.952,4.158-.045,1.88-.095,3.759-.127,5.64l-.1,5.641a18.909,18.909,0,0,1-.086,2.4,3.879,3.879,0,0,1-.2.823,2.043,2.043,0,0,1-.215.4l-.049,0a.716.716,0,0,0-.378.075,1.133,1.133,0,0,0-.314-.069c-4.98-.1-9.975.022-14.956.04s-9.975-.017-14.957.14a.966.966,0,0,0-.664.277.99.99,0,0,0-.847-.463l-.049,0a2.043,2.043,0,0,1-.215-.4,3.881,3.881,0,0,1-.2-.823,18.922,18.922,0,0,1-.086-2.4l-.1-5.641c-.032-1.881-.082-3.76-.127-5.64-.034-1.434-.173-3.083.952-4.158a.847.847,0,0,0,.107-1.2,1.171,1.171,0,0,0-.745-1.16c-.182-.072-.3-.318-.39-.637a1,1,0,0,0-.168-1.161c-.037-.594-.029-1.161-.03-1.4M30.454,95.186c-.022,0-.041,0-.062,0a1.145,1.145,0,0,0,.12-.449c.427-6.687.155-13.455.143-20.154q-.01-4.976-.019-9.952c0-2.908.12-5.9-.1-8.826a17.282,17.282,0,0,0,4.753,1.4,40.944,40.944,0,0,0,7.564.711,72.118,72.118,0,0,0,9.216-.351,38.026,38.026,0,0,0,7.516-1.895c.25-.087.556-.179.875-.284a.942.942,0,0,0,.023.361c.01.03.031.056.043.086-.13,2.566.04,5.207.038,7.732q0,5.32-.007,10.641,0,5.2-.007,10.393c0,3.344-.115,6.727.047,10.069-2.4.643-4.675,1.618-7.123,2.143a40.594,40.594,0,0,1-7.845.89,41.323,41.323,0,0,1-7.663-.57c-2.579-.441-4.988-1.344-7.516-1.947m2.869-45.175a35.582,35.582,0,0,0,6.989.515,86.354,86.354,0,0,0,14.95-.742,21.6,21.6,0,0,0,2.2-.417,5.687,5.687,0,0,0,2.149,3.762c.017.014.036.024.053.038-.166.072-.3.132-.357.151-.836.293-1.676.579-2.522.84a32.367,32.367,0,0,1-8.409,1.4,70.965,70.965,0,0,1-9.889-.14,31.151,31.151,0,0,1-4.856-.842,11.523,11.523,0,0,1-2.191-.765,5.043,5.043,0,0,0,1.879-3.8m29.385,4.33c-.017-.16-.037-.318-.057-.477a1.471,1.471,0,0,0-.062-1c-.339-.887-1.21-1.156-1.852-1.763A3.978,3.978,0,0,1,59.6,48.438a1.238,1.238,0,0,0-.082-.3,2.159,2.159,0,0,0,.4-.9,2.1,2.1,0,0,0-.2-1.372l.439-.494,1.712-1.928c.681-.767,1.358-1.538,2.038-2.308a3.009,3.009,0,0,0,.488.52,7.024,7.024,0,0,0-1.016,4.127c-.016,2.538.045,5.078.086,7.616.006.349,0,.7,0,1.056a6.79,6.79,0,0,0-.764-.116m-12.553-19.1c2.263-3.068,2.584-6.688,2.781-10.378q.174-3.269.267-6.54a29.868,29.868,0,0,0-.136-6.062c-.342-1.923-1.485-3.521-.772-5.483a3.688,3.688,0,0,0,.2-2.354c-.107-.394-1.023-2.047-.346-2.179a.994.994,0,0,0,.39-.161c.481.037.965.055,1.449.069q1.182.034,2.366.055a38.821,38.821,0,0,0,4.269-.029.97.97,0,0,0,.16.066c.592.116-.5,2.69-.475,3.242a5.841,5.841,0,0,0,.464,1.62,3.461,3.461,0,0,1,0,2.128,24.9,24.9,0,0,0-1.035,3.982,37.675,37.675,0,0,0-.009,4.864c.088,3.13.165,6.28.445,9.4a14.989,14.989,0,0,0,2.693,7.871,1.232,1.232,0,0,0,.194.206c-.017.189-.053.374-.062.563a14,14,0,0,0,.1,2.8c-1.366,1.471-2.707,2.966-4.057,4.451l-.937,1.03a9.112,9.112,0,0,0-1.3-.549A29.8,29.8,0,0,0,45.229,42.8c.563-3.069,3.15-5.15,4.926-7.558m-9.907,4.741.009-.015c.074-.106.006,0-.009.015m-.162.305a.129.129,0,0,0,.007-.037l0,0a1.836,1.836,0,0,1,.153-.264l.109-.108c.022-.013.053-.03.063-.037l.071-.024c.111-.029.206.021.352.109a.788.788,0,0,1,.161.109,3.6,3.6,0,0,1,.307.3,6.982,6.982,0,0,1,.844,1.21,10.724,10.724,0,0,1,.69,1.38c.01.025.017.051.027.077q-.834.082-1.659.174l-.182-.014-.248-.455a7.3,7.3,0,0,1-.673-1.48,2.2,2.2,0,0,1-.086-.64.347.347,0,0,0-.006-.068.306.306,0,0,0,.025-.068Zm-.257,5.149c.33.588.663,1.174,1.026,1.744a1.015,1.015,0,1,0,1.752-1.025c-.146-.308-.309-.61-.466-.913a1.075,1.075,0,0,0,.241-.181c.353-.027.708-.051,1.064-.076.1.591.1,1.128.256,1.755a1.1,1.1,0,0,0,1.042.793,1.083,1.083,0,0,0,1.042-.793,5.815,5.815,0,0,0-.092-1.884,32.263,32.263,0,0,1,8.141.508,14.372,14.372,0,0,1,2.834.794,1.386,1.386,0,0,0,.043,1.091c-.321.059-.66.089-.888.133a44.136,44.136,0,0,1-5.077.644,1.157,1.157,0,0,0,.543-.42,7.7,7.7,0,0,0,1.256-.183,1.028,1.028,0,0,0,.737-1.128,1.039,1.039,0,0,0-1.011-.892,8.6,8.6,0,0,0-1.34.058l-1.177.094a1.744,1.744,0,0,0-.483.038l-2.258.179a1.128,1.128,0,1,0,0,2.257c.933.024,1.867.039,2.8.056-.323.018-.647.041-.971.055-2.293.1-4.589.1-6.882.074a53.3,53.3,0,0,1-6.644-.28c-.539-.073-1.074-.168-1.6-.29a4.62,4.62,0,0,0-1.309-.258,18.691,18.691,0,0,1,2.724-1.161,17.3,17.3,0,0,1,4.7-.786m-7.458,1.975c-.012.014-.027.026-.02.05,0-.014,0-.031.02-.05M23.1,33.883c-.014,1.633-.047,5.14-.027,6.336a.95.95,0,0,0-.431.289c-.03,0-.059.009-.089.011a15.981,15.981,0,0,1-1.762.059,15.036,15.036,0,0,1-2.782-.349c-.077-1.984-.149-3.976-.324-5.952,1.447-1.38,3.608-.931,5.415-.393m-6.017,8.382a17.773,17.773,0,0,0,3.884.5,15.911,15.911,0,0,0,2.113-.113,5.182,5.182,0,0,0,.643-.122,10.381,10.381,0,0,1,5.542,5.03,25.454,25.454,0,0,1-7.7,1.381c-3.29.168-6.508.465-9.649-.523a14.131,14.131,0,0,1,5.166-6.15M27.217,91.6a12.916,12.916,0,0,1-2.224.473c-1.547.2-3.119.264-4.674.377a20.32,20.32,0,0,1-4.934.087,20.64,20.64,0,0,1-4.074-1.362c.3-6.827.062-13.715.069-20.548q0-5.057.009-10.115c0-3.286.243-6.7-.079-9.988,3.387,1.082,6.8.861,10.381.685a38.52,38.52,0,0,0,4.178-.341A21.648,21.648,0,0,0,31.1,49.207c.115.068.236.133.363.195a.978.978,0,0,0-.041.218,3.134,3.134,0,0,1-2.154,3.088,1.038,1.038,0,0,0-.651,1.441,1.139,1.139,0,0,0-.081.279,87.355,87.355,0,0,0-.2,9.953q-.013,5.1-.019,10.2c-.011,5.506-.191,11.061-.019,16.577a8.5,8.5,0,0,1-1.078.446m26.391,9.037a38.725,38.725,0,0,1-9.6.8,37.3,37.3,0,0,1-9.24-1.157,4.572,4.572,0,0,1-2.522-2.223,38.634,38.634,0,0,0,5.131,1.205,43,43,0,0,0,8.251.673,43.854,43.854,0,0,0,8.02-.874,39.312,39.312,0,0,0,5.254-1.354,12.542,12.542,0,0,1-1.13,1.388c-1,1.026-2.828,1.243-4.168,1.539m9.234-11.127c-.011-1.558-.036-3.117-.037-4.667q0-5.32-.007-10.641,0-5.2-.008-10.393c0-2.38.144-4.861.065-7.29a4.624,4.624,0,0,1,.615.146,31.229,31.229,0,0,0,.176,3.665,4.722,4.722,0,0,0,1.472,3.076,9.068,9.068,0,0,0,.6,9.726,12.015,12.015,0,0,0-.855,11.322,13.645,13.645,0,0,0-1.123,4.888l-.4.076-.495.094M98.633,91.2a11.12,11.12,0,0,1-.962,3.335c-.537,1.154-.015,1.547.316,2.7a12.749,12.749,0,0,1-.223,6.516c-.628,2.051-3.273,2.068-5.055,2.328a70.555,70.555,0,0,1-10.471.361,1.2,1.2,0,0,0-.274,0,40.012,40.012,0,0,1-11.029-.512,8.222,8.222,0,0,1-3.141-.833,3.252,3.252,0,0,1-1.152-2.518,11.951,11.951,0,0,1,.4-6.357c.414-1.04-.079-1.529-.45-2.538a10.911,10.911,0,0,1-.651-3.088,11.209,11.209,0,0,1,.231-3.15,11.515,11.515,0,0,1,.465-1.562,5.165,5.165,0,0,0,.511-1.269c.065-.825-.623-1.739-.837-2.544a9.84,9.84,0,0,1,1.68-8.44,1.1,1.1,0,0,0-.171-1.324,7.219,7.219,0,0,1-.447-8.77,1.068,1.068,0,0,0,.39.087c4.983.13,9.972.068,14.957.059,4.858-.009,9.729.081,14.587-.036A7.2,7.2,0,0,1,96.8,72.3a1.112,1.112,0,0,0-.171,1.324,9.908,9.908,0,0,1,2,5.753,9.761,9.761,0,0,1-.422,3.048c-.278.912-.924,1.643-.6,2.6A13.284,13.284,0,0,1,98.633,91.2m16.559-.958a95.424,95.424,0,0,0-14.327.611,13.564,13.564,0,0,0-1.1-6.393,12.012,12.012,0,0,0-.854-11.322,9.069,9.069,0,0,0,.6-9.728,4.573,4.573,0,0,0,1.455-2.931,40.11,40.11,0,0,0,.192-5.539c1.517.057,3.069-.048,4.571-.062l5.416-.049,5.661-.051c1.491-.014,3.079.138,4.36-.762a13.45,13.45,0,0,0,2.812-3.493l3.12-4.453q2.574-3.671,5.116-7.364c-.316,8.519-.069,17.094-.069,25.613,0,8.849-.088,17.7.108,26.55-2.8-.331-5.659-.371-8.474-.471q-4.289-.154-8.582-.155m23.717-23.881c0,6.66-.088,13.326.109,19.983-.484.352-.949.738-1.418,1.105-.534.419-1.076.832-1.637,1.249-.546.407-1.1.8-1.66,1.193.169-8.523.092-17.051.092-25.575,0-8.11.228-16.273-.023-24.388q2.32,3.12,4.654,6.231c-.392,6.7-.117,13.491-.117,20.2m9.1-18.538c-.257.2-.458.469-.733.672-.292.218-.606.412-.907.617l-1.639,1.116q-5.159-6.814-10.351-13.6c.167-.085.332-.169.494-.241A24.135,24.135,0,0,0,139.3,33.9c1.425,2.562,3.707,4.672,5.309,7.111.855,1.3,1.608,2.667,2.455,3.974.547.841,1.091,1.684,1.621,2.534a1.515,1.515,0,0,0-.677.3" transform="translate(-0.021 0)" fill="#003023"/>
    <path id="Trazado_918299" data-name="Trazado 918299" d="M19.9,36.394a1.079,1.079,0,0,0,.276.475l.217.168a1.075,1.075,0,0,0,.544.148,1.2,1.2,0,0,0,.76-.315,1.076,1.076,0,0,0,.276-1.047l-.045-.178-.1-.246a.777.777,0,0,0-.265-.288l-.226-.133a.772.772,0,0,0-.4-.088l-.274.036-.245.1a1.158,1.158,0,0,0-.473.616l-.045.178a1.09,1.09,0,0,0,0,.572" transform="translate(-0.045 -0.079)" fill="#003023"/>
    <path id="Trazado_918300" data-name="Trazado 918300" d="M54.733,5.669l.287-.046h0l.1-.012c.165-.018.329-.032.494-.046.357-.029.716-.041,1.075-.035s.716.036,1.075.072l.027,0,.023,0,.244.039a2.812,2.812,0,0,0,.769.066.992.992,0,0,0,.5-1.848,2.025,2.025,0,0,0-.708-.249c-.256-.038-.515-.072-.772-.1a10.941,10.941,0,0,0-1.157-.05,11.238,11.238,0,0,0-2.481.307.991.991,0,0,0-.686,1.208,1.01,1.01,0,0,0,1.208.685" transform="translate(-0.122 -0.008)" fill="#003023"/>
    <path id="Trazado_918301" data-name="Trazado 918301" d="M56.5,11.836a10.31,10.31,0,0,0,1.527-.158,3.942,3.942,0,0,0,1.48-.484,1.015,1.015,0,0,0,.456-1.119A1,1,0,0,0,59,9.347a13.729,13.729,0,0,0-1.446.29c-.092.018-.184.032-.275.049l-.04.006-.142.016q-.3.03-.6.038A9.716,9.716,0,0,1,55.246,9.7l-.153-.019c-.1-.017-.209-.035-.312-.054-.215-.039-.428-.079-.64-.128a.968.968,0,1,0-.515,1.867,7.816,7.816,0,0,0,2.871.468" transform="translate(-0.121 -0.021)" fill="#003023"/>
    <path id="Trazado_918302" data-name="Trazado 918302" d="M131.369,40.345c-.548,1.683-.852,3.6-1.318,5.06a43.01,43.01,0,0,0-1.6,8.375c-.213,1.856-.679,3.651-.963,5.476-.2,1.328-.041,3.174-.619,4.411-.74,1.591-1.582,1.308-3.58,1.3-3.691-.011-7.4.172-11.073-.183-2.708-.274-5.466-.64-8.183-.761a34.772,34.772,0,0,0-3.945.2,6.687,6.687,0,0,0-.354-.72,4.542,4.542,0,0,0,1.45-2.94,39.92,39.92,0,0,0,.193-5.516c1.481.051,2.991-.051,4.462-.061,1.856-.02,3.712-.031,5.567-.051s3.711-.03,5.566-.051c1.551-.02,3.215.153,4.523-.851a15.418,15.418,0,0,0,2.84-3.621q1.567-2.221,3.123-4.451c1.318-1.867,2.616-3.742,3.914-5.618" transform="translate(-0.227 -0.092)" fill="#b07556"/>
    <path id="Trazado_918303" data-name="Trazado 918303" d="M139.155,64.062a7.694,7.694,0,0,1-2.292.112c-.426-2.272-.791-4.624-1.166-6.946-.415-2.586-.415-5.182-.861-7.8-.011-.081-.031-.172-.041-.253,0-3.042-.031-6.073-.122-9.105q2.312,3.1,4.623,6.185c-.354,5.9-.183,11.885-.142,17.806" transform="translate(-0.307 -0.091)" fill="#b07556"/>
    <path id="Trazado_918304" data-name="Trazado 918304" d="M47.829,75.539a18.173,18.173,0,0,0-.816-2.438l2.4,1.157c1.162.561,2.457-.873,1.44-1.866a20.425,20.425,0,0,1-3.55-4.165c1.278.321,2.538.291,2.918-1.16a3.672,3.672,0,0,0-.726-2.661c-.639-1.145-1.248-2.313-1.959-3.415a1.166,1.166,0,0,0-2.011,1.175c.567,1.184,1.242,2.315,1.884,3.459l.056.1-1.949-.639a1.211,1.211,0,0,0-1.476,1.476A10.487,10.487,0,0,0,45.4,69.711l-.032-.015c-.828-.4-2.132.28-1.734,1.333.555,1.464,1.072,2.956,1.64,4.418a2.055,2.055,0,0,0-.813,2.089,1.258,1.258,0,0,0,.118.859,7.622,7.622,0,0,0,.85,1.272,14.06,14.06,0,0,1,1.991,9.878c-.041.2-.223.475-.136.537a5.944,5.944,0,0,1-1.323-.733,9.914,9.914,0,0,1-2.219-1.871c-1.059-1.187-2.229-3.263-.538-4.484a1.127,1.127,0,0,0-.864-2.05c-2.977.708-3.451,4.391-2.255,6.77A10.827,10.827,0,0,0,43.323,91.4c1.164.872,2.719,1.867,4.225,1.809,3.328-.126,2.892-5.014,2.613-7.218a18.892,18.892,0,0,0-.811-3.583,1.726,1.726,0,0,0,1.623-1.056c1.218-2.264-1.018-4.826-3.145-5.814M47.3,78.16c.04-.04.082-.077.118-.119a5.11,5.11,0,0,1,.657.5,3.008,3.008,0,0,1,.884,1.312,3.112,3.112,0,0,1-1.127-.825c-.17-.292-.344-.584-.531-.867" transform="translate(-0.09 -0.138)" fill="#fff"/>
  </g>
</svg>
