<svg xmlns="http://www.w3.org/2000/svg" xmlns:xlink="http://www.w3.org/1999/xlink" width="177.354" height="130.468" viewBox="0 0 177.354 130.468">
  <defs>
    <clipPath id="clip-path">
      <rect id="Rectángulo_411290" data-name="Rectángulo 411290" width="177.353" height="119.134" fill="none"/>
    </clipPath>
    <clipPath id="clip-path-2">
      <rect id="Rectángulo_411289" data-name="Rectángulo 411289" width="177.353" height="119.133" fill="none"/>
    </clipPath>
    <clipPath id="clip-path-3">
      <rect id="Rectángulo_411285" data-name="Rectángulo 411285" width="3.213" height="4.511" fill="none"/>
    </clipPath>
    <clipPath id="clip-path-4">
      <rect id="Rectángulo_411286" data-name="Rectángulo 411286" width="11.892" height="23.235" fill="none"/>
    </clipPath>
    <clipPath id="clip-path-5">
      <rect id="Rectángulo_411288" data-name="Rectángulo 411288" width="30.07" height="15.203" fill="none"/>
    </clipPath>
  </defs>
  <g id="Grupo_1161229" data-name="Grupo 1161229" transform="translate(20987.719 12312.006)">
    <path id="Trazado_918376" data-name="Trazado 918376" d="M159.083,94.22c0,7.911-35.612,14.324-79.541,14.324S0,102.131,0,94.22,35.612,79.9,79.541,79.9s79.541,6.413,79.541,14.324" transform="translate(-20987.5 -12290.083)" fill="#e8e8e8" style="mix-blend-mode: multiply;isolation: isolate"/>
    <g id="Grupo_1113812" data-name="Grupo 1113812" transform="translate(-20987.719 -12312.006)" clip-path="url(#clip-path)">
      <g id="Grupo_1113811" data-name="Grupo 1113811" transform="translate(0 0)">
        <g id="Grupo_1113810" data-name="Grupo 1113810" clip-path="url(#clip-path-2)">
          <path id="Trazado_918305" data-name="Trazado 918305" d="M156.655,83.539H12.712a5.437,5.437,0,0,1,0-10.875H156.655a5.437,5.437,0,1,1,0,10.875" transform="translate(3.458 34.542)" fill="#d19364"/>
          <path id="Trazado_918306" data-name="Trazado 918306" d="M156.655,79.069H12.712A5.44,5.44,0,0,1,7.52,75.251a5.442,5.442,0,0,0,5.192,7.057H156.655a5.438,5.438,0,0,0,5.192-7.057,5.44,5.44,0,0,1-5.192,3.818" transform="translate(3.458 35.772)" fill="#c1785b"/>
          <path id="Trazado_918307" data-name="Trazado 918307" d="M156.994,84.93H13.051a6.49,6.49,0,0,1,0-12.98H156.994c8.482.139,8.566,12.825,0,12.98M13.051,74.055c-5.714.089-5.8,8.663,0,8.77H156.994a4.385,4.385,0,1,0,0-8.77Z" transform="translate(3.119 34.203)" fill="#003023"/>
          <rect id="Rectángulo_411284" data-name="Rectángulo 411284" width="19.372" height="20.642" transform="translate(78.456 81.902)" fill="#e8e8e8"/>
          <path id="Trazado_918308" data-name="Trazado 918308" d="M72.888,77.547H53.516a1.052,1.052,0,0,1-1.052-1.053V55.853A1.052,1.052,0,0,1,53.516,54.8H72.888a1.053,1.053,0,0,1,1.053,1.053v20.64a1.053,1.053,0,0,1-1.053,1.053M54.569,75.442H71.836V56.905H54.569Z" transform="translate(24.94 26.05)" fill="#003023"/>
          <path id="Trazado_918309" data-name="Trazado 918309" d="M95.149,75.119H43.427c-5-.019-5.034-7.657,0-7.679H95.149c5,.019,5.034,7.657,0,7.679" transform="translate(18.854 32.059)" fill="#fff"/>
          <path id="Trazado_918310" data-name="Trazado 918310" d="M95.174,71.164H43.451a3.839,3.839,0,0,1-3.482-2.22A3.839,3.839,0,0,0,43.451,74.4H95.174a3.842,3.842,0,0,0,3.48-5.459,3.839,3.839,0,0,1-3.48,2.22" transform="translate(18.83 32.774)" fill="#fff"/>
          <path id="Trazado_918311" data-name="Trazado 918311" d="M95.489,76.511H43.767c-6.413-.111-6.441-9.668,0-9.785H95.489c6.413.111,6.441,9.668,0,9.785M43.767,68.831c-3.626.016-3.656,5.555,0,5.574H95.489a2.787,2.787,0,1,0,0-5.574Z" transform="translate(18.514 31.719)" fill="#003023"/>
          <path id="Trazado_918312" data-name="Trazado 918312" d="M127,81.992H30.71A11.176,11.176,0,0,1,19.534,70.815V11.891A11.176,11.176,0,0,1,30.71.714H127a11.178,11.178,0,0,1,11.177,11.177V70.815A11.178,11.178,0,0,1,127,81.992" transform="translate(9.286 0.339)" fill="#fff"/>
          <path id="Trazado_918313" data-name="Trazado 918313" d="M133.036,55.271H24.717a5.161,5.161,0,0,1-5.162-5.162c-.3,3.969.271,8.185,5.162,8.4H133.036c4.85-.212,5.481-4.405,5.162-8.4a5.162,5.162,0,0,1-5.162,5.162" transform="translate(9.265 23.82)" fill="#fff"/>
          <path id="Trazado_918314" data-name="Trazado 918314" d="M133.354,83.384H25.035a6.221,6.221,0,0,1-6.214-6.214V6.214A6.221,6.221,0,0,1,25.035,0H133.354a6.223,6.223,0,0,1,6.216,6.214V77.169a6.223,6.223,0,0,1-6.216,6.214M25.035,2.105a4.114,4.114,0,0,0-4.109,4.109V77.169a4.113,4.113,0,0,0,4.109,4.109H133.354a4.114,4.114,0,0,0,4.11-4.109V6.214a4.115,4.115,0,0,0-4.11-4.109Z" transform="translate(8.947 0)" fill="#003023"/>
          <path id="Trazado_918315" data-name="Trazado 918315" d="M138.178,67.7H19.534V7.487A6.773,6.773,0,0,1,26.307.714H131.4a6.774,6.774,0,0,1,6.773,6.773Z" transform="translate(9.286 0.339)" fill="#e8e8e8"/>
          <path id="Trazado_918316" data-name="Trazado 918316" d="M138.518,69.095c-1.08-1.042-119.9,1.992-119.694-1.05l0-62.581A5.469,5.469,0,0,1,24.284,0H134.107a5.469,5.469,0,0,1,5.463,5.463V68.043a1.052,1.052,0,0,1-1.052,1.052M20.926,66.989H137.465V5.463a3.362,3.362,0,0,0-3.358-3.358H24.284a3.362,3.362,0,0,0-3.358,3.358Z" transform="translate(8.947 0)" fill="#003023"/>
          <path id="Trazado_918317" data-name="Trazado 918317" d="M120.247,60.263H34.4A11.646,11.646,0,0,1,22.756,48.616V16A11.646,11.646,0,0,1,34.4,4.352h85.846A11.646,11.646,0,0,1,131.894,16V48.616a11.646,11.646,0,0,1-11.647,11.647" transform="translate(10.818 2.068)" fill="#9bdaf3"/>
          <path id="Trazado_918318" data-name="Trazado 918318" d="M130.092,61.654H25.236a3.2,3.2,0,0,1-3.193-3.194V6.831a3.2,3.2,0,0,1,3.193-3.193H130.092a3.2,3.2,0,0,1,3.194,3.193V58.46a3.2,3.2,0,0,1-3.194,3.194M25.236,5.743a1.088,1.088,0,0,0-1.087,1.087V58.46a1.089,1.089,0,0,0,1.087,1.089c1.081-1.031,106.184,2,105.942-1.086l0-51.632c.24-3.091-104.865-.056-105.945-1.087" transform="translate(10.479 1.729)" fill="#003023"/>
          <path id="Trazado_918319" data-name="Trazado 918319" d="M102.407,35.765c-.266,15.537-23.377,15.534-23.64,0,.266-15.537,23.377-15.534,23.64,0" transform="translate(37.444 11.462)" fill="#4fbdeb"/>
          <path id="Trazado_918320" data-name="Trazado 918320" d="M89.279,54.476c-.62-.254-.62-46.57,0-46.828.621.254.621,46.57,0,46.828" transform="translate(42.22 3.635)" fill="#fff"/>
          <path id="Trazado_918321" data-name="Trazado 918321" d="M79.614,54.476c-.62-.254-.62-46.57,0-46.828.621.254.621,46.57,0,46.828" transform="translate(37.625 3.635)" fill="#fff"/>
          <path id="Trazado_918322" data-name="Trazado 918322" d="M69.949,54.476c-.62-.254-.62-46.57,0-46.828.621.254.621,46.57,0,46.828" transform="translate(33.031 3.635)" fill="#fff"/>
          <path id="Trazado_918323" data-name="Trazado 918323" d="M60.284,54.476c-.62-.254-.62-46.57,0-46.828.621.254.621,46.57,0,46.828" transform="translate(28.436 3.635)" fill="#fff"/>
          <path id="Trazado_918324" data-name="Trazado 918324" d="M50.62,54.476c-.621-.254-.621-46.57,0-46.828.621.254.621,46.57,0,46.828" transform="translate(23.842 3.635)" fill="#fff"/>
          <path id="Trazado_918325" data-name="Trazado 918325" d="M40.955,54.476c-.62-.254-.62-46.57,0-46.828.621.254.621,46.57,0,46.828" transform="translate(19.248 3.635)" fill="#fff"/>
          <path id="Trazado_918326" data-name="Trazado 918326" d="M31.29,54.476c-.62-.254-.62-46.57,0-46.828.623.254.621,46.57,0,46.828" transform="translate(14.653 3.635)" fill="#fff"/>
          <path id="Trazado_918327" data-name="Trazado 918327" d="M119.205,39.028c-.326-.32-89.588.617-89.517-.323-.351-.354,91.452-1.17,89.517.323" transform="translate(14.113 18.141)" fill="#fff"/>
          <path id="Trazado_918328" data-name="Trazado 918328" d="M119.205,34.024c-.326-.32-89.588.617-89.517-.323-.351-.354,91.452-1.17,89.517.323" transform="translate(14.113 15.762)" fill="#fff"/>
          <path id="Trazado_918329" data-name="Trazado 918329" d="M119.205,29.02c-.326-.32-89.588.617-89.517-.323-.351-.354,91.452-1.17,89.517.323" transform="translate(14.113 13.383)" fill="#fff"/>
          <path id="Trazado_918330" data-name="Trazado 918330" d="M119.205,24.016c-.326-.32-89.588.617-89.517-.323-.351-.354,91.452-1.17,89.517.323" transform="translate(14.113 11.004)" fill="#fff"/>
          <path id="Trazado_918331" data-name="Trazado 918331" d="M119.205,19.012c-.326-.32-89.588.617-89.517-.323-.351-.354,91.452-1.17,89.517.323" transform="translate(14.113 8.626)" fill="#fff"/>
          <path id="Trazado_918332" data-name="Trazado 918332" d="M119.205,14.008c-.326-.32-89.588.617-89.517-.323-.351-.354,91.452-1.17,89.517.323" transform="translate(14.113 6.247)" fill="#fff"/>
          <path id="Trazado_918333" data-name="Trazado 918333" d="M119.205,9c-.326-.32-89.588.617-89.517-.323-.351-.354,91.452-1.17,89.517.323" transform="translate(14.113 3.868)" fill="#fff"/>
          <path id="Trazado_918334" data-name="Trazado 918334" d="M57.062,29.745a.653.653,0,0,1-.428-1.135l12-10.568a.646.646,0,0,1,.729-.087L86.4,26.895l18.233-15.148a.648.648,0,0,1,.828,1L86.9,28.168a.651.651,0,0,1-.716.075L69.151,19.31,57.49,29.583a.641.641,0,0,1-.428.162" transform="translate(26.819 5.513)" fill="#003023"/>
          <path id="Trazado_918335" data-name="Trazado 918335" d="M79.815,23.206c.043,2.964-4.613,2.964-4.569,0-.044-2.964,4.613-2.964,4.569,0" transform="translate(35.77 9.974)" fill="#acd350"/>
          <path id="Trazado_918336" data-name="Trazado 918336" d="M77.721,26.368c-3.834-.019-3.834-5.845,0-5.865,3.834.021,3.834,5.845,0,5.865m0-4.569a1.638,1.638,0,0,0,0,3.274,1.638,1.638,0,0,0,0-3.274" transform="translate(35.579 9.746)" fill="#003023"/>
          <path id="Trazado_918337" data-name="Trazado 918337" d="M92.4,12.752c.043,2.964-4.613,2.964-4.571,0-.043-2.964,4.615-2.964,4.571,0" transform="translate(41.751 5.005)" fill="#acd350"/>
          <path id="Trazado_918338" data-name="Trazado 918338" d="M90.3,15.914c-3.836-.019-3.836-5.845,0-5.865,3.834.021,3.834,5.845,0,5.865m0-4.569a1.638,1.638,0,0,0,0,3.274,1.638,1.638,0,0,0,0-3.274" transform="translate(41.561 4.777)" fill="#003023"/>
          <path id="Trazado_918339" data-name="Trazado 918339" d="M68.015,16.909c.043,2.964-4.613,2.964-4.571,0-.043-2.964,4.615-2.964,4.571,0" transform="translate(30.159 6.981)" fill="#acd350"/>
          <path id="Trazado_918340" data-name="Trazado 918340" d="M65.92,20.072c-3.834-.021-3.834-5.847,0-5.866,3.834.021,3.834,5.845,0,5.866m0-4.571a1.638,1.638,0,0,0,0,3.274,1.638,1.638,0,0,0,0-3.274" transform="translate(29.969 6.753)" fill="#003023"/>
          <path id="Trazado_918341" data-name="Trazado 918341" d="M59.487,24.174c.043,2.964-4.613,2.964-4.569,0-.044-2.964,4.613-2.964,4.569,0" transform="translate(26.106 10.435)" fill="#acd350"/>
          <path id="Trazado_918342" data-name="Trazado 918342" d="M57.393,27.337c-3.834-.021-3.834-5.847,0-5.866,3.834.021,3.834,5.845,0,5.866m0-4.571a1.638,1.638,0,0,0,0,3.274,1.638,1.638,0,0,0,0-3.274" transform="translate(25.916 10.206)" fill="#003023"/>
          <path id="Trazado_918343" data-name="Trazado 918343" d="M76.245,49.046c-.227.028-11.579-3.389-11.8-3.414a.65.65,0,0,1-.457-.512l-4.3-25.131L50.184,35.905a.65.65,0,0,1-.509.314c-.8.277-18.166-22.266-18.7-22.5C29.389,7.537,49.777,35.6,49.545,34.448l9.931-16.629a.652.652,0,0,1,1.2.223L65.2,44.5l11.226,3.274a.651.651,0,0,1-.181,1.27" transform="translate(14.683 6.098)" fill="#003023"/>
          <path id="Trazado_918344" data-name="Trazado 918344" d="M56.789,35.4c.046,3.135-4.881,3.135-4.833,0-.046-3.135,4.879-3.135,4.833,0" transform="translate(24.698 15.71)" fill="#8c8fec"/>
          <path id="Trazado_918345" data-name="Trazado 918345" d="M54.562,38.694c-4.007-.021-4.007-6.108,0-6.129,4.007.021,4.007,6.108,0,6.129m0-4.833c-2.294-.032-2.294,3.57,0,3.538,2.294.032,2.294-3.57,0-3.538" transform="translate(24.509 15.48)" fill="#003023"/>
          <path id="Trazado_918346" data-name="Trazado 918346" d="M65.012,37.727c.046,3.135-4.881,3.135-4.833,0-.046-3.135,4.879-3.135,4.833,0" transform="translate(28.607 16.816)" fill="#8c8fec"/>
          <path id="Trazado_918347" data-name="Trazado 918347" d="M62.785,41.021c-4.007-.021-4.007-6.108,0-6.129,4.007.021,4.007,6.108,0,6.129m0-4.833c-2.294-.032-2.294,3.57,0,3.538,2.294.032,2.294-3.57,0-3.538" transform="translate(28.418 16.586)" fill="#003023"/>
          <path id="Trazado_918348" data-name="Trazado 918348" d="M54,17.522c.046,3.135-4.881,3.135-4.833,0-.046-3.135,4.879-3.135,4.833,0" transform="translate(23.373 7.211)" fill="#8c8fec"/>
          <path id="Trazado_918349" data-name="Trazado 918349" d="M51.774,20.816c-4.007-.021-4.007-6.108,0-6.129,4.007.021,4.007,6.108,0,6.129m0-4.833c-2.294-.032-2.294,3.57,0,3.538,2.294.032,2.294-3.57,0-3.538" transform="translate(23.183 6.981)" fill="#003023"/>
          <path id="Trazado_918350" data-name="Trazado 918350" d="M34.32,13.914c.046,3.135-4.881,3.135-4.833,0-.046-3.135,4.879-3.135,4.833,0" transform="translate(14.017 5.496)" fill="#8c8fec"/>
          <path id="Trazado_918351" data-name="Trazado 918351" d="M32.093,17.208c-4.007-.021-4.007-6.108,0-6.129,4.007.021,4.007,6.108,0,6.129m0-4.833c-2.294-.032-2.294,3.57,0,3.538,2.294.032,2.294-3.57,0-3.538" transform="translate(13.828 5.266)" fill="#003023"/>
          <path id="Trazado_918352" data-name="Trazado 918352" d="M46.785,28.837c.046,3.135-4.881,3.135-4.833,0-.046-3.135,4.879-3.135,4.833,0" transform="translate(19.943 12.59)" fill="#8c8fec"/>
          <path id="Trazado_918353" data-name="Trazado 918353" d="M44.558,32.131c-4.007-.021-4.007-6.108,0-6.129,4.007.021,4.007,6.108,0,6.129m0-4.833c-2.294-.032-2.294,3.57,0,3.538,2.294.032,2.294-3.57,0-3.538" transform="translate(19.753 12.36)" fill="#003023"/>
          <path id="Trazado_918354" data-name="Trazado 918354" d="M1.117,58.116,9.052,68.8a2.014,2.014,0,0,0,3.265-.046L19.794,58.07A2.013,2.013,0,0,0,18.144,54.9H16.532V30.187a2.013,2.013,0,0,0-2.014-2.012h-8.3A2.013,2.013,0,0,0,4.21,30.187V54.9H2.733a2.013,2.013,0,0,0-1.616,3.213" transform="translate(0.341 13.393)" fill="#8c8fec"/>
          <g id="Grupo_1113803" data-name="Grupo 1113803" transform="translate(13.502 72.546)" opacity="0.2" style="isolation: isolate">
            <g id="Grupo_1113802" data-name="Grupo 1113802">
              <g id="Grupo_1113801" data-name="Grupo 1113801" clip-path="url(#clip-path-3)">
                <path id="Trazado_918355" data-name="Trazado 918355" d="M9.809,50.878c1.655-2.917,3.6-1.8,1.9,1.1-1.654,2.917-3.6,1.8-1.9-1.1" transform="translate(-9.152 -49.172)"/>
              </g>
            </g>
          </g>
          <path id="Trazado_918356" data-name="Trazado 918356" d="M11.454,55.138c-1.34,2.182-2.24,4.854-5.052,5.081a2.011,2.011,0,0,0,3.21-.114L17.09,49.424A2.014,2.014,0,0,0,16.08,46.36c-.19.389.09,1.542-.125,1.93-1.508,2.514-2.778,4.336-4.5,6.849" transform="translate(3.043 22.038)" fill="#8c8fec"/>
          <g id="Grupo_1113806" data-name="Grupo 1113806" transform="translate(4.549 41.494)" opacity="0.2" style="isolation: isolate">
            <g id="Grupo_1113805" data-name="Grupo 1113805">
              <g id="Grupo_1113804" data-name="Grupo 1113804" clip-path="url(#clip-path-4)">
                <path id="Trazado_918357" data-name="Trazado 918357" d="M10.088,34.151a28.494,28.494,0,0,1,4.888-5.182c-.652-1.475-8.656-.513-9.879-.772A2.013,2.013,0,0,0,3.083,30.21V51.359a37.5,37.5,0,0,1,7.005-17.209" transform="translate(-3.084 -28.124)" fill="#fff"/>
              </g>
            </g>
          </g>
          <path id="Trazado_918358" data-name="Trazado 918358" d="M11.006,71c-2.485.64-8.92-10.637-10.394-11.918A3.11,3.11,0,0,1,3.5,54.189V30.525a3.069,3.069,0,0,1,3.066-3.064h8.3a3.069,3.069,0,0,1,3.066,3.064V54.189A3.129,3.129,0,0,1,21,59.012c-1.521,1.4-7.338,12.579-9.99,11.989M3.073,56.294a.942.942,0,0,0-.77,1.533C13.495,71.873,8.384,72.721,19.271,57.8a.942.942,0,0,0-.786-1.511c-.868-.041-2.685.317-2.666-1.053-.519-.466,1.192-26.656-.959-25.676h-8.3a.96.96,0,0,0-.96.959V55.241c.03,1.315-1.685,1.04-2.529,1.053" transform="translate(0 13.054)" fill="#003023"/>
          <path id="Trazado_918359" data-name="Trazado 918359" d="M125.334,12.972l-7.9-10.637a2,2,0,0,0-3.252.046l-7.446,10.637a2,2,0,0,0,1.642,3.154h1.607V40.787a2,2,0,0,0,2.005,2h8.262a2,2,0,0,0,2.005-2V16.172h1.469a2,2,0,0,0,1.61-3.2" transform="translate(50.564 0.725)" fill="#a2e247"/>
          <path id="Trazado_918360" data-name="Trazado 918360" d="M111.469,8.331c-1.648,2.9-3.582,1.788-1.891-1.092,1.648-2.905,3.582-1.788,1.891,1.092" transform="translate(51.779 2.632)" fill="#e2efc2"/>
          <path id="Trazado_918361" data-name="Trazado 918361" d="M112.348,7.328c1.335-2.173,2.229-4.833,5.03-5.061a2.005,2.005,0,0,0-3.2.112l-7.445,10.639a2.006,2.006,0,0,0,1.006,3.053c.189-.389-.09-1.537.124-1.922,1.5-2.5,2.766-4.318,4.484-6.821" transform="translate(50.564 0.725)" fill="#bddc74"/>
          <path id="Trazado_918362" data-name="Trazado 918362" d="M113.977,31a28.516,28.516,0,0,1-4.869,5.161c.649,1.469,8.621.51,9.839.767a2,2,0,0,0,2.005-2V13.861A37.336,37.336,0,0,1,113.977,31" transform="translate(51.867 6.589)" fill="#8cc43d"/>
          <path id="Trazado_918363" data-name="Trazado 918363" d="M120.59,44.192h-8.262a3.06,3.06,0,0,1-3.057-3.057V17.573a3.12,3.12,0,0,1-3.058-4.811C107.714,11.369,113.519.28,116.12.82c2.548-.667,8.894,10.571,10.4,11.872a3.1,3.1,0,0,1-2.873,4.881V41.135a3.06,3.06,0,0,1-3.057,3.057M116.164,2.926c-.429-.785-7.973,10.941-8.227,11.043a.93.93,0,0,0-.065.986c.55,1.208,3.5-.339,3.5,1.565.516.456-1.183,26.551.952,25.567h8.262a.952.952,0,0,0,.952-.952V16.52a1.054,1.054,0,0,1,1.053-1.053h1.471a.933.933,0,0,0,.764-1.518c-.261-.1-8.261-11.769-8.666-11.023" transform="translate(50.223 0.376)" fill="#003023"/>
          <path id="Trazado_918364" data-name="Trazado 918364" d="M109.156,75.615H89.225c-.027-13.4,19.962-13.4,19.931,0" transform="translate(42.415 31.167)" fill="#fff"/>
          <path id="Trazado_918365" data-name="Trazado 918365" d="M109.5,77H89.567a1.1,1.1,0,0,1-1.052-1.285c.26-14.481,21.778-14.476,22.035,0A1.1,1.1,0,0,1,109.5,77M90.658,74.9h17.75c-.909-10.59-16.844-10.584-17.75,0" transform="translate(42.073 30.832)" fill="#003023"/>
          <rect id="Rectángulo_411287" data-name="Rectángulo 411287" width="4.759" height="14.144" transform="translate(134.425 55.988) rotate(-45)" fill="#fff"/>
          <path id="Trazado_918366" data-name="Trazado 918366" d="M101.454,50.426a1.052,1.052,0,0,1-.745-.307l-10-10a1.056,1.056,0,0,1,0-1.49l3.365-3.364a1.052,1.052,0,0,1,1.489,0l10,10a1.051,1.051,0,0,1,.308.744c.217.648-3.367,3.64-3.674,4.11a1.049,1.049,0,0,1-.744.307M92.941,39.372l8.513,8.513,1.877-1.877L94.817,37.5Z" transform="translate(42.973 16.616)" fill="#003023"/>
          <path id="Trazado_918367" data-name="Trazado 918367" d="M113.756,58.312h0a3.9,3.9,0,0,0,0-5.515L100.9,39.945,95.389,45.46l12.852,12.852a3.9,3.9,0,0,0,5.515,0" transform="translate(45.345 18.988)" fill="#85e5aa"/>
          <path id="Trazado_918368" data-name="Trazado 918368" d="M97.165,42.479l12.479,12.479a3.9,3.9,0,0,0,5.142.328,3.9,3.9,0,0,1-6.543,1.822L95.389,44.255Z" transform="translate(45.345 20.193)" fill="#6bb788"/>
          <path id="Trazado_918369" data-name="Trazado 918369" d="M111.346,60.843a4.937,4.937,0,0,1-3.5-1.447L94.992,46.544a1.06,1.06,0,0,1-.308-.745c-.477-.391,5.655-5.924,5.823-6.259a1.052,1.052,0,0,1,1.489,0l12.853,12.852a4.949,4.949,0,0,1-3.5,8.451M97.226,45.8l12.108,12.108a2.847,2.847,0,1,0,4.026-4.026L101.252,41.773Z" transform="translate(44.997 18.649)" fill="#003023"/>
          <path id="Trazado_918370" data-name="Trazado 918370" d="M92.2,51.968c-19.941-.357-19.938-29.991,0-30.347,19.941.357,19.938,29.993,0,30.347m0-25.326c-13.343.239-13.34,20.068,0,20.306,13.343-.239,13.34-20.068,0-20.306" transform="translate(36.722 10.278)" fill="#cfb2ff"/>
          <g id="Grupo_1113809" data-name="Grupo 1113809" transform="translate(113.753 46.794)" opacity="0.2" style="isolation: isolate">
            <g id="Grupo_1113808" data-name="Grupo 1113808">
              <g id="Grupo_1113807" data-name="Grupo 1113807" clip-path="url(#clip-path-5)">
                <path id="Trazado_918371" data-name="Trazado 918371" d="M100.655,41.062c-9.6,5.482-19.161-.42-23.55-9.344-.413,18.289,26.756,20.961,30.065,3.169a20.686,20.686,0,0,1-6.515,6.174" transform="translate(-77.101 -31.717)"/>
              </g>
            </g>
          </g>
          <path id="Trazado_918372" data-name="Trazado 918372" d="M92.539,53.36c-21.325-.382-21.321-32.073,0-32.452,21.325.382,21.321,32.073,0,32.452m0-30.347c-18.557.333-18.554,27.911,0,28.242,18.557-.333,18.554-27.911,0-28.242m0,25.326c-14.726-.264-14.724-22.148,0-22.411,14.727.264,14.724,22.15,0,22.411m0-20.306c-11.959.214-11.958,17.988,0,18.2,11.959-.214,11.958-17.988,0-18.2" transform="translate(36.388 9.939)" fill="#003023"/>
          <path id="Trazado_918373" data-name="Trazado 918373" d="M89.458,38.4c-2.908-1.5-5.168-3.384-5.615-6.84-.162-1.26-2.071-1.354-2.042,0-.2,7.464,10.214,11.123,7.657,6.84" transform="translate(38.885 14.535)" fill="#eaf7fd"/>
          <path id="Trazado_918374" data-name="Trazado 918374" d="M88.486,28.145c2.077,1.076,3.693,2.418,4.012,4.888.117.9,1.48.968,1.459,0,.187-5.236-7.279-8-5.471-4.888" transform="translate(41.929 12.758)" fill="#eaf7fd"/>
          <path id="Trazado_918375" data-name="Trazado 918375" d="M70.8,32.9c.592.794,1.363,2.847,2.647,1.745,1.267-.757-.434-2.281-.845-3.023.63-.146,2.341-.479,1.356-1.41L69.476,27.3a.66.66,0,0,0-1.019.584l.26,5.522c.273,1.366,1.6-.1,2.086-.5" transform="translate(32.542 12.924)" fill="#003023"/>
        </g>
      </g>
    </g>
  </g>
</svg>
