<svg id="inspeccion" xmlns="http://www.w3.org/2000/svg" width="103.281" height="98.116" viewBox="0 0 103.281 98.116">
  <g id="Grupo_1160817" data-name="Grupo 1160817" transform="translate(0.016 96.541)">
    <g id="Grupo_1160814" data-name="Grupo 1160814" transform="translate(101.165)">
      <path id="Trazado_1015511" data-name="Trazado 1015511" d="M64.522,63.534H64a.787.787,0,0,1,0-1.574h.525a.787.787,0,0,1,.787.787A.767.767,0,0,1,64.522,63.534Z" transform="translate(-63.21 -61.96)"/>
    </g>
    <g id="Grupo_1160815" data-name="Grupo 1160815" transform="translate(2.951)">
      <path id="Trazado_1015512" data-name="Trazado 1015512" d="M99.835,63.534H4.1a.787.787,0,1,1,0-1.574H99.835a.787.787,0,0,1,.787.787A.777.777,0,0,1,99.835,63.534Z" transform="translate(-3.31 -61.96)"/>
    </g>
    <g id="Grupo_1160816" data-name="Grupo 1160816">
      <path id="Trazado_1015513" data-name="Trazado 1015513" d="M2.871,63.534H2.3a.787.787,0,1,1,0-1.574h.574a.787.787,0,0,1,.787.787A.777.777,0,0,1,2.871,63.534Z" transform="translate(-1.51 -61.96)"/>
    </g>
  </g>
  <g id="Grupo_1160868" data-name="Grupo 1160868" transform="translate(15.052 0)">
    <g id="Grupo_1160859" data-name="Grupo 1160859" transform="translate(12.838 10.084)">
      <g id="Grupo_1160858" data-name="Grupo 1160858">
        <g id="Grupo_1160831" data-name="Grupo 1160831">
          <g id="Grupo_1160830" data-name="Grupo 1160830">
            <g id="Grupo_1160829" data-name="Grupo 1160829">
              <g id="Grupo_1160828" data-name="Grupo 1160828">
                <g id="Grupo_1160818" data-name="Grupo 1160818">
                  <path id="Trazado_1015514" data-name="Trazado 1015514" d="M88.358,13.559V92.146a4.325,4.325,0,0,1-4.329,4.329H22.839a4.325,4.325,0,0,1-4.329-4.329V13.559A4.325,4.325,0,0,1,22.839,9.23H84.03a4.346,4.346,0,0,1,4.329,4.329Z" transform="translate(-18.51 -9.23)" fill="#ffca6b"/>
                </g>
                <g id="Grupo_1160819" data-name="Grupo 1160819" transform="translate(0 0.016)">
                  <path id="Trazado_1015515" data-name="Trazado 1015515" d="M88.358,13.552V92.14a4.325,4.325,0,0,1-4.329,4.329H22.839A4.325,4.325,0,0,1,18.51,92.14V90.385c33.629-.918,63.782-28.464,63.782-62.306V9.24h1.722a4.325,4.325,0,0,1,4.345,4.312Z" transform="translate(-18.51 -9.24)" fill="#f9b84e"/>
                </g>
                <g id="Grupo_1160820" data-name="Grupo 1160820" transform="translate(6.067 6.067)">
                  <path id="Trazado_1015516" data-name="Trazado 1015516" d="M22.21,12.93H79.941V88.058H22.21Z" transform="translate(-22.21 -12.93)" fill="#fff"/>
                </g>
                <g id="Grupo_1160821" data-name="Grupo 1160821" transform="translate(6.067 6.067)">
                  <path id="Trazado_1015517" data-name="Trazado 1015517" d="M22.21,12.93H79.941V88.058H22.21Z" transform="translate(-22.21 -12.93)" fill="#fff"/>
                </g>
                <g id="Grupo_1160822" data-name="Grupo 1160822" transform="translate(6.067 33.416)">
                  <path id="Trazado_1015518" data-name="Trazado 1015518" d="M79.941,29.61V77.389H22.21V68.8c51.157-.016,57.584-32.924,57.731-39.187Z" transform="translate(-22.21 -29.61)" fill="#f1f3f6"/>
                </g>
                <g id="Grupo_1160823" data-name="Grupo 1160823" transform="translate(5.28 5.28)">
                  <path id="Trazado_1015519" data-name="Trazado 1015519" d="M80.249,89.152H22.517a.784.784,0,0,1-.787-.787V13.237a.787.787,0,0,1,.787-.787H80.249a.787.787,0,0,1,.787.787V88.365A.787.787,0,0,1,80.249,89.152ZM23.3,87.561H79.445V14.024H23.3Z" transform="translate(-21.73 -12.45)"/>
                </g>
                <g id="Grupo_1160824" data-name="Grupo 1160824" transform="translate(51.075 68.471)">
                  <path id="Trazado_1015520" data-name="Trazado 1015520" d="M62.384,50.99H49.66V63.714Z" transform="translate(-49.66 -50.99)" fill="#c6d0e0"/>
                </g>
                <g id="Grupo_1160827" data-name="Grupo 1160827" transform="translate(20.709 12.642)">
                  <g id="Grupo_1160825" data-name="Grupo 1160825" transform="translate(0.787 0.771)">
                    <path id="Trazado_1015521" data-name="Trazado 1015521" d="M31.62,17.41H58.494v5.739H31.62Z" transform="translate(-31.62 -17.41)" fill="#ff9a9a"/>
                  </g>
                  <g id="Grupo_1160826" data-name="Grupo 1160826">
                    <path id="Trazado_1015522" data-name="Trazado 1015522" d="M58.784,24.253H31.927a.787.787,0,0,1-.787-.787V17.727a.787.787,0,0,1,.787-.787H58.784a.787.787,0,1,1,0,1.574H32.714v4.148H58V21.416a.787.787,0,1,1,1.574,0v2.033a.781.781,0,0,1-.787.8Z" transform="translate(-31.14 -16.94)"/>
                  </g>
                </g>
              </g>
            </g>
          </g>
        </g>
        <g id="Grupo_1160832" data-name="Grupo 1160832" transform="translate(50.271 67.684)">
          <path id="Trazado_1015523" data-name="Trazado 1015523" d="M49.973,64.824a.71.71,0,0,1-.312-.066.805.805,0,0,1-.492-.738V51.3a.787.787,0,0,1,.787-.787H62.681a.805.805,0,0,1,.738.492.785.785,0,0,1-.18.869L50.531,64.578a.734.734,0,0,1-.557.246ZM50.76,52.1v10l10-10Z" transform="translate(-49.17 -50.51)"/>
        </g>
        <g id="Grupo_1160845" data-name="Grupo 1160845" transform="translate(12.838 42.757)">
          <g id="Grupo_1160844" data-name="Grupo 1160844" transform="translate(0 0)">
            <g id="Grupo_1160833" data-name="Grupo 1160833" transform="translate(0.787 0.808)">
              <path id="Trazado_1015524" data-name="Trazado 1015524" d="M26.82,35.8H37.035V46.015H26.82Z" transform="translate(-26.82 -35.8)" fill="#b9dd53"/>
            </g>
            <g id="Grupo_1160834" data-name="Grupo 1160834" transform="translate(0.787 0.808)">
              <path id="Trazado_1015525" data-name="Trazado 1015525" d="M26.82,35.8H37.035V46.015H26.82Z" transform="translate(-26.82 -35.8)" fill="#d5dce5"/>
            </g>
            <g id="Grupo_1160835" data-name="Grupo 1160835" transform="translate(0.787 0.808)">
              <path id="Trazado_1015526" data-name="Trazado 1015526" d="M37.035,35.8V46.015H26.82V44.474A8.752,8.752,0,0,0,35.494,35.8Z" transform="translate(-26.82 -35.8)" fill="#c6d0e0"/>
            </g>
            <g id="Grupo_1160836" data-name="Grupo 1160836" transform="translate(0 0.02)">
              <path id="Trazado_1015527" data-name="Trazado 1015527" d="M37.342,47.109H27.127a.787.787,0,0,1-.787-.787V36.107a.787.787,0,0,1,.787-.787H37.342a.787.787,0,0,1,.787.787V46.322A.777.777,0,0,1,37.342,47.109Zm-9.428-1.574h8.624V36.91H27.914Z" transform="translate(-26.34 -35.32)"/>
            </g>
            <g id="Grupo_1160837" data-name="Grupo 1160837" transform="translate(3.128)">
              <path id="Trazado_1015528" data-name="Trazado 1015528" d="M31.006,43.329a.781.781,0,0,1-.557-.23l-1.968-1.968A.8.8,0,0,1,29.612,40l1.41,1.41,5.87-5.87a.8.8,0,0,1,1.131,1.131L31.6,43.1a.89.89,0,0,1-.59.23Z" transform="translate(-28.247 -35.308)"/>
            </g>
            <g id="Grupo_1160838" data-name="Grupo 1160838" transform="translate(23.594 0.02)">
              <path id="Trazado_1015529" data-name="Trazado 1015529" d="M60.52,36.894h-19a.787.787,0,0,1,0-1.574h19a.787.787,0,0,1,.787.787A.777.777,0,0,1,60.52,36.894Z" transform="translate(-40.73 -35.32)"/>
            </g>
            <g id="Grupo_1160839" data-name="Grupo 1160839" transform="translate(41.204 5.136)">
              <path id="Trazado_1015530" data-name="Trazado 1015530" d="M53.651,40.014H52.257a.787.787,0,1,1,0-1.574h1.394a.787.787,0,0,1,.787.787A.777.777,0,0,1,53.651,40.014Z" transform="translate(-51.47 -38.44)"/>
            </g>
            <g id="Grupo_1160840" data-name="Grupo 1160840" transform="translate(22.594 5.136)">
              <path id="Trazado_1015531" data-name="Trazado 1015531" d="M56.287,40.014H40.907a.787.787,0,1,1,0-1.574h15.38a.787.787,0,1,1,0,1.574Z" transform="translate(-40.12 -38.44)"/>
            </g>
            <g id="Grupo_1160841" data-name="Grupo 1160841" transform="translate(15.921 5.136)">
              <path id="Trazado_1015532" data-name="Trazado 1015532" d="M39.46,40.014H36.837a.787.787,0,1,1,0-1.574H39.46a.787.787,0,0,1,.787.787A.8.8,0,0,1,39.46,40.014Z" transform="translate(-36.05 -38.44)"/>
            </g>
            <g id="Grupo_1160842" data-name="Grupo 1160842" transform="translate(36.695 10.235)">
              <path id="Trazado_1015533" data-name="Trazado 1015533" d="M55.41,43.124h-5.9a.787.787,0,0,1,0-1.574h5.919a.787.787,0,1,1-.016,1.574Z" transform="translate(-48.72 -41.55)"/>
            </g>
            <g id="Grupo_1160843" data-name="Grupo 1160843" transform="translate(15.904 10.235)">
              <path id="Trazado_1015534" data-name="Trazado 1015534" d="M53.42,43.124H36.827a.787.787,0,0,1,0-1.574H53.42a.787.787,0,0,1,.787.787A.767.767,0,0,1,53.42,43.124Z" transform="translate(-36.04 -41.55)"/>
            </g>
          </g>
        </g>
        <g id="Grupo_1160857" data-name="Grupo 1160857" transform="translate(12.838 62.597)">
          <g id="Grupo_1160856" data-name="Grupo 1160856">
            <g id="Grupo_1160846" data-name="Grupo 1160846" transform="translate(0.787 0.808)">
              <path id="Trazado_1015535" data-name="Trazado 1015535" d="M26.82,47.9H37.035V58.115H26.82Z" transform="translate(-26.82 -47.9)" fill="#b9dd53"/>
            </g>
            <g id="Grupo_1160847" data-name="Grupo 1160847" transform="translate(0.787 0.808)">
              <path id="Trazado_1015536" data-name="Trazado 1015536" d="M26.82,47.9H37.035V58.115H26.82Z" transform="translate(-26.82 -47.9)" fill="#726ad3"/>
            </g>
            <g id="Grupo_1160848" data-name="Grupo 1160848" transform="translate(0.787 0.808)">
              <path id="Trazado_1015537" data-name="Trazado 1015537" d="M37.035,47.9V58.115H26.82V56.574A8.752,8.752,0,0,0,35.494,47.9Z" transform="translate(-26.82 -47.9)" fill="#564dc6"/>
            </g>
            <g id="Grupo_1160849" data-name="Grupo 1160849" transform="translate(0 0.02)">
              <path id="Trazado_1015538" data-name="Trazado 1015538" d="M37.342,59.225H27.127a.787.787,0,0,1-.787-.787V48.207a.787.787,0,0,1,.787-.787H37.342a.787.787,0,0,1,.787.787V58.422a.791.791,0,0,1-.787.8Zm-9.428-1.59h8.624V49.01H27.914Z" transform="translate(-26.34 -47.42)"/>
            </g>
            <g id="Grupo_1160850" data-name="Grupo 1160850" transform="translate(3.128)">
              <path id="Trazado_1015539" data-name="Trazado 1015539" d="M31.006,55.429a.781.781,0,0,1-.557-.23l-1.968-1.968A.8.8,0,1,1,29.612,52.1l1.41,1.41,5.87-5.87a.8.8,0,0,1,1.131,1.131L31.6,55.2a.89.89,0,0,1-.59.23Z" transform="translate(-28.247 -47.408)"/>
            </g>
            <g id="Grupo_1160851" data-name="Grupo 1160851" transform="translate(23.594 0.02)">
              <path id="Trazado_1015540" data-name="Trazado 1015540" d="M60.52,48.994h-19a.787.787,0,0,1,0-1.574h19a.787.787,0,0,1,.787.787A.767.767,0,0,1,60.52,48.994Z" transform="translate(-40.73 -47.42)"/>
            </g>
            <g id="Grupo_1160852" data-name="Grupo 1160852" transform="translate(41.204 5.136)">
              <path id="Trazado_1015541" data-name="Trazado 1015541" d="M53.651,52.114H52.257a.787.787,0,1,1,0-1.574h1.394a.787.787,0,0,1,.787.787A.777.777,0,0,1,53.651,52.114Z" transform="translate(-51.47 -50.54)"/>
            </g>
            <g id="Grupo_1160853" data-name="Grupo 1160853" transform="translate(22.594 5.136)">
              <path id="Trazado_1015542" data-name="Trazado 1015542" d="M52.729,52.114H40.907a.787.787,0,1,1,0-1.574H52.729a.787.787,0,0,1,.787.787A.8.8,0,0,1,52.729,52.114Z" transform="translate(-40.12 -50.54)"/>
            </g>
            <g id="Grupo_1160854" data-name="Grupo 1160854" transform="translate(15.921 5.136)">
              <path id="Trazado_1015543" data-name="Trazado 1015543" d="M39.46,52.114H36.837a.787.787,0,1,1,0-1.574H39.46a.787.787,0,0,1,.787.787A.8.8,0,0,1,39.46,52.114Z" transform="translate(-36.05 -50.54)"/>
            </g>
            <g id="Grupo_1160855" data-name="Grupo 1160855" transform="translate(15.904 10.252)">
              <path id="Trazado_1015544" data-name="Trazado 1015544" d="M53.42,55.234H36.827a.787.787,0,0,1,0-1.574H53.42a.787.787,0,0,1,.787.787A.777.777,0,0,1,53.42,55.234Z" transform="translate(-36.04 -53.66)"/>
            </g>
          </g>
        </g>
      </g>
    </g>
    <g id="Grupo_1160866" data-name="Grupo 1160866">
      <g id="Grupo_1160865" data-name="Grupo 1160865">
        <g id="Grupo_1160860" data-name="Grupo 1160860" transform="translate(4.488 4.472)">
          <path id="Trazado_1015545" data-name="Trazado 1015545" d="M17.865,11.058a.81.81,0,0,1-.557-.23L13.651,7.172a.8.8,0,1,1,1.131-1.131L18.439,9.7a.8.8,0,0,1,0,1.131A.779.779,0,0,1,17.865,11.058Z" transform="translate(-13.417 -5.807)"/>
        </g>
        <g id="Grupo_1160863" data-name="Grupo 1160863">
          <g id="Grupo_1160861" data-name="Grupo 1160861" transform="translate(0 11.133)">
            <path id="Trazado_1015546" data-name="Trazado 1015546" d="M11.467,11.444a.787.787,0,1,1,0-1.574h5.165a.787.787,0,0,1,.787.787.8.8,0,0,1-.787.787Z" transform="translate(-10.68 -9.87)"/>
          </g>
          <g id="Grupo_1160862" data-name="Grupo 1160862" transform="translate(11.133)">
            <path id="Trazado_1015547" data-name="Trazado 1015547" d="M18.257,9.819a.787.787,0,0,1-.787-.787V3.867a.787.787,0,1,1,1.574,0V9.032A.777.777,0,0,1,18.257,9.819Z" transform="translate(-17.47 -3.08)"/>
          </g>
        </g>
        <g id="Grupo_1160864" data-name="Grupo 1160864" transform="translate(1.144 1.127)">
          <path id="Trazado_1015548" data-name="Trazado 1015548" d="M13.021,6.215a.81.81,0,0,1-.557-.23l-.853-.853A.8.8,0,0,1,12.742,4l.836.836a.8.8,0,0,1,0,1.131A.76.76,0,0,1,13.021,6.215Z" transform="translate(-11.378 -3.767)"/>
        </g>
      </g>
    </g>
    <g id="Grupo_1160867" data-name="Grupo 1160867" transform="translate(12.051 9.297)">
      <path id="Trazado_1015549" data-name="Trazado 1015549" d="M84.337,97.569H23.146a5.122,5.122,0,0,1-5.116-5.116V13.866A5.122,5.122,0,0,1,23.146,8.75H84.337a5.122,5.122,0,0,1,5.116,5.116V92.453A5.122,5.122,0,0,1,84.337,97.569ZM23.146,10.34a3.52,3.52,0,0,0-3.525,3.525V92.453a3.52,3.52,0,0,0,3.525,3.525H84.337a3.52,3.52,0,0,0,3.525-3.525V13.866a3.53,3.53,0,0,0-3.525-3.525Z" transform="translate(-18.03 -8.75)"/>
    </g>
  </g>
  <g id="Grupo_1160869" data-name="Grupo 1160869" transform="translate(50.124 8.411)">
    <path id="Trazado_1015550" data-name="Trazado 1015550" d="M57.468,9.932v5.985a1.721,1.721,0,0,1-1.722,1.722H33.792a1.721,1.721,0,0,1-1.722-1.722V9.932A1.721,1.721,0,0,1,33.792,8.21H55.73a1.715,1.715,0,0,1,1.738,1.722Z" transform="translate(-32.07 -8.21)" fill="#f1f3f6"/>
  </g>
  <g id="Grupo_1160870" data-name="Grupo 1160870" transform="translate(50.124 11.379)">
    <path id="Trazado_1015551" data-name="Trazado 1015551" d="M57.468,10.02v4.722a1.721,1.721,0,0,1-1.722,1.722H33.792a1.721,1.721,0,0,1-1.722-1.722V13.234c22.791,0,25.4-3.214,25.4-3.214Z" transform="translate(-32.07 -10.02)" fill="#c6d0e0"/>
  </g>
  <g id="Grupo_1160871" data-name="Grupo 1160871" transform="translate(49.32 7.608)">
    <path id="Trazado_1015552" data-name="Trazado 1015552" d="M56.043,18.755H34.105A2.526,2.526,0,0,1,31.58,16.23V10.245A2.526,2.526,0,0,1,34.105,7.72H56.043a2.526,2.526,0,0,1,2.525,2.525V16.23A2.537,2.537,0,0,1,56.043,18.755ZM34.105,9.31a.945.945,0,0,0-.935.935V16.23a.945.945,0,0,0,.935.935H56.043a.945.945,0,0,0,.935-.935V10.245a.945.945,0,0,0-.935-.935Z" transform="translate(-31.58 -7.72)"/>
  </g>
  <g id="Grupo_1160872" data-name="Grupo 1160872" transform="translate(55.223 5.001)">
    <path id="Trazado_1015553" data-name="Trazado 1015553" d="M50.363,9.524H35.18A3.4,3.4,0,0,1,38.574,6.13h8.379a3.4,3.4,0,0,1,3.41,3.394Z" transform="translate(-35.18 -6.13)" fill="#c6d0e0"/>
  </g>
  <g id="Grupo_1160873" data-name="Grupo 1160873" transform="translate(54.436 4.214)">
    <path id="Trazado_1015554" data-name="Trazado 1015554" d="M50.67,10.634H35.487a.787.787,0,0,1-.787-.787,4.206,4.206,0,0,1,4.2-4.2h8.379a4.206,4.206,0,0,1,4.2,4.2.812.812,0,0,1-.8.787ZM36.405,9.044H49.752a2.615,2.615,0,0,0-2.476-1.8H38.9A2.62,2.62,0,0,0,36.405,9.044Z" transform="translate(-34.7 -5.65)"/>
  </g>
  <g id="Grupo_1160893" data-name="Grupo 1160893" transform="translate(0 22.692)">
    <g id="Grupo_1160879" data-name="Grupo 1160879" transform="translate(53.55)">
      <g id="Grupo_1160874" data-name="Grupo 1160874" transform="translate(0.787 11.723)">
        <path id="Trazado_1015555" data-name="Trazado 1015555" d="M48.839,31.17V35.4H34.64V31.17a7.1,7.1,0,0,1,14.2,0Z" transform="translate(-34.64 -24.07)" fill="#ff9a9a"/>
      </g>
      <g id="Grupo_1160875" data-name="Grupo 1160875" transform="translate(0 10.936)">
        <path id="Trazado_1015556" data-name="Trazado 1015556" d="M49.146,36.51h-14.2a.787.787,0,0,1-.787-.787V31.477a7.9,7.9,0,0,1,7.9-7.887,7.893,7.893,0,0,1,7.887,7.887v4.23A.815.815,0,0,1,49.146,36.51ZM35.734,34.92H48.343V31.477a6.326,6.326,0,0,0-6.313-6.3,6.312,6.312,0,0,0-6.313,6.3V34.92Z" transform="translate(-34.16 -23.59)"/>
      </g>
      <g id="Grupo_1160876" data-name="Grupo 1160876" transform="translate(3.624 0.803)">
        <path id="Trazado_1015557" data-name="Trazado 1015557" d="M45.339,19.214a2.126,2.126,0,0,1-.885.574,4.107,4.107,0,0,1,.459,1.886v2.394a4.271,4.271,0,0,1-8.542,0V21.673a4.269,4.269,0,0,1,4.279-4.263h5.444a2.554,2.554,0,0,1-.754,1.8Z" transform="translate(-36.37 -17.41)" fill="#f1f3f6"/>
      </g>
      <g id="Grupo_1160877" data-name="Grupo 1160877" transform="translate(9.543 1.411)">
        <path id="Trazado_1015558" data-name="Trazado 1015558" d="M41.243,20.518h-.475a.787.787,0,0,1-.787-.787.8.8,0,0,1,.787-.787h.475a1.7,1.7,0,0,0,1.459-.8.794.794,0,1,1,1.328.869,3.325,3.325,0,0,1-2.787,1.508Z" transform="translate(-39.98 -17.78)"/>
      </g>
      <g id="Grupo_1160878" data-name="Grupo 1160878" transform="translate(2.82)">
        <path id="Trazado_1015559" data-name="Trazado 1015559" d="M40.946,29.447A5.07,5.07,0,0,1,35.88,24.38V21.986a5.08,5.08,0,0,1,5.066-5.066H46.39a.787.787,0,0,1,.787.787,3.366,3.366,0,0,1-.967,2.361,2.352,2.352,0,0,1-.443.377,4.865,4.865,0,0,1,.246,1.525v2.394A5.073,5.073,0,0,1,40.946,29.447Zm0-10.92A3.478,3.478,0,0,0,37.47,22V24.4a3.476,3.476,0,0,0,6.952,0V22a3.477,3.477,0,0,0-.361-1.525.828.828,0,0,1-.033-.656.792.792,0,0,1,.459-.459,1.441,1.441,0,0,0,.59-.394l.016-.016a1.725,1.725,0,0,0,.328-.443H40.946Z" transform="translate(-35.88 -16.92)"/>
      </g>
    </g>
    <g id="Grupo_1160892" data-name="Grupo 1160892" transform="translate(0 10.051)">
      <g id="Grupo_1160880" data-name="Grupo 1160880" transform="translate(17.347 35.957)">
        <path id="Trazado_1015560" data-name="Trazado 1015560" d="M12.08,44.98h4.525V53.8H12.08Z" transform="translate(-12.08 -44.98)" fill="#b9dd53"/>
      </g>
      <g id="Grupo_1160881" data-name="Grupo 1160881" transform="translate(16.56 35.17)">
        <path id="Trazado_1015561" data-name="Trazado 1015561" d="M16.912,54.9H12.387a.787.787,0,0,1-.787-.787V45.287a.787.787,0,0,1,.787-.787h4.525a.787.787,0,0,1,.787.787v8.821A.767.767,0,0,1,16.912,54.9ZM13.19,53.3h2.935V46.074H13.19Z" transform="translate(-11.6 -44.5)"/>
      </g>
      <g id="Grupo_1160882" data-name="Grupo 1160882" transform="translate(0.803 0.787)">
        <path id="Trazado_1015562" data-name="Trazado 1015562" d="M39.62,42.353A18.815,18.815,0,1,1,20.8,23.53,18.809,18.809,0,0,1,39.62,42.353Z" transform="translate(-1.99 -23.53)" fill="#b9dd53"/>
      </g>
      <g id="Grupo_1160883" data-name="Grupo 1160883" transform="translate(3.05 3.033)">
        <path id="Trazado_1015563" data-name="Trazado 1015563" d="M38.743,41.477A18.819,18.819,0,0,1,3.36,50.4a18.814,18.814,0,0,0,25.5-25.5,18.826,18.826,0,0,1,9.887,16.577Z" transform="translate(-3.36 -24.9)" fill="#a3c134"/>
      </g>
      <g id="Grupo_1160884" data-name="Grupo 1160884" transform="translate(6.427 6.427)">
        <path id="Trazado_1015564" data-name="Trazado 1015564" d="M31.785,40.153A13.183,13.183,0,1,1,18.6,26.97,13.183,13.183,0,0,1,31.785,40.153Z" transform="translate(-5.42 -26.97)" fill="#6bbeeb"/>
      </g>
      <g id="Grupo_1160885" data-name="Grupo 1160885" transform="translate(6.427 8.379)">
        <path id="Trazado_1015565" data-name="Trazado 1015565" d="M29.818,46.327A13.192,13.192,0,1,1,11.651,28.16a13.038,13.038,0,0,0-1.984,6.952A13.183,13.183,0,0,0,22.849,48.295,12.939,12.939,0,0,0,29.818,46.327Z" transform="translate(-5.42 -28.16)" fill="#56a7d2"/>
      </g>
      <g id="Grupo_1160886" data-name="Grupo 1160886">
        <path id="Trazado_1015566" data-name="Trazado 1015566" d="M21.11,62.27A19.61,19.61,0,1,1,40.72,42.66,19.642,19.642,0,0,1,21.11,62.27Zm0-37.646A18.028,18.028,0,1,0,39.13,42.66,18.04,18.04,0,0,0,21.11,24.624Z" transform="translate(-1.5 -23.05)"/>
      </g>
      <g id="Grupo_1160887" data-name="Grupo 1160887" transform="translate(5.64 5.624)">
        <path id="Trazado_1015567" data-name="Trazado 1015567" d="M18.91,54.436A13.978,13.978,0,1,1,32.9,40.466,13.981,13.981,0,0,1,18.91,54.436Zm0-26.365a12.387,12.387,0,1,0,12.4,12.4A12.4,12.4,0,0,0,18.91,28.07Z" transform="translate(-4.94 -26.48)"/>
      </g>
      <g id="Grupo_1160888" data-name="Grupo 1160888" transform="translate(14.609 42.926)">
        <path id="Trazado_1015568" data-name="Trazado 1015568" d="M10.41,49.23h10V70.89h-10Z" transform="translate(-10.41 -49.23)" fill="#b9dd53"/>
      </g>
      <g id="Grupo_1160889" data-name="Grupo 1160889" transform="translate(14.609 42.926)">
        <path id="Trazado_1015569" data-name="Trazado 1015569" d="M10.41,49.23h10V70.873h-10Z" transform="translate(-10.41 -49.23)" fill="#b9dd53"/>
      </g>
      <g id="Grupo_1160890" data-name="Grupo 1160890" transform="translate(14.609 49.992)">
        <path id="Trazado_1015570" data-name="Trazado 1015570" d="M20.412,53.54V68.133h-10S20.412,67.133,20.412,53.54Z" transform="translate(-10.41 -53.54)" fill="#a3c134"/>
      </g>
      <g id="Grupo_1160891" data-name="Grupo 1160891" transform="translate(13.822 42.139)">
        <path id="Trazado_1015571" data-name="Trazado 1015571" d="M20.719,71.984h-10A.787.787,0,0,1,9.93,71.2V49.537a.787.787,0,0,1,.787-.787h10a.787.787,0,0,1,.787.787V71.2A.767.767,0,0,1,20.719,71.984Zm-9.2-1.59h8.411V50.34H11.52Z" transform="translate(-9.93 -48.75)"/>
      </g>
    </g>
  </g>
  <g id="Grupo_1160894" data-name="Grupo 1160894" transform="translate(13.818 48.103)">
    <path id="Trazado_1015572" data-name="Trazado 1015572" d="M13.834,40.9a.81.81,0,0,1-.557-.23l-3.115-3.115a.8.8,0,0,1,1.131-1.131L13.85,38.98l6.329-6.329a.8.8,0,0,1,1.131,1.131l-6.886,6.886a.922.922,0,0,1-.59.23Z" transform="translate(-9.928 -32.417)" fill="#fff"/>
  </g>
</svg>
