<svg id="auto" xmlns="http://www.w3.org/2000/svg" width="105.098" height="105.094" viewBox="0 0 105.098 105.094">
  <g id="Grupo_1162398" data-name="Grupo 1162398" transform="translate(2.586 21.86)">
    <path id="Trazado_1019260" data-name="Trazado 1019260" d="M105.063,68.945a11.333,11.333,0,0,1-22.521-2.44,14.207,14.207,0,0,1-4.406.034,14.575,14.575,0,0,1-7.761-3.626,25.835,25.835,0,0,1-17.166,3.542,24.886,24.886,0,0,1-5.2-1.3A17.884,17.884,0,0,1,24.214,76.808a10.625,10.625,0,1,1-11.1-13.963A17.948,17.948,0,0,1,21.282,45,14.8,14.8,0,0,1,36.4,24.92,25.916,25.916,0,0,1,82.541,37.274,14.784,14.784,0,0,1,94.878,53.982a16.055,16.055,0,0,1-.441,2.034q.508.025,1.017.1a11.326,11.326,0,0,1,9.608,12.828Z" transform="translate(-3.516 -14.893)" fill="#b9dd53"/>
  </g>
  <g id="Grupo_1162399" data-name="Grupo 1162399" transform="translate(1.761 69.01)">
    <path id="Trazado_1019261" data-name="Trazado 1019261" d="M14.469,65.531a10.51,10.51,0,0,1-1.627-.119,11.429,11.429,0,0,1,.525-22.69.809.809,0,1,1,.153,1.61A9.825,9.825,0,1,0,24.2,55.516a.805.805,0,1,1,1.593.237,11.471,11.471,0,0,1-11.32,9.778Z" transform="translate(-3.029 -42.717)"/>
  </g>
  <g id="Grupo_1162400" data-name="Grupo 1162400" transform="translate(42.174 21.065)">
    <path id="Trazado_1019262" data-name="Trazado 1019262" d="M63.79,30.312a.856.856,0,0,1-.729-.441A25.156,25.156,0,0,0,44.184,16.281a24.831,24.831,0,0,0-16.1,3.1.805.805,0,1,1-.813-1.39A26.392,26.392,0,0,1,44.4,14.705,26.744,26.744,0,0,1,64.5,29.16a.81.81,0,0,1-.356,1.085,1.32,1.32,0,0,1-.356.068Z" transform="translate(-26.877 -14.424)"/>
  </g>
  <g id="Grupo_1162401" data-name="Grupo 1162401" transform="translate(18.526 31.033)">
    <path id="Trazado_1019263" data-name="Trazado 1019263" d="M18.985,48.019a.864.864,0,0,1-.525-.186A15.607,15.607,0,0,1,30.745,20.465a15.7,15.7,0,0,1,6.863,2.745.814.814,0,0,1-.949,1.322A13.99,13.99,0,0,0,19.51,46.613a.807.807,0,0,1,.1,1.135.918.918,0,0,1-.627.271Z" transform="translate(-12.923 -20.306)"/>
  </g>
  <g id="Grupo_1162402" data-name="Grupo 1162402" transform="translate(67.768 43.255)">
    <path id="Trazado_1019264" data-name="Trazado 1019264" d="M68.161,46.009h-.119a.8.8,0,0,1-.678-.915,13.988,13.988,0,0,0-24-11.608.8.8,0,1,1-1.169-1.1A15.606,15.606,0,0,1,68.974,45.331.834.834,0,0,1,68.161,46.009Z" transform="translate(-41.981 -27.518)"/>
  </g>
  <g id="Grupo_1162403" data-name="Grupo 1162403" transform="translate(97.871 63.737)">
    <path id="Trazado_1019265" data-name="Trazado 1019265" d="M65.329,55.187a.8.8,0,0,1-.746-1.1,10.989,10.989,0,0,0,.644-2.406A10.492,10.492,0,0,0,60.143,41.1a.805.805,0,1,1,.813-1.39,12.118,12.118,0,0,1,5.863,12.2,13.166,13.166,0,0,1-.729,2.779.864.864,0,0,1-.763.491Z" transform="translate(-59.745 -39.605)"/>
  </g>
  <g id="Grupo_1162404" data-name="Grupo 1162404" transform="translate(11.344 55.479)">
    <path id="Trazado_1019266" data-name="Trazado 1019266" d="M9.49,44.659H9.372a.8.8,0,0,1-.678-.915,18.865,18.865,0,0,1,3.626-8.693.81.81,0,0,1,1.288.983,17.182,17.182,0,0,0-3.321,7.931.832.832,0,0,1-.8.695Z" transform="translate(-8.684 -34.732)"/>
  </g>
  <g id="Grupo_1162405" data-name="Grupo 1162405" transform="translate(78.121 0.799)">
    <path id="Trazado_1019267" data-name="Trazado 1019267" d="M71.018,11.1a4.051,4.051,0,0,1-4.05,3.813H48.09l.576-2.186a6.972,6.972,0,0,1,6.643-5.185,8.17,8.17,0,0,1,15.658,2,8.043,8.043,0,0,1,.051,1.559Z" transform="translate(-48.09 -2.465)" fill="#f1f3f6"/>
  </g>
  <g id="Grupo_1162406" data-name="Grupo 1162406" transform="translate(93.214 0.074)">
    <path id="Trazado_1019268" data-name="Trazado 1019268" d="M60.8,16.023a.814.814,0,0,1-.813-.813A.8.8,0,0,1,60.8,14.4a3.247,3.247,0,0,0,3.237-3.05,8,8,0,0,0-.051-1.423,7.441,7.441,0,0,0-6.287-6.3A.778.778,0,0,1,57,2.737a.81.81,0,0,1,.915-.695,9.077,9.077,0,0,1,7.676,7.693,9.707,9.707,0,0,1,.068,1.712A4.866,4.866,0,0,1,60.8,16.023Z" transform="translate(-56.997 -2.037)"/>
  </g>
  <g id="Grupo_1162407" data-name="Grupo 1162407" transform="translate(79.028 5.079)">
    <path id="Trazado_1019269" data-name="Trazado 1019269" d="M49.43,9.43a.793.793,0,0,1-.474-.153.813.813,0,0,1-.169-1.135A7.827,7.827,0,0,1,54.937,4.99h.017a.821.821,0,0,1,.813.8.81.81,0,0,1-.8.813,6.181,6.181,0,0,0-4.863,2.491A.91.91,0,0,1,49.43,9.43Z" transform="translate(-48.626 -4.99)"/>
  </g>
  <g id="Grupo_1162408" data-name="Grupo 1162408" transform="translate(84.289 5.079)">
    <path id="Trazado_1019270" data-name="Trazado 1019270" d="M56.509,7.9a.831.831,0,0,1-.474-.153A6.074,6.074,0,0,0,52.526,6.6a.81.81,0,0,1-.8-.813.821.821,0,0,1,.813-.8,7.727,7.727,0,0,1,4.44,1.457.794.794,0,0,1,.186,1.118A.8.8,0,0,1,56.509,7.9Z" transform="translate(-51.73 -4.99)"/>
  </g>
  <g id="Grupo_1162409" data-name="Grupo 1162409" transform="translate(1.678 0.803)">
    <path id="Trazado_1019271" data-name="Trazado 1019271" d="M36.33,15.029a5.878,5.878,0,0,1-5.88,5.558H2.98l.83-3.169A10.171,10.171,0,0,1,13.47,9.86a11.881,11.881,0,0,1,22.775,2.881A10.422,10.422,0,0,1,36.33,15.029Z" transform="translate(-2.98 -2.467)" fill="#f1f3f6"/>
  </g>
  <g id="Grupo_1162410" data-name="Grupo 1162410" transform="translate(28.35 10.255)">
    <path id="Trazado_1019272" data-name="Trazado 1019272" d="M19.533,17.509a.814.814,0,0,1-.813-.813.8.8,0,0,1,.813-.813A5.072,5.072,0,0,0,24.6,11.1a11.261,11.261,0,0,0-.085-2.135.829.829,0,0,1,.695-.915.816.816,0,0,1,.915.695,12.936,12.936,0,0,1,.085,2.423A6.692,6.692,0,0,1,19.533,17.509Z" transform="translate(-18.72 -8.045)"/>
  </g>
  <g id="Grupo_1162411" data-name="Grupo 1162411" transform="translate(1.701 0)">
    <path id="Trazado_1019273" data-name="Trazado 1019273" d="M3.8,18.544a.851.851,0,0,1-.2-.034.812.812,0,0,1-.576-.983,10.989,10.989,0,0,1,9.913-8.134A12.762,12.762,0,0,1,26.22,2.107a12.167,12.167,0,0,1,4.3,1.423.811.811,0,1,1-.78,1.423A10.961,10.961,0,0,0,26,3.716a11.128,11.128,0,0,0-11.777,6.778.839.839,0,0,1-.746.491,9.362,9.362,0,0,0-8.9,6.948.81.81,0,0,1-.78.61Z" transform="translate(-2.993 -1.993)"/>
  </g>
  <g id="Grupo_1162412" data-name="Grupo 1162412" transform="translate(11.032 7.383)">
    <path id="Trazado_1019274" data-name="Trazado 1019274" d="M15.075,9.858a.831.831,0,0,1-.474-.153A9.2,9.2,0,0,0,9.3,7.96a.8.8,0,1,1,.017-1.61H9.33A10.921,10.921,0,0,1,15.549,8.4a.827.827,0,0,1,.186,1.135.86.86,0,0,1-.661.322Z" transform="translate(-8.5 -6.35)"/>
  </g>
  <g id="Grupo_1162413" data-name="Grupo 1162413" transform="translate(0 103.466)">
    <path id="Trazado_1019275" data-name="Trazado 1019275" d="M106.275,64.677H2.8a.814.814,0,0,1-.813-.813A.8.8,0,0,1,2.8,63.05H106.275a.814.814,0,0,1,.813.813.8.8,0,0,1-.813.813Z" transform="translate(-1.99 -63.05)"/>
  </g>
  <g id="Grupo_1162414" data-name="Grupo 1162414" transform="translate(50.736 55.103)">
    <path id="Trazado_1019276" data-name="Trazado 1019276" d="M45.622,36.272A1.761,1.761,0,0,0,43.86,34.51H33.692a1.761,1.761,0,0,0-1.762,1.762v.9H45.622Z" transform="translate(-31.93 -34.51)" fill="#726ad3"/>
  </g>
  <g id="Grupo_1162415" data-name="Grupo 1162415" transform="translate(50.736 57.763)">
    <path id="Trazado_1019277" data-name="Trazado 1019277" d="M31.93,36.08H45.622v2.66H31.93Z" transform="translate(-31.93 -36.08)" fill="#564dc6"/>
  </g>
  <g id="Grupo_1162416" data-name="Grupo 1162416" transform="translate(5.897 97.789)">
    <path id="Trazado_1019278" data-name="Trazado 1019278" d="M20.7,61.581A8.091,8.091,0,0,1,5.47,59.7a7.273,7.273,0,0,0,4.914,1.881Z" transform="translate(-5.47 -59.7)" fill="#1d2121"/>
  </g>
  <g id="Grupo_1162417" data-name="Grupo 1162417" transform="translate(64.852 88.079)">
    <path id="Trazado_1019279" data-name="Trazado 1019279" d="M56.46,62.07a8.1,8.1,0,1,1-8.1-8.1A8.1,8.1,0,0,1,56.46,62.07Z" transform="translate(-40.26 -53.97)" fill="#1d2121"/>
  </g>
  <g id="Grupo_1162418" data-name="Grupo 1162418" transform="translate(3.421 60.441)">
    <path id="Trazado_1019280" data-name="Trazado 1019280" d="M95.6,76.89H11.382A7.368,7.368,0,0,1,4.655,66.519l.966-2.152A44.832,44.832,0,0,1,41.9,37.779c.474-.034.915-.085,1.39-.119H75.556a25.081,25.081,0,0,1,24.69,20.657l1.915,10.744A6.646,6.646,0,0,1,95.6,76.89Z" transform="translate(-4.009 -37.66)" fill="#726ad3"/>
  </g>
  <g id="Grupo_1162419" data-name="Grupo 1162419" transform="translate(44.89 89.249)">
    <path id="Trazado_1019281" data-name="Trazado 1019281" d="M51.848,60.1H29.293a.813.813,0,1,1,0-1.627H51.848a3.927,3.927,0,0,0,2.322-.763l2.711-1.983a5.55,5.55,0,0,1,3.271-1.068h9.3a.813.813,0,0,1,0,1.627h-9.3a3.927,3.927,0,0,0-2.322.763l-2.711,1.983A5.63,5.63,0,0,1,51.848,60.1Z" transform="translate(-28.48 -54.66)" fill="#fff"/>
  </g>
  <g id="Grupo_1162420" data-name="Grupo 1162420" transform="translate(28.317 60.441)">
    <path id="Trazado_1019282" data-name="Trazado 1019282" d="M64.5,57.893H18.7S28.037,40.812,51.473,37.66H65.691l5.2,5.643A8.693,8.693,0,0,1,64.5,57.893Z" transform="translate(-18.7 -37.66)" fill="#f1f3f6"/>
  </g>
  <g id="Grupo_1162422" data-name="Grupo 1162422" transform="translate(54.752 60.729)">
    <g id="Grupo_1162421" data-name="Grupo 1162421">
      <path id="Trazado_1019283" data-name="Trazado 1019283" d="M35.113,58.572a.814.814,0,0,1-.813-.813V38.643a.814.814,0,0,1,.813-.813.8.8,0,0,1,.813.813V57.775a.8.8,0,0,1-.813.8Z" transform="translate(-34.3 -37.83)" fill="#d5dce5"/>
    </g>
  </g>
  <g id="Grupo_1162423" data-name="Grupo 1162423" transform="translate(67.004 60.441)">
    <path id="Trazado_1019284" data-name="Trazado 1019284" d="M55.053,43.3l-5.2-5.643H41.53V57.893h7.151A8.7,8.7,0,0,0,55.053,43.3Z" transform="translate(-41.53 -37.66)" fill="#f1f3f6"/>
  </g>
  <g id="Grupo_1162424" data-name="Grupo 1162424" transform="translate(46.55 70.795)">
    <path id="Trazado_1019285" data-name="Trazado 1019285" d="M33.646,45.871v7.761H29.46V45.871a2.112,2.112,0,0,1,2.1-2.1,2.088,2.088,0,0,1,1.474.61A2.159,2.159,0,0,1,33.646,45.871Z" transform="translate(-29.46 -43.77)" fill="#b6c4d3"/>
  </g>
  <g id="Grupo_1162425" data-name="Grupo 1162425" transform="translate(59.599 70.795)">
    <path id="Trazado_1019286" data-name="Trazado 1019286" d="M41.346,45.871v7.761H37.16V45.871a2.112,2.112,0,0,1,2.1-2.1,2.088,2.088,0,0,1,1.474.61A2.191,2.191,0,0,1,41.346,45.871Z" transform="translate(-37.16 -43.77)" fill="#b6c4d3"/>
  </g>
  <g id="Grupo_1162426" data-name="Grupo 1162426" transform="translate(28.317 60.441)">
    <path id="Trazado_1019287" data-name="Trazado 1019287" d="M72.724,52.03a8.669,8.669,0,0,0-1.83-2.982,17.488,17.488,0,0,0-12.879-5.66H51.456A46.344,46.344,0,0,0,23.021,57.893H18.7S28.037,40.812,51.473,37.66H65.708l5.2,5.643a8.553,8.553,0,0,1,1.813,8.727Z" transform="translate(-18.7 -37.66)" fill="#d5dce5"/>
  </g>
  <g id="Grupo_1162427" data-name="Grupo 1162427" transform="translate(28.317 71.896)">
    <path id="Trazado_1019288" data-name="Trazado 1019288" d="M26.122,44.42A37.617,37.617,0,0,0,18.7,53.2h7.422Z" transform="translate(-18.7 -44.42)" fill="#c6d0e0"/>
  </g>
  <g id="Grupo_1162428" data-name="Grupo 1162428" transform="translate(8.541 60.424)">
    <path id="Trazado_1019289" data-name="Trazado 1019289" d="M59.579,37.65C36.143,40.819,26.806,57.9,26.806,57.9H7.03A44.543,44.543,0,0,1,39.8,37.786c.458-.034.915-.085,1.39-.119H59.579Z" transform="translate(-7.03 -37.65)" fill="#f1f3f6"/>
  </g>
  <g id="Grupo_1162429" data-name="Grupo 1162429" transform="translate(84.221 62.203)">
    <path id="Trazado_1019290" data-name="Trazado 1019290" d="M64.213,49.545H60.959a5,5,0,0,1-4.3-2.457L51.69,38.7a25.155,25.155,0,0,1,6.846,4.067A25.474,25.474,0,0,1,64.213,49.545Z" transform="translate(-51.69 -38.7)" fill="#f1f3f6"/>
  </g>
  <g id="Grupo_1162430" data-name="Grupo 1162430" transform="translate(93.507 80.403)">
    <path id="Trazado_1019291" data-name="Trazado 1019291" d="M63.965,53.71h-4.66a2.137,2.137,0,0,1-2.135-2.135,2.141,2.141,0,0,1,2.135-2.135h3.881c.051.22.1.441.136.661Z" transform="translate(-57.17 -49.44)" fill="#ff9a9a"/>
  </g>
  <g id="Grupo_1162431" data-name="Grupo 1162431" transform="translate(93.507 80.42)">
    <path id="Trazado_1019292" data-name="Trazado 1019292" d="M63.965,53.7h-4.66a2.137,2.137,0,0,1-2.135-2.135,1.787,1.787,0,0,1,.068-.525,2.252,2.252,0,0,0,1.678.746H61.3a1.805,1.805,0,0,0,1.779-2.118l-.034-.22h.136c.051.22.1.441.136.661Z" transform="translate(-57.17 -49.45)" fill="#d86666"/>
  </g>
  <g id="Grupo_1162432" data-name="Grupo 1162432" transform="translate(7.998 92.011)">
    <path id="Trazado_1019293" data-name="Trazado 1019293" d="M6.71,59.662H17.216s-1.661-3.372-5.253-3.372A6.148,6.148,0,0,0,6.71,59.662Z" transform="translate(-6.71 -56.29)" fill="#1d2121"/>
  </g>
  <g id="Grupo_1162433" data-name="Grupo 1162433" transform="translate(20.87 87.283)">
    <path id="Trazado_1019294" data-name="Trazado 1019294" d="M18.922,57.686c-.271,2.288-1.508,4.1-2.779,4.084-1.254-.034-2.067-1.915-1.779-4.186.271-2.288,1.508-4.1,2.779-4.084C18.4,53.517,19.193,55.4,18.922,57.686Z" transform="translate(-14.306 -53.5)" fill="#ffca6b"/>
  </g>
  <g id="Grupo_1162434" data-name="Grupo 1162434" transform="translate(20.911 87.3)">
    <path id="Trazado_1019295" data-name="Trazado 1019295" d="M18.905,57.679c-.271,2.288-1.508,4.1-2.779,4.084-.932-.017-1.61-1.068-1.8-2.542a.421.421,0,0,0,.136.017c1.254.034,2.508-1.8,2.779-4.084a6.655,6.655,0,0,0,0-1.644c1.186.153,1.915,1.966,1.661,4.169Z" transform="translate(-14.33 -53.51)" fill="#ef8f06"/>
  </g>
  <g id="Grupo_1162435" data-name="Grupo 1162435" transform="translate(3.414 87.436)">
    <path id="Trazado_1019296" data-name="Trazado 1019296" d="M6.708,57.623A5.2,5.2,0,0,1,4.675,61.5a7.245,7.245,0,0,1-.017-6.05l.83-1.864c.915.491,1.44,2.1,1.22,4.033Z" transform="translate(-4.004 -53.59)" fill="#ffca6b"/>
  </g>
  <g id="Grupo_1162436" data-name="Grupo 1162436" transform="translate(27.505 59.618)">
    <path id="Trazado_1019297" data-name="Trazado 1019297" d="M64.837,59.027h-45.8a.825.825,0,0,1-.695-.39.788.788,0,0,1-.017-.8c.1-.169,9.812-17.471,33.366-20.657a.807.807,0,0,1,.915.695.829.829,0,0,1-.695.915A45.133,45.133,0,0,0,20.49,57.417H64.837a7.891,7.891,0,0,0,5.8-13.235A.8.8,0,1,1,71.819,43.1a9.495,9.495,0,0,1-6.982,15.929Z" transform="translate(-18.221 -37.175)"/>
  </g>
  <g id="Grupo_1162437" data-name="Grupo 1162437" transform="translate(66.174 59.61)">
    <path id="Trazado_1019298" data-name="Trazado 1019298" d="M48.988,59.03H41.853a.814.814,0,0,1-.813-.813V37.983a.814.814,0,0,1,.813-.813h8.371a.812.812,0,0,1,.763.847.8.8,0,0,1-.847.763H42.65V57.4h6.338a7.891,7.891,0,0,0,5.8-13.235.8.8,0,0,1,1.186-1.085A9.509,9.509,0,0,1,48.988,59.03Z" transform="translate(-41.04 -37.17)"/>
  </g>
  <g id="Grupo_1162438" data-name="Grupo 1162438" transform="translate(27.505 71.093)">
    <path id="Trazado_1019299" data-name="Trazado 1019299" d="M26.455,54.324H19.033a.825.825,0,0,1-.695-.39.788.788,0,0,1-.017-.8,38.164,38.164,0,0,1,7.592-8.981.777.777,0,0,1,.864-.136.823.823,0,0,1,.474.746v8.778a.792.792,0,0,1-.8.78Zm-5.965-1.61h5.152v-6.1a39.818,39.818,0,0,0-5.152,6.1Z" transform="translate(-18.221 -43.946)"/>
  </g>
  <g id="Grupo_1162439" data-name="Grupo 1162439" transform="translate(2.61 59.61)">
    <path id="Trazado_1019300" data-name="Trazado 1019300" d="M27.237,78.026H11.715A8.168,8.168,0,0,1,4.242,66.52l.949-2.152A45.726,45.726,0,0,1,42.133,37.289l.119-.017,1.322-.1H75.906a25.91,25.91,0,0,1,25.487,21.318l1.474,8.2a.808.808,0,0,1-1.593.271l-1.474-8.2A24.294,24.294,0,0,0,75.906,38.78H43.624c-.373.034-.8.068-1.237.1l-.1.034A44.109,44.109,0,0,0,6.665,65.029l-.949,2.152a6.56,6.56,0,0,0,6,9.235H27.237a.814.814,0,0,1,.813.813.8.8,0,0,1-.813.8Z" transform="translate(-3.53 -37.17)"/>
  </g>
  <g id="Grupo_1162440" data-name="Grupo 1162440" transform="translate(48.753 98.84)">
    <path id="Trazado_1019301" data-name="Trazado 1019301" d="M61.534,61.947H31.573a.814.814,0,0,1-.813-.813.8.8,0,0,1,.813-.813H61.551a.813.813,0,1,1-.017,1.627Z" transform="translate(-30.76 -60.32)"/>
  </g>
  <g id="Grupo_1162441" data-name="Grupo 1162441" transform="translate(64.842 98.857)">
    <path id="Trazado_1019302" data-name="Trazado 1019302" d="M48.364,66.566a8.922,8.922,0,0,1-8.032-5.084.809.809,0,0,1,.729-1.152H55.685a.781.781,0,0,1,.678.373.8.8,0,0,1,.051.78,8.946,8.946,0,0,1-8.049,5.084Zm-5.88-4.626a7.3,7.3,0,0,0,11.794,0Z" transform="translate(-40.254 -60.33)"/>
  </g>
  <g id="Grupo_1162442" data-name="Grupo 1162442" transform="translate(5.068 96.989)">
    <path id="Trazado_1019303" data-name="Trazado 1019303" d="M13.724,67.332A8.911,8.911,0,0,1,5,60.2a.808.808,0,0,1,.39-.864.821.821,0,0,1,.949.1A6.418,6.418,0,0,0,10.707,61.1H21.044a.781.781,0,0,1,.678.373.8.8,0,0,1,.051.78,8.965,8.965,0,0,1-8.049,5.084ZM7.386,62.011a7.287,7.287,0,0,0,6.338,3.694,7.367,7.367,0,0,0,5.9-3H10.707A8.159,8.159,0,0,1,7.386,62.011Z" transform="translate(-4.981 -59.228)"/>
  </g>
  <g id="Grupo_1162443" data-name="Grupo 1162443" transform="translate(20.059 86.469)">
    <path id="Trazado_1019304" data-name="Trazado 1019304" d="M16.51,62.9h-.051a2.206,2.206,0,0,1-1.627-.813,5.7,5.7,0,0,1-.949-4.27.806.806,0,0,1,.9-.712.815.815,0,0,1,.712.9,4.146,4.146,0,0,0,.559,3.033c.22.254.39.254.441.254.644-.017,1.695-1.288,1.949-3.372a4.146,4.146,0,0,0-.559-3.033c-.22-.254-.39-.254-.441-.254a.805.805,0,0,1,.051-1.61,2.235,2.235,0,0,1,1.627.813,5.7,5.7,0,0,1,.949,4.27c-.339,2.745-1.864,4.8-3.559,4.8Z" transform="translate(-13.827 -53.02)"/>
  </g>
  <g id="Grupo_1162444" data-name="Grupo 1162444" transform="translate(2.607 86.632)">
    <path id="Trazado_1019305" data-name="Trazado 1019305" d="M5.005,62.629a1.308,1.308,0,0,1-.254-.034.74.74,0,0,1-.474-.424,8.068,8.068,0,0,1-.034-6.711l.83-1.864a.865.865,0,0,1,.474-.441.849.849,0,0,1,.644.051c1.254.678,1.915,2.627,1.644,4.847-.254,2.05-1.2,3.83-2.44,4.491a1.077,1.077,0,0,1-.39.085Zm1.017-7.185-.305.678a6.567,6.567,0,0,0-.373,4.287,5.669,5.669,0,0,0,.881-2.542,5.328,5.328,0,0,0-.2-2.423Z" transform="translate(-3.529 -53.116)"/>
  </g>
  <g id="Grupo_1162445" data-name="Grupo 1162445" transform="translate(7.731 59.593)">
    <path id="Trazado_1019306" data-name="Trazado 1019306" d="M27.138,59.037H7.362a.81.81,0,0,1-.678-1.254A45.2,45.2,0,0,1,40.05,37.3l.1-.017c.441-.034.864-.085,1.322-.119H59.928a.815.815,0,0,1,.813.763.789.789,0,0,1-.695.847C37.322,41.837,27.968,58.427,27.866,58.6a.842.842,0,0,1-.729.441ZM8.887,57.427H26.68A45.785,45.785,0,0,1,52.218,38.8H41.525c-.373.034-.8.068-1.237.1H40.2A43.514,43.514,0,0,0,8.887,57.427Z" transform="translate(-6.552 -37.16)"/>
  </g>
  <g id="Grupo_1162446" data-name="Grupo 1162446" transform="translate(7.209 91.198)">
    <path id="Trazado_1019307" data-name="Trazado 1019307" d="M17.557,60.792H7.051a.781.781,0,0,1-.678-.373.8.8,0,0,1-.051-.78A6.922,6.922,0,0,1,12.3,55.81c4.033,0,5.9,3.66,5.982,3.83a.845.845,0,0,1-.034.78.854.854,0,0,1-.695.373Zm-8.981-1.61H16a4.947,4.947,0,0,0-3.711-1.762A4.887,4.887,0,0,0,8.576,59.182Z" transform="translate(-6.244 -55.81)"/>
  </g>
  <g id="Grupo_1162447" data-name="Grupo 1162447" transform="translate(83.419 61.394)">
    <path id="Trazado_1019308" data-name="Trazado 1019308" d="M64.542,50.69H61.288a5.819,5.819,0,0,1-5-2.864l-4.965-8.388a.817.817,0,0,1,.085-.932.783.783,0,0,1,.915-.22,25.874,25.874,0,0,1,12.93,11.2.864.864,0,0,1,0,.813A.8.8,0,0,1,64.542,50.69ZM54.018,40.828,57.662,47a4.212,4.212,0,0,0,3.609,2.067h1.813a24.218,24.218,0,0,0-4.762-5.355A24.772,24.772,0,0,0,54.018,40.828Z" transform="translate(-51.217 -38.222)"/>
  </g>
  <g id="Grupo_1162448" data-name="Grupo 1162448" transform="translate(92.711 79.607)">
    <path id="Trazado_1019309" data-name="Trazado 1019309" d="M64.292,54.85h-4.66a2.94,2.94,0,0,1,.017-5.88h3.881a.831.831,0,0,1,.8.644c.051.22.085.458.136.678l.644,3.609a.839.839,0,0,1-.169.661A.9.9,0,0,1,64.292,54.85ZM59.632,50.6a1.266,1.266,0,0,0-.932.39,1.294,1.294,0,0,0-.39.932,1.323,1.323,0,0,0,1.322,1.322h3.694L62.851,50.6Z" transform="translate(-56.7 -48.97)"/>
  </g>
  <g id="Grupo_1162449" data-name="Grupo 1162449" transform="translate(49.923 54.306)">
    <path id="Trazado_1019310" data-name="Trazado 1019310" d="M45.956,38.31H32.263a.814.814,0,0,1-.813-.813v-.9a2.567,2.567,0,0,1,2.559-2.559H44.176A2.567,2.567,0,0,1,46.735,36.6v.9A.775.775,0,0,1,45.956,38.31ZM33.077,36.684H45.142v-.1a.947.947,0,0,0-.949-.949H34.026a.947.947,0,0,0-.949.949Z" transform="translate(-31.45 -34.04)"/>
  </g>
  <g id="Grupo_1162450" data-name="Grupo 1162450" transform="translate(49.923 56.95)">
    <path id="Trazado_1019311" data-name="Trazado 1019311" d="M45.956,39.887H32.263a.814.814,0,0,1-.813-.813v-2.66a.814.814,0,0,1,.813-.813H45.956a.813.813,0,0,1,0,1.627H33.077v1.051H45.956a.814.814,0,0,1,.813.813A.8.8,0,0,1,45.956,39.887Z" transform="translate(-31.45 -35.6)"/>
  </g>
  <g id="Grupo_1162451" data-name="Grupo 1162451" transform="translate(83.052 88.079)">
    <path id="Trazado_1019312" data-name="Trazado 1019312" d="M67.2,62.07a8.1,8.1,0,1,1-8.1-8.1A8.1,8.1,0,0,1,67.2,62.07Z" transform="translate(-51 -53.97)" fill="#1d2121"/>
  </g>
  <g id="Grupo_1162452" data-name="Grupo 1162452" transform="translate(87.78 92.807)">
    <path id="Trazado_1019313" data-name="Trazado 1019313" d="M60.534,60.132a3.372,3.372,0,1,1-3.372-3.372A3.37,3.37,0,0,1,60.534,60.132Z" transform="translate(-53.79 -56.76)" fill="#fff"/>
  </g>
  <g id="Grupo_1162453" data-name="Grupo 1162453" transform="translate(87.78 92.807)">
    <path id="Trazado_1019314" data-name="Trazado 1019314" d="M60.229,58.726a3.226,3.226,0,0,0-1.407-.305,3.37,3.37,0,0,0-3.372,3.372,3.226,3.226,0,0,0,.305,1.407,3.374,3.374,0,1,1,4.474-4.474Z" transform="translate(-53.79 -56.76)" fill="#f1f3f6"/>
  </g>
  <g id="Grupo_1162454" data-name="Grupo 1162454" transform="translate(29.825 88.079)">
    <path id="Trazado_1019315" data-name="Trazado 1019315" d="M35.79,62.07a8.1,8.1,0,1,1-8.1-8.1A8.1,8.1,0,0,1,35.79,62.07Z" transform="translate(-19.59 -53.97)" fill="#1d2121"/>
  </g>
  <g id="Grupo_1162455" data-name="Grupo 1162455" transform="translate(34.57 92.807)">
    <path id="Trazado_1019316" data-name="Trazado 1019316" d="M29.134,60.132a3.372,3.372,0,1,1-3.372-3.372A3.37,3.37,0,0,1,29.134,60.132Z" transform="translate(-22.39 -56.76)" fill="#fff"/>
  </g>
  <g id="Grupo_1162456" data-name="Grupo 1162456" transform="translate(34.57 92.807)">
    <path id="Trazado_1019317" data-name="Trazado 1019317" d="M28.829,58.726a3.226,3.226,0,0,0-1.407-.305,3.37,3.37,0,0,0-3.372,3.372,3.226,3.226,0,0,0,.305,1.407,3.374,3.374,0,0,1,1.407-6.439A3.4,3.4,0,0,1,28.829,58.726Z" transform="translate(-22.39 -56.76)" fill="#f1f3f6"/>
  </g>
  <g id="Grupo_1162457" data-name="Grupo 1162457" transform="translate(82.255 87.3)">
    <path id="Trazado_1019318" data-name="Trazado 1019318" d="M59.427,71.3a8.9,8.9,0,1,1,8.9-8.9A8.906,8.906,0,0,1,59.427,71.3Zm0-16.2a7.287,7.287,0,1,0,7.287,7.287A7.3,7.3,0,0,0,59.427,55.1Z" transform="translate(-50.53 -53.51)"/>
  </g>
  <g id="Grupo_1162458" data-name="Grupo 1162458" transform="translate(86.966 91.994)">
    <path id="Trazado_1019319" data-name="Trazado 1019319" d="M57.5,64.651a4.186,4.186,0,1,1,4.186-4.186A4.195,4.195,0,0,1,57.5,64.651Zm0-6.744a2.559,2.559,0,1,0,2.559,2.559A2.567,2.567,0,0,0,57.5,57.907Z" transform="translate(-53.31 -56.28)"/>
  </g>
  <g id="Grupo_1162459" data-name="Grupo 1162459" transform="translate(29.045 87.3)">
    <path id="Trazado_1019320" data-name="Trazado 1019320" d="M28.027,71.3a8.9,8.9,0,1,1,8.9-8.9A8.906,8.906,0,0,1,28.027,71.3Zm0-16.2a7.287,7.287,0,1,0,7.287,7.287A7.3,7.3,0,0,0,28.027,55.1Z" transform="translate(-19.13 -53.51)"/>
  </g>
  <g id="Grupo_1162460" data-name="Grupo 1162460" transform="translate(33.756 91.994)">
    <path id="Trazado_1019321" data-name="Trazado 1019321" d="M26.1,64.651a4.186,4.186,0,1,1,4.186-4.186A4.195,4.195,0,0,1,26.1,64.651Zm0-6.744a2.559,2.559,0,1,0,2.559,2.559A2.567,2.567,0,0,0,26.1,57.907Z" transform="translate(-21.91 -56.28)"/>
  </g>
  <g id="Grupo_1162461" data-name="Grupo 1162461" transform="translate(35.739 76.81)">
    <path id="Trazado_1019322" data-name="Trazado 1019322" d="M29.689,49.252a1.968,1.968,0,0,1-1.932,1.932H23.08V47.32h4.677A1.931,1.931,0,0,1,29.689,49.252Z" transform="translate(-23.08 -47.32)" fill="#564dc6"/>
  </g>
  <g id="Grupo_1162462" data-name="Grupo 1162462" transform="translate(34.926 75.98)">
    <path id="Trazado_1019323" data-name="Trazado 1019323" d="M28.09,52.32H23.413a.814.814,0,0,1-.813-.813V47.643a.814.814,0,0,1,.813-.813H28.09a.813.813,0,1,1,0,1.627H24.227v2.237H28.09a1.088,1.088,0,0,0,.78-.322.8.8,0,0,1,1.152,1.118,2.6,2.6,0,0,1-1.932.83Z" transform="translate(-22.6 -46.83)"/>
  </g>
  <g id="Grupo_1162463" data-name="Grupo 1162463" transform="translate(61.395 84.216)">
    <path id="Trazado_1019324" data-name="Trazado 1019324" d="M43.27,53.317H39.033a.814.814,0,0,1-.813-.813.8.8,0,0,1,.813-.813h4.253a.813.813,0,1,1-.017,1.627Z" transform="translate(-38.22 -51.69)" fill="#fff"/>
  </g>
  <g id="Grupo_1162464" data-name="Grupo 1162464" transform="translate(20.06 70.807)">
    <path id="Trazado_1019325" data-name="Trazado 1019325" d="M14.645,49.425a.869.869,0,0,1-.576-.237.788.788,0,0,1,0-1.135L18.1,44.019a.8.8,0,0,1,1.135,1.135L15.2,49.187A.8.8,0,0,1,14.645,49.425Z" transform="translate(-13.828 -43.777)" fill="#fff"/>
  </g>
  <g id="Grupo_1162465" data-name="Grupo 1162465" transform="translate(25.906 68.299)">
    <path id="Trazado_1019326" data-name="Trazado 1019326" d="M18.1,44.589a.869.869,0,0,1-.576-.237.788.788,0,0,1,0-1.135l.678-.678a.8.8,0,0,1,1.135,1.135l-.678.678A.732.732,0,0,1,18.1,44.589Z" transform="translate(-17.278 -42.298)" fill="#fff"/>
  </g>
  <g id="Grupo_1162466" data-name="Grupo 1162466" transform="translate(24.703 72.468)">
    <path id="Trazado_1019327" data-name="Trazado 1019327" d="M17.385,49.371a.869.869,0,0,1-.576-.237.788.788,0,0,1,0-1.135l3-3a.8.8,0,1,1,1.135,1.135l-3,3A.732.732,0,0,1,17.385,49.371Z" transform="translate(-16.567 -44.758)" fill="#fff"/>
  </g>
  <g id="Grupo_1162467" data-name="Grupo 1162467" transform="translate(43.822 35.751)">
    <path id="Trazado_1019328" data-name="Trazado 1019328" d="M28.663,37.07a.814.814,0,0,1-.813-.813A13.191,13.191,0,0,1,41.017,23.09a.813.813,0,1,1,0,1.627,11.572,11.572,0,0,0-11.54,11.54.825.825,0,0,1-.813.813Z" transform="translate(-27.85 -23.09)"/>
  </g>
  <g id="Grupo_1162468" data-name="Grupo 1162468" transform="translate(47.855 39.801)">
    <path id="Trazado_1019329" data-name="Trazado 1019329" d="M31.043,35.41a.814.814,0,0,1-.813-.813,9.12,9.12,0,0,1,9.117-9.117.813.813,0,1,1,0,1.627,7.521,7.521,0,0,0-7.507,7.507A.785.785,0,0,1,31.043,35.41Z" transform="translate(-30.23 -25.48)"/>
  </g>
  <g id="Grupo_1162469" data-name="Grupo 1162469" transform="translate(51.905 43.834)">
    <path id="Trazado_1019330" data-name="Trazado 1019330" d="M33.433,33.757a.814.814,0,0,1-.813-.813A5.091,5.091,0,0,1,37.7,27.86a.813.813,0,1,1,0,1.627,3.367,3.367,0,0,0-2.44,1.017,3.424,3.424,0,0,0-1.017,2.44.825.825,0,0,1-.813.813Z" transform="translate(-32.62 -27.86)"/>
  </g>
  <g id="Grupo_1162470" data-name="Grupo 1162470" transform="translate(55.811 47.74)">
    <path id="Trazado_1019331" data-name="Trazado 1019331" d="M36.374,33.071a1.41,1.41,0,0,1-1.017-.424,1.45,1.45,0,1,1,2.05,0A1.477,1.477,0,0,1,36.374,33.071Zm0-1.61a.154.154,0,0,0-.119.051.168.168,0,1,0,.237,0A.183.183,0,0,0,36.374,31.461Z" transform="translate(-34.925 -30.165)"/>
  </g>
</svg>
