<svg xmlns="http://www.w3.org/2000/svg" xmlns:xlink="http://www.w3.org/1999/xlink" width="1240" height="593" viewBox="0 0 1240 593">
  <defs>
    <clipPath id="clip-path">
      <rect id="Rectángulo_401216" data-name="Rectángulo 401216" width="21.329" height="18.792" fill="none" stroke="#114d74" stroke-width="1"/>
    </clipPath>
  </defs>
  <g id="Grupo_1163277" data-name="Grupo 1163277" transform="translate(-180.332 -471)">
    <path id="Trazado_1020201" data-name="Trazado 1020201" d="M20,0H1220a20,20,0,0,1,20,20V573a20,20,0,0,1-20,20H20A20,20,0,0,1,0,573V20A20,20,0,0,1,20,0Z" transform="translate(180.332 471)" fill="#f6f6f6"/>
    <g id="Grupo_1113588" data-name="Grupo 1113588" transform="translate(799.027 579.913)">
      <path id="Trazado_873496" data-name="Trazado 873496" d="M-11801-8646v71.99" transform="translate(11811.664 8646.002)" fill="none" stroke="#114d74" stroke-width="2"/>
    </g>
    <g id="Grupo_1113589" data-name="Grupo 1113589" transform="translate(358 651.59)">
      <path id="Trazado_873496-2" data-name="Trazado 873496" d="M-11801-8646v56.656" transform="translate(11811.664 8646.002)" fill="none" stroke="#114d74" stroke-width="2"/>
      <g id="Grupo_1099075" data-name="Grupo 1099075" transform="translate(0 40.874)">
        <g id="Grupo_1099074" data-name="Grupo 1099074" clip-path="url(#clip-path)">
          <path id="Trazado_873497" data-name="Trazado 873497" d="M21.182.857A21.249,21.249,0,0,0,10.848,19.1,21.248,21.248,0,0,0,.514.857" transform="translate(-0.184 -0.306)" fill="none" stroke="#114d74" stroke-miterlimit="10" stroke-width="2"/>
        </g>
      </g>
    </g>
    <g id="Grupo_1113886" data-name="Grupo 1113886" transform="translate(484 649.42)">
      <path id="Trazado_873496-3" data-name="Trazado 873496" d="M-11801-8646v56.656" transform="translate(11811.664 8646.002)" fill="none" stroke="#114d74" stroke-width="2"/>
      <g id="Grupo_1099075-2" data-name="Grupo 1099075" transform="translate(0 40.874)">
        <g id="Grupo_1099074-2" data-name="Grupo 1099074" clip-path="url(#clip-path)">
          <path id="Trazado_873497-2" data-name="Trazado 873497" d="M21.182.857A21.249,21.249,0,0,0,10.848,19.1,21.248,21.248,0,0,0,.514.857" transform="translate(-0.184 -0.306)" fill="none" stroke="#114d74" stroke-miterlimit="10" stroke-width="2"/>
        </g>
      </g>
    </g>
    <g id="Grupo_1113887" data-name="Grupo 1113887" transform="translate(602.332 651.59)">
      <path id="Trazado_873496-4" data-name="Trazado 873496" d="M-11801-8646v56.656" transform="translate(11811.664 8646.002)" fill="none" stroke="#114d74" stroke-width="2"/>
      <g id="Grupo_1099075-3" data-name="Grupo 1099075" transform="translate(0 40.874)">
        <g id="Grupo_1099074-3" data-name="Grupo 1099074" clip-path="url(#clip-path)">
          <path id="Trazado_873497-3" data-name="Trazado 873497" d="M21.182.857A21.249,21.249,0,0,0,10.848,19.1,21.248,21.248,0,0,0,.514.857" transform="translate(-0.184 -0.306)" fill="none" stroke="#114d74" stroke-miterlimit="10" stroke-width="2"/>
        </g>
      </g>
    </g>
    <g id="Grupo_1113888" data-name="Grupo 1113888" transform="translate(751.496 651.59)">
      <path id="Trazado_873496-5" data-name="Trazado 873496" d="M-11801-8646v56.656" transform="translate(11811.664 8646.002)" fill="none" stroke="#114d74" stroke-width="2"/>
      <g id="Grupo_1099075-4" data-name="Grupo 1099075" transform="translate(0 40.874)">
        <g id="Grupo_1099074-4" data-name="Grupo 1099074" clip-path="url(#clip-path)">
          <path id="Trazado_873497-4" data-name="Trazado 873497" d="M21.182.857A21.249,21.249,0,0,0,10.848,19.1,21.248,21.248,0,0,0,.514.857" transform="translate(-0.184 -0.306)" fill="none" stroke="#114d74" stroke-miterlimit="10" stroke-width="2"/>
        </g>
      </g>
    </g>
    <g id="Grupo_1113889" data-name="Grupo 1113889" transform="translate(905 649.42)">
      <path id="Trazado_873496-6" data-name="Trazado 873496" d="M-11801-8646v56.656" transform="translate(11811.664 8646.002)" fill="none" stroke="#114d74" stroke-width="2"/>
      <g id="Grupo_1099075-5" data-name="Grupo 1099075" transform="translate(0 40.874)">
        <g id="Grupo_1099074-5" data-name="Grupo 1099074" clip-path="url(#clip-path)">
          <path id="Trazado_873497-5" data-name="Trazado 873497" d="M21.182.857A21.249,21.249,0,0,0,10.848,19.1,21.248,21.248,0,0,0,.514.857" transform="translate(-0.184 -0.306)" fill="none" stroke="#114d74" stroke-miterlimit="10" stroke-width="2"/>
        </g>
      </g>
    </g>
    <g id="Grupo_1113890" data-name="Grupo 1113890" transform="translate(1034 649.42)">
      <path id="Trazado_873496-7" data-name="Trazado 873496" d="M-11801-8646v56.656" transform="translate(11811.664 8646.002)" fill="none" stroke="#114d74" stroke-width="2"/>
      <g id="Grupo_1099075-6" data-name="Grupo 1099075" transform="translate(0 40.874)">
        <g id="Grupo_1099074-6" data-name="Grupo 1099074" clip-path="url(#clip-path)">
          <path id="Trazado_873497-6" data-name="Trazado 873497" d="M21.182.857A21.249,21.249,0,0,0,10.848,19.1,21.248,21.248,0,0,0,.514.857" transform="translate(-0.184 -0.306)" fill="none" stroke="#114d74" stroke-miterlimit="10" stroke-width="2"/>
        </g>
      </g>
    </g>
    <g id="Grupo_1113891" data-name="Grupo 1113891" transform="translate(1179 651.334)">
      <path id="Trazado_873496-8" data-name="Trazado 873496" d="M-11801-8646v56.656" transform="translate(11811.664 8646.002)" fill="none" stroke="#114d74" stroke-width="2"/>
      <g id="Grupo_1099075-7" data-name="Grupo 1099075" transform="translate(0 40.874)">
        <g id="Grupo_1099074-7" data-name="Grupo 1099074" clip-path="url(#clip-path)">
          <path id="Trazado_873497-7" data-name="Trazado 873497" d="M21.182.857A21.249,21.249,0,0,0,10.848,19.1,21.248,21.248,0,0,0,.514.857" transform="translate(-0.184 -0.306)" fill="none" stroke="#114d74" stroke-miterlimit="10" stroke-width="2"/>
        </g>
      </g>
    </g>
    <g id="Grupo_1113892" data-name="Grupo 1113892" transform="translate(1310.332 651.904)">
      <path id="Trazado_873496-9" data-name="Trazado 873496" d="M-11801-8646v56.656" transform="translate(11811.664 8646.002)" fill="none" stroke="#114d74" stroke-width="2"/>
      <g id="Grupo_1099075-8" data-name="Grupo 1099075" transform="translate(0 40.874)">
        <g id="Grupo_1099074-8" data-name="Grupo 1099074" clip-path="url(#clip-path)">
          <path id="Trazado_873497-8" data-name="Trazado 873497" d="M21.182.857A21.249,21.249,0,0,0,10.848,19.1,21.248,21.248,0,0,0,.514.857" transform="translate(-0.184 -0.306)" fill="none" stroke="#114d74" stroke-miterlimit="10" stroke-width="2"/>
        </g>
      </g>
    </g>
    <path id="Trazado_1020202" data-name="Trazado 1020202" d="M4.484-1.023a2.082,2.082,0,0,0,1.352-.469,1.649,1.649,0,0,0,.641-1.172H7.844a2.621,2.621,0,0,1-.5,1.383A3.293,3.293,0,0,1,6.113-.234,3.55,3.55,0,0,1,4.484.156,3.482,3.482,0,0,1,1.738-1,4.59,4.59,0,0,1,.719-4.148v-.242a5.089,5.089,0,0,1,.453-2.2,3.451,3.451,0,0,1,1.3-1.492,3.7,3.7,0,0,1,2-.531,3.39,3.39,0,0,1,2.363.852,3.043,3.043,0,0,1,1,2.211H6.477a1.992,1.992,0,0,0-.621-1.348,1.932,1.932,0,0,0-1.379-.527,2.023,2.023,0,0,0-1.707.793,3.724,3.724,0,0,0-.605,2.293v.273a3.65,3.65,0,0,0,.6,2.25A2.033,2.033,0,0,0,4.484-1.023ZM9.086-4.3a4.993,4.993,0,0,1,.488-2.234A3.643,3.643,0,0,1,10.934-8.07a3.7,3.7,0,0,1,1.988-.539,3.565,3.565,0,0,1,2.793,1.2,4.6,4.6,0,0,1,1.066,3.18v.1a5.036,5.036,0,0,1-.473,2.215A3.589,3.589,0,0,1,14.957-.391a3.743,3.743,0,0,1-2.02.547,3.556,3.556,0,0,1-2.785-1.2A4.575,4.575,0,0,1,9.086-4.2Zm1.453.172a3.616,3.616,0,0,0,.652,2.258,2.088,2.088,0,0,0,1.746.852,2.075,2.075,0,0,0,1.75-.863A3.955,3.955,0,0,0,15.336-4.3a3.61,3.61,0,0,0-.66-2.254,2.1,2.1,0,0,0-1.754-.863A2.075,2.075,0,0,0,11.2-6.57,3.925,3.925,0,0,0,10.539-4.133Zm9.422-4.32.047,1.063a3.08,3.08,0,0,1,2.531-1.219q2.68,0,2.7,3.023V0H23.8V-5.594a1.946,1.946,0,0,0-.418-1.352A1.675,1.675,0,0,0,22.1-7.383a2.086,2.086,0,0,0-1.234.375,2.546,2.546,0,0,0-.828.984V0H18.594V-8.453ZM29.383-10.5v2.047h1.578v1.117H29.383v5.242a1.171,1.171,0,0,0,.211.762.888.888,0,0,0,.719.254A3.5,3.5,0,0,0,31-1.172V0a4.19,4.19,0,0,1-1.109.156A1.8,1.8,0,0,1,28.43-.43a2.517,2.517,0,0,1-.492-1.664V-7.336H26.4V-8.453h1.539V-10.5ZM34.219,0H32.773V-8.453h1.445ZM32.656-10.7a.863.863,0,0,1,.215-.594.807.807,0,0,1,.637-.242.819.819,0,0,1,.641.242.854.854,0,0,1,.219.594.826.826,0,0,1-.219.586.834.834,0,0,1-.641.234.821.821,0,0,1-.637-.234A.834.834,0,0,1,32.656-10.7ZM40.039.156a3.693,3.693,0,0,1-2.8-1.129,4.19,4.19,0,0,1-1.078-3.02v-.266a5.073,5.073,0,0,1,.48-2.246,3.748,3.748,0,0,1,1.344-1.547,3.378,3.378,0,0,1,1.871-.559,3.166,3.166,0,0,1,2.563,1.086,4.7,4.7,0,0,1,.914,3.109v.6H37.609a3,3,0,0,0,.73,2.02,2.3,2.3,0,0,0,1.777.77,2.517,2.517,0,0,0,1.3-.312,3.259,3.259,0,0,0,.93-.828l.883.688A3.55,3.55,0,0,1,40.039.156Zm-.18-7.578a1.928,1.928,0,0,0-1.469.637A3.1,3.1,0,0,0,37.656-5h4.234v-.109A2.753,2.753,0,0,0,41.3-6.816,1.815,1.815,0,0,0,39.859-7.422Zm6.516-1.031.047,1.063a3.08,3.08,0,0,1,2.531-1.219q2.68,0,2.7,3.023V0H50.211V-5.594a1.946,1.946,0,0,0-.418-1.352,1.675,1.675,0,0,0-1.277-.437,2.086,2.086,0,0,0-1.234.375,2.546,2.546,0,0,0-.828.984V0H45.008V-8.453ZM57.344.156a3.693,3.693,0,0,1-2.8-1.129,4.19,4.19,0,0,1-1.078-3.02v-.266a5.073,5.073,0,0,1,.48-2.246,3.748,3.748,0,0,1,1.344-1.547,3.378,3.378,0,0,1,1.871-.559,3.166,3.166,0,0,1,2.563,1.086,4.7,4.7,0,0,1,.914,3.109v.6H54.914a3,3,0,0,0,.73,2.02,2.3,2.3,0,0,0,1.777.77,2.517,2.517,0,0,0,1.3-.312,3.259,3.259,0,0,0,.93-.828l.883.688A3.55,3.55,0,0,1,57.344.156Zm-.18-7.578a1.928,1.928,0,0,0-1.469.637A3.1,3.1,0,0,0,54.961-5H59.2v-.109A2.753,2.753,0,0,0,58.6-6.816,1.815,1.815,0,0,0,57.164-7.422Z" transform="translate(827.832 618)" fill="#12263f"/>
    <path id="Trazado_1020203" data-name="Trazado 1020203" d="M4.484-1.023a2.082,2.082,0,0,0,1.352-.469,1.649,1.649,0,0,0,.641-1.172H7.844a2.621,2.621,0,0,1-.5,1.383A3.293,3.293,0,0,1,6.113-.234,3.55,3.55,0,0,1,4.484.156,3.482,3.482,0,0,1,1.738-1,4.59,4.59,0,0,1,.719-4.148v-.242a5.089,5.089,0,0,1,.453-2.2,3.451,3.451,0,0,1,1.3-1.492,3.7,3.7,0,0,1,2-.531,3.39,3.39,0,0,1,2.363.852,3.043,3.043,0,0,1,1,2.211H6.477a1.992,1.992,0,0,0-.621-1.348,1.932,1.932,0,0,0-1.379-.527,2.023,2.023,0,0,0-1.707.793,3.724,3.724,0,0,0-.605,2.293v.273a3.65,3.65,0,0,0,.6,2.25A2.033,2.033,0,0,0,4.484-1.023ZM9.086-4.3a4.993,4.993,0,0,1,.488-2.234A3.643,3.643,0,0,1,10.934-8.07a3.7,3.7,0,0,1,1.988-.539,3.565,3.565,0,0,1,2.793,1.2,4.6,4.6,0,0,1,1.066,3.18v.1a5.036,5.036,0,0,1-.473,2.215A3.589,3.589,0,0,1,14.957-.391a3.743,3.743,0,0,1-2.02.547,3.556,3.556,0,0,1-2.785-1.2A4.575,4.575,0,0,1,9.086-4.2Zm1.453.172a3.616,3.616,0,0,0,.652,2.258,2.088,2.088,0,0,0,1.746.852,2.075,2.075,0,0,0,1.75-.863A3.955,3.955,0,0,0,15.336-4.3a3.61,3.61,0,0,0-.66-2.254,2.1,2.1,0,0,0-1.754-.863A2.075,2.075,0,0,0,11.2-6.57,3.925,3.925,0,0,0,10.539-4.133Zm9.422-4.32.047,1.063a3.08,3.08,0,0,1,2.531-1.219q2.68,0,2.7,3.023V0H23.8V-5.594a1.946,1.946,0,0,0-.418-1.352A1.675,1.675,0,0,0,22.1-7.383a2.086,2.086,0,0,0-1.234.375,2.546,2.546,0,0,0-.828.984V0H18.594V-8.453ZM29.383-10.5v2.047h1.578v1.117H29.383v5.242a1.171,1.171,0,0,0,.211.762.888.888,0,0,0,.719.254A3.5,3.5,0,0,0,31-1.172V0a4.19,4.19,0,0,1-1.109.156A1.8,1.8,0,0,1,28.43-.43a2.517,2.517,0,0,1-.492-1.664V-7.336H26.4V-8.453h1.539V-10.5ZM34.219,0H32.773V-8.453h1.445ZM32.656-10.7a.863.863,0,0,1,.215-.594.807.807,0,0,1,.637-.242.819.819,0,0,1,.641.242.854.854,0,0,1,.219.594.826.826,0,0,1-.219.586.834.834,0,0,1-.641.234.821.821,0,0,1-.637-.234A.834.834,0,0,1,32.656-10.7ZM40.039.156a3.693,3.693,0,0,1-2.8-1.129,4.19,4.19,0,0,1-1.078-3.02v-.266a5.073,5.073,0,0,1,.48-2.246,3.748,3.748,0,0,1,1.344-1.547,3.378,3.378,0,0,1,1.871-.559,3.166,3.166,0,0,1,2.563,1.086,4.7,4.7,0,0,1,.914,3.109v.6H37.609a3,3,0,0,0,.73,2.02,2.3,2.3,0,0,0,1.777.77,2.517,2.517,0,0,0,1.3-.312,3.259,3.259,0,0,0,.93-.828l.883.688A3.55,3.55,0,0,1,40.039.156Zm-.18-7.578a1.928,1.928,0,0,0-1.469.637A3.1,3.1,0,0,0,37.656-5h4.234v-.109A2.753,2.753,0,0,0,41.3-6.816,1.815,1.815,0,0,0,39.859-7.422Zm6.516-1.031.047,1.063a3.08,3.08,0,0,1,2.531-1.219q2.68,0,2.7,3.023V0H50.211V-5.594a1.946,1.946,0,0,0-.418-1.352,1.675,1.675,0,0,0-1.277-.437,2.086,2.086,0,0,0-1.234.375,2.546,2.546,0,0,0-.828.984V0H45.008V-8.453ZM57.344.156a3.693,3.693,0,0,1-2.8-1.129,4.19,4.19,0,0,1-1.078-3.02v-.266a5.073,5.073,0,0,1,.48-2.246,3.748,3.748,0,0,1,1.344-1.547,3.378,3.378,0,0,1,1.871-.559,3.166,3.166,0,0,1,2.563,1.086,4.7,4.7,0,0,1,.914,3.109v.6H54.914a3,3,0,0,0,.73,2.02,2.3,2.3,0,0,0,1.777.77,2.517,2.517,0,0,0,1.3-.312,3.259,3.259,0,0,0,.93-.828l.883.688A3.55,3.55,0,0,1,57.344.156Zm-.18-7.578a1.928,1.928,0,0,0-1.469.637A3.1,3.1,0,0,0,54.961-5H59.2v-.109A2.753,2.753,0,0,0,58.6-6.816,1.815,1.815,0,0,0,57.164-7.422Z" transform="translate(1331.662 679)" fill="#12263f"/>
    <path id="Trazado_1020204" data-name="Trazado 1020204" d="M4.484-1.023a2.082,2.082,0,0,0,1.352-.469,1.649,1.649,0,0,0,.641-1.172H7.844a2.621,2.621,0,0,1-.5,1.383A3.293,3.293,0,0,1,6.113-.234,3.55,3.55,0,0,1,4.484.156,3.482,3.482,0,0,1,1.738-1,4.59,4.59,0,0,1,.719-4.148v-.242a5.089,5.089,0,0,1,.453-2.2,3.451,3.451,0,0,1,1.3-1.492,3.7,3.7,0,0,1,2-.531,3.39,3.39,0,0,1,2.363.852,3.043,3.043,0,0,1,1,2.211H6.477a1.992,1.992,0,0,0-.621-1.348,1.932,1.932,0,0,0-1.379-.527,2.023,2.023,0,0,0-1.707.793,3.724,3.724,0,0,0-.605,2.293v.273a3.65,3.65,0,0,0,.6,2.25A2.033,2.033,0,0,0,4.484-1.023ZM9.086-4.3a4.993,4.993,0,0,1,.488-2.234A3.643,3.643,0,0,1,10.934-8.07a3.7,3.7,0,0,1,1.988-.539,3.565,3.565,0,0,1,2.793,1.2,4.6,4.6,0,0,1,1.066,3.18v.1a5.036,5.036,0,0,1-.473,2.215A3.589,3.589,0,0,1,14.957-.391a3.743,3.743,0,0,1-2.02.547,3.556,3.556,0,0,1-2.785-1.2A4.575,4.575,0,0,1,9.086-4.2Zm1.453.172a3.616,3.616,0,0,0,.652,2.258,2.088,2.088,0,0,0,1.746.852,2.075,2.075,0,0,0,1.75-.863A3.955,3.955,0,0,0,15.336-4.3a3.61,3.61,0,0,0-.66-2.254,2.1,2.1,0,0,0-1.754-.863A2.075,2.075,0,0,0,11.2-6.57,3.925,3.925,0,0,0,10.539-4.133Zm9.422-4.32.047,1.063a3.08,3.08,0,0,1,2.531-1.219q2.68,0,2.7,3.023V0H23.8V-5.594a1.946,1.946,0,0,0-.418-1.352A1.675,1.675,0,0,0,22.1-7.383a2.086,2.086,0,0,0-1.234.375,2.546,2.546,0,0,0-.828.984V0H18.594V-8.453ZM29.383-10.5v2.047h1.578v1.117H29.383v5.242a1.171,1.171,0,0,0,.211.762.888.888,0,0,0,.719.254A3.5,3.5,0,0,0,31-1.172V0a4.19,4.19,0,0,1-1.109.156A1.8,1.8,0,0,1,28.43-.43a2.517,2.517,0,0,1-.492-1.664V-7.336H26.4V-8.453h1.539V-10.5ZM34.219,0H32.773V-8.453h1.445ZM32.656-10.7a.863.863,0,0,1,.215-.594.807.807,0,0,1,.637-.242.819.819,0,0,1,.641.242.854.854,0,0,1,.219.594.826.826,0,0,1-.219.586.834.834,0,0,1-.641.234.821.821,0,0,1-.637-.234A.834.834,0,0,1,32.656-10.7ZM40.039.156a3.693,3.693,0,0,1-2.8-1.129,4.19,4.19,0,0,1-1.078-3.02v-.266a5.073,5.073,0,0,1,.48-2.246,3.748,3.748,0,0,1,1.344-1.547,3.378,3.378,0,0,1,1.871-.559,3.166,3.166,0,0,1,2.563,1.086,4.7,4.7,0,0,1,.914,3.109v.6H37.609a3,3,0,0,0,.73,2.02,2.3,2.3,0,0,0,1.777.77,2.517,2.517,0,0,0,1.3-.312,3.259,3.259,0,0,0,.93-.828l.883.688A3.55,3.55,0,0,1,40.039.156Zm-.18-7.578a1.928,1.928,0,0,0-1.469.637A3.1,3.1,0,0,0,37.656-5h4.234v-.109A2.753,2.753,0,0,0,41.3-6.816,1.815,1.815,0,0,0,39.859-7.422Zm6.516-1.031.047,1.063a3.08,3.08,0,0,1,2.531-1.219q2.68,0,2.7,3.023V0H50.211V-5.594a1.946,1.946,0,0,0-.418-1.352,1.675,1.675,0,0,0-1.277-.437,2.086,2.086,0,0,0-1.234.375,2.546,2.546,0,0,0-.828.984V0H45.008V-8.453ZM57.344.156a3.693,3.693,0,0,1-2.8-1.129,4.19,4.19,0,0,1-1.078-3.02v-.266a5.073,5.073,0,0,1,.48-2.246,3.748,3.748,0,0,1,1.344-1.547,3.378,3.378,0,0,1,1.871-.559,3.166,3.166,0,0,1,2.563,1.086,4.7,4.7,0,0,1,.914,3.109v.6H54.914a3,3,0,0,0,.73,2.02,2.3,2.3,0,0,0,1.777.77,2.517,2.517,0,0,0,1.3-.312,3.259,3.259,0,0,0,.93-.828l.883.688A3.55,3.55,0,0,1,57.344.156Zm-.18-7.578a1.928,1.928,0,0,0-1.469.637A3.1,3.1,0,0,0,54.961-5H59.2v-.109A2.753,2.753,0,0,0,58.6-6.816,1.815,1.815,0,0,0,57.164-7.422Z" transform="translate(932.43 679)" fill="#12263f"/>
    <g id="Grupo_1113595" data-name="Grupo 1113595" transform="translate(218.332 650.913)">
      <path id="Trazado_873496-10" data-name="Trazado 873496" d="M-11801-8588.72V-8646h1092" transform="translate(11811.665 8646.002)" fill="none" stroke="#114d74" stroke-width="2"/>
      <g id="Grupo_1099075-9" data-name="Grupo 1099075" transform="translate(0 41.5)">
        <g id="Grupo_1099074-9" data-name="Grupo 1099074" clip-path="url(#clip-path)">
          <path id="Trazado_873497-9" data-name="Trazado 873497" d="M21.182.857A21.249,21.249,0,0,0,10.848,19.1,21.248,21.248,0,0,0,.514.857" transform="translate(-0.184 -0.306)" fill="none" stroke="#114d74" stroke-miterlimit="10" stroke-width="2"/>
        </g>
      </g>
    </g>
    <path id="Trazado_1020205" data-name="Trazado 1020205" d="M5.523,0a2.657,2.657,0,0,1-.178-.779A2.822,2.822,0,0,1,3.24.137,2.611,2.611,0,0,1,1.446-.482a2,2,0,0,1-.7-1.569,2.091,2.091,0,0,1,.878-1.794,4.142,4.142,0,0,1,2.471-.639h1.23v-.581a1.42,1.42,0,0,0-.4-1.056A1.593,1.593,0,0,0,3.76-6.515a1.844,1.844,0,0,0-1.135.342,1.007,1.007,0,0,0-.458.827H.9a1.745,1.745,0,0,1,.393-1.07,2.683,2.683,0,0,1,1.066-.817,3.588,3.588,0,0,1,1.48-.3,2.924,2.924,0,0,1,2,.639,2.306,2.306,0,0,1,.752,1.76v3.4a4.162,4.162,0,0,0,.26,1.62V0Zm-2.1-.964a2.223,2.223,0,0,0,1.128-.308,1.861,1.861,0,0,0,.772-.8V-3.589H4.334q-2.324,0-2.324,1.36a1.151,1.151,0,0,0,.4.93A1.524,1.524,0,0,0,3.425-.964ZM14.834-3.616a4.4,4.4,0,0,1-.779,2.724A2.49,2.49,0,0,1,11.963.137,2.578,2.578,0,0,1,9.8-.854L9.734,0H8.572V-10.5H9.837v3.917a2.564,2.564,0,0,1,2.112-.95,2.505,2.505,0,0,1,2.116,1.019,4.53,4.53,0,0,1,.769,2.789ZM13.569-3.76a3.417,3.417,0,0,0-.5-2,1.652,1.652,0,0,0-1.436-.7A1.857,1.857,0,0,0,9.837-5.3v3.2A1.909,1.909,0,0,0,11.648-.937a1.643,1.643,0,0,0,1.415-.7A3.634,3.634,0,0,0,13.569-3.76ZM20.993,0a2.657,2.657,0,0,1-.178-.779A2.822,2.822,0,0,1,18.71.137a2.611,2.611,0,0,1-1.794-.619,2,2,0,0,1-.7-1.569,2.091,2.091,0,0,1,.878-1.794,4.142,4.142,0,0,1,2.471-.639h1.23v-.581a1.42,1.42,0,0,0-.4-1.056,1.593,1.593,0,0,0-1.169-.393,1.844,1.844,0,0,0-1.135.342,1.007,1.007,0,0,0-.458.827H16.365a1.745,1.745,0,0,1,.393-1.07,2.683,2.683,0,0,1,1.066-.817,3.588,3.588,0,0,1,1.48-.3,2.924,2.924,0,0,1,2,.639,2.306,2.306,0,0,1,.752,1.76v3.4a4.162,4.162,0,0,0,.26,1.62V0Zm-2.1-.964a2.223,2.223,0,0,0,1.128-.308,1.861,1.861,0,0,0,.772-.8V-3.589H19.8q-2.324,0-2.324,1.36a1.151,1.151,0,0,0,.4.93A1.524,1.524,0,0,0,18.895-.964Zm8.723-5.3A3.79,3.79,0,0,0,27-6.31a1.667,1.667,0,0,0-1.688,1.06V0H24.042V-7.4h1.23l.021.854a1.969,1.969,0,0,1,1.764-.991,1.292,1.292,0,0,1,.561.1Zm4,5.366a1.822,1.822,0,0,0,1.183-.41,1.443,1.443,0,0,0,.561-1.025h1.2a2.293,2.293,0,0,1-.437,1.21,2.881,2.881,0,0,1-1.077.916,3.107,3.107,0,0,1-1.425.342,3.047,3.047,0,0,1-2.4-1.008,4.016,4.016,0,0,1-.892-2.758v-.212a4.453,4.453,0,0,1,.4-1.921,3.02,3.02,0,0,1,1.138-1.306,3.233,3.233,0,0,1,1.753-.465,2.966,2.966,0,0,1,2.068.745,2.663,2.663,0,0,1,.878,1.935h-1.2a1.743,1.743,0,0,0-.543-1.179,1.691,1.691,0,0,0-1.207-.461,1.77,1.77,0,0,0-1.494.694,3.259,3.259,0,0,0-.53,2.006v.239a3.194,3.194,0,0,0,.526,1.969A1.779,1.779,0,0,0,31.616-.9Zm8.928.9a2.657,2.657,0,0,1-.178-.779,2.822,2.822,0,0,1-2.105.916,2.611,2.611,0,0,1-1.794-.619,2,2,0,0,1-.7-1.569,2.091,2.091,0,0,1,.878-1.794,4.142,4.142,0,0,1,2.471-.639h1.23v-.581a1.42,1.42,0,0,0-.4-1.056,1.593,1.593,0,0,0-1.169-.393,1.844,1.844,0,0,0-1.135.342,1.007,1.007,0,0,0-.458.827H35.916a1.745,1.745,0,0,1,.393-1.07,2.683,2.683,0,0,1,1.066-.817,3.588,3.588,0,0,1,1.48-.3,2.924,2.924,0,0,1,2,.639,2.306,2.306,0,0,1,.752,1.76v3.4a4.162,4.162,0,0,0,.26,1.62V0Zm-2.1-.964a2.223,2.223,0,0,0,1.128-.308,1.861,1.861,0,0,0,.772-.8V-3.589h-.991q-2.324,0-2.324,1.36a1.151,1.151,0,0,0,.4.93A1.524,1.524,0,0,0,38.445-.964Z" transform="translate(251.5 677)" fill="#12263f"/>
    <g id="Grupo_1113862" data-name="Grupo 1113862" transform="translate(-12.439 -31.257)">
      <path id="Trazado_917861" data-name="Trazado 917861" d="M-10775.877-8783.939v183.134" transform="translate(10993.516 9592.346)" fill="none" stroke="#114d74" stroke-width="2"/>
      <rect id="Rectángulo_411195" data-name="Rectángulo 411195" width="106.684" height="35.01" rx="11" transform="translate(228.427 924)" fill="#e6faee"/>
      <text id="Oportunidades" transform="translate(281.243 946.936)" fill="#12263f" font-size="14" font-family="Roboto-Regular, Roboto"><tspan x="-45.999" y="0">Oportunidades</tspan></text>
      <rect id="Rectángulo_411196" data-name="Rectángulo 411196" width="94.471" height="48.01" rx="11" transform="translate(229.456 964.425)" fill="#e6faee"/>
      <rect id="Rectángulo_411295" data-name="Rectángulo 411295" width="86.154" height="100.01" rx="11" transform="translate(226.772 818.441)" fill="#e6faee"/>
      <text id="Tendencias_del_mercado" data-name="Tendencias 
del mercado" transform="translate(276.914 984.61)" fill="#12263f" font-size="14" font-family="Roboto-Regular, Roboto"><tspan x="-37.779" y="0">Tendencias </tspan><tspan x="-38.647" y="20">del mercado</tspan></text>
      <g id="Grupo_1113617" data-name="Grupo 1113617" transform="translate(217.639 875.861) rotate(-90)">
        <path id="Trazado_873496-11" data-name="Trazado 873496" d="M0,0V9.134" transform="translate(7.414)" fill="none" stroke="#114d74" stroke-width="2"/>
      </g>
      <g id="Grupo_1113854" data-name="Grupo 1113854" transform="translate(217.639 952.85) rotate(-90)">
        <path id="Trazado_873496-12" data-name="Trazado 873496" d="M0,0V9.134" transform="translate(7.414)" fill="none" stroke="#114d74" stroke-width="2"/>
      </g>
      <g id="Grupo_1113855" data-name="Grupo 1113855" transform="translate(218.639 997.954) rotate(-90)">
        <path id="Trazado_873496-13" data-name="Trazado 873496" d="M0,0V9.134" transform="translate(7.414)" fill="none" stroke="#114d74" stroke-width="2"/>
      </g>
      <rect id="Rectángulo_411197" data-name="Rectángulo 411197" width="119.471" height="69.148" rx="11" transform="translate(207.772 742.257)" fill="#85e5aa"/>
      <text id="Movilidad_inteligente" data-name="Movilidad 
inteligente" transform="translate(265.456 771.767)" fill="#12263f" font-size="14" font-family="Roboto-Bold, Roboto" font-weight="700"><tspan x="-32.529" y="0">Movilidad </tspan><tspan x="-33.486" y="20">inteligente</tspan></text>
      <text id="Marco_referencial_y_legal_en_Colombia" data-name="Marco referencial y legal en Colombia" transform="translate(238.914 829.998)" fill="#12263f" font-size="14" font-family="Roboto-Regular, Roboto"><tspan x="0" y="15">Marco </tspan><tspan x="0" y="35">referencial </tspan><tspan x="0" y="55">y legal en </tspan><tspan x="0" y="75">Colombia</tspan></text>
    </g>
    <path id="Trazado_1020206" data-name="Trazado 1020206" d="M5.523,0a2.657,2.657,0,0,1-.178-.779A2.822,2.822,0,0,1,3.24.137,2.611,2.611,0,0,1,1.446-.482a2,2,0,0,1-.7-1.569,2.091,2.091,0,0,1,.878-1.794,4.142,4.142,0,0,1,2.471-.639h1.23v-.581a1.42,1.42,0,0,0-.4-1.056A1.593,1.593,0,0,0,3.76-6.515a1.844,1.844,0,0,0-1.135.342,1.007,1.007,0,0,0-.458.827H.9a1.745,1.745,0,0,1,.393-1.07,2.683,2.683,0,0,1,1.066-.817,3.588,3.588,0,0,1,1.48-.3,2.924,2.924,0,0,1,2,.639,2.306,2.306,0,0,1,.752,1.76v3.4a4.162,4.162,0,0,0,.26,1.62V0Zm-2.1-.964a2.223,2.223,0,0,0,1.128-.308,1.861,1.861,0,0,0,.772-.8V-3.589H4.334q-2.324,0-2.324,1.36a1.151,1.151,0,0,0,.4.93A1.524,1.524,0,0,0,3.425-.964ZM14.834-3.616a4.4,4.4,0,0,1-.779,2.724A2.49,2.49,0,0,1,11.963.137,2.578,2.578,0,0,1,9.8-.854L9.734,0H8.572V-10.5H9.837v3.917a2.564,2.564,0,0,1,2.112-.95,2.505,2.505,0,0,1,2.116,1.019,4.53,4.53,0,0,1,.769,2.789ZM13.569-3.76a3.417,3.417,0,0,0-.5-2,1.652,1.652,0,0,0-1.436-.7A1.857,1.857,0,0,0,9.837-5.3v3.2A1.909,1.909,0,0,0,11.648-.937a1.643,1.643,0,0,0,1.415-.7A3.634,3.634,0,0,0,13.569-3.76ZM20.993,0a2.657,2.657,0,0,1-.178-.779A2.822,2.822,0,0,1,18.71.137a2.611,2.611,0,0,1-1.794-.619,2,2,0,0,1-.7-1.569,2.091,2.091,0,0,1,.878-1.794,4.142,4.142,0,0,1,2.471-.639h1.23v-.581a1.42,1.42,0,0,0-.4-1.056,1.593,1.593,0,0,0-1.169-.393,1.844,1.844,0,0,0-1.135.342,1.007,1.007,0,0,0-.458.827H16.365a1.745,1.745,0,0,1,.393-1.07,2.683,2.683,0,0,1,1.066-.817,3.588,3.588,0,0,1,1.48-.3,2.924,2.924,0,0,1,2,.639,2.306,2.306,0,0,1,.752,1.76v3.4a4.162,4.162,0,0,0,.26,1.62V0Zm-2.1-.964a2.223,2.223,0,0,0,1.128-.308,1.861,1.861,0,0,0,.772-.8V-3.589H19.8q-2.324,0-2.324,1.36a1.151,1.151,0,0,0,.4.93A1.524,1.524,0,0,0,18.895-.964Zm8.723-5.3A3.79,3.79,0,0,0,27-6.31a1.667,1.667,0,0,0-1.688,1.06V0H24.042V-7.4h1.23l.021.854a1.969,1.969,0,0,1,1.764-.991,1.292,1.292,0,0,1,.561.1Zm4,5.366a1.822,1.822,0,0,0,1.183-.41,1.443,1.443,0,0,0,.561-1.025h1.2a2.293,2.293,0,0,1-.437,1.21,2.881,2.881,0,0,1-1.077.916,3.107,3.107,0,0,1-1.425.342,3.047,3.047,0,0,1-2.4-1.008,4.016,4.016,0,0,1-.892-2.758v-.212a4.453,4.453,0,0,1,.4-1.921,3.02,3.02,0,0,1,1.138-1.306,3.233,3.233,0,0,1,1.753-.465,2.966,2.966,0,0,1,2.068.745,2.663,2.663,0,0,1,.878,1.935h-1.2a1.743,1.743,0,0,0-.543-1.179,1.691,1.691,0,0,0-1.207-.461,1.77,1.77,0,0,0-1.494.694,3.259,3.259,0,0,0-.53,2.006v.239a3.194,3.194,0,0,0,.526,1.969A1.779,1.779,0,0,0,31.616-.9Zm8.928.9a2.657,2.657,0,0,1-.178-.779,2.822,2.822,0,0,1-2.105.916,2.611,2.611,0,0,1-1.794-.619,2,2,0,0,1-.7-1.569,2.091,2.091,0,0,1,.878-1.794,4.142,4.142,0,0,1,2.471-.639h1.23v-.581a1.42,1.42,0,0,0-.4-1.056,1.593,1.593,0,0,0-1.169-.393,1.844,1.844,0,0,0-1.135.342,1.007,1.007,0,0,0-.458.827H35.916a1.745,1.745,0,0,1,.393-1.07,2.683,2.683,0,0,1,1.066-.817,3.588,3.588,0,0,1,1.48-.3,2.924,2.924,0,0,1,2,.639,2.306,2.306,0,0,1,.752,1.76v3.4a4.162,4.162,0,0,0,.26,1.62V0Zm-2.1-.964a2.223,2.223,0,0,0,1.128-.308,1.861,1.861,0,0,0,.772-.8V-3.589h-.991q-2.324,0-2.324,1.36a1.151,1.151,0,0,0,.4.93A1.524,1.524,0,0,0,38.445-.964Z" transform="translate(635.979 677)" fill="#12263f"/>
    <path id="Trazado_1020207" data-name="Trazado 1020207" d="M5.523,0a2.657,2.657,0,0,1-.178-.779A2.822,2.822,0,0,1,3.24.137,2.611,2.611,0,0,1,1.446-.482a2,2,0,0,1-.7-1.569,2.091,2.091,0,0,1,.878-1.794,4.142,4.142,0,0,1,2.471-.639h1.23v-.581a1.42,1.42,0,0,0-.4-1.056A1.593,1.593,0,0,0,3.76-6.515a1.844,1.844,0,0,0-1.135.342,1.007,1.007,0,0,0-.458.827H.9a1.745,1.745,0,0,1,.393-1.07,2.683,2.683,0,0,1,1.066-.817,3.588,3.588,0,0,1,1.48-.3,2.924,2.924,0,0,1,2,.639,2.306,2.306,0,0,1,.752,1.76v3.4a4.162,4.162,0,0,0,.26,1.62V0Zm-2.1-.964a2.223,2.223,0,0,0,1.128-.308,1.861,1.861,0,0,0,.772-.8V-3.589H4.334q-2.324,0-2.324,1.36a1.151,1.151,0,0,0,.4.93A1.524,1.524,0,0,0,3.425-.964ZM14.834-3.616a4.4,4.4,0,0,1-.779,2.724A2.49,2.49,0,0,1,11.963.137,2.578,2.578,0,0,1,9.8-.854L9.734,0H8.572V-10.5H9.837v3.917a2.564,2.564,0,0,1,2.112-.95,2.505,2.505,0,0,1,2.116,1.019,4.53,4.53,0,0,1,.769,2.789ZM13.569-3.76a3.417,3.417,0,0,0-.5-2,1.652,1.652,0,0,0-1.436-.7A1.857,1.857,0,0,0,9.837-5.3v3.2A1.909,1.909,0,0,0,11.648-.937a1.643,1.643,0,0,0,1.415-.7A3.634,3.634,0,0,0,13.569-3.76ZM20.993,0a2.657,2.657,0,0,1-.178-.779A2.822,2.822,0,0,1,18.71.137a2.611,2.611,0,0,1-1.794-.619,2,2,0,0,1-.7-1.569,2.091,2.091,0,0,1,.878-1.794,4.142,4.142,0,0,1,2.471-.639h1.23v-.581a1.42,1.42,0,0,0-.4-1.056,1.593,1.593,0,0,0-1.169-.393,1.844,1.844,0,0,0-1.135.342,1.007,1.007,0,0,0-.458.827H16.365a1.745,1.745,0,0,1,.393-1.07,2.683,2.683,0,0,1,1.066-.817,3.588,3.588,0,0,1,1.48-.3,2.924,2.924,0,0,1,2,.639,2.306,2.306,0,0,1,.752,1.76v3.4a4.162,4.162,0,0,0,.26,1.62V0Zm-2.1-.964a2.223,2.223,0,0,0,1.128-.308,1.861,1.861,0,0,0,.772-.8V-3.589H19.8q-2.324,0-2.324,1.36a1.151,1.151,0,0,0,.4.93A1.524,1.524,0,0,0,18.895-.964Zm8.723-5.3A3.79,3.79,0,0,0,27-6.31a1.667,1.667,0,0,0-1.688,1.06V0H24.042V-7.4h1.23l.021.854a1.969,1.969,0,0,1,1.764-.991,1.292,1.292,0,0,1,.561.1Zm4,5.366a1.822,1.822,0,0,0,1.183-.41,1.443,1.443,0,0,0,.561-1.025h1.2a2.293,2.293,0,0,1-.437,1.21,2.881,2.881,0,0,1-1.077.916,3.107,3.107,0,0,1-1.425.342,3.047,3.047,0,0,1-2.4-1.008,4.016,4.016,0,0,1-.892-2.758v-.212a4.453,4.453,0,0,1,.4-1.921,3.02,3.02,0,0,1,1.138-1.306,3.233,3.233,0,0,1,1.753-.465,2.966,2.966,0,0,1,2.068.745,2.663,2.663,0,0,1,.878,1.935h-1.2a1.743,1.743,0,0,0-.543-1.179,1.691,1.691,0,0,0-1.207-.461,1.77,1.77,0,0,0-1.494.694,3.259,3.259,0,0,0-.53,2.006v.239a3.194,3.194,0,0,0,.526,1.969A1.779,1.779,0,0,0,31.616-.9Zm8.928.9a2.657,2.657,0,0,1-.178-.779,2.822,2.822,0,0,1-2.105.916,2.611,2.611,0,0,1-1.794-.619,2,2,0,0,1-.7-1.569,2.091,2.091,0,0,1,.878-1.794,4.142,4.142,0,0,1,2.471-.639h1.23v-.581a1.42,1.42,0,0,0-.4-1.056,1.593,1.593,0,0,0-1.169-.393,1.844,1.844,0,0,0-1.135.342,1.007,1.007,0,0,0-.458.827H35.916a1.745,1.745,0,0,1,.393-1.07,2.683,2.683,0,0,1,1.066-.817,3.588,3.588,0,0,1,1.48-.3,2.924,2.924,0,0,1,2,.639,2.306,2.306,0,0,1,.752,1.76v3.4a4.162,4.162,0,0,0,.26,1.62V0Zm-2.1-.964a2.223,2.223,0,0,0,1.128-.308,1.861,1.861,0,0,0,.772-.8V-3.589h-.991q-2.324,0-2.324,1.36a1.151,1.151,0,0,0,.4.93A1.524,1.524,0,0,0,38.445-.964Z" transform="translate(1067.645 677)" fill="#12263f"/>
    <path id="Trazado_1020208" data-name="Trazado 1020208" d="M2.331,0H1.066V-7.4H2.331ZM.964-9.358a.755.755,0,0,1,.188-.52.706.706,0,0,1,.557-.212.717.717,0,0,1,.561.212.747.747,0,0,1,.191.52.722.722,0,0,1-.191.513.73.73,0,0,1-.561.205.718.718,0,0,1-.557-.205A.73.73,0,0,1,.964-9.358ZM5.551-7.4l.041.93A2.7,2.7,0,0,1,7.807-7.533q2.345,0,2.365,2.646V0H8.907V-4.895a1.7,1.7,0,0,0-.366-1.183A1.466,1.466,0,0,0,7.424-6.46a1.825,1.825,0,0,0-1.08.328,2.228,2.228,0,0,0-.725.861V0H4.354V-7.4Zm9.5,6.5a1.822,1.822,0,0,0,1.183-.41,1.443,1.443,0,0,0,.561-1.025h1.2a2.293,2.293,0,0,1-.437,1.21,2.881,2.881,0,0,1-1.077.916,3.107,3.107,0,0,1-1.425.342,3.047,3.047,0,0,1-2.4-1.008,4.016,4.016,0,0,1-.892-2.758v-.212a4.453,4.453,0,0,1,.4-1.921,3.02,3.02,0,0,1,1.138-1.306,3.233,3.233,0,0,1,1.753-.465,2.966,2.966,0,0,1,2.068.745,2.663,2.663,0,0,1,.878,1.935h-1.2a1.743,1.743,0,0,0-.543-1.179,1.691,1.691,0,0,0-1.207-.461,1.77,1.77,0,0,0-1.494.694,3.259,3.259,0,0,0-.53,2.006v.239a3.194,3.194,0,0,0,.526,1.969A1.779,1.779,0,0,0,15.046-.9Zm5.735.9H19.517V-10.5h1.265Zm6.59-.731A2.686,2.686,0,0,1,25.2.137,2.3,2.3,0,0,1,23.4-.55a2.974,2.974,0,0,1-.625-2.034V-7.4h1.265v4.778q0,1.682,1.367,1.682a1.893,1.893,0,0,0,1.928-1.08V-7.4H28.6V0H27.4Zm5.571-1.121L34.665-7.4h1.354L33.045,1.142q-.69,1.846-2.194,1.846l-.239-.021-.472-.089V1.853l.342.027a1.683,1.683,0,0,0,1-.26,1.88,1.88,0,0,0,.591-.95l.28-.752L29.716-7.4H31.1ZM40.216.137a3.232,3.232,0,0,1-2.447-.988,3.666,3.666,0,0,1-.943-2.642v-.232a4.438,4.438,0,0,1,.42-1.965,3.28,3.28,0,0,1,1.176-1.354,2.956,2.956,0,0,1,1.637-.489,2.77,2.77,0,0,1,2.242.95,4.114,4.114,0,0,1,.8,2.721v.526H38.09a2.629,2.629,0,0,0,.639,1.767A2.009,2.009,0,0,0,40.284-.9a2.2,2.2,0,0,0,1.135-.273,2.851,2.851,0,0,0,.813-.725l.772.6A3.106,3.106,0,0,1,40.216.137Zm-.157-6.631a1.687,1.687,0,0,0-1.285.557,2.708,2.708,0,0,0-.643,1.562h3.705v-.1a2.409,2.409,0,0,0-.52-1.494A1.588,1.588,0,0,0,40.059-6.494Z" transform="translate(385.43 677)" fill="#12263f"/>
    <path id="Trazado_1020209" data-name="Trazado 1020209" d="M2.331,0H1.066V-7.4H2.331ZM.964-9.358a.755.755,0,0,1,.188-.52.706.706,0,0,1,.557-.212.717.717,0,0,1,.561.212.747.747,0,0,1,.191.52.722.722,0,0,1-.191.513.73.73,0,0,1-.561.205.718.718,0,0,1-.557-.205A.73.73,0,0,1,.964-9.358ZM5.551-7.4l.041.93A2.7,2.7,0,0,1,7.807-7.533q2.345,0,2.365,2.646V0H8.907V-4.895a1.7,1.7,0,0,0-.366-1.183A1.466,1.466,0,0,0,7.424-6.46a1.825,1.825,0,0,0-1.08.328,2.228,2.228,0,0,0-.725.861V0H4.354V-7.4Zm9.5,6.5a1.822,1.822,0,0,0,1.183-.41,1.443,1.443,0,0,0,.561-1.025h1.2a2.293,2.293,0,0,1-.437,1.21,2.881,2.881,0,0,1-1.077.916,3.107,3.107,0,0,1-1.425.342,3.047,3.047,0,0,1-2.4-1.008,4.016,4.016,0,0,1-.892-2.758v-.212a4.453,4.453,0,0,1,.4-1.921,3.02,3.02,0,0,1,1.138-1.306,3.233,3.233,0,0,1,1.753-.465,2.966,2.966,0,0,1,2.068.745,2.663,2.663,0,0,1,.878,1.935h-1.2a1.743,1.743,0,0,0-.543-1.179,1.691,1.691,0,0,0-1.207-.461,1.77,1.77,0,0,0-1.494.694,3.259,3.259,0,0,0-.53,2.006v.239a3.194,3.194,0,0,0,.526,1.969A1.779,1.779,0,0,0,15.046-.9Zm5.735.9H19.517V-10.5h1.265Zm6.59-.731A2.686,2.686,0,0,1,25.2.137,2.3,2.3,0,0,1,23.4-.55a2.974,2.974,0,0,1-.625-2.034V-7.4h1.265v4.778q0,1.682,1.367,1.682a1.893,1.893,0,0,0,1.928-1.08V-7.4H28.6V0H27.4Zm5.571-1.121L34.665-7.4h1.354L33.045,1.142q-.69,1.846-2.194,1.846l-.239-.021-.472-.089V1.853l.342.027a1.683,1.683,0,0,0,1-.26,1.88,1.88,0,0,0,.591-.95l.28-.752L29.716-7.4H31.1ZM40.216.137a3.232,3.232,0,0,1-2.447-.988,3.666,3.666,0,0,1-.943-2.642v-.232a4.438,4.438,0,0,1,.42-1.965,3.28,3.28,0,0,1,1.176-1.354,2.956,2.956,0,0,1,1.637-.489,2.77,2.77,0,0,1,2.242.95,4.114,4.114,0,0,1,.8,2.721v.526H38.09a2.629,2.629,0,0,0,.639,1.767A2.009,2.009,0,0,0,40.284-.9a2.2,2.2,0,0,0,1.135-.273,2.851,2.851,0,0,0,.813-.725l.772.6A3.106,3.106,0,0,1,40.216.137Zm-.157-6.631a1.687,1.687,0,0,0-1.285.557,2.708,2.708,0,0,0-.643,1.562h3.705v-.1a2.409,2.409,0,0,0-.52-1.494A1.588,1.588,0,0,0,40.059-6.494Z" transform="translate(778.926 677)" fill="#12263f"/>
    <path id="Trazado_1020210" data-name="Trazado 1020210" d="M2.331,0H1.066V-7.4H2.331ZM.964-9.358a.755.755,0,0,1,.188-.52.706.706,0,0,1,.557-.212.717.717,0,0,1,.561.212.747.747,0,0,1,.191.52.722.722,0,0,1-.191.513.73.73,0,0,1-.561.205.718.718,0,0,1-.557-.205A.73.73,0,0,1,.964-9.358ZM5.551-7.4l.041.93A2.7,2.7,0,0,1,7.807-7.533q2.345,0,2.365,2.646V0H8.907V-4.895a1.7,1.7,0,0,0-.366-1.183A1.466,1.466,0,0,0,7.424-6.46a1.825,1.825,0,0,0-1.08.328,2.228,2.228,0,0,0-.725.861V0H4.354V-7.4Zm9.5,6.5a1.822,1.822,0,0,0,1.183-.41,1.443,1.443,0,0,0,.561-1.025h1.2a2.293,2.293,0,0,1-.437,1.21,2.881,2.881,0,0,1-1.077.916,3.107,3.107,0,0,1-1.425.342,3.047,3.047,0,0,1-2.4-1.008,4.016,4.016,0,0,1-.892-2.758v-.212a4.453,4.453,0,0,1,.4-1.921,3.02,3.02,0,0,1,1.138-1.306,3.233,3.233,0,0,1,1.753-.465,2.966,2.966,0,0,1,2.068.745,2.663,2.663,0,0,1,.878,1.935h-1.2a1.743,1.743,0,0,0-.543-1.179,1.691,1.691,0,0,0-1.207-.461,1.77,1.77,0,0,0-1.494.694,3.259,3.259,0,0,0-.53,2.006v.239a3.194,3.194,0,0,0,.526,1.969A1.779,1.779,0,0,0,15.046-.9Zm5.735.9H19.517V-10.5h1.265Zm6.59-.731A2.686,2.686,0,0,1,25.2.137,2.3,2.3,0,0,1,23.4-.55a2.974,2.974,0,0,1-.625-2.034V-7.4h1.265v4.778q0,1.682,1.367,1.682a1.893,1.893,0,0,0,1.928-1.08V-7.4H28.6V0H27.4Zm5.571-1.121L34.665-7.4h1.354L33.045,1.142q-.69,1.846-2.194,1.846l-.239-.021-.472-.089V1.853l.342.027a1.683,1.683,0,0,0,1-.26,1.88,1.88,0,0,0,.591-.95l.28-.752L29.716-7.4H31.1ZM40.216.137a3.232,3.232,0,0,1-2.447-.988,3.666,3.666,0,0,1-.943-2.642v-.232a4.438,4.438,0,0,1,.42-1.965,3.28,3.28,0,0,1,1.176-1.354,2.956,2.956,0,0,1,1.637-.489,2.77,2.77,0,0,1,2.242.95,4.114,4.114,0,0,1,.8,2.721v.526H38.09a2.629,2.629,0,0,0,.639,1.767A2.009,2.009,0,0,0,40.284-.9a2.2,2.2,0,0,0,1.135-.273,2.851,2.851,0,0,0,.813-.725l.772.6A3.106,3.106,0,0,1,40.216.137Zm-.157-6.631a1.687,1.687,0,0,0-1.285.557,2.708,2.708,0,0,0-.643,1.562h3.705v-.1a2.409,2.409,0,0,0-.52-1.494A1.588,1.588,0,0,0,40.059-6.494Z" transform="translate(1212.645 677)" fill="#12263f"/>
    <path id="Trazado_1020211" data-name="Trazado 1020211" d="M3.924-.9a1.822,1.822,0,0,0,1.183-.41,1.443,1.443,0,0,0,.561-1.025h1.2a2.293,2.293,0,0,1-.437,1.21,2.881,2.881,0,0,1-1.077.916A3.107,3.107,0,0,1,3.924.137a3.047,3.047,0,0,1-2.4-1.008A4.016,4.016,0,0,1,.629-3.63v-.212a4.453,4.453,0,0,1,.4-1.921A3.02,3.02,0,0,1,2.164-7.068a3.233,3.233,0,0,1,1.753-.465,2.966,2.966,0,0,1,2.068.745,2.663,2.663,0,0,1,.878,1.935h-1.2a1.743,1.743,0,0,0-.543-1.179,1.691,1.691,0,0,0-1.207-.461A1.77,1.77,0,0,0,2.423-5.8a3.259,3.259,0,0,0-.53,2.006v.239A3.194,3.194,0,0,0,2.42-1.586,1.779,1.779,0,0,0,3.924-.9ZM7.95-3.767a4.369,4.369,0,0,1,.427-1.955,3.187,3.187,0,0,1,1.189-1.34,3.238,3.238,0,0,1,1.74-.472A3.119,3.119,0,0,1,13.75-6.487a4.024,4.024,0,0,1,.933,2.782v.089a4.407,4.407,0,0,1-.414,1.938A3.14,3.14,0,0,1,13.087-.342,3.275,3.275,0,0,1,11.32.137,3.111,3.111,0,0,1,8.883-.909,4,4,0,0,1,7.95-3.678Zm1.271.15a3.164,3.164,0,0,0,.571,1.976A1.827,1.827,0,0,0,11.32-.9a1.816,1.816,0,0,0,1.531-.755,3.46,3.46,0,0,0,.567-2.116,3.159,3.159,0,0,0-.578-1.972,1.836,1.836,0,0,0-1.535-.755A1.816,1.816,0,0,0,9.8-5.749,3.434,3.434,0,0,0,9.222-3.616ZM17.466-7.4l.041.93a2.7,2.7,0,0,1,2.215-1.066q2.345,0,2.365,2.646V0H20.822V-4.895a1.7,1.7,0,0,0-.366-1.183,1.466,1.466,0,0,0-1.118-.383,1.825,1.825,0,0,0-1.08.328,2.228,2.228,0,0,0-.725.861V0H16.27V-7.4ZM25.71-9.187V-7.4h1.381v.978H25.71v4.587a1.024,1.024,0,0,0,.185.667.777.777,0,0,0,.629.222,3.062,3.062,0,0,0,.6-.082V0a3.666,3.666,0,0,1-.971.137,1.575,1.575,0,0,1-1.278-.513,2.2,2.2,0,0,1-.431-1.456V-6.419H23.1V-7.4h1.347V-9.187ZM29.941,0H28.677V-7.4h1.265ZM28.574-9.358a.755.755,0,0,1,.188-.52.706.706,0,0,1,.557-.212.717.717,0,0,1,.561.212.747.747,0,0,1,.191.52.722.722,0,0,1-.191.513.73.73,0,0,1-.561.205.718.718,0,0,1-.557-.205A.73.73,0,0,1,28.574-9.358Zm6.46,9.5a3.232,3.232,0,0,1-2.447-.988,3.666,3.666,0,0,1-.943-2.642v-.232a4.438,4.438,0,0,1,.42-1.965A3.28,3.28,0,0,1,33.24-7.044a2.956,2.956,0,0,1,1.637-.489,2.77,2.77,0,0,1,2.242.95,4.114,4.114,0,0,1,.8,2.721v.526H32.908a2.629,2.629,0,0,0,.639,1.767A2.009,2.009,0,0,0,35.1-.9a2.2,2.2,0,0,0,1.135-.273,2.851,2.851,0,0,0,.813-.725l.772.6A3.106,3.106,0,0,1,35.034.137Zm-.157-6.631a1.687,1.687,0,0,0-1.285.557,2.708,2.708,0,0,0-.643,1.562h3.705v-.1a2.409,2.409,0,0,0-.52-1.494A1.588,1.588,0,0,0,34.877-6.494Zm5.7-.9.041.93a2.7,2.7,0,0,1,2.215-1.066q2.345,0,2.365,2.646V0H43.935V-4.895a1.7,1.7,0,0,0-.366-1.183,1.466,1.466,0,0,0-1.118-.383,1.825,1.825,0,0,0-1.08.328,2.228,2.228,0,0,0-.725.861V0H39.382V-7.4Zm9.6,7.533a3.232,3.232,0,0,1-2.447-.988,3.666,3.666,0,0,1-.943-2.642v-.232a4.438,4.438,0,0,1,.42-1.965,3.28,3.28,0,0,1,1.176-1.354,2.956,2.956,0,0,1,1.637-.489,2.77,2.77,0,0,1,2.242.95,4.114,4.114,0,0,1,.8,2.721v.526H48.05a2.629,2.629,0,0,0,.639,1.767A2.009,2.009,0,0,0,50.244-.9a2.2,2.2,0,0,0,1.135-.273,2.851,2.851,0,0,0,.813-.725l.772.6A3.106,3.106,0,0,1,50.176.137Zm-.157-6.631a1.687,1.687,0,0,0-1.285.557,2.708,2.708,0,0,0-.643,1.562H51.8v-.1a2.409,2.409,0,0,0-.52-1.494A1.588,1.588,0,0,0,50.019-6.494Z" transform="translate(511.43 677)" fill="#12263f"/>
    <g id="Grupo_1113864" data-name="Grupo 1113864" transform="translate(-16.777 -31.257)">
      <g id="Grupo_1113856" data-name="Grupo 1113856" transform="translate(366.846 823.989) rotate(-90)">
        <path id="Trazado_873496-14" data-name="Trazado 873496" d="M0,0V9.134" transform="translate(7.414)" fill="none" stroke="#114d74" stroke-width="2"/>
      </g>
      <g id="Grupo_1113857" data-name="Grupo 1113857" transform="translate(366.846 867.674) rotate(-90)">
        <path id="Trazado_873496-15" data-name="Trazado 873496" d="M0,0V9.134" transform="translate(7.414)" fill="none" stroke="#114d74" stroke-width="2"/>
      </g>
      <g id="Grupo_1113858" data-name="Grupo 1113858" transform="translate(366.846 911.358) rotate(-90)">
        <path id="Trazado_873496-16" data-name="Trazado 873496" d="M0,0V9.134" transform="translate(7.414)" fill="none" stroke="#114d74" stroke-width="2"/>
      </g>
      <g id="Grupo_1113859" data-name="Grupo 1113859" transform="translate(366.846 952.523) rotate(-90)">
        <path id="Trazado_873496-17" data-name="Trazado 873496" d="M0,0V9.134" transform="translate(7.414)" fill="none" stroke="#114d74" stroke-width="2"/>
      </g>
      <g id="Grupo_1113860" data-name="Grupo 1113860" transform="translate(366.846 995.523) rotate(-90)">
        <path id="Trazado_873496-18" data-name="Trazado 873496" d="M0,0V9.134" transform="translate(7.414)" fill="none" stroke="#114d74" stroke-width="2"/>
      </g>
      <g id="Grupo_1113861" data-name="Grupo 1113861" transform="translate(366.846 1035.697) rotate(-90)">
        <path id="Trazado_873496-19" data-name="Trazado 873496" d="M0,0V9.134" transform="translate(7.414)" fill="none" stroke="#114d74" stroke-width="2"/>
      </g>
      <path id="Trazado_918460" data-name="Trazado 918460" d="M-10775.877-8783.939v243.191" transform="translate(11142.723 9569.206)" fill="none" stroke="#114d74" stroke-width="2"/>
      <rect id="Rectángulo_411296" data-name="Rectángulo 411296" width="86" height="35.01" rx="11" transform="translate(376.398 798.829)" fill="#e7e8fb"/>
      <rect id="Rectángulo_411302" data-name="Rectángulo 411302" width="86" height="35.01" rx="11" transform="translate(376.398 883.679)" fill="#e7e8fb"/>
      <rect id="Rectángulo_411304" data-name="Rectángulo 411304" width="89.268" height="35.01" rx="11" transform="translate(376.398 968.528)" fill="#e7e8fb"/>
      <rect id="Rectángulo_411300" data-name="Rectángulo 411300" width="72" height="35.01" rx="11" transform="translate(376.398 841.254)" fill="#e7e8fb"/>
      <rect id="Rectángulo_411301" data-name="Rectángulo 411301" width="86" height="35.01" rx="11" transform="translate(376.398 926.104)" fill="#e7e8fb"/>
      <rect id="Rectángulo_411303" data-name="Rectángulo 411303" width="89.268" height="35.01" rx="11" transform="translate(376.398 1010.953)" fill="#e7e8fb"/>
      <text id="Concepto" transform="translate(422.398 822.335)" fill="#12263f" font-size="14" font-family="Roboto-Regular, Roboto"><tspan x="-29.921" y="0">Concepto</tspan></text>
      <text id="Métodos" transform="translate(420.398 907.185)" fill="#12263f" font-size="14" font-family="Roboto-Regular, Roboto"><tspan x="-27.58" y="0">Métodos</tspan></text>
      <text id="Tendencias" transform="translate(420.398 991.859)" fill="#12263f" font-size="14" font-family="Roboto-Regular, Roboto"><tspan x="-36.046" y="0">Tendencias</tspan></text>
      <text id="Clases" transform="translate(413.398 864.76)" fill="#12263f" font-size="14" font-family="Roboto-Regular, Roboto"><tspan x="-20.99" y="0">Clases</tspan></text>
      <text id="Efectos" transform="translate(415.398 949.609)" fill="#12263f" font-size="14" font-family="Roboto-Regular, Roboto"><tspan x="-23.54" y="0">Efectos</tspan></text>
      <text id="Proyección" transform="translate(420.398 1035.062)" fill="#12263f" font-size="14" font-family="Roboto-Regular, Roboto"><tspan x="-34.61" y="0">Proyección</tspan></text>
      <rect id="Rectángulo_411299" data-name="Rectángulo 411299" width="109.556" height="48.572" rx="11" transform="translate(357.11 742.257)" fill="#cfb2ff"/>
      <text id="Demanda_verde" data-name="Demanda 
verde" transform="translate(414.398 763.767)" fill="#12263f" font-size="14" font-family="Roboto-Bold, Roboto" font-weight="700"><tspan x="-31.507" y="0">Demanda </tspan><tspan x="-17.603" y="20">verde</tspan></text>
    </g>
    <g id="Grupo_1113870" data-name="Grupo 1113870" transform="translate(-33.777 -31.082)">
      <g id="Grupo_1113863" data-name="Grupo 1113863" transform="translate(511.712 817.074) rotate(-90)">
        <path id="Trazado_873496-20" data-name="Trazado 873496" d="M0,0V9.134" transform="translate(7.414)" fill="none" stroke="#114d74" stroke-width="2"/>
      </g>
      <g id="Grupo_1113865" data-name="Grupo 1113865" transform="translate(511.712 860.498) rotate(-90)">
        <path id="Trazado_873496-21" data-name="Trazado 873496" d="M0,0V9.134" transform="translate(7.414)" fill="none" stroke="#114d74" stroke-width="2"/>
      </g>
      <g id="Grupo_1113866" data-name="Grupo 1113866" transform="translate(511.712 901.924) rotate(-90)">
        <path id="Trazado_873496-22" data-name="Trazado 873496" d="M0,0V9.134" transform="translate(7.414)" fill="none" stroke="#114d74" stroke-width="2"/>
      </g>
      <g id="Grupo_1113867" data-name="Grupo 1113867" transform="translate(510.847 944.35) rotate(-90)">
        <path id="Trazado_873496-23" data-name="Trazado 873496" d="M0,0V9.134" transform="translate(7.414)" fill="none" stroke="#114d74" stroke-width="2"/>
      </g>
      <g id="Grupo_1113868" data-name="Grupo 1113868" transform="translate(511.712 986.775) rotate(-90)">
        <path id="Trazado_873496-24" data-name="Trazado 873496" d="M0,0V9.134" transform="translate(7.414)" fill="none" stroke="#114d74" stroke-width="2"/>
      </g>
      <g id="Grupo_1113869" data-name="Grupo 1113869" transform="translate(510.847 1028.201) rotate(-90)">
        <path id="Trazado_873496-25" data-name="Trazado 873496" d="M0,0V9.134" transform="translate(7.414)" fill="none" stroke="#114d74" stroke-width="2"/>
      </g>
      <path id="Trazado_918461" data-name="Trazado 918461" d="M-10775.877-8783.939v243.191" transform="translate(11286.723 9561.031)" fill="none" stroke="#114d74" stroke-width="2"/>
      <rect id="Rectángulo_411307" data-name="Rectángulo 411307" width="86" height="35.01" rx="11" transform="translate(520.398 790.654)" fill="#e6faee"/>
      <rect id="Rectángulo_411308" data-name="Rectángulo 411308" width="86" height="35.01" rx="11" transform="translate(520.398 875.504)" fill="#e6faee"/>
      <rect id="Rectángulo_411305" data-name="Rectángulo 411305" width="88.935" height="35.01" rx="11" transform="translate(520.398 960.354)" fill="#e6faee"/>
      <rect id="Rectángulo_411309" data-name="Rectángulo 411309" width="72" height="35.01" rx="11" transform="translate(520.398 833.08)" fill="#e6faee"/>
      <rect id="Rectángulo_411310" data-name="Rectángulo 411310" width="86" height="35.01" rx="11" transform="translate(520.398 917.93)" fill="#e6faee"/>
      <rect id="Rectángulo_411306" data-name="Rectángulo 411306" width="88.935" height="35.01" rx="11" transform="translate(520.398 1002.779)" fill="#e6faee"/>
      <text id="Concepto-2" data-name="Concepto" transform="translate(566.398 814.16)" fill="#12263f" font-size="14" font-family="Roboto-Regular, Roboto"><tspan x="-29.921" y="0">Concepto</tspan></text>
      <text id="Métodos-2" data-name="Métodos" transform="translate(564.398 899.01)" fill="#12263f" font-size="14" font-family="Roboto-Regular, Roboto"><tspan x="-27.58" y="0">Métodos</tspan></text>
      <text id="Tendencias-2" data-name="Tendencias" transform="translate(563.846 983.861)" fill="#12263f" font-size="14" font-family="Roboto-Regular, Roboto"><tspan x="-36.046" y="0">Tendencias</tspan></text>
      <text id="Clases-2" data-name="Clases" transform="translate(557.398 856.586)" fill="#12263f" font-size="14" font-family="Roboto-Regular, Roboto"><tspan x="-20.99" y="0">Clases</tspan></text>
      <text id="Efectos-2" data-name="Efectos" transform="translate(559.398 941.436)" fill="#12263f" font-size="14" font-family="Roboto-Regular, Roboto"><tspan x="-23.54" y="0">Efectos</tspan></text>
      <text id="Proyección-2" data-name="Proyección" transform="translate(564.398 1025.434)" fill="#12263f" font-size="14" font-family="Roboto-Regular, Roboto"><tspan x="-34.61" y="0">Proyección</tspan></text>
      <rect id="Rectángulo_411311" data-name="Rectángulo 411311" width="109.223" height="40.148" rx="11" transform="translate(500.11 742.082)" fill="#85e5aa"/>
      <text id="Oferta_verde" data-name="Oferta verde" transform="translate(556.397 767.721)" fill="#12263f" font-size="14" font-family="Roboto-Bold, Roboto" font-weight="700"><tspan x="-39.313" y="0">Oferta verde</tspan></text>
    </g>
    <g id="Grupo_1113874" data-name="Grupo 1113874" transform="translate(-48.502 -30.908)">
      <path id="Trazado_918462" data-name="Trazado 918462" d="M-10775.877-8783.939v133.771" transform="translate(11427.447 9560.857)" fill="none" stroke="#114d74" stroke-width="2"/>
      <rect id="Rectángulo_411317" data-name="Rectángulo 411317" width="77" height="35.01" rx="11" transform="translate(661.569 806.164)" fill="#e7e8fb"/>
      <rect id="Rectángulo_411312" data-name="Rectángulo 411312" width="86" height="35.01" rx="11" transform="translate(661.569 891.014)" fill="#e7e8fb"/>
      <rect id="Rectángulo_411316" data-name="Rectángulo 411316" width="114" height="35.01" rx="11" transform="translate(661.569 848.589)" fill="#e7e8fb"/>
      <text id="Concepto-3" data-name="Concepto" transform="translate(700.571 827.895)" fill="#12263f" font-size="14" font-family="Roboto-Regular, Roboto"><tspan x="-29.921" y="0">Concepto</tspan></text>
      <text id="Tipologías" transform="translate(705.569 914.52)" fill="#12263f" font-size="14" font-family="Roboto-Regular, Roboto"><tspan x="-32.56" y="0">Tipologías</tspan></text>
      <text id="Caracterización" transform="translate(717.429 871.571)" fill="#12263f" font-size="14" font-family="Roboto-Regular, Roboto"><tspan x="-48.624" y="0">Caracterización</tspan></text>
      <rect id="Rectángulo_411318" data-name="Rectángulo 411318" width="119.471" height="56.148" rx="11" transform="translate(640.835 741.908)" fill="#cfb2ff"/>
      <text id="Perfil_del_cliente_verde" data-name="Perfil del 
cliente verde" transform="translate(701.569 767.416)" fill="#12263f" font-size="14" font-family="Roboto-Bold, Roboto" font-weight="700"><tspan x="-30.037" y="0">Perfil del </tspan><tspan x="-40.561" y="20">cliente verde</tspan></text>
      <g id="Grupo_1113871" data-name="Grupo 1113871" transform="translate(652.436 829.922) rotate(-90)">
        <path id="Trazado_873496-26" data-name="Trazado 873496" d="M0,0V9.134" transform="translate(7.414)" fill="none" stroke="#114d74" stroke-width="2"/>
      </g>
      <g id="Grupo_1113872" data-name="Grupo 1113872" transform="translate(652.436 875.914) rotate(-90)">
        <path id="Trazado_873496-27" data-name="Trazado 873496" d="M0,0V9.134" transform="translate(7.414)" fill="none" stroke="#114d74" stroke-width="2"/>
      </g>
      <g id="Grupo_1113873" data-name="Grupo 1113873" transform="translate(651.57 918.103) rotate(-90)">
        <path id="Trazado_873496-28" data-name="Trazado 873496" d="M0,0V9.134" transform="translate(7.414)" fill="none" stroke="#114d74" stroke-width="2"/>
      </g>
    </g>
    <g id="Grupo_1113878" data-name="Grupo 1113878" transform="translate(-62.145 -31.713)">
      <path id="Trazado_918463" data-name="Trazado 918463" d="M-10775.877-8783.939v133.771" transform="translate(11593.091 9561.662)" fill="none" stroke="#114d74" stroke-width="2"/>
      <rect id="Rectángulo_411320" data-name="Rectángulo 411320" width="78" height="35.01" rx="11" transform="translate(826.948 805.139)" fill="#e6faee"/>
      <rect id="Rectángulo_411321" data-name="Rectángulo 411321" width="112" height="35.01" rx="11" transform="translate(826.948 889.988)" fill="#e6faee"/>
      <rect id="Rectángulo_411319" data-name="Rectángulo 411319" width="55" height="35.01" rx="11" transform="translate(826.948 847.564)" fill="#e6faee"/>
      <text id="Concepto-4" data-name="Concepto" transform="translate(865.948 827.145)" fill="#12263f" font-size="14" font-family="Roboto-Regular, Roboto"><tspan x="-29.921" y="0">Concepto</tspan></text>
      <text id="Características" transform="translate(881.948 913.494)" fill="#12263f" font-size="14" font-family="Roboto-Regular, Roboto"><tspan x="-46.836" y="0">Características</tspan></text>
      <text id="Tipo" transform="translate(855.649 870.998)" fill="#12263f" font-size="14" font-family="Roboto-Regular, Roboto"><tspan x="-13.795" y="0">Tipo</tspan></text>
      <rect id="Rectángulo_411322" data-name="Rectángulo 411322" width="119.471" height="56.148" rx="11" transform="translate(806.478 742.713)" fill="#85e5aa"/>
      <text id="Productos_y_servicios" data-name="Productos 
y servicios" transform="translate(867.214 766.221)" fill="#12263f" font-size="14" font-family="Roboto-Bold, Roboto" font-weight="700"><tspan x="-33.978" y="0">Productos </tspan><tspan x="-33.711" y="20">y servicios</tspan></text>
      <g id="Grupo_1113875" data-name="Grupo 1113875" transform="translate(817.214 829.473) rotate(-90)">
        <path id="Trazado_873496-29" data-name="Trazado 873496" d="M0,0V9.134" transform="translate(7.414)" fill="none" stroke="#114d74" stroke-width="2"/>
      </g>
      <g id="Grupo_1113876" data-name="Grupo 1113876" transform="translate(817.814 873.912) rotate(-90)">
        <path id="Trazado_873496-30" data-name="Trazado 873496" d="M0,0V9.134" transform="translate(7.414)" fill="none" stroke="#114d74" stroke-width="2"/>
      </g>
      <g id="Grupo_1113877" data-name="Grupo 1113877" transform="translate(817.214 918.352) rotate(-90)">
        <path id="Trazado_873496-31" data-name="Trazado 873496" d="M0,0V9.134" transform="translate(7.414)" fill="none" stroke="#114d74" stroke-width="2"/>
      </g>
    </g>
    <g id="Grupo_1113883" data-name="Grupo 1113883" transform="translate(-38.5 -22.086)">
      <path id="Trazado_918463-2" data-name="Trazado 918463" d="M-10775.877-8783.939v133.771" transform="translate(11854.447 9571.035)" fill="none" stroke="#114d74" stroke-width="2"/>
      <rect id="Rectángulo_411320-2" data-name="Rectángulo 411320" width="78" height="35.01" rx="11" transform="translate(1088.305 814.512)" fill="#e6faee"/>
      <rect id="Rectángulo_411321-2" data-name="Rectángulo 411321" width="99" height="35.01" rx="11" transform="translate(1088.305 899.361)" fill="#e6faee"/>
      <rect id="Rectángulo_411319-2" data-name="Rectángulo 411319" width="55" height="35.01" rx="11" transform="translate(1088.305 856.938)" fill="#e6faee"/>
      <text id="Concepto-5" data-name="Concepto" transform="translate(1127.305 836.518)" fill="#12263f" font-size="14" font-family="Roboto-Regular, Roboto"><tspan x="-29.921" y="0">Concepto</tspan></text>
      <text id="Clasificación" transform="translate(1138.305 922.867)" fill="#12263f" font-size="14" font-family="Roboto-Regular, Roboto"><tspan x="-39.936" y="0">Clasificación</tspan></text>
      <text id="Tipo-2" data-name="Tipo" transform="translate(1117.006 880.371)" fill="#12263f" font-size="14" font-family="Roboto-Regular, Roboto"><tspan x="-13.795" y="0">Tipo</tspan></text>
      <rect id="Rectángulo_411322-2" data-name="Rectángulo 411322" width="119.471" height="73.148" rx="11" transform="translate(1067.834 733.086)" fill="#85e5aa"/>
      <text id="Formatos_comerciales_verdes" data-name="Formatos 
comerciales 
verdes" transform="translate(1128.57 756.594)" fill="#12263f" font-size="14" font-family="Roboto-Bold, Roboto" font-weight="700"><tspan x="-31.65" y="0">Formatos </tspan><tspan x="-40.182" y="20">comerciales </tspan><tspan x="-21.202" y="40">verdes</tspan></text>
      <g id="Grupo_1113875-2" data-name="Grupo 1113875" transform="translate(1078.57 838.846) rotate(-90)">
        <path id="Trazado_873496-32" data-name="Trazado 873496" d="M0,0V9.134" transform="translate(7.414)" fill="none" stroke="#114d74" stroke-width="2"/>
      </g>
      <g id="Grupo_1113876-2" data-name="Grupo 1113876" transform="translate(1079.171 883.285) rotate(-90)">
        <path id="Trazado_873496-33" data-name="Trazado 873496" d="M0,0V9.134" transform="translate(7.414)" fill="none" stroke="#114d74" stroke-width="2"/>
      </g>
      <g id="Grupo_1113877-2" data-name="Grupo 1113877" transform="translate(1078.57 927.725) rotate(-90)">
        <path id="Trazado_873496-34" data-name="Trazado 873496" d="M0,0V9.134" transform="translate(7.414)" fill="none" stroke="#114d74" stroke-width="2"/>
      </g>
    </g>
    <g id="Grupo_1113885" data-name="Grupo 1113885" transform="translate(234.5 -22.086)">
      <path id="Trazado_918463-3" data-name="Trazado 918463" d="M-10775.877-8783.939v88.775" transform="translate(11853.447 9535.6)" fill="none" stroke="#114d74" stroke-width="2"/>
      <rect id="Rectángulo_411320-3" data-name="Rectángulo 411320" width="78" height="35.01" rx="11" transform="translate(1087.305 779.076)" fill="#e6faee"/>
      <rect id="Rectángulo_411319-3" data-name="Rectángulo 411319" width="55" height="35.01" rx="11" transform="translate(1087.305 821.502)" fill="#e6faee"/>
      <text id="Concepto-6" data-name="Concepto" transform="translate(1126.305 801.082)" fill="#12263f" font-size="14" font-family="Roboto-Regular, Roboto"><tspan x="-29.921" y="0">Concepto</tspan></text>
      <text id="Tipo-3" data-name="Tipo" transform="translate(1116.006 844.936)" fill="#12263f" font-size="14" font-family="Roboto-Regular, Roboto"><tspan x="-13.795" y="0">Tipo</tspan></text>
      <rect id="Rectángulo_411322-3" data-name="Rectángulo 411322" width="97.471" height="37.148" rx="11" transform="translate(1067.834 733.086)" fill="#85e5aa"/>
      <text id="Brochure" transform="translate(1121.57 756.16)" fill="#12263f" font-size="14" font-family="Roboto-Bold, Roboto" font-weight="700"><tspan x="-28.677" y="0">Brochure</tspan></text>
      <g id="Grupo_1113875-3" data-name="Grupo 1113875" transform="translate(1077.57 803.41) rotate(-90)">
        <path id="Trazado_873496-35" data-name="Trazado 873496" d="M0,0V9.134" transform="translate(7.414)" fill="none" stroke="#114d74" stroke-width="2"/>
      </g>
      <g id="Grupo_1113876-3" data-name="Grupo 1113876" transform="translate(1078.171 847.85) rotate(-90)">
        <path id="Trazado_873496-36" data-name="Trazado 873496" d="M0,0V9.134" transform="translate(7.414)" fill="none" stroke="#114d74" stroke-width="2"/>
      </g>
    </g>
    <g id="Grupo_1113882" data-name="Grupo 1113882" transform="translate(-74.502 -30.908)">
      <path id="Trazado_918464" data-name="Trazado 918464" d="M-10775.877-8783.939v113.26" transform="translate(11749.752 9600.486)" fill="none" stroke="#114d74" stroke-width="2"/>
      <rect id="Rectángulo_411325" data-name="Rectángulo 411325" width="86" height="35.01" rx="11" transform="translate(983.265 825.951)" fill="#e7e8fb"/>
      <rect id="Rectángulo_411323" data-name="Rectángulo 411323" width="103" height="35.01" rx="11" transform="translate(983.265 910.801)" fill="#e7e8fb"/>
      <rect id="Rectángulo_411324" data-name="Rectángulo 411324" width="88.997" height="35.01" rx="11" transform="translate(983.265 868.377)" fill="#e7e8fb"/>
      <text id="Concepto-7" data-name="Concepto" transform="translate(1025.265 848.762)" fill="#12263f" font-size="14" font-family="Roboto-Regular, Roboto"><tspan x="-29.921" y="0">Concepto</tspan></text>
      <text id="Aplicabilidad" transform="translate(1035.265 934.307)" fill="#12263f" font-size="14" font-family="Roboto-Regular, Roboto"><tspan x="-40.089" y="0">Aplicabilidad</tspan></text>
      <text id="Estructura" transform="translate(1028.474 891.186)" fill="#12263f" font-size="14" font-family="Roboto-Regular, Roboto"><tspan x="-31.951" y="0">Estructura</tspan></text>
      <rect id="Rectángulo_411326" data-name="Rectángulo 411326" width="119.471" height="76.252" rx="11" transform="translate(967.835 741.908)" fill="#cfb2ff"/>
      <text id="Valor_agregado_y_paquete_de_beneficios" data-name="Valor agregado 
y paquete de 
beneficios" transform="translate(1028.569 767.416)" fill="#12263f" font-size="14" font-family="Roboto-Bold, Roboto" font-weight="700"><tspan x="-49.762" y="0">Valor agregado </tspan><tspan x="-41.969" y="20">y paquete de </tspan><tspan x="-32.751" y="40">beneficios</tspan></text>
      <g id="Grupo_1113879" data-name="Grupo 1113879" transform="translate(974.003 851.065) rotate(-90)">
        <path id="Trazado_873496-37" data-name="Trazado 873496" d="M0,0V9.134" transform="translate(7.414)" fill="none" stroke="#114d74" stroke-width="2"/>
      </g>
      <g id="Grupo_1113880" data-name="Grupo 1113880" transform="translate(973.874 894.295) rotate(-90)">
        <path id="Trazado_873496-38" data-name="Trazado 873496" d="M0,0V9.134" transform="translate(7.414)" fill="none" stroke="#114d74" stroke-width="2"/>
      </g>
      <g id="Grupo_1113881" data-name="Grupo 1113881" transform="translate(973.874 935.915) rotate(-90)">
        <path id="Trazado_873496-39" data-name="Trazado 873496" d="M0,0V9.134" transform="translate(7.414)" fill="none" stroke="#114d74" stroke-width="2"/>
      </g>
    </g>
    <g id="Grupo_1113884" data-name="Grupo 1113884" transform="translate(197.498 -30.908)">
      <path id="Trazado_918464-2" data-name="Trazado 918464" d="M-10775.877-8783.939v113.26" transform="translate(11749.752 9600.486)" fill="none" stroke="#114d74" stroke-width="2"/>
      <rect id="Rectángulo_411325-2" data-name="Rectángulo 411325" width="86" height="35.01" rx="11" transform="translate(983.265 825.951)" fill="#e7e8fb"/>
      <rect id="Rectángulo_411323-2" data-name="Rectángulo 411323" width="103" height="35.01" rx="11" transform="translate(983.265 910.801)" fill="#e7e8fb"/>
      <rect id="Rectángulo_411324-2" data-name="Rectángulo 411324" width="88.997" height="35.01" rx="11" transform="translate(983.265 868.377)" fill="#e7e8fb"/>
      <text id="Concepto-8" data-name="Concepto" transform="translate(1025.265 848.762)" fill="#12263f" font-size="14" font-family="Roboto-Regular, Roboto"><tspan x="-29.921" y="0">Concepto</tspan></text>
      <text id="Aplicabilidad-2" data-name="Aplicabilidad" transform="translate(1035.265 934.307)" fill="#12263f" font-size="14" font-family="Roboto-Regular, Roboto"><tspan x="-40.089" y="0">Aplicabilidad</tspan></text>
      <text id="Estructura-2" data-name="Estructura" transform="translate(1028.474 891.186)" fill="#12263f" font-size="14" font-family="Roboto-Regular, Roboto"><tspan x="-31.951" y="0">Estructura</tspan></text>
      <rect id="Rectángulo_411326-2" data-name="Rectángulo 411326" width="119.471" height="76.252" rx="11" transform="translate(967.835 741.908)" fill="#cfb2ff"/>
      <text id="Portafolio_de_productos_y_servicios_verdes_" data-name="Portafolio de 
productos y 
servicios verdes
" transform="translate(1028.569 767.416)" fill="#12263f" font-size="14" font-family="Roboto-Bold, Roboto" font-weight="700"><tspan x="-42.622" y="0">Portafolio de </tspan><tspan x="-38.661" y="20">productos y </tspan><tspan x="-51.399" y="40">servicios verdes</tspan><tspan x="0" y="60"></tspan></text>
      <g id="Grupo_1113879-2" data-name="Grupo 1113879" transform="translate(974.003 851.065) rotate(-90)">
        <path id="Trazado_873496-40" data-name="Trazado 873496" d="M0,0V9.134" transform="translate(7.414)" fill="none" stroke="#114d74" stroke-width="2"/>
      </g>
      <g id="Grupo_1113880-2" data-name="Grupo 1113880" transform="translate(973.874 894.295) rotate(-90)">
        <path id="Trazado_873496-41" data-name="Trazado 873496" d="M0,0V9.134" transform="translate(7.414)" fill="none" stroke="#114d74" stroke-width="2"/>
      </g>
      <g id="Grupo_1113881-2" data-name="Grupo 1113881" transform="translate(973.874 935.915) rotate(-90)">
        <path id="Trazado_873496-42" data-name="Trazado 873496" d="M0,0V9.134" transform="translate(7.414)" fill="none" stroke="#114d74" stroke-width="2"/>
      </g>
    </g>
    <path id="Trazado_1020212" data-name="Trazado 1020212" d="M23,0H356a23,23,0,0,1,23,23v9a23,23,0,0,1-23,23H23A23,23,0,0,1,0,32V23A23,23,0,0,1,23,0Z" transform="translate(631.332 529)" fill="#bceb79"/>
    <path id="Trazado_1020213" data-name="Trazado 1020213" d="M-161.587,0V-14.219h4.58a6.737,6.737,0,0,1,3.389.854,6.006,6.006,0,0,1,2.349,2.412,7.283,7.283,0,0,1,.854,3.491v.654a7.325,7.325,0,0,1-.825,3.5,6.032,6.032,0,0,1-2.324,2.422A6.589,6.589,0,0,1-156.909,0Zm3.428-11.572v8.936h1.191a2.666,2.666,0,0,0,2.266-1.05,5.145,5.145,0,0,0,.791-3.12v-.615a5.1,5.1,0,0,0-.791-3.105,2.713,2.713,0,0,0-2.3-1.045ZM-145.337,0h-3.3V-10.566h3.3Zm-3.5-13.291a1.469,1.469,0,0,1,.508-1.152,1.916,1.916,0,0,1,1.318-.449,1.916,1.916,0,0,1,1.318.449,1.469,1.469,0,0,1,.508,1.152,1.469,1.469,0,0,1-.508,1.152,1.916,1.916,0,0,1-1.318.449,1.916,1.916,0,0,1-1.318-.449A1.469,1.469,0,0,1-148.833-13.291Zm11.055,10.322a.76.76,0,0,0-.439-.674,6.685,6.685,0,0,0-1.67-.527,7.615,7.615,0,0,1-2.031-.718,3.4,3.4,0,0,1-1.221-1.079,2.577,2.577,0,0,1-.42-1.455,2.92,2.92,0,0,1,1.2-2.4,4.948,4.948,0,0,1,3.145-.942,5.482,5.482,0,0,1,3.359.947,2.962,2.962,0,0,1,1.27,2.49h-3.3q0-1.27-1.338-1.27a1.326,1.326,0,0,0-.869.288.892.892,0,0,0-.352.718.819.819,0,0,0,.43.713,4.06,4.06,0,0,0,1.372.449,11.857,11.857,0,0,1,1.655.42A3.007,3.007,0,0,1-134.6-3.066a2.767,2.767,0,0,1-1.284,2.354A5.632,5.632,0,0,1-139.214.2a5.747,5.747,0,0,1-2.422-.488,4.05,4.05,0,0,1-1.66-1.328,3.007,3.007,0,0,1-.6-1.768h3.076a1.272,1.272,0,0,0,.488,1.069,2.009,2.009,0,0,0,1.2.337,1.58,1.58,0,0,0,1.011-.273A.875.875,0,0,0-137.778-2.969Zm8.545-10.225v2.627h1.738v2.285h-1.738v4.834a1.234,1.234,0,0,0,.215.83,1.152,1.152,0,0,0,.85.234,4.828,4.828,0,0,0,.82-.059V-.088A6.074,6.074,0,0,1-129.2.2a3.448,3.448,0,0,1-2.51-.8,3.282,3.282,0,0,1-.811-2.432V-8.281h-1.348v-2.285h1.348v-2.627Zm9.424,5.605-1.084-.078a1.947,1.947,0,0,0-1.992.977V0h-3.291V-10.566h3.086l.107,1.357a2.548,2.548,0,0,1,2.314-1.553,3.209,3.209,0,0,1,.918.117ZM-115.151,0h-3.3V-10.566h3.3Zm-3.5-13.291a1.469,1.469,0,0,1,.508-1.152,1.916,1.916,0,0,1,1.318-.449,1.916,1.916,0,0,1,1.318.449A1.469,1.469,0,0,1-115-13.291a1.469,1.469,0,0,1-.508,1.152,1.916,1.916,0,0,1-1.318.449,1.916,1.916,0,0,1-1.318-.449A1.469,1.469,0,0,1-118.647-13.291Zm15.332,8.1A6.44,6.44,0,0,1-104.39-1.2,3.6,3.6,0,0,1-107.417.2a3.122,3.122,0,0,1-2.6-1.279L-110.151,0H-113.1V-15h3.291v5.283a3.013,3.013,0,0,1,2.373-1.045,3.6,3.6,0,0,1,3.047,1.416,6.473,6.473,0,0,1,1.074,3.984Zm-3.3-.205a4.309,4.309,0,0,0-.405-2.173,1.365,1.365,0,0,0-1.245-.649,1.575,1.575,0,0,0-1.543.85v4.2a1.584,1.584,0,0,0,1.563.84,1.4,1.4,0,0,0,1.475-1.133A8.148,8.148,0,0,0-106.616-5.4Zm11.045,4.258A3.393,3.393,0,0,1-98.394.2a3.328,3.328,0,0,1-2.632-1.011,4.251,4.251,0,0,1-.894-2.905v-6.846h3.291V-3.7A1.183,1.183,0,0,0-97.31-2.344,1.72,1.72,0,0,0-95.7-3.154v-7.412h3.311V0h-3.086Zm9.453-1.2a1.464,1.464,0,0,0,1.074-.376,1.379,1.379,0,0,0,.371-1.05h3.086A3.653,3.653,0,0,1-82.832-.918,4.631,4.631,0,0,1-86.04.2,4.689,4.689,0,0,1-89.673-1.25a5.7,5.7,0,0,1-1.328-4v-.137a6.436,6.436,0,0,1,.591-2.827,4.3,4.3,0,0,1,1.7-1.885,5.081,5.081,0,0,1,2.637-.659A4.573,4.573,0,0,1-82.8-9.619a4.053,4.053,0,0,1,1.211,3.1h-3.086a1.806,1.806,0,0,0-.4-1.26,1.382,1.382,0,0,0-1.074-.439q-1.279,0-1.494,1.631a11.508,11.508,0,0,0-.068,1.426,4.52,4.52,0,0,0,.381,2.207A1.319,1.319,0,0,0-86.118-2.344ZM-76.724,0h-3.3V-10.566h3.3Zm-3.5-13.291a1.469,1.469,0,0,1,.508-1.152,1.916,1.916,0,0,1,1.318-.449,1.916,1.916,0,0,1,1.318.449,1.469,1.469,0,0,1,.508,1.152,1.469,1.469,0,0,1-.508,1.152,1.916,1.916,0,0,1-1.318.449,1.916,1.916,0,0,1-1.318-.449A1.469,1.469,0,0,1-80.22-13.291Zm5.107,7.91A6.236,6.236,0,0,1-74.5-8.2a4.4,4.4,0,0,1,1.768-1.9,5.323,5.323,0,0,1,2.705-.664,4.858,4.858,0,0,1,3.74,1.47,5.64,5.64,0,0,1,1.367,4v.117a5.472,5.472,0,0,1-1.372,3.921A4.871,4.871,0,0,1-70,.2a4.927,4.927,0,0,1-3.623-1.353A5.29,5.29,0,0,1-75.1-4.824Zm3.291.205a3.932,3.932,0,0,0,.459,2.148A1.529,1.529,0,0,0-70-2.344q1.758,0,1.8-2.705v-.332q0-2.842-1.816-2.842-1.65,0-1.787,2.451ZM-69.575-15H-66.1l-2.715,3.066H-71.5Zm9.131,4.434.107,1.24a3.583,3.583,0,0,1,3.018-1.436,3.015,3.015,0,0,1,2.466.986,4.7,4.7,0,0,1,.845,2.969V0h-3.3V-6.67a1.783,1.783,0,0,0-.322-1.177A1.491,1.491,0,0,0-58.8-8.223a1.569,1.569,0,0,0-1.436.762V0H-63.53V-10.566Zm17.461,5.957,1.758-5.957H-37.7L-42.007,1.768l-.186.449a3.272,3.272,0,0,1-3.242,2.051,5.139,5.139,0,0,1-1.357-.2V1.719h.43a2.252,2.252,0,0,0,1.06-.2A1.215,1.215,0,0,0-44.761.8L-44.5.1l-3.672-10.664h3.516Zm20.928-.6a6.372,6.372,0,0,1-1.108,3.931A3.554,3.554,0,0,1-26.157.2,3.046,3.046,0,0,1-28.55-.869V4.063h-3.291V-10.566h3.076l.1.977a3.046,3.046,0,0,1,2.49-1.172,3.582,3.582,0,0,1,3.037,1.44,6.45,6.45,0,0,1,1.084,3.96Zm-3.291-.205q0-2.812-1.641-2.812a1.549,1.549,0,0,0-1.562.84v4.16a1.6,1.6,0,0,0,1.582.879q1.572,0,1.621-2.715Zm11.133-2.178L-15.3-7.666a1.947,1.947,0,0,0-1.992.977V0h-3.291V-10.566H-17.5l.107,1.357a2.548,2.548,0,0,1,2.314-1.553,3.209,3.209,0,0,1,.918.117Zm.42,2.207A6.236,6.236,0,0,1-13.179-8.2a4.4,4.4,0,0,1,1.768-1.9,5.323,5.323,0,0,1,2.705-.664,4.858,4.858,0,0,1,3.74,1.47,5.64,5.64,0,0,1,1.367,4v.117A5.472,5.472,0,0,1-4.971-1.255,4.871,4.871,0,0,1-8.687.2,4.927,4.927,0,0,1-12.31-1.157a5.29,5.29,0,0,1-1.475-3.667Zm3.291.205a3.932,3.932,0,0,0,.459,2.148,1.529,1.529,0,0,0,1.357.684q1.758,0,1.8-2.705v-.332q0-2.842-1.816-2.842-1.65,0-1.787,2.451ZM.962-10.566l.107,1.24a3.633,3.633,0,0,1,3.018-1.436A2.675,2.675,0,0,1,6.792-9.17,3.517,3.517,0,0,1,9.9-10.762q3.213,0,3.3,3.887V0H9.9V-6.67a2.014,2.014,0,0,0-.273-1.182,1.164,1.164,0,0,0-1-.371,1.559,1.559,0,0,0-1.455.869l.01.137V0h-3.3V-6.65a2.117,2.117,0,0,0-.264-1.2,1.161,1.161,0,0,0-1.006-.371,1.578,1.578,0,0,0-1.445.869V0H-2.124V-10.566Zm13.7,5.186A6.236,6.236,0,0,1,15.278-8.2a4.4,4.4,0,0,1,1.768-1.9,5.323,5.323,0,0,1,2.705-.664,4.858,4.858,0,0,1,3.74,1.47,5.64,5.64,0,0,1,1.367,4v.117a5.472,5.472,0,0,1-1.372,3.921A4.871,4.871,0,0,1,19.771.2a4.927,4.927,0,0,1-3.623-1.353,5.29,5.29,0,0,1-1.475-3.667Zm3.291.205a3.932,3.932,0,0,0,.459,2.148,1.529,1.529,0,0,0,1.357.684q1.758,0,1.8-2.705v-.332q0-2.842-1.816-2.842-1.65,0-1.787,2.451ZM30.776-2.344a1.464,1.464,0,0,0,1.074-.376,1.379,1.379,0,0,0,.371-1.05h3.086A3.653,3.653,0,0,1,34.063-.918,4.631,4.631,0,0,1,30.854.2,4.689,4.689,0,0,1,27.222-1.25a5.7,5.7,0,0,1-1.328-4v-.137a6.436,6.436,0,0,1,.591-2.827,4.3,4.3,0,0,1,1.7-1.885,5.081,5.081,0,0,1,2.637-.659A4.573,4.573,0,0,1,34.1-9.619a4.053,4.053,0,0,1,1.211,3.1H32.222a1.807,1.807,0,0,0-.4-1.26,1.382,1.382,0,0,0-1.074-.439q-1.279,0-1.494,1.631a11.508,11.508,0,0,0-.068,1.426,4.52,4.52,0,0,0,.381,2.207A1.319,1.319,0,0,0,30.776-2.344ZM40.171,0h-3.3V-10.566h3.3Zm-3.5-13.291a1.469,1.469,0,0,1,.508-1.152,1.916,1.916,0,0,1,1.318-.449,1.916,1.916,0,0,1,1.318.449,1.469,1.469,0,0,1,.508,1.152,1.469,1.469,0,0,1-.508,1.152,1.916,1.916,0,0,1-1.318.449,1.916,1.916,0,0,1-1.318-.449A1.469,1.469,0,0,1,36.675-13.291Zm5.107,7.91A6.236,6.236,0,0,1,42.4-8.2a4.4,4.4,0,0,1,1.768-1.9,5.323,5.323,0,0,1,2.705-.664,4.858,4.858,0,0,1,3.74,1.47,5.64,5.64,0,0,1,1.367,4v.117a5.472,5.472,0,0,1-1.372,3.921A4.871,4.871,0,0,1,46.89.2a4.927,4.927,0,0,1-3.623-1.353,5.29,5.29,0,0,1-1.475-3.667Zm3.291.205a3.932,3.932,0,0,0,.459,2.148,1.529,1.529,0,0,0,1.357.684q1.758,0,1.8-2.705v-.332q0-2.842-1.816-2.842-1.65,0-1.787,2.451ZM47.319-15H50.8l-2.715,3.066H45.4Zm9.131,4.434.107,1.24a3.583,3.583,0,0,1,3.018-1.436,3.015,3.015,0,0,1,2.466.986,4.7,4.7,0,0,1,.845,2.969V0h-3.3V-6.67a1.783,1.783,0,0,0-.322-1.177,1.491,1.491,0,0,0-1.172-.376,1.569,1.569,0,0,0-1.436.762V0H53.364V-10.566Zm18.77,7.6a.76.76,0,0,0-.439-.674,6.685,6.685,0,0,0-1.67-.527,7.615,7.615,0,0,1-2.031-.718,3.4,3.4,0,0,1-1.221-1.079,2.577,2.577,0,0,1-.42-1.455,2.92,2.92,0,0,1,1.2-2.4,4.948,4.948,0,0,1,3.145-.942,5.482,5.482,0,0,1,3.359.947,2.962,2.962,0,0,1,1.27,2.49h-3.3q0-1.27-1.338-1.27a1.326,1.326,0,0,0-.869.288.892.892,0,0,0-.352.718.819.819,0,0,0,.43.713,4.06,4.06,0,0,0,1.372.449,11.857,11.857,0,0,1,1.655.42,3.007,3.007,0,0,1,2.383,2.939A2.767,2.767,0,0,1,77.109-.713,5.631,5.631,0,0,1,73.784.2a5.747,5.747,0,0,1-2.422-.488A4.05,4.05,0,0,1,69.7-1.621a3.007,3.007,0,0,1-.6-1.768h3.076a1.272,1.272,0,0,0,.488,1.069,2.009,2.009,0,0,0,1.2.337,1.58,1.58,0,0,0,1.011-.273A.875.875,0,0,0,75.22-2.969Zm4.3-2.412A6.236,6.236,0,0,1,80.132-8.2,4.4,4.4,0,0,1,81.9-10.1a5.323,5.323,0,0,1,2.705-.664,4.858,4.858,0,0,1,3.74,1.47,5.64,5.64,0,0,1,1.367,4v.117A5.472,5.472,0,0,1,88.34-1.255,4.871,4.871,0,0,1,84.624.2,4.927,4.927,0,0,1,81-1.157a5.29,5.29,0,0,1-1.475-3.667Zm3.291.205a3.932,3.932,0,0,0,.459,2.148,1.529,1.529,0,0,0,1.357.684q1.758,0,1.8-2.705v-.332q0-2.842-1.816-2.842-1.65,0-1.787,2.451ZM96.694-2.969a.76.76,0,0,0-.439-.674,6.685,6.685,0,0,0-1.67-.527,7.615,7.615,0,0,1-2.031-.718,3.4,3.4,0,0,1-1.221-1.079,2.577,2.577,0,0,1-.42-1.455,2.92,2.92,0,0,1,1.2-2.4,4.948,4.948,0,0,1,3.145-.942,5.482,5.482,0,0,1,3.359.947,2.962,2.962,0,0,1,1.27,2.49h-3.3q0-1.27-1.338-1.27a1.326,1.326,0,0,0-.869.288.892.892,0,0,0-.352.718.819.819,0,0,0,.43.713,4.06,4.06,0,0,0,1.372.449,11.857,11.857,0,0,1,1.655.42,3.007,3.007,0,0,1,2.383,2.939A2.767,2.767,0,0,1,98.584-.713,5.631,5.631,0,0,1,95.259.2a5.747,5.747,0,0,1-2.422-.488,4.05,4.05,0,0,1-1.66-1.328,3.007,3.007,0,0,1-.6-1.768h3.076a1.272,1.272,0,0,0,.488,1.069,2.009,2.009,0,0,0,1.2.337,1.58,1.58,0,0,0,1.011-.273A.875.875,0,0,0,96.694-2.969Zm8.545-10.225v2.627h1.738v2.285h-1.738v4.834a1.234,1.234,0,0,0,.215.83,1.152,1.152,0,0,0,.85.234,4.828,4.828,0,0,0,.82-.059V-.088A6.074,6.074,0,0,1,105.269.2a3.448,3.448,0,0,1-2.51-.8,3.282,3.282,0,0,1-.811-2.432V-8.281H100.6v-2.285h1.348v-2.627ZM113.384.2a5.432,5.432,0,0,1-3.936-1.45,5.008,5.008,0,0,1-1.5-3.774V-5.3a6.489,6.489,0,0,1,.6-2.861,4.395,4.395,0,0,1,1.753-1.919,5.292,5.292,0,0,1,2.734-.679,4.574,4.574,0,0,1,3.516,1.382,5.43,5.43,0,0,1,1.289,3.853v1.279h-6.543a2.372,2.372,0,0,0,.771,1.4,2.3,2.3,0,0,0,1.543.508,2.958,2.958,0,0,0,2.441-1.094l1.5,1.777a4.2,4.2,0,0,1-1.743,1.353A5.891,5.891,0,0,1,113.384.2Zm-.371-8.418q-1.445,0-1.719,1.914h3.32v-.254a1.63,1.63,0,0,0-.4-1.226A1.593,1.593,0,0,0,113.013-8.223Zm9.17-2.344.107,1.24a3.583,3.583,0,0,1,3.018-1.436,3.015,3.015,0,0,1,2.466.986,4.7,4.7,0,0,1,.845,2.969V0h-3.3V-6.67A1.783,1.783,0,0,0,125-7.847a1.491,1.491,0,0,0-1.172-.376,1.569,1.569,0,0,0-1.436.762V0H119.1V-10.566ZM133.911,0h-3.3V-10.566h3.3Zm-3.5-13.291a1.469,1.469,0,0,1,.508-1.152,1.916,1.916,0,0,1,1.318-.449,1.916,1.916,0,0,1,1.318.449,1.469,1.469,0,0,1,.508,1.152,1.469,1.469,0,0,1-.508,1.152,1.916,1.916,0,0,1-1.318.449,1.916,1.916,0,0,1-1.318-.449A1.469,1.469,0,0,1,130.415-13.291Zm15.332,8.1A6.44,6.44,0,0,1,144.673-1.2,3.6,3.6,0,0,1,141.646.2a3.122,3.122,0,0,1-2.6-1.279L138.911,0h-2.949V-15h3.291v5.283a3.013,3.013,0,0,1,2.373-1.045,3.6,3.6,0,0,1,3.047,1.416,6.473,6.473,0,0,1,1.074,3.984Zm-3.3-.205a4.309,4.309,0,0,0-.405-2.173,1.366,1.366,0,0,0-1.245-.649,1.575,1.575,0,0,0-1.543.85v4.2a1.584,1.584,0,0,0,1.563.84,1.4,1.4,0,0,0,1.475-1.133A8.147,8.147,0,0,0,142.446-5.4ZM150.669,0h-3.3V-15h3.3Zm7.139.2a5.432,5.432,0,0,1-3.936-1.45,5.008,5.008,0,0,1-1.5-3.774V-5.3a6.489,6.489,0,0,1,.6-2.861,4.395,4.395,0,0,1,1.753-1.919,5.292,5.292,0,0,1,2.734-.679,4.574,4.574,0,0,1,3.516,1.382,5.43,5.43,0,0,1,1.289,3.853v1.279h-6.543a2.372,2.372,0,0,0,.771,1.4,2.3,2.3,0,0,0,1.543.508,2.958,2.958,0,0,0,2.441-1.094l1.5,1.777a4.2,4.2,0,0,1-1.743,1.353A5.891,5.891,0,0,1,157.808.2Zm-.371-8.418q-1.445,0-1.719,1.914h3.32v-.254a1.63,1.63,0,0,0-.4-1.226A1.593,1.593,0,0,0,157.437-8.223Z" transform="translate(820.479 562.913)" fill="#12263f"/>
  </g>
</svg>
